<svg width="90" height="90" viewBox="0 0 90 90" fill="none" xmlns="http://www.w3.org/2000/svg">
<path d="M58.8196 17.193C58.3972 17.193 58.0546 16.8505 58.0546 16.428C58.0546 16.0055 58.3972 15.663 58.8196 15.663V17.193ZM62.51 17.193H58.8196V15.663H62.51V17.193ZM69.4231 22.576H67.893L67.8859 22.3002L67.8648 22.0273L67.8308 21.7593L67.7832 21.4953L67.723 21.2358L67.6502 20.981L67.5655 20.7317L67.4689 20.4878L67.3607 20.25L67.2413 20.0177L67.1114 19.7922L66.9709 19.5741L66.8198 19.3619L66.66 19.1581L66.4899 18.9625L66.3113 18.7747L66.1235 18.5962L65.9279 18.4261L65.7242 18.2662L65.5119 18.1152L65.2939 17.9747L65.0684 17.8447L64.836 17.7254L64.5983 17.6172L64.3544 17.5206L64.105 17.4359L63.8502 17.3631L63.5907 17.3029L63.3267 17.2552L63.0587 17.2212L62.7859 17.2001L62.51 17.193V15.663L62.8641 15.6721L63.2138 15.6987L63.5594 15.7429L63.8996 15.8041L64.2333 15.882L64.5608 15.9752L64.8823 16.0844L65.1963 16.2089L65.5027 16.3477L65.8004 16.5011L66.0899 16.6678L66.3705 16.8484L66.6406 17.0409L66.9022 17.2464L67.1529 17.4641L67.393 17.693L67.6219 17.9332L67.8396 18.1839L68.0451 18.4455L68.2376 18.7156L68.4182 18.9962L68.5849 19.2857L68.7383 19.5833L68.8771 19.8898L69.0016 20.2037L69.1108 20.5252L69.204 20.8528L69.2819 21.1865L69.3431 21.5266L69.3874 21.8722L69.4139 22.2219L69.4231 22.576ZM69.4231 22.576C69.4231 22.9985 69.0805 23.341 68.6581 23.341C68.2356 23.341 67.893 22.9985 67.893 22.576H69.4231ZM67.893 45.7126C67.893 45.2902 68.2356 44.9476 68.6581 44.9476C69.0805 44.9476 69.4231 45.2902 69.4231 45.7126H67.893ZM67.893 65.8327V45.7126H69.4231V65.8327H67.893ZM62.51 72.7458V71.2157L62.7859 71.2086L63.0587 71.1875L63.3267 71.1535L63.5904 71.1059L63.8502 71.0456L64.1043 70.9732L64.3537 70.8878L64.5979 70.7915L64.8357 70.683L65.068 70.564L65.2935 70.4337L65.5119 70.2932L65.7235 70.1429L65.9276 69.9823L66.1232 69.8126L66.311 69.6336L66.4899 69.4459L66.6596 69.2503L66.8202 69.0462L66.9705 68.8346L67.111 68.6162L67.2413 68.3907L67.3603 68.1584L67.4689 67.9206L67.5651 67.6764L67.6505 67.427L67.723 67.1729L67.7832 66.9131L67.8308 66.6494L67.8648 66.3814L67.8859 66.1086L67.893 65.8327H69.4231L69.4139 66.1868L69.3874 66.5365L69.3431 66.8821L69.2819 67.2219L69.204 67.556L69.1105 67.8842L69.0013 68.205L68.8771 68.5186L68.738 68.8251L68.5849 69.1227L68.4179 69.4122L68.238 69.6925L68.0448 69.9633L67.8393 70.2245L67.6219 70.4752L67.3927 70.7153L67.1525 70.9446L66.9018 71.162L66.6406 71.3674L66.3698 71.5606L66.0895 71.7406L65.8 71.9076L65.5024 72.0607L65.1959 72.1998L64.8823 72.324L64.5615 72.4332L64.2333 72.5267L63.8992 72.6046L63.5594 72.6658L63.2138 72.71L62.8641 72.7366L62.51 72.7458ZM37.5974 71.2157H62.51V72.7458H37.5974V71.2157ZM37.5974 72.7458C37.175 72.7458 36.8324 72.4032 36.8324 71.9807C36.8324 71.5583 37.175 71.2157 37.5974 71.2157V72.7458ZM23.8744 44.3881C23.8744 44.8105 23.5319 45.1531 23.1094 45.1531C22.6869 45.1531 22.3444 44.8105 22.3444 44.3881H23.8744ZM23.8744 22.576V44.3881H22.3444V22.576H23.8744ZM29.2578 15.663V17.193L28.9815 17.2001L28.7091 17.2212L28.441 17.2552L28.1771 17.3029L27.9172 17.3631L27.6624 17.4359L27.4131 17.5206L27.1692 17.6172L26.9314 17.7254L26.6991 17.8447L26.4736 17.9747L26.2555 18.1152L26.0433 18.2662L25.8395 18.4261L25.6439 18.5962L25.4561 18.7747L25.2776 18.9625L25.1078 19.1581L24.9473 19.3622L24.7966 19.5741L24.6561 19.7922L24.5261 20.0177L24.4067 20.25L24.2986 20.4878L24.202 20.7317L24.1173 20.981L24.0445 21.2358L23.9843 21.4953L23.9366 21.7593L23.9026 22.0273L23.8815 22.3002L23.8744 22.576H22.3444L22.3535 22.2219L22.3801 21.8722L22.4243 21.5266L22.4855 21.1865L22.5634 20.8528L22.6566 20.5252L22.7658 20.2037L22.8903 19.8898L23.0291 19.5833L23.1825 19.2857L23.3492 18.9962L23.5298 18.7156L23.7227 18.4451L23.9281 18.1839L24.1455 17.9332L24.3744 17.693L24.6146 17.4641L24.8653 17.2464L25.1269 17.0409L25.3969 16.8484L25.6776 16.6678L25.9671 16.5011L26.2647 16.3477L26.5712 16.2089L26.8851 16.0844L27.2066 15.9752L27.5342 15.882L27.8682 15.8041L28.2084 15.7429L28.554 15.6987L28.9033 15.6721L29.2578 15.663ZM34.7789 17.193H29.2578V15.663H34.7789V17.193ZM34.7789 15.663C35.2014 15.663 35.5439 16.0055 35.5439 16.428C35.5439 16.8505 35.2014 17.193 34.7789 17.193V15.663Z" fill="#FFCE1A"/>
<path d="M55.8678 14.2649H37.692V12.7349H55.8678V14.2649ZM59.5609 16.428H58.0308L58.0281 16.3171L58.0196 16.2079L58.0057 16.0997L57.9866 15.9936L57.9625 15.8898L57.9335 15.7885L57.8992 15.6874L57.8604 15.5891L57.8176 15.4946L57.7696 15.4017L57.7169 15.3105L57.6604 15.2228L57.5995 15.1374L57.5352 15.0551L57.4672 14.9769L57.3947 14.9007L57.3196 14.8292L57.2403 14.7605L57.158 14.6959L57.0729 14.6353L56.9855 14.5789L56.8944 14.5265L56.8008 14.4782L56.7052 14.435L56.6083 14.3962L56.5079 14.3625L56.4056 14.3329L56.3021 14.3091L56.1957 14.2901L56.0878 14.2761L55.9787 14.2676L55.8678 14.2649V12.7349L56.0569 12.7396L56.2443 12.7543L56.4283 12.7777L56.6096 12.8104L56.7893 12.8519L56.9638 12.9019L57.1355 12.96L57.3039 13.0267L57.4675 13.1012L57.6264 13.1829L57.7808 13.272L57.9308 13.3679L58.0757 13.4713L58.2145 13.5808L58.3482 13.6965L58.4764 13.819L58.5986 13.9469L58.7149 14.0809L58.8248 14.2203L58.9278 14.3649L59.0238 14.5146L59.1125 14.6683L59.1945 14.8279L59.2694 14.9925L59.3353 15.1602L59.3935 15.3306L59.4442 15.5068L59.4854 15.6861L59.518 15.867L59.5415 16.0514L59.5561 16.2388L59.5609 16.428ZM58.7959 16.428H59.5609H58.7959ZM55.8678 20.1211V18.591L55.9787 18.5883L56.0878 18.5798L56.1957 18.5659L56.3021 18.5468L56.4056 18.523L56.5069 18.4938L56.6083 18.4594L56.7059 18.4206L56.8008 18.3778L56.8944 18.3295L56.9855 18.2771L57.0729 18.2206L57.158 18.1601L57.2403 18.0954L57.3189 18.0274L57.3947 17.9549L57.4672 17.8791L57.5352 17.8005L57.5999 17.7182L57.6604 17.6332L57.7169 17.5457L57.7693 17.4546L57.8176 17.361L57.8604 17.2661L57.8992 17.1685L57.9335 17.0671L57.9628 16.9658L57.9866 16.8624L58.0057 16.7559L58.0196 16.6481L58.0281 16.5389L58.0308 16.428H59.5609L59.5561 16.6171L59.5415 16.8045L59.518 16.9886L59.4854 17.1699L59.4439 17.3495L59.3935 17.525L59.3353 17.6957L59.2694 17.8634L59.1945 18.0277L59.1129 18.1866L59.0238 18.341L58.9278 18.491L58.8244 18.6359L58.7149 18.7747L58.5986 18.9091L58.4764 19.0367L58.3489 19.1588L58.2145 19.2751L58.0757 19.3846L57.9308 19.488L57.7808 19.584L57.6264 19.6731L57.4675 19.7547L57.3032 19.8296L57.1355 19.8956L56.9648 19.9537L56.7893 20.0041L56.6096 20.0456L56.4283 20.0782L56.2443 20.1017L56.0569 20.1163L55.8678 20.1211ZM37.692 18.591H55.8678V20.1211H37.692V18.591ZM33.9993 16.428H35.5293L35.532 16.5389L35.5405 16.6481L35.5545 16.7559L35.5735 16.8624L35.5973 16.9658L35.6269 17.0682L35.6606 17.1685L35.6994 17.2654L35.7426 17.361L35.7909 17.4546L35.8433 17.5457L35.8997 17.6332L35.9603 17.7182L36.0249 17.8005L36.0936 17.8798L36.1651 17.9549L36.2413 18.0274L36.3195 18.0954L36.4022 18.1601L36.4869 18.2206L36.5746 18.2771L36.6661 18.3298L36.759 18.3778L36.8539 18.4206L36.9515 18.4594L37.0529 18.4938L37.1542 18.523L37.2577 18.5468L37.3641 18.5659L37.472 18.5798L37.5811 18.5883L37.692 18.591V20.1211L37.5029 20.1163L37.3155 20.1017L37.1315 20.0782L36.9501 20.0456L36.7705 20.0041L36.595 19.9537L36.4243 19.8956L36.2566 19.8296L36.0923 19.7547L35.9327 19.6728L35.7793 19.584L35.629 19.488L35.4844 19.3846L35.3453 19.2751L35.2113 19.1588L35.0834 19.0367L34.9609 18.9084L34.8452 18.7747L34.7357 18.6359L34.6323 18.491L34.5364 18.341L34.4473 18.1866L34.3656 18.0277L34.2911 17.8641L34.2245 17.6957L34.1663 17.524L34.1163 17.3495L34.0748 17.1699L34.0421 16.9886L34.0187 16.8045L34.004 16.6171L33.9993 16.428ZM34.7643 16.428H33.9993H34.7643ZM37.692 12.7349V14.2649L37.5811 14.2676L37.472 14.2761L37.3641 14.2901L37.2577 14.3091L37.1542 14.3329L37.0519 14.3625L36.9515 14.3962L36.8546 14.435L36.759 14.4782L36.6661 14.5261L36.5746 14.5789L36.4869 14.6353L36.4022 14.6959L36.3195 14.7605L36.2406 14.8292L36.1651 14.9007L36.0936 14.9762L36.0249 15.0551L35.9606 15.1374L35.8997 15.2228L35.8433 15.3105L35.7905 15.4017L35.7426 15.4946L35.6994 15.5898L35.6606 15.6874L35.6269 15.7875L35.5977 15.8898L35.5735 15.9936L35.5545 16.0997L35.5405 16.2079L35.532 16.3171L35.5293 16.428H33.9993L34.004 16.2388L34.0187 16.0514L34.0421 15.867L34.0748 15.6861L34.1159 15.5068L34.1663 15.3316L34.2245 15.1602L34.2911 14.9918L34.3656 14.8279L34.4476 14.6683L34.5364 14.5146L34.6323 14.3649L34.7354 14.2203L34.8452 14.0809L34.9609 13.9475L35.0834 13.819L35.2119 13.6965L35.3453 13.5808L35.4844 13.4713L35.629 13.3679L35.7793 13.272L35.9327 13.1832L36.0923 13.1012L36.2559 13.0267L36.4243 12.96L36.596 12.9019L36.7705 12.8519L36.9501 12.8104L37.1315 12.7777L37.3155 12.7543L37.5029 12.7396L37.692 12.7349Z" fill="#FFCE1A"/>
<path d="M36.6651 28.9043L36.6637 27.3743C37.0862 27.3739 37.4291 27.7161 37.4294 28.1386C37.4298 28.5611 37.0876 28.904 36.6651 28.9043ZM30.2272 28.9087L30.2259 27.3787L36.6637 27.3743L36.6651 28.9043L30.2272 28.9087ZM30.2259 27.3787L30.2272 28.9087C29.8048 28.9091 29.4619 28.5669 29.4615 28.1444C29.4612 27.7219 29.8034 27.379 30.2259 27.3787Z" fill="#FFCE1A"/>
<path d="M41.6485 28.9009L41.6444 27.3777C42.0625 27.3767 42.403 27.7168 42.404 28.1373C42.405 28.5577 42.0665 28.8999 41.6485 28.9009ZM40.048 28.9053L40.0439 27.3821L41.6444 27.3777L41.6485 28.9009L40.048 28.9053ZM40.0439 27.3821L40.048 28.9053C39.63 28.9064 39.2895 28.5662 39.2885 28.1458C39.2874 27.7253 39.6259 27.3831 40.0439 27.3821Z" fill="#FFCE1A"/>
<path d="M35.2078 36.0232C34.7853 36.0229 34.4431 35.68 34.4435 35.2575C34.4438 34.835 34.7867 34.4928 35.2092 34.4932L35.2078 36.0232ZM41.6457 36.028L35.2078 36.0232L35.2092 34.4932L41.647 34.4979L41.6457 36.028ZM41.647 34.4979C42.0695 34.4983 42.4117 34.8411 42.4114 35.2636C42.411 35.6861 42.0682 36.0283 41.6457 36.028L41.647 34.4979Z" fill="#FFCE1A"/>
<path d="M30.2242 36.0198C29.8061 36.0187 29.468 35.6762 29.469 35.2558C29.47 34.8353 29.8109 34.4955 30.2289 34.4965L30.2242 36.0198ZM31.8246 36.0245L30.2242 36.0198L30.2289 34.4965L31.8294 34.5013L31.8246 36.0245ZM31.8294 34.5013C32.2474 34.5023 32.5855 34.8448 32.5845 35.2653C32.5835 35.6857 32.2427 36.0255 31.8246 36.0245L31.8294 34.5013Z" fill="#FFCE1A"/>
<path d="M37.4648 43.8135L37.4641 42.2821C37.8866 42.2821 38.2295 42.6246 38.2295 43.0475C38.2295 43.4703 37.8873 43.8135 37.4648 43.8135ZM30.2269 43.8183L30.2262 42.2869L37.4641 42.2821L37.4648 43.8135L30.2269 43.8183ZM30.2262 42.2869L30.2269 43.8183C29.8044 43.8183 29.4615 43.4757 29.4615 43.0529C29.4615 42.6301 29.8037 42.2869 30.2262 42.2869Z" fill="#FFCE1A"/>
<path d="M43.0673 43.7894L43.0632 42.3063C43.4857 42.3053 43.8292 42.6366 43.8302 43.0458C43.8313 43.455 43.4897 43.7883 43.0673 43.7894ZM41.2682 43.7941L41.2641 42.311L43.0632 42.3063L43.0673 43.7894L41.2682 43.7941ZM41.2641 42.311L41.2682 43.7941C40.8457 43.7952 40.5021 43.4638 40.5011 43.0546C40.5001 42.6454 40.8416 42.3121 41.2641 42.311Z" fill="#FFCE1A"/>
<path d="M55.0613 53.7465C54.6388 53.7465 54.2966 53.4033 54.2966 52.9804C54.2966 52.5576 54.6395 52.2151 55.062 52.2151L55.0613 53.7465ZM62.2992 53.7512L55.0613 53.7465L55.062 52.2151L62.2999 52.2199L62.2992 53.7512ZM62.2999 52.2199C62.7224 52.2199 63.0646 52.5631 63.0646 52.9859C63.0646 53.4087 62.7217 53.7512 62.2992 53.7512L62.2999 52.2199Z" fill="#FFCE1A"/>
<path d="M49.4588 53.7224C49.0363 53.7213 48.6948 53.388 48.6958 52.9788C48.6968 52.5696 49.0404 52.2382 49.4629 52.2393L49.4588 53.7224ZM51.2579 53.7271L49.4588 53.7224L49.4629 52.2393L51.262 52.244L51.2579 53.7271ZM51.262 52.244C51.6844 52.245 52.026 52.5784 52.0249 52.9876C52.0239 53.3968 51.6804 53.7281 51.2579 53.7271L51.262 52.244Z" fill="#FFCE1A"/>
<path d="M39.616 53.7417C39.1935 53.7417 38.8513 53.4005 38.8513 52.9804C38.8513 52.5603 39.1942 52.2198 39.6167 52.2198L39.616 53.7417ZM49.4605 53.7465L39.616 53.7417L39.6167 52.2198L49.4612 52.2246L49.4605 53.7465ZM49.4612 52.2246C49.8837 52.2246 50.2259 52.5658 50.2259 52.9859C50.2259 53.406 49.883 53.7465 49.4605 53.7465L49.4612 52.2246Z" fill="#FFCE1A"/>
<path d="M31.9971 53.7356C31.5746 53.735 31.2327 53.3962 31.2334 52.9795C31.2341 52.5628 31.5773 52.2253 31.9998 52.226L31.9971 53.7356ZM34.4442 53.7404L31.9971 53.7356L31.9998 52.226L34.4469 52.2308L34.4442 53.7404ZM34.4469 52.2308C34.8694 52.2315 35.2112 52.5703 35.2105 52.987C35.2099 53.4036 34.8666 53.7411 34.4442 53.7404L34.4469 52.2308Z" fill="#FFCE1A"/>
<path d="M55.0613 62.9036C54.6388 62.9036 54.2966 62.5604 54.2966 62.1376C54.2966 61.7147 54.6395 61.3722 55.062 61.3722L55.0613 62.9036ZM62.2992 62.9084L55.0613 62.9036L55.062 61.3722L62.2999 61.377L62.2992 62.9084ZM62.2999 61.377C62.7224 61.377 63.0646 61.7202 63.0646 62.143C63.0646 62.5658 62.7217 62.9084 62.2992 62.9084L62.2999 61.377Z" fill="#FFCE1A"/>
<path d="M39.616 62.8988C39.1935 62.8988 38.8513 62.5576 38.8513 62.1375C38.8513 61.7175 39.1942 61.377 39.6167 61.377L39.616 62.8988ZM49.4605 62.9036L39.616 62.8988L39.6167 61.377L49.4612 61.3817L49.4605 62.9036ZM49.4612 61.3817C49.8837 61.3817 50.2259 61.7229 50.2259 62.143C50.2259 62.5631 49.883 62.9036 49.4605 62.9036L49.4612 61.3817Z" fill="#FFCE1A"/>
<path d="M31.9971 62.8927C31.5746 62.892 31.2327 62.5532 31.2334 62.1365C31.2341 61.7198 31.5773 61.3824 31.9998 61.3831L31.9971 62.8927ZM34.4442 62.8974L31.9971 62.8927L31.9998 61.3831L34.4469 61.3878L34.4442 62.8974ZM34.4469 61.3878C34.8694 61.3885 35.2112 61.7273 35.2105 62.144C35.2099 62.5607 34.8666 62.8981 34.4442 62.8974L34.4469 61.3878Z" fill="#FFCE1A"/>
<path d="M30.032 53.7009H28.502L28.4949 53.4223L28.4745 53.1485L28.4398 52.8788L28.3925 52.6131L28.3323 52.3525L28.2595 52.0967L28.1751 51.8464L28.0789 51.6022L27.9707 51.3634L27.8516 51.1307L27.7213 50.9048L27.5815 50.6858L27.4312 50.4749L27.271 50.2708L27.1016 50.0752L26.9227 49.8874L26.7352 49.7088L26.5393 49.5391L26.3359 49.3789L26.1243 49.2289L25.9052 49.0884L25.6797 48.9584L25.4474 48.8394L25.2083 48.7315L24.9637 48.6349L24.7137 48.5506L24.4579 48.4778L24.1973 48.4176L23.9316 48.3703L23.6619 48.3356L23.3881 48.3152L23.1095 48.3081V46.778L23.4649 46.7872L23.8163 46.8137L24.1629 46.858L24.5034 46.9188L24.8388 46.9961L25.1674 47.0893L25.4896 47.1981L25.8042 47.3226L26.1107 47.4611L26.4097 47.6141L26.6998 47.7808L26.9801 47.9607L27.2516 48.1536L27.5135 48.3594L27.7645 48.5768L28.0044 48.8057L28.2336 49.0459L28.4513 49.2972L28.6564 49.5585L28.8497 49.8299L29.0296 50.1109L29.1959 50.4007L29.349 50.6994L29.4878 51.0062L29.612 51.3212L29.7208 51.643L29.814 51.9716L29.8912 52.307L29.9521 52.6475L29.9963 52.9941L30.0229 53.3455L30.032 53.7009ZM23.1095 60.6235V59.0935L23.3881 59.0863L23.6619 59.0659L23.9316 59.0312L24.1973 58.9839L24.4579 58.9237L24.7137 58.8509L24.9637 58.7666L25.2083 58.67L25.4474 58.5621L25.6797 58.4431L25.9052 58.3132L26.1243 58.1727L26.3359 58.0227L26.5393 57.8624L26.7352 57.6927L26.9227 57.5141L27.1016 57.3264L27.2713 57.1304L27.4312 56.927L27.5815 56.7158L27.7213 56.4967L27.8516 56.2705L27.9707 56.0382L28.0789 55.7997L28.1751 55.5555L28.2595 55.3051L28.3323 55.0493L28.3925 54.7888L28.4398 54.5231L28.4745 54.2533L28.4949 53.9792L28.502 53.7009H30.032L30.0229 54.0561L29.9963 54.4078L29.9521 54.7544L29.8912 55.0949L29.814 55.4303L29.7208 55.7589L29.612 56.0807L29.4878 56.3957L29.349 56.7028L29.1959 57.0012L29.0296 57.2906L28.8497 57.5716L28.6564 57.8434L28.451 58.1046L28.2336 58.3557L28.0044 58.5958L27.7645 58.8247L27.5135 59.0421L27.2516 59.2479L26.9801 59.4408L26.6998 59.6207L26.4097 59.7874L26.1107 59.9405L25.8042 60.0789L25.4896 60.2034L25.1674 60.3123L24.8388 60.4055L24.5034 60.4827L24.1629 60.5436L23.8163 60.5878L23.4649 60.6143L23.1095 60.6235ZM16.1869 53.7009H17.7169L17.7241 53.9792L17.7445 54.2533L17.7792 54.5231L17.8265 54.7888L17.8867 55.0493L17.9595 55.3051L18.0438 55.5555L18.1401 55.7997L18.2483 56.0382L18.3673 56.2705L18.4976 56.4967L18.6374 56.7158L18.7877 56.927L18.9476 57.1304L19.1174 57.3264L19.2963 57.5141L19.4837 57.6927L19.6796 57.8624L19.8831 58.0227L20.0946 58.1727L20.3137 58.3132L20.5392 58.4431L20.7716 58.5621L21.0107 58.67L21.2553 58.7666L21.5053 58.8509L21.7611 58.9237L22.0216 58.9839L22.2873 59.0312L22.5571 59.0659L22.8309 59.0863L23.1095 59.0935V60.6235L22.754 60.6143L22.4026 60.5878L22.056 60.5436L21.7155 60.4827L21.3801 60.4055L21.0515 60.3123L20.7294 60.2034L20.4147 60.0789L20.1082 59.9405L19.8092 59.7874L19.5191 59.6207L19.2388 59.4408L18.9674 59.2479L18.7054 59.0421L18.4544 58.8247L18.2146 58.5958L17.9853 58.3557L17.768 58.1046L17.5625 57.8434L17.3693 57.5716L17.1893 57.2906L17.023 57.0012L16.8699 56.7028L16.7311 56.3957L16.607 56.0807L16.4981 55.7589L16.4049 55.4303L16.3277 55.0949L16.2668 54.7544L16.2226 54.4078L16.1961 54.0561L16.1869 53.7009ZM23.1095 46.778V48.3081L22.8309 48.3152L22.5571 48.3356L22.2873 48.3703L22.0216 48.4176L21.7611 48.4778L21.5053 48.5506L21.2553 48.6349L21.0107 48.7315L20.7716 48.8394L20.5392 48.9584L20.3137 49.0884L20.0946 49.2289L19.8831 49.3789L19.6796 49.5391L19.4837 49.7088L19.2963 49.8874L19.1174 50.0752L18.948 50.2708L18.7877 50.4749L18.6374 50.6858L18.4976 50.9048L18.3673 51.1307L18.2483 51.3634L18.1401 51.6022L18.0438 51.8464L17.9595 52.0967L17.8867 52.3525L17.8265 52.6131L17.7792 52.8788L17.7445 53.1485L17.7241 53.4223L17.7169 53.7009H16.1869L16.1961 53.3455L16.2226 52.9941L16.2668 52.6475L16.3277 52.307L16.4049 51.9716L16.4981 51.643L16.607 51.3212L16.7311 51.0062L16.8699 50.6994L17.023 50.4007L17.1893 50.1109L17.3693 49.8299L17.5625 49.5585L17.7676 49.2972L17.9853 49.0459L18.2146 48.8057L18.4544 48.5768L18.7054 48.3594L18.9674 48.1536L19.2388 47.9607L19.5191 47.7808L19.8092 47.6141L20.1082 47.4611L20.4147 47.3226L20.7294 47.1981L21.0515 47.0893L21.3801 46.9961L21.7155 46.9188L22.056 46.858L22.4026 46.8137L22.754 46.7872L23.1095 46.778Z" fill="#1DACA5"/>
<path d="M25.5456 63.7268H20.6729V62.1967H25.5456V63.7268ZM34.1942 70.8449H32.6642L32.655 70.4796L32.6274 70.1197L32.5818 69.7649L32.5189 69.4159L32.4393 69.0724L32.343 68.7356L32.2311 68.406L32.1029 68.0832L31.96 67.7682L31.8025 67.4617L31.6301 67.1634L31.4447 66.8739L31.2454 66.5946L31.0334 66.3252L30.8089 66.0664L30.5725 65.8184L30.3245 65.582L30.0657 65.3575L29.7963 65.1456L29.5167 64.9462L29.2275 64.7605L28.9295 64.5887L28.6227 64.4309L28.3077 64.288L27.9849 64.1598L27.6553 64.0479L27.3182 63.9516L26.975 63.872L26.6257 63.8091L26.2709 63.7635L25.911 63.7359L25.5456 63.7268V62.1967L25.9885 62.2079L26.4267 62.2416L26.8583 62.2967L27.2839 62.3733L27.7012 62.4705L28.1111 62.5872L28.5135 62.7243L28.9057 62.8798L29.2888 63.0532L29.6616 63.2451L30.0235 63.4536L30.3745 63.6795L30.7133 63.921L31.0399 64.1778L31.3539 64.4499L31.6542 64.7367L31.941 65.037L32.2131 65.351L32.4699 65.6776L32.7114 66.0167L32.937 66.3674L33.1455 66.729L33.3377 67.1022L33.5112 67.4852L33.6666 67.8774L33.8037 68.2791L33.9204 68.6893L34.0177 69.1071L34.0942 69.5323L34.1493 69.9639L34.183 70.402L34.1942 70.8449ZM32.6642 73.3468V70.8449H34.1942V73.3468H32.6642ZM30.2759 77.2651V75.7351L30.3987 75.732L30.5195 75.7228L30.6385 75.7075L30.7548 75.6864L30.8698 75.6599L30.9824 75.6276L31.0933 75.5898L31.2015 75.5469L31.3069 75.499L31.41 75.4463L31.51 75.3884L31.6069 75.3262L31.7008 75.2592L31.7913 75.1881L31.8787 75.1122L31.9621 75.033L32.042 74.9489L32.1172 74.8625L32.1876 74.7724L32.2553 74.6775L32.3179 74.5802L32.3754 74.4809L32.4284 74.3771L32.4764 74.2717L32.5189 74.1645L32.5567 74.0536L32.589 73.9404L32.6155 73.8257L32.6366 73.7094L32.6519 73.5903L32.6611 73.4696L32.6642 73.3468H34.1942L34.1891 73.5471L34.1738 73.7455L34.149 73.9414L34.1143 74.1346L34.07 74.3241L34.0166 74.5101L33.9551 74.6918L33.8846 74.8704L33.8054 75.0438L33.719 75.2122L33.6241 75.3769L33.522 75.5354L33.4135 75.6881L33.2969 75.8368L33.1734 75.9789L33.0438 76.1147L32.9081 76.2443L32.7662 76.3671L32.6186 76.4837L32.4648 76.5929L32.306 76.6953L32.1413 76.7899L31.973 76.8766L31.7995 76.9552L31.6212 77.026L31.4396 77.0875L31.2535 77.1409L31.0637 77.1852L30.8705 77.2199L30.6746 77.2447L30.4763 77.26L30.2759 77.2651ZM15.943 75.7351H30.2759V77.2651H15.943V75.7351ZM12.0247 73.3468H13.5547L13.5578 73.4696L13.5669 73.5903L13.5822 73.7094L13.6033 73.8257L13.6299 73.9404L13.6622 74.0536L13.6999 74.1645L13.7425 74.2717L13.7904 74.3771L13.8435 74.4809L13.901 74.5802L13.9636 74.6775L14.0313 74.7724L14.1017 74.8625L14.1768 74.9489L14.2568 75.033L14.3401 75.1122L14.4275 75.1881L14.518 75.2592L14.6119 75.3262L14.7089 75.3884L14.8089 75.4463L14.9119 75.499L15.0174 75.5469L15.1255 75.5898L15.2364 75.6276L15.349 75.6599L15.464 75.6864L15.5803 75.7075L15.6994 75.7228L15.8202 75.732L15.943 75.7351V77.2651L15.7426 77.26L15.5443 77.2447L15.3484 77.2199L15.1551 77.1852L14.9653 77.1409L14.7793 77.0875L14.5976 77.026L14.4194 76.9552L14.2459 76.8766L14.0775 76.7899L13.9129 76.6953L13.754 76.5929L13.6003 76.4837L13.4526 76.3671L13.3108 76.2443L13.1751 76.1147L13.0455 75.9789L12.922 75.8368L12.8053 75.6881L12.6968 75.5354L12.5948 75.3769L12.4999 75.2122L12.4135 75.0438L12.3342 74.8704L12.2638 74.6918L12.2022 74.5101L12.1488 74.3241L12.1046 74.1346L12.0699 73.9414L12.0451 73.7455L12.0298 73.5471L12.0247 73.3468ZM13.5547 70.8449V73.3468H12.0247V70.8449H13.5547ZM20.6729 62.1967V63.7268L20.3075 63.7359L19.9476 63.7635L19.5929 63.8091L19.2439 63.872L18.9003 63.9516L18.5635 64.0479L18.2339 64.1598L17.9111 64.288L17.5961 64.4309L17.2893 64.5887L16.9913 64.7605L16.7022 64.9462L16.4226 65.1456L16.1532 65.3575L15.8943 65.582L15.6463 65.8184L15.4099 66.0664L15.1854 66.3252L14.9735 66.5946L14.7742 66.8742L14.5884 67.1634L14.4167 67.4614L14.2588 67.7682L14.116 68.0832L13.9877 68.406L13.8758 68.7356L13.7795 69.0724L13.6999 69.4159L13.637 69.7649L13.5914 70.1197L13.5639 70.4796L13.5547 70.8449H12.0247L12.0359 70.402L12.0696 69.9639L12.1247 69.5323L12.2012 69.1071L12.2985 68.6893L12.4152 68.2791L12.5522 67.8774L12.7077 67.4852L12.8812 67.1022L13.073 66.7293L13.2815 66.3674L13.5074 66.0164L13.7489 65.6776L14.0057 65.351L14.2779 65.037L14.5646 64.7367L14.865 64.4499L15.179 64.1778L15.5055 63.921L15.8443 63.6795L16.1953 63.4536L16.5573 63.2451L16.9301 63.0532L17.3131 62.8798L17.7053 62.7243L18.107 62.5872L18.5173 62.4705L18.935 62.3733L19.3602 62.2967L19.7919 62.2416L20.23 62.2079L20.6729 62.1967Z" fill="#1DACA5"/>
<path d="M68.2359 43.9363L68.2305 42.4062L68.6557 42.394L69.0741 42.3607L69.4863 42.3069L69.8918 42.2328L70.2905 42.1396L70.681 42.0273L71.0633 41.8963L71.4368 41.7477L71.8008 41.581L72.1559 41.3977L72.5005 41.1983L72.8338 40.9827L73.1563 40.7514L73.4672 40.5058L73.7652 40.2456L74.0506 39.9714L74.3227 39.6839L74.5809 39.3836L74.8248 39.0717L75.0534 38.7475L75.2667 38.4121L75.464 38.0661L75.6446 37.7103L75.8082 37.345L75.9545 36.9702L76.0827 36.5868L76.1922 36.1953L76.2831 35.7966L76.3538 35.3908L76.4052 34.9778L76.4351 34.5591L76.4446 34.1339L77.9747 34.1285L77.9638 34.6305L77.9277 35.1268L77.8675 35.616L77.7832 36.098L77.6753 36.5715L77.5454 37.0358L77.3933 37.4906L77.2199 37.9355L77.0256 38.3696L76.811 38.7921L76.577 39.2019L76.3242 39.5992L76.0534 39.9833L75.7647 40.3537L75.4589 40.7092L75.1364 41.0497L74.7986 41.3742L74.4448 41.6827L74.0768 41.9739L73.6951 42.2474L73.2992 42.5032L72.8907 42.7399L72.4702 42.9573L72.0375 43.1546L71.594 43.3311L71.1402 43.4866L70.6762 43.6199L70.2041 43.7308L69.7231 43.8186L69.2339 43.8825L68.738 43.922L68.2359 43.9363ZM58.4281 34.1975L59.9581 34.1921L59.9704 34.6173L60.0037 35.0357L60.0575 35.4479L60.1316 35.8538L60.2248 36.2521L60.3374 36.6426L60.468 37.0249L60.617 37.3984L60.7834 37.7627L60.9664 38.1172L61.1664 38.4621L61.3817 38.7958L61.6127 39.1176L61.8589 39.4285L62.1192 39.7271L62.3933 40.0125L62.6804 40.2843L62.9811 40.5425L63.2934 40.7864L63.6172 41.0153L63.9526 41.2283L64.2982 41.4256L64.6544 41.6062L65.02 41.7698L65.3946 41.9161L65.7779 42.0443L66.1691 42.1542L66.5674 42.2447L66.9736 42.3154L67.3865 42.3668L67.8053 42.3967L68.2305 42.4062L68.2359 43.9363L67.7338 43.9254L67.2375 43.8893L66.7484 43.8291L66.2667 43.7448L65.7929 43.6373L65.3282 43.507L64.8734 43.3549L64.4288 43.1815L63.9951 42.9872L63.573 42.7726L63.1628 42.5392L62.7655 42.2862L62.3811 42.0151L62.011 41.7263L61.6559 41.4205L61.315 41.0983L60.9905 40.7599L60.682 40.4068L60.3908 40.0387L60.117 39.6564L59.8615 39.2608L59.6248 38.8526L59.4071 38.4315L59.2101 37.9991L59.0332 37.5556L58.8781 37.1018L58.7444 36.6385L58.6336 36.1653L58.5458 35.6847L58.4818 35.1955L58.4424 34.6996L58.4281 34.1975ZM68.1669 24.3897L68.1723 25.9197L67.7471 25.932L67.3287 25.9653L66.9164 26.0191L66.511 26.0932L66.1126 26.1864L65.7218 26.299L65.3395 26.4296L64.966 26.5786L64.6016 26.745L64.2472 26.928L63.9023 27.128L63.5686 27.3433L63.2468 27.5743L62.9359 27.8206L62.6376 28.0808L62.3522 28.3549L62.0797 28.6424L61.8219 28.9424L61.578 29.2547L61.3494 29.5785L61.1361 29.9139L60.9388 30.2598L60.7582 30.616L60.5946 30.9813L60.4483 31.3558L60.3201 31.7392L60.2105 32.1307L60.1197 32.5294L60.049 32.9352L59.9976 33.3481L59.9677 33.7669L59.9581 34.1921L58.4281 34.1975L58.439 33.6954L58.475 33.1992L58.5352 32.71L58.6196 32.228L58.7274 31.7545L58.8574 31.2902L59.0094 30.8354L59.1829 30.3901L59.3771 29.9568L59.5918 29.5346L59.8258 29.124L60.0785 28.7267L60.3493 28.343L60.6381 27.9723L60.9443 27.6171L61.2664 27.2766L61.6042 26.9521L61.9576 26.6436L62.3256 26.3524L62.708 26.0786L63.1036 25.8231L63.5118 25.5864L63.9329 25.3687L64.3652 25.1717L64.8088 24.9949L65.2626 24.8397L65.7262 24.7061L66.1987 24.5952L66.6797 24.5074L67.1688 24.4435L67.6648 24.404L68.1669 24.3897ZM77.9747 34.1285L76.4446 34.1339L76.4324 33.7087L76.399 33.2903L76.3453 32.878L76.2711 32.4726L76.1779 32.0742L76.0654 31.6834L75.9347 31.3017L75.7857 30.9279L75.6194 30.5633L75.4364 30.2092L75.2364 29.8642L75.0207 29.5305L74.7901 29.2084L74.5442 28.8978L74.2836 28.5992L74.0094 28.3138L73.722 28.0413L73.4223 27.7835L73.1097 27.5399L72.7855 27.311L72.4505 27.0977L72.1045 26.9004L71.7484 26.7198L71.3831 26.5562L71.0085 26.4099L70.6252 26.2817L70.2337 26.1721L69.835 26.0813L69.4292 26.0106L69.0162 25.9592L68.5975 25.9293L68.1723 25.9197L68.1669 24.3897L68.6689 24.4006L69.1652 24.4367L69.6544 24.4969L70.1364 24.5812L70.6099 24.689L71.0742 24.819L71.529 24.971L71.9743 25.1445L72.4076 25.3388L72.8298 25.5534L73.2403 25.7874L73.638 26.0402L74.0213 26.3113L74.3918 26.5997L74.7472 26.9059L75.0877 27.228L75.4122 27.5665L75.7204 27.9195L76.012 28.2873L76.2861 28.6699L76.5412 29.0655L76.778 29.4737L76.9957 29.8945L77.1926 30.3272L77.3695 30.7704L77.5246 31.2242L77.6583 31.6878L77.7692 32.1603L77.857 32.6413L77.9209 33.1304L77.9604 33.6264L77.9747 34.1285Z" fill="#1DACA5"/>
<path d="M65.9518 37.6325C65.6545 37.9325 65.1759 37.941 64.8837 37.6515C64.5915 37.362 64.5952 36.8834 64.8925 36.5834L65.9518 37.6325ZM71.6501 31.8814L65.9518 37.6325L64.8925 36.5834L70.5908 30.8323L71.6501 31.8814ZM70.5908 30.8323C70.8881 30.5323 71.3667 30.5238 71.6589 30.8133C71.9511 31.1028 71.9474 31.5814 71.6501 31.8814L70.5908 30.8323Z" fill="#FFCE1A"/>
<path d="M71.1463 30.5939C71.5647 30.6109 71.8923 30.967 71.8783 31.3885C71.8644 31.8099 71.513 32.1375 71.0946 32.1205L71.1463 30.5939ZM67.5532 30.4463L71.1463 30.5939L71.0946 32.1205L67.5015 31.9729L67.5532 30.4463ZM67.5015 31.9729C67.0831 31.9559 66.7555 31.5997 66.7695 31.1783C66.7834 30.7568 67.1348 30.4292 67.5532 30.4463L67.5015 31.9729Z" fill="#FFCE1A"/>
<path d="M71.8845 31.3732L70.3572 31.3412C70.3688 30.9225 70.7208 30.5905 71.1423 30.599C71.5637 30.6075 71.8961 30.9544 71.8845 31.3732ZM71.7835 34.9676L70.2562 34.9357L70.3572 31.3412L71.8845 31.3732L71.7835 34.9676ZM70.2562 34.9357L71.7835 34.9676C71.7719 35.3864 71.4198 35.7184 70.9984 35.7099C70.5769 35.7014 70.2446 35.3544 70.2562 34.9357Z" fill="#FFCE1A"/>
<path d="M56.6991 43.8135L56.6984 42.2821C57.1209 42.2821 57.4637 42.6246 57.4637 43.0475C57.4637 43.4703 57.1215 43.8135 56.6991 43.8135ZM49.4612 43.8183L49.4605 42.2869L56.6984 42.2821L56.6991 43.8135L49.4612 43.8183ZM49.4605 42.2869L49.4612 43.8183C49.0387 43.8183 48.6958 43.4757 48.6958 43.0529C48.6958 42.6301 49.038 42.2869 49.4605 42.2869Z" fill="#FFCE1A"/>
</svg>
