<svg width="66" height="64" viewBox="0 0 66 64" fill="none" xmlns="http://www.w3.org/2000/svg">
<path d="M46.0213 5.31348C45.5988 5.31348 45.2563 4.97094 45.2563 4.54847C45.2563 4.12599 45.5988 3.78345 46.0213 3.78345V5.31348ZM49.7117 5.31348H46.0213V3.78345H49.7117V5.31348ZM56.6247 10.6965H55.0947L55.0876 10.4206L55.0665 10.1478L55.0324 9.87978L54.9848 9.61582L54.9246 9.35627L54.8518 9.1015L54.7671 8.85216L54.6705 8.60827L54.5624 8.37049L54.443 8.13816L54.313 7.91264L54.1725 7.6946L54.0215 7.48234L53.8616 7.27858L53.6915 7.08299L53.513 6.89522L53.3252 6.71664L53.1296 6.54656L52.9258 6.38669L52.7136 6.23565L52.4955 6.09517L52.27 5.96523L52.0377 5.84583L51.7999 5.73766L51.556 5.64106L51.3067 5.55636L51.0519 5.48356L50.7924 5.42335L50.5284 5.37573L50.2604 5.34172L49.9876 5.32063L49.7117 5.31348V3.78345L50.0658 3.79263L50.4155 3.81916L50.7611 3.86338L51.1012 3.92461L51.4349 4.00251L51.7625 4.09571L52.0839 4.20491L52.3979 4.3294L52.7044 4.46819L53.002 4.6216L53.2915 4.78828L53.5721 4.9689L53.8422 5.16143L54.1038 5.36689L54.3545 5.58459L54.5947 5.81352L54.8236 6.05367L55.0413 6.30437L55.2467 6.56595L55.4393 6.83604L55.6199 7.11667L55.7866 7.40614L55.94 7.70378L56.0788 8.01026L56.2033 8.32423L56.3125 8.64568L56.4057 8.97326L56.4836 9.30695L56.5448 9.64711L56.589 9.99271L56.6155 10.3424L56.6247 10.6965V10.6965ZM56.6247 10.6965C56.6247 11.119 56.2822 11.4615 55.8597 11.4615C55.4372 11.4615 55.0947 11.119 55.0947 10.6965H56.6247ZM55.0947 33.8331C55.0947 33.4106 55.4372 33.0681 55.8597 33.0681C56.2822 33.0681 56.6247 33.4106 56.6247 33.8331H55.0947ZM55.0947 53.9532V33.8331H56.6247V53.9532H55.0947ZM49.7117 60.8662V59.3362L49.9876 59.3291L50.2604 59.308L50.5284 59.274L50.792 59.2263L51.0519 59.1661L51.306 59.0937L51.5553 59.0083L51.7996 58.912L52.0373 58.8035L52.2697 58.6845L52.4952 58.5542L52.7136 58.4137L52.9252 58.2633L53.1293 58.1028L53.3249 57.9331L53.5126 57.7541L53.6915 57.5664L53.8613 57.3708L54.0218 57.1667L54.1722 56.9551L54.3127 56.7367L54.443 56.5112L54.562 56.2789L54.6705 56.0411L54.7668 55.7968L54.8522 55.5475L54.9246 55.2934L54.9848 55.0335L55.0324 54.7699L55.0665 54.5019L55.0876 54.2291L55.0947 53.9532H56.6247L56.6155 54.3073L56.589 54.657L56.5448 55.0026L56.4836 55.3424L56.4057 55.6764L56.3121 56.0047L56.2029 56.3255L56.0788 56.6391L55.9397 56.9456L55.7866 57.2432L55.6196 57.5327L55.4396 57.813L55.2464 58.0837L55.041 58.345L54.8236 58.5957L54.5943 58.8358L54.3542 59.0651L54.1035 59.2825L53.8422 59.4879L53.5715 59.6811L53.2912 59.8611L53.0017 60.0281L52.7041 60.1812L52.3976 60.3203L52.0839 60.4444L51.7632 60.5536L51.4349 60.6472L51.1009 60.7251L50.7611 60.7863L50.4155 60.8305L50.0658 60.8571L49.7117 60.8662V60.8662ZM24.7991 59.3362H49.7117V60.8662H24.7991V59.3362ZM24.7991 60.8662C24.3766 60.8662 24.0341 60.5237 24.0341 60.1012C24.0341 59.6787 24.3766 59.3362 24.7991 59.3362V60.8662V60.8662ZM11.0761 32.5085C11.0761 32.931 10.7335 33.2735 10.311 33.2735C9.88856 33.2735 9.54602 32.931 9.54602 32.5085H11.0761ZM11.0761 10.6965V32.5085H9.54602V10.6965H11.0761ZM16.4594 3.78345V5.31348L16.1832 5.32063L15.9107 5.34172L15.6427 5.37573L15.3787 5.42335L15.1188 5.48356L14.8641 5.55636L14.6147 5.64106L14.3708 5.73766L14.1331 5.84583L13.9007 5.96523L13.6752 6.09517L13.4572 6.23565L13.2449 6.38669L13.0412 6.54656L12.8456 6.71664L12.6578 6.89522L12.4792 7.08299L12.3095 7.27858L12.1489 7.48268L11.9982 7.6946L11.8577 7.91264L11.7278 8.13816L11.6084 8.37049L11.5002 8.60827L11.4036 8.85216L11.3189 9.1015L11.2461 9.35627L11.1859 9.61582L11.1383 9.87978L11.1043 10.1478L11.0832 10.4206L11.0761 10.6965H9.54602L9.55521 10.3424L9.58174 9.99271L9.62596 9.64711L9.68719 9.30695L9.76508 8.97326L9.85829 8.64568L9.96748 8.32423L10.092 8.01026L10.2308 7.70378L10.3842 7.40614L10.5509 7.11667L10.7315 6.83604L10.9243 6.56561L11.1298 6.30437L11.3472 6.05367L11.5761 5.81352L11.8162 5.58459L12.0669 5.36689L12.3285 5.16143L12.5986 4.9689L12.8792 4.78828L13.1687 4.6216L13.4664 4.46819L13.7728 4.3294L14.0868 4.20491L14.4083 4.09571L14.7358 4.00251L15.0699 3.92461L15.41 3.86338L15.7556 3.81916L16.105 3.79263L16.4594 3.78345V3.78345ZM21.9805 5.31348H16.4594V3.78345H21.9805V5.31348ZM21.9805 3.78345C22.403 3.78345 22.7456 4.12599 22.7456 4.54847C22.7456 4.97094 22.403 5.31348 21.9805 5.31348V3.78345Z" fill="#FFCE1A"/>
<path d="M43.0694 2.3855H24.8937V0.855469H43.0694V2.3855V2.3855ZM46.7625 4.54858H45.2325L45.2298 4.43768L45.2213 4.32849L45.2073 4.22032L45.1883 4.11419L45.1641 4.01044L45.1352 3.90908L45.1009 3.80805L45.0621 3.70974L45.0192 3.61518L44.9713 3.52232L44.9185 3.43115L44.8621 3.34339L44.8012 3.25801L44.7369 3.17569L44.6689 3.09746L44.5964 3.02126L44.5212 2.94983L44.442 2.88112L44.3596 2.81649L44.2746 2.75594L44.1872 2.69947L44.096 2.64709L44.0025 2.59878L43.9069 2.55558L43.8099 2.51681L43.7096 2.48313L43.6072 2.45354L43.5038 2.42973L43.3973 2.41068L43.2895 2.39673L43.1803 2.38823L43.0694 2.3855V0.855469L43.2586 0.86023L43.446 0.874858L43.63 0.898328L43.8113 0.930984L43.9909 0.972484L44.1654 1.02249L44.3372 1.08065L44.5056 1.14732L44.6692 1.22182L44.828 1.30346L44.9825 1.39258L45.1325 1.4885L45.2774 1.59191L45.4162 1.70144L45.5499 1.8171L45.6781 1.93956L45.8002 2.06746L45.9166 2.20148L46.0264 2.34094L46.1295 2.48551L46.2254 2.63518L46.3142 2.78893L46.3962 2.94847L46.471 3.1131L46.537 3.2808L46.5952 3.45122L46.6459 3.62743L46.687 3.80669L46.7197 3.98765L46.7431 4.17202L46.7578 4.35945L46.7625 4.54858V4.54858ZM45.9975 4.54858H46.7625H45.9975ZM43.0694 8.24169V6.71165L43.1803 6.70893L43.2895 6.70042L43.3973 6.68648L43.5038 6.66743L43.6072 6.64362L43.7086 6.61436L43.8099 6.58001L43.9076 6.54123L44.0025 6.49837L44.096 6.45007L44.1872 6.39768L44.2746 6.34122L44.3596 6.28067L44.442 6.21604L44.5205 6.148L44.5964 6.07555L44.6689 5.9997L44.7369 5.92112L44.8015 5.8388L44.8621 5.75376L44.9185 5.66634L44.9709 5.57518L45.0192 5.48163L45.0621 5.38673L45.1009 5.2891L45.1352 5.18774L45.1645 5.08637L45.1883 4.98296L45.2073 4.87649L45.2213 4.76866L45.2298 4.65947L45.2325 4.54858H46.7625L46.7578 4.73771L46.7431 4.92513L46.7197 5.10916L46.687 5.29046L46.6455 5.47007L46.5952 5.64559L46.537 5.81635L46.471 5.98405L46.3962 6.14834L46.3145 6.3072L46.2254 6.46163L46.1295 6.61164L46.0261 6.75655L45.9166 6.89533L45.8002 7.0297L45.6781 7.15726L45.5505 7.27937L45.4162 7.39571L45.2774 7.50524L45.1325 7.60865L44.9825 7.70457L44.828 7.79369L44.6692 7.87533L44.5049 7.95017L44.3372 8.01616L44.1664 8.07433L43.9909 8.12467L43.8113 8.16617L43.63 8.19882L43.446 8.2223L43.2586 8.23692L43.0694 8.24169V8.24169ZM24.8937 6.71165H43.0694V8.24169H24.8937V6.71165ZM21.2009 4.54858H22.731L22.7337 4.65947L22.7422 4.76866L22.7561 4.87649L22.7752 4.98296L22.799 5.08637L22.8286 5.18876L22.8623 5.2891L22.901 5.38605L22.9442 5.48163L22.9925 5.57518L23.0449 5.66634L23.1014 5.75376L23.1619 5.8388L23.2266 5.92112L23.2953 6.00038L23.3667 6.07555L23.4429 6.148L23.5212 6.21604L23.6038 6.28067L23.6885 6.34122L23.7763 6.39768L23.8678 6.45041L23.9606 6.49837L24.0555 6.54123L24.1532 6.58001L24.2545 6.61436L24.3559 6.64362L24.4593 6.66743L24.5658 6.68648L24.6736 6.70042L24.7828 6.70893L24.8937 6.71165V8.24169L24.7046 8.23692L24.5171 8.2223L24.3331 8.19882L24.1518 8.16617L23.9722 8.12467L23.7967 8.07433L23.6259 8.01616L23.4582 7.95017L23.2939 7.87533L23.1344 7.79336L22.981 7.70457L22.8306 7.60865L22.6861 7.50524L22.5469 7.39571L22.4129 7.27937L22.285 7.15726L22.1626 7.02902L22.0469 6.89533L21.9374 6.75655L21.834 6.61164L21.738 6.46163L21.6489 6.3072L21.5673 6.14834L21.4928 5.98473L21.4261 5.81635L21.3679 5.64457L21.3179 5.47007L21.2764 5.29046L21.2438 5.10916L21.2203 4.92513L21.2057 4.73771L21.2009 4.54858V4.54858ZM21.9659 4.54858H21.2009H21.9659ZM24.8937 0.855469V2.3855L24.7828 2.38823L24.6736 2.39673L24.5658 2.41068L24.4593 2.42973L24.3559 2.45354L24.2535 2.48313L24.1532 2.51681L24.0562 2.55558L23.9606 2.59878L23.8678 2.64675L23.7763 2.69947L23.6885 2.75594L23.6038 2.81649L23.5212 2.88112L23.4422 2.94983L23.3667 3.02126L23.2953 3.09678L23.2266 3.17569L23.1623 3.25801L23.1014 3.34339L23.0449 3.43115L22.9922 3.52232L22.9442 3.61518L22.901 3.71042L22.8623 3.80805L22.8286 3.90806L22.7993 4.01044L22.7752 4.11419L22.7561 4.22032L22.7422 4.32849L22.7337 4.43768L22.731 4.54858H21.2009L21.2057 4.35945L21.2203 4.17202L21.2438 3.98765L21.2764 3.80669L21.3176 3.62743L21.3679 3.45224L21.4261 3.2808L21.4928 3.11243L21.5673 2.94847L21.6493 2.78893L21.738 2.63518L21.834 2.48551L21.937 2.34094L22.0469 2.20148L22.1626 2.06814L22.285 1.93956L22.4136 1.8171L22.5469 1.70144L22.6861 1.59191L22.8306 1.4885L22.981 1.39258L23.1344 1.3038L23.2939 1.22182L23.4575 1.14732L23.6259 1.08065L23.7977 1.02249L23.9722 0.972484L24.1518 0.930984L24.3331 0.898328L24.5171 0.874858L24.7046 0.86023L24.8937 0.855469V0.855469Z" fill="#FFCE1A"/>
<path d="M16.1621 43.1094H14.8688L14.863 42.8743L14.8454 42.6423L14.8164 42.4144L14.7763 42.1903L14.7253 41.9695L14.6641 41.7532L14.5926 41.5419L14.5113 41.3358L14.4198 41.1337L14.3188 40.9371L14.2093 40.7463L14.0909 40.5619L13.9637 40.3827L13.8283 40.2105L13.6847 40.0449L13.534 39.8864L13.3755 39.7357L13.2099 39.5921L13.0378 39.4567L12.8585 39.3295L12.6741 39.2112L12.4833 39.1016L12.2867 39.0006L12.0846 38.9091L11.8785 38.8278L11.6673 38.7564L11.4509 38.6951L11.2301 38.6441L11.006 38.604L10.7781 38.5751L10.5461 38.5574L10.311 38.5516V37.2583L10.6114 37.2661L10.908 37.2886L11.2012 37.3257L11.4893 37.3774L11.7727 37.4427L12.0503 37.5216L12.3227 37.6134L12.5887 37.7185L12.8479 37.8359L13.1003 37.9648L13.3456 38.1056L13.583 38.258L13.812 38.4213L14.0331 38.5948L14.245 38.7785L14.4484 38.972L14.6419 39.1754L14.8256 39.3874L14.9991 39.6085L15.1624 39.8374L15.3148 40.0748L15.4556 40.3201L15.5845 40.5725L15.7019 40.8317L15.807 41.0977L15.8988 41.3701L15.9778 41.6477L16.0431 41.9311L16.0948 42.2192L16.1318 42.5124L16.1543 42.809L16.1621 43.1094V43.1094ZM10.311 48.9605V47.6672L10.5461 47.6614L10.7781 47.6437L11.006 47.6148L11.2301 47.5746L11.4509 47.5236L11.6673 47.4624L11.8785 47.391L12.0846 47.3097L12.2867 47.2182L12.4833 47.1171L12.6741 47.0076L12.8585 46.8892L13.0378 46.762L13.2099 46.6266L13.3755 46.4831L13.534 46.3324L13.6847 46.1739L13.8283 46.0082L13.9637 45.8361L14.0909 45.6568L14.2093 45.4725L14.3188 45.2816L14.4198 45.085L14.5113 44.883L14.5926 44.6768L14.6641 44.4656L14.7253 44.2493L14.7763 44.0285L14.8164 43.8043L14.8454 43.5764L14.863 43.3444L14.8688 43.1094H16.1621L16.1543 43.4097L16.1318 43.7064L16.0948 43.9996L16.0431 44.2877L15.9778 44.571L15.8988 44.8486L15.807 45.1211L15.7019 45.3871L15.5845 45.6463L15.4556 45.8987L15.3148 46.1439L15.1624 46.3814L14.9991 46.6103L14.8256 46.8314L14.6419 47.0433L14.4484 47.2467L14.245 47.4403L14.0331 47.624L13.812 47.7975L13.583 47.9607L13.3456 48.1131L13.1003 48.2539L12.8479 48.3829L12.5887 48.5002L12.3227 48.6053L12.0503 48.6972L11.7727 48.7761L11.4893 48.8414L11.2012 48.8931L10.908 48.9302L10.6114 48.9526L10.311 48.9605V48.9605ZM4.45996 43.1094H5.75324L5.75903 43.3444L5.77672 43.5764L5.80563 43.8043L5.84577 44.0285L5.89679 44.2493L5.95802 44.4656L6.02946 44.6768L6.11075 44.883L6.20226 45.085L6.30328 45.2816L6.41281 45.4725L6.53119 45.6568L6.65841 45.8361L6.79379 46.0082L6.93734 46.1739L7.08803 46.3324L7.24654 46.4831L7.4122 46.6266L7.58432 46.762L7.76359 46.8892L7.94795 47.0076L8.13878 47.1171L8.33539 47.2182L8.53745 47.3097L8.74359 47.391L8.95483 47.4624L9.17117 47.5236L9.39193 47.5746L9.61609 47.6148L9.844 47.6437L10.076 47.6614L10.311 47.6672V48.9605L10.0107 48.9526L9.71406 48.9302L9.42084 48.8931L9.13273 48.8414L8.84937 48.7761L8.57181 48.6972L8.29934 48.6053L8.03333 48.5002L7.77413 48.3829L7.52173 48.2539L7.27648 48.1131L7.03905 47.9607L6.81012 47.7975L6.58902 47.624L6.3771 47.4403L6.17368 47.2467L5.98013 47.0433L5.79645 46.8314L5.62297 46.6103L5.45969 46.3814L5.3073 46.1439L5.16647 45.8987L5.03755 45.6463L4.9202 45.3871L4.81509 45.1211L4.72324 44.8486L4.64433 44.571L4.57902 44.2877L4.52731 43.9996L4.49023 43.7064L4.46778 43.4097L4.45996 43.1094V43.1094ZM10.311 37.2583V38.5516L10.076 38.5574L9.844 38.5751L9.61609 38.604L9.39193 38.6441L9.17117 38.6951L8.95483 38.7564L8.74359 38.8278L8.53745 38.9091L8.33539 39.0006L8.13878 39.1016L7.94795 39.2112L7.76359 39.3295L7.58432 39.4567L7.4122 39.5921L7.24654 39.7357L7.08803 39.8864L6.93734 40.0449L6.79379 40.2105L6.65841 40.3827L6.53119 40.5619L6.41281 40.7463L6.30328 40.9371L6.20226 41.1337L6.11075 41.3358L6.02946 41.5419L5.95802 41.7532L5.89679 41.9695L5.84577 42.1903L5.80563 42.4144L5.77672 42.6423L5.75903 42.8743L5.75324 43.1094H4.45996L4.46778 42.809L4.49023 42.5124L4.52731 42.2192L4.57902 41.9311L4.64433 41.6477L4.72324 41.3701L4.81509 41.0977L4.9202 40.8317L5.03755 40.5725L5.16647 40.3201L5.3073 40.0748L5.45969 39.8374L5.62297 39.6085L5.79645 39.3874L5.98013 39.1754L6.17368 38.972L6.3771 38.7785L6.58902 38.5948L6.81012 38.4213L7.03905 38.258L7.27648 38.1056L7.52173 37.9648L7.77413 37.8359L8.03333 37.7185L8.29934 37.6134L8.57181 37.5216L8.84937 37.4427L9.13273 37.3774L9.42084 37.3257L9.71406 37.2886L10.0107 37.2661L10.311 37.2583V37.2583Z" fill="#1DACA5"/>
<path d="M12.3703 51.5833H8.2517V50.29H12.3703V51.5833ZM19.68 57.5997H18.3867L18.3789 57.2912L18.3554 56.9868L18.317 56.6867L18.2639 56.3915L18.1969 56.1013L18.1153 55.8173L18.0204 55.538L17.9122 55.2649L17.7918 54.9989L17.6585 54.74L17.5132 54.4879L17.3561 54.2437L17.1877 54.0073L17.0081 53.7794L16.8186 53.5603L16.6189 53.3511L16.4094 53.1511L16.1907 52.9617L15.9628 52.782L15.7264 52.614L15.4821 52.4569L15.2301 52.3116L14.9712 52.1786L14.7049 52.0578L14.4317 51.9497L14.1528 51.8544L13.8684 51.7731L13.5786 51.7061L13.2833 51.6531L12.9833 51.6146L12.6789 51.5911L12.3703 51.5833V50.29L12.7449 50.2999L13.1146 50.3281L13.4799 50.3747L13.8392 50.4394L14.1922 50.5213L14.5392 50.6203L14.8787 50.736L15.2097 50.8673L15.5338 51.0139L15.8492 51.1762L16.155 51.3527L16.4516 51.5432L16.7376 51.7473L17.0139 51.9643L17.2795 52.1946L17.5333 52.4368L17.7758 52.6909L18.0054 52.9562L18.2224 53.2317L18.4269 53.5185L18.6174 53.8151L18.7939 54.1209L18.9558 54.4362L19.1028 54.7601L19.2341 55.0917L19.3494 55.4309L19.4487 55.7775L19.5307 56.1309L19.5953 56.4901L19.6419 56.8555L19.6702 57.2252L19.68 57.5997V57.5997ZM18.3867 59.7141V57.5997H19.68V59.7141H18.3867ZM16.3682 63.0259V61.7327L16.4716 61.7303L16.5734 61.7221L16.6747 61.7092L16.7734 61.6915L16.87 61.669L16.9662 61.6415L17.0594 61.6102L17.1496 61.5741L17.2397 61.5333L17.3265 61.4888L17.4108 61.4398L17.4935 61.3871L17.5724 61.3306L17.6489 61.2704L17.7227 61.2064L17.7932 61.1391L17.8605 61.0687L17.9245 60.9949L17.9847 60.9183L18.0411 60.8394L18.0939 60.7567L18.1428 60.6724L18.1874 60.5856L18.2282 60.4955L18.2643 60.4054L18.2956 60.3121L18.3231 60.2159L18.3456 60.1193L18.3633 60.0206L18.3762 59.9193L18.3844 59.8176L18.3867 59.7141H19.68L19.6756 59.8842L19.6627 60.0519L19.6416 60.2166L19.6123 60.3798L19.5749 60.5404L19.5304 60.6965L19.478 60.851L19.4181 61.0023L19.3514 61.1483L19.2783 61.2915L19.198 61.4303L19.112 61.5639L19.0194 61.6939L18.9211 61.8187L18.817 61.9388L18.7075 62.0534L18.5929 62.163L18.4728 62.267L18.348 62.3654L18.218 62.4579L18.0843 62.5439L17.9456 62.6242L17.8023 62.6974L17.6564 62.764L17.505 62.8239L17.3506 62.8763L17.1945 62.9208L17.0339 62.9582L16.8707 62.9875L16.706 63.0086L16.5383 63.0215L16.3682 63.0259V63.0259ZM4.25381 61.7327H16.3682V63.0259H4.25381V61.7327ZM0.942017 59.7141H2.2353L2.23768 59.8176L2.24585 59.9193L2.25877 60.0206L2.27646 60.1193L2.29891 60.2159L2.32646 60.3121L2.35776 60.4054L2.39382 60.4955L2.43464 60.5856L2.4792 60.6724L2.52818 60.7567L2.5809 60.8394L2.63737 60.9183L2.69758 60.9949L2.76153 61.0687L2.82888 61.1391L2.89929 61.2064L2.97311 61.2704L3.04964 61.3306L3.12856 61.3871L3.21122 61.4398L3.29558 61.4888L3.38232 61.5333L3.47246 61.5741L3.5626 61.6102L3.65581 61.6415L3.75207 61.669L3.84868 61.6915L3.94732 61.7092L4.04869 61.7221L4.1504 61.7303L4.25381 61.7327V63.0259L4.08373 63.0215L3.91603 63.0086L3.75139 62.9875L3.58812 62.9582L3.42756 62.9208L3.27143 62.8763L3.11699 62.8239L2.96562 62.764L2.8197 62.6974L2.67649 62.6242L2.5377 62.5439L2.40402 62.4579L2.27408 62.3654L2.14924 62.267L2.02917 62.163L1.91453 62.0534L1.805 61.9388L1.70091 61.8187L1.60261 61.6939L1.51008 61.5639L1.42402 61.4303L1.34374 61.2915L1.27061 61.1483L1.20394 61.0023L1.14407 60.851L1.09169 60.6965L1.04713 60.5404L1.00971 60.3798L0.980455 60.2166L0.959365 60.0519L0.946439 59.8842L0.942017 59.7141ZM2.2353 57.5997V59.7141H0.942017V57.5997H2.2353ZM8.2517 50.29V51.5833L7.94317 51.5911L7.63873 51.6146L7.33871 51.6531L7.04345 51.7061L6.75364 51.7731L6.46926 51.8544L6.19033 51.9497L5.91718 52.0578L5.65084 52.1786L5.39198 52.3116L5.13992 52.4569L4.89569 52.614L4.65928 52.782L4.43137 52.9617L4.21265 53.1511L4.00311 53.3511L3.80344 53.5603L3.61397 53.7794L3.43436 54.0073L3.26598 54.2437L3.10883 54.4879L2.96358 54.74L2.83024 54.9989L2.70982 55.2649L2.60165 55.538L2.50675 55.8173L2.42511 56.1013L2.3581 56.3915L2.30503 56.6867L2.2666 56.9868L2.24313 57.2912L2.2353 57.5997H0.942017L0.951882 57.2252L0.980114 56.8555L1.02672 56.4901L1.09135 56.1309L1.17332 55.7775L1.27265 55.4309L1.38796 55.0917L1.51927 54.7601L1.66622 54.4362L1.82813 54.1209L2.00467 53.8151L2.19516 53.5185L2.3996 53.2317L2.61662 52.9562L2.84623 52.6909L3.08876 52.4368L3.34252 52.1946L3.60818 51.9643L3.88439 51.7473L4.17047 51.5432L4.46709 51.3527L4.77289 51.1762L5.08822 51.0139L5.41239 50.8673L5.74336 50.736L6.08284 50.6203L6.4298 50.5213L6.78289 50.4394L7.1421 50.3747L7.50743 50.3281L7.87718 50.2999L8.2517 50.29V50.29Z" fill="#1DACA5"/>
<path d="M55.4376 32.0568L55.4321 30.5268L55.8573 30.5145L56.2757 30.4812L56.688 30.4275L57.0935 30.3533L57.4921 30.2601L57.8826 30.1478L58.265 30.0169L58.6385 29.8682L59.0024 29.7016L59.3576 29.5182L59.7021 29.3189L60.0355 29.1032L60.358 28.8719L60.6689 28.6263L60.9669 28.3661L61.2523 28.0919L61.5244 27.8045L61.7826 27.5041L62.0265 27.1922L62.255 26.868L62.4683 26.5326L62.6656 26.1867L62.8462 25.8309L63.0099 25.4656L63.1561 25.0907L63.2844 24.7073L63.3939 24.3158L63.4847 23.9172L63.5555 23.5113L63.6068 23.0984L63.6368 22.6797L63.6463 22.2545L65.1763 22.249L65.1654 22.7511L65.1294 23.2474L65.0692 23.7365L64.9848 24.2185L64.877 24.692L64.747 25.1564L64.595 25.6111L64.4215 26.0561L64.2273 26.4901L64.0126 26.9126L63.7786 27.3225L63.5259 27.7198L63.2551 28.1038L62.9663 28.4743L62.6605 28.8297L62.338 29.1702L62.0003 29.4947L61.6465 29.8033L61.2784 30.0944L60.8968 30.3679L60.5008 30.6237L60.0923 30.8605L59.6719 31.0778L59.2392 31.2751L58.7956 31.4517L58.3418 31.6071L57.8779 31.7405L57.4057 31.8514L56.9247 31.9391L56.4356 32.0031L55.9396 32.0425L55.4376 32.0568V32.0568ZM45.6298 22.3181L47.1598 22.3126L47.172 22.7378L47.2054 23.1562L47.2591 23.5685L47.3333 23.9743L47.4265 24.3726L47.5391 24.7631L47.6697 25.1455L47.8187 25.519L47.985 25.8833L48.168 26.2377L48.368 26.5826L48.5834 26.9163L48.8143 27.2381L49.0606 27.549L49.3208 27.8477L49.595 28.1331L49.8821 28.4049L50.1828 28.6631L50.4951 28.9069L50.8189 29.1359L51.1543 29.3488L51.4999 29.5461L51.856 29.7267L52.2217 29.8903L52.5962 30.0366L52.9796 30.1649L53.3708 30.2747L53.7691 30.3652L54.1752 30.436L54.5882 30.4873L55.0069 30.5173L55.4321 30.5268L55.4376 32.0568L54.9355 32.0459L54.4392 32.0099L53.9501 31.9497L53.4684 31.8653L52.9945 31.7578L52.5299 31.6275L52.0751 31.4755L51.6305 31.302L51.1968 31.1078L50.7747 30.8931L50.3644 30.6598L49.9671 30.4067L49.5828 30.1356L49.2127 29.8468L48.8575 29.541L48.5167 29.2189L48.1922 28.8804L47.8837 28.5273L47.5925 28.1593L47.3187 27.7769L47.0632 27.3813L46.8264 26.9731L46.6087 26.552L46.4118 26.1197L46.2349 25.6761L46.0798 25.2223L45.9461 24.759L45.8352 24.2859L45.7475 23.8052L45.6835 23.3161L45.644 22.8201L45.6298 22.3181ZM55.3685 12.5103L55.374 14.0403L54.9488 14.0525L54.5304 14.0859L54.1181 14.1396L53.7126 14.2138L53.3143 14.307L52.9235 14.4196L52.5411 14.5502L52.1676 14.6992L51.8033 14.8655L51.4489 15.0485L51.1039 15.2485L50.7702 15.4639L50.4485 15.6948L50.1376 15.9411L49.8392 16.2013L49.5538 16.4755L49.2814 16.7629L49.0235 17.0629L48.7796 17.3752L48.551 17.699L48.3378 18.0344L48.1405 18.3804L47.9599 18.7365L47.7962 19.1019L47.65 19.4764L47.5217 19.8597L47.4122 20.2513L47.3214 20.6499L47.2506 21.0557L47.1993 21.4687L47.1693 21.8874L47.1598 22.3126L45.6298 22.3181L45.6406 21.816L45.6767 21.3197L45.7369 20.8305L45.8213 20.3485L45.9291 19.875L46.059 19.4107L46.2111 18.9559L46.3846 18.5107L46.5788 18.0773L46.7934 17.6552L47.0275 17.2446L47.2802 16.8473L47.551 16.4636L47.8398 16.0928L48.1459 15.7377L48.4681 15.3972L48.8058 15.0727L49.1593 14.7641L49.5273 14.473L49.9096 14.1991L50.3053 13.9437L50.7134 13.7069L51.1346 13.4892L51.5669 13.2923L52.0105 13.1154L52.4642 12.9603L52.9279 12.8266L53.4004 12.7157L53.8813 12.6279L54.3705 12.564L54.8664 12.5245L55.3685 12.5103V12.5103ZM65.1763 22.249L63.6463 22.2545L63.634 21.8293L63.6007 21.4109L63.547 20.9986L63.4728 20.5931L63.3796 20.1948L63.267 19.8039L63.1364 19.4223L62.9874 19.0485L62.8211 18.6838L62.6381 18.3297L62.4381 17.9848L62.2224 17.6511L61.9918 17.3289L61.7458 17.0184L61.4853 16.7197L61.2111 16.4343L60.9237 16.1619L60.624 15.904L60.3114 15.6605L59.9872 15.4315L59.6521 15.2183L59.3062 15.021L58.9501 14.8403L58.5847 14.6767L58.2102 14.5305L57.8269 14.4022L57.4353 14.2927L57.0367 14.2019L56.6309 14.1311L56.2179 14.0797L55.7992 14.0498L55.374 14.0403L55.3685 12.5103L55.8706 12.5211L56.3669 12.5572L56.856 12.6174L57.338 12.7018L57.8115 12.8096L58.2759 12.9395L58.7307 13.0916L59.1759 13.2651L59.6093 13.4593L60.0314 13.6739L60.442 13.908L60.8396 14.1607L61.223 14.4318L61.5934 14.7203L61.9489 15.0264L62.2894 15.3485L62.6139 15.687L62.9221 16.0401L63.2136 16.4078L63.4878 16.7905L63.7429 17.1861L63.9796 17.5943L64.1974 18.0151L64.3943 18.4477L64.5712 18.891L64.7263 19.3447L64.86 19.8084L64.9709 20.2809L65.0586 20.7618L65.1226 21.251L65.162 21.7469L65.1763 22.249V22.249Z" fill="#1DACA5"/>
<path d="M51.4247 23.1156C51.0066 23.1156 50.6675 22.7741 50.6675 22.353C50.6675 21.9319 51.0066 21.5903 51.4247 21.5903V23.1156ZM59.5208 23.1156H51.4247V21.5903H59.5208V23.1156ZM59.5208 21.5903C59.9389 21.5903 60.278 21.9319 60.278 22.353C60.278 22.7741 59.9389 23.1156 59.5208 23.1156V21.5903Z" fill="#FFCE1A"/>
<path d="M43.6021 34.9768H32.0037" stroke="#FFCE1A" stroke-width="1.70003" stroke-miterlimit="22.9256" stroke-linecap="round" stroke-linejoin="round"/>
<path d="M46.5957 48.7012H32.3502" stroke="#FFCE1A" stroke-width="1.70003" stroke-miterlimit="22.9256" stroke-linecap="round" stroke-linejoin="round"/>
<path d="M23.8127 21.6372C23.514 21.9358 23.0279 21.9341 22.7272 21.6334C22.4265 21.3327 22.4248 20.8466 22.7235 20.548L23.8127 21.6372ZM27.7191 17.7308L23.8127 21.6372L22.7235 20.548L26.6299 16.6416L27.7191 17.7308ZM26.6299 16.6416C26.9286 16.3429 27.4146 16.3446 27.7153 16.6453C28.016 16.946 28.0177 17.4321 27.7191 17.7308L26.6299 16.6416Z" fill="#FFCE1A"/>
<path d="M22.7238 21.6371L23.813 20.5479C24.1117 20.8466 24.11 21.3327 23.8093 21.6334C23.5086 21.9341 23.0225 21.9358 22.7238 21.6371V21.6371ZM20.7706 19.6839L21.8598 18.5947L23.813 20.5479L22.7238 21.6371L20.7706 19.6839ZM21.8598 18.5947L20.7706 19.6839C20.472 19.3853 20.4737 18.8992 20.7744 18.5985C21.0751 18.2978 21.5612 18.2961 21.8598 18.5947Z" fill="#FFCE1A"/>
<path d="M23.8127 35.2473C23.514 35.5459 23.0279 35.5442 22.7272 35.2435C22.4265 34.9428 22.4248 34.4567 22.7235 34.1581L23.8127 35.2473ZM27.7191 31.3409L23.8127 35.2473L22.7235 34.1581L26.6299 30.2517L27.7191 31.3409ZM26.6299 30.2517C26.9286 29.953 27.4146 29.9547 27.7153 30.2554C28.016 30.5561 28.0177 31.0422 27.7191 31.3409L26.6299 30.2517Z" fill="#FFCE1A"/>
<path d="M22.7238 35.2472L23.813 34.158C24.1117 34.4567 24.11 34.9428 23.8093 35.2435C23.5086 35.5442 23.0225 35.5459 22.7238 35.2472V35.2472ZM20.7706 33.294L21.8598 32.2048L23.813 34.158L22.7238 35.2472L20.7706 33.294ZM21.8598 32.2048L20.7706 33.294C20.472 32.9954 20.4737 32.5093 20.7744 32.2086C21.0751 31.9079 21.5612 31.9062 21.8598 32.2048Z" fill="#FFCE1A"/>
<path d="M23.8127 48.9402C23.514 49.2388 23.0279 49.2371 22.7272 48.9364C22.4265 48.6357 22.4248 48.1496 22.7235 47.851L23.8127 48.9402ZM27.7191 45.0338L23.8127 48.9402L22.7235 47.851L26.6299 43.9446L27.7191 45.0338ZM26.6299 43.9446C26.9286 43.6459 27.4146 43.6476 27.7153 43.9483C28.016 44.249 28.0177 44.7351 27.7191 45.0338L26.6299 43.9446Z" fill="#FFCE1A"/>
<path d="M22.7238 48.9401L23.813 47.8509C24.1117 48.1496 24.11 48.6356 23.8093 48.9363C23.5086 49.237 23.0225 49.2387 22.7238 48.9401V48.9401ZM20.7706 46.9869L21.8598 45.8977L23.813 47.8509L22.7238 48.9401L20.7706 46.9869ZM21.8598 45.8977L20.7706 46.9869C20.472 46.6882 20.4737 46.2021 20.7744 45.9014C21.0751 45.6007 21.5612 45.599 21.8598 45.8977Z" fill="#FFCE1A"/>
<path d="M41.3607 21.1709H32.3502" stroke="#FFCE1A" stroke-width="1.70003" stroke-miterlimit="22.9256" stroke-linecap="round" stroke-linejoin="round"/>
<path d="M56.2352 26.4007C56.2352 26.8187 55.8937 27.1579 55.4726 27.1579C55.0515 27.1579 54.71 26.8187 54.71 26.4007H56.2352V26.4007ZM56.2352 18.3046V26.4007H54.71V18.3046H56.2352ZM54.71 18.3046C54.71 17.8865 55.0515 17.5474 55.4726 17.5474C55.8937 17.5474 56.2352 17.8865 56.2352 18.3046H54.71V18.3046Z" fill="#FFCE1A"/>
</svg>
