<svg width="90" height="90" viewBox="0 0 90 90" fill="none" xmlns="http://www.w3.org/2000/svg">
<path d="M73.7435 71.4617L72.6632 70.3786L73.1656 69.851L73.6357 69.3047L74.0731 68.7411L74.4783 68.1611L74.8511 67.5665L75.1912 66.9576L75.4994 66.3361L75.7749 65.7034L76.0185 65.0605L76.2294 64.4088L76.4083 63.7496L76.5546 63.0839L76.6682 62.4131L76.7502 61.7382L76.7995 61.0606L76.8165 60.382L76.8012 59.7034L76.7532 59.0258L76.673 58.3509L76.5607 57.6798L76.4158 57.0137L76.2382 56.3538L76.0287 55.7017L75.7868 55.0582L75.5123 54.4251L75.2059 53.803L74.8671 53.1934L74.4956 52.5981L74.0918 52.0171L73.6554 51.4525L73.1867 50.9052L72.6849 50.3762L73.768 49.2959L74.3228 49.8806L74.8419 50.4864L75.3252 51.1123L75.7732 51.7559L76.1848 52.4165L76.561 53.0927L76.9009 53.7822L77.2053 54.4847L77.4737 55.1983L77.7057 55.9211L77.9023 56.6525L78.0628 57.3906L78.1874 58.1339L78.2765 58.8816L78.3292 59.6319L78.3465 60.384L78.3275 61.1355L78.2727 61.8858L78.1826 62.6328L78.056 63.3764L77.8941 64.1142L77.6962 64.8449L77.4621 65.5674L77.192 66.2804L76.8866 66.9818L76.5451 67.6706L76.1675 68.3461L75.7539 69.0061L75.3052 69.6486L74.8201 70.2735L74.2997 70.8783L73.7435 71.4617ZM51.5777 71.4372L52.6608 70.3568L53.1884 70.8592L53.7347 71.3293L54.2983 71.7668L54.8783 72.1719L55.4729 72.5447L56.0818 72.8849L56.7032 73.1931L57.3356 73.4686L57.9788 73.7118L58.6306 73.923L59.2898 74.1016L59.9555 74.2482L60.6263 74.3619L61.3012 74.4438L61.9788 74.4932L62.657 74.5098L63.336 74.4945L64.0136 74.4466L64.6885 74.3666L65.3596 74.254L66.0256 74.1091L66.6855 73.9319L67.3376 73.722L67.9812 73.4802L68.6143 73.206L69.2364 72.8992L69.846 72.5604L70.4416 72.1889L71.0222 71.7852L71.5869 71.3491L72.1342 70.8803L72.6632 70.3786L73.7435 71.4617L73.1588 72.0165L72.5529 72.5355L71.9271 73.0193L71.2831 73.4666L70.6229 73.8782L69.9467 74.2544L69.2572 74.5945L68.5547 74.8986L67.8411 75.167L67.1182 75.3993L66.3869 75.5956L65.6487 75.7562L64.9055 75.881L64.1578 75.9698L63.4074 76.0225L62.6557 76.0399L61.9039 76.0212L61.1535 75.9664L60.4065 75.8762L59.663 75.7497L58.9252 75.5875L58.1945 75.3898L57.472 75.1554L56.7594 74.8857L56.0576 74.5802L55.3688 74.2387L54.6932 73.8611L54.0333 73.4475L53.3908 72.9988L52.7659 72.5138L52.1611 71.9933L51.5777 71.4372ZM51.6022 49.2714L52.6826 50.3544L52.1801 50.882L51.71 51.4283L51.2726 51.992L50.8675 52.5719L50.4946 53.1665L50.1545 53.7754L49.8463 54.3969L49.5708 55.0293L49.3276 55.6725L49.1163 56.3242L48.9377 56.9835L48.7911 57.6492L48.6775 58.32L48.5955 58.9948L48.5462 59.6724L48.5296 60.3507L48.5449 61.0297L48.5928 61.7073L48.6728 62.3821L48.7853 63.0533L48.9303 63.7193L49.1075 64.3792L49.3174 65.0313L49.5592 65.6749L49.8334 66.3079L50.1402 66.9301L50.479 67.5396L50.8505 68.1352L51.2542 68.7159L51.6903 69.2806L52.159 69.8279L52.6608 70.3568L51.5777 71.4372L51.0229 70.8524L50.5038 70.2466L50.0201 69.6207L49.5728 68.9768L49.1612 68.3165L48.785 67.6403L48.4449 66.9508L48.1407 66.2484L47.8724 65.5347L47.64 64.8119L47.4438 64.0805L47.2832 63.3424L47.1584 62.5992L47.0696 61.8515L47.0169 61.1011L46.9995 60.3493L47.0182 59.5976L47.073 58.8472L47.1631 58.1002L47.2897 57.3566L47.4519 56.6188L47.6496 55.8882L47.8839 55.1657L48.1537 54.453L48.4591 53.7513L48.8007 53.0625L49.1782 52.3869L49.5919 51.727L50.0405 51.0844L50.5256 50.4596L51.046 49.8548L51.6022 49.2714ZM73.768 49.2959L72.6849 50.3762L72.1573 49.8738L71.6111 49.4037L71.0474 48.9663L70.4674 48.5611L69.8728 48.1883L69.264 47.8482L68.6425 47.54L68.0101 47.2644L67.3669 47.0212L66.7151 46.81L66.0559 46.6314L65.3902 46.4848L64.7194 46.3712L64.0446 46.2892L63.367 46.2399L62.6887 46.2232L62.0097 46.2385L61.3321 46.2865L60.6572 46.3664L59.9861 46.479L59.3201 46.6239L58.6602 46.8011L58.0081 47.011L57.3645 47.2529L56.7315 47.527L56.1093 47.8339L55.4998 48.1727L54.9041 48.5441L54.3235 48.9479L53.7588 49.384L53.2115 49.8527L52.6826 50.3544L51.6022 49.2714L52.1869 48.7166L52.7928 48.1975L53.4187 47.7138L54.0626 47.2665L54.7228 46.8549L55.3991 46.4787L56.0886 46.1385L56.791 45.8344L57.5047 45.566L58.2275 45.3337L58.9588 45.1374L59.697 44.9769L60.4402 44.852L61.1879 44.7632L61.9383 44.7105L62.69 44.6932L63.4418 44.7119L64.1922 44.7667L64.9392 44.8568L65.6828 44.9833L66.4206 45.1456L67.1512 45.3432L67.8737 45.5776L68.5864 45.8473L69.2881 46.1528L69.9769 46.4943L70.6525 46.8719L71.3124 47.2855L71.955 47.7342L72.5798 48.2193L73.1846 48.7397L73.768 49.2959Z" fill="#1DACA5"/>
<path d="M61.7532 63.6761C61.3351 63.6758 60.996 63.3339 60.9963 62.9128C60.9967 62.4917 61.3365 62.1505 61.7546 62.1508L61.7532 63.6761ZM69.7136 63.6822L61.7532 63.6761L61.7546 62.1508L69.715 62.1569L69.7136 63.6822ZM69.715 62.1569C70.133 62.1573 70.4722 62.4991 70.4718 62.9203C70.4715 63.3414 70.1316 63.6826 69.7136 63.6822L69.715 62.1569Z" fill="#1DACA5"/>
<path d="M60.991 62.9128L62.5162 62.9141C62.5159 63.3322 62.174 63.671 61.7529 63.6707C61.3318 63.6703 60.9906 63.3308 60.991 62.9128ZM61.0049 50.2106L62.5302 50.2119L62.5162 62.9141L60.991 62.9128L61.0049 50.2106ZM62.5302 50.2119L61.0049 50.2106C61.0053 49.7925 61.3471 49.4537 61.7682 49.454C62.1893 49.4544 62.5305 49.7939 62.5302 50.2119Z" fill="#1DACA5"/>
<path d="M48.866 71.8443C49.2884 71.8443 49.631 72.1869 49.631 72.6094C49.631 73.0318 49.2884 73.3744 48.866 73.3744V71.8443ZM24.4133 71.8443H48.866V73.3744H24.4133V71.8443ZM16.6648 68.5152L18.0397 67.8437L18.1516 68.0631L18.2707 68.2781L18.3969 68.488L18.5302 68.6941L18.6704 68.8945L18.817 69.0901L18.9704 69.2802L19.1303 69.4656L19.2963 69.6452L19.468 69.819L19.6456 69.9867L19.8289 70.1486L20.0181 70.3041L20.2116 70.4531L20.411 70.5956L20.6147 70.7313L20.8236 70.8596L21.0372 70.9813L21.2549 71.0956L21.477 71.2025L21.7032 71.3018L21.9328 71.3933L22.1669 71.4766L22.4043 71.5521L22.6448 71.6191L22.8887 71.6777L23.136 71.728L23.386 71.7695L23.6387 71.8022L23.8938 71.8253L24.1527 71.8396L24.4133 71.8443V73.3744L24.0969 73.3682L23.783 73.3512L23.4714 73.3227L23.1635 73.2832L22.8584 73.2329L22.5574 73.1716L22.2604 73.1002L21.9668 73.0182L21.6777 72.9264L21.3933 72.8247L21.1127 72.7134L20.8375 72.5923L20.5678 72.4624L20.3031 72.3236L20.0439 72.176L19.7902 72.0199L19.5422 71.8549L19.3007 71.6824L19.0649 71.5015L18.8364 71.3127L18.6142 71.1167L18.3986 70.913L18.1901 70.7024L17.9894 70.4847L17.7955 70.2606L17.6094 70.0296L17.4308 69.7918L17.2607 69.5479L17.0988 69.2982L16.9454 69.0428L16.8005 68.7815L16.6648 68.5152ZM16.6648 68.5152C16.4794 68.1356 16.6369 67.6774 17.0165 67.492C17.3961 67.3066 17.8543 67.4641 18.0397 67.8437L16.6648 68.5152Z" fill="#FFCE1A"/>
<path d="M45.1769 67.4145C45.5994 67.4145 45.942 67.757 45.942 68.1795C45.942 68.602 45.5994 68.9445 45.1769 68.9445V67.4145ZM20.2684 67.4145H45.1769V68.9445H20.2684V67.4145ZM11.6536 60.33H13.1836L13.1928 60.6933L13.2203 61.0518L13.2656 61.4052L13.3282 61.7525L13.4074 62.0944L13.503 62.4291L13.6149 62.7573L13.7425 63.0788L13.8847 63.3924L14.0415 63.6972L14.2129 63.9942L14.3976 64.2819L14.5959 64.5602L14.8072 64.8282L15.0307 65.0861L15.2657 65.333L15.5123 65.5681L15.7705 65.7916L16.0386 66.0025L16.3171 66.2008L16.6046 66.3858L16.9012 66.5566L17.2067 66.7134L17.5203 66.8559L17.8411 66.9831L18.1697 67.0947L18.5047 67.1906L18.8466 67.2699L19.1939 67.3325L19.547 67.3777L19.9051 67.4053L20.2684 67.4145V68.9445L19.8269 68.9333L19.3912 68.8996L18.9612 68.8448L18.5377 68.7686L18.1217 68.6717L17.7132 68.5554L17.3131 68.4193L16.9216 68.2642L16.5406 68.091L16.1692 67.9002L15.8086 67.692L15.4593 67.4675L15.1215 67.227L14.7963 66.9712L14.4837 66.7001L14.184 66.4147L13.8986 66.1154L13.6275 65.8031L13.3714 65.4773L13.1309 65.1398L12.906 64.7901L12.6985 64.4299L12.507 64.0584L12.3342 63.6768L12.1795 63.2859L12.043 62.8863L11.9264 62.4774L11.8294 62.0614L11.7532 61.6372L11.6985 61.2076L11.6648 60.7715L11.6536 60.33ZM13.1836 26.3127V60.33H11.6536V26.3127H13.1836ZM20.2684 17.6978V19.2279L19.9051 19.237L19.5466 19.2646L19.1932 19.3098L18.8459 19.3724L18.504 19.4517L18.169 19.5476L17.8404 19.6592L17.5196 19.7864L17.206 19.9289L16.9005 20.0857L16.6039 20.2568L16.3161 20.4415L16.0382 20.6395L15.7702 20.8511L15.512 21.0746L15.2654 21.3096L15.0296 21.5566L14.8065 21.8144L14.5956 22.0821L14.3973 22.3607L14.2126 22.6481L14.0415 22.9451L13.8847 23.2502L13.7421 23.5639L13.6149 23.8853L13.5034 24.2132L13.4074 24.5483L13.3282 24.8901L13.2656 25.2374L13.2203 25.5909L13.1928 25.9494L13.1836 26.3127H11.6536L11.6648 25.8712L11.6985 25.4351L11.7532 25.0055L11.8294 24.5813L11.9264 24.1653L12.0427 23.7567L12.1788 23.3567L12.3339 22.9659L12.507 22.5842L12.6979 22.2131L12.9057 21.8522L13.1305 21.5028L13.371 21.1651L13.6268 20.8395L13.8983 20.5273L14.1837 20.2279L14.4827 19.9425L14.7953 19.6714L15.1205 19.4156L15.4582 19.1748L15.8079 18.9499L16.1685 18.7421L16.54 18.5513L16.9209 18.3781L17.3125 18.223L17.7125 18.087L18.121 17.9706L18.537 17.8737L18.9612 17.7975L19.3908 17.7427L19.8269 17.709L20.2684 17.6978ZM64.7041 19.2279H20.2684V17.6978H64.7041V19.2279ZM73.3186 26.3127H71.7886L71.7794 25.9494L71.7519 25.5912L71.7066 25.2374L71.644 24.8905L71.5648 24.5486L71.4689 24.2136L71.3573 23.8853L71.2301 23.5642L71.0879 23.2506L70.9307 22.9454L70.7596 22.6485L70.5749 22.3611L70.3766 22.0825L70.1657 21.8144L69.9422 21.5566L69.7072 21.31L69.4602 21.0742L69.2024 20.8511L68.9347 20.6402L68.6561 20.4419L68.3683 20.2568L68.072 20.0857L67.7666 19.9289L67.4526 19.7864L67.1318 19.6592L66.8036 19.5476L66.4685 19.4517L66.1267 19.3724L65.7794 19.3098L65.4259 19.2646L65.0674 19.237L64.7041 19.2279V17.6978L65.1456 17.709L65.5817 17.7427L66.0113 17.7975L66.4355 17.8737L66.8515 17.9706L67.2601 18.087L67.6604 18.223L68.0513 18.3781L68.4326 18.5513L68.8041 18.7421L69.165 18.9506L69.514 19.1751L69.8517 19.4156L70.1773 19.6714L70.4895 19.9429L70.7889 20.2283L71.0743 20.5273L71.3454 20.8402L71.6012 21.1654L71.8417 21.5032L72.0665 21.8525L72.2744 22.2134L72.4655 22.5845L72.6383 22.9662L72.7934 23.3567L72.9295 23.7571L73.0458 24.1656L73.1428 24.5816L73.219 25.0055L73.2737 25.4354L73.3074 25.8712L73.3186 26.3127ZM71.7886 44.798V26.3127H73.3186V44.798H71.7886ZM73.3186 44.798C73.3186 45.2204 72.9761 45.563 72.5536 45.563C72.1311 45.563 71.7886 45.2204 71.7886 44.798H73.3186Z" fill="#FFCE1A"/>
<path d="M27.8308 22.2015C27.8308 22.6195 27.4893 22.959 27.0682 22.959C26.6471 22.959 26.3055 22.6195 26.3055 22.2015H27.8308ZM27.8308 14.7245V22.2015H26.3055V14.7245H27.8308ZM26.3055 14.7245C26.3055 14.3064 26.6471 13.9669 27.0682 13.9669C27.4893 13.9669 27.8308 14.3064 27.8308 14.7245H26.3055Z" fill="#FFCE1A"/>
<path d="M58.7466 22.2015C58.7466 22.6195 58.4051 22.959 57.984 22.959C57.5628 22.959 57.2213 22.6195 57.2213 22.2015H58.7466ZM58.7466 14.7245V22.2015H57.2213V14.7245H58.7466ZM57.2213 14.7245C57.2213 14.3064 57.5628 13.9669 57.984 13.9669C58.4051 13.9669 58.7466 14.3064 58.7466 14.7245H57.2213Z" fill="#FFCE1A"/>
<path d="M16.5628 29.6758C16.1389 29.6758 15.795 29.3332 15.795 28.9108C15.795 28.4883 16.1389 28.1458 16.5628 28.1458V29.6758ZM68.4095 29.6758H16.5628V28.1458H68.4095V29.6758ZM68.4095 28.1458C68.8333 28.1458 69.1772 28.4883 69.1772 28.9108C69.1772 29.3332 68.8333 29.6758 68.4095 29.6758V28.1458Z" fill="#FFCE1A"/>
<path d="M40.7848 50.3384H36.2382V49.3077H40.7848V50.3384ZM43.5509 52.0739H42.5203L42.5179 51.9845L42.5114 51.897L42.5002 51.811L42.4849 51.7252L42.4655 51.6423L42.442 51.5603L42.4148 51.4797L42.3839 51.4014L42.3488 51.3252L42.31 51.2494L42.2685 51.1769L42.2233 51.1068L42.1743 51.0381L42.1226 50.9725L42.0682 50.9095L42.01 50.8487L41.9491 50.7905L41.8862 50.7361L41.8205 50.6844L41.7518 50.6354L41.6818 50.5901L41.6093 50.5486L41.5335 50.5099L41.4573 50.4748L41.379 50.4439L41.2984 50.4167L41.2164 50.3932L41.1334 50.3738L41.0477 50.3585L40.9616 50.3473L40.8742 50.3408L40.7848 50.3384V49.3077L40.9259 49.3115L41.0664 49.322L41.2049 49.3401L41.3402 49.3642L41.4749 49.3952L41.6059 49.4329L41.7341 49.4765L41.8607 49.5265L41.9831 49.5819L42.1019 49.6431L42.2179 49.7098L42.3301 49.7823L42.4383 49.8591L42.5427 49.9415L42.6431 50.0285L42.7386 50.12L42.8301 50.2156L42.9172 50.316L42.9995 50.4204L43.0764 50.5286L43.1489 50.6408L43.2155 50.7568L43.2768 50.8755L43.3322 50.998L43.3822 51.1245L43.4258 51.2528L43.4635 51.3837L43.4945 51.5184L43.5186 51.6538L43.5367 51.7923L43.5472 51.9327L43.5509 52.0739ZM42.5203 56.6205V52.0739H43.5509V56.6205H42.5203ZM40.7848 59.387V58.3563L40.8742 58.3539L40.9616 58.3475L41.0477 58.3362L41.1334 58.3209L41.2164 58.3015L41.2984 58.2781L41.379 58.2509L41.4573 58.2199L41.5335 58.1849L41.609 58.1464L41.6818 58.1043L41.7522 58.059L41.8205 58.0104L41.8862 57.9587L41.9491 57.9042L42.01 57.8461L42.0678 57.7855L42.1223 57.7223L42.1747 57.6559L42.2233 57.5879L42.2682 57.5178L42.31 57.4447L42.3488 57.3695L42.3835 57.2933L42.4148 57.2147L42.442 57.1341L42.4655 57.0521L42.4849 56.9691L42.5002 56.8834L42.5114 56.7974L42.5179 56.7099L42.5203 56.6205H43.5509L43.5472 56.7616L43.5367 56.9021L43.5186 57.0406L43.4945 57.176L43.4635 57.3107L43.4258 57.4416L43.3822 57.5699L43.3326 57.6961L43.2768 57.8192L43.2155 57.9379L43.1492 58.0532L43.0764 58.1662L42.9992 58.2743L42.9176 58.3781L42.8305 58.4788L42.7386 58.5747L42.6431 58.6662L42.5427 58.7533L42.4383 58.8356L42.3298 58.9128L42.2179 58.9846L42.1022 59.0513L41.9831 59.1128L41.8607 59.1683L41.7341 59.2183L41.6059 59.2618L41.4749 59.2996L41.3402 59.3305L41.2049 59.3547L41.0664 59.3727L40.9259 59.3833L40.7848 59.387ZM36.2382 58.3563H40.7848V59.387H36.2382V58.3563ZM33.4717 56.6205H34.5024L34.5047 56.7099L34.5112 56.7974L34.5224 56.8834L34.5377 56.9691L34.5571 57.0521L34.5806 57.1341L34.6078 57.2147L34.6391 57.2933L34.6738 57.3695L34.7122 57.4443L34.7548 57.5178L34.7997 57.5882L34.848 57.6559L34.9003 57.7223L34.9548 57.7855L35.0126 57.8461L35.0731 57.9039L35.1364 57.9583L35.2028 58.0107L35.2704 58.059L35.3409 58.1039L35.4143 58.1464L35.4892 58.1849L35.5654 58.2196L35.6439 58.2509L35.7246 58.2781L35.8065 58.3015L35.8895 58.3209L35.9753 58.3362L36.0613 58.3475L36.1487 58.3539L36.2382 58.3563V59.387L36.097 59.3833L35.9565 59.3727L35.8181 59.3547L35.6827 59.3305L35.548 59.2996L35.417 59.2618L35.2888 59.2183L35.1626 59.1686L35.0395 59.1128L34.9204 59.0513L34.8054 58.9849L34.6929 58.9128L34.5843 58.8353L34.4806 58.7536L34.3799 58.6665L34.284 58.5747L34.1921 58.4788L34.1051 58.3781L34.0234 58.2743L33.9459 58.1658L33.8737 58.0532L33.8074 57.9383L33.7458 57.8192L33.6901 57.6961L33.6404 57.5699L33.5969 57.4416L33.5591 57.3107L33.5281 57.176L33.504 57.0406L33.486 56.9021L33.4754 56.7616L33.4717 56.6205ZM34.5024 52.0739V56.6205H33.4717V52.0739H34.5024ZM36.2382 49.3077V50.3384L36.1487 50.3408L36.0613 50.3473L35.9753 50.3585L35.8895 50.3738L35.8065 50.3932L35.7246 50.4167L35.6439 50.4439L35.5654 50.4752L35.4892 50.5099L35.414 50.5486L35.3409 50.5905L35.2708 50.6354L35.2028 50.684L35.1364 50.7364L35.0731 50.7908L35.0126 50.8487L34.9544 50.9095L34.9 50.9725L34.8483 51.0381L34.7997 51.1065L34.7544 51.1769L34.7122 51.2497L34.6738 51.3252L34.6388 51.4014L34.6078 51.4797L34.5806 51.5603L34.5571 51.6423L34.5377 51.7252L34.5224 51.811L34.5112 51.897L34.5047 51.9845L34.5024 52.0739H33.4717L33.4754 51.9327L33.486 51.7923L33.504 51.6538L33.5281 51.5184L33.5591 51.3837L33.5969 51.2528L33.6404 51.1245L33.6904 50.998L33.7458 50.8755L33.8074 50.7565L33.8741 50.6408L33.9459 50.5289L34.0231 50.4204L34.1054 50.316L34.1925 50.2156L34.284 50.12L34.3799 50.0282L34.4806 49.9411L34.5843 49.8595L34.6925 49.7823L34.8054 49.7095L34.9208 49.6431L35.0395 49.5819L35.1626 49.5261L35.2888 49.4765L35.417 49.4329L35.548 49.3952L35.6827 49.3642L35.8181 49.3401L35.9565 49.322L36.097 49.3115L36.2382 49.3077Z" fill="#FFCE1A"/>
<path d="M36.9845 56.5977C36.7862 56.796 36.4627 56.795 36.263 56.5953C36.0633 56.3957 36.0623 56.0722 36.2606 55.8739L36.9845 56.5977ZM40.7619 52.8206L36.9845 56.5977L36.2606 55.8739L40.0381 52.0967L40.7619 52.8206ZM40.0381 52.0967C40.2364 51.8984 40.5599 51.8994 40.7596 52.0991C40.9592 52.2988 40.9602 52.6223 40.7619 52.8206L40.0381 52.0967Z" fill="#FFCE1A"/>
<path d="M40.0381 56.5977L40.762 55.8739C40.9603 56.0722 40.9593 56.3957 40.7596 56.5953C40.5599 56.795 40.2364 56.796 40.0381 56.5977ZM36.261 52.8206L36.9848 52.0967L40.762 55.8739L40.0381 56.5977L36.261 52.8206ZM36.9848 52.0967L36.261 52.8206C36.0627 52.6223 36.0637 52.2988 36.2634 52.0991C36.463 51.8994 36.7865 51.8984 36.9848 52.0967Z" fill="#FFCE1A"/>
<path d="M26.114 36.1351H21.5674V35.1044H26.114V36.1351ZM28.8805 37.8706H27.8498L27.8475 37.7811L27.841 37.6937L27.8298 37.6077L27.8145 37.5219L27.7951 37.4389L27.7716 37.357L27.7444 37.2763L27.7134 37.1981L27.6784 37.1219L27.64 37.0464L27.5978 36.9736L27.5525 36.9032L27.5039 36.8348L27.4522 36.7692L27.3974 36.7059L27.3396 36.645L27.2794 36.5882L27.2158 36.5331L27.1495 36.4807L27.0814 36.4321L27.0114 36.3872L26.9382 36.3453L26.863 36.3066L26.7868 36.2719L26.7083 36.2406L26.6277 36.2133L26.5457 36.1899L26.4627 36.1705L26.377 36.1552L26.2909 36.144L26.2035 36.1375L26.114 36.1351V35.1044L26.2552 35.1082L26.3957 35.1187L26.5341 35.1367L26.6695 35.1609L26.8042 35.1919L26.9352 35.2296L27.0634 35.2731L27.1896 35.3228L27.3127 35.3786L27.4314 35.4398L27.5468 35.5062L27.6597 35.579L27.7679 35.6562L27.8716 35.7378L27.972 35.8242L28.0682 35.9164L28.1601 36.0127L28.2468 36.1127L28.3291 36.2171L28.4063 36.3256L28.4781 36.4375L28.5448 36.5532L28.6064 36.6722L28.6618 36.7947L28.7118 36.9212L28.7553 37.0495L28.7931 37.1804L28.8241 37.3151L28.8482 37.4505L28.8662 37.589L28.8768 37.7294L28.8805 37.8706ZM27.8498 42.4175V37.8706H28.8805V42.4175H27.8498ZM26.114 45.1837V44.153L26.2035 44.1506L26.2909 44.1442L26.377 44.1329L26.4627 44.1176L26.5457 44.0982L26.6277 44.0748L26.7083 44.0476L26.7868 44.0163L26.863 43.9816L26.9382 43.9428L27.0114 43.9009L27.0814 43.856L27.1495 43.8074L27.2158 43.755L27.2791 43.7006L27.3396 43.6428L27.3978 43.5819L27.4522 43.5189L27.5039 43.4533L27.5525 43.3849L27.5978 43.3145L27.64 43.2417L27.6784 43.1662L27.7134 43.09L27.7444 43.0118L27.7716 42.9312L27.7951 42.8492L27.8145 42.7662L27.8298 42.6805L27.841 42.5944L27.8475 42.507L27.8498 42.4175H28.8805L28.8768 42.5587L28.8662 42.6992L28.8482 42.8376L28.8241 42.973L28.7931 43.1077L28.7553 43.2387L28.7118 43.3669L28.6618 43.4934L28.6064 43.6159L28.5448 43.7349L28.4781 43.8506L28.4063 43.9625L28.3291 44.071L28.2468 44.1755L28.1597 44.2758L28.0682 44.3714L27.9723 44.4632L27.8716 44.5503L27.7679 44.6319L27.6597 44.7092L27.5468 44.782L27.4314 44.8483L27.3127 44.9095L27.1896 44.9653L27.0634 45.015L26.9352 45.0585L26.8042 45.0963L26.6695 45.1272L26.5341 45.1514L26.3957 45.1694L26.2552 45.1799L26.114 45.1837ZM21.5674 44.153H26.114V45.1837H21.5674V44.153ZM18.8013 42.4175H19.832L19.8343 42.507L19.8408 42.5944L19.852 42.6805L19.8673 42.7662L19.8867 42.8492L19.9102 42.9312L19.9374 43.0118L19.9684 43.09L20.0034 43.1662L20.0422 43.2421L20.0837 43.3145L20.1289 43.3846L20.1779 43.4533L20.2296 43.5189L20.2844 43.5822L20.3419 43.6428L20.4027 43.7006L20.466 43.7554L20.5317 43.8071L20.6004 43.856L20.6704 43.9013L20.7429 43.9428L20.8188 43.9816L20.895 44.0166L20.9732 44.0476L21.0538 44.0748L21.1358 44.0982L21.2188 44.1176L21.3045 44.1329L21.3906 44.1442L21.478 44.1506L21.5674 44.153V45.1837L21.4263 45.1799L21.2858 45.1694L21.1473 45.1514L21.012 45.1272L20.8773 45.0963L20.7463 45.0585L20.6181 45.015L20.4915 44.965L20.3691 44.9095L20.2503 44.8483L20.1344 44.7816L20.0221 44.7092L19.9139 44.6323L19.8095 44.55L19.7095 44.4632L19.6132 44.3714L19.5217 44.2755L19.435 44.1755L19.3527 44.071L19.2758 43.9629L19.2033 43.8506L19.1367 43.7346L19.0754 43.6159L19.02 43.4934L18.97 43.3669L18.9264 43.2387L18.8887 43.1077L18.8577 42.973L18.8336 42.8376L18.8156 42.6992L18.805 42.5587L18.8013 42.4175ZM19.832 37.8706V42.4175H18.8013V37.8706H19.832ZM21.5674 35.1044V36.1351L21.478 36.1375L21.3906 36.144L21.3045 36.1552L21.2188 36.1705L21.1358 36.1899L21.0538 36.2133L20.9732 36.2406L20.895 36.2715L20.8188 36.3066L20.7429 36.3453L20.6704 36.3868L20.6004 36.4321L20.5317 36.4811L20.466 36.5328L20.4024 36.5882L20.3419 36.645L20.285 36.7056L20.2296 36.7692L20.1779 36.8348L20.1289 36.9035L20.0837 36.9736L20.0422 37.0461L20.0034 37.1219L19.9684 37.1981L19.9374 37.2763L19.9102 37.357L19.8867 37.4389L19.8673 37.5219L19.852 37.6077L19.8408 37.6937L19.8343 37.7811L19.832 37.8706H18.8013L18.805 37.7294L18.8156 37.589L18.8336 37.4505L18.8577 37.3151L18.8887 37.1804L18.9264 37.0495L18.97 36.9212L19.02 36.7947L19.0754 36.6722L19.1367 36.5535L19.2033 36.4375L19.2758 36.3253L19.3527 36.2171L19.435 36.1127L19.521 36.013L19.6132 35.9164L19.7098 35.8242L19.8095 35.7381L19.9139 35.6558L20.0221 35.579L20.1344 35.5065L20.2503 35.4398L20.3691 35.3786L20.4915 35.3232L20.6181 35.2731L20.7463 35.2296L20.8773 35.1919L21.012 35.1609L21.1473 35.1367L21.2858 35.1187L21.4263 35.1082L21.5674 35.1044Z" fill="#FFCE1A"/>
<path d="M23.6482 42.0736C23.4158 42.3059 23.0372 42.3046 22.8032 42.0705C22.5692 41.8365 22.5682 41.4576 22.8005 41.2252L23.6482 42.0736ZM26.6521 39.07L23.6482 42.0736L22.8005 41.2252L25.8044 38.2216L26.6521 39.07ZM25.8044 38.2216C26.0368 37.9893 26.4154 37.9907 26.6494 38.2247C26.8834 38.4587 26.8844 38.8377 26.6521 39.07L25.8044 38.2216Z" fill="#FFCE1A"/>
<path d="M22.8005 42.0736L23.6489 41.2253C23.8812 41.4576 23.8799 41.8365 23.6458 42.0706C23.4118 42.3046 23.0329 42.306 22.8005 42.0736ZM21.2987 40.5718L22.1471 39.7235L23.6489 41.2253L22.8005 42.0736L21.2987 40.5718ZM22.1471 39.7235L21.2987 40.5718C21.0664 40.3395 21.0678 39.9606 21.3018 39.7265C21.5358 39.4925 21.9148 39.4911 22.1471 39.7235Z" fill="#FFCE1A"/>
<path d="M40.7851 36.1351H36.2386V35.1044H40.7851V36.1351ZM43.5513 37.8706H42.5206L42.5182 37.7811L42.5118 37.6937L42.5006 37.6077L42.4852 37.5219L42.4659 37.4389L42.4424 37.357L42.4152 37.2763L42.3842 37.1981L42.3492 37.1219L42.3104 37.0461L42.2689 36.9736L42.2237 36.9035L42.1747 36.8348L42.123 36.7692L42.0682 36.7059L42.0104 36.645L41.9498 36.5875L41.8866 36.5328L41.8209 36.4811L41.7522 36.4321L41.6821 36.3868L41.6097 36.3453L41.5338 36.3066L41.4576 36.2715L41.3794 36.2406L41.2988 36.2133L41.2168 36.1899L41.1338 36.1705L41.0481 36.1552L40.962 36.144L40.8746 36.1375L40.7851 36.1351V35.1044L40.9263 35.1082L41.0668 35.1187L41.2052 35.1367L41.3406 35.1609L41.4753 35.1919L41.6063 35.2296L41.7345 35.2731L41.8611 35.3232L41.9835 35.3786L42.1022 35.4398L42.2182 35.5065L42.3305 35.579L42.4386 35.6558L42.5431 35.7381L42.6431 35.8249L42.739 35.9164L42.8308 36.0127L42.9176 36.1127L42.9999 36.2171L43.0768 36.3253L43.1492 36.4375L43.2159 36.5535L43.2771 36.6722L43.3326 36.7947L43.3826 36.9212L43.4261 37.0495L43.4639 37.1804L43.4948 37.3151L43.519 37.4505L43.537 37.589L43.5476 37.7294L43.5513 37.8706ZM42.5206 42.4175V37.8706H43.5513V42.4175H42.5206ZM40.7851 45.1837V44.153L40.8746 44.1506L40.962 44.1442L41.0481 44.1329L41.1338 44.1176L41.2168 44.0982L41.2988 44.0748L41.3794 44.0476L41.4576 44.0166L41.5338 43.9816L41.6097 43.9428L41.6821 43.9013L41.7522 43.856L41.8209 43.8071L41.8866 43.7554L41.9495 43.7009L42.0104 43.6428L42.0685 43.5819L42.123 43.5189L42.1747 43.4533L42.2237 43.3846L42.2689 43.3145L42.3104 43.2421L42.3492 43.1662L42.3842 43.09L42.4152 43.0118L42.4424 42.9312L42.4659 42.8492L42.4852 42.7662L42.5006 42.6805L42.5118 42.5944L42.5182 42.507L42.5206 42.4175H43.5513L43.5476 42.5587L43.537 42.6992L43.519 42.8376L43.4948 42.973L43.4639 43.1077L43.4261 43.2387L43.3826 43.3669L43.3326 43.4934L43.2771 43.6159L43.2159 43.7346L43.1492 43.8506L43.0768 43.9629L42.9999 44.071L42.9176 44.1755L42.8305 44.2758L42.739 44.3714L42.6434 44.4629L42.5431 44.55L42.4386 44.6323L42.3305 44.7092L42.2182 44.7816L42.1022 44.8483L41.9835 44.9095L41.8611 44.965L41.7345 45.015L41.6063 45.0585L41.4753 45.0963L41.3406 45.1272L41.2052 45.1514L41.0668 45.1694L40.9263 45.1799L40.7851 45.1837ZM36.2386 44.153H40.7851V45.1837H36.2386V44.153ZM33.472 42.4175H34.5027L34.5051 42.507L34.5116 42.5944L34.5228 42.6805L34.5381 42.7662L34.5575 42.8492L34.581 42.9312L34.6082 43.0118L34.6391 43.09L34.6742 43.1662L34.7126 43.2417L34.7548 43.3145L34.8 43.3849L34.8487 43.4533L34.9004 43.5189L34.9548 43.5819L35.013 43.6428L35.0735 43.7006L35.1368 43.755L35.2031 43.8074L35.2711 43.856L35.3412 43.9009L35.4144 43.9428L35.4895 43.9816L35.5657 44.0163L35.6443 44.0476L35.7249 44.0748L35.8069 44.0982L35.8899 44.1176L35.9756 44.1329L36.0617 44.1442L36.1491 44.1506L36.2386 44.153V45.1837L36.0974 45.1799L35.9569 45.1694L35.8185 45.1514L35.6831 45.1272L35.5484 45.0963L35.4174 45.0585L35.2892 45.015L35.163 44.9653L35.0398 44.9095L34.9211 44.8483L34.8058 44.782L34.6929 44.7092L34.5847 44.6319L34.481 44.5503L34.3803 44.4632L34.2843 44.3714L34.1928 44.2758L34.1058 44.1755L34.0234 44.071L33.9462 43.9625L33.8745 43.8506L33.8078 43.7349L33.7462 43.6159L33.6908 43.4934L33.6408 43.3669L33.5972 43.2387L33.5595 43.1077L33.5285 42.973L33.5044 42.8376L33.4863 42.6992L33.4758 42.5587L33.472 42.4175ZM34.5027 37.8706V42.4175H33.472V37.8706H34.5027ZM36.2386 35.1044V36.1351L36.1491 36.1375L36.0617 36.144L35.9756 36.1552L35.8899 36.1705L35.8069 36.1899L35.7249 36.2133L35.6443 36.2406L35.5657 36.2719L35.4895 36.3066L35.4144 36.3453L35.3412 36.3872L35.2711 36.4321L35.2031 36.4807L35.1368 36.5331L35.0732 36.5882L35.013 36.645L34.9551 36.7059L34.9004 36.7692L34.8487 36.8348L34.8 36.9032L34.7548 36.9736L34.7126 37.0464L34.6742 37.1219L34.6391 37.1981L34.6082 37.2763L34.581 37.357L34.5575 37.4389L34.5381 37.5219L34.5228 37.6077L34.5116 37.6937L34.5051 37.7811L34.5027 37.8706H33.472L33.4758 37.7294L33.4863 37.589L33.5044 37.4505L33.5285 37.3151L33.5595 37.1804L33.5972 37.0495L33.6408 36.9212L33.6908 36.7947L33.7462 36.6722L33.8078 36.5532L33.8745 36.4375L33.9462 36.3256L34.0234 36.2171L34.1058 36.1127L34.1925 36.0127L34.2843 35.9164L34.3806 35.8242L34.481 35.7378L34.5847 35.6562L34.6929 35.579L34.8058 35.5062L34.9211 35.4398L35.0398 35.3786L35.163 35.3228L35.2892 35.2731L35.4174 35.2296L35.5484 35.1919L35.6831 35.1609L35.8185 35.1367L35.9569 35.1187L36.0974 35.1082L36.2386 35.1044Z" fill="#FFCE1A"/>
<path d="M38.3193 42.0736C38.087 42.3059 37.7084 42.3046 37.4743 42.0705C37.2403 41.8365 37.2393 41.4576 37.4716 41.2252L38.3193 42.0736ZM41.3232 39.07L38.3193 42.0736L37.4716 41.2252L40.4756 38.2216L41.3232 39.07ZM40.4756 38.2216C40.7079 37.9893 41.0865 37.9907 41.3205 38.2247C41.5546 38.4587 41.5556 38.8377 41.3232 39.07L40.4756 38.2216Z" fill="#FFCE1A"/>
<path d="M37.4719 42.0736L38.3196 41.2253C38.5519 41.4576 38.5509 41.8365 38.3169 42.0706C38.0829 42.3046 37.7043 42.306 37.4719 42.0736ZM35.9698 40.5718L36.8175 39.7235L38.3196 41.2253L37.4719 42.0736L35.9698 40.5718ZM36.8175 39.7235L35.9698 40.5718C35.7375 40.3395 35.7385 39.9606 35.9725 39.7265C36.2065 39.4925 36.5851 39.4911 36.8175 39.7235Z" fill="#FFCE1A"/>
<path d="M55.4552 36.1351H50.9086V35.1044H55.4552V36.1351ZM58.2217 37.8706H57.191L57.1886 37.7811L57.1822 37.6937L57.171 37.6077L57.1557 37.5219L57.1363 37.4389L57.1128 37.357L57.0856 37.2763L57.0546 37.1981L57.0196 37.1219L56.9812 37.0464L56.939 36.9736L56.8937 36.9032L56.8451 36.8348L56.7934 36.7692L56.7386 36.7059L56.6808 36.645L56.6206 36.5882L56.557 36.5331L56.4906 36.4807L56.4226 36.4321L56.3525 36.3872L56.2794 36.3453L56.2042 36.3066L56.128 36.2719L56.0495 36.2406L55.9688 36.2133L55.8869 36.1899L55.8039 36.1705L55.7181 36.1552L55.6321 36.144L55.5447 36.1375L55.4552 36.1351V35.1044L55.5964 35.1082L55.7369 35.1187L55.8753 35.1367L56.0107 35.1609L56.1454 35.1919L56.2763 35.2296L56.4046 35.2731L56.5308 35.3228L56.6539 35.3786L56.7726 35.4398L56.8879 35.5062L57.0009 35.579L57.1091 35.6562L57.2128 35.7378L57.3131 35.8242L57.4094 35.9164L57.5013 36.0127L57.588 36.1127L57.6703 36.2171L57.7475 36.3256L57.8193 36.4375L57.886 36.5532L57.9475 36.6722L58.003 36.7947L58.053 36.9212L58.0965 37.0495L58.1343 37.1804L58.1652 37.3151L58.1894 37.4505L58.2074 37.589L58.218 37.7294L58.2217 37.8706ZM57.191 42.4175V37.8706H58.2217V42.4175H57.191ZM55.4552 45.1837V44.153L55.5447 44.1506L55.6321 44.1442L55.7181 44.1329L55.8039 44.1176L55.8869 44.0982L55.9688 44.0748L56.0495 44.0476L56.128 44.0163L56.2042 43.9816L56.2794 43.9428L56.3525 43.9009L56.4226 43.856L56.4906 43.8074L56.557 43.755L56.6202 43.7006L56.6808 43.6428L56.739 43.5819L56.7934 43.5189L56.8451 43.4533L56.8937 43.3849L56.939 43.3145L56.9812 43.2417L57.0196 43.1662L57.0546 43.09L57.0856 43.0118L57.1128 42.9312L57.1363 42.8492L57.1557 42.7662L57.171 42.6805L57.1822 42.5944L57.1886 42.507L57.191 42.4175H58.2217L58.218 42.5587L58.2074 42.6992L58.1894 42.8376L58.1652 42.973L58.1343 43.1077L58.0965 43.2387L58.053 43.3669L58.003 43.4934L57.9475 43.6159L57.886 43.7349L57.8193 43.8506L57.7475 43.9625L57.6703 44.071L57.588 44.1755L57.5009 44.2758L57.4094 44.3714L57.3135 44.4632L57.2128 44.5503L57.1091 44.6319L57.0009 44.7092L56.8879 44.782L56.7726 44.8483L56.6539 44.9095L56.5308 44.9653L56.4046 45.015L56.2763 45.0585L56.1454 45.0963L56.0107 45.1272L55.8753 45.1514L55.7369 45.1694L55.5964 45.1799L55.4552 45.1837ZM50.9086 44.153H55.4552V45.1837H50.9086V44.153ZM48.1425 42.4175H49.1731L49.1755 42.507L49.182 42.5944L49.1932 42.6805L49.2085 42.7662L49.2279 42.8492L49.2514 42.9312L49.2786 43.0118L49.3095 43.09L49.3446 43.1662L49.3834 43.2421L49.4249 43.3145L49.4701 43.3846L49.5191 43.4533L49.5708 43.5189L49.6252 43.5819L49.6834 43.6428L49.7443 43.7009L49.8072 43.7554L49.8728 43.8071L49.9416 43.856L50.0116 43.9013L50.0841 43.9428L50.1599 43.9816L50.2361 44.0166L50.3144 44.0476L50.395 44.0748L50.477 44.0982L50.56 44.1176L50.6457 44.1329L50.7317 44.1442L50.8192 44.1506L50.9086 44.153V45.1837L50.7675 45.1799L50.627 45.1694L50.4885 45.1514L50.3532 45.1272L50.2184 45.0963L50.0875 45.0585L49.9592 45.015L49.8327 44.965L49.7102 44.9095L49.5915 44.8483L49.4755 44.7816L49.3633 44.7092L49.2551 44.6323L49.1507 44.55L49.0503 44.4629L48.9548 44.3714L48.8633 44.2758L48.7762 44.1755L48.6939 44.071L48.617 43.9629L48.5445 43.8506L48.4779 43.7346L48.4166 43.6159L48.3612 43.4934L48.3112 43.3669L48.2676 43.2387L48.2299 43.1077L48.1989 42.973L48.1748 42.8376L48.1567 42.6992L48.1462 42.5587L48.1425 42.4175ZM49.1731 37.8706V42.4175H48.1425V37.8706H49.1731ZM50.9086 35.1044V36.1351L50.8192 36.1375L50.7317 36.144L50.6457 36.1552L50.56 36.1705L50.477 36.1899L50.395 36.2133L50.3144 36.2406L50.2361 36.2715L50.1599 36.3066L50.0841 36.3453L50.0116 36.3868L49.9416 36.4321L49.8728 36.4811L49.8072 36.5328L49.7439 36.5875L49.6834 36.645L49.6255 36.7059L49.5708 36.7692L49.5191 36.8348L49.4701 36.9035L49.4249 36.9736L49.3834 37.0461L49.3446 37.1219L49.3095 37.1981L49.2786 37.2763L49.2514 37.357L49.2279 37.4389L49.2085 37.5219L49.1932 37.6077L49.182 37.6937L49.1755 37.7811L49.1731 37.8706H48.1425L48.1462 37.7294L48.1567 37.589L48.1748 37.4505L48.1989 37.3151L48.2299 37.1804L48.2676 37.0495L48.3112 36.9212L48.3612 36.7947L48.4166 36.6722L48.4779 36.5535L48.5445 36.4375L48.617 36.3253L48.6939 36.2171L48.7762 36.1127L48.8629 36.0127L48.9548 35.9164L49.0507 35.8249L49.1507 35.7381L49.2551 35.6558L49.3633 35.579L49.4755 35.5065L49.5915 35.4398L49.7102 35.3786L49.8327 35.3232L49.9592 35.2731L50.0875 35.2296L50.2184 35.1919L50.3532 35.1609L50.4885 35.1367L50.627 35.1187L50.7675 35.1082L50.9086 35.1044Z" fill="#FFCE1A"/>
<path d="M52.9893 42.0736C52.757 42.3059 52.3784 42.3046 52.1444 42.0705C51.9104 41.8365 51.9093 41.4576 52.1417 41.2252L52.9893 42.0736ZM55.9933 39.07L52.9893 42.0736L52.1417 41.2252L55.1456 38.2216L55.9933 39.07ZM55.1456 38.2216C55.3779 37.9893 55.7565 37.9907 55.9906 38.2247C56.2246 38.4587 56.2256 38.8377 55.9933 39.07L55.1456 38.2216Z" fill="#FFCE1A"/>
<path d="M52.1417 42.0736L52.9901 41.2253C53.2224 41.4576 53.221 41.8365 52.987 42.0706C52.753 42.3046 52.374 42.306 52.1417 42.0736ZM50.6399 40.5718L51.4883 39.7235L52.9901 41.2253L52.1417 42.0736L50.6399 40.5718ZM51.4883 39.7235L50.6399 40.5718C50.4076 40.3395 50.4089 39.9606 50.643 39.7265C50.877 39.4925 51.2559 39.4911 51.4883 39.7235Z" fill="#FFCE1A"/>
<path d="M26.1144 50.3384H21.5678V49.3077H26.1144V50.3384ZM28.8809 52.0739H27.8502L27.8478 51.9845L27.8414 51.897L27.8301 51.811L27.8148 51.7252L27.7954 51.6423L27.772 51.5603L27.7448 51.4797L27.7138 51.4014L27.6788 51.3252L27.6403 51.2497L27.5982 51.1769L27.5529 51.1065L27.5043 51.0381L27.4526 50.9725L27.3981 50.9095L27.34 50.8487L27.2794 50.7908L27.2162 50.7364L27.1498 50.684L27.0818 50.6354L27.0117 50.5905L26.9386 50.5486L26.8634 50.5099L26.7872 50.4752L26.7086 50.4439L26.628 50.4167L26.546 50.3932L26.463 50.3738L26.3773 50.3585L26.2913 50.3473L26.2038 50.3408L26.1144 50.3384V49.3077L26.2555 49.3115L26.396 49.322L26.5345 49.3401L26.6699 49.3642L26.8046 49.3952L26.9355 49.4329L27.0638 49.4765L27.19 49.5261L27.3131 49.5819L27.4318 49.6431L27.5471 49.7095L27.6601 49.7823L27.7682 49.8595L27.872 49.9411L27.9727 50.0282L28.0686 50.12L28.1601 50.2156L28.2472 50.316L28.3295 50.4204L28.4067 50.5289L28.4785 50.6408L28.5452 50.7565L28.6067 50.8755L28.6622 50.998L28.7122 51.1245L28.7557 51.2528L28.7935 51.3837L28.8244 51.5184L28.8486 51.6538L28.8666 51.7923L28.8772 51.9327L28.8809 52.0739ZM27.8502 56.6205V52.0739H28.8809V56.6205H27.8502ZM26.1144 59.3867V58.356L26.2038 58.3536L26.2913 58.3471L26.3773 58.3359L26.463 58.3206L26.546 58.3012L26.628 58.2777L26.7086 58.2505L26.7872 58.2192L26.8634 58.1845L26.9386 58.1458L27.0117 58.1039L27.0818 58.059L27.1498 58.0104L27.2162 57.958L27.2798 57.9029L27.34 57.8461L27.3978 57.7852L27.4526 57.7219L27.5043 57.6563L27.5529 57.5879L27.5982 57.5175L27.6403 57.4447L27.6788 57.3692L27.7138 57.293L27.7448 57.2147L27.772 57.1341L27.7954 57.0521L27.8148 56.9691L27.8301 56.8834L27.8414 56.7974L27.8478 56.7099L27.8502 56.6205H28.8809L28.8772 56.7616L28.8666 56.9021L28.8486 57.0406L28.8244 57.176L28.7935 57.3107L28.7557 57.4416L28.7122 57.5699L28.6622 57.6964L28.6067 57.8189L28.5452 57.9379L28.4785 58.0536L28.4067 58.1655L28.3295 58.274L28.2472 58.3784L28.1604 58.4784L28.0686 58.5747L27.9723 58.6669L27.872 58.7533L27.7682 58.8349L27.6601 58.9121L27.5471 58.9849L27.4318 59.0513L27.3131 59.1125L27.19 59.1683L27.0638 59.2179L26.9355 59.2615L26.8046 59.2992L26.6699 59.3302L26.5345 59.3543L26.396 59.3724L26.2555 59.3829L26.1144 59.3867ZM21.5678 58.356H26.1144V59.3867H21.5678V58.356ZM18.8016 56.6205H19.8323L19.8347 56.7099L19.8412 56.7974L19.8524 56.8834L19.8677 56.9691L19.8871 57.0521L19.9106 57.1341L19.9378 57.2147L19.9687 57.293L20.0038 57.3692L20.0425 57.445L20.084 57.5175L20.1293 57.5876L20.1783 57.6563L20.23 57.7219L20.2854 57.7855L20.3422 57.8461L20.4028 57.9029L20.4664 57.9583L20.532 58.01L20.6007 58.059L20.6708 58.1043L20.7433 58.1458L20.8191 58.1845L20.8953 58.2196L20.9736 58.2505L21.0542 58.2777L21.1361 58.3012L21.2191 58.3206L21.3049 58.3359L21.3909 58.3471L21.4783 58.3536L21.5678 58.356V59.3867L21.4266 59.3829L21.2862 59.3724L21.1477 59.3543L21.0123 59.3302L20.8776 59.2992L20.7467 59.2615L20.6184 59.2179L20.4919 59.1679L20.3694 59.1125L20.2507 59.0513L20.1347 58.9846L20.0225 58.9121L19.9143 58.8353L19.8099 58.7529L19.7102 58.6669L19.6136 58.5747L19.5214 58.4781L19.4354 58.3784L19.353 58.274L19.2762 58.1658L19.2037 58.0536L19.137 57.9376L19.0758 57.8189L19.0204 57.6964L18.9704 57.5699L18.9268 57.4416L18.8891 57.3107L18.8581 57.176L18.834 57.0406L18.8159 56.9021L18.8054 56.7616L18.8016 56.6205ZM19.8323 52.0739V56.6205H18.8016V52.0739H19.8323ZM21.5678 49.3077V50.3384L21.4783 50.3408L21.3909 50.3473L21.3049 50.3585L21.2191 50.3738L21.1361 50.3932L21.0542 50.4167L20.9736 50.4439L20.8953 50.4748L20.8191 50.5099L20.7433 50.5486L20.6708 50.5901L20.6007 50.6354L20.532 50.6844L20.4664 50.7361L20.4031 50.7908L20.3422 50.8487L20.2847 50.9092L20.23 50.9725L20.1783 51.0381L20.1293 51.1068L20.084 51.1769L20.0425 51.2494L20.0038 51.3252L19.9687 51.4014L19.9378 51.4797L19.9106 51.5603L19.8871 51.6423L19.8677 51.7252L19.8524 51.811L19.8412 51.897L19.8347 51.9845L19.8323 52.0739H18.8016L18.8054 51.9327L18.8159 51.7923L18.834 51.6538L18.8581 51.5184L18.8891 51.3837L18.9268 51.2528L18.9704 51.1245L19.0204 50.998L19.0758 50.8755L19.137 50.7568L19.2037 50.6408L19.2762 50.5286L19.353 50.4204L19.4354 50.316L19.5221 50.216L19.6136 50.12L19.7099 50.0282L19.8099 49.9415L19.9143 49.8591L20.0225 49.7823L20.1347 49.7098L20.2507 49.6431L20.3694 49.5819L20.4919 49.5265L20.6184 49.4765L20.7467 49.4329L20.8776 49.3952L21.0123 49.3642L21.1477 49.3401L21.2862 49.322L21.4266 49.3115L21.5678 49.3077Z" fill="#FFCE1A"/>
<path d="M23.6489 56.2769C23.4166 56.5093 23.0376 56.5079 22.8036 56.2739C22.5696 56.0398 22.5682 55.6609 22.8006 55.4286L23.6489 56.2769ZM26.6529 53.273L23.6489 56.2769L22.8006 55.4286L25.8045 52.4246L26.6529 53.273ZM25.8045 52.4246C26.0368 52.1923 26.4158 52.1937 26.6498 52.4277C26.8838 52.6617 26.8852 53.0407 26.6529 53.273L25.8045 52.4246Z" fill="#FFCE1A"/>
<path d="M22.8009 56.2769L23.6492 55.4286C23.8816 55.6609 23.8802 56.0398 23.6462 56.2739C23.4122 56.5079 23.0332 56.5093 22.8009 56.2769ZM21.2991 54.7751L22.1474 53.9268L23.6492 55.4286L22.8009 56.2769L21.2991 54.7751ZM22.1474 53.9268L21.2991 54.7751C21.0668 54.5428 21.0681 54.1639 21.3022 53.9298C21.5362 53.6958 21.9151 53.6944 22.1474 53.9268Z" fill="#FFCE1A"/>
</svg>
