<svg width="90" height="90" viewBox="0 0 90 90" fill="none" xmlns="http://www.w3.org/2000/svg">
<path d="M63.7747 17.4784C63.3195 17.4784 62.9505 17.1093 62.9505 16.6542C62.9505 16.199 63.3195 15.83 63.7747 15.83V17.4784ZM67.7504 17.4784H63.7747V15.83H67.7504V17.4784ZM75.1979 23.2774H73.5495L73.542 22.9798L73.5195 22.6865L73.4825 22.3974L73.4314 22.1134L73.3661 21.8338L73.2879 21.5589L73.1967 21.2905L73.0926 21.0283L72.976 20.7714L72.8474 20.5211L72.7076 20.2782L72.5562 20.0428L72.394 19.8153L72.2212 19.5959L72.0382 19.3846L71.8453 19.1826L71.6432 18.9897L71.432 18.8067L71.2126 18.6339L70.985 18.4716L70.7496 18.3203L70.5068 18.1805L70.2564 18.0519L69.9996 17.9352L69.7373 17.8311L69.4689 17.74L69.1941 17.6617L68.9145 17.5964L68.6304 17.5454L68.3413 17.5083L68.0481 17.4859L67.7504 17.4784V15.83L68.1318 15.8395L68.5087 15.8687L68.8808 15.916L69.2471 15.982L69.607 16.0657L69.9601 16.1664L70.3061 16.2841L70.6445 16.4181L70.9741 16.5681L71.2946 16.7327L71.6068 16.9127L71.9089 17.1069L72.2011 17.3148L72.4824 17.5365L72.7521 17.7706L73.0107 18.0172L73.2573 18.2757L73.4913 18.5454L73.7131 18.8268L73.9209 19.119L74.1152 19.421L74.2951 19.7333L74.4597 20.0537L74.6097 20.3833L74.7438 20.7218L74.8615 21.0677L74.9622 21.4208L75.0458 21.7807L75.1118 22.1471L75.1591 22.5192L75.1884 22.8961L75.1979 23.2774ZM73.5495 69.8768V23.2774H75.1979V69.8768H73.5495ZM67.7504 77.3243V75.6759L68.0481 75.6684L68.3413 75.6459L68.6304 75.6089L68.9145 75.5578L69.1941 75.4925L69.4682 75.4146L69.737 75.3228L69.9999 75.2187L70.2567 75.102L70.5064 74.9738L70.7489 74.834L70.9843 74.6826L71.2122 74.52L71.4323 74.3469L71.6432 74.1642L71.8453 73.9717L72.0378 73.7696L72.2205 73.5587L72.3936 73.3386L72.5562 73.1107L72.7076 72.8753L72.8474 72.6328L72.9756 72.3831L73.0923 72.1263L73.1964 71.8634L73.2882 71.5946L73.3661 71.3205L73.4314 71.0409L73.4825 70.7568L73.5195 70.4677L73.542 70.1745L73.5495 69.8768H75.1979L75.1884 70.2581L75.1591 70.635L75.1118 71.0072L75.0458 71.3735L74.9622 71.7334L74.8611 72.0865L74.7434 72.4328L74.6094 72.7706L74.4601 73.1002L74.2951 73.4213L74.1152 73.7332L73.9209 74.0353L73.7128 74.3271L73.492 74.6078L73.2576 74.8785L73.0107 75.1371L72.7521 75.384L72.4814 75.6184L72.2007 75.8391L71.9089 76.0473L71.6068 76.2416L71.2949 76.4215L70.9738 76.5865L70.6442 76.7358L70.3064 76.8698L69.9601 76.9875L69.607 77.0885L69.2471 77.1722L68.8808 77.2382L68.5087 77.2855L68.1318 77.3148L67.7504 77.3243ZM40.9126 75.6759H67.7504V77.3243H40.9126V75.6759ZM40.9126 77.3243C40.4574 77.3243 40.0884 76.9552 40.0884 76.5001C40.0884 76.0449 40.4574 75.6759 40.9126 75.6759V77.3243ZM26.1292 42.1695C26.1292 42.6246 25.7602 42.9937 25.305 42.9937C24.8499 42.9937 24.4808 42.6246 24.4808 42.1695H26.1292ZM26.1292 23.2774V42.1695H24.4808V23.2774H26.1292ZM31.9283 15.83V17.4784L31.6306 17.4859L31.3371 17.5083L31.0483 17.5454L30.7639 17.5964L30.4843 17.6617L30.2098 17.74L29.9414 17.8311L29.6788 17.9352L29.422 18.0519L29.172 18.1805L28.9294 18.3203L28.6937 18.4716L28.4661 18.6339L28.2464 18.807L28.0352 18.99L27.8331 19.1826L27.6402 19.3846L27.4576 19.5955L27.2851 19.8149L27.1225 20.0428L26.9711 20.2782L26.831 20.5214L26.7024 20.7714L26.5861 21.0279L26.482 21.2905L26.3908 21.5589L26.3126 21.8338L26.2473 22.1134L26.1963 22.3974L26.1592 22.6865L26.1367 22.9798L26.1292 23.2774H24.4808L24.4904 22.8961L24.5196 22.5192L24.5669 22.1471L24.6329 21.7807L24.7166 21.4208L24.8173 21.0677L24.9349 20.7218L25.069 20.3837L25.2186 20.0537L25.384 19.7329L25.5636 19.421L25.7578 19.119L25.9653 18.8271L26.1867 18.5458L26.4211 18.2757L26.6677 18.0172L26.9262 17.7702L27.1967 17.5362L27.4776 17.3148L27.7698 17.1069L28.0716 16.9127L28.3835 16.7327L28.7043 16.5681L29.0339 16.4181L29.3727 16.2841L29.7186 16.1664L30.0714 16.0657L30.4312 15.982L30.7979 15.916L31.1697 15.8687L31.547 15.8395L31.9283 15.83ZM37.8763 17.4784H31.9283V15.83H37.8763V17.4784ZM37.8763 15.83C38.3314 15.83 38.7005 16.199 38.7005 16.6542C38.7005 17.1093 38.3314 17.4784 37.8763 17.4784V15.83Z" fill="#FFCE1A"/>
<path d="M60.5949 14.3241H41.0146V12.6757H60.5949V14.3241ZM64.5734 16.6542H62.925L62.9219 16.5344L62.9131 16.4164L62.8981 16.3007L62.8777 16.1868L62.8518 16.0752L62.8199 15.9647L62.7835 15.8572L62.7416 15.7517L62.6947 15.6476L62.6433 15.548L62.5875 15.451L62.5263 15.3558L62.4606 15.2639L62.3916 15.1758L62.3178 15.0911L62.2399 15.0092L62.1579 14.9313L62.0732 14.8574L61.9851 14.7884L61.8933 14.7227L61.798 14.6615L61.7011 14.6057L61.6014 14.5544L61.4973 14.5074L61.3919 14.4656L61.2844 14.4292L61.1738 14.3972L61.0623 14.3714L60.9483 14.3509L60.8326 14.336L60.7146 14.3271L60.5949 14.3241V12.6757L60.7983 12.6808L61 12.6964L61.1987 12.7216L61.3949 12.757L61.5875 12.8019L61.7762 12.8556L61.9613 12.9185L62.1416 12.9903L62.3171 13.0699L62.4896 13.158L62.6566 13.2546L62.8171 13.358L62.9729 13.4686L63.1236 13.5873L63.2675 13.7121L63.4053 13.8438L63.5369 13.9815L63.6618 14.1254L63.7805 14.2761L63.891 14.4319L63.9944 14.5925L64.091 14.7595L64.1791 14.9319L64.2587 15.1075L64.3305 15.2877L64.3934 15.4728L64.4472 15.6616L64.4921 15.8541L64.5275 16.0504L64.5526 16.249L64.5683 16.4507L64.5734 16.6542ZM63.7492 16.6542H64.5734H63.7492ZM60.5949 20.6327V18.9843L60.7146 18.9812L60.8326 18.9723L60.9483 18.9574L61.0623 18.937L61.1738 18.9111L61.2844 18.8791L61.3919 18.8427L61.4973 18.8009L61.6014 18.754L61.7011 18.7026L61.798 18.6468L61.8933 18.5856L61.9851 18.5199L62.0732 18.4509L62.1579 18.3771L62.2399 18.2992L62.3178 18.2172L62.3916 18.1325L62.4606 18.0444L62.5263 17.9525L62.5875 17.8573L62.6433 17.7604L62.6947 17.6607L62.7416 17.5566L62.7835 17.4512L62.8199 17.3437L62.8518 17.2331L62.8777 17.1215L62.8981 17.0076L62.9131 16.8919L62.9219 16.7739L62.925 16.6542H64.5734L64.5683 16.8576L64.5526 17.0593L64.5275 17.2579L64.4921 17.4542L64.4472 17.6467L64.3934 17.8355L64.3305 18.0206L64.2587 18.2009L64.1791 18.3764L64.091 18.5488L63.9944 18.7159L63.891 18.8764L63.7805 19.0322L63.6618 19.1829L63.5369 19.3268L63.4053 19.4646L63.2675 19.5962L63.1236 19.721L62.9729 19.8398L62.8171 19.9503L62.6566 20.0537L62.4896 20.1503L62.3171 20.2384L62.1416 20.318L61.9613 20.3898L61.7762 20.4527L61.5875 20.5065L61.3949 20.5514L61.1987 20.5867L61 20.6119L60.7983 20.6276L60.5949 20.6327ZM41.0146 18.9843H60.5949V20.6327H41.0146V18.9843ZM37.0361 16.6542H38.6845L38.6876 16.7739L38.6964 16.8919L38.7114 17.0076L38.7318 17.1215L38.7577 17.2331L38.7897 17.3437L38.8261 17.4512L38.8679 17.5566L38.9148 17.6607L38.9662 17.7604L39.022 17.8573L39.0832 17.9525L39.1489 18.0444L39.2179 18.1325L39.2917 18.2172L39.3696 18.2992L39.4516 18.3771L39.5363 18.4509L39.6244 18.5199L39.7162 18.5856L39.8115 18.6468L39.9084 18.7026L40.0081 18.754L40.1122 18.8009L40.2176 18.8427L40.3251 18.8791L40.4357 18.9111L40.5473 18.937L40.6612 18.9574L40.7769 18.9723L40.8949 18.9812L41.0146 18.9843V20.6327L40.8112 20.6276L40.6095 20.6119L40.4109 20.5867L40.2146 20.5514L40.022 20.5065L39.8333 20.4527L39.6482 20.3898L39.4679 20.318L39.2924 20.2384L39.1199 20.1503L38.9529 20.0537L38.7924 19.9503L38.6366 19.8398L38.4859 19.721L38.342 19.5962L38.2042 19.4646L38.0726 19.3268L37.9478 19.1829L37.829 19.0322L37.7185 18.8764L37.6151 18.7159L37.5185 18.5488L37.4304 18.3764L37.3508 18.2009L37.279 18.0206L37.2161 17.8355L37.1623 17.6467L37.1174 17.4542L37.0821 17.2579L37.0569 17.0593L37.0412 16.8576L37.0361 16.6542ZM37.8603 16.6542H37.0361H37.8603ZM41.0146 12.6757V14.3241L40.8949 14.3271L40.7769 14.336L40.6612 14.3509L40.5473 14.3714L40.4357 14.3972L40.3251 14.4292L40.2176 14.4656L40.1122 14.5074L40.0081 14.5544L39.9084 14.6057L39.8115 14.6615L39.7162 14.7227L39.6244 14.7884L39.5363 14.8574L39.4516 14.9313L39.3696 15.0092L39.2917 15.0911L39.2179 15.1758L39.1489 15.2639L39.0832 15.3558L39.022 15.451L38.9662 15.548L38.9148 15.6476L38.8679 15.7517L38.8261 15.8572L38.7897 15.9647L38.7577 16.0752L38.7318 16.1868L38.7114 16.3007L38.6964 16.4164L38.6876 16.5344L38.6845 16.6542H37.0361L37.0412 16.4507L37.0569 16.249L37.0821 16.0504L37.1174 15.8541L37.1623 15.6616L37.2161 15.4728L37.279 15.2877L37.3508 15.1075L37.4304 14.9319L37.5185 14.7595L37.6151 14.5925L37.7185 14.4319L37.829 14.2761L37.9478 14.1254L38.0726 13.9815L38.2042 13.8438L38.342 13.7121L38.4859 13.5873L38.6366 13.4686L38.7924 13.358L38.9529 13.2546L39.1199 13.158L39.2924 13.0699L39.4679 12.9903L39.6482 12.9185L39.8333 12.8556L40.022 12.8019L40.2146 12.757L40.4109 12.7216L40.6095 12.6964L40.8112 12.6808L41.0146 12.6757Z" fill="#FFCE1A"/>
<path d="M32.8848 54.0346H31.5276L31.5211 53.788L31.5027 53.5444L31.4725 53.305L31.4303 53.0696L31.3769 52.8383L31.3123 52.6111L31.2374 52.3896L31.152 52.1726L31.0558 51.9607L30.9503 51.7542L30.8353 51.5545L30.7105 51.3599L30.5775 51.1725L30.4353 50.9916L30.2846 50.8177L30.1261 50.6511L29.9601 50.4929L29.7866 50.3429L29.6053 50.2003L29.4176 50.0667L29.2237 49.9422L29.0233 49.8275L28.8168 49.7214L28.6053 49.6258L28.3882 49.5404L28.1661 49.4649L27.9396 49.4006L27.7083 49.3472L27.4729 49.305L27.2334 49.2748L26.9898 49.2564L26.7432 49.2499V47.8927L27.0586 47.9005L27.3701 47.9243L27.6776 47.9635L27.9804 48.0172L28.2777 48.0863L28.5695 48.1689L28.8549 48.2655L29.1339 48.3754L29.4067 48.4989L29.671 48.6342L29.9285 48.7822L30.1775 48.9421L30.4183 49.1132L30.65 49.2952L30.8731 49.488L31.086 49.6918L31.2895 49.9047L31.4823 50.1275L31.6647 50.3595L31.8358 50.6L31.9953 50.849L32.1436 51.1065L32.279 51.3715L32.4018 51.6433L32.5123 51.9229L32.6089 52.209L32.6913 52.5002L32.7603 52.7975L32.8141 53.1002L32.8532 53.4077L32.877 53.7193L32.8848 54.0346ZM26.7432 60.1762V58.819L26.9898 58.8125L27.2334 58.7941L27.4729 58.7639L27.7083 58.7217L27.9396 58.6683L28.1668 58.6036L28.3882 58.5288L28.6049 58.4434L28.8172 58.3472L29.0233 58.2417L29.2233 58.1267L29.4176 58.0019L29.6057 57.8685L29.7863 57.7267L29.9598 57.5764L30.1261 57.4175L30.285 57.2512L30.4353 57.0777L30.5772 56.8971L30.7105 56.7089L30.8353 56.5147L30.9503 56.3147L31.0558 56.1086L31.152 55.8963L31.2374 55.6796L31.3123 55.4582L31.3769 55.231L31.4303 54.9996L31.4725 54.7643L31.5027 54.5248L31.5211 54.2812L31.5276 54.0346H32.8848L32.877 54.3499L32.8532 54.6615L32.8141 54.969L32.7603 55.2718L32.6913 55.5691L32.6089 55.8603L32.5123 56.1463L32.4018 56.4256L32.279 56.6977L32.1436 56.9624L31.9953 57.2202L31.8358 57.4689L31.665 57.7094L31.4823 57.9417L31.2891 58.1648L31.086 58.3774L30.8734 58.5805L30.6503 58.7737L30.418 58.9564L30.1775 59.1271L29.9288 59.2867L29.671 59.435L29.4063 59.5704L29.1342 59.6932L28.8549 59.8037L28.5689 59.9003L28.2777 59.9826L27.9804 60.0517L27.6776 60.1054L27.3701 60.1446L27.0586 60.1684L26.7432 60.1762ZM20.6013 54.0346H21.9586L21.965 54.2812L21.9834 54.5248L22.0137 54.7643L22.0558 54.9996L22.1092 55.231L22.1735 55.4575L22.249 55.6796L22.3344 55.8966L22.43 56.1082L22.5361 56.3147L22.6508 56.5151L22.7753 56.7089L22.909 56.8967L23.0515 57.078L23.2015 57.2515L23.3597 57.4175L23.5263 57.576L23.7002 57.7267L23.8811 57.8689L24.0686 58.0019L24.2631 58.1267L24.4628 58.2417L24.6693 58.3472L24.8812 58.4434L25.0982 58.5288L25.3197 58.6036L25.5469 58.6683L25.7782 58.7217L26.0136 58.7639L26.2531 58.7941L26.4966 58.8125L26.7432 58.819V60.1762L26.4279 60.1684L26.1163 60.1446L25.8088 60.1054L25.5061 60.0517L25.2088 59.9826L24.9176 59.9003L24.6315 59.8037L24.3519 59.6932L24.0801 59.5704L23.8151 59.435L23.5576 59.2867L23.3086 59.1271L23.0682 58.956L22.8362 58.7737L22.6134 58.5808L22.4004 58.3774L22.1967 58.1645L22.0038 57.9413L21.8218 57.7097L21.6507 57.4689L21.4908 57.2199L21.3429 56.9624L21.2075 56.6981L21.084 56.4253L20.9741 56.1463L20.8775 55.8609L20.7949 55.5691L20.7258 55.2718L20.6721 54.969L20.633 54.6615L20.6091 54.3499L20.6013 54.0346ZM26.7432 47.8927V49.2499L26.4966 49.2564L26.2531 49.2748L26.0136 49.305L25.7782 49.3472L25.5469 49.4006L25.3203 49.4649L25.0982 49.5404L24.8809 49.6258L24.6696 49.7214L24.4628 49.8275L24.2628 49.9422L24.0686 50.0667L23.8811 50.2L23.6998 50.3429L23.526 50.4929L23.36 50.6514L23.2015 50.8174L23.0515 50.9912L22.9086 51.1725L22.7753 51.3599L22.6508 51.5542L22.5361 51.7542L22.43 51.961L22.3344 52.1722L22.249 52.3896L22.1735 52.6117L22.1092 52.8383L22.0558 53.0696L22.0137 53.305L21.9834 53.5444L21.965 53.788L21.9586 54.0346H20.6013L20.6091 53.7193L20.633 53.4077L20.6721 53.1002L20.7258 52.7975L20.7949 52.5002L20.8775 52.2083L20.9741 51.9229L21.084 51.6436L21.2075 51.3712L21.3429 51.1065L21.4908 50.8494L21.6507 50.6L21.8222 50.3595L22.0038 50.1279L22.1967 49.9051L22.4001 49.6915L22.6137 49.488L22.8365 49.2952L23.0682 49.1135L23.3086 48.9421L23.558 48.7822L23.8151 48.6342L24.0798 48.4989L24.3523 48.3754L24.6315 48.2655L24.9169 48.1689L25.2088 48.0863L25.5061 48.0172L25.8088 47.9635L26.1163 47.9243L26.4279 47.9005L26.7432 47.8927Z" fill="#1DACA5"/>
<path d="M29.3679 63.7496H24.1186V62.1012H29.3679V63.7496ZM38.6845 71.4178H37.0361L37.0259 71.0246L36.9963 70.6365L36.9474 70.2541L36.8797 69.8783L36.7936 69.5082L36.6902 69.1456L36.5694 68.7904L36.4317 68.4431L36.2776 68.1036L36.1075 67.773L35.9225 67.4516L35.7224 67.1403L35.5078 66.8396L35.2792 66.5491L35.0374 66.2698L34.7826 66.0028L34.5159 65.748L34.237 65.5065L33.9465 65.2779L33.6458 65.0633L33.3342 64.8633L33.0131 64.6779L32.6824 64.5082L32.3433 64.3541L31.9953 64.2163L31.6405 64.0955L31.2776 63.9921L30.9075 63.9061L30.5316 63.8384L30.1493 63.7894L29.7612 63.7598L29.3679 63.7496V62.1012L29.8455 62.1134L30.3166 62.1498L30.782 62.209L31.2402 62.2917L31.6899 62.3961L32.1317 62.522L32.5647 62.6693L32.9876 62.837L33.4002 63.0244L33.8016 63.2309L34.1914 63.4557L34.5696 63.6986L34.935 63.9588L35.2867 64.2357L35.6248 64.5289L35.9486 64.8374L36.2572 65.1616L36.5501 65.4994L36.8269 65.8511L37.0872 66.2164L37.33 66.5944L37.5552 66.9845L37.7614 67.3859L37.9488 67.7982L38.1165 68.221L38.2638 68.6544L38.3896 69.0959L38.4941 69.5456L38.5767 70.0038L38.6359 70.4691L38.6723 70.9402L38.6845 71.4178ZM37.0361 73.103V71.4178H38.6845V73.103H37.0361ZM34.4635 77.3243V75.6759L34.5955 75.6725L34.7254 75.6627L34.8537 75.646L34.9799 75.6235L35.1034 75.5946L35.2245 75.5603L35.3435 75.5195L35.4602 75.4735L35.5741 75.4218L35.6847 75.365L35.7922 75.3028L35.8976 75.2351L35.998 75.1636L36.0956 75.0864L36.1902 75.0048L36.2796 74.9194L36.3653 74.8296L36.4466 74.7354L36.5235 74.6381L36.5956 74.5364L36.663 74.4323L36.7249 74.3245L36.782 74.2132L36.8337 74.0996L36.8797 73.983L36.9205 73.8639L36.9548 73.7428L36.9838 73.6193L37.0062 73.4931L37.0229 73.3649L37.0327 73.2349L37.0361 73.103H38.6845L38.6791 73.3193L38.6624 73.5329L38.6356 73.7435L38.5981 73.9513L38.5509 74.1558L38.4934 74.3564L38.4267 74.5524L38.3509 74.7439L38.2658 74.931L38.1726 75.1123L38.0706 75.2895L37.9604 75.4609L37.8427 75.6259L37.7175 75.7851L37.5852 75.9378L37.445 76.0848L37.2984 76.2246L37.146 76.3566L36.9872 76.4821L36.8208 76.6005L36.6507 76.7097L36.4739 76.8121L36.2912 76.9056L36.1044 76.9906L35.9129 77.0665L35.717 77.1332L35.5163 77.1907L35.3119 77.2379L35.104 77.2754L34.8935 77.3022L34.6799 77.3189L34.4635 77.3243ZM19.023 75.6759H34.4635V77.3243H19.023V75.6759ZM14.8016 73.103H16.45L16.4534 73.2349L16.4633 73.3649L16.48 73.4935L16.5024 73.6193L16.5313 73.7428L16.5657 73.8642L16.6065 73.9836L16.6524 74.1L16.7041 74.2136L16.7613 74.3248L16.8232 74.4326L16.8906 74.5367L16.9627 74.6384L17.0392 74.7354L17.1208 74.8296L17.2069 74.9198L17.2964 75.0055L17.3896 75.0861L17.4875 75.163L17.5896 75.2354L17.6943 75.3031L17.8012 75.3647L17.9124 75.4218L18.0263 75.4735L18.143 75.5195L18.2621 75.5603L18.3832 75.5946L18.5066 75.6235L18.6328 75.646L18.7611 75.6627L18.891 75.6725L19.023 75.6759V77.3243L18.8067 77.3189L18.593 77.3022L18.3825 77.2754L18.1747 77.2379L17.9702 77.1907L17.7695 77.1332L17.5736 77.0665L17.3821 76.9906L17.1953 76.9056L17.0134 76.8124L16.8358 76.71L16.665 76.6001L16.5004 76.4828L16.3412 76.3576L16.1874 76.2246L16.0408 76.0845L15.9017 75.9385L15.769 75.7858L15.6435 75.6263L15.5258 75.4613L15.4156 75.2899L15.3136 75.1126L15.2204 74.9313L15.1353 74.7442L15.0595 74.5524L14.9928 74.3561L14.9353 74.1558L14.888 73.9513L14.8506 73.7438L14.8237 73.5329L14.8071 73.3193L14.8016 73.103ZM16.45 71.4178V73.103H14.8016V71.4178H16.45ZM24.1186 62.1012V63.7496L23.7254 63.7598L23.3372 63.7894L22.9549 63.8384L22.579 63.9061L22.2086 63.9921L21.846 64.0955L21.4909 64.2163L21.1436 64.3541L20.8041 64.5082L20.4731 64.6782L20.1523 64.8633L19.8408 65.0633L19.5394 65.2779L19.2492 65.5065L18.9703 65.748L18.7033 66.0028L18.4485 66.2698L18.207 66.5488L17.9784 66.8393L17.7637 67.14L17.5637 67.4516L17.3783 67.7727L17.2086 68.1033L17.0545 68.4424L16.9167 68.7904L16.796 69.1452L16.6926 69.5082L16.6065 69.8783L16.5388 70.2541L16.4898 70.6365L16.4603 71.0246L16.45 71.4178H14.8016L14.8139 70.9402L14.8503 70.4691L14.9095 70.0038L14.9921 69.5456L15.0966 69.0959L15.2224 68.654L15.3697 68.221L15.5374 67.7982L15.7248 67.3856L15.9313 66.9842L16.1561 66.5944L16.399 66.2161L16.6592 65.8508L16.9361 65.499L17.2294 65.1609L17.5379 64.8374L17.8614 64.5289L18.1995 64.2357L18.5515 63.9588L18.9169 63.6986L19.2945 63.4557L19.6846 63.2305L20.0863 63.0244L20.4986 62.837L20.9214 62.6693L21.3548 62.522L21.7963 62.3961L22.2464 62.2917L22.7046 62.209L23.1699 62.1498L23.641 62.1134L24.1186 62.1012Z" fill="#1DACA5"/>
<path d="M52.2882 26.9576H47.3903V25.8473H52.2882V26.9576ZM55.2684 28.8274H54.1581L54.1557 28.7312L54.1486 28.6376L54.1363 28.5441L54.1197 28.4515L54.0993 28.3617L54.0741 28.274L54.0445 28.1876L54.0108 28.1029L53.9734 28.0202L53.9319 27.9393L53.8867 27.861L53.8377 27.7852L53.7856 27.7114L53.7302 27.641L53.6707 27.5726L53.6081 27.5069L53.5431 27.4447L53.4754 27.3862L53.404 27.33L53.3305 27.278L53.2543 27.229L53.1761 27.1838L53.0951 27.1419L53.0124 27.1045L52.9288 27.0712L52.8417 27.0419L52.7529 27.0164L52.6641 26.9957L52.5723 26.9793L52.4781 26.9671L52.3842 26.96L52.2882 26.9576V25.8473L52.4406 25.851L52.5923 25.8629L52.7403 25.882L52.8866 25.9078L53.0318 25.9415L53.173 25.982L53.3111 26.0289L53.4472 26.0827L53.5795 26.1432L53.7074 26.2089L53.8319 26.2807L53.953 26.3582L54.0693 26.4415L54.1816 26.5296L54.2901 26.6235L54.3938 26.7225L54.4918 26.8256L54.5853 26.9334L54.6741 27.046L54.7575 27.1627L54.835 27.2834L54.9068 27.4086L54.9728 27.5365L55.0326 27.6682L55.0867 27.8039L55.1333 27.9427L55.1742 28.0842L55.2075 28.2291L55.2337 28.3747L55.2527 28.5233L55.2646 28.6747L55.2684 28.8274ZM54.1581 33.7254V28.8274H55.2684V33.7254H54.1581ZM52.2882 36.7055V35.5952L52.3842 35.5929L52.4781 35.5857L52.5716 35.5735L52.6641 35.5568L52.7536 35.5364L52.8417 35.5109L52.9281 35.482L53.0124 35.4479L53.0958 35.4105L53.1761 35.369L53.2543 35.3238L53.3305 35.2748L53.404 35.2228L53.4751 35.167L53.5431 35.1078L53.6084 35.0455L53.6707 34.9802L53.7298 34.9122L53.7856 34.8411L53.8377 34.7676L53.8867 34.6914L53.9319 34.6132L53.9734 34.5329L54.0108 34.4496L54.0448 34.3652L54.0737 34.2788L54.0993 34.1907L54.1197 34.1013L54.1363 34.0087L54.1486 33.9152L54.1557 33.8213L54.1581 33.7254H55.2684L55.2646 33.8778L55.2527 34.0295L55.2337 34.1781L55.2075 34.3237L55.1742 34.4683L55.1337 34.6101L55.0864 34.7489L55.0326 34.8843L54.9728 35.0159L54.9068 35.1445L54.835 35.269L54.7575 35.3901L54.6741 35.5064L54.5857 35.619L54.4918 35.7272L54.3935 35.8306L54.2901 35.9289L54.1819 36.0228L54.0693 36.1113L53.953 36.1946L53.8319 36.2721L53.7074 36.3439L53.5788 36.4099L53.4472 36.4698L53.3118 36.5235L53.173 36.5708L53.0312 36.6113L52.8866 36.6446L52.741 36.6708L52.5923 36.6899L52.4406 36.7018L52.2882 36.7055ZM47.3903 35.5952H52.2882V36.7055H47.3903V35.5952ZM44.4102 33.7254H45.5204L45.5228 33.8213L45.53 33.9152L45.5422 34.0094L45.5585 34.1013L45.5793 34.19L45.6048 34.2788L45.6341 34.3659L45.6674 34.4496L45.7048 34.5322L45.7466 34.6132L45.7919 34.6914L45.8409 34.7676L45.8929 34.8411L45.949 34.9125L46.0075 34.9802L46.0698 35.0452L46.1354 35.1078L46.2038 35.1673L46.2742 35.2228L46.348 35.2748L46.4239 35.3238L46.5021 35.369L46.5828 35.4105L46.6661 35.4479L46.7505 35.482L46.8369 35.5112L46.9246 35.5364L47.0144 35.5568L47.1069 35.5735L47.2005 35.5857L47.294 35.5929L47.3903 35.5952V36.7055L47.2376 36.7018L47.0862 36.6899L46.9375 36.6708L46.792 36.6446L46.647 36.6113L46.5055 36.5705L46.3668 36.5235L46.2314 36.4698L46.0997 36.4099L45.9715 36.3439L45.8463 36.2721L45.7256 36.1946L45.6089 36.1113L45.4963 36.0225L45.3885 35.9289L45.2854 35.831L45.1864 35.7272L45.0925 35.6187L45.0044 35.5064L44.9211 35.3901L44.8435 35.269L44.7717 35.1445L44.7061 35.0166L44.6455 34.8843L44.5918 34.7482L44.5449 34.6101L44.5044 34.469L44.4707 34.3237L44.4449 34.1774L44.4258 34.0295L44.4139 33.8778L44.4102 33.7254ZM45.5204 28.8274V33.7254H44.4102V28.8274H45.5204ZM47.3903 25.8473V26.9576L47.294 26.96L47.2005 26.9671L47.1063 26.9793L47.0144 26.9957L46.9253 27.0164L46.8369 27.0416L46.7498 27.0712L46.6661 27.1045L46.5834 27.1419L46.5021 27.1838L46.4239 27.229L46.348 27.278L46.2742 27.33L46.2035 27.3858L46.1354 27.4447L46.0701 27.5073L46.0075 27.5726L45.9487 27.6406L45.8929 27.7114L45.8409 27.7852L45.7919 27.861L45.7466 27.9393L45.7048 28.0209L45.6674 28.1029L45.6341 28.1866L45.6045 28.274L45.5793 28.3624L45.5585 28.4515L45.5422 28.5434L45.53 28.6376L45.5228 28.7312L45.5204 28.8274H44.4102L44.4139 28.6747L44.4258 28.5233L44.4449 28.3754L44.4707 28.2291L44.5044 28.0835L44.5452 27.9427L44.5918 27.8049L44.6455 27.6682L44.7061 27.5358L44.7717 27.4086L44.8435 27.2834L44.9211 27.1627L45.0044 27.046L45.0929 26.9338L45.1864 26.8256L45.285 26.7222L45.3885 26.6235L45.4966 26.53L45.6089 26.4415L45.7256 26.3582L45.8463 26.2807L45.9715 26.2089L46.099 26.1432L46.2314 26.0827L46.3674 26.0289L46.5055 25.9823L46.6464 25.9415L46.792 25.9078L46.9382 25.882L47.0862 25.8629L47.2376 25.851L47.3903 25.8473Z" fill="#FFCE1A"/>
<path d="M49.6336 33.3563C49.3825 33.6074 48.973 33.606 48.7202 33.3533C48.4675 33.1005 48.4661 32.691 48.7172 32.4399L49.6336 33.3563ZM52.8695 30.1204L49.6336 33.3563L48.7172 32.4399L51.9531 29.204L52.8695 30.1204ZM51.9531 29.204C52.2041 28.953 52.6137 28.9543 52.8664 29.2071C53.1192 29.4598 53.1205 29.8693 52.8695 30.1204L51.9531 29.204Z" fill="#FFCE1A"/>
<path d="M48.7172 33.3563L49.6336 32.44C49.8846 32.691 49.8832 33.1005 49.6305 33.3533C49.3778 33.606 48.9682 33.6074 48.7172 33.3563ZM47.0994 31.7385L48.0158 30.8222L49.6336 32.44L48.7172 33.3563L47.0994 31.7385ZM48.0158 30.8222L47.0994 31.7385C46.8483 31.4875 46.8497 31.078 47.1024 30.8252C47.3552 30.5725 47.7647 30.5711 48.0158 30.8222Z" fill="#FFCE1A"/>
<path d="M52.2879 57.559H47.3899V56.4487H52.2879V57.559ZM55.268 59.4289H54.1577L54.1554 59.3329L54.1482 59.2391L54.136 59.1455L54.1193 59.053L54.0989 58.9635L54.0734 58.8754L54.0445 58.789L54.0104 58.7047L53.973 58.6213L53.9315 58.541L53.8863 58.4628L53.8373 58.3866L53.7853 58.3131L53.7295 58.242L53.6703 58.174L53.608 58.1087L53.5427 58.0465L53.4747 57.9873L53.4036 57.9315L53.3301 57.8794L53.2539 57.8305L53.1757 57.7852L53.0954 57.7437L53.0121 57.7063L52.9277 57.6723L52.8413 57.6434L52.7532 57.6179L52.6637 57.5974L52.5712 57.5808L52.4777 57.5685L52.3838 57.5614L52.2879 57.559V56.4487L52.4403 56.4525L52.592 56.4644L52.7406 56.4834L52.8862 56.5096L53.0308 56.543L53.1726 56.5834L53.3114 56.6307L53.4468 56.6845L53.5784 56.7443L53.707 56.8103L53.8315 56.8821L53.9526 56.9597L54.0689 57.043L54.1815 57.1314L54.2897 57.2253L54.3931 57.3236L54.4914 57.427L54.5853 57.5352L54.6738 57.6478L54.7571 57.7641L54.8346 57.8852L54.9064 58.0097L54.9724 58.1383L55.0323 58.2699L55.086 58.4053L55.1333 58.5441L55.1738 58.686L55.2071 58.8305L55.2333 58.9761L55.2524 59.1248L55.2643 59.2765L55.268 59.4289ZM54.1577 64.3268V59.4289H55.268V64.3268H54.1577ZM52.2879 67.307V66.1967L52.3838 66.1943L52.4777 66.1872L52.5719 66.1749L52.6637 66.1586L52.7525 66.1378L52.8413 66.1123L52.9284 66.0831L53.0121 66.0497L53.0947 66.0123L53.1757 65.9705L53.2539 65.9252L53.3301 65.8762L53.4036 65.8242L53.475 65.7681L53.5427 65.7096L53.6077 65.6473L53.6703 65.5817L53.7298 65.5133L53.7853 65.4429L53.8373 65.3691L53.8863 65.2932L53.9315 65.215L53.973 65.134L54.0104 65.0514L54.0441 64.9667L54.0737 64.8803L54.0989 64.7925L54.1193 64.7027L54.136 64.6102L54.1482 64.5166L54.1554 64.4231L54.1577 64.3268H55.268L55.2643 64.4795L55.2524 64.6309L55.2333 64.7796L55.2071 64.9252L55.1738 65.0701L55.133 65.2116L55.0864 65.3504L55.0323 65.4861L54.9724 65.6177L54.9064 65.7456L54.8346 65.8708L54.7571 65.9916L54.6738 66.1082L54.585 66.2208L54.4914 66.3287L54.3935 66.4317L54.2897 66.5307L54.1812 66.6246L54.0689 66.7127L53.9526 66.796L53.8315 66.8736L53.707 66.9454L53.5791 67.011L53.4468 67.0716L53.3107 67.1253L53.1726 67.1722L53.0315 67.2127L52.8862 67.2464L52.7399 67.2723L52.592 67.2913L52.4403 67.3032L52.2879 67.307ZM47.3899 66.1967H52.2879V67.307H47.3899V66.1967ZM44.4098 64.3268H45.5201L45.5224 64.4231L45.5296 64.5166L45.5418 64.6109L45.5582 64.7027L45.5789 64.7918L45.6041 64.8803L45.6337 64.9677L45.667 65.0514L45.7044 65.1333L45.7463 65.215L45.7915 65.2932L45.8405 65.3691L45.8925 65.4429L45.9483 65.5136L46.0072 65.5817L46.0698 65.647L46.1351 65.7096L46.2031 65.7684L46.2739 65.8242L46.3477 65.8762L46.4235 65.9252L46.5018 65.9705L46.5831 66.0123L46.6657 66.0497L46.7494 66.0831L46.8365 66.1127L46.9249 66.1378L47.014 66.1586L47.1059 66.1749L47.2001 66.1872L47.2937 66.1943L47.3899 66.1967V67.307L47.2372 67.3032L47.0858 67.2913L46.9379 67.2723L46.7916 67.2464L46.646 67.2127L46.5052 67.1719L46.3671 67.1253L46.231 67.0716L46.0987 67.011L45.9711 66.9454L45.8459 66.8736L45.7252 66.796L45.6085 66.7127L45.4963 66.6243L45.3881 66.5307L45.2847 66.4321L45.186 66.3287L45.0925 66.2205L45.004 66.1082L44.9207 65.9916L44.8432 65.8708L44.7714 65.7456L44.7057 65.6184L44.6452 65.4861L44.5914 65.3493L44.5448 65.2116L44.504 65.0707L44.4703 64.9252L44.4445 64.7789L44.4254 64.6309L44.4135 64.4795L44.4098 64.3268ZM45.5201 59.4289V64.3268H44.4098V59.4289H45.5201ZM47.3899 56.4487V57.559L47.2937 57.5614L47.2001 57.5685L47.1066 57.5808L47.014 57.5974L46.9242 57.6179L46.8365 57.643L46.7501 57.6723L46.6657 57.7063L46.5824 57.7437L46.5018 57.7852L46.4235 57.8305L46.3477 57.8794L46.2739 57.9315L46.2034 57.9869L46.1351 58.0465L46.0694 58.109L46.0072 58.174L45.9487 58.2417L45.8925 58.3131L45.8405 58.3866L45.7915 58.4628L45.7463 58.541L45.7044 58.622L45.667 58.7047L45.6337 58.7883L45.6044 58.8754L45.5789 58.9642L45.5582 59.053L45.5418 59.1448L45.5296 59.2391L45.5224 59.3329L45.5201 59.4289H44.4098L44.4135 59.2765L44.4254 59.1248L44.4445 58.9768L44.4703 58.8305L44.504 58.6853L44.5445 58.5441L44.5914 58.406L44.6452 58.2699L44.7057 58.1376L44.7714 58.0097L44.8432 57.8852L44.9207 57.7641L45.004 57.6478L45.0921 57.5355L45.186 57.427L45.285 57.3233L45.3881 57.2253L45.4959 57.1318L45.6085 57.043L45.7252 56.9597L45.8459 56.8821L45.9711 56.8103L46.0994 56.7443L46.231 56.6845L46.3664 56.6307L46.5052 56.5838L46.6467 56.543L46.7916 56.5096L46.9372 56.4834L47.0858 56.4644L47.2372 56.4525L47.3899 56.4487Z" fill="#FFCE1A"/>
<path d="M48.1951 64.3037C47.9808 64.518 47.6314 64.517 47.4154 64.301C47.1994 64.085 47.1984 63.7356 47.4127 63.5213L48.1951 64.3037ZM52.2644 60.2344L48.1951 64.3037L47.4127 63.5213L51.482 59.452L52.2644 60.2344ZM51.482 59.452C51.6963 59.2377 52.0457 59.2387 52.2617 59.4547C52.4777 59.6707 52.4787 60.0201 52.2644 60.2344L51.482 59.452Z" fill="#FFCE1A"/>
<path d="M51.4824 64.3037L52.2647 63.5213C52.479 63.7356 52.478 64.085 52.262 64.301C52.046 64.517 51.6967 64.518 51.4824 64.3037ZM47.4131 60.2344L48.1954 59.452L52.2647 63.5213L51.4824 64.3037L47.4131 60.2344ZM48.1954 59.452L47.4131 60.2344C47.1988 60.0201 47.1998 59.6707 47.4158 59.4547C47.6318 59.2387 47.9811 59.2377 48.1954 59.452Z" fill="#FFCE1A"/>
<path d="M52.2886 42.2582H47.3907V41.1479H52.2886V42.2582ZM55.2687 44.1277H54.1585L54.1561 44.0318L54.1489 43.9379L54.1367 43.8444L54.12 43.7519L54.0996 43.6624L54.0741 43.5743L54.0452 43.4879L54.0115 43.4039L53.9738 43.3205L53.9323 43.2396L53.8874 43.162L53.838 43.0858L53.7856 43.0117L53.7305 42.9413L53.6714 42.8736L53.6084 42.8076L53.5435 42.7453L53.4758 42.6868L53.4037 42.6304L53.3309 42.5783L53.2547 42.5297L53.1764 42.4841L53.0962 42.4429L53.0128 42.4052L52.9291 42.3718L52.842 42.3426L52.7533 42.3171L52.6645 42.2963L52.5726 42.28L52.4784 42.2678L52.3845 42.2606L52.2886 42.2582V41.1479L52.441 41.1517L52.5927 41.1636L52.7407 41.1826L52.887 41.2085L53.0322 41.2422L53.1734 41.2827L53.3115 41.3296L53.4475 41.3833L53.5792 41.4435L53.7078 41.5092L53.8323 41.5813L53.9534 41.6585L54.0704 41.7425L54.1819 41.8303L54.2904 41.9242L54.3942 42.0232L54.4918 42.1259L54.5857 42.2337L54.6748 42.347L54.7578 42.4633L54.835 42.5838L54.9072 42.7089L54.9731 42.8375L55.0327 42.9685L55.0868 43.1042L55.134 43.243L55.1745 43.3848L55.2079 43.5294L55.234 43.675L55.2531 43.8236L55.265 43.9754L55.2687 44.1277ZM54.1585 49.0257V44.1277H55.2687V49.0257H54.1585ZM52.2886 52.0058V50.8955L52.3845 50.8932L52.4784 50.886L52.5726 50.8738L52.6645 50.8575L52.7533 50.8367L52.842 50.8112L52.9291 50.7819L53.0128 50.7486L53.0955 50.7112L53.1764 50.6693L53.2547 50.6241L53.3309 50.5751L53.4043 50.5231L53.4758 50.4669L53.5435 50.4084L53.6084 50.3462L53.671 50.2805L53.7305 50.2122L53.786 50.1418L53.838 50.0679L53.887 49.9921L53.9323 49.9138L53.9738 49.8329L54.0112 49.7502L54.0449 49.6655L54.0744 49.5791L54.0996 49.4914L54.12 49.4016L54.1367 49.309L54.1489 49.2155L54.1561 49.122L54.1585 49.0257H55.2687L55.265 49.1784L55.2531 49.3298L55.234 49.4784L55.2079 49.624L55.1745 49.7689L55.1337 49.9104L55.0871 50.0492L55.033 50.185L54.9731 50.3166L54.9072 50.4445L54.8354 50.5697L54.7578 50.6904L54.6745 50.8071L54.5857 50.9197L54.4922 51.0275L54.3942 51.1306L54.2904 51.2296L54.1819 51.3235L54.0697 51.4116L53.9534 51.4949L53.8323 51.5725L53.7078 51.6442L53.5799 51.7099L53.4475 51.7704L53.3115 51.8242L53.1734 51.8711L53.0322 51.9116L52.887 51.9453L52.7407 51.9711L52.5927 51.9902L52.441 52.0021L52.2886 52.0058ZM47.3907 50.8955H52.2886V52.0058H47.3907V50.8955ZM44.4105 49.0257H45.5208L45.5232 49.122L45.5303 49.2155L45.5426 49.309L45.5592 49.4016L45.5796 49.4914L45.6048 49.5791L45.6344 49.6655L45.6681 49.7502L45.7055 49.8329L45.747 49.9138L45.7922 49.9921L45.8412 50.0679L45.8933 50.1418L45.9487 50.2122L46.0083 50.2805L46.0708 50.3462L46.1358 50.4084L46.2035 50.4669L46.2749 50.5231L46.3484 50.5751L46.4246 50.6241L46.5028 50.6693L46.5838 50.7112L46.6665 50.7486L46.7501 50.7819L46.8372 50.8112L46.926 50.8367L47.0148 50.8575L47.1066 50.8738L47.2008 50.886L47.2947 50.8932L47.3907 50.8955V52.0058L47.2383 52.0021L47.0866 51.9902L46.9386 51.9711L46.7923 51.9453L46.6471 51.9116L46.5059 51.8711L46.3678 51.8242L46.2317 51.7704L46.0994 51.7099L45.9715 51.6442L45.847 51.5725L45.7259 51.4949L45.6096 51.4116L45.4973 51.3235L45.3888 51.2296L45.2851 51.1306L45.1871 51.0275L45.0936 50.9197L45.0048 50.8071L44.9214 50.6904L44.8439 50.5697L44.7721 50.4445L44.7061 50.3166L44.6463 50.185L44.5922 50.0492L44.5456 49.9104L44.5047 49.7689L44.4714 49.624L44.4452 49.4784L44.4262 49.3298L44.4143 49.1784L44.4105 49.0257ZM45.5208 44.1277V49.0257H44.4105V44.1277H45.5208ZM47.3907 41.1479V42.2582L47.2947 42.2606L47.2008 42.2678L47.1066 42.28L47.0148 42.2963L46.926 42.3171L46.8372 42.3426L46.7501 42.3718L46.6665 42.4052L46.5831 42.4429L46.5028 42.4841L46.4246 42.5297L46.3484 42.5783L46.2756 42.6304L46.2035 42.6868L46.1358 42.7453L46.0708 42.8076L46.0079 42.8736L45.9487 42.9413L45.8936 43.0117L45.8412 43.0858L45.7919 43.162L45.747 43.2396L45.7055 43.3205L45.6678 43.4039L45.6341 43.4879L45.6052 43.5743L45.5796 43.6624L45.5592 43.7519L45.5426 43.8444L45.5303 43.9379L45.5232 44.0318L45.5208 44.1277H44.4105L44.4143 43.9754L44.4262 43.8236L44.4452 43.675L44.4714 43.5294L44.5047 43.3848L44.5452 43.243L44.5925 43.1042L44.6466 42.9685L44.7061 42.8375L44.7721 42.7089L44.8442 42.5838L44.9214 42.4633L45.0044 42.347L45.0936 42.2337L45.1874 42.1259L45.2851 42.0232L45.3888 41.9242L45.4973 41.8303L45.6089 41.7425L45.7259 41.6585L45.847 41.5813L45.9715 41.5092L46.1001 41.4435L46.2317 41.3833L46.3678 41.3296L46.5059 41.2827L46.6471 41.2422L46.7923 41.2085L46.9386 41.1826L47.0866 41.1636L47.2383 41.1517L47.3907 41.1479Z" fill="#FFCE1A"/>
<path d="M48.1962 49.0025C47.9819 49.2168 47.6325 49.2158 47.4165 48.9998C47.2005 48.7838 47.1995 48.4345 47.4138 48.2202L48.1962 49.0025ZM52.2655 44.9332L48.1962 49.0025L47.4138 48.2202L51.4831 44.1508L52.2655 44.9332ZM51.4831 44.1508C51.6974 43.9365 52.0468 43.9376 52.2628 44.1536C52.4788 44.3696 52.4798 44.7189 52.2655 44.9332L51.4831 44.1508Z" fill="#FFCE1A"/>
<path d="M51.4831 49.0025L52.2655 48.2202C52.4798 48.4345 52.4788 48.7838 52.2628 48.9998C52.0468 49.2158 51.6974 49.2168 51.4831 49.0025ZM47.4138 44.9332L48.1962 44.1508L52.2655 48.2202L51.4831 49.0025L47.4138 44.9332ZM48.1962 44.1508L47.4138 44.9332C47.1995 44.7189 47.2005 44.3696 47.4165 44.1536C47.6325 43.9376 47.9819 43.9365 48.1962 44.1508Z" fill="#FFCE1A"/>
<path d="M37.3042 26.9576H32.4063V25.8473H37.3042V26.9576ZM40.2844 28.8274H39.1741L39.1717 28.7312L39.1646 28.6376L39.1523 28.5434L39.136 28.4515L39.1152 28.3624L39.0901 28.274L39.0605 28.1866L39.0271 28.1029L38.9897 28.0209L38.9479 27.9393L38.9026 27.861L38.8537 27.7852L38.8016 27.7114L38.7458 27.6406L38.687 27.5726L38.6244 27.5073L38.5591 27.4447L38.4911 27.3858L38.4203 27.33L38.3465 27.278L38.2706 27.229L38.1924 27.1838L38.1111 27.1419L38.0284 27.1045L37.9448 27.0712L37.8577 27.0416L37.7692 27.0164L37.6801 26.9957L37.5883 26.9793L37.494 26.9671L37.4005 26.96L37.3042 26.9576V25.8473L37.457 25.851L37.6083 25.8629L37.7563 25.882L37.9026 25.9078L38.0482 25.9415L38.189 25.9823L38.3271 26.0289L38.4632 26.0827L38.5955 26.1432L38.723 26.2089L38.8482 26.2807L38.969 26.3582L39.0856 26.4415L39.1979 26.53L39.3061 26.6235L39.4095 26.7222L39.5081 26.8256L39.6017 26.9338L39.6901 27.046L39.7734 27.1627L39.851 27.2834L39.9228 27.4086L39.9884 27.5358L40.049 27.6682L40.1027 27.8049L40.1493 27.9427L40.1901 28.0835L40.2238 28.2291L40.2497 28.3754L40.2687 28.5233L40.2806 28.6747L40.2844 28.8274ZM39.1741 33.7254V28.8274H40.2844V33.7254H39.1741ZM37.3042 36.7055V35.5952L37.4005 35.5929L37.494 35.5857L37.5876 35.5735L37.6801 35.5568L37.7699 35.5364L37.8577 35.5112L37.9441 35.482L38.0284 35.4479L38.1118 35.4105L38.1924 35.369L38.2706 35.3238L38.3465 35.2748L38.4203 35.2228L38.4907 35.1673L38.5591 35.1078L38.6247 35.0452L38.687 34.9802L38.7455 34.9125L38.8016 34.8411L38.8537 34.7676L38.9026 34.6914L38.9479 34.6132L38.9897 34.5322L39.0271 34.4496L39.0605 34.3659L39.0897 34.2788L39.1152 34.19L39.136 34.1013L39.1523 34.0094L39.1646 33.9152L39.1717 33.8213L39.1741 33.7254H40.2844L40.2806 33.8778L40.2687 34.0295L40.2497 34.1774L40.2238 34.3237L40.1901 34.469L40.1497 34.6101L40.1027 34.7482L40.049 34.8843L39.9884 35.0166L39.9228 35.1445L39.851 35.269L39.7734 35.3901L39.6901 35.5064L39.602 35.6187L39.5081 35.7272L39.4091 35.831L39.3061 35.9289L39.1982 36.0225L39.0856 36.1113L38.969 36.1946L38.8482 36.2721L38.723 36.3439L38.5948 36.4099L38.4632 36.4698L38.3278 36.5235L38.189 36.5705L38.0475 36.6113L37.9026 36.6446L37.757 36.6708L37.6083 36.6899L37.457 36.7018L37.3042 36.7055ZM32.4063 35.5952H37.3042V36.7055H32.4063V35.5952ZM29.4261 33.7254H30.5364L30.5388 33.8213L30.546 33.9152L30.5582 34.0087L30.5749 34.1013L30.5953 34.1907L30.6208 34.2788L30.6497 34.3652L30.6837 34.4496L30.7211 34.5329L30.7626 34.6132L30.8079 34.6914L30.8569 34.7676L30.9089 34.8411L30.9647 34.9122L31.0239 34.9802L31.0861 35.0455L31.1514 35.1078L31.2195 35.167L31.2906 35.2228L31.364 35.2748L31.4402 35.3238L31.5185 35.369L31.5987 35.4105L31.6821 35.4479L31.7664 35.482L31.8528 35.5109L31.9409 35.5364L32.0304 35.5568L32.1229 35.5735L32.2165 35.5857L32.3104 35.5929L32.4063 35.5952V36.7055L32.2539 36.7018L32.1022 36.6899L31.9535 36.6708L31.8079 36.6446L31.6634 36.6113L31.5215 36.5708L31.3827 36.5235L31.2474 36.4698L31.1157 36.4099L30.9871 36.3439L30.8626 36.2721L30.7415 36.1946L30.6252 36.1113L30.5126 36.0228L30.4044 35.9289L30.301 35.8306L30.2027 35.7272L30.1088 35.619L30.0204 35.5064L29.9371 35.3901L29.8595 35.269L29.7877 35.1445L29.7217 35.0159L29.6619 34.8843L29.6081 34.7489L29.5609 34.6101L29.5204 34.4683L29.487 34.3237L29.4608 34.1781L29.4418 34.0295L29.4299 33.8778L29.4261 33.7254ZM30.5364 28.8274V33.7254H29.4261V28.8274H30.5364ZM32.4063 25.8473V26.9576L32.3104 26.96L32.2165 26.9671L32.1222 26.9793L32.0304 26.9957L31.9416 27.0164L31.8528 27.0419L31.7658 27.0712L31.6821 27.1045L31.5994 27.1419L31.5185 27.1838L31.4402 27.229L31.364 27.278L31.2906 27.33L31.2191 27.3862L31.1514 27.4447L31.0865 27.5069L31.0239 27.5726L30.9643 27.641L30.9089 27.7114L30.8569 27.7852L30.8079 27.861L30.7626 27.9393L30.7211 28.0202L30.6837 28.1029L30.65 28.1876L30.6204 28.274L30.5953 28.3617L30.5749 28.4515L30.5582 28.5441L30.546 28.6376L30.5388 28.7312L30.5364 28.8274H29.4261L29.4299 28.6747L29.4418 28.5233L29.4608 28.3747L29.487 28.2291L29.5204 28.0842L29.5612 27.9427L29.6078 27.8039L29.6619 27.6682L29.7217 27.5365L29.7877 27.4086L29.8595 27.2834L29.9371 27.1627L30.0204 27.046L30.1092 26.9334L30.2027 26.8256L30.3007 26.7225L30.4044 26.6235L30.513 26.5296L30.6252 26.4415L30.7415 26.3582L30.8626 26.2807L30.9871 26.2089L31.115 26.1432L31.2474 26.0827L31.3834 26.0289L31.5215 25.982L31.6627 25.9415L31.8079 25.9078L31.9542 25.882L32.1022 25.8629L32.2539 25.851L32.4063 25.8473Z" fill="#FFCE1A"/>
<path d="M34.6497 33.3563C34.3986 33.6074 33.9891 33.606 33.7363 33.3533C33.4836 33.1005 33.4822 32.691 33.7333 32.4399L34.6497 33.3563ZM37.8856 30.1204L34.6497 33.3563L33.7333 32.4399L36.9692 29.204L37.8856 30.1204ZM36.9692 29.204C37.2203 28.953 37.6298 28.9543 37.8825 29.2071C38.1353 29.4598 38.1366 29.8693 37.8856 30.1204L36.9692 29.204Z" fill="#FFCE1A"/>
<path d="M33.7333 33.3563L34.6497 32.44C34.9007 32.691 34.8994 33.1005 34.6466 33.3533C34.3939 33.606 33.9843 33.6074 33.7333 33.3563ZM32.1155 31.7385L33.0319 30.8222L34.6497 32.44L33.7333 33.3563L32.1155 31.7385ZM33.0319 30.8222L32.1155 31.7385C31.8645 31.4875 31.8658 31.078 32.1186 30.8252C32.3713 30.5725 32.7808 30.5711 33.0319 30.8222Z" fill="#FFCE1A"/>
<path d="M67.2709 26.9576H62.373V25.8473H67.2709V26.9576ZM70.251 28.8274H69.1408L69.1384 28.7312L69.1312 28.6376L69.119 28.5441L69.1023 28.4515L69.0819 28.3617L69.0567 28.274L69.0272 28.1876L68.9935 28.1029L68.9561 28.0202L68.9146 27.9393L68.8693 27.861L68.8203 27.7852L68.7683 27.7114L68.7128 27.641L68.6533 27.5726L68.5907 27.5069L68.5258 27.4447L68.4581 27.3862L68.3866 27.33L68.3132 27.278L68.237 27.229L68.1587 27.1838L68.0778 27.1419L67.9951 27.1045L67.9114 27.0712L67.8243 27.0419L67.7356 27.0164L67.6468 26.9957L67.5549 26.9793L67.4607 26.9671L67.3668 26.96L67.2709 26.9576V25.8473L67.4233 25.851L67.575 25.8629L67.723 25.882L67.8692 25.9078L68.0145 25.9415L68.1557 25.982L68.2938 26.0289L68.4298 26.0827L68.5622 26.1432L68.6901 26.2089L68.8146 26.2807L68.9356 26.3582L69.052 26.4415L69.1642 26.5296L69.2727 26.6235L69.3765 26.7225L69.4745 26.8256L69.568 26.9334L69.6568 27.046L69.7401 27.1627L69.8177 27.2834L69.8895 27.4086L69.9554 27.5365L70.0153 27.6682L70.0694 27.8039L70.116 27.9427L70.1568 28.0842L70.1902 28.2291L70.2163 28.3747L70.2354 28.5233L70.2473 28.6747L70.251 28.8274ZM69.1408 33.7254V28.8274H70.251V33.7254H69.1408ZM67.2709 36.7055V35.5952L67.3668 35.5929L67.4607 35.5857L67.5543 35.5735L67.6468 35.5568L67.7362 35.5364L67.8243 35.5109L67.9107 35.482L67.9951 35.4479L68.0784 35.4105L68.1587 35.369L68.237 35.3238L68.3132 35.2748L68.3866 35.2228L68.4577 35.167L68.5258 35.1078L68.5911 35.0455L68.6533 34.9802L68.7125 34.9122L68.7683 34.8411L68.8203 34.7676L68.8693 34.6914L68.9146 34.6132L68.9561 34.5329L68.9935 34.4496L69.0275 34.3652L69.0564 34.2788L69.0819 34.1907L69.1023 34.1013L69.119 34.0087L69.1312 33.9152L69.1384 33.8213L69.1408 33.7254H70.251L70.2473 33.8778L70.2354 34.0295L70.2163 34.1781L70.1902 34.3237L70.1568 34.4683L70.1163 34.6101L70.0691 34.7489L70.0153 34.8843L69.9554 35.0159L69.8895 35.1445L69.8177 35.269L69.7401 35.3901L69.6568 35.5064L69.5683 35.619L69.4745 35.7272L69.3762 35.8306L69.2727 35.9289L69.1646 36.0228L69.052 36.1113L68.9356 36.1946L68.8146 36.2721L68.6901 36.3439L68.5615 36.4099L68.4298 36.4698L68.2944 36.5235L68.1557 36.5708L68.0138 36.6113L67.8692 36.6446L67.7237 36.6708L67.575 36.6899L67.4233 36.7018L67.2709 36.7055ZM62.373 35.5952H67.2709V36.7055H62.373V35.5952ZM59.3928 33.7254H60.5031L60.5055 33.8213L60.5126 33.9152L60.5249 34.0087L60.5415 34.1013L60.5619 34.1907L60.5875 34.2788L60.6164 34.3652L60.6504 34.4496L60.6878 34.5329L60.7293 34.6132L60.7745 34.6914L60.8235 34.7676L60.8756 34.8411L60.9314 34.9122L60.9905 34.9802L61.0528 35.0455L61.1181 35.1078L61.1861 35.167L61.2572 35.2228L61.3307 35.2748L61.4069 35.3238L61.4851 35.369L61.5654 35.4105L61.6488 35.4479L61.7331 35.482L61.8195 35.5109L61.9076 35.5364L61.9971 35.5568L62.0896 35.5735L62.1831 35.5857L62.277 35.5929L62.373 35.5952V36.7055L62.2206 36.7018L62.0689 36.6899L61.9202 36.6708L61.7746 36.6446L61.63 36.6113L61.4882 36.5708L61.3494 36.5235L61.214 36.4698L61.0824 36.4099L60.9538 36.3439L60.8293 36.2721L60.7082 36.1946L60.5919 36.1113L60.4793 36.0228L60.3711 35.9289L60.2677 35.8306L60.1694 35.7272L60.0755 35.619L59.9871 35.5064L59.9037 35.3901L59.8262 35.269L59.7544 35.1445L59.6884 35.0159L59.6286 34.8843L59.5748 34.7489L59.5275 34.6101L59.487 34.4683L59.4537 34.3237L59.4275 34.1781L59.4085 34.0295L59.3966 33.8778L59.3928 33.7254ZM60.5031 28.8274V33.7254H59.3928V28.8274H60.5031ZM62.373 25.8473V26.9576L62.277 26.96L62.1831 26.9671L62.0889 26.9793L61.9971 26.9957L61.9083 27.0164L61.8195 27.0419L61.7324 27.0712L61.6488 27.1045L61.5661 27.1419L61.4851 27.1838L61.4069 27.229L61.3307 27.278L61.2572 27.33L61.1858 27.3862L61.1181 27.4447L61.0531 27.5069L60.9905 27.5726L60.931 27.641L60.8756 27.7114L60.8235 27.7852L60.7745 27.861L60.7293 27.9393L60.6878 28.0202L60.6504 28.1029L60.6167 28.1876L60.5871 28.274L60.5619 28.3617L60.5415 28.4515L60.5249 28.5441L60.5126 28.6376L60.5055 28.7312L60.5031 28.8274H59.3928L59.3966 28.6747L59.4085 28.5233L59.4275 28.3747L59.4537 28.2291L59.487 28.0842L59.5279 27.9427L59.5745 27.8039L59.6286 27.6682L59.6884 27.5365L59.7544 27.4086L59.8262 27.2834L59.9037 27.1627L59.9871 27.046L60.0759 26.9334L60.1694 26.8256L60.2674 26.7225L60.3711 26.6235L60.4796 26.5296L60.5919 26.4415L60.7082 26.3582L60.8293 26.2807L60.9538 26.2089L61.0817 26.1432L61.214 26.0827L61.3501 26.0289L61.4882 25.982L61.6294 25.9415L61.7746 25.9078L61.9209 25.882L62.0689 25.8629L62.2206 25.851L62.373 25.8473Z" fill="#FFCE1A"/>
<path d="M64.6163 33.3563C64.3653 33.6074 63.9558 33.606 63.703 33.3533C63.4503 33.1005 63.4489 32.691 63.7 32.4399L64.6163 33.3563ZM67.8523 30.1204L64.6163 33.3563L63.7 32.4399L66.9359 29.204L67.8523 30.1204ZM66.9359 29.204C67.1869 28.953 67.5965 28.9543 67.8492 29.2071C68.102 29.4598 68.1033 29.8693 67.8523 30.1204L66.9359 29.204Z" fill="#FFCE1A"/>
<path d="M63.7 33.3563L64.6163 32.44C64.8674 32.691 64.866 33.1005 64.6133 33.3533C64.3605 33.606 63.951 33.6074 63.7 33.3563ZM62.0822 31.7385L62.9986 30.8222L64.6163 32.44L63.7 33.3563L62.0822 31.7385ZM62.9986 30.8222L62.0822 31.7385C61.8311 31.4875 61.8325 31.078 62.0852 30.8252C62.338 30.5725 62.7475 30.5711 62.9986 30.8222Z" fill="#FFCE1A"/>
<path d="M67.2709 57.5586H62.373V56.4484H67.2709V57.5586ZM70.251 59.4285H69.1408L69.1384 59.3326L69.1312 59.2387L69.119 59.1451L69.1023 59.0526L69.0819 58.9632L69.0564 58.8751L69.0275 58.7887L68.9935 58.7043L68.9561 58.621L68.9146 58.5407L68.8693 58.4624L68.8203 58.3863L68.7683 58.3128L68.7125 58.2417L68.6533 58.1737L68.5911 58.1083L68.5258 58.0461L68.4577 57.9869L68.3866 57.9311L68.3132 57.8791L68.237 57.8301L68.1587 57.7849L68.0784 57.7434L67.9951 57.7059L67.9107 57.6719L67.8243 57.643L67.7362 57.6175L67.6468 57.5971L67.5543 57.5804L67.4607 57.5682L67.3668 57.561L67.2709 57.5586V56.4484L67.4233 56.4521L67.575 56.464L67.7237 56.4831L67.8692 56.5093L68.0138 56.5426L68.1557 56.5831L68.2944 56.6303L68.4298 56.6841L68.5615 56.744L68.6901 56.81L68.8146 56.8817L68.9356 56.9593L69.052 57.0426L69.1646 57.1311L69.2727 57.225L69.3762 57.3233L69.4745 57.4267L69.5683 57.5348L69.6568 57.6474L69.7401 57.7638L69.8177 57.8849L69.8895 58.0094L69.9554 58.1379L70.0153 58.2696L70.0691 58.405L70.1163 58.5437L70.1568 58.6856L70.1902 58.8302L70.2163 58.9757L70.2354 59.1244L70.2473 59.2761L70.251 59.4285ZM69.1408 64.3265V59.4285H70.251V64.3265H69.1408ZM67.2709 67.3066V66.1963L67.3668 66.1939L67.4607 66.1868L67.5549 66.1745L67.6468 66.1582L67.7356 66.1375L67.8243 66.1119L67.9114 66.0827L67.9951 66.0494L68.0778 66.0119L68.1587 65.9701L68.237 65.9249L68.3132 65.8759L68.3866 65.8238L68.4581 65.7677L68.5258 65.7092L68.5907 65.647L68.6533 65.5813L68.7128 65.5129L68.7683 65.4425L68.8203 65.3687L68.8693 65.2928L68.9146 65.2146L68.9561 65.1337L68.9935 65.051L69.0272 64.9663L69.0567 64.8799L69.0819 64.7921L69.1023 64.7023L69.119 64.6098L69.1312 64.5163L69.1384 64.4227L69.1408 64.3265H70.251L70.2473 64.4792L70.2354 64.6306L70.2163 64.7792L70.1902 64.9248L70.1568 65.0697L70.116 65.2112L70.0694 65.35L70.0153 65.4857L69.9554 65.6174L69.8895 65.7453L69.8177 65.8704L69.7401 65.9912L69.6568 66.1079L69.568 66.2205L69.4745 66.3283L69.3765 66.4314L69.2727 66.5303L69.1642 66.6242L69.052 66.7123L68.9356 66.7957L68.8146 66.8732L68.6901 66.945L68.5622 67.0106L68.4298 67.0712L68.2938 67.1249L68.1557 67.1719L68.0145 67.2124L67.8692 67.246L67.723 67.2719L67.575 67.2909L67.4233 67.3028L67.2709 67.3066ZM62.373 66.1963H67.2709V67.3066H62.373V66.1963ZM59.3928 64.3265H60.5031L60.5055 64.4227L60.5126 64.5163L60.5249 64.6098L60.5415 64.7023L60.5619 64.7921L60.5871 64.8799L60.6167 64.9663L60.6504 65.051L60.6878 65.1337L60.7293 65.2146L60.7745 65.2928L60.8235 65.3687L60.8756 65.4425L60.931 65.5129L60.9905 65.5813L61.0531 65.647L61.1181 65.7092L61.1858 65.7677L61.2572 65.8238L61.3307 65.8759L61.4069 65.9249L61.4851 65.9701L61.5661 66.0119L61.6488 66.0494L61.7324 66.0827L61.8195 66.1119L61.9083 66.1375L61.9971 66.1582L62.0889 66.1745L62.1831 66.1868L62.277 66.1939L62.373 66.1963V67.3066L62.2206 67.3028L62.0689 67.2909L61.9209 67.2719L61.7746 67.246L61.6294 67.2124L61.4882 67.1719L61.3501 67.1249L61.214 67.0712L61.0817 67.0106L60.9538 66.945L60.8293 66.8732L60.7082 66.7957L60.5919 66.7123L60.4796 66.6242L60.3711 66.5303L60.2674 66.4314L60.1694 66.3283L60.0759 66.2205L59.9871 66.1079L59.9037 65.9912L59.8262 65.8704L59.7544 65.7453L59.6884 65.6174L59.6286 65.4857L59.5745 65.35L59.5279 65.2112L59.487 65.0697L59.4537 64.9248L59.4275 64.7792L59.4085 64.6306L59.3966 64.4792L59.3928 64.3265ZM60.5031 59.4285V64.3265H59.3928V59.4285H60.5031ZM62.373 56.4484V57.5586L62.277 57.561L62.1831 57.5682L62.0896 57.5804L61.9971 57.5971L61.9076 57.6175L61.8195 57.643L61.7331 57.6719L61.6488 57.7059L61.5654 57.7434L61.4851 57.7849L61.4069 57.8301L61.3307 57.8791L61.2572 57.9311L61.1861 57.9869L61.1181 58.0461L61.0528 58.1083L60.9905 58.1737L60.9314 58.2417L60.8756 58.3128L60.8235 58.3863L60.7745 58.4624L60.7293 58.5407L60.6878 58.621L60.6504 58.7043L60.6164 58.7887L60.5875 58.8751L60.5619 58.9632L60.5415 59.0526L60.5249 59.1451L60.5126 59.2387L60.5055 59.3326L60.5031 59.4285H59.3928L59.3966 59.2761L59.4085 59.1244L59.4275 58.9757L59.4537 58.8302L59.487 58.6856L59.5275 58.5437L59.5748 58.405L59.6286 58.2696L59.6884 58.1379L59.7544 58.0094L59.8262 57.8849L59.9037 57.7638L59.9871 57.6474L60.0755 57.5348L60.1694 57.4267L60.2677 57.3233L60.3711 57.225L60.4793 57.1311L60.5919 57.0426L60.7082 56.9593L60.8293 56.8817L60.9538 56.81L61.0824 56.744L61.214 56.6841L61.3494 56.6303L61.4882 56.5831L61.63 56.5426L61.7746 56.5093L61.9202 56.4831L62.0689 56.464L62.2206 56.4521L62.373 56.4484Z" fill="#FFCE1A"/>
<path d="M64.6163 63.9578C64.3653 64.2088 63.9558 64.2074 63.703 63.9547C63.4503 63.702 63.4489 63.2924 63.7 63.0414L64.6163 63.9578ZM67.8523 60.7218L64.6163 63.9578L63.7 63.0414L66.9359 59.8054L67.8523 60.7218ZM66.9359 59.8054C67.1869 59.5544 67.5965 59.5558 67.8492 59.8085C68.102 60.0612 68.1033 60.4708 67.8523 60.7218L66.9359 59.8054Z" fill="#FFCE1A"/>
<path d="M63.7 63.9578L64.6163 63.0414C64.8674 63.2924 64.866 63.702 64.6133 63.9547C64.3605 64.2074 63.951 64.2088 63.7 63.9578ZM62.0822 62.3396L62.9986 61.4232L64.6163 63.0414L63.7 63.9578L62.0822 62.3396ZM62.9986 61.4232L62.0822 62.3396C61.8311 62.0886 61.8325 61.679 62.0852 61.4263C62.338 61.1736 62.7475 61.1722 62.9986 61.4232Z" fill="#FFCE1A"/>
<path d="M67.2716 42.258H62.3737V41.1477H67.2716V42.258ZM70.2518 44.1275H69.1415L69.1391 44.0316L69.132 43.9377L69.1197 43.8441L69.1031 43.7516L69.0826 43.6622L69.0571 43.5741L69.0282 43.4877L68.9945 43.4036L68.9568 43.3203L68.9153 43.2393L68.8704 43.1618L68.8211 43.0856L68.7687 43.0114L68.7136 42.941L68.6544 42.8733L68.5915 42.8073L68.5265 42.7451L68.4588 42.6866L68.3867 42.6301L68.3139 42.5781L68.2377 42.5294L68.1595 42.4838L68.0792 42.4427L67.9958 42.4049L67.9122 42.3716L67.8251 42.3423L67.7363 42.3168L67.6475 42.2961L67.5557 42.2798L67.4614 42.2675L67.3676 42.2604L67.2716 42.258V41.1477L67.424 41.1514L67.5757 41.1634L67.7237 41.1824L67.87 41.2083L68.0152 41.2419L68.1564 41.2824L68.2945 41.3293L68.4306 41.3831L68.5622 41.4433L68.6908 41.509L68.8153 41.5811L68.9364 41.6583L69.0534 41.7423L69.165 41.8301L69.2735 41.9239L69.3772 42.0229L69.4749 42.1257L69.5687 42.2335L69.6579 42.3468L69.7409 42.4631L69.8181 42.5835L69.8902 42.7087L69.9562 42.8373L70.0157 42.9682L70.0698 43.104L70.1171 43.2427L70.1576 43.3846L70.1909 43.5292L70.2171 43.6747L70.2361 43.8234L70.248 43.9751L70.2518 44.1275ZM69.1415 49.0258V44.1275H70.2518V49.0258H69.1415ZM67.2716 52.0056V50.8953L67.3676 50.8929L67.4614 50.8858L67.5557 50.8735L67.6475 50.8572L67.7363 50.8365L67.8251 50.8109L67.9122 50.7817L67.9958 50.7484L68.0792 50.7106L68.1595 50.6694L68.2377 50.6239L68.3139 50.5752L68.3867 50.5232L68.4588 50.4667L68.5265 50.4082L68.5915 50.3459L68.6544 50.28L68.7136 50.2123L68.7687 50.1419L68.8211 50.0677L68.8704 49.9915L68.9153 49.9139L68.9568 49.833L68.9945 49.7497L69.0282 49.6656L69.0571 49.5792L69.0826 49.4911L69.1031 49.4017L69.1197 49.3091L69.132 49.2156L69.1391 49.1217L69.1415 49.0258H70.2518L70.248 49.1782L70.2361 49.3299L70.2171 49.4785L70.1909 49.6241L70.1576 49.7687L70.1171 49.9105L70.0698 50.0493L70.0157 50.1851L69.9562 50.316L69.8902 50.4446L69.8181 50.5698L69.7409 50.6902L69.6579 50.8065L69.5687 50.9198L69.4749 51.0276L69.3772 51.1304L69.2735 51.2293L69.165 51.3232L69.0534 51.411L68.9364 51.495L68.8153 51.5722L68.6908 51.6443L68.5622 51.71L68.4306 51.7702L68.2945 51.8239L68.1564 51.8709L68.0152 51.9114L67.87 51.945L67.7237 51.9709L67.5757 51.9899L67.424 52.0018L67.2716 52.0056ZM62.3737 50.8953H67.2716V52.0056H62.3737V50.8953ZM59.3936 49.0258H60.5038L60.5062 49.1217L60.5134 49.2156L60.5256 49.3091L60.5423 49.4017L60.5627 49.4911L60.5882 49.5792L60.6171 49.6656L60.6508 49.7497L60.6885 49.833L60.73 49.9139L60.7749 49.9915L60.8243 50.0677L60.8766 50.1419L60.9318 50.2123L60.9909 50.28L61.0539 50.3459L61.1188 50.4082L61.1865 50.4667L61.2586 50.5232L61.3314 50.5752L61.4076 50.6239L61.4859 50.6694L61.5662 50.7106L61.6495 50.7484L61.7332 50.7817L61.8202 50.8109L61.909 50.8365L61.9978 50.8572L62.0897 50.8735L62.1839 50.8858L62.2778 50.8929L62.3737 50.8953V52.0056L62.2213 52.0018L62.0696 51.9899L61.9216 51.9709L61.7753 51.945L61.6301 51.9114L61.4889 51.8709L61.3508 51.8239L61.2148 51.7702L61.0831 51.71L60.9545 51.6443L60.83 51.5722L60.7089 51.495L60.5919 51.411L60.4804 51.3232L60.3719 51.2293L60.2681 51.1304L60.1705 51.0276L60.0766 50.9198L59.9875 50.8065L59.9045 50.6902L59.8273 50.5698L59.7551 50.4446L59.6892 50.316L59.6296 50.1851L59.5755 50.0493L59.5283 49.9105L59.4878 49.7687L59.4544 49.6241L59.4282 49.4785L59.4092 49.3299L59.3973 49.1782L59.3936 49.0258ZM60.5038 44.1275V49.0258H59.3936V44.1275H60.5038ZM62.3737 41.1477V42.258L62.2778 42.2604L62.1839 42.2675L62.0897 42.2798L61.9978 42.2961L61.909 42.3168L61.8202 42.3423L61.7332 42.3716L61.6495 42.4049L61.5662 42.4427L61.4859 42.4838L61.4076 42.5294L61.3314 42.5781L61.2586 42.6301L61.1865 42.6866L61.1188 42.7451L61.0539 42.8073L60.9909 42.8733L60.9318 42.941L60.8766 43.0114L60.8243 43.0856L60.7749 43.1618L60.73 43.2393L60.6885 43.3203L60.6508 43.4036L60.6171 43.4877L60.5882 43.5741L60.5627 43.6622L60.5423 43.7516L60.5256 43.8441L60.5134 43.9377L60.5062 44.0316L60.5038 44.1275H59.3936L59.3973 43.9751L59.4092 43.8234L59.4282 43.6747L59.4544 43.5292L59.4878 43.3846L59.5283 43.2427L59.5755 43.104L59.6296 42.9682L59.6892 42.8373L59.7551 42.7087L59.8273 42.5835L59.9045 42.4631L59.9875 42.3468L60.0766 42.2335L60.1705 42.1257L60.2681 42.0229L60.3719 41.9239L60.4804 41.8301L60.5919 41.7423L60.7089 41.6583L60.83 41.5811L60.9545 41.509L61.0831 41.4433L61.2148 41.3831L61.3508 41.3293L61.4889 41.2824L61.6301 41.2419L61.7753 41.2083L61.9216 41.1824L62.0696 41.1634L62.2213 41.1514L62.3737 41.1477Z" fill="#FFCE1A"/>
<path d="M64.6171 48.6567C64.366 48.9078 63.9565 48.9064 63.7038 48.6537C63.451 48.4009 63.4497 47.9914 63.7007 47.7403L64.6171 48.6567ZM67.853 45.4208L64.6171 48.6567L63.7007 47.7403L66.9366 44.5044L67.853 45.4208ZM66.9366 44.5044C67.1877 44.2534 67.5972 44.2547 67.85 44.5075C68.1027 44.7602 68.1041 45.1698 67.853 45.4208L66.9366 44.5044Z" fill="#FFCE1A"/>
<path d="M63.7007 48.6568L64.6171 47.7404C64.8681 47.9914 64.8668 48.401 64.614 48.6537C64.3613 48.9064 63.9517 48.9078 63.7007 48.6568ZM62.0829 47.039L62.9993 46.1226L64.6171 47.7404L63.7007 48.6568L62.0829 47.039ZM62.9993 46.1226L62.0829 47.039C61.8319 46.7879 61.8332 46.3784 62.086 46.1256C62.3387 45.8729 62.7483 45.8715 62.9993 46.1226Z" fill="#FFCE1A"/>
</svg>
