<svg width="70" height="66" viewBox="0 0 70 66" fill="none" xmlns="http://www.w3.org/2000/svg">
<path d="M41.0235 63.7351C41.446 63.7351 41.7885 64.0776 41.7885 64.5001C41.7885 64.9226 41.446 65.2651 41.0235 65.2651V63.7351ZM14.4098 63.7351H41.0235V65.2651H14.4098V63.7351ZM6.03747 60.0144L7.41239 59.3429L7.53519 59.5838L7.66581 59.8198L7.80459 60.0505L7.95086 60.276L8.10495 60.4964L8.26619 60.7117L8.43423 60.9206L8.60975 61.124L8.79174 61.3213L8.98018 61.5118L9.1751 61.6958L9.37647 61.8734L9.58363 62.0441L9.79657 62.2074L10.0153 62.3642L10.2391 62.5129L10.4687 62.654L10.7027 62.7877L10.9415 62.9129L11.1854 63.0299L11.4341 63.1391L11.6865 63.2398L11.943 63.3313L12.2039 63.414L12.4682 63.4878L12.7355 63.5521L13.007 63.6072L13.2822 63.6527L13.5597 63.6888L13.84 63.7143L14.1237 63.7296L14.4098 63.7351V65.2651L14.0679 65.259L13.7285 65.2403L13.3917 65.2093L13.059 65.1665L12.7301 65.112L12.4049 65.046L12.0831 64.9688L11.7664 64.88L11.4545 64.781L11.1463 64.6712L10.8436 64.5508L10.5466 64.4205L10.2551 64.2803L9.96869 64.13L9.68839 63.9704L9.41457 63.8014L9.14652 63.6235L8.88562 63.4367L8.63118 63.2415L8.38389 63.0374L8.14373 62.8258L7.91072 62.6057L7.68554 62.3778L7.46818 62.1424L7.25932 61.9002L7.05794 61.6506L6.86541 61.3937L6.68139 61.1305L6.50655 60.8607L6.34055 60.5845L6.18408 60.3022L6.03747 60.0144ZM6.03747 60.0144C5.85208 59.6348 6.00957 59.1766 6.38919 58.9912C6.76881 58.8058 7.227 58.9633 7.41239 59.3429L6.03747 60.0144Z" fill="#FFCE1A"/>
<path d="M37.0086 58.9136C37.431 58.9136 37.7736 59.2561 37.7736 59.6786C37.7736 60.1011 37.431 60.4436 37.0086 60.4436V58.9136ZM9.89854 58.9136H37.0086V60.4436H9.89854V58.9136ZM0.590088 51.1355H2.12012L2.13033 51.5345L2.16026 51.9278L2.21027 52.3155L2.27898 52.6972L2.36606 53.0724L2.47117 53.4404L2.59397 53.8007L2.73343 54.1538L2.88956 54.4973L3.06203 54.8327L3.25047 55.1586L3.45355 55.4746L3.67091 55.7801L3.90256 56.0746L4.14747 56.357L4.40633 56.6277L4.6771 56.8863L4.96045 57.1315L5.25469 57.3635L5.56015 57.5809L5.87582 57.7839L6.20169 57.9717L6.53675 58.1442L6.88099 58.3003L7.23374 58.4401L7.59397 58.5626L7.96202 58.668L8.33687 58.7548L8.71853 58.8235L9.10631 58.8735L9.49954 58.9034L9.89854 58.9136V60.4436L9.42198 60.4314L8.95052 60.3953L8.48586 60.3358L8.02869 60.2535L7.579 60.1491L7.13747 60.0232L6.70513 59.8763L6.28299 59.7086L5.87072 59.5218L5.46967 59.3153L5.07985 59.0908L4.70227 58.8483L4.33694 58.5881L3.98556 58.3112L3.64778 58.0183L3.32463 57.7101L3.0161 57.387L2.72289 57.0489L2.44634 56.6971L2.18612 56.3325L1.94358 55.9546L1.71908 55.5654L1.5126 55.164L1.32517 54.7518L1.15781 54.3293L1.01053 53.8969L0.885006 53.4554L0.780238 53.0061L0.697919 52.5482L0.638391 52.0836L0.602334 51.6121L0.590088 51.1355ZM2.12012 14.1119V51.1355H0.590088V14.1119H2.12012ZM9.89854 4.80347V6.3335L9.49954 6.34371L9.10597 6.37364L8.71819 6.42365L8.33653 6.49236L7.96134 6.5791L7.59397 6.68421L7.23306 6.80735L6.88031 6.94681L6.53607 7.10328L6.20101 7.2754L5.87514 7.46351L5.55947 7.66659L5.25367 7.88395L4.95943 8.1156L4.67642 8.36085L4.40599 8.61903L4.14747 8.89014L3.90222 9.17315L3.67023 9.46773L3.45253 9.77285L3.24979 10.0885L3.06203 10.4144L2.88956 10.7498L2.73343 11.0937L2.59363 11.4468L2.47117 11.807L2.36572 12.1751L2.27898 12.5499L2.21027 12.9319L2.16026 13.3197L2.13033 13.7129L2.12012 14.1119H0.590088L0.602334 13.6354L0.638391 13.1639L0.697919 12.6992L0.780238 12.2417L0.884666 11.792L1.01053 11.3505L1.15747 10.9182L1.32517 10.4957L1.51192 10.0838L1.7184 9.68237L1.9429 9.29255L2.18577 8.91497L2.44566 8.54998L2.72255 8.19826L3.01542 7.86082L3.32361 7.53733L3.6471 7.2288L3.98522 6.93593L4.3366 6.65938L4.70159 6.39915L5.07917 6.15662L5.46899 5.93177L5.87004 5.72564L6.28231 5.53855L6.70445 5.37119L7.13679 5.22424L7.57832 5.09804L8.02835 4.99362L8.48552 4.9113L8.95018 4.85177L9.42198 4.81571L9.89854 4.80347ZM58.2614 6.3335H9.89854V4.80347H58.2614V6.3335ZM67.5695 14.1119H66.0394L66.0292 13.7129L65.9993 13.3197L65.9493 12.9319L65.8806 12.5503L65.7938 12.1751L65.6884 11.8073L65.5659 11.4468L65.4261 11.094L65.27 10.7498L65.0975 10.4147L64.9098 10.0889L64.707 9.77319L64.4893 9.46773L64.2577 9.17315L64.0124 8.89014L63.7542 8.61971L63.4831 8.36119L63.2001 8.11594L62.9056 7.88395L62.6004 7.66625L62.2848 7.46351L61.9589 7.2754L61.6238 7.10328L61.2796 6.94681L60.9269 6.80735L60.5659 6.68421L60.1986 6.5791L59.8234 6.49236L59.4417 6.42365L59.0539 6.37364L58.6604 6.34371L58.2614 6.3335V4.80347L58.7379 4.81571L59.2097 4.85177L59.6744 4.9113L60.1316 4.99362L60.5816 5.09804L61.0231 5.22424L61.4555 5.37119L61.8776 5.53855L62.2899 5.72564L62.6909 5.93177L63.0807 6.15662L63.4583 6.39949L63.8233 6.65938L64.175 6.93627L64.5125 7.22914L64.836 7.53733L65.1445 7.86082L65.4374 8.19894L65.7139 8.55066L65.9738 8.91531L66.2167 9.29289L66.4412 9.68271L66.6476 10.0838L66.8344 10.496L67.0021 10.9182L67.149 11.3509L67.2749 11.792L67.3793 12.2421L67.4616 12.6992L67.5212 13.1639L67.5572 13.6354L67.5695 14.1119ZM66.0394 34.231V14.1119H67.5695V34.231H66.0394ZM67.5695 34.231C67.5695 34.6535 67.2269 34.996 66.8045 34.996C66.382 34.996 66.0394 34.6535 66.0394 34.231H67.5695Z" fill="#FFCE1A"/>
<path d="M18.0621 9.63747C18.0621 10.0555 17.7206 10.395 17.2995 10.395C16.8784 10.395 16.5369 10.0555 16.5369 9.63747H18.0621ZM18.0621 1.49984V9.63747H16.5369V1.49984H18.0621ZM16.5369 1.49984C16.5369 1.08179 16.8784 0.74231 17.2995 0.74231C17.7206 0.74231 18.0621 1.08179 18.0621 1.49984H16.5369Z" fill="#FFCE1A"/>
<path d="M51.7096 9.63747C51.7096 10.0555 51.3681 10.395 50.947 10.395C50.5258 10.395 50.1843 10.0555 50.1843 9.63747H51.7096ZM51.7096 1.49984V9.63747H50.1843V1.49984H51.7096ZM50.1843 1.49984C50.1843 1.08179 50.5258 0.74231 50.947 0.74231C51.3681 0.74231 51.7096 1.08179 51.7096 1.49984H50.1843Z" fill="#FFCE1A"/>
<path d="M5.86564 17.7051C5.4418 17.7051 5.0979 17.3625 5.0979 16.9401C5.0979 16.5176 5.4418 16.175 5.86564 16.175V17.7051ZM62.294 17.7051H5.86564V16.175H62.294V17.7051ZM62.294 16.175C62.7178 16.175 63.0617 16.5176 63.0617 16.9401C63.0617 17.3625 62.7178 17.7051 62.294 17.7051V16.175Z" fill="#FFCE1A"/>
<path d="M54.5882 55.7161C54.2926 56.0117 53.8113 56.01 53.5136 55.7123C53.216 55.4147 53.2143 54.9334 53.5099 54.6378L54.5882 55.7161ZM62.5918 47.7125L54.5882 55.7161L53.5099 54.6378L61.5135 46.6342L62.5918 47.7125ZM61.5135 46.6342C61.8091 46.3386 62.2904 46.3403 62.5881 46.6379C62.8857 46.9356 62.8874 47.4169 62.5918 47.7125L61.5135 46.6342Z" fill="#FFCE1A"/>
<path d="M53.5103 55.7161L54.5886 54.6378C54.8842 54.9334 54.8825 55.4147 54.5849 55.7123C54.2872 56.01 53.8059 56.0117 53.5103 55.7161ZM49.5087 51.7144L50.587 50.6361L54.5886 54.6378L53.5103 55.7161L49.5087 51.7144ZM50.587 50.6361L49.5087 51.7144C49.2131 51.4188 49.2148 50.9375 49.5124 50.6399C49.8101 50.3422 50.2914 50.3405 50.587 50.6361Z" fill="#FFCE1A"/>
<path d="M65.4867 60.6317L64.4057 59.5487L64.8264 59.1071L65.2197 58.6506L65.5853 58.1788L65.9245 57.6938L66.2361 57.1965L66.5208 56.6872L66.7783 56.1678L67.0089 55.6385L67.2123 55.1011L67.3885 54.5561L67.5382 54.0044L67.6606 53.4479L67.7559 52.8866L67.8239 52.3227L67.8654 51.7556L67.8797 51.1879L67.8664 50.6205L67.8266 50.0538L67.7596 49.4888L67.6657 48.9279L67.5443 48.3707L67.396 47.819L67.2205 47.2733L67.0184 46.7352L66.7888 46.2059L66.5323 45.6855L66.249 45.1759L65.9384 44.6776L65.6006 44.1918L65.236 43.7197L64.8438 43.2618L64.424 42.8193L65.5071 41.7389L65.9799 42.2373L66.4225 42.7536L66.8347 43.287L67.2161 43.836L67.5674 44.399L67.8875 44.9752L68.1773 45.563L68.4369 46.1617L68.6655 46.7699L68.8634 47.3863L69.0308 48.0094L69.1679 48.6387L69.274 49.2725L69.3499 49.9096L69.3951 50.5491L69.4097 51.1899L69.3934 51.8305L69.3471 52.4696L69.2703 53.1071L69.1621 53.7404L69.024 54.3691L68.8553 54.9922L68.6559 55.6079L68.426 56.2154L68.1654 56.8134L67.8739 57.4009L67.5525 57.9761L67.2001 58.5387L66.8174 59.0864L66.4041 59.6187L65.9605 60.1344L65.4867 60.6317ZM46.5936 60.611L47.6766 59.5306L48.1182 59.9511L48.5746 60.3443L49.0465 60.71L49.5315 61.0491L50.0288 61.3607L50.538 61.6454L51.0575 61.9029L51.5868 62.1335L52.1239 62.337L52.6695 62.5131L53.2209 62.6628L53.7777 62.7853L54.339 62.8805L54.903 62.9486L55.4697 62.9901L56.0377 63.0043L56.6051 62.9911L57.1718 62.9513L57.7365 62.8843L58.2978 62.7904L58.8546 62.6689L59.4067 62.5206L59.952 62.3451L60.4901 62.1431L61.0194 61.9134L61.5398 61.657L62.0497 61.3736L62.5477 61.063L63.0335 60.7256L63.5056 60.3606L63.9634 59.9684L64.4057 59.5487L65.4867 60.6317L64.988 61.1045L64.4717 61.5471L63.9383 61.959L63.3899 62.3407L62.8266 62.6921L62.2501 63.0122L61.6623 63.302L61.0636 63.5615L60.4554 63.7901L59.8394 63.9881L59.2159 64.1554L58.5869 64.2925L57.9528 64.3986L57.3161 64.4745L56.6766 64.5197L56.0357 64.5344L55.3948 64.518L54.756 64.4718L54.1186 64.3949L53.4852 64.2867L52.8562 64.1486L52.2334 63.9799L51.6177 63.7806L51.0098 63.5506L50.4118 63.2901L49.8244 62.9986L49.2492 62.6771L48.6866 62.3247L48.1389 61.942L47.6066 61.5287L47.0909 61.0852L46.5936 60.611ZM46.6143 41.7182L47.6947 42.8013H47.695L47.2742 43.2428L46.881 43.6993L46.5153 44.1711L46.1762 44.6562L45.8646 45.1535L45.5799 45.6627L45.3224 46.1821L45.0918 46.7114L44.8883 47.2485L44.7121 47.7941L44.5625 48.3455L44.44 48.9024L44.3448 49.4636L44.2767 50.0276L44.2352 50.5943L44.221 51.1624L44.2342 51.7298L44.274 52.2965L44.341 52.8611L44.4349 53.4224L44.5563 53.9792L44.7047 54.5313L44.8802 55.0766L45.0822 55.6147L45.3118 56.144L45.5683 56.6645L45.8517 57.1743L46.1622 57.6723L46.4997 58.1581L46.8647 58.6302L47.2569 59.0881L47.6766 59.5306L46.5936 60.611L46.1207 60.1126L45.6782 59.5963L45.2663 59.0629L44.8846 58.5146L44.5332 57.9513L44.2131 57.3747L43.9233 56.7869L43.6638 56.1882L43.4352 55.58L43.2372 54.964L43.0699 54.3405L42.9328 53.7115L42.8266 53.0775L42.7508 52.4407L42.7055 51.8012L42.6909 51.1603L42.7072 50.5195L42.7535 49.8807L42.8304 49.2432L42.9386 48.6098L43.0767 47.9809L43.2454 47.358L43.4447 46.7424L43.6747 46.1345L43.9352 45.5365L44.2267 44.949L44.5482 44.3738L44.9006 43.8112L45.2833 43.2635L45.6966 42.7312L46.1401 42.2155L46.614 41.7182H46.6143ZM65.5071 41.7389L64.424 42.8193L63.9825 42.3989L63.526 42.0056L63.0542 41.64L62.5691 41.3008L62.0718 40.9892L61.5626 40.7045L61.0432 40.447L60.5139 40.2164L59.9764 40.013L59.4315 39.8368L58.8798 39.6871L58.3233 39.5647L57.762 39.4694L57.198 39.4014L56.631 39.3599L56.0633 39.3456L55.4959 39.3589L54.9292 39.3987L54.3642 39.4657L53.8032 39.5595L53.2461 39.681L52.6943 39.8293L52.1487 40.0048L51.6106 40.2069L51.0813 40.4365L50.5608 40.693L50.0513 40.9763L49.5529 41.2869L49.0672 41.6247L48.5951 41.9893L48.1372 42.3815L47.6947 42.8013L46.6143 41.7182L47.1126 41.2454L47.629 40.8028L48.1624 40.3906L48.7114 40.0092L49.2744 39.6579L49.8506 39.3378L50.4384 39.0479L51.0371 38.7884L51.6453 38.5598L52.2616 38.3618L52.8848 38.1945L53.5141 38.0574L54.1478 37.9513L54.7849 37.8754L55.4244 37.8302L56.0653 37.8156L56.7058 37.8319L57.345 37.8781L57.9824 37.955L58.6158 38.0632L59.2444 38.2013L59.8676 38.37L60.4833 38.5693L61.0908 38.7993L61.6888 39.0599L62.2763 39.3514L62.8515 39.6728L63.4141 40.0252L63.9618 40.4079L64.4941 40.8212L65.0098 41.2648L65.5071 41.7389Z" fill="#1DACA5"/>
<path d="M32.2279 40.3752H27.2796V39.0248H32.2279V40.3752ZM35.3529 42.1498H34.0025L34.0004 42.0583L33.9936 41.9689L33.9824 41.8811L33.9664 41.7944L33.9464 41.7083L33.9226 41.6243L33.895 41.543L33.863 41.4627L33.8273 41.3838L33.7882 41.3072L33.7457 41.2338L33.6987 41.161L33.6494 41.0912L33.596 41.0239L33.5399 40.9586L33.4814 40.8977L33.4184 40.8378L33.3541 40.7817L33.2865 40.7286L33.2167 40.6786L33.1453 40.6331L33.0698 40.5895L32.9932 40.5501L32.9157 40.5147L32.8351 40.483L32.7531 40.4548L32.6697 40.4313L32.5837 40.4113L32.4966 40.3953L32.4088 40.3841L32.3194 40.3773L32.2279 40.3752V39.0248L32.3874 39.0289L32.5463 39.0411L32.7027 39.0612L32.8565 39.0887L33.0072 39.1238L33.1558 39.1663L33.3011 39.2156L33.4429 39.2717L33.5824 39.335L33.7168 39.4044L33.8467 39.4792L33.9739 39.5609L34.096 39.6483L34.2141 39.7408L34.3273 39.8391L34.4352 39.9418L34.5393 40.051L34.6369 40.164L34.7297 40.2817L34.8172 40.4045L34.8981 40.5303L34.974 40.6616L35.043 40.7967L35.106 40.9348L35.1618 41.0763L35.2118 41.2222L35.2539 41.3709L35.289 41.5209L35.3165 41.675L35.3366 41.8314L35.3488 41.9903L35.3529 42.1498ZM34.0025 47.0985V42.1498H35.3529V47.0985H34.0025ZM32.2279 50.2235V48.8731L32.3194 48.871L32.4088 48.8642L32.4966 48.853L32.5837 48.837L32.6697 48.8169L32.7531 48.7935L32.8351 48.7652L32.9157 48.7336L32.9932 48.6982L33.0698 48.6588L33.1453 48.6152L33.2167 48.5696L33.2865 48.5196L33.3541 48.4666L33.4184 48.4104L33.4814 48.3506L33.5399 48.2897L33.596 48.2244L33.6494 48.157L33.6987 48.0873L33.7457 48.0145L33.7882 47.941L33.8273 47.8645L33.863 47.7856L33.895 47.7053L33.9226 47.624L33.9464 47.54L33.9664 47.4539L33.9824 47.3672L33.9936 47.2794L34.0004 47.19L34.0025 47.0985H35.3529L35.3488 47.258L35.3366 47.4168L35.3165 47.5733L35.289 47.7274L35.2539 47.8774L35.2118 48.0261L35.1618 48.172L35.106 48.3135L35.043 48.4516L34.974 48.5867L34.8981 48.718L34.8172 48.8438L34.7297 48.9666L34.6369 49.0843L34.5393 49.1972L34.4352 49.3064L34.3273 49.4092L34.2141 49.5075L34.096 49.6L33.9739 49.6874L33.8467 49.769L33.7168 49.8439L33.5824 49.9133L33.4429 49.9765L33.3011 50.0327L33.1558 50.082L33.0072 50.1245L32.8565 50.1596L32.7027 50.1871L32.5463 50.2072L32.3874 50.2194L32.2279 50.2235ZM27.2796 48.8731H32.2279V50.2235H27.2796V48.8731ZM24.1545 47.0985H25.505L25.507 47.19L25.5138 47.2794L25.525 47.3672L25.541 47.4539L25.5611 47.54L25.5849 47.624L25.6125 47.7053L25.6444 47.7856L25.6802 47.8645L25.7193 47.941L25.7618 48.0145L25.8087 48.0873L25.8581 48.157L25.9115 48.2244L25.9676 48.2897L26.0261 48.3506L26.089 48.4104L26.1533 48.4666L26.221 48.5196L26.2907 48.5696L26.3622 48.6152L26.4377 48.6588L26.5142 48.6982L26.5918 48.7336L26.6724 48.7652L26.7544 48.7935L26.8377 48.8169L26.9238 48.837L27.0109 48.853L27.0986 48.8642L27.1881 48.871L27.2796 48.8731V50.2235L27.12 50.2194L26.9612 50.2072L26.8047 50.1871L26.651 50.1596L26.5003 50.1245L26.3516 50.082L26.2064 50.0327L26.0645 49.9765L25.9251 49.9133L25.7907 49.8439L25.6608 49.769L25.5335 49.6874L25.4114 49.6L25.2934 49.5075L25.1801 49.4092L25.0723 49.3064L24.9682 49.1972L24.8706 49.0843L24.7777 48.9666L24.6903 48.8438L24.6093 48.718L24.5335 48.5867L24.4644 48.4516L24.4015 48.3135L24.3457 48.172L24.2957 48.0261L24.2535 47.8774L24.2185 47.7274L24.1909 47.5733L24.1709 47.4168L24.1586 47.258L24.1545 47.0985ZM25.505 42.1498V47.0985H24.1545V42.1498H25.505ZM27.2796 39.0248V40.3752L27.1881 40.3773L27.0986 40.3841L27.0109 40.3953L26.9238 40.4113L26.8377 40.4313L26.7544 40.4548L26.6724 40.483L26.5918 40.5147L26.5142 40.5501L26.4377 40.5895L26.3622 40.6331L26.2907 40.6786L26.221 40.7286L26.1533 40.7817L26.089 40.8378L26.0261 40.8977L25.9676 40.9586L25.9115 41.0239L25.8581 41.0912L25.8087 41.161L25.7618 41.2338L25.7193 41.3072L25.6802 41.3838L25.6444 41.4627L25.6125 41.543L25.5849 41.6243L25.5611 41.7083L25.541 41.7944L25.525 41.8811L25.5138 41.9689L25.507 42.0583L25.505 42.1498H24.1545L24.1586 41.9903L24.1709 41.8314L24.1909 41.675L24.2185 41.5209L24.2535 41.3709L24.2957 41.2222L24.3457 41.0763L24.4015 40.9348L24.4644 40.7967L24.5335 40.6616L24.6093 40.5303L24.6903 40.4045L24.7777 40.2817L24.8706 40.164L24.9682 40.051L25.0723 39.9418L25.1801 39.8391L25.2934 39.7408L25.4114 39.6483L25.5335 39.5609L25.6608 39.4792L25.7907 39.4044L25.9251 39.335L26.0645 39.2717L26.2064 39.2156L26.3516 39.1663L26.5003 39.1238L26.651 39.0887L26.8047 39.0612L26.9612 39.0411L27.12 39.0289L27.2796 39.0248Z" fill="#FFCE1A"/>
<path d="M28.174 47.1556C27.9131 47.4165 27.4882 47.4148 27.2256 47.1522C26.963 46.8896 26.9613 46.4648 27.2222 46.2039L28.174 47.1556ZM32.2851 43.0445L28.174 47.1556L27.2222 46.2039L31.3334 42.0927L32.2851 43.0445ZM31.3334 42.0927C31.5943 41.8318 32.0191 41.8335 32.2817 42.0961C32.5443 42.3587 32.546 42.7836 32.2851 43.0445L31.3334 42.0927Z" fill="#FFCE1A"/>
<path d="M31.3339 47.1556L32.2856 46.2039C32.5465 46.4648 32.5448 46.8896 32.2822 47.1522C32.0196 47.4148 31.5948 47.4165 31.3339 47.1556ZM27.2227 43.0445L28.1745 42.0927L32.2856 46.2039L31.3339 47.1556L27.2227 43.0445ZM28.1745 42.0927L27.2227 43.0445C26.9618 42.7836 26.9635 42.3587 27.2261 42.0961C27.4887 41.8335 27.9136 41.8318 28.1745 42.0927Z" fill="#FFCE1A"/>
<path d="M16.2608 24.9167H11.3125V23.5663H16.2608V24.9167ZM19.3859 26.6917H18.0354L18.0334 26.6002L18.0266 26.5107L18.0154 26.4229L17.9994 26.3359L17.9793 26.2498L17.9559 26.1665L17.9276 26.0845L17.896 26.0039L17.8603 25.9256L17.8211 25.8491L17.7783 25.7749L17.7317 25.7025L17.6824 25.6328L17.629 25.5654L17.5728 25.5001L17.5143 25.4392L17.4514 25.3793L17.3871 25.3232L17.3194 25.2701L17.2497 25.2201L17.1782 25.1746L17.1027 25.131L17.0262 25.0916L16.9486 25.0562L16.868 25.0245L16.786 24.9963L16.7027 24.9728L16.6166 24.9528L16.5296 24.9368L16.4418 24.9256L16.3523 24.9188L16.2608 24.9167V23.5663L16.4204 23.5704L16.5792 23.5826L16.7357 23.6027L16.8895 23.6302L17.0401 23.6653L17.1888 23.7078L17.334 23.7571L17.4759 23.8132L17.6154 23.8765L17.7497 23.9459L17.8797 24.0207L18.0069 24.1024L18.129 24.1898L18.247 24.2823L18.3603 24.3806L18.4681 24.4834L18.5722 24.5925L18.6698 24.7055L18.7627 24.8232L18.8501 24.946L18.9314 25.0722L19.0069 25.2035L19.076 25.3378L19.1389 25.4766L19.1951 25.6185L19.2444 25.7637L19.2869 25.9124L19.3219 26.0631L19.3495 26.2168L19.3696 26.3733L19.3818 26.5321L19.3859 26.6917ZM18.0354 31.64V26.6917H19.3859V31.64H18.0354ZM16.2608 34.765V33.4146L16.3523 33.4125L16.4418 33.4057L16.5296 33.3945L16.6166 33.3785L16.7027 33.3584L16.786 33.335L16.868 33.3067L16.9486 33.2751L17.0269 33.2394L17.1034 33.2003L17.1776 33.1574L17.2497 33.1112L17.3194 33.0615L17.3871 33.0081L17.4521 32.952L17.514 32.8931L17.5728 32.8312L17.629 32.7662L17.6824 32.6985L17.732 32.6288L17.7783 32.5567L17.8211 32.4825L17.8603 32.406L17.896 32.3278L17.9276 32.2471L17.9559 32.1652L17.9793 32.0818L17.9994 31.9958L18.0154 31.9087L18.0266 31.8209L18.0334 31.7315L18.0354 31.64H19.3859L19.3818 31.7995L19.3696 31.9584L19.3495 32.1148L19.3219 32.2686L19.2869 32.4193L19.2444 32.5679L19.1951 32.7132L19.1389 32.855L19.076 32.9938L19.0069 33.1282L18.9314 33.2595L18.8498 33.386L18.7627 33.5081L18.6698 33.6262L18.5722 33.7387L18.4685 33.8476L18.3596 33.9513L18.247 34.049L18.129 34.1418L18.0069 34.2289L17.8803 34.3106L17.749 34.3861L17.6147 34.4551L17.4759 34.5181L17.334 34.5742L17.1888 34.6235L17.0401 34.666L16.8895 34.7011L16.7357 34.7286L16.5792 34.7487L16.4204 34.7609L16.2608 34.765ZM11.3125 33.4146H16.2608V34.765H11.3125V33.4146ZM8.1875 31.64H9.53793L9.53997 31.7315L9.54678 31.8209L9.558 31.9087L9.57399 31.9958L9.59406 32.0818L9.61753 32.1652L9.64576 32.2471L9.6774 32.3278L9.71312 32.406L9.75223 32.4825L9.79509 32.5567L9.84135 32.6288L9.89102 32.6985L9.94442 32.7662L10.0005 32.8312L10.0594 32.8931L10.1213 32.952L10.1863 33.0081L10.254 33.0615L10.3237 33.1112L10.3958 33.1574L10.47 33.2003L10.5465 33.2394L10.6247 33.2751L10.7054 33.3067L10.7873 33.335L10.8707 33.3584L10.9567 33.3785L11.0438 33.3945L11.1316 33.4057L11.221 33.4125L11.3125 33.4146V34.765L11.153 34.7609L10.9942 34.7487L10.8377 34.7286L10.6839 34.7011L10.5332 34.666L10.3846 34.6235L10.2393 34.5742L10.0975 34.5181L9.95871 34.4551L9.82435 34.3861L9.69304 34.3106L9.5665 34.2289L9.44439 34.1418L9.32635 34.049L9.21376 33.9513L9.10491 33.8476L9.00116 33.7387L8.90353 33.6262L8.81067 33.5081L8.72359 33.386L8.64195 33.2595L8.56644 33.1282L8.49738 32.9938L8.43446 32.855L8.37833 32.7132L8.32901 32.5679L8.28649 32.4193L8.25145 32.2686L8.2239 32.1148L8.20383 31.9584L8.19158 31.7995L8.1875 31.64ZM9.53793 26.6917V31.64H8.1875V26.6917H9.53793ZM11.3125 23.5663V24.9167L11.221 24.9188L11.1316 24.9256L11.0438 24.9368L10.9567 24.9528L10.8707 24.9728L10.7873 24.9963L10.7054 25.0245L10.6247 25.0562L10.5472 25.0916L10.4706 25.131L10.3951 25.1746L10.3237 25.2201L10.254 25.2701L10.1863 25.3232L10.122 25.3793L10.0591 25.4392L10.0005 25.5001L9.94442 25.5654L9.89102 25.6328L9.84169 25.7025L9.79509 25.7749L9.75223 25.8491L9.71312 25.9256L9.6774 26.0039L9.64576 26.0845L9.61753 26.1665L9.59406 26.2498L9.57399 26.3359L9.558 26.4229L9.54678 26.5107L9.53997 26.6002L9.53793 26.6917H8.1875L8.19158 26.5321L8.20383 26.3733L8.2239 26.2168L8.25145 26.0631L8.28649 25.9124L8.32901 25.7637L8.37833 25.6185L8.43446 25.4766L8.49738 25.3378L8.56644 25.2035L8.64195 25.0722L8.72325 24.946L8.81067 24.8232L8.90353 24.7055L9.00116 24.5925L9.10525 24.4834L9.21308 24.3806L9.32635 24.2823L9.44439 24.1898L9.5665 24.1024L9.69373 24.0207L9.82367 23.9459L9.95803 23.8765L10.0975 23.8132L10.2393 23.7571L10.3846 23.7078L10.5332 23.6653L10.6839 23.6302L10.8377 23.6027L10.9942 23.5826L11.153 23.5704L11.3125 23.5663Z" fill="#FFCE1A"/>
<path d="M13.5919 31.28C13.331 31.5409 12.9062 31.5392 12.6436 31.2766C12.381 31.014 12.3793 30.5892 12.6402 30.3283L13.5919 31.28ZM16.8612 28.0108L13.5919 31.28L12.6402 30.3283L15.9094 27.059L16.8612 28.0108ZM15.9094 27.059C16.1703 26.7981 16.5952 26.7998 16.8578 27.0624C17.1204 27.325 17.1221 27.7499 16.8612 28.0108L15.9094 27.059Z" fill="#FFCE1A"/>
<path d="M12.6401 31.2801L13.5919 30.3284C13.8528 30.5893 13.8511 31.0141 13.5885 31.2767C13.3259 31.5393 12.901 31.541 12.6401 31.2801ZM11.0057 29.6457L11.9574 28.6939L13.5919 30.3284L12.6401 31.2801L11.0057 29.6457ZM11.9574 28.6939L11.0057 29.6457C10.7448 29.3848 10.7465 28.9599 11.0091 28.6973C11.2717 28.4347 11.6965 28.433 11.9574 28.6939Z" fill="#FFCE1A"/>
<path d="M32.2284 24.9167H27.2801V23.5663H32.2284V24.9167ZM35.3534 26.6917H34.003L34.0009 26.6002L33.9941 26.5107L33.9829 26.4229L33.9669 26.3359L33.9468 26.2498L33.9234 26.1665L33.8951 26.0845L33.8635 26.0039L33.8278 25.9256L33.7887 25.8491L33.7458 25.7749L33.6992 25.7025L33.6499 25.6328L33.5965 25.5654L33.5404 25.5001L33.4819 25.4392L33.4189 25.3793L33.3546 25.3232L33.2869 25.2701L33.2172 25.2201L33.1458 25.1746L33.0703 25.131L32.9937 25.0916L32.9162 25.0562L32.8356 25.0245L32.7536 24.9963L32.6702 24.9728L32.5842 24.9528L32.4971 24.9368L32.4093 24.9256L32.3199 24.9188L32.2284 24.9167V23.5663L32.3879 23.5704L32.5468 23.5826L32.7032 23.6027L32.857 23.6302L33.0077 23.6653L33.1563 23.7078L33.3016 23.7571L33.4434 23.8132L33.5829 23.8765L33.7172 23.9459L33.8472 24.0207L33.9744 24.1024L34.0965 24.1898L34.2146 24.2823L34.3278 24.3806L34.4357 24.4834L34.5397 24.5925L34.6374 24.7055L34.7302 24.8232L34.8177 24.946L34.899 25.0722L34.9745 25.2035L35.0435 25.3378L35.1065 25.4766L35.1626 25.6185L35.2119 25.7637L35.2544 25.9124L35.2895 26.0631L35.317 26.2168L35.3371 26.3733L35.3493 26.5321L35.3534 26.6917ZM34.003 31.64V26.6917H35.3534V31.64H34.003ZM32.2284 34.765V33.4146L32.3199 33.4125L32.4093 33.4057L32.4971 33.3945L32.5842 33.3785L32.6702 33.3584L32.7536 33.335L32.8356 33.3067L32.9162 33.2751L32.9944 33.2394L33.0709 33.2003L33.1451 33.1574L33.2172 33.1112L33.2869 33.0615L33.3546 33.0081L33.4196 32.952L33.4815 32.8931L33.5404 32.8312L33.5965 32.7662L33.6499 32.6985L33.6996 32.6288L33.7458 32.5567L33.7887 32.4825L33.8278 32.406L33.8635 32.3278L33.8951 32.2471L33.9234 32.1652L33.9468 32.0818L33.9669 31.9958L33.9829 31.9087L33.9941 31.8209L34.0009 31.7315L34.003 31.64H35.3534L35.3493 31.7995L35.3371 31.9584L35.317 32.1148L35.2895 32.2686L35.2544 32.4193L35.2119 32.5679L35.1626 32.7132L35.1065 32.855L35.0435 32.9938L34.9745 33.1282L34.899 33.2595L34.8173 33.386L34.7302 33.5081L34.6374 33.6262L34.5397 33.7387L34.436 33.8476L34.3271 33.9513L34.2146 34.049L34.0965 34.1418L33.9744 34.2289L33.8479 34.3106L33.7166 34.3861L33.5822 34.4551L33.4434 34.5181L33.3016 34.5742L33.1563 34.6235L33.0077 34.666L32.857 34.7011L32.7032 34.7286L32.5468 34.7487L32.3879 34.7609L32.2284 34.765ZM27.2801 33.4146H32.2284V34.765H27.2801V33.4146ZM24.155 31.64H25.5055L25.5075 31.7315L25.5143 31.8209L25.5255 31.9087L25.5415 31.9958L25.5616 32.0818L25.5851 32.1652L25.6133 32.2471L25.6449 32.3278L25.6806 32.406L25.7198 32.4825L25.7626 32.5567L25.8089 32.6288L25.8585 32.6985L25.912 32.7662L25.9681 32.8312L26.0269 32.8931L26.0888 32.952L26.1538 33.0081L26.2215 33.0615L26.2912 33.1112L26.3633 33.1574L26.4375 33.2003L26.514 33.2394L26.5923 33.2751L26.6729 33.3067L26.7549 33.335L26.8382 33.3584L26.9243 33.3785L27.0113 33.3945L27.0991 33.4057L27.1886 33.4125L27.2801 33.4146V34.765L27.1205 34.7609L26.9617 34.7487L26.8052 34.7286L26.6515 34.7011L26.5008 34.666L26.3521 34.6235L26.2069 34.5742L26.065 34.5181L25.9262 34.4551L25.7919 34.3861L25.6606 34.3106L25.534 34.2289L25.4119 34.1418L25.2939 34.049L25.1813 33.9513L25.0724 33.8476L24.9687 33.7387L24.8711 33.6262L24.7782 33.5081L24.6911 33.386L24.6095 33.2595L24.534 33.1282L24.4649 32.9938L24.402 32.855L24.3459 32.7132L24.2965 32.5679L24.254 32.4193L24.219 32.2686L24.1914 32.1148L24.1714 31.9584L24.1591 31.7995L24.155 31.64ZM25.5055 26.6917V31.64H24.155V26.6917H25.5055ZM27.2801 23.5663V24.9167L27.1886 24.9188L27.0991 24.9256L27.0113 24.9368L26.9243 24.9528L26.8382 24.9728L26.7549 24.9963L26.6729 25.0245L26.5923 25.0562L26.5147 25.0916L26.4382 25.131L26.3627 25.1746L26.2912 25.2201L26.2215 25.2701L26.1538 25.3232L26.0895 25.3793L26.0266 25.4392L25.9681 25.5001L25.912 25.5654L25.8585 25.6328L25.8092 25.7025L25.7626 25.7749L25.7198 25.8491L25.6806 25.9256L25.6449 26.0039L25.6133 26.0845L25.5851 26.1665L25.5616 26.2498L25.5415 26.3359L25.5255 26.4229L25.5143 26.5107L25.5075 26.6002L25.5055 26.6917H24.155L24.1591 26.5321L24.1714 26.3733L24.1914 26.2168L24.219 26.0631L24.254 25.9124L24.2965 25.7637L24.3459 25.6185L24.402 25.4766L24.4649 25.3378L24.534 25.2035L24.6095 25.0722L24.6908 24.946L24.7782 24.8232L24.8711 24.7055L24.9687 24.5925L25.0728 24.4834L25.1806 24.3806L25.2939 24.2823L25.4119 24.1898L25.534 24.1024L25.6613 24.0207L25.7912 23.9459L25.9256 23.8765L26.065 23.8132L26.2069 23.7571L26.3521 23.7078L26.5008 23.6653L26.6515 23.6302L26.8052 23.6027L26.9617 23.5826L27.1205 23.5704L27.2801 23.5663Z" fill="#FFCE1A"/>
<path d="M29.5595 31.28C29.2986 31.5409 28.8737 31.5392 28.6111 31.2766C28.3485 31.014 28.3468 30.5892 28.6077 30.3283L29.5595 31.28ZM32.8287 28.0108L29.5595 31.28L28.6077 30.3283L31.877 27.059L32.8287 28.0108ZM31.877 27.059C32.1379 26.7981 32.5627 26.7998 32.8253 27.0624C33.0879 27.325 33.0896 27.7499 32.8287 28.0108L31.877 27.059Z" fill="#FFCE1A"/>
<path d="M28.6076 31.2801L29.5594 30.3284C29.8203 30.5893 29.8186 31.0141 29.556 31.2767C29.2934 31.5393 28.8685 31.541 28.6076 31.2801ZM26.9732 29.6457L27.925 28.6939L29.5594 30.3284L28.6076 31.2801L26.9732 29.6457ZM27.925 28.6939L26.9732 29.6457C26.7123 29.3848 26.714 28.9599 26.9766 28.6973C27.2392 28.4347 27.664 28.433 27.925 28.6939Z" fill="#FFCE1A"/>
<path d="M48.1949 24.9167H43.2466V23.5663H48.1949V24.9167ZM51.32 26.6917H49.9695L49.9675 26.6002L49.9607 26.5107L49.9495 26.4229L49.9335 26.3359L49.9134 26.2498L49.8899 26.1665L49.8617 26.0845L49.8301 26.0039L49.7943 25.9256L49.7552 25.8491L49.7124 25.7749L49.6658 25.7025L49.6164 25.6328L49.563 25.5654L49.5069 25.5001L49.4484 25.4392L49.3855 25.3793L49.3212 25.3232L49.2535 25.2701L49.1838 25.2201L49.1123 25.1746L49.0368 25.131L48.9603 25.0916L48.8827 25.0562L48.8021 25.0245L48.7201 24.9963L48.6368 24.9728L48.5507 24.9528L48.4636 24.9368L48.3759 24.9256L48.2864 24.9188L48.1949 24.9167V23.5663L48.3545 23.5704L48.5133 23.5826L48.6698 23.6027L48.8235 23.6302L48.9742 23.6653L49.1229 23.7078L49.2681 23.7571L49.41 23.8132L49.5494 23.8765L49.6838 23.9459L49.8137 24.0207L49.941 24.1024L50.0631 24.1898L50.1811 24.2823L50.2944 24.3806L50.4022 24.4834L50.5063 24.5925L50.6039 24.7055L50.6968 24.8232L50.7842 24.946L50.8655 25.0722L50.941 25.2035L51.0101 25.3378L51.073 25.4766L51.1291 25.6185L51.1785 25.7637L51.221 25.9124L51.256 26.0631L51.2836 26.2168L51.3036 26.3733L51.3159 26.5321L51.32 26.6917ZM49.9695 31.64V26.6917H51.32V31.64H49.9695ZM48.1949 34.765V33.4146L48.2864 33.4125L48.3759 33.4057L48.4636 33.3945L48.5507 33.3785L48.6368 33.3584L48.7201 33.335L48.8021 33.3067L48.8827 33.2751L48.961 33.2394L49.0375 33.2003L49.1117 33.1574L49.1838 33.1112L49.2535 33.0615L49.3212 33.0081L49.3862 32.952L49.4481 32.8931L49.5069 32.8312L49.563 32.7662L49.6164 32.6985L49.6661 32.6288L49.7124 32.5567L49.7552 32.4825L49.7943 32.406L49.8301 32.3278L49.8617 32.2471L49.8899 32.1652L49.9134 32.0818L49.9335 31.9958L49.9495 31.9087L49.9607 31.8209L49.9675 31.7315L49.9695 31.64H51.32L51.3159 31.7995L51.3036 31.9584L51.2836 32.1148L51.256 32.2686L51.221 32.4193L51.1785 32.5679L51.1291 32.7132L51.073 32.855L51.0101 32.9938L50.941 33.1282L50.8655 33.2595L50.7839 33.386L50.6968 33.5081L50.6039 33.6262L50.5063 33.7387L50.4026 33.8476L50.2937 33.9513L50.1811 34.049L50.0631 34.1418L49.941 34.2289L49.8144 34.3106L49.6831 34.3861L49.5488 34.4551L49.41 34.5181L49.2681 34.5742L49.1229 34.6235L48.9742 34.666L48.8235 34.7011L48.6698 34.7286L48.5133 34.7487L48.3545 34.7609L48.1949 34.765ZM43.2466 33.4146H48.1949V34.765H43.2466V33.4146ZM40.1216 31.64H41.472L41.4741 31.7315L41.4809 31.8209L41.4921 31.9087L41.5081 31.9958L41.5281 32.0818L41.5516 32.1652L41.5798 32.2471L41.6115 32.3278L41.6472 32.406L41.6863 32.4825L41.7292 32.5567L41.7754 32.6288L41.8251 32.6985L41.8785 32.7662L41.9346 32.8312L41.9935 32.8931L42.0554 32.952L42.1204 33.0081L42.188 33.0615L42.2578 33.1112L42.3299 33.1574L42.404 33.2003L42.4806 33.2394L42.5588 33.2751L42.6394 33.3067L42.7214 33.335L42.8048 33.3584L42.8908 33.3785L42.9779 33.3945L43.0657 33.4057L43.1551 33.4125L43.2466 33.4146V34.765L43.0871 34.7609L42.9282 34.7487L42.7718 34.7286L42.618 34.7011L42.4673 34.666L42.3187 34.6235L42.1734 34.5742L42.0316 34.5181L41.8928 34.4551L41.7584 34.3861L41.6271 34.3106L41.5006 34.2289L41.3785 34.1418L41.2604 34.049L41.1478 33.9513L41.039 33.8476L40.9352 33.7387L40.8376 33.6262L40.7448 33.5081L40.6577 33.386L40.576 33.2595L40.5005 33.1282L40.4315 32.9938L40.3685 32.855L40.3124 32.7132L40.2631 32.5679L40.2206 32.4193L40.1855 32.2686L40.158 32.1148L40.1379 31.9584L40.1257 31.7995L40.1216 31.64ZM41.472 26.6917V31.64H40.1216V26.6917H41.472ZM43.2466 23.5663V24.9167L43.1551 24.9188L43.0657 24.9256L42.9779 24.9368L42.8908 24.9528L42.8048 24.9728L42.7214 24.9963L42.6394 25.0245L42.5588 25.0562L42.4813 25.0916L42.4047 25.131L42.3292 25.1746L42.2578 25.2201L42.188 25.2701L42.1204 25.3232L42.0561 25.3793L41.9931 25.4392L41.9346 25.5001L41.8785 25.5654L41.8251 25.6328L41.7758 25.7025L41.7292 25.7749L41.6863 25.8491L41.6472 25.9256L41.6115 26.0039L41.5798 26.0845L41.5516 26.1665L41.5281 26.2498L41.5081 26.3359L41.4921 26.4229L41.4809 26.5107L41.4741 26.6002L41.472 26.6917H40.1216L40.1257 26.5321L40.1379 26.3733L40.158 26.2168L40.1855 26.0631L40.2206 25.9124L40.2631 25.7637L40.3124 25.6185L40.3685 25.4766L40.4315 25.3378L40.5005 25.2035L40.576 25.0722L40.6573 24.946L40.7448 24.8232L40.8376 24.7055L40.9352 24.5925L41.0393 24.4834L41.1472 24.3806L41.2604 24.2823L41.3785 24.1898L41.5006 24.1024L41.6278 24.0207L41.7577 23.9459L41.8921 23.8765L42.0316 23.8132L42.1734 23.7571L42.3187 23.7078L42.4673 23.6653L42.618 23.6302L42.7718 23.6027L42.9282 23.5826L43.0871 23.5704L43.2466 23.5663Z" fill="#FFCE1A"/>
<path d="M45.5258 31.28C45.2649 31.5409 44.84 31.5392 44.5774 31.2766C44.3148 31.014 44.3131 30.5892 44.574 30.3283L45.5258 31.28ZM48.795 28.0108L45.5258 31.28L44.574 30.3283L47.8433 27.059L48.795 28.0108ZM47.8433 27.059C48.1042 26.7981 48.529 26.7998 48.7916 27.0624C49.0542 27.325 49.0559 27.7499 48.795 28.0108L47.8433 27.059Z" fill="#FFCE1A"/>
<path d="M44.5742 31.2801L45.526 30.3284C45.7869 30.5893 45.7852 31.0141 45.5226 31.2767C45.26 31.5393 44.8351 31.541 44.5742 31.2801ZM42.9397 29.6457L43.8915 28.6939L45.526 30.3284L44.5742 31.2801L42.9397 29.6457ZM43.8915 28.6939L42.9397 29.6457C42.6788 29.3848 42.6805 28.9599 42.9431 28.6973C43.2057 28.4347 43.6306 28.433 43.8915 28.6939Z" fill="#FFCE1A"/>
<path d="M16.2617 40.3752H11.313V39.0248H16.2617V40.3752ZM19.3867 42.1498H18.0363L18.0342 42.0583L18.0274 41.9689L18.0162 41.8811L18.0002 41.794L17.9802 41.708L17.9567 41.6246L17.9284 41.5426L17.8968 41.462L17.8614 41.3845L17.822 41.3079L17.7784 41.2324L17.7329 41.161L17.6829 41.0912L17.6298 41.0236L17.5737 40.9593L17.5138 40.8963L17.4529 40.8378L17.3876 40.7817L17.3202 40.7283L17.2505 40.679L17.1777 40.632L17.1042 40.5895L17.0277 40.5504L16.9488 40.5147L16.8685 40.4827L16.7872 40.4551L16.7032 40.4313L16.6171 40.4113L16.5304 40.3953L16.4426 40.3841L16.3532 40.3773L16.2617 40.3752V39.0248L16.4212 39.0289L16.5801 39.0411L16.7365 39.0612L16.8906 39.0887L17.0406 39.1238L17.1893 39.1659L17.3352 39.2159L17.4767 39.2717L17.6148 39.3347L17.7499 39.4037L17.8812 39.4796L18.007 39.5605L18.1298 39.648L18.2475 39.7408L18.3604 39.8384L18.4696 39.9425L18.5724 40.0504L18.6707 40.1636L18.7632 40.2817L18.8506 40.4038L18.9323 40.531L19.0071 40.6609L19.0765 40.7953L19.1398 40.9348L19.1959 41.0766L19.2452 41.2219L19.2877 41.3705L19.3228 41.5212L19.3503 41.675L19.3704 41.8314L19.3826 41.9903L19.3867 42.1498ZM18.0363 47.0981V42.1498H19.3867V47.0981H18.0363ZM16.2617 50.2232V48.8727L16.3532 48.8707L16.4426 48.8639L16.5304 48.8527L16.6171 48.8367L16.7032 48.8166L16.7872 48.7928L16.8685 48.7652L16.9488 48.7333L17.0277 48.6975L17.1042 48.6584L17.1777 48.6159L17.2505 48.569L17.3202 48.5196L17.3876 48.4662L17.4529 48.4101L17.5138 48.3516L17.5737 48.2887L17.6298 48.2244L17.6829 48.1567L17.7329 48.087L17.7784 48.0155L17.822 47.94L17.8614 47.8635L17.8968 47.7859L17.9284 47.7053L17.9567 47.6233L17.9802 47.54L18.0002 47.4539L18.0162 47.3668L18.0274 47.2791L18.0342 47.1896L18.0363 47.0981H19.3867L19.3826 47.2577L19.3704 47.4165L19.3503 47.573L19.3228 47.7267L19.2877 47.8774L19.2452 48.0261L19.1959 48.1713L19.1398 48.3132L19.0765 48.4526L19.0071 48.587L18.9323 48.7169L18.8506 48.8442L18.7632 48.9663L18.6707 49.0843L18.5724 49.1976L18.4696 49.3054L18.3604 49.4095L18.2475 49.5071L18.1298 49.6L18.007 49.6874L17.8812 49.7684L17.7499 49.8442L17.6148 49.9133L17.4767 49.9762L17.3352 50.032L17.1893 50.082L17.0406 50.1242L16.8906 50.1592L16.7365 50.1868L16.5801 50.2068L16.4212 50.2191L16.2617 50.2232ZM11.313 48.8727H16.2617V50.2232H11.313V48.8727ZM8.18799 47.0981H9.53842L9.54046 47.1896L9.54727 47.2791L9.55849 47.3668L9.57448 47.4539L9.59455 47.54L9.61802 47.6233L9.64625 47.7053L9.67789 47.7859L9.7136 47.8642L9.75272 47.9407L9.79558 48.0148L9.84184 48.087L9.89151 48.1567L9.94491 48.2244L10.001 48.2894L10.0599 48.3513L10.1218 48.4101L10.1868 48.4662L10.2545 48.5196L10.3242 48.5693L10.3963 48.6156L10.4705 48.6584L10.547 48.6975L10.6252 48.7333L10.7058 48.7649L10.7878 48.7931L10.8712 48.8166L10.9572 48.8367L11.0443 48.8527L11.1321 48.8639L11.2215 48.8707L11.313 48.8727V50.2232L11.1535 50.2191L10.9946 50.2068L10.8382 50.1868L10.6844 50.1592L10.5337 50.1242L10.3851 50.0817L10.2398 50.0323L10.098 49.9762L9.9592 49.9133L9.82483 49.8442L9.69353 49.7687L9.56699 49.6871L9.44488 49.6L9.32684 49.5071L9.21425 49.4095L9.1054 49.3058L9.00165 49.1969L8.90402 49.0843L8.81116 48.9663L8.72408 48.8442L8.64244 48.7176L8.56693 48.5863L8.49787 48.452L8.43494 48.3132L8.37882 48.1713L8.32949 48.0261L8.28697 47.8774L8.25194 47.7267L8.22439 47.573L8.20432 47.4165L8.19207 47.2577L8.18799 47.0981ZM9.53842 42.1498V47.0981H8.18799V42.1498H9.53842ZM11.313 39.0248V40.3752L11.2215 40.3773L11.1321 40.3841L11.0443 40.3953L10.9572 40.4113L10.8712 40.4313L10.7878 40.4548L10.7058 40.483L10.6252 40.5147L10.547 40.5504L10.4705 40.5895L10.3963 40.6324L10.3242 40.6786L10.2545 40.7283L10.1868 40.7817L10.1218 40.8378L10.0599 40.8967L10.001 40.9586L9.94491 41.0236L9.89151 41.0912L9.84184 41.161L9.79558 41.2331L9.75272 41.3072L9.7136 41.3838L9.67789 41.462L9.64625 41.5426L9.61802 41.6246L9.59455 41.708L9.57448 41.794L9.55849 41.8811L9.54727 41.9689L9.54046 42.0583L9.53842 42.1498H8.18799L8.19207 41.9903L8.20432 41.8314L8.22439 41.675L8.25194 41.5212L8.28697 41.3705L8.32949 41.2219L8.37882 41.0766L8.43494 40.9348L8.49787 40.796L8.56693 40.6616L8.64244 40.5303L8.72408 40.4038L8.81116 40.2817L8.90402 40.1636L9.00165 40.051L9.1054 39.9422L9.21425 39.8384L9.32684 39.7408L9.44488 39.648L9.56699 39.5609L9.69353 39.4792L9.82483 39.4037L9.9592 39.3347L10.098 39.2717L10.2398 39.2156L10.3851 39.1663L10.5337 39.1238L10.6844 39.0887L10.8382 39.0612L10.9946 39.0411L11.1535 39.0289L11.313 39.0248Z" fill="#FFCE1A"/>
<path d="M13.5924 46.7385C13.3315 46.9994 12.9067 46.9977 12.6441 46.7351C12.3815 46.4725 12.3798 46.0477 12.6407 45.7868L13.5924 46.7385ZM16.8617 43.4693L13.5924 46.7385L12.6407 45.7868L15.9099 42.5175L16.8617 43.4693ZM15.9099 42.5175C16.1708 42.2566 16.5957 42.2583 16.8583 42.5209C17.1209 42.7835 17.1226 43.2084 16.8617 43.4693L15.9099 42.5175Z" fill="#FFCE1A"/>
<path d="M12.6406 46.7386L13.5924 45.7868C13.8533 46.0477 13.8516 46.4726 13.589 46.7352C13.3264 46.9978 12.9015 46.9995 12.6406 46.7386ZM11.0061 45.1038L11.9579 44.152L13.5924 45.7868L12.6406 46.7386L11.0061 45.1038ZM11.9579 44.152L11.0061 45.1038C10.7452 44.8429 10.7469 44.418 11.0095 44.1554C11.2721 43.8928 11.697 43.8911 11.9579 44.152Z" fill="#FFCE1A"/>
</svg>
