<svg width="19" height="19" viewBox="0 0 19 19" fill="none" xmlns="http://www.w3.org/2000/svg">
<path d="M5.12308 1.95846L3.80308 0.638461C1.58769 2.32769 0.129231 4.93077 0 7.88461H1.84615C1.98462 5.43846 3.24 3.29692 5.12308 1.95846ZM16.56 7.88461H18.4062C18.2677 4.93077 16.8092 2.32769 14.6031 0.638461L13.2923 1.95846C15.1569 3.29692 16.4215 5.43846 16.56 7.88461ZM14.7415 8.34615C14.7415 5.51231 13.2277 3.14 10.5877 2.51231V1.88461C10.5877 1.11846 9.96923 0.5 9.20307 0.5C8.43692 0.5 7.81846 1.11846 7.81846 1.88461V2.51231C5.16923 3.14 3.66461 5.50308 3.66461 8.34615V12.9615L1.81846 14.8077V15.7308H16.5877V14.8077L14.7415 12.9615V8.34615ZM9.20307 18.5C9.33231 18.5 9.45231 18.4908 9.57231 18.4631C10.1723 18.3338 10.6615 17.9277 10.9015 17.3738C10.9938 17.1523 11.04 16.9123 11.04 16.6538H7.34769C7.35692 17.6692 8.17846 18.5 9.20307 18.5Z" fill="#FFCE1A"/>
</svg>
