<svg width="98" height="38" viewBox="0 0 98 38" fill="none" xmlns="http://www.w3.org/2000/svg">
<path fill-rule="evenodd" clip-rule="evenodd" d="M0 0H98V31.3195H0V0Z" fill="#1DABA1"/>
<path d="M86.5489 20.9427C86.5489 22.4459 85.9349 23.8118 84.946 24.8006C83.9572 25.7895 82.5913 26.4035 81.0882 26.4035H79.4691C77.966 26.4035 76.6001 25.7895 75.6112 24.8006C74.6224 23.8118 74.0083 22.4459 74.0083 20.9427V14.19C74.0083 12.6869 74.6224 11.321 75.6112 10.3322C76.6001 9.34331 77.966 8.72925 79.4691 8.72925H81.0882C82.5913 8.72925 83.9569 9.34331 84.9458 10.3322C85.9349 11.3213 86.5489 12.6872 86.5489 14.19V18.6274L76.6335 18.6268V20.9427C76.6335 21.7209 76.953 22.4297 77.4676 22.9443C77.9821 23.4588 78.6909 23.7783 79.4691 23.7783H81.0882C81.8664 23.7783 82.5751 23.4588 83.0897 22.9443C83.6042 22.4297 83.9237 21.7209 83.9237 20.9427H86.5489ZM76.6335 14.19V16.0118L83.9237 16.0121V14.19C83.9237 13.4121 83.6039 12.7031 83.0894 12.1885C82.5748 11.674 81.8664 11.3545 81.0882 11.3545H79.4691C78.6909 11.3545 77.9821 11.674 77.4676 12.1885C76.953 12.7031 76.6335 13.4118 76.6335 14.19Z" fill="white"/>
<path d="M46.5259 14.19C46.5259 12.6869 47.1399 11.321 48.1288 10.3322C49.1176 9.34331 50.4836 8.72925 51.9867 8.72925H53.6057C55.1089 8.72925 56.4748 9.34331 57.4636 10.3322C58.4525 11.321 59.0665 12.6869 59.0665 14.19V20.9427C59.0665 22.4459 58.4525 23.8118 57.4636 24.8006C56.4748 25.7895 55.1089 26.4035 53.6057 26.4035V23.7783C54.384 23.7783 55.0927 23.4588 55.6073 22.9443C56.1218 22.4297 56.4413 21.7209 56.4413 20.9427V14.19C56.4413 13.4118 56.1218 12.7031 55.6073 12.1885C55.0927 11.674 54.384 11.3545 53.6057 11.3545H51.9867C51.2085 11.3545 50.4997 11.674 49.9852 12.1885C49.4706 12.7031 49.1511 13.4118 49.1511 14.19H46.5259Z" fill="white"/>
<path d="M51.3683 15.5732H53.6519C55.1388 15.5732 56.4917 16.1822 57.4723 17.1625L57.4777 17.1679C58.4581 18.1486 59.067 19.5014 59.067 20.9884C59.067 22.4753 58.4581 23.8282 57.4777 24.8088L57.4723 24.8142C56.4917 25.7946 55.1388 26.4035 53.6519 26.4035H51.3683C49.8813 26.4035 48.5284 25.7946 47.5478 24.8142L47.5424 24.8088C46.5621 23.8282 45.9531 22.4753 45.9531 20.9884C45.9531 19.5014 46.5621 18.1486 47.5424 17.1679L47.5478 17.1625C48.5284 16.1822 49.8813 15.5732 51.3683 15.5732ZM53.6519 18.1984H51.3683C50.6003 18.1984 49.902 18.5117 49.3962 19.0164C48.8916 19.5221 48.5783 20.2204 48.5783 20.9884C48.5783 21.7561 48.8916 22.4547 49.3962 22.9604C49.902 23.4651 50.6003 23.7783 51.3683 23.7783H53.6519C54.4196 23.7783 55.1181 23.4651 55.6239 22.9604C56.1285 22.4547 56.4418 21.7561 56.4418 20.9884C56.4418 20.2204 56.1285 19.5221 55.6239 19.0164C55.1181 18.5117 54.4196 18.1984 53.6519 18.1984Z" fill="white"/>
<path d="M63.9663 26.1221V11.7982C63.9663 10.2951 64.5804 8.92917 65.5692 7.94032C66.5581 6.95147 67.924 6.3374 69.4271 6.3374H71.6322V8.96264H69.4271C68.6489 8.96264 67.9401 9.28214 67.4256 9.79669C66.911 10.3112 66.5915 11.02 66.5915 11.7982V26.1221H63.9663Z" fill="white"/>
<path d="M40.7509 14.19C40.7509 13.4118 40.4314 12.7031 39.9168 12.1885C39.4023 11.674 38.6935 11.3545 37.9153 11.3545H36.2962C35.5183 11.3545 34.8096 11.6743 34.295 12.1888C33.7805 12.7034 33.4607 13.4121 33.4607 14.19H33.4556C33.4556 15.806 35.4222 16.0864 37.3679 16.3634C40.3874 16.7934 43.3764 17.2192 43.3764 20.9427C43.3764 22.7872 42.8358 24.0859 41.9487 24.973C40.9077 26.014 39.4729 26.4035 37.9156 26.4035H36.2965C34.7934 26.4035 33.4275 25.7895 32.4387 24.8006C31.4498 23.8118 30.8357 22.4459 30.8357 20.9427H33.461C33.461 21.7209 33.7805 22.4297 34.295 22.9443C34.8096 23.4588 35.5183 23.7783 36.2965 23.7783H37.9156C38.822 23.7783 39.6109 23.598 40.0923 23.1166C40.5014 22.7075 40.7512 22.0161 40.7512 20.9427C40.7512 19.4923 38.8843 19.2264 36.9988 18.958C33.9358 18.5219 30.8403 18.0808 30.8406 14.19H30.8354C30.8354 12.6872 31.4498 11.3213 32.4387 10.3324C33.4275 9.34359 34.7934 8.72925 36.2962 8.72925H37.9153C39.4184 8.72925 40.7843 9.34331 41.7732 10.3322C42.762 11.321 43.3761 12.6869 43.3761 14.19H40.7509Z" fill="white"/>
<path d="M71.4602 15.9267H62.5044V13.3015H71.4602V15.9267Z" fill="white"/>
<path d="M19.7025 8.72534C22.1596 8.72534 24.3845 9.72183 25.9945 11.3318V11.3398C26.0708 11.416 26.1459 11.494 26.2194 11.5731L23.3064 14.4861C23.2344 14.403 23.1595 14.3222 23.0819 14.2445L23.0779 14.2485C22.2146 13.3852 21.0208 12.8508 19.7025 12.8508C18.3808 12.8508 17.1862 13.3835 16.3229 14.2445C15.4619 15.1078 14.9292 16.3025 14.9292 17.6241C14.9292 18.9424 15.4636 20.1362 16.3269 20.9995L16.3229 21.0035C17.1862 21.8645 18.3808 22.3972 19.7025 22.3972C21.0239 22.3972 22.2186 21.8645 23.0819 21.0035L23.0779 20.9995C23.14 20.9374 23.2006 20.8733 23.2593 20.8078L26.1782 23.7268C26.1179 23.7908 26.0566 23.8541 25.9945 23.9162H25.9866C24.376 25.5265 22.1537 26.5227 19.7025 26.5227C17.2511 26.5227 15.0287 25.5265 13.4182 23.9162H13.4102C11.8002 22.3062 10.8037 20.0812 10.8037 17.6241C10.8037 15.1727 11.7999 12.9503 13.4102 11.3398L13.4182 11.3318C15.0287 9.72155 17.2511 8.72534 19.7025 8.72534Z" fill="white"/>
<path d="M13.2169 23.7165C11.7208 22.1246 10.8037 19.9811 10.8037 17.6241C10.8037 15.294 11.7041 13.1708 13.1758 11.5835L16.089 14.4968C15.3664 15.3337 14.9292 16.4265 14.9292 17.6241C14.9292 18.8423 15.3857 19.9541 16.1361 20.7973L13.2169 23.7165Z" fill="#FDB92E"/>
<path fill-rule="evenodd" clip-rule="evenodd" d="M0 38H98V31.3196H0V38Z" fill="#FFCC29"/>
<path d="M17.8018 36.8873H18.4127C18.47 36.8873 18.4892 36.849 18.47 36.7983L17.719 34.9204C17.7127 34.9014 17.719 34.8824 17.738 34.8759C18.1774 34.7041 18.451 34.2905 18.451 33.7237C18.451 32.9538 17.9608 32.4253 17.2226 32.4253H15.752C15.7075 32.4253 15.6758 32.457 15.6758 32.5018V36.811C15.6758 36.8555 15.7075 36.8873 15.752 36.8873H16.3378C16.3823 36.8873 16.414 36.8555 16.414 36.811V34.997C16.414 34.9777 16.4268 34.9649 16.4461 34.9649H16.987C16.9997 34.9649 17.0125 34.9777 17.0187 34.9904L17.7127 36.8235C17.7252 36.8618 17.7573 36.8873 17.8018 36.8873ZM16.4461 33.0617H17.1143C17.4706 33.0617 17.7127 33.3229 17.7127 33.7365C17.7127 34.1376 17.4706 34.3922 17.1143 34.3922H16.4461C16.4268 34.3922 16.414 34.3795 16.414 34.3605V33.0938C16.414 33.0745 16.4268 33.0617 16.4461 33.0617ZM20.2776 36.3081C19.9657 36.3081 19.7494 36.117 19.7049 35.8369C19.6921 35.7544 19.6856 35.6589 19.6856 35.5506C19.6856 35.5316 19.6984 35.5189 19.7177 35.5189H21.4297C21.4742 35.5189 21.5063 35.4933 21.5063 35.4423C21.5063 35.2388 21.4935 34.9649 21.4742 34.7486C21.4107 34.0358 21.0096 33.5837 20.2203 33.5837C19.5138 33.5837 19.0557 33.9911 18.9791 34.6151C18.9536 34.7996 18.9474 35.0032 18.9474 35.2322C18.9474 35.5316 18.9729 35.7924 19.0364 36.028C19.1509 36.5755 19.5838 36.9383 20.2396 36.9383C20.8695 36.9383 21.2834 36.6138 21.4362 36.1171C21.449 36.0663 21.4235 36.0342 21.379 36.0218L20.9078 35.9007C20.8633 35.888 20.8315 35.907 20.8123 35.9518C20.7232 36.1553 20.5449 36.3016 20.2776 36.3081ZM20.2141 34.2204C20.5132 34.2204 20.6977 34.405 20.736 34.6851C20.7488 34.7676 20.755 34.8631 20.7615 34.9586C20.7615 34.9776 20.7488 34.9904 20.7295 34.9904H19.7177C19.6984 34.9904 19.6856 34.9776 19.6856 34.9586C19.6856 34.8569 19.6984 34.7551 19.7111 34.6658C19.7557 34.3984 19.934 34.2204 20.2141 34.2204ZM23.1993 36.9256C23.9251 36.9256 24.4022 36.5689 24.4022 35.9835C24.4022 35.3533 23.8486 35.1432 23.3967 34.9904C23.0338 34.8697 22.7157 34.7869 22.7157 34.5257C22.7157 34.3284 22.9002 34.1756 23.1803 34.1756C23.4794 34.1756 23.6705 34.3412 23.6705 34.545V34.5958C23.6705 34.6278 23.7023 34.6468 23.7468 34.6468H24.2815C24.326 34.6468 24.3577 34.6151 24.3577 34.5703V34.564C24.3577 33.9848 23.8931 33.5965 23.1738 33.5965C22.4801 33.5965 22.0092 33.9531 22.0092 34.5578C22.0092 35.1877 22.5374 35.4043 22.9637 35.5444C23.3204 35.6779 23.664 35.7479 23.664 36.0153C23.664 36.2191 23.4857 36.3716 23.1993 36.3716C22.9002 36.3716 22.6902 36.1998 22.6902 35.9963V35.9452C22.6902 35.9197 22.6584 35.9007 22.6136 35.9007H22.0599C22.0154 35.9007 21.9837 35.9325 21.9837 35.977V36.028C21.9837 36.5562 22.4546 36.9256 23.1993 36.9256ZM26.4647 34.1184V33.711C26.4647 33.6664 26.4329 33.6347 26.3882 33.6347H25.8727C25.8535 33.6347 25.8407 33.622 25.8407 33.603V32.8772C25.8407 32.8327 25.809 32.8009 25.7645 32.8009H25.2042C25.1597 32.8009 25.128 32.8327 25.128 32.8772V33.603C25.128 33.622 25.1152 33.6347 25.0962 33.6347H24.8034C24.7589 33.6347 24.7268 33.6664 24.7268 33.711V34.1184C24.7268 34.1632 24.7589 34.1949 24.8034 34.1949H25.0962C25.1152 34.1949 25.128 34.2077 25.128 34.2267V36.0915C25.128 36.7473 25.5036 36.8811 26.0701 36.8811H26.3374C26.3882 36.8746 26.4137 36.8428 26.4137 36.7983V36.3209C26.4137 36.2764 26.3819 36.2444 26.3374 36.2444H26.2229C25.9683 36.2444 25.8407 36.1363 25.8407 35.8179V34.2267C25.8407 34.2077 25.8535 34.1949 25.8727 34.1949H26.3882C26.4329 34.1949 26.4647 34.1632 26.4647 34.1184ZM28.215 36.9383C28.896 36.9383 29.3607 36.5562 29.4562 35.939C29.4945 35.7351 29.5135 35.4678 29.5135 35.2515C29.5135 35.0287 29.4945 34.7676 29.4562 34.564C29.3607 33.9721 28.896 33.5837 28.2216 33.5837C27.5213 33.5837 27.0566 33.9721 26.9611 34.5703C26.9294 34.7613 26.9101 35.0287 26.9101 35.2578C26.9101 35.4743 26.9294 35.7479 26.9611 35.939C27.0566 36.5562 27.5275 36.9383 28.215 36.9383ZM28.215 36.3016C27.9287 36.3016 27.7314 36.1171 27.6803 35.8245C27.6613 35.6524 27.6486 35.4551 27.6486 35.2578C27.6486 35.0542 27.6613 34.8631 27.6803 34.6978C27.7314 34.405 27.9287 34.2204 28.2088 34.2204C28.4889 34.2204 28.6924 34.405 28.7369 34.6978C28.7625 34.8631 28.7687 35.0542 28.7687 35.2578C28.7687 35.4488 28.7625 35.6524 28.7369 35.8245C28.6862 36.1171 28.4889 36.3016 28.215 36.3016ZM31.5569 33.5965C31.2386 33.5965 31.035 33.7685 30.9012 34.0166C30.8884 34.0421 30.8694 34.0359 30.8694 34.0038V33.711C30.8694 33.6664 30.8377 33.6347 30.7929 33.6347H30.2075C30.163 33.6347 30.1309 33.6664 30.1309 33.711V36.811C30.1309 36.8555 30.163 36.8873 30.2075 36.8873H30.7929C30.8377 36.8873 30.8694 36.8555 30.8694 36.811V35.0097C30.8694 34.653 31.0923 34.405 31.3786 34.3729C31.5059 34.3477 31.627 34.3667 31.7097 34.3922C31.7605 34.4112 31.7922 34.3985 31.7988 34.3477L31.9071 33.7685C31.9133 33.7303 31.9071 33.692 31.8688 33.673C31.7922 33.6285 31.697 33.5965 31.5569 33.5965ZM33.5426 36.3081C33.2307 36.3081 33.0144 36.117 32.9699 35.8369C32.9571 35.7544 32.9506 35.6589 32.9506 35.5506C32.9506 35.5316 32.9634 35.5189 32.9827 35.5189H34.6947C34.7392 35.5189 34.7713 35.4933 34.7713 35.4423C34.7713 35.2388 34.7585 34.9649 34.7392 34.7486C34.6757 34.0358 34.2746 33.5837 33.4853 33.5837C32.7788 33.5837 32.3207 33.9911 32.2441 34.6151C32.2186 34.7996 32.2124 35.0032 32.2124 35.2322C32.2124 35.5316 32.2379 35.7924 32.3014 36.028C32.4159 36.5755 32.8488 36.9383 33.5046 36.9383C34.1345 36.9383 34.5484 36.6138 34.7012 36.1171C34.714 36.0663 34.6885 36.0342 34.644 36.0218L34.1728 35.9007C34.1283 35.888 34.0965 35.907 34.0773 35.9518C33.9882 36.1553 33.8099 36.3016 33.5426 36.3081ZM33.4791 34.2204C33.7782 34.2204 33.9627 34.405 34.001 34.6851C34.0138 34.7676 34.02 34.8631 34.0265 34.9586C34.0265 34.9776 34.0138 34.9904 33.9945 34.9904H32.9827C32.9634 34.9904 32.9506 34.9776 32.9506 34.9586C32.9506 34.8569 32.9634 34.7551 32.9761 34.6658C33.0207 34.3984 33.199 34.2204 33.4791 34.2204Z" fill="#1DABA1"/>
<path d="M42.619 32.4253H41.1488C41.104 32.4253 41.0723 32.457 41.0723 32.5018V36.811C41.0723 36.8555 41.104 36.8873 41.1488 36.8873H41.7342C41.7787 36.8873 41.8108 36.8555 41.8108 36.811V35.0732C41.8108 35.0542 41.8233 35.0414 41.8425 35.0414H42.6253C43.3638 35.0414 43.8667 34.5257 43.8667 33.7492C43.8667 32.96 43.3638 32.4253 42.619 32.4253ZM42.5107 34.4495H41.8425C41.8233 34.4495 41.8108 34.4367 41.8108 34.4177V33.0938C41.8108 33.0745 41.8233 33.0617 41.8425 33.0617H42.5107C42.8799 33.0617 43.1282 33.3356 43.1282 33.762C43.1282 34.1822 42.8799 34.4495 42.5107 34.4495ZM45.8081 33.5965C45.4898 33.5965 45.2862 33.7685 45.1524 34.0166C45.1396 34.0421 45.1207 34.0359 45.1207 34.0038V33.711C45.1207 33.6664 45.0889 33.6347 45.0441 33.6347H44.4587C44.4142 33.6347 44.3821 33.6664 44.3821 33.711V36.811C44.3821 36.8555 44.4142 36.8873 44.4587 36.8873H45.0441C45.0889 36.8873 45.1207 36.8555 45.1207 36.811V35.0097C45.1207 34.653 45.3435 34.405 45.6298 34.3729C45.7571 34.3477 45.8782 34.3667 45.961 34.3922C46.0117 34.4112 46.0434 34.3985 46.05 34.3477L46.1583 33.7685C46.1645 33.7303 46.1583 33.692 46.12 33.673C46.0434 33.6285 45.9482 33.5965 45.8081 33.5965ZM47.762 36.9383C48.443 36.9383 48.9077 36.5562 49.0032 35.939C49.0415 35.7351 49.0605 35.4678 49.0605 35.2515C49.0605 35.0287 49.0415 34.7676 49.0032 34.564C48.9077 33.9721 48.443 33.5837 47.7685 33.5837C47.0683 33.5837 46.6036 33.9721 46.5081 34.5703C46.4764 34.7613 46.4571 35.0287 46.4571 35.2578C46.4571 35.4743 46.4764 35.7479 46.5081 35.939C46.6036 36.5562 47.0745 36.9383 47.762 36.9383ZM47.762 36.3016C47.4757 36.3016 47.2784 36.1171 47.2273 35.8245C47.2084 35.6524 47.1956 35.4551 47.1956 35.2578C47.1956 35.0542 47.2084 34.8631 47.2273 34.6978C47.2784 34.405 47.4757 34.2204 47.7558 34.2204C48.0359 34.2204 48.2394 34.405 48.284 34.6978C48.3095 34.8631 48.3157 35.0542 48.3157 35.2578C48.3157 35.4488 48.3095 35.6524 48.284 35.8245C48.2332 36.1171 48.0359 36.3016 47.762 36.3016ZM51.1802 34.1184V33.711C51.1802 33.6664 51.1484 33.6347 51.1037 33.6347H50.5882C50.569 33.6347 50.5562 33.622 50.5562 33.603V32.8772C50.5562 32.8327 50.5245 32.8009 50.48 32.8009H49.9197C49.8752 32.8009 49.8435 32.8327 49.8435 32.8772V33.603C49.8435 33.622 49.8307 33.6347 49.8117 33.6347H49.5189C49.4744 33.6347 49.4423 33.6664 49.4423 33.711V34.1184C49.4423 34.1632 49.4744 34.1949 49.5189 34.1949H49.8117C49.8307 34.1949 49.8435 34.2077 49.8435 34.2267V36.0915C49.8435 36.7473 50.2191 36.8811 50.7856 36.8811H51.0529C51.1037 36.8746 51.1292 36.8428 51.1292 36.7983V36.3209C51.1292 36.2764 51.0974 36.2444 51.0529 36.2444H50.9384C50.6838 36.2444 50.5562 36.1363 50.5562 35.8179V34.2267C50.5562 34.2077 50.569 34.1949 50.5882 34.1949H51.1037C51.1484 34.1949 51.1802 34.1632 51.1802 34.1184ZM52.9623 36.3081C52.6504 36.3081 52.4341 36.117 52.3896 35.8369C52.3769 35.7544 52.3703 35.6589 52.3703 35.5506C52.3703 35.5316 52.3831 35.5189 52.4024 35.5189H54.1144C54.1589 35.5189 54.191 35.4933 54.191 35.4423C54.191 35.2388 54.1782 34.9649 54.1589 34.7486C54.0954 34.0358 53.6943 33.5837 52.905 33.5837C52.1985 33.5837 51.7404 33.9911 51.6638 34.6151C51.6383 34.7996 51.6321 35.0032 51.6321 35.2322C51.6321 35.5316 51.6576 35.7924 51.7211 36.028C51.8356 36.5755 52.2686 36.9383 52.9243 36.9383C53.5542 36.9383 53.9682 36.6138 54.121 36.1171C54.1337 36.0663 54.1082 36.0342 54.0637 36.0218L53.5925 35.9007C53.548 35.888 53.5162 35.907 53.497 35.9518C53.4079 36.1553 53.2296 36.3016 52.9623 36.3081ZM52.8988 34.2204C53.1979 34.2204 53.3824 34.405 53.4207 34.6851C53.4335 34.7676 53.4397 34.8631 53.4462 34.9586C53.4462 34.9776 53.4335 34.9904 53.4142 34.9904H52.4024C52.3831 34.9904 52.3703 34.9776 52.3703 34.9586C52.3703 34.8569 52.3831 34.7551 52.3959 34.6658C52.4404 34.3984 52.6187 34.2204 52.8988 34.2204ZM55.9986 36.9383C56.6798 36.9383 57.1635 36.5627 57.2397 35.9835C57.2463 35.9518 57.2463 35.9135 57.2525 35.8752C57.2525 35.8245 57.2208 35.7989 57.1762 35.7924L56.6033 35.7417C56.5588 35.7352 56.5205 35.7669 56.5143 35.8117L56.5078 35.8752C56.476 36.1043 56.2914 36.3016 55.9923 36.3016C55.7057 36.3016 55.5212 36.117 55.4832 35.8435C55.4577 35.6969 55.4449 35.4933 55.4449 35.2578C55.4449 35.0349 55.4577 34.8314 55.4767 34.6851C55.5149 34.405 55.7057 34.2204 55.9923 34.2204C56.2787 34.2204 56.4698 34.405 56.5078 34.6278C56.5143 34.653 56.5205 34.6851 56.5205 34.7231C56.527 34.7741 56.5525 34.7996 56.6033 34.7931L57.1825 34.7358C57.227 34.7296 57.259 34.7041 57.2525 34.653C57.2525 34.6023 57.2398 34.545 57.2335 34.494C57.138 33.9593 56.6606 33.5837 55.9986 33.5837C55.3176 33.5837 54.8464 33.9721 54.7574 34.5578C54.7257 34.7424 54.7064 34.9904 54.7064 35.2515C54.7064 35.4933 54.7191 35.7545 54.7574 35.9518C54.8464 36.5562 55.3111 36.9383 55.9986 36.9383ZM59.334 34.1184V33.711C59.334 33.6664 59.3022 33.6347 59.2574 33.6347H58.742C58.7227 33.6347 58.71 33.622 58.71 33.603V32.8772C58.71 32.8327 58.6782 32.8009 58.6337 32.8009H58.0735C58.029 32.8009 57.9973 32.8327 57.9973 32.8772V33.603C57.9973 33.622 57.9845 33.6347 57.9655 33.6347H57.6727C57.6281 33.6347 57.5961 33.6664 57.5961 33.711V34.1184C57.5961 34.1632 57.6281 34.1949 57.6727 34.1949H57.9655C57.9845 34.1949 57.9973 34.2077 57.9973 34.2267V36.0915C57.9973 36.7473 58.3729 36.8811 58.9393 36.8811H59.2067C59.2574 36.8746 59.2829 36.8428 59.2829 36.7983V36.3209C59.2829 36.2764 59.2512 36.2444 59.2067 36.2444H59.0921C58.8376 36.2444 58.71 36.1363 58.71 35.8179V34.2267C58.71 34.2077 58.7227 34.1949 58.742 34.1949H59.2574C59.3022 34.1949 59.334 34.1632 59.334 34.1184Z" fill="#1DABA1"/>
<path d="M68.289 32.9918V32.5081C68.289 32.4636 68.257 32.4319 68.2124 32.4319H65.7491C65.7046 32.4319 65.6729 32.4636 65.6729 32.5081V36.8111C65.6729 36.8556 65.7046 36.8874 65.7491 36.8874H68.2124C68.257 36.8874 68.289 36.8556 68.289 36.8111V36.3272C68.289 36.2827 68.257 36.2509 68.2124 36.2509H66.4431C66.4238 36.2509 66.4111 36.2382 66.4111 36.2192V34.997C66.4111 34.9777 66.4238 34.965 66.4431 34.965H67.576C67.6205 34.965 67.6525 34.9332 67.6525 34.8887V34.405C67.6525 34.3605 67.6205 34.3285 67.576 34.3285H66.4431C66.4238 34.3285 66.4111 34.3157 66.4111 34.2967V33.1001C66.4111 33.0811 66.4238 33.0683 66.4431 33.0683H68.2124C68.257 33.0683 68.289 33.0366 68.289 32.9918ZM68.7344 36.8874H69.3839C69.4219 36.8874 69.4601 36.8684 69.4791 36.8363L70.0076 35.9008C70.0203 35.8818 70.0331 35.8818 70.0459 35.9008L70.574 36.8363C70.593 36.8684 70.6313 36.8874 70.6696 36.8874H71.2998C71.357 36.8874 71.3888 36.8556 71.357 36.7984L70.4657 35.2771C70.4595 35.2643 70.4595 35.2516 70.4657 35.2388L71.357 33.7238C71.3888 33.6665 71.357 33.6348 71.2998 33.6348H70.644C70.6058 33.6348 70.5678 33.6538 70.5485 33.6858L70.0266 34.6086C70.0138 34.6341 70.0011 34.6341 69.9886 34.6086L69.4539 33.6858C69.4346 33.6475 69.3964 33.6348 69.3584 33.6348H68.7344C68.6771 33.6348 68.6454 33.6665 68.6771 33.7238L69.5684 35.2388C69.5747 35.2516 69.5747 35.2643 69.5684 35.2771L68.6771 36.7984C68.6454 36.8556 68.6771 36.8874 68.7344 36.8874ZM73.3812 34.1184V33.711C73.3812 33.6665 73.3495 33.6348 73.3047 33.6348H72.7893C72.77 33.6348 72.7572 33.622 72.7572 33.603V32.8772C72.7572 32.8327 72.7255 32.801 72.681 32.801H72.1208C72.0763 32.801 72.0445 32.8327 72.0445 32.8772V33.603C72.0445 33.622 72.0318 33.6348 72.0128 33.6348H71.7199C71.6754 33.6348 71.6434 33.6665 71.6434 33.711V34.1184C71.6434 34.1632 71.6754 34.195 71.7199 34.195H72.0128C72.0318 34.195 72.0445 34.2077 72.0445 34.2267V36.0916C72.0445 36.7473 72.4202 36.8811 72.9866 36.8811H73.2539C73.3047 36.8746 73.3302 36.8429 73.3302 36.7984V36.3209C73.3302 36.2764 73.2984 36.2444 73.2539 36.2444H73.1394C72.8848 36.2444 72.7572 36.1364 72.7572 35.818V34.2267C72.7572 34.2077 72.77 34.195 72.7893 34.195H73.3047C73.3495 34.195 73.3812 34.1632 73.3812 34.1184ZM75.1633 36.3082C74.8515 36.3082 74.6352 36.1171 74.5907 35.837C74.5779 35.7545 74.5714 35.659 74.5714 35.5507C74.5714 35.5317 74.5841 35.5189 74.6034 35.5189H76.3155C76.36 35.5189 76.392 35.4934 76.392 35.4424C76.392 35.2388 76.3793 34.9649 76.36 34.7486C76.2965 34.0359 75.8953 33.5837 75.1061 33.5837C74.3996 33.5837 73.9414 33.9911 73.8649 34.6151C73.8394 34.7997 73.8331 35.0032 73.8331 35.2323C73.8331 35.5317 73.8587 35.7925 73.9222 36.0281C74.0367 36.5755 74.4696 36.9384 75.1253 36.9384C75.7553 36.9384 76.1692 36.6138 76.322 36.1171C76.3347 36.0664 76.3092 36.0343 76.2647 36.0218L75.7935 35.9008C75.749 35.888 75.7173 35.907 75.698 35.9518C75.609 36.1554 75.4307 36.3017 75.1633 36.3082ZM75.0998 34.2205C75.3989 34.2205 75.5835 34.4051 75.6217 34.6852C75.6345 34.7677 75.6407 34.8632 75.6473 34.9587C75.6473 34.9777 75.6345 34.9905 75.6152 34.9905H74.6034C74.5841 34.9905 74.5714 34.9777 74.5714 34.9587C74.5714 34.8569 74.5841 34.7551 74.5969 34.6658C74.6414 34.3985 74.8197 34.2205 75.0998 34.2205ZM78.4542 33.5837C78.1806 33.5837 77.9323 33.6731 77.7542 33.8894C77.735 33.9149 77.716 33.9021 77.716 33.8766V33.711C77.716 33.6665 77.6842 33.6348 77.6394 33.6348H77.054C77.0095 33.6348 76.9774 33.6665 76.9774 33.711V36.8111C76.9774 36.8556 77.0095 36.8874 77.054 36.8874H77.6394C77.6842 36.8874 77.716 36.8556 77.716 36.8111V34.6914C77.7542 34.3985 77.945 34.2205 78.2124 34.2205C78.518 34.2205 78.7025 34.443 78.7025 34.7869V36.8111C78.7025 36.8556 78.7343 36.8874 78.7788 36.8874H79.3645C79.409 36.8874 79.4408 36.8556 79.4408 36.8111V34.6852C79.4408 33.9977 79.0717 33.5837 78.4542 33.5837ZM81.8151 32.5081V33.8638C81.8151 33.8894 81.7961 33.9021 81.7768 33.8766C81.624 33.673 81.4077 33.5837 81.1021 33.5837C80.5357 33.5837 80.2048 33.9211 80.0775 34.5513C80.0327 34.7676 80.0203 35.0097 80.0203 35.2516C80.0203 35.4996 80.0327 35.729 80.0903 35.9708C80.23 36.601 80.5422 36.9384 81.0831 36.9384C81.3822 36.9384 81.6116 36.8429 81.7768 36.6328C81.7961 36.6073 81.8151 36.62 81.8151 36.6455V36.8111C81.8151 36.8556 81.8468 36.8874 81.8914 36.8874H82.4771C82.5216 36.8874 82.5533 36.8556 82.5533 36.8111V32.5081C82.5533 32.4636 82.5216 32.4319 82.4771 32.4319H81.8914C81.8468 32.4319 81.8151 32.4636 81.8151 32.5081ZM81.7451 35.9008C81.6751 36.1426 81.5415 36.3017 81.2994 36.3017C81.0386 36.3017 80.8985 36.1426 80.8285 35.8942C80.7775 35.7162 80.7585 35.4934 80.7585 35.2578C80.7585 35.0032 80.7775 34.7804 80.8413 34.5958C80.9175 34.3668 81.0641 34.2205 81.3059 34.2205C81.5415 34.2205 81.675 34.3668 81.7388 34.6024C81.7961 34.7869 81.8089 35.016 81.8089 35.2578C81.8089 35.4996 81.7961 35.7225 81.7451 35.9008Z" fill="#1DABA1"/>
</svg>
