<svg width="67" height="69" viewBox="0 0 67 69" fill="none" xmlns="http://www.w3.org/2000/svg">
<path d="M33.2589 26.2117C33.2589 26.6217 32.9236 26.954 32.5109 26.954C32.0982 26.954 31.7637 26.621 31.7637 26.2109L33.2589 26.2117ZM33.2604 21.296L33.2589 26.2117L31.7637 26.2109L31.7652 21.2953L33.2604 21.296ZM31.7652 21.2953C31.7652 20.8852 32.1004 20.553 32.5132 20.553C32.9259 20.553 33.2604 20.886 33.2604 21.296L31.7652 21.2953Z" fill="#1DACA5"/>
<path d="M35.3346 26.2117C35.3346 26.6217 34.9993 26.954 34.5866 26.954C34.1739 26.954 33.8394 26.621 33.8394 26.2109L35.3346 26.2117ZM35.3361 21.296L35.3346 26.2117L33.8394 26.2109L33.8409 21.2953L35.3361 21.296ZM33.8409 21.2953C33.8409 20.8852 34.1761 20.553 34.5889 20.553C35.0016 20.553 35.3361 20.886 35.3361 21.296L33.8409 21.2953Z" fill="#1DACA5"/>
<path d="M40.9403 23.4961L39.9652 22.3615C40.2778 22.0958 40.7498 22.1347 41.019 22.4477C41.2881 22.7606 41.2529 23.2304 40.9403 23.4961ZM37.1498 26.717L36.1747 25.5824L39.9652 22.3615L40.9403 23.4961L37.1498 26.717ZM36.1747 25.5824L37.1498 26.717C36.8373 26.9827 36.3652 26.9438 36.0961 26.6308C35.827 26.3179 35.8622 25.8481 36.1747 25.5824Z" fill="#1DACA5"/>
<path d="M32.5116 24.8676C32.5116 23.7254 33.4455 22.7915 34.5877 22.7915C35.7295 22.7915 36.6638 23.7254 36.6638 24.8676" stroke="#1DACA5" stroke-width="1.50009" stroke-miterlimit="22.9256" stroke-linecap="round" stroke-linejoin="round"/>
<path d="M37.4099 26.1504C37.4095 26.5605 37.0743 26.8927 36.6615 26.8923C36.2488 26.8919 35.9143 26.559 35.9147 26.1489L37.4099 26.1504ZM37.4114 24.9209L37.4099 26.1504L35.9147 26.1489L35.9162 24.9194L37.4114 24.9209ZM35.9162 24.9194C35.9166 24.5093 36.2518 24.1771 36.6646 24.1775C37.0773 24.1779 37.4118 24.5108 37.4114 24.9209L35.9162 24.9194Z" fill="#1DACA5"/>
<path d="M65.8119 47.0153V63.8255C65.8119 65.8728 64.1338 67.5498 62.0879 67.5498H4.91205C2.86619 67.5498 1.18811 65.8747 1.18811 63.8255V42.3665H65.8119" stroke="#FFCE1A" stroke-width="2.00012" stroke-miterlimit="22.9256" stroke-linecap="round" stroke-linejoin="round"/>
<path d="M65.8119 42.3664L63.2358 32.5499C62.7777 30.8049 61.5339 29.9507 59.4876 29.9507H47.8618" stroke="#FFCE1A" stroke-width="2.00012" stroke-miterlimit="22.9256" stroke-linecap="round" stroke-linejoin="round"/>
<path d="M25.0365 36.0183V3.1592C25.0365 2.21848 25.8053 1.45007 26.7456 1.45007H45.3654C46.3057 1.45007 47.0745 2.21848 47.0745 3.1592V36.2047" stroke="#1DACA5" stroke-width="2.00012" stroke-miterlimit="22.9256"/>
<path d="M43.899 30.6318V36.1582M28.2121 36.1582V30.6318" stroke="#1DACA5" stroke-width="2.00012" stroke-miterlimit="22.9256" stroke-linecap="round" stroke-linejoin="round"/>
<path d="M28.2121 16.206V9.7079L32.8064 5.11353H39.3046L43.899 9.7079V16.206" stroke="#1DACA5" stroke-width="2.00012" stroke-miterlimit="22.9256" stroke-linecap="round" stroke-linejoin="round"/>
<path d="M22.0292 31.8348L16.6048 6.34953C16.46 5.66846 16.8981 4.99304 17.5791 4.84828L22.2351 3.8573" stroke="#1DACA5" stroke-width="2.00012" stroke-miterlimit="22.9256" stroke-linecap="round" stroke-linejoin="round"/>
<path d="M18.5316 29.7444L11.643 13.0903C11.3773 12.4466 11.6876 11.7032 12.3316 11.4379L15.4236 10.1638" stroke="#1DACA5" stroke-width="2.00012" stroke-miterlimit="22.9256" stroke-linecap="round" stroke-linejoin="round"/>
<path d="M41.7337 18.5986L40.3179 20.0114L40.0926 19.7967L39.8606 19.5968L39.6202 19.4108L39.3733 19.2381L39.1205 19.0797L38.8612 18.9349L38.597 18.8038L38.3283 18.6866L38.0547 18.5831L37.7773 18.4931L37.4964 18.4171L37.2134 18.3548L36.9276 18.306L36.6404 18.2716L36.352 18.2505L36.0629 18.2433L35.7734 18.2497L35.485 18.2701L35.1977 18.3041L34.9116 18.3521L34.6285 18.4137L34.3477 18.4893L34.0699 18.5789L33.7963 18.6813L33.5272 18.7981L33.2623 18.9289L33.0033 19.0729L32.7501 19.2309L32.5026 19.4025L32.2626 19.588L32.0297 19.788L31.8037 20.0019L30.3909 18.5861L30.6895 18.3026L30.9995 18.0369L31.3203 17.7894L31.6495 17.5603L31.9874 17.3494L32.334 17.157L32.6866 16.9832L33.0464 16.8271L33.4116 16.6899L33.7815 16.5708L34.1561 16.4703L34.5337 16.3883L34.9143 16.3244L35.2968 16.2791L35.6804 16.2519L36.0652 16.2432L36.4495 16.2526L36.8331 16.2806L37.2156 16.3271L37.5959 16.3917L37.9734 16.4745L38.3472 16.5761L38.7168 16.6956L39.0819 16.8339L39.4414 16.9904L39.794 17.1654L40.1395 17.3585L40.4777 17.5705L40.8062 17.8L41.1259 18.0479L41.4358 18.3143L41.7337 18.5986ZM41.7212 29.9413L40.3084 28.5255L40.5231 28.3002L40.723 28.0682L40.909 27.8278L41.0817 27.581L41.2401 27.3281L41.3848 27.0688L41.516 26.8047L41.6331 26.5359L41.7367 26.2623L41.8266 25.9849L41.9026 25.7041L41.965 25.421L42.0137 25.1352L42.0481 24.848L42.0693 24.5596L42.0765 24.2701L42.0701 23.981L42.0496 23.6926L42.0156 23.4054L41.9676 23.1192L41.906 22.8362L41.8304 22.5553L41.7409 22.2776L41.6384 22.0039L41.5216 21.7348L41.3909 21.4699L41.2469 21.211L41.0889 20.9577L40.9173 20.7102L40.7317 20.4702L40.5318 20.2374L40.3179 20.0114L41.7337 18.5986L42.0171 18.8971L42.2828 19.2071L42.5304 19.528L42.7594 19.8571L42.9703 20.195L43.1627 20.5416L43.3366 20.8942L43.4927 21.2541L43.6298 21.6192L43.7489 21.9892L43.8495 22.3637L43.9315 22.7413L43.9953 23.1219L44.0407 23.5044L44.0679 23.888L44.0766 24.2724L44.0672 24.6571L44.0392 25.0407L43.9927 25.4232L43.9281 25.8035L43.8453 26.1811L43.7436 26.5548L43.6242 26.9245L43.4859 27.2896L43.3294 27.649L43.1544 28.0017L42.9613 28.3471L42.7492 28.6854L42.5198 29.0138L42.2719 29.3335L42.0054 29.6435L41.7212 29.9413ZM30.3785 29.9288L31.7943 28.516L32.0196 28.7307L32.2516 28.9307L32.492 29.1166L32.7388 29.2893L32.9916 29.4477L33.2509 29.5924L33.5151 29.7236L33.7838 29.8407L34.0575 29.9443L34.3349 30.0343L34.6157 30.1102L34.8988 30.1726L35.1845 30.2213L35.4718 30.2557L35.7601 30.2769L36.0497 30.2841L36.3388 30.2777L36.6271 30.2573L36.9144 30.2232L37.2005 30.1752L37.4836 30.1136L37.7644 30.0381L38.0422 29.9485L38.3159 29.8461L38.585 29.7293L38.8499 29.5985L39.1088 29.4545L39.362 29.2965L39.6096 29.1249L39.8496 28.9393L40.0824 28.7394L40.3084 28.5255L41.7212 29.9413L41.4226 30.2247L41.1127 30.4905L40.7918 30.738L40.4626 30.9671L40.1247 31.178L39.7781 31.3703L39.4255 31.5442L39.0657 31.7003L38.7006 31.8375L38.3306 31.9565L37.956 32.0571L37.5785 32.1391L37.1979 32.2029L36.8154 32.2483L36.4317 32.2755L36.0474 32.2842L35.6626 32.2748L35.279 32.2468L34.8965 32.2003L34.5163 32.1357L34.1387 32.0529L33.7649 31.9513L33.3953 31.8318L33.0302 31.6935L32.6707 31.537L32.3181 31.362L31.9727 31.1689L31.6344 30.9568L31.3059 30.7274L30.9862 30.4795L30.6763 30.213L30.3785 29.9288ZM30.3909 18.5861L31.8037 20.0019L31.589 20.2272L31.3891 20.4592L31.2032 20.6996L31.0305 20.9464L30.8721 21.1992L30.7273 21.4585L30.5962 21.7227L30.479 21.9914L30.3755 22.2651L30.2855 22.5425L30.2095 22.8233L30.1472 23.1064L30.0984 23.3921L30.064 23.6794L30.0428 23.9677L30.0357 24.2569L30.0421 24.5464L30.0625 24.8348L30.0965 25.122L30.1445 25.4081L30.2061 25.6912L30.2817 25.972L30.3713 26.2498L30.4737 26.5235L30.5905 26.7926L30.7213 27.0575L30.8653 27.3164L31.0233 27.5696L31.1949 27.8172L31.3804 28.0572L31.5804 28.29L31.7943 28.516L30.3785 29.9288L30.095 29.6302L29.8293 29.3203L29.5818 28.9994L29.3527 28.6702L29.1418 28.3324L28.9494 27.9858L28.7756 27.6331L28.6195 27.2733L28.4823 26.9082L28.3632 26.5382L28.2627 26.1637L28.1807 25.7861L28.1168 25.4055L28.0715 25.023L28.0442 24.6394L28.0356 24.2546L28.045 23.8702L28.073 23.4866L28.1194 23.1041L28.1841 22.7239L28.2669 22.3464L28.3685 21.9725L28.488 21.6029L28.6263 21.2378L28.7827 20.8784L28.9577 20.5257L29.1509 20.1803L29.3629 19.842L29.5923 19.5136L29.8403 19.1938L30.1067 18.8839L30.3909 18.5861Z" fill="#1DACA5"/>
<path d="M52.7884 36.1582H14.2116" stroke="#FFCE1A" stroke-width="2.00012" stroke-miterlimit="22.9256" stroke-linecap="round" stroke-linejoin="round"/>
<path d="M1.18811 42.3664L3.7642 32.5499C4.22228 30.8049 5.46616 29.9507 7.51239 29.9507H18.5879" stroke="#FFCE1A" stroke-width="2.00012" stroke-miterlimit="22.9256" stroke-linecap="round" stroke-linejoin="round"/>
</svg>
