<svg width="354" height="335" viewBox="0 0 354 335" fill="none" xmlns="http://www.w3.org/2000/svg">
<path opacity="0.23" d="M304.5 177.5C304.5 250.403 245.624 309.5 173 309.5C100.376 309.5 41.5 250.403 41.5 177.5C41.5 104.597 100.376 45.5 173 45.5C245.624 45.5 304.5 104.597 304.5 177.5Z" fill="url(#paint0_radial_1374_2268)" stroke="white"/>
<path d="M319 176.842C319 151.015 312.309 126.753 300.567 105.698M27 176.842C27 133.012 46.2716 93.6883 76.7947 66.8994M92.2649 55.0444C98.8391 50.6683 105.788 46.8115 113.053 43.5323M122.238 39.7594C126.034 38.3503 129.904 37.0946 133.841 36M154.146 321.793C160.318 322.589 166.611 323 173 323C197.232 323 220.084 317.09 240.199 306.632M253.735 298.639C258.979 295.148 263.984 291.328 268.722 287.206M277.424 278.99C279.247 277.123 281.02 275.207 282.742 273.244" stroke="white" stroke-width="2" stroke-linecap="round" stroke-linejoin="round"/>
<circle cx="88.5" cy="16.5" r="9.5" fill="#D9D9D9"/>
<g filter="url(#filter0_d_1374_2268)">
<circle cx="258" cy="64" r="22" fill="url(#paint1_linear_1374_2268)"/>
</g>
<g filter="url(#filter1_d_1374_2268)">
<circle cx="313" cy="183" r="32" fill="url(#paint2_linear_1374_2268)"/>
</g>
<g filter="url(#filter2_d_1374_2268)">
<circle cx="126" cy="294" r="22" fill="url(#paint3_linear_1374_2268)"/>
</g>
<g filter="url(#filter3_d_1374_2268)">
<circle cx="26" cy="247" r="19" fill="url(#paint4_linear_1374_2268)"/>
</g>
<g filter="url(#filter4_d_1374_2268)">
<circle cx="88" cy="16" r="11" fill="url(#paint5_linear_1374_2268)"/>
</g>
<g filter="url(#filter5_d_1374_2268)">
<path d="M89.64 203C89.64 201.133 90.0533 199.52 90.88 198.16C91.7333 196.8 92.84 195.76 94.2 195.04C95.56 194.293 97.04 193.92 98.64 193.92C99.9733 193.92 101.16 194.093 102.2 194.44C103.24 194.787 104.173 195.253 105 195.84C105.853 196.427 106.587 197.067 107.2 197.76V191.32C106.053 190.413 104.8 189.707 103.44 189.2C102.107 188.693 100.413 188.44 98.36 188.44C96.2267 188.44 94.24 188.787 92.4 189.48C90.5867 190.173 89 191.173 87.64 192.48C86.3067 193.787 85.2667 195.333 84.52 197.12C83.8 198.88 83.44 200.84 83.44 203C83.44 205.16 83.8 207.133 84.52 208.92C85.2667 210.68 86.3067 212.213 87.64 213.52C89 214.827 90.5867 215.827 92.4 216.52C94.24 217.213 96.2267 217.56 98.36 217.56C100.413 217.56 102.107 217.307 103.44 216.8C104.8 216.293 106.053 215.587 107.2 214.68V208.24C106.587 208.933 105.853 209.573 105 210.16C104.173 210.747 103.24 211.213 102.2 211.56C101.16 211.907 99.9733 212.08 98.64 212.08C97.04 212.08 95.56 211.72 94.2 211C92.84 210.253 91.7333 209.2 90.88 207.84C90.0533 206.453 89.64 204.84 89.64 203ZM116.572 217H130.692V212.16H116.572V217ZM116.572 193.84H130.692V189H116.572V193.84ZM116.572 204.52H129.892V199.76H116.572V204.52ZM112.892 189V217H118.412V189H112.892ZM136.329 189V217H153.209V212H142.049V189H136.329ZM160.165 217H174.285V212.16H160.165V217ZM160.165 193.84H174.285V189H160.165V193.84ZM160.165 204.52H173.485V199.76H160.165V204.52ZM156.485 189V217H162.005V189H156.485ZM179.923 189V217H185.803V189H179.923ZM195.763 189L184.123 202.28L196.203 217H203.163L190.963 202.12L202.563 189H195.763ZM204.662 194.16H212.182V217H217.902V194.16H225.462V189H204.662V194.16ZM232.512 208.78L235.912 204.74V203H226.372V205.18H232.732L229.552 208.96V210.74H230.832C232.952 210.74 233.872 211.56 233.872 212.82C233.872 214.12 232.772 214.94 230.912 214.94C229.332 214.94 227.812 214.4 226.812 213.56L225.692 215.58C226.992 216.6 228.972 217.2 230.952 217.2C234.712 217.2 236.492 215.16 236.492 212.8C236.492 210.7 235.152 209.12 232.512 208.78ZM244.553 208.36C242.993 208.36 241.653 208.84 240.813 209.82V209.8C240.813 206.62 242.473 204.98 245.113 204.98C246.093 204.98 247.013 205.16 247.773 205.66L248.733 203.7C247.793 203.1 246.453 202.8 245.053 202.8C240.993 202.8 238.193 205.44 238.193 210.24C238.193 214.74 240.433 217.2 244.253 217.2C247.113 217.2 249.373 215.44 249.373 212.66C249.373 210.04 247.312 208.36 244.553 208.36ZM244.113 215.16C242.253 215.16 241.213 214.12 241.213 212.8C241.213 211.42 242.373 210.4 244.053 210.4C245.753 210.4 246.853 211.32 246.853 212.78C246.853 214.24 245.733 215.16 244.113 215.16ZM256.572 217.2C259.912 217.2 262.432 214.6 262.432 210C262.432 205.4 259.912 202.8 256.572 202.8C253.252 202.8 250.732 205.4 250.732 210C250.732 214.6 253.252 217.2 256.572 217.2ZM256.572 214.94C254.672 214.94 253.352 213.38 253.352 210C253.352 206.62 254.672 205.06 256.572 205.06C258.492 205.06 259.812 206.62 259.812 210C259.812 213.38 258.492 214.94 256.572 214.94Z" fill="white"/>
</g>
<g filter="url(#filter6_f_1374_2268)">
<circle cx="45" cy="108" r="10" fill="white"/>
</g>
<g filter="url(#filter7_f_1374_2268)">
<circle cx="226" cy="313" r="10" fill="white"/>
</g>
<path fill-rule="evenodd" clip-rule="evenodd" d="M152.188 127.348C150.278 126.399 146.96 120.961 145.557 119.269C143.957 117.341 140.878 113.044 137.982 112.688C133.666 112.159 130.682 116.315 132.586 120.138C133.216 121.405 134.822 123.028 135.779 124.001C147.312 135.741 141.883 140.788 144.155 150.909C148.388 169.769 170.541 176.102 184.367 164.934C188.903 161.271 195.426 155.213 199.475 151.173C200.853 149.798 202.043 148.444 202.879 147.149C204.44 144.73 204.343 142.594 202.761 140.777C201.178 138.96 198.159 139 195.667 140.455C194.696 141.022 193.741 141.763 192.825 142.579C187.992 146.887 181.851 154.1 176.743 157.486C173.964 159.328 170.587 160.506 166.151 159.848C159.203 158.818 153.047 151.991 154.196 143.453C154.754 139.312 157.869 136.847 159.866 134.938C164.647 130.366 194.37 101.714 195.088 99.4375C196.436 95.1651 192.482 91.5433 188.392 92.8714C186.899 93.3563 181.986 98.4179 180.907 99.4972C179.183 101.222 153.685 126.714 152.188 127.348Z" fill="#FFCE1A"/>
<path fill-rule="evenodd" clip-rule="evenodd" d="M180.913 119.515C178.132 120.417 172.23 127.113 170.328 129.265C168.926 130.851 166.429 132.42 167.064 135.635C167.532 138.003 169.875 140.317 173.125 139.541C173.446 139.464 188.117 129.02 187.197 123.277C186.772 120.622 183.761 118.592 180.913 119.515Z" fill="#FFCE1A"/>
<path fill-rule="evenodd" clip-rule="evenodd" d="M188.861 129.379C185.251 130.907 181.87 134.816 179.2 137.613C175.289 141.71 178.83 148.005 184.656 146.058C186.048 145.593 192.857 139.152 194.032 137.799C197.94 133.302 193.269 127.515 188.861 129.379Z" fill="#FFCE1A"/>
<defs>
<filter id="filter0_d_1374_2268" x="229" y="37" width="60" height="60" filterUnits="userSpaceOnUse" color-interpolation-filters="sRGB">
<feFlood flood-opacity="0" result="BackgroundImageFix"/>
<feColorMatrix in="SourceAlpha" type="matrix" values="0 0 0 0 0 0 0 0 0 0 0 0 0 0 0 0 0 0 127 0" result="hardAlpha"/>
<feOffset dx="1" dy="3"/>
<feGaussianBlur stdDeviation="4"/>
<feComposite in2="hardAlpha" operator="out"/>
<feColorMatrix type="matrix" values="0 0 0 0 0 0 0 0 0 0 0 0 0 0 0 0 0 0 0.2 0"/>
<feBlend mode="normal" in2="BackgroundImageFix" result="effect1_dropShadow_1374_2268"/>
<feBlend mode="normal" in="SourceGraphic" in2="effect1_dropShadow_1374_2268" result="shape"/>
</filter>
<filter id="filter1_d_1374_2268" x="274" y="146" width="80" height="80" filterUnits="userSpaceOnUse" color-interpolation-filters="sRGB">
<feFlood flood-opacity="0" result="BackgroundImageFix"/>
<feColorMatrix in="SourceAlpha" type="matrix" values="0 0 0 0 0 0 0 0 0 0 0 0 0 0 0 0 0 0 127 0" result="hardAlpha"/>
<feOffset dx="1" dy="3"/>
<feGaussianBlur stdDeviation="4"/>
<feComposite in2="hardAlpha" operator="out"/>
<feColorMatrix type="matrix" values="0 0 0 0 0 0 0 0 0 0 0 0 0 0 0 0 0 0 0.2 0"/>
<feBlend mode="normal" in2="BackgroundImageFix" result="effect1_dropShadow_1374_2268"/>
<feBlend mode="normal" in="SourceGraphic" in2="effect1_dropShadow_1374_2268" result="shape"/>
</filter>
<filter id="filter2_d_1374_2268" x="97" y="267" width="60" height="60" filterUnits="userSpaceOnUse" color-interpolation-filters="sRGB">
<feFlood flood-opacity="0" result="BackgroundImageFix"/>
<feColorMatrix in="SourceAlpha" type="matrix" values="0 0 0 0 0 0 0 0 0 0 0 0 0 0 0 0 0 0 127 0" result="hardAlpha"/>
<feOffset dx="1" dy="3"/>
<feGaussianBlur stdDeviation="4"/>
<feComposite in2="hardAlpha" operator="out"/>
<feColorMatrix type="matrix" values="0 0 0 0 0 0 0 0 0 0 0 0 0 0 0 0 0 0 0.2 0"/>
<feBlend mode="normal" in2="BackgroundImageFix" result="effect1_dropShadow_1374_2268"/>
<feBlend mode="normal" in="SourceGraphic" in2="effect1_dropShadow_1374_2268" result="shape"/>
</filter>
<filter id="filter3_d_1374_2268" x="0" y="223" width="54" height="54" filterUnits="userSpaceOnUse" color-interpolation-filters="sRGB">
<feFlood flood-opacity="0" result="BackgroundImageFix"/>
<feColorMatrix in="SourceAlpha" type="matrix" values="0 0 0 0 0 0 0 0 0 0 0 0 0 0 0 0 0 0 127 0" result="hardAlpha"/>
<feOffset dx="1" dy="3"/>
<feGaussianBlur stdDeviation="4"/>
<feComposite in2="hardAlpha" operator="out"/>
<feColorMatrix type="matrix" values="0 0 0 0 0 0 0 0 0 0 0 0 0 0 0 0 0 0 0.2 0"/>
<feBlend mode="normal" in2="BackgroundImageFix" result="effect1_dropShadow_1374_2268"/>
<feBlend mode="normal" in="SourceGraphic" in2="effect1_dropShadow_1374_2268" result="shape"/>
</filter>
<filter id="filter4_d_1374_2268" x="70" y="0" width="38" height="38" filterUnits="userSpaceOnUse" color-interpolation-filters="sRGB">
<feFlood flood-opacity="0" result="BackgroundImageFix"/>
<feColorMatrix in="SourceAlpha" type="matrix" values="0 0 0 0 0 0 0 0 0 0 0 0 0 0 0 0 0 0 127 0" result="hardAlpha"/>
<feOffset dx="1" dy="3"/>
<feGaussianBlur stdDeviation="4"/>
<feComposite in2="hardAlpha" operator="out"/>
<feColorMatrix type="matrix" values="0 0 0 0 0 0 0 0 0 0 0 0 0 0 0 0 0 0 0.2 0"/>
<feBlend mode="normal" in2="BackgroundImageFix" result="effect1_dropShadow_1374_2268"/>
<feBlend mode="normal" in="SourceGraphic" in2="effect1_dropShadow_1374_2268" result="shape"/>
</filter>
<filter id="filter5_d_1374_2268" x="80.4399" y="188.44" width="184.992" height="35.1191" filterUnits="userSpaceOnUse" color-interpolation-filters="sRGB">
<feFlood flood-opacity="0" result="BackgroundImageFix"/>
<feColorMatrix in="SourceAlpha" type="matrix" values="0 0 0 0 0 0 0 0 0 0 0 0 0 0 0 0 0 0 127 0" result="hardAlpha"/>
<feOffset dy="3"/>
<feGaussianBlur stdDeviation="1.5"/>
<feComposite in2="hardAlpha" operator="out"/>
<feColorMatrix type="matrix" values="0 0 0 0 0 0 0 0 0 0 0 0 0 0 0 0 0 0 0.160784 0"/>
<feBlend mode="normal" in2="BackgroundImageFix" result="effect1_dropShadow_1374_2268"/>
<feBlend mode="normal" in="SourceGraphic" in2="effect1_dropShadow_1374_2268" result="shape"/>
</filter>
<filter id="filter6_f_1374_2268" x="23" y="86" width="44" height="44" filterUnits="userSpaceOnUse" color-interpolation-filters="sRGB">
<feFlood flood-opacity="0" result="BackgroundImageFix"/>
<feBlend mode="normal" in="SourceGraphic" in2="BackgroundImageFix" result="shape"/>
<feGaussianBlur stdDeviation="6" result="effect1_foregroundBlur_1374_2268"/>
</filter>
<filter id="filter7_f_1374_2268" x="204" y="291" width="44" height="44" filterUnits="userSpaceOnUse" color-interpolation-filters="sRGB">
<feFlood flood-opacity="0" result="BackgroundImageFix"/>
<feBlend mode="normal" in="SourceGraphic" in2="BackgroundImageFix" result="shape"/>
<feGaussianBlur stdDeviation="6" result="effect1_foregroundBlur_1374_2268"/>
</filter>
<radialGradient id="paint0_radial_1374_2268" cx="0" cy="0" r="1" gradientUnits="userSpaceOnUse" gradientTransform="translate(173 177.5) rotate(90) scale(132.5 132)">
<stop stop-color="white" stop-opacity="0.68"/>
<stop offset="1" stop-color="white"/>
</radialGradient>
<linearGradient id="paint1_linear_1374_2268" x1="258" y1="42" x2="258" y2="86" gradientUnits="userSpaceOnUse">
<stop stop-color="#13E5FE"/>
<stop offset="1" stop-color="#07837D"/>
</linearGradient>
<linearGradient id="paint2_linear_1374_2268" x1="313" y1="151" x2="313" y2="215" gradientUnits="userSpaceOnUse">
<stop stop-color="#13E5FE"/>
<stop offset="1" stop-color="#07837D"/>
</linearGradient>
<linearGradient id="paint3_linear_1374_2268" x1="126" y1="272" x2="126" y2="316" gradientUnits="userSpaceOnUse">
<stop stop-color="#13E5FE"/>
<stop offset="1" stop-color="#07837D"/>
</linearGradient>
<linearGradient id="paint4_linear_1374_2268" x1="26" y1="228" x2="26" y2="266" gradientUnits="userSpaceOnUse">
<stop stop-color="#13E5FE"/>
<stop offset="1" stop-color="#07837D"/>
</linearGradient>
<linearGradient id="paint5_linear_1374_2268" x1="88" y1="5" x2="88" y2="27" gradientUnits="userSpaceOnUse">
<stop stop-color="#13E5FE"/>
<stop offset="1" stop-color="#07837D"/>
</linearGradient>
</defs>
</svg>
