<svg width="21" height="21" viewBox="0 0 21 21" fill="none" xmlns="http://www.w3.org/2000/svg">
<path fill-rule="evenodd" clip-rule="evenodd" d="M19.95 14.35C20.6442 12.9755 21.004 11.4565 21 9.91668V9.33335C20.7222 4.29825 16.7017 0.277815 11.6666 3.23988e-05L11.0833 3.32333e-05C9.54347 -0.00398138 8.02446 0.355785 6.64999 1.05003C3.29078 2.72891 1.16812 6.16129 1.16666 9.91668C1.16265 11.4565 1.52242 12.9755 2.21666 14.35L0 21L6.64999 18.7833C8.02446 19.4776 9.54347 19.8374 11.0833 19.8333C14.8387 19.8319 18.2711 17.7092 19.95 14.35ZM7 6C6.44772 6 6 6.44772 6 7C6 7.55228 6.44772 8 7 8H15C15.5523 8 16 7.55228 16 7C16 6.44772 15.5523 6 15 6H7ZM6 10C6 9.44771 6.44772 9 7 9H13C13.5523 9 14 9.44771 14 10C14 10.5523 13.5523 11 13 11H7C6.44772 11 6 10.5523 6 10ZM7 12C6.44772 12 6 12.4477 6 13C6 13.5523 6.44772 14 7 14H11C11.5523 14 12 13.5523 12 13C12 12.4477 11.5523 12 11 12H7Z" fill="black" fill-opacity="0.2"/>
</svg>
