<svg width="64" height="66" viewBox="0 0 64 66" fill="none" xmlns="http://www.w3.org/2000/svg">
<path d="M57.4432 46.622C57.4432 55.1556 50.4543 62.1445 41.9207 62.1445H41.6602" stroke="#FFCE1A" stroke-width="1.70003" stroke-miterlimit="22.9256" stroke-linejoin="round"/>
<path fill-rule="evenodd" clip-rule="evenodd" d="M32.9353 59.7892H39.3048C40.6008 59.7892 41.6601 60.8485 41.6601 62.1448C41.6601 63.4409 40.6008 64.5001 39.3048 64.5001H32.9353C31.6393 64.5001 30.5801 63.4409 30.5801 62.1448C30.5801 60.8485 31.6393 59.7892 32.9353 59.7892Z" stroke="#FFCE1A" stroke-width="1.70003" stroke-miterlimit="22.9256"/>
<path fill-rule="evenodd" clip-rule="evenodd" d="M56.5996 26.5312H56.6003C59.8277 26.5312 62.468 29.1712 62.468 32.3989V40.8104C62.468 44.0388 59.8274 46.6792 56.5993 46.6792H56.5989C54.9202 46.6792 53.5474 45.3066 53.5474 43.6279V29.5838C53.5474 27.9044 54.9209 26.5312 56.5996 26.5312V26.5312Z" stroke="#FFCE1A" stroke-width="1.70003" stroke-miterlimit="22.9256"/>
<path fill-rule="evenodd" clip-rule="evenodd" d="M7.40031 26.5312H7.39997C4.17254 26.5312 1.53223 29.1712 1.53223 32.3989V40.8104C1.53223 44.0388 4.17288 46.6792 7.40099 46.6792H7.40133C9.08002 46.6792 10.4529 45.3066 10.4529 43.6279V29.5838C10.4529 27.9044 9.07934 26.5312 7.40031 26.5312Z" stroke="#FFCE1A" stroke-width="1.70003" stroke-miterlimit="22.9256"/>
<path d="M7.41187 26.5955V26.1226C7.41187 12.5792 18.4919 1.49988 32.0343 1.49988C45.5767 1.49988 56.6564 12.5792 56.6564 26.1226V26.4999" stroke="#FFCE1A" stroke-width="1.70003" stroke-miterlimit="22.9256"/>
<path fill-rule="evenodd" clip-rule="evenodd" d="M23.0503 21.2999H41.9451C45.0491 21.2999 47.5884 23.8402 47.5884 26.9434V34.7178C47.5884 37.8207 45.0477 40.3614 41.9451 40.3614H32.2812L26.3682 46.0029C25.8631 46.4853 25.2777 46.2301 25.2637 45.4008L25.1773 40.3614H23.0503C19.9474 40.3614 17.4067 37.8217 17.4067 34.7178V26.9434C17.4067 23.8395 19.9464 21.2999 23.0503 21.2999V21.2999Z" stroke="#1DACA5" stroke-width="1.70003" stroke-miterlimit="22.9256" stroke-linecap="round" stroke-linejoin="round"/>
<path fill-rule="evenodd" clip-rule="evenodd" d="M25.2596 28.5728C26.4801 28.5728 27.4696 29.5623 27.4696 30.7828C27.4696 32.0033 26.4801 32.9928 25.2596 32.9928C24.0391 32.9928 23.0496 32.0033 23.0496 30.7828C23.0496 29.5623 24.0391 28.5728 25.2596 28.5728Z" stroke="#1DACA5" stroke-width="1.70003" stroke-miterlimit="22.9256"/>
<path fill-rule="evenodd" clip-rule="evenodd" d="M32.4974 28.5728C33.7179 28.5728 34.7077 29.5623 34.7077 30.7828C34.7077 32.0033 33.7179 32.9928 32.4974 32.9928C31.2769 32.9928 30.2874 32.0033 30.2874 30.7828C30.2874 29.5623 31.2769 28.5728 32.4974 28.5728Z" stroke="#1DACA5" stroke-width="1.70003" stroke-miterlimit="22.9256"/>
<path fill-rule="evenodd" clip-rule="evenodd" d="M39.7357 28.5728C40.9559 28.5728 41.9458 29.5623 41.9458 30.7828C41.9458 32.0033 40.9559 32.9928 39.7357 32.9928C38.5153 32.9928 37.5254 32.0033 37.5254 30.7828C37.5254 29.5623 38.5153 28.5728 39.7357 28.5728Z" stroke="#1DACA5" stroke-width="1.70003" stroke-miterlimit="22.9256"/>
</svg>
