<svg width="22" height="24" viewBox="0 0 22 24" fill="none" xmlns="http://www.w3.org/2000/svg">
<path d="M3.99219 0.824999C3.5 0.946874 3.125 1.23281 2.9 1.66406L2.77344 1.89844L2.75938 6.94687L2.75 12H1.625H0.5V14.25V16.5H11H21.5V14.25V12H20.375H19.25L19.2406 7.06406L19.2266 2.13281L19.1188 1.86562C18.9828 1.53281 18.6781 1.18594 18.3734 1.01719C17.8531 0.735937 18.2094 0.749999 10.9297 0.754687C5.30938 0.759374 4.23125 0.768749 3.99219 0.824999ZM5.67969 1.67344C5.59531 2.13281 5.24375 2.625 4.79375 2.91562C4.50313 3.10312 3.875 3.32812 3.63594 3.32812H3.5V2.7375C3.5 1.92656 3.58438 1.75781 4.07188 1.58906C4.26875 1.52344 4.47031 1.50469 5.01875 1.5H5.7125L5.67969 1.67344ZM15.5469 1.65C15.5469 1.86562 15.7859 2.53125 15.9734 2.84062C16.4656 3.65156 17.4266 4.32187 18.2563 4.43437L18.5 4.46719V10.1062V15.75H17.0938H15.6875L15.95 15.3609C16.4094 14.6812 16.7141 13.9594 16.8922 13.125C17.0094 12.5719 17.0047 11.3859 16.8875 10.8281C16.6297 9.62812 16.0953 8.64375 15.2234 7.77656C14.3563 6.90469 13.3766 6.37031 12.1719 6.1125C11.6141 5.99062 10.3859 5.99062 9.82813 6.1125C8.61406 6.375 7.65781 6.89531 6.77656 7.77656C5.89531 8.65781 5.375 9.61406 5.1125 10.8281C4.99531 11.3859 4.99063 12.5719 5.10781 13.125C5.28594 13.9594 5.59063 14.6812 6.05 15.3609L6.3125 15.75H4.90625H3.5L3.50938 9.92344L3.52344 4.10156L3.66406 4.0875C4.24063 4.03594 5.02813 3.71719 5.45469 3.36562C5.94219 2.9625 6.3125 2.35312 6.42031 1.77656L6.47656 1.5H11.0094H15.5469V1.65ZM17.8906 1.6125C18.3828 1.87031 18.5 2.15625 18.5 3.07969C18.5 3.79687 18.5234 3.76875 18.0406 3.60469C17.1781 3.31406 16.4469 2.48906 16.3109 1.65L16.2828 1.49062L17.0047 1.50937C17.5953 1.52344 17.7547 1.54219 17.8906 1.6125ZM11.7969 6.82031C12.8984 6.98437 13.9016 7.49531 14.7031 8.29687C16.6531 10.2469 16.7656 13.3078 14.9609 15.4219L14.6844 15.75H11H7.32031L7.1 15.4969C6.25625 14.5359 5.825 13.4625 5.76406 12.1875C5.675 10.1812 6.78594 8.27812 8.60469 7.34062C9.60313 6.825 10.6813 6.64687 11.7969 6.82031ZM2.75 14.25V15.75H2H1.25V14.25V12.75H2H2.75V14.25ZM20.75 14.25V15.75H20H19.25V14.25V12.75H20H20.75V14.25Z" fill="#FFCE1A"/>
<path d="M8.91875 17.3484L8.79688 17.4422V18.4734V19.5H8.16875C7.60625 19.5 7.53125 19.5094 7.41875 19.5984C7.325 19.6687 7.29688 19.7344 7.29688 19.8656C7.29688 20.0344 7.37188 20.1141 8.90469 21.6469C10.2875 23.0297 10.5313 23.25 10.6484 23.25C10.7703 23.25 11.0141 23.025 12.4156 21.6187C13.6203 20.4187 14.0469 19.9641 14.0469 19.8844C14.0469 19.8234 13.9859 19.7109 13.9109 19.6359L13.775 19.5H13.1609H12.5469V18.5109V17.5219L12.4109 17.3859L12.275 17.25H10.6578C9.09688 17.25 9.04063 17.2547 8.91875 17.3484ZM11.7969 19.0078C11.7969 20.0203 11.7969 20.0203 11.9141 20.1328C12.0125 20.2359 12.0688 20.25 12.3922 20.25H12.7578L11.7266 21.2812C11.1594 21.8484 10.6766 22.3125 10.6484 22.3125C10.6203 22.3125 10.1375 21.8484 9.57031 21.2812L8.53906 20.25H8.9C9.21406 20.25 9.27969 20.2359 9.39219 20.1375L9.52344 20.025L9.5375 19.0125L9.55156 18H10.6766H11.7969V19.0078Z" fill="#FFCE1A"/>
</svg>
