<svg width="24" height="25" viewBox="0 0 24 25" fill="none" xmlns="http://www.w3.org/2000/svg">
<path d="M22.5031 13.4969C22.877 13.1229 22.877 12.5167 22.5031 12.1427L21.149 10.7886C20.7751 10.4147 20.1688 10.4147 19.7949 10.7886L18.4407 12.1427L21.149 14.851L22.5031 13.4969Z" fill="black" fill-opacity="0.2"/>
<path d="M20.4722 15.528L17.7639 12.8198L10.6907 19.893C10.6672 19.9165 10.6502 19.9459 10.6414 19.978L9.72736 23.3295C9.68837 23.4724 9.81955 23.6036 9.9625 23.5646L13.314 22.6506C13.3461 22.6418 13.3754 22.6248 13.399 22.6012L20.4722 15.528Z" fill="black" fill-opacity="0.2"/>
<path d="M11.3952 22.144C11.2403 22.2036 11.0881 22.0514 11.1477 21.8965L11.7846 20.2407C11.8166 20.1573 11.902 20.1072 11.9904 20.1198L12.882 20.2472C12.9663 20.2592 13.0325 20.3254 13.0445 20.4097L13.1719 21.3013C13.1845 21.3897 13.1344 21.4751 13.0511 21.5071L11.3952 22.144Z" fill="#1DACA5"/>
<path fill-rule="evenodd" clip-rule="evenodd" d="M3 0C1.34315 0 0 1.34314 0 3V16.428C0 18.0848 1.34315 19.428 3 19.428H8.48815L18.5833 9.33284V3C18.5833 1.34315 17.2401 0 15.5833 0H3Z" fill="black" fill-opacity="0.2"/>
<rect x="6.75732" y="3.37878" width="9.29163" height="1.68939" fill="#1DACA5"/>
<rect x="3.37891" y="3.37878" width="1.68939" height="1.68939" fill="#1DACA5"/>
<rect x="6.75732" y="7.60224" width="9.29163" height="1.68939" fill="#1DACA5"/>
<rect x="3.37891" y="7.60224" width="1.68939" height="1.68939" fill="#1DACA5"/>
<rect x="6.75732" y="11.8257" width="5.06816" height="1.68939" fill="#1DACA5"/>
<rect x="3.37891" y="11.8257" width="1.68939" height="1.68939" fill="#1DACA5"/>
</svg>
