<svg width="57" height="70" viewBox="0 0 57 70" fill="none" xmlns="http://www.w3.org/2000/svg">
<path d="M43.507 1.53004H12.2882V0H43.507V1.53004ZM46.2211 1.10382L45.1292 2.17532L45.0826 2.12872L45.0374 2.08381L44.9932 2.04164L44.951 2.00184L44.9105 1.96544L44.8704 1.93108L44.8295 1.89707L44.7918 1.86679L44.7551 1.83924L44.7166 1.81203L44.6816 1.78822L44.6462 1.76577L44.6078 1.74332L44.5717 1.72325L44.5346 1.70488L44.4962 1.68685L44.4574 1.67052L44.4152 1.65385L44.3713 1.63855L44.3261 1.62392L44.2778 1.61031L44.2281 1.59773L44.1734 1.58616L44.1142 1.57494L44.053 1.56473L43.9883 1.55589L43.9203 1.5484L43.8451 1.54194L43.7669 1.5365L43.6866 1.5331L43.5992 1.53106L43.507 1.53004V0L43.6244 0.00102044L43.739 0.00374125L43.854 0.00918392L43.9635 0.0166675L44.0693 0.0258514L44.1754 0.0374177L44.2795 0.0517038L44.3809 0.0680318L44.4782 0.0867402L44.5751 0.10783L44.6717 0.131982L44.7656 0.158514L44.8571 0.187427L44.9466 0.219063L45.0336 0.252738L45.12 0.289475L45.2034 0.328594L45.2854 0.370093L45.365 0.413973L45.4401 0.458194L45.5163 0.505817L45.5901 0.55548L45.6592 0.605142L45.7286 0.657187L45.7956 0.710592L45.8589 0.762977L45.9221 0.817742L45.9851 0.874549L46.0456 0.930675L46.1048 0.987822L46.163 1.04497L46.2211 1.10382ZM46.2211 1.10382C46.5167 1.4052 46.5123 1.88992 46.2109 2.18552C45.9096 2.48112 45.4248 2.4767 45.1292 2.17532L46.2211 1.10382ZM54.2458 11.4651L45.1292 2.17532L46.2211 1.10382L55.3377 10.3936L54.2458 11.4654V11.4651ZM55.3377 10.3936C55.6333 10.6949 55.6289 11.1797 55.3275 11.4753C55.0262 11.7709 54.5414 11.7664 54.2458 11.4651L55.3377 10.3936ZM56.3603 12.8465H54.8302L54.8295 12.7856L54.8282 12.7284L54.8251 12.674L54.8214 12.6192L54.8163 12.5662L54.8105 12.5165L54.804 12.4709L54.7962 12.425L54.787 12.3784L54.7775 12.3352L54.7676 12.2954L54.7554 12.2536L54.7431 12.2131L54.7302 12.1757L54.7159 12.1379L54.7003 12.0998L54.684 12.062L54.6663 12.0256L54.6469 11.9879L54.6261 11.9498L54.605 11.9134L54.5819 11.876L54.5557 11.8365L54.5295 11.7981L54.502 11.7603L54.4714 11.7202L54.4387 11.6794L54.4047 11.6382L54.3676 11.5957L54.3298 11.5532L54.2894 11.5103L54.2458 11.4654L55.3377 10.3932L55.3976 10.4551L55.4571 10.5191L55.5153 10.5834L55.5708 10.6477L55.6252 10.7126L55.6776 10.7786L55.7286 10.8453L55.7793 10.915L55.8272 10.9848L55.8718 11.0535L55.9167 11.1256L55.9596 11.1994L55.9994 11.2722L56.0371 11.346L56.0738 11.4232L56.1079 11.4998L56.1398 11.5773L56.1698 11.6573L56.1977 11.7382L56.2228 11.8188L56.2453 11.8994L56.2667 11.9835L56.2851 12.0668L56.3011 12.1488L56.3157 12.2335L56.3283 12.3212L56.3382 12.4076L56.346 12.4927L56.3524 12.5787L56.3569 12.6679L56.3596 12.7577L56.3603 12.8465ZM54.8302 57.0076V12.8465H56.3603V57.0076H54.8302ZM48.8376 64.5302V63.0002L49.1451 62.9924L49.4482 62.9692L49.7469 62.9308L50.0411 62.8777L50.3299 62.8107L50.6129 62.7301L50.8905 62.6352L51.1623 62.5277L51.4276 62.4073L51.6858 62.2746L51.9368 62.1297L52.1804 61.9733L52.4154 61.8059L52.6423 61.6273L52.8604 61.4382L53.0692 61.2392L53.2682 61.0303L53.4573 60.812L53.6359 60.5854L53.8036 60.35L53.9598 60.1068L54.1047 59.8558L54.2373 59.5973L54.3577 59.3323L54.4652 59.0605L54.5601 58.7826L54.6411 58.4992L54.7081 58.2108L54.7608 57.9172L54.7993 57.6179L54.8224 57.3151L54.8302 57.0076H56.3603L56.3504 57.3927L56.3211 57.7737L56.2732 58.1492L56.2068 58.5189L56.1221 58.8829L56.0201 59.2397L55.9014 59.5891L55.766 59.9303L55.615 60.2633L55.4483 60.5878L55.2666 60.9028L55.0704 61.2079L54.8605 61.5025L54.637 61.7869L54.4003 62.0597L54.1509 62.3209L53.8897 62.5702L53.6172 62.8063L53.3332 63.0305L53.0376 63.2407L52.7328 63.4366L52.4178 63.6183L52.0936 63.785L51.7603 63.936L51.4191 64.0714L51.0701 64.1901L50.7129 64.2925L50.3493 64.3765L49.9796 64.4432L49.604 64.4911L49.2227 64.5204L48.8376 64.5302ZM12.2882 63.0002H48.8376V64.5302H12.2882V63.0002ZM4.76526 57.0076H6.2953L6.30312 57.3151L6.32625 57.6182L6.36469 57.9172L6.41741 58.2111L6.48442 58.4996L6.56538 58.7829L6.66029 59.0605L6.76778 59.3323L6.88819 59.5976L7.02085 59.8558L7.16576 60.1068L7.32224 60.3504L7.48993 60.5858L7.66784 60.8123L7.85697 61.03L8.0563 61.2392L8.26516 61.4382L8.48354 61.6273L8.71009 61.8059L8.94548 61.9736L9.18869 62.1297L9.43973 62.2746L9.69825 62.4073L9.96323 62.5277L10.235 62.6352L10.5129 62.7301L10.7963 62.8111L11.0847 62.8781L11.3786 62.9308L11.6776 62.9692L11.9807 62.9924L12.2882 63.0002V64.5302L11.9032 64.5204L11.5218 64.4911L11.1466 64.4432L10.7766 64.3768L10.4126 64.2921L10.0558 64.1901L9.70641 64.0714L9.36523 63.936L9.03222 63.785L8.7077 63.6183L8.39272 63.4366L8.08759 63.2404L7.79302 63.0305L7.50864 62.807L7.23583 62.5702L6.97459 62.3209L6.7256 62.06L6.48885 61.7872L6.26468 61.5028L6.0548 61.2076L5.85887 60.9028L5.67723 60.5878L5.51055 60.2636L5.35952 59.9303L5.22414 59.5891L5.10542 59.2401L5.00337 58.8833L4.91867 58.5193L4.85234 58.1492L4.80438 57.774L4.77512 57.3927L4.76526 57.0076ZM6.2953 7.52262V57.0076H4.76526V7.52262H6.2953ZM12.2882 0V1.53004L11.9807 1.53786L11.6776 1.56099L11.3786 1.59943L11.0847 1.65215L10.7963 1.71916L10.5129 1.80012L10.235 1.89503L9.96323 2.00252L9.69825 2.12293L9.43973 2.2556L9.18869 2.4005L8.94548 2.55664L8.71009 2.72433L8.48354 2.90292L8.26516 3.09205L8.0563 3.29104L7.85697 3.50024L7.66784 3.71794L7.48993 3.94449L7.32224 4.17988L7.16576 4.42343L7.02085 4.67447L6.88819 4.93265L6.76778 5.19797L6.66029 5.46976L6.56538 5.74733L6.48442 6.03068L6.41741 6.31914L6.36469 6.61304L6.32625 6.91203L6.30312 7.21512L6.2953 7.52262H4.76526L4.77512 7.13756L4.80438 6.75624L4.85234 6.38105L4.91867 6.01095L5.00337 5.64698L5.10542 5.29016L5.22414 4.94115L5.35952 4.59997L5.51055 4.26662L5.67723 3.94245L5.85887 3.62746L6.0548 3.32267L6.26468 3.02742L6.48885 2.74304L6.7256 2.47024L6.97459 2.20933L7.23583 1.96L7.50864 1.72325L7.79302 1.49976L8.08759 1.28988L8.39272 1.09361L8.7077 0.911967L9.03222 0.745289L9.36523 0.594258L9.70641 0.458874L10.0558 0.340159L10.4126 0.238111L10.7766 0.153411L11.1466 0.0870807L11.5218 0.0391181L11.9032 0.00986387L12.2882 0Z" fill="#FFCE1A"/>
<path d="M26.5838 12.6254C26.1613 12.6254 25.8191 12.2832 25.8191 11.8617C25.8191 11.4403 26.162 11.0988 26.5845 11.0988L26.5838 12.6254ZM40.0323 12.6302L26.5838 12.6254L26.5845 11.0988L40.033 11.1035L40.0323 12.6302ZM40.033 11.1035C40.4555 11.1035 40.7977 11.4457 40.7977 11.8672C40.7977 12.2886 40.4548 12.6302 40.0323 12.6302L40.033 11.1035Z" fill="#FFCE1A"/>
<path d="M26.5837 18.2183C26.1632 18.2183 25.8224 17.8757 25.8224 17.4533C25.8224 17.0308 26.1632 16.6882 26.5837 16.6882V18.2183ZM50.6367 18.223L26.5837 18.2183V16.6882L50.6367 16.693V18.223ZM50.6367 16.693C51.0571 16.693 51.3979 17.0355 51.3979 17.458C51.3979 17.8805 51.0571 18.223 50.6367 18.223V16.693Z" fill="#FFCE1A"/>
<path d="M25.1615 30.5368C24.7391 30.5368 24.3969 30.1946 24.3969 29.7731C24.3969 29.3517 24.7397 29.0101 25.1622 29.0101L25.1615 30.5368ZM38.6101 30.5415L25.1615 30.5368L25.1622 29.0101L38.6107 29.0149L38.6101 30.5415ZM38.6107 29.0149C39.0332 29.0149 39.3754 29.3571 39.3754 29.7786C39.3754 30.2 39.0325 30.5415 38.6101 30.5415L38.6107 29.0149Z" fill="#FFCE1A"/>
<path d="M25.1615 36.1296C24.7411 36.1296 24.4003 35.7871 24.4003 35.3646C24.4003 34.9421 24.7411 34.5996 25.1615 34.5996V36.1296ZM49.2145 36.1347L25.1615 36.1296V34.5996L49.2145 34.6047V36.1347ZM49.2145 34.6047C49.635 34.6047 49.9758 34.9473 49.9758 35.3697C49.9758 35.7922 49.635 36.1347 49.2145 36.1347V34.6047Z" fill="#FFCE1A"/>
<path d="M25.1615 47.9862C24.7391 47.9862 24.3969 47.644 24.3969 47.2226C24.3969 46.8011 24.7397 46.4596 25.1622 46.4596L25.1615 47.9862ZM38.6101 47.9913L25.1615 47.9862L25.1622 46.4596L38.6107 46.4647L38.6101 47.9913ZM38.6107 46.4647C39.0332 46.4647 39.3754 46.8069 39.3754 47.2284C39.3754 47.6498 39.0325 47.9913 38.6101 47.9913L38.6107 46.4647Z" fill="#FFCE1A"/>
<path d="M25.1615 53.5791C24.7411 53.5791 24.4003 53.2366 24.4003 52.8141C24.4003 52.3916 24.7411 52.0491 25.1615 52.0491V53.5791ZM49.2145 53.5842L25.1615 53.5791V52.0491L49.2145 52.0542V53.5842ZM49.2145 52.0542C49.635 52.0542 49.9758 52.3967 49.9758 52.8192C49.9758 53.2417 49.635 53.5842 49.2145 53.5842V52.0542Z" fill="#FFCE1A"/>
<path d="M56.3603 13.1308C56.3603 13.5533 56.0177 13.8958 55.5952 13.8958C55.1728 13.8958 54.8302 13.5533 54.8302 13.1308H56.3603ZM53.2301 11.9845V10.4545L53.3913 10.4599L53.5495 10.4745L53.7043 10.4987L53.8557 10.5306L54.004 10.5708L54.1492 10.6177L54.2894 10.6711L54.4254 10.73L54.5584 10.7946L54.6877 10.864L54.8119 10.9375L54.9316 11.0144L55.0483 11.0957L55.1615 11.1804L55.2704 11.2685L55.3738 11.3579L55.4748 11.4515L55.5701 11.5467L55.6605 11.6426L55.7483 11.7423L55.8306 11.8437L55.9078 11.9457L55.98 12.0495L56.0483 12.1559L56.1116 12.2658L56.1684 12.376L56.2194 12.4889L56.2643 12.6049L56.3031 12.7274L56.333 12.8563L56.3528 12.9897L56.3603 13.1308H54.8302L54.8309 13.1448V13.1455L54.8282 13.1349L54.8214 13.1138L54.8091 13.0822L54.7914 13.0434L54.7687 12.9992L54.7414 12.9519L54.7084 12.9005L54.6697 12.8451L54.6265 12.7879L54.5795 12.7301L54.5292 12.6726L54.4727 12.6128L54.4142 12.5543L54.3533 12.4981L54.288 12.4413L54.2213 12.3872L54.153 12.3359L54.0819 12.2865L54.0084 12.2396L53.9353 12.1961L53.8618 12.1566L53.788 12.1206L53.7138 12.0889L53.6403 12.0607L53.5693 12.0376L53.4978 12.0185L53.4281 12.0035L53.3597 11.993L53.2941 11.9865L53.2301 11.9845ZM49.9445 10.4545H53.2301V11.9845H49.9445V10.4545ZM44.3758 6.41574H45.9058L45.9109 6.62324L45.9266 6.82699L45.9527 7.02837L45.9881 7.22668L46.0334 7.42091L46.0881 7.61174L46.1517 7.79883L46.2242 7.98184L46.3051 8.16076L46.3946 8.33458L46.4919 8.50364L46.5977 8.66794L46.7106 8.82645L46.831 8.97918L46.9593 9.12681L47.0933 9.26798L47.2338 9.40166L47.3807 9.52922L47.5338 9.64964L47.6927 9.76291L47.8563 9.86802L48.026 9.96564L48.2002 10.0551L48.3788 10.1364L48.5614 10.2085L48.7485 10.2721L48.9397 10.3269L49.1346 10.3721L49.3319 10.4079L49.5333 10.4337L49.737 10.4493L49.9445 10.4545V11.9845L49.6595 11.9773L49.3775 11.9556L49.0992 11.9202L48.825 11.8709L48.556 11.8079L48.292 11.7328L48.0335 11.6447L47.7808 11.5447L47.5341 11.4328L47.294 11.3093L47.061 11.1749L46.8348 11.0297L46.6167 10.8742L46.4065 10.7089L46.2045 10.5337L46.0109 10.349L45.8265 10.1555L45.652 9.95408L45.4867 9.7442L45.3309 9.52582L45.1857 9.29961L45.051 9.0666L44.9275 8.82611L44.8159 8.57984L44.7156 8.32744L44.6275 8.06824L44.5523 7.80461L44.4894 7.53487L44.4404 7.26104L44.4047 6.98347L44.3829 6.7008L44.3758 6.41574ZM45.9058 2.96211V6.41574H44.3758V2.96211H45.9058ZM44.3758 2.96211C44.3758 2.53963 44.7183 2.19709 45.1408 2.19709C45.5633 2.19709 45.9058 2.53963 45.9058 2.96211H44.3758ZM43.4485 1.53004V0L43.6012 0.00612262L43.7495 0.0227901L43.8965 0.0506834L44.038 0.0887811L44.1751 0.136064L44.3074 0.19253L44.4322 0.25614L44.5526 0.326892L44.6666 0.404109L44.7748 0.487107L44.8768 0.574528L44.9727 0.666031L45.0642 0.762297L45.15 0.861282L45.2309 0.963671L45.3068 1.06912L45.3775 1.17661L45.4445 1.2875L45.5065 1.4001L45.5636 1.51303L45.6167 1.62902L45.6653 1.74638L45.7095 1.86441L45.7493 1.98381L45.7847 2.10388L45.8163 2.22498L45.8432 2.34778L45.865 2.46922L45.8827 2.59201L45.8953 2.71617L45.9031 2.83863L45.9058 2.96211H44.3758L44.3744 2.90394L44.3707 2.84203L44.3642 2.77978L44.3547 2.71481L44.3424 2.64712L44.3278 2.58011L44.3105 2.51208L44.29 2.44302L44.2673 2.37533L44.2421 2.30764L44.2145 2.24131L44.1846 2.17634L44.1526 2.11239L44.1193 2.0515L44.0842 1.99367L44.0468 1.93721L44.0091 1.88482L43.9703 1.8355L43.9308 1.78958L43.891 1.74774L43.8502 1.7093L43.8108 1.67494L43.772 1.64569L43.7335 1.6195L43.6961 1.59705L43.6591 1.57834L43.6247 1.56337L43.5897 1.55147L43.555 1.54194L43.5216 1.53582L43.4849 1.5314L43.4485 1.53004ZM43.4485 1.53004C43.026 1.53004 42.6835 1.1875 42.6835 0.765018C42.6835 0.34254 43.026 0 43.4485 0V1.53004Z" fill="#FFCE1A"/>
<path d="M20.2976 11.5862H18.7676L18.7656 11.5018L18.7594 11.4195L18.7489 11.3389L18.7346 11.2583L18.7166 11.18L18.6945 11.1035L18.6693 11.0283L18.6401 10.9545L18.6077 10.8827L18.5724 10.8137L18.5332 10.7457L18.4911 10.6803L18.4451 10.6157L18.3972 10.5541L18.3462 10.4956L18.2924 10.4388L18.2356 10.3851L18.1771 10.3341L18.1155 10.2861L18.0509 10.2402L17.9856 10.198L17.9176 10.1589L17.8485 10.1235L17.7767 10.0912L17.7029 10.0619L17.6277 10.0368L17.5512 10.0147L17.473 9.99663L17.3923 9.98234L17.3117 9.97179L17.2294 9.96567L17.1451 9.96363V8.43359L17.3063 8.43768L17.4668 8.44992L17.625 8.46999L17.7791 8.49788L17.9322 8.53292L18.0822 8.57544L18.2288 8.6251L18.372 8.68157L18.5118 8.7445L18.6482 8.81457L18.7802 8.89043L18.9088 8.97275L19.0312 9.06017L19.1506 9.15371L19.2649 9.25304L19.3741 9.35713L19.4782 9.46632L19.5775 9.58061L19.6711 9.70001L19.7585 9.82246L19.8408 9.95105L19.9167 10.083L19.9867 10.2194L20.0497 10.3592L20.1061 10.5024L20.1558 10.6491L20.1983 10.7991L20.2334 10.9521L20.2613 11.1062L20.2813 11.2644L20.2936 11.425L20.2976 11.5862ZM17.1451 14.7384V13.2084L17.2294 13.2064L17.3117 13.2002L17.3923 13.1897L17.473 13.1754L17.5512 13.1574L17.6277 13.1353L17.7029 13.1101L17.7767 13.0809L17.8485 13.0485L17.9176 13.0132L17.9856 12.974L18.0519 12.9315L18.1155 12.8863L18.1771 12.838L18.2356 12.7873L18.2924 12.7332L18.3462 12.6767L18.3972 12.6179L18.4455 12.5563L18.4911 12.492L18.5332 12.4267L18.5724 12.3587L18.6077 12.2896L18.6401 12.2179L18.6693 12.1441L18.6945 12.0689L18.7166 11.9923L18.7346 11.9141L18.7489 11.8335L18.7594 11.7529L18.7656 11.6705L18.7676 11.5862H20.2976L20.2936 11.7474L20.2813 11.908L20.2613 12.0662L20.2334 12.2202L20.1983 12.3733L20.1558 12.5233L20.1061 12.6699L20.0497 12.8131L19.9867 12.953L19.9167 13.0894L19.8408 13.2213L19.7585 13.3499L19.6707 13.4727L19.5775 13.5914L19.4782 13.7061L19.3741 13.8149L19.2649 13.9193L19.1506 14.0183L19.0312 14.1122L18.9078 14.1996L18.7802 14.2816L18.6482 14.3575L18.5118 14.4275L18.372 14.4905L18.2288 14.5469L18.0822 14.5966L17.9322 14.6391L17.7791 14.6742L17.625 14.702L17.4668 14.7221L17.3063 14.7344L17.1451 14.7384ZM13.9928 11.5862H15.5228L15.5249 11.6705L15.531 11.7529L15.5415 11.8335L15.5558 11.9141L15.5739 11.9923L15.596 12.0689L15.6215 12.1451L15.6501 12.2179L15.682 12.2886L15.7181 12.3587L15.7572 12.4267L15.7997 12.4931L15.8446 12.5563L15.8933 12.6179L15.9443 12.6771L15.9977 12.7332L16.0542 12.787L16.1134 12.838L16.1749 12.8866L16.2382 12.9315L16.3045 12.974L16.3726 13.0132L16.4416 13.0485L16.5134 13.0809L16.5872 13.1101L16.6624 13.1353L16.7389 13.1574L16.8171 13.1754L16.8978 13.1897L16.9784 13.2002L17.0607 13.2064L17.1451 13.2084V14.7384L16.9838 14.7344L16.8233 14.7221L16.6651 14.702L16.511 14.6742L16.3579 14.6391L16.2079 14.5966L16.0613 14.5469L15.9181 14.4905L15.7783 14.4275L15.6419 14.3575L15.5099 14.2816L15.3823 14.1996L15.2585 14.1119L15.1398 14.0183L15.0255 13.9197L14.916 13.8149L14.8116 13.7057L14.7129 13.5914L14.6194 13.4727L14.5316 13.3489L14.4496 13.2213L14.3738 13.0894L14.3044 12.954L14.2404 12.8131L14.184 12.6689L14.1346 12.5233L14.0921 12.3733L14.0571 12.2202L14.0292 12.0662L14.0091 11.908L13.9969 11.7474L13.9928 11.5862ZM17.1451 8.43359V9.96363L17.0607 9.96567L16.9784 9.97179L16.8978 9.98234L16.8171 9.99663L16.7389 10.0147L16.6624 10.0368L16.5872 10.0619L16.5134 10.0912L16.4416 10.1235L16.3726 10.1589L16.3045 10.198L16.2392 10.2402L16.1749 10.2858L16.1134 10.3341L16.0542 10.3854L15.9977 10.4388L15.9443 10.4953L15.8933 10.5541L15.845 10.6157L15.7997 10.6793L15.7572 10.7457L15.7181 10.8137L15.682 10.8838L15.6501 10.9545L15.6215 11.0273L15.596 11.1035L15.5739 11.18L15.5558 11.2583L15.5415 11.3389L15.531 11.4195L15.5249 11.5018L15.5228 11.5862H13.9928L13.9969 11.425L14.0091 11.2644L14.0292 11.1062L14.0571 10.9521L14.0921 10.7991L14.1346 10.6491L14.184 10.5035L14.2404 10.3592L14.3044 10.2184L14.3738 10.083L14.4496 9.95105L14.5316 9.82349L14.619 9.70001L14.7129 9.58061L14.8116 9.46666L14.916 9.35713L15.0255 9.2527L15.1398 9.15371L15.2585 9.06051L15.3813 8.97275L15.5099 8.89043L15.6419 8.81457L15.7783 8.7445L15.9181 8.68157L16.0613 8.6251L16.2079 8.57544L16.3579 8.53292L16.511 8.49788L16.6651 8.46999L16.8233 8.44992L16.9838 8.43768L17.1451 8.43359Z" fill="#1DACA5"/>
<path d="M18.0896 15.9415H16.2004V14.4115H18.0896V15.9415ZM21.9113 18.2332H20.3813L20.3782 18.1155L20.3694 17.9995L20.3547 17.8849L20.3347 17.7733L20.3092 17.6638L20.2782 17.5559L20.2418 17.4488L20.201 17.345L20.1551 17.2443L20.104 17.1457L20.0486 17.0491L19.9884 16.9555L19.9251 16.8661L19.8564 16.7797L19.7836 16.6953L19.7074 16.6154L19.6275 16.5392L19.5431 16.4664L19.4567 16.3977L19.3673 16.3344L19.2737 16.2742L19.1771 16.2188L19.0785 16.1677L18.9778 16.1218L18.874 16.081L18.7669 16.0446L18.659 16.0136L18.5495 15.9881L18.4379 15.9681L18.3233 15.9534L18.2073 15.9446L18.0896 15.9415V14.4115L18.2856 14.4166L18.4784 14.4316L18.6693 14.4557L18.8577 14.4894L19.0434 14.5326L19.2247 14.5846L19.4013 14.6448L19.5751 14.7136L19.7452 14.7908L19.9098 14.8751L20.069 14.9673L20.2238 15.0663L20.3745 15.1738L20.5187 15.2874L20.6568 15.4071L20.7891 15.5337L20.9157 15.666L21.0354 15.8041L21.149 15.9483L21.2565 16.099L21.3555 16.2538L21.4477 16.413L21.532 16.5776L21.6092 16.7477L21.678 16.9215L21.7382 17.0981L21.7902 17.2794L21.8334 17.4651L21.8671 17.6536L21.8912 17.8444L21.9062 18.0373L21.9113 18.2332ZM20.3813 19.203V18.2332H21.9113V19.203H20.3813ZM19.9238 21.1905V19.6605L19.9466 19.6598L19.9704 19.6581L19.9945 19.6547L20.0153 19.6513L20.036 19.6462L20.0585 19.6401L20.0775 19.6336L20.0989 19.6251L20.1207 19.6149L20.1404 19.605L20.1585 19.5948L20.1779 19.5823L20.1952 19.57L20.2126 19.5561L20.2296 19.5414L20.2449 19.5265L20.2615 19.5088L20.2765 19.4921L20.2908 19.4741L20.3041 19.4554L20.3149 19.438L20.3262 19.419L20.3367 19.3986L20.3459 19.3785L20.3544 19.3571L20.3609 19.338L20.367 19.3163L20.3721 19.2945L20.3755 19.2741L20.3789 19.2496L20.3806 19.2258L20.3813 19.203H21.9113L21.9086 19.3054L21.9008 19.4054L21.8885 19.5033L21.8708 19.6027L21.848 19.6993L21.8215 19.7932L21.7892 19.8877L21.7535 19.9772L21.7137 20.0653L21.6698 20.1503L21.6225 20.2333L21.5694 20.3153L21.514 20.3925L21.4555 20.467L21.3936 20.5388L21.3293 20.6061L21.2596 20.6728L21.1875 20.7351L21.113 20.7939L21.0344 20.8497L20.9544 20.9011L20.8697 20.95L20.784 20.9939L20.6976 21.0327L20.6082 21.0684L20.5136 21.1007L20.4204 21.1273L20.3234 21.1501L20.2238 21.1677L20.1262 21.18L20.0261 21.1878L19.9238 21.1905ZM14.3666 19.6605H19.9238V21.1905H14.3666V19.6605ZM12.379 19.203H13.9091L13.9097 19.2258L13.9114 19.2496L13.9148 19.2741L13.9182 19.2945L13.9234 19.3163L13.9295 19.338L13.9359 19.3571L13.9444 19.3785L13.9546 19.4003L13.9638 19.419L13.9744 19.4367L13.9873 19.4571L14.0006 19.4754L14.0135 19.4921L14.0271 19.5078L14.0441 19.5255L14.0618 19.5425L14.0774 19.5561L14.0941 19.569L14.1125 19.5823L14.1329 19.5952L14.1506 19.6057L14.1693 19.6149L14.1911 19.6251L14.2125 19.6336L14.2315 19.6401L14.2533 19.6462L14.2751 19.6513L14.2955 19.6547L14.32 19.6581L14.3438 19.6598L14.3666 19.6605V21.1905L14.2642 21.1878L14.1642 21.18L14.0662 21.1677L13.9669 21.1501L13.8703 21.1273L13.7764 21.1007L13.6818 21.0684L13.5924 21.0327L13.506 20.9939L13.4192 20.9494L13.3349 20.9007L13.256 20.8497L13.1784 20.7949L13.1025 20.7351L13.0298 20.6718L12.9624 20.6072L12.8978 20.5398L12.8345 20.467L12.7746 20.3912L12.7199 20.3136L12.6688 20.2347L12.6202 20.1503L12.5756 20.0636L12.5369 19.9772L12.5011 19.8877L12.4688 19.7932L12.4423 19.6993L12.4195 19.6027L12.4018 19.5033L12.3896 19.4054L12.3818 19.3054L12.379 19.203ZM13.9091 18.2332V19.203H12.379V18.2332H13.9091ZM16.2004 14.4115V15.9415L16.0827 15.9446L15.9667 15.9534L15.8521 15.9681L15.7405 15.9881L15.631 16.0136L15.5231 16.0446L15.416 16.081L15.3122 16.1218L15.2115 16.1677L15.1129 16.2188L15.0163 16.2742L14.9231 16.3341L14.8336 16.3977L14.7469 16.4664L14.6629 16.5392L14.5822 16.6161L14.5064 16.6953L14.4339 16.779L14.3656 16.8657L14.3019 16.9555L14.2417 17.0491L14.186 17.1464L14.1349 17.2443L14.0893 17.345L14.0482 17.4488L14.0125 17.5552L13.9812 17.6638L13.9557 17.7733L13.9356 17.8849L13.921 17.9995L13.9121 18.1155L13.9091 18.2332H12.379L12.3841 18.0373L12.3991 17.8444L12.4232 17.6536L12.4569 17.4651L12.5001 17.2794L12.5518 17.0988L12.612 16.9215L12.6811 16.7477L12.758 16.5776L12.843 16.4123L12.9348 16.2538L13.0338 16.099L13.141 15.9487L13.2543 15.8048L13.3743 15.666L13.5012 15.533L13.6335 15.4071L13.7713 15.2874L13.9159 15.1738L14.0659 15.0666L14.221 14.9673L14.3802 14.8751L14.5448 14.7908L14.7149 14.7136L14.8887 14.6448L15.0653 14.5846L15.2466 14.5326L15.4323 14.4894L15.6207 14.4557L15.8116 14.4316L16.0044 14.4166L16.2004 14.4115Z" fill="#1DACA5"/>
<path d="M20.2976 29.3456H18.7676L18.7656 29.2612L18.7594 29.1789L18.7489 29.0979L18.7346 29.0173L18.7166 28.9398L18.6945 28.8626L18.6693 28.7874L18.6404 28.7143L18.6077 28.6418L18.572 28.5724L18.5332 28.5047L18.4911 28.4394L18.4455 28.3751L18.3972 28.3135L18.3462 28.2547L18.2924 28.1982L18.2356 28.1441L18.1771 28.0935L18.1155 28.0452L18.0519 27.9999L17.9856 27.9574L17.9176 27.9183L17.8485 27.8829L17.7767 27.8506L17.7029 27.8213L17.6277 27.7962L17.5512 27.7741L17.473 27.756L17.3923 27.7417L17.3117 27.7312L17.2294 27.7251L17.1451 27.723V26.193L17.3063 26.1971L17.4668 26.2093L17.625 26.2294L17.7791 26.2573L17.9322 26.2923L18.0822 26.3348L18.2288 26.3845L18.372 26.441L18.5118 26.5039L18.6482 26.574L18.7802 26.6498L18.9078 26.7318L19.0312 26.8192L19.1506 26.9131L19.2649 27.0121L19.3741 27.1165L19.4782 27.2254L19.5775 27.34L19.6707 27.4587L19.7585 27.5815L19.8408 27.7101L19.917 27.8424L19.9867 27.9792L20.0493 28.1183L20.1061 28.2615L20.1558 28.4088L20.1983 28.5581L20.2334 28.7112L20.2613 28.866L20.2813 29.0238L20.2936 29.1844L20.2976 29.3456ZM17.1451 32.4978V30.9678L17.2294 30.9658L17.3117 30.9596L17.3923 30.9491L17.473 30.9348L17.5512 30.9168L17.6277 30.8947L17.7029 30.8695L17.7767 30.8402L17.8485 30.8079L17.9176 30.7726L17.9856 30.7334L18.0519 30.6909L18.1155 30.6457L18.1771 30.5974L18.2356 30.5467L18.2924 30.4926L18.3462 30.4361L18.3972 30.3773L18.4455 30.3157L18.4911 30.2514L18.5332 30.1861L18.5724 30.1181L18.6077 30.049L18.6401 29.9773L18.6693 29.9034L18.6945 29.8283L18.7166 29.7517L18.7346 29.6735L18.7489 29.5929L18.7594 29.5123L18.7656 29.4299L18.7676 29.3456H20.2976L20.2936 29.5068L20.2813 29.6674L20.2613 29.8256L20.2334 29.9796L20.1983 30.1327L20.1558 30.2827L20.1061 30.4293L20.0497 30.5725L19.9867 30.7123L19.9167 30.8488L19.8408 30.9807L19.7585 31.1093L19.6707 31.2321L19.5775 31.3508L19.4782 31.4655L19.3741 31.5743L19.2649 31.6787L19.1506 31.7777L19.0312 31.8716L18.9078 31.959L18.7802 32.041L18.6482 32.1169L18.5118 32.1869L18.372 32.2499L18.2288 32.3063L18.0822 32.356L17.9322 32.3985L17.7791 32.4336L17.625 32.4614L17.4668 32.4815L17.3063 32.4938L17.1451 32.4978ZM13.9928 29.3456H15.5228L15.5249 29.4299L15.531 29.5123L15.5415 29.5929L15.5558 29.6735L15.5739 29.7517L15.596 29.8283L15.6215 29.9045L15.6501 29.9773L15.682 30.048L15.7181 30.1181L15.7572 30.1861L15.7997 30.2525L15.8446 30.3157L15.8933 30.3773L15.9443 30.4365L15.9977 30.4926L16.0542 30.5464L16.1134 30.5974L16.1749 30.646L16.2382 30.6909L16.3045 30.7334L16.3726 30.7726L16.4416 30.8079L16.5134 30.8402L16.5872 30.8695L16.6624 30.8947L16.7389 30.9168L16.8171 30.9348L16.8978 30.9491L16.9784 30.9596L17.0607 30.9658L17.1451 30.9678V32.4978L16.9838 32.4938L16.8233 32.4815L16.6651 32.4614L16.511 32.4336L16.3579 32.3985L16.2079 32.356L16.0613 32.3063L15.9181 32.2499L15.7783 32.1869L15.6419 32.1169L15.5099 32.041L15.3823 31.959L15.2585 31.8713L15.1398 31.7777L15.0255 31.6791L14.916 31.5743L14.8116 31.4651L14.7129 31.3508L14.6194 31.2321L14.5316 31.1083L14.4496 30.9807L14.3738 30.8488L14.3044 30.7134L14.2404 30.5725L14.184 30.4283L14.1346 30.2827L14.0921 30.1327L14.0571 29.9796L14.0292 29.8256L14.0091 29.6674L13.9969 29.5068L13.9928 29.3456ZM17.1451 26.193V27.723L17.0607 27.7251L16.9784 27.7312L16.8978 27.7417L16.8171 27.756L16.7389 27.7741L16.6624 27.7962L16.5872 27.8213L16.5134 27.8506L16.4416 27.8829L16.3726 27.9183L16.3045 27.9574L16.2382 27.9999L16.1749 28.0448L16.1134 28.0935L16.0542 28.1445L15.9977 28.1982L15.9443 28.2544L15.8933 28.3135L15.8446 28.3751L15.7997 28.4384L15.7572 28.5047L15.7184 28.5724L15.6824 28.6428L15.6497 28.7143L15.6215 28.7864L15.596 28.8626L15.5739 28.9398L15.5558 29.0173L15.5415 29.0979L15.531 29.1789L15.5249 29.2612L15.5228 29.3456H13.9928L13.9969 29.1844L14.0091 29.0238L14.0292 28.866L14.0571 28.7112L14.0921 28.5581L14.1346 28.4088L14.184 28.2625L14.2408 28.1183L14.304 27.9781L14.3734 27.8424L14.4496 27.7101L14.5316 27.5825L14.6194 27.4587L14.7129 27.34L14.8116 27.2257L14.916 27.1165L15.0255 27.0118L15.1398 26.9131L15.2585 26.8196L15.3823 26.7318L15.5099 26.6498L15.6419 26.574L15.7783 26.5039L15.9181 26.441L16.0613 26.3845L16.2079 26.3348L16.3579 26.2923L16.511 26.2573L16.6651 26.2294L16.8233 26.2093L16.9838 26.1971L17.1451 26.193Z" fill="#1DACA5"/>
<path d="M18.0896 33.7009H16.2004V32.1709H18.0896V33.7009ZM21.9113 35.9926H20.3813L20.3782 35.8749L20.3694 35.7589L20.3547 35.6443L20.3347 35.5327L20.3092 35.4232L20.2782 35.3153L20.2418 35.2082L20.201 35.1044L20.1551 35.0037L20.104 34.9051L20.0486 34.8085L19.9884 34.7149L19.9251 34.6255L19.8564 34.5391L19.7836 34.4547L19.7074 34.3748L19.6275 34.2986L19.5431 34.2258L19.4567 34.1571L19.3673 34.0938L19.2737 34.0336L19.1771 33.9782L19.0785 33.9271L18.9778 33.8812L18.874 33.8404L18.7669 33.804L18.659 33.773L18.5495 33.7475L18.4379 33.7275L18.3233 33.7128L18.2073 33.704L18.0896 33.7009V32.1709L18.2856 32.176L18.4784 32.191L18.6693 32.2151L18.8577 32.2488L19.0434 32.292L19.2247 32.344L19.4013 32.4042L19.5751 32.473L19.7452 32.5502L19.9098 32.6345L20.069 32.7267L20.2238 32.8257L20.3745 32.9332L20.5187 33.0468L20.6568 33.1665L20.7891 33.2931L20.9157 33.4254L21.0354 33.5635L21.149 33.7077L21.2565 33.8584L21.3555 34.0132L21.4477 34.1724L21.532 34.337L21.6092 34.5071L21.678 34.6809L21.7382 34.8575L21.7902 35.0388L21.8334 35.2245L21.8671 35.413L21.8912 35.6038L21.9062 35.7967L21.9113 35.9926ZM20.3813 36.9624V35.9926H21.9113V36.9624H20.3813ZM19.9238 38.9499V37.4199L19.9466 37.4192L19.9704 37.4175L19.9945 37.4141L20.0153 37.4107L20.036 37.4056L20.0585 37.3995L20.0775 37.393L20.0989 37.3845L20.1207 37.3743L20.1404 37.3644L20.1585 37.3542L20.1779 37.3417L20.1952 37.3294L20.2126 37.3155L20.2296 37.3008L20.2449 37.2859L20.2615 37.2682L20.2765 37.2515L20.2908 37.2335L20.3041 37.2148L20.3149 37.1974L20.3262 37.1784L20.3367 37.158L20.3459 37.1379L20.3544 37.1165L20.3609 37.0974L20.367 37.0757L20.3721 37.0539L20.3755 37.0335L20.3789 37.009L20.3806 36.9852L20.3813 36.9624H21.9113L21.9086 37.0648L21.9008 37.1648L21.8885 37.2627L21.8708 37.3621L21.848 37.4587L21.8215 37.5526L21.7892 37.6471L21.7535 37.7366L21.7137 37.8247L21.6698 37.9097L21.6225 37.9927L21.5694 38.0747L21.514 38.1519L21.4555 38.2264L21.3936 38.2982L21.3293 38.3655L21.2596 38.4322L21.1875 38.4945L21.113 38.5533L21.0344 38.6091L20.9544 38.6605L20.8697 38.7094L20.784 38.7533L20.6976 38.7921L20.6082 38.8278L20.5136 38.8601L20.4204 38.8867L20.3234 38.9095L20.2238 38.9271L20.1262 38.9394L20.0261 38.9472L19.9238 38.9499ZM14.3666 37.4199H19.9238V38.9499H14.3666V37.4199ZM12.379 36.9624H13.9091L13.9097 36.9852L13.9114 37.009L13.9148 37.0335L13.9182 37.0539L13.9234 37.0757L13.9295 37.0974L13.9359 37.1165L13.9444 37.1379L13.9546 37.1597L13.9638 37.1784L13.9744 37.1961L13.9873 37.2165L14.0006 37.2348L14.0135 37.2515L14.0271 37.2672L14.0441 37.2849L14.0618 37.3019L14.0774 37.3155L14.0941 37.3284L14.1125 37.3417L14.1329 37.3546L14.1506 37.3651L14.1693 37.3743L14.1911 37.3845L14.2125 37.393L14.2315 37.3995L14.2533 37.4056L14.2751 37.4107L14.2955 37.4141L14.32 37.4175L14.3438 37.4192L14.3666 37.4199V38.9499L14.2642 38.9472L14.1642 38.9394L14.0662 38.9271L13.9669 38.9095L13.8703 38.8867L13.7764 38.8601L13.6818 38.8278L13.5924 38.7921L13.506 38.7533L13.4192 38.7088L13.3349 38.6601L13.256 38.6091L13.1784 38.5543L13.1025 38.4945L13.0298 38.4312L12.9624 38.3666L12.8978 38.2992L12.8345 38.2264L12.7746 38.1506L12.7199 38.073L12.6688 37.9941L12.6202 37.9097L12.5756 37.823L12.5369 37.7366L12.5011 37.6471L12.4688 37.5526L12.4423 37.4587L12.4195 37.3621L12.4018 37.2627L12.3896 37.1648L12.3818 37.0648L12.379 36.9624ZM13.9091 35.9926V36.9624H12.379V35.9926H13.9091ZM16.2004 32.1709V33.7009L16.0827 33.704L15.9667 33.7128L15.8521 33.7275L15.7405 33.7475L15.631 33.773L15.5231 33.804L15.416 33.8404L15.3122 33.8812L15.2115 33.9271L15.1129 33.9782L15.0163 34.0336L14.9231 34.0935L14.8336 34.1571L14.7469 34.2258L14.6629 34.2986L14.5822 34.3755L14.5064 34.4547L14.4339 34.5384L14.3656 34.6251L14.3019 34.7149L14.2417 34.8085L14.186 34.9058L14.1349 35.0037L14.0893 35.1044L14.0482 35.2082L14.0125 35.3146L13.9812 35.4232L13.9557 35.5327L13.9356 35.6443L13.921 35.7589L13.9121 35.8749L13.9091 35.9926H12.379L12.3841 35.7967L12.3991 35.6038L12.4232 35.413L12.4569 35.2245L12.5001 35.0388L12.5518 34.8582L12.612 34.6809L12.6811 34.5071L12.758 34.337L12.843 34.1717L12.9348 34.0132L13.0338 33.8584L13.141 33.7081L13.2543 33.5642L13.3743 33.4254L13.5012 33.2924L13.6335 33.1665L13.7713 33.0468L13.9159 32.9332L14.0659 32.826L14.221 32.7267L14.3802 32.6345L14.5448 32.5502L14.7149 32.473L14.8887 32.4042L15.0653 32.344L15.2466 32.292L15.4323 32.2488L15.6207 32.2151L15.8116 32.191L16.0044 32.176L16.2004 32.1709Z" fill="#1DACA5"/>
<path d="M20.2976 47.105H18.7676L18.7656 47.0206L18.7594 46.9383L18.7489 46.8577L18.7346 46.7771L18.7166 46.6988L18.6945 46.6223L18.6693 46.5471L18.6401 46.4733L18.6077 46.4015L18.5724 46.3325L18.5332 46.2645L18.4911 46.1991L18.4451 46.1345L18.3972 46.0729L18.3462 46.0144L18.2924 45.9576L18.2356 45.9039L18.1771 45.8529L18.1155 45.8049L18.0509 45.759L17.9856 45.7168L17.9176 45.6777L17.8485 45.6423L17.7767 45.61L17.7029 45.5807L17.6277 45.5556L17.5512 45.5335L17.473 45.5154L17.3923 45.5011L17.3117 45.4906L17.2294 45.4845L17.1451 45.4824V43.9524L17.3063 43.9565L17.4668 43.9687L17.625 43.9888L17.7791 44.0167L17.9322 44.0517L18.0822 44.0942L18.2288 44.1439L18.372 44.2004L18.5118 44.2633L18.6482 44.3334L18.7802 44.4092L18.9088 44.4915L19.0312 44.579L19.1506 44.6725L19.2649 44.7718L19.3741 44.8759L19.4782 44.9851L19.5775 45.0994L19.6711 45.2188L19.7585 45.3413L19.8408 45.4698L19.9167 45.6018L19.9867 45.7382L20.0497 45.878L20.1061 46.0212L20.1558 46.1678L20.1983 46.3179L20.2334 46.4709L20.2613 46.625L20.2813 46.7832L20.2936 46.9438L20.2976 47.105ZM17.1451 50.2572V48.7272L17.2294 48.7252L17.3117 48.719L17.3923 48.7085L17.473 48.6942L17.5512 48.6762L17.6277 48.6541L17.7039 48.6286L17.7767 48.6L17.8475 48.568L17.9176 48.532L17.9856 48.4928L18.0519 48.4503L18.1155 48.4051L18.1771 48.3568L18.2359 48.3057L18.2924 48.2523L18.3458 48.1959L18.3972 48.1367L18.4455 48.0751L18.4911 48.0108L18.5332 47.9455L18.5724 47.8775L18.6077 47.8084L18.6401 47.7367L18.6693 47.6628L18.6945 47.5877L18.7166 47.5111L18.7346 47.4329L18.7489 47.3523L18.7594 47.2717L18.7656 47.1893L18.7676 47.105H20.2976L20.2936 47.2662L20.2813 47.4268L20.2613 47.5849L20.2334 47.739L20.1983 47.8921L20.1558 48.0421L20.1061 48.1887L20.0497 48.3319L19.9867 48.4717L19.9167 48.6082L19.8408 48.7401L19.7585 48.8687L19.6707 48.9915L19.5775 49.1102L19.4785 49.2245L19.3741 49.3341L19.2646 49.4385L19.1506 49.5371L19.0312 49.631L18.9078 49.7184L18.7802 49.8004L18.6482 49.8763L18.5128 49.9457L18.372 50.0096L18.2278 50.0661L18.0822 50.1154L17.9322 50.1579L17.7791 50.193L17.625 50.2208L17.4668 50.2409L17.3063 50.2532L17.1451 50.2572ZM13.9928 47.105H15.5228L15.5249 47.1893L15.531 47.2717L15.5415 47.3523L15.5558 47.4329L15.5739 47.5111L15.596 47.5877L15.6215 47.6639L15.6501 47.7367L15.682 47.8074L15.7181 47.8775L15.7572 47.9455L15.7997 48.0119L15.8446 48.0751L15.8933 48.1367L15.945 48.1966L15.9977 48.2523L16.0535 48.3051L16.1134 48.3568L16.1749 48.4054L16.2382 48.4503L16.3045 48.4928L16.3726 48.532L16.4426 48.568L16.5134 48.6L16.5862 48.6286L16.6624 48.6541L16.7389 48.6762L16.8171 48.6942L16.8978 48.7085L16.9784 48.719L17.0607 48.7252L17.1451 48.7272V50.2572L16.9838 50.2532L16.8233 50.2409L16.6651 50.2208L16.511 50.193L16.3579 50.1579L16.2079 50.1154L16.0623 50.0661L15.9181 50.0096L15.7773 49.9457L15.6419 49.8763L15.5099 49.8004L15.3823 49.7184L15.2585 49.6307L15.1398 49.5371L15.0262 49.4392L14.916 49.3341L14.8109 49.2238L14.7129 49.1102L14.6194 48.9915L14.5316 48.8677L14.4496 48.7401L14.3738 48.6082L14.3044 48.4728L14.2404 48.3319L14.184 48.1877L14.1346 48.0421L14.0921 47.8921L14.0571 47.739L14.0292 47.5849L14.0091 47.4268L13.9969 47.2662L13.9928 47.105ZM17.1451 43.9524V45.4824L17.0607 45.4845L16.9784 45.4906L16.8978 45.5011L16.8171 45.5154L16.7389 45.5335L16.6624 45.5556L16.5872 45.5807L16.5134 45.61L16.4416 45.6423L16.3726 45.6777L16.3045 45.7168L16.2392 45.759L16.1749 45.8046L16.1134 45.8529L16.0542 45.9042L15.9977 45.9576L15.9443 46.0141L15.8933 46.0729L15.845 46.1345L15.7997 46.1981L15.7572 46.2645L15.7181 46.3325L15.682 46.4026L15.6501 46.4733L15.6215 46.5461L15.596 46.6223L15.5739 46.6988L15.5558 46.7771L15.5415 46.8577L15.531 46.9383L15.5249 47.0206L15.5228 47.105H13.9928L13.9969 46.9438L14.0091 46.7832L14.0292 46.625L14.0571 46.4709L14.0921 46.3179L14.1346 46.1678L14.184 46.0223L14.2404 45.878L14.3044 45.7372L14.3738 45.6018L14.4496 45.4698L14.5316 45.3423L14.619 45.2188L14.7129 45.0994L14.8116 44.9855L14.916 44.8759L15.0255 44.7715L15.1398 44.6725L15.2585 44.5793L15.3813 44.4915L15.5099 44.4092L15.6419 44.3334L15.7783 44.2633L15.9181 44.2004L16.0613 44.1439L16.2079 44.0942L16.3579 44.0517L16.511 44.0167L16.6651 43.9888L16.8233 43.9687L16.9838 43.9565L17.1451 43.9524Z" fill="#1DACA5"/>
<path d="M18.0896 51.4603H16.2004V49.9303H18.0896V51.4603ZM21.9113 53.752H20.3813L20.3782 53.6343L20.3694 53.5183L20.3547 53.4037L20.3347 53.2921L20.3092 53.1826L20.2782 53.0747L20.2418 52.9676L20.201 52.8638L20.1551 52.7631L20.104 52.6645L20.0486 52.5679L19.9884 52.4743L19.9251 52.3849L19.8564 52.2985L19.7836 52.2141L19.7074 52.1342L19.6275 52.058L19.5431 51.9852L19.4567 51.9165L19.3673 51.8532L19.2737 51.793L19.1771 51.7376L19.0785 51.6865L18.9778 51.6406L18.874 51.5998L18.7669 51.5634L18.659 51.5324L18.5495 51.5069L18.4379 51.4869L18.3233 51.4722L18.2073 51.4634L18.0896 51.4603V49.9303L18.2856 49.9354L18.4784 49.9504L18.6693 49.9745L18.8577 50.0082L19.0434 50.0514L19.2247 50.1034L19.4013 50.1636L19.5751 50.2324L19.7452 50.3096L19.9098 50.3939L20.069 50.4861L20.2238 50.5851L20.3745 50.6926L20.5187 50.8062L20.6568 50.9259L20.7891 51.0525L20.9157 51.1848L21.0354 51.3229L21.149 51.4671L21.2565 51.6178L21.3555 51.7726L21.4477 51.9318L21.532 52.0964L21.6092 52.2665L21.678 52.4403L21.7382 52.6169L21.7902 52.7982L21.8334 52.9839L21.8671 53.1724L21.8912 53.3632L21.9062 53.5561L21.9113 53.752ZM20.3813 54.7218V53.752H21.9113V54.7218H20.3813ZM19.9238 56.7093V55.1793L19.9466 55.1786L19.9704 55.1769L19.9945 55.1735L20.0153 55.1701L20.036 55.165L20.0585 55.1589L20.0775 55.1524L20.0989 55.1439L20.1207 55.1337L20.1404 55.1238L20.1585 55.1136L20.1779 55.1011L20.1952 55.0888L20.2126 55.0749L20.2296 55.0602L20.2449 55.0453L20.2615 55.0276L20.2765 55.0109L20.2908 54.9929L20.3041 54.9742L20.3149 54.9568L20.3262 54.9378L20.3367 54.9174L20.3459 54.8973L20.3544 54.8759L20.3609 54.8568L20.367 54.8351L20.3721 54.8133L20.3755 54.7929L20.3789 54.7684L20.3806 54.7446L20.3813 54.7218H21.9113L21.9086 54.8242L21.9008 54.9242L21.8885 55.0221L21.8708 55.1215L21.848 55.2181L21.8215 55.312L21.7892 55.4065L21.7535 55.496L21.7137 55.5841L21.6698 55.6691L21.6225 55.7521L21.5694 55.8341L21.514 55.9113L21.4555 55.9858L21.3936 56.0576L21.3293 56.1249L21.2596 56.1916L21.1875 56.2539L21.113 56.3127L21.0344 56.3685L20.9544 56.4199L20.8697 56.4688L20.784 56.5127L20.6976 56.5515L20.6082 56.5872L20.5136 56.6195L20.4204 56.6461L20.3234 56.6689L20.2238 56.6865L20.1262 56.6988L20.0261 56.7066L19.9238 56.7093ZM14.3666 55.1793H19.9238V56.7093H14.3666V55.1793ZM12.379 54.7218H13.9091L13.9097 54.7446L13.9114 54.7684L13.9148 54.7929L13.9182 54.8133L13.9234 54.8351L13.9295 54.8568L13.9359 54.8759L13.9444 54.8973L13.9546 54.9191L13.9638 54.9378L13.9744 54.9555L13.9873 54.9759L14.0006 54.9942L14.0135 55.0109L14.0271 55.0266L14.0441 55.0443L14.0618 55.0613L14.0774 55.0749L14.0941 55.0878L14.1125 55.1011L14.1329 55.114L14.1506 55.1245L14.1693 55.1337L14.1911 55.1439L14.2125 55.1524L14.2315 55.1589L14.2533 55.165L14.2751 55.1701L14.2955 55.1735L14.32 55.1769L14.3438 55.1786L14.3666 55.1793V56.7093L14.2642 56.7066L14.1642 56.6988L14.0662 56.6865L13.9669 56.6689L13.8703 56.6461L13.7764 56.6195L13.6818 56.5872L13.5924 56.5515L13.506 56.5127L13.4192 56.4682L13.3349 56.4195L13.256 56.3685L13.1784 56.3137L13.1025 56.2539L13.0298 56.1906L12.9624 56.126L12.8978 56.0586L12.8345 55.9858L12.7746 55.91L12.7199 55.8324L12.6688 55.7535L12.6202 55.6691L12.5756 55.5824L12.5369 55.496L12.5011 55.4065L12.4688 55.312L12.4423 55.2181L12.4195 55.1215L12.4018 55.0221L12.3896 54.9242L12.3818 54.8242L12.379 54.7218ZM13.9091 53.752V54.7218H12.379V53.752H13.9091ZM16.2004 49.9303V51.4603L16.0827 51.4634L15.9667 51.4722L15.8521 51.4869L15.7405 51.5069L15.631 51.5324L15.5231 51.5634L15.416 51.5998L15.3122 51.6406L15.2115 51.6865L15.1129 51.7376L15.0163 51.793L14.9231 51.8529L14.8336 51.9165L14.7469 51.9852L14.6629 52.058L14.5822 52.1349L14.5064 52.2141L14.4339 52.2978L14.3656 52.3845L14.3019 52.4743L14.2417 52.5679L14.186 52.6652L14.1349 52.7631L14.0893 52.8638L14.0482 52.9676L14.0125 53.0741L13.9812 53.1826L13.9557 53.2921L13.9356 53.4037L13.921 53.5183L13.9121 53.6343L13.9091 53.752H12.379L12.3841 53.5561L12.3991 53.3632L12.4232 53.1724L12.4569 52.9839L12.5001 52.7982L12.5518 52.6176L12.612 52.4403L12.6811 52.2665L12.758 52.0964L12.843 51.9311L12.9348 51.7726L13.0338 51.6178L13.141 51.4675L13.2543 51.3236L13.3743 51.1848L13.5012 51.0518L13.6335 50.9259L13.7713 50.8062L13.9159 50.6926L14.0659 50.5854L14.221 50.4861L14.3802 50.3939L14.5448 50.3096L14.7149 50.2324L14.8887 50.1636L15.0653 50.1034L15.2466 50.0514L15.4323 50.0082L15.6207 49.9745L15.8116 49.9504L16.0044 49.9354L16.2004 49.9303Z" fill="#1DACA5"/>
<path d="M44.3727 68.2955H12.2882C6.07109 68.2955 1 63.2247 1 57.0076V12.1981" stroke="#FFCE1A" stroke-width="1.70003" stroke-miterlimit="22.9256" stroke-linecap="round" stroke-linejoin="round"/>
</svg>
