<svg width="66" height="66" viewBox="0 0 66 66" fill="none" xmlns="http://www.w3.org/2000/svg">
<path d="M40.5243 16.2573H26.636" stroke="#FFCE1A" stroke-width="1.70003" stroke-miterlimit="22.9256" stroke-linecap="round" stroke-linejoin="round"/>
<path d="M36.8982 54.4188C36.8982 59.9637 41.4346 64.5001 46.9798 64.5001H46.9809C52.5261 64.5001 57.0625 59.9637 57.0625 54.4188V26.9941" stroke="#FFCE1A" stroke-width="1.70003" stroke-miterlimit="22.9256" stroke-linecap="round" stroke-linejoin="round"/>
<path fill-rule="evenodd" clip-rule="evenodd" d="M11.2309 64.5001H11.2295C5.68524 64.5001 1.14819 59.9638 1.14819 54.4188V53.8579H36.8982V54.4188C36.8982 59.9638 41.4346 64.5001 46.9799 64.5001H11.2309V64.5001Z" stroke="#FFCE1A" stroke-width="1.70003" stroke-miterlimit="22.9256" stroke-linecap="round" stroke-linejoin="round"/>
<path d="M22.1604 16.2573H23.5353" stroke="#FFCE1A" stroke-width="1.70003" stroke-miterlimit="22.9256" stroke-linecap="round" stroke-linejoin="round"/>
<path d="M40.5243 23.6198H26.636" stroke="#FFCE1A" stroke-width="1.70003" stroke-miterlimit="22.9256" stroke-linecap="round" stroke-linejoin="round"/>
<path d="M22.1604 23.6198H23.5353" stroke="#FFCE1A" stroke-width="1.70003" stroke-miterlimit="22.9256" stroke-linecap="round" stroke-linejoin="round"/>
<path d="M49.6164 30.9822H26.6362" stroke="#FFCE1A" stroke-width="1.70003" stroke-miterlimit="22.9256" stroke-linecap="round" stroke-linejoin="round"/>
<path d="M22.1604 30.9822H23.5353" stroke="#FFCE1A" stroke-width="1.70003" stroke-miterlimit="22.9256" stroke-linecap="round" stroke-linejoin="round"/>
<path d="M49.6164 38.3446H26.6362" stroke="#FFCE1A" stroke-width="1.70003" stroke-miterlimit="22.9256" stroke-linecap="round" stroke-linejoin="round"/>
<path d="M22.1604 38.3446H23.5353" stroke="#FFCE1A" stroke-width="1.70003" stroke-miterlimit="22.9256" stroke-linecap="round" stroke-linejoin="round"/>
<path d="M49.6164 45.707H26.6362" stroke="#FFCE1A" stroke-width="1.70003" stroke-miterlimit="22.9256" stroke-linecap="round" stroke-linejoin="round"/>
<path d="M22.1604 45.707H23.5353" stroke="#FFCE1A" stroke-width="1.70003" stroke-miterlimit="22.9256" stroke-linecap="round" stroke-linejoin="round"/>
<path d="M43.9222 4.46851H19.8859C16.5438 4.46851 13.8086 7.20338 13.8086 10.5454V49.958" stroke="#FFCE1A" stroke-width="1.70003" stroke-miterlimit="22.9256" stroke-linecap="round" stroke-linejoin="round"/>
<path d="M62.5137 18.7834L61.4333 17.7003L61.7548 17.3629L62.0551 17.0139L62.3348 16.6537L62.5936 16.2832L62.8314 15.9033L63.0491 15.5141L63.2457 15.1175L63.4219 14.7131L63.5774 14.3025L63.7121 13.8861L63.8263 13.4647L63.9195 13.0395L63.9927 12.6105L64.0451 12.1792L64.0764 11.7465L64.0873 11.3128L64.0774 10.8791L64.0468 10.4461L63.9954 10.0148L63.9236 9.58583L63.8311 9.16029L63.7178 8.73849L63.5838 8.3218L63.4294 7.91123L63.2539 7.50644L63.0579 7.10879L62.8412 6.71965L62.6045 6.33901L62.3467 5.9679L62.0677 5.60733L61.768 5.25731L61.4473 4.91919L62.5303 3.83884L62.9042 4.23275L63.2542 4.64128L63.5801 5.06307L63.8821 5.49746L64.1597 5.94273L64.4131 6.39854L64.6424 6.86354L64.8478 7.33704L65.0288 7.81836L65.1853 8.30581L65.3176 8.79904L65.4258 9.2967L65.5098 9.79775L65.57 10.3019L65.6054 10.8077L65.6173 11.3142L65.6044 11.8214L65.5676 12.3268L65.5064 12.8309L65.4217 13.332L65.3122 13.8293L65.1788 14.3222L65.021 14.8093L64.839 15.29L64.6329 15.7631L64.4022 16.2278L64.1478 16.6829L63.8692 17.1282L63.5661 17.5612L63.2396 17.9827L62.8882 18.3902L62.5137 18.7834ZM47.5691 18.7667L48.6522 17.6864V17.686L48.9896 18.0075L49.339 18.3082L49.6989 18.5878L50.0696 18.8467L50.4493 19.0844L50.8384 19.3021L51.2354 19.4988L51.6395 19.675L52.05 19.8304L52.4667 19.9651L52.8879 20.0794L53.3134 20.1729L53.742 20.2457L54.1733 20.2981L54.6063 20.3294L55.0397 20.3403L55.4734 20.3304L55.9064 20.2998L56.3377 20.2485L56.767 20.1767L57.1926 20.0842L57.614 19.9709L58.0307 19.8369L58.4413 19.6824L58.8461 19.5069L59.2437 19.311L59.6329 19.0943L60.0135 18.8576L60.3846 18.5997L60.7452 18.3208L61.0952 18.0211L61.4333 17.7003L62.5137 18.7834L62.1198 19.1572L61.7112 19.5073L61.2894 19.8331L60.8551 20.1352L60.4098 20.4128L59.954 20.6662L59.489 20.8954L59.0155 21.1009L58.5342 21.2819L58.0467 21.4383L57.5538 21.5707L57.0562 21.6788L56.5548 21.7628L56.0507 21.8231L55.5448 21.8584L55.0383 21.8703L54.5315 21.8574L54.0257 21.8207L53.5216 21.7594L53.0209 21.6744L52.5232 21.5652L52.0307 21.4319L51.5432 21.274L51.0626 21.0921L50.5897 20.8859L50.1247 20.6553L49.6696 20.4009L49.2247 20.1223L48.7913 19.8192L48.3702 19.4926L47.9623 19.1416L47.5691 18.7671V18.7667ZM47.5858 3.82217L48.6661 4.90524H48.6665L48.345 5.24268L48.0443 5.59202L47.7647 5.95191L47.5059 6.32268L47.2681 6.7023L47.0504 7.09144L46.8538 7.48841L46.6776 7.89252L46.5221 8.30309L46.3874 8.71979L46.2731 9.1409L46.1799 9.56644L46.1068 9.99504L46.0544 10.4264L46.0231 10.8594L46.0122 11.2928L46.0221 11.7265L46.0527 12.1595L46.1041 12.5908L46.1758 13.0197L46.2684 13.4456L46.3816 13.8671L46.5157 14.2838L46.6701 14.6943L46.8456 15.0991L47.0415 15.4968L47.2582 15.8859L47.495 16.2666L47.7528 16.6377L48.0317 16.9982L48.3314 17.3483L48.6522 17.6864L47.5691 18.7667L47.1953 18.3728L46.8453 17.9643L46.5194 17.5425L46.2173 17.1081L45.9398 16.6628L45.6863 16.207L45.4571 15.742L45.2516 15.2685L45.0707 14.7872L44.9142 14.2998L44.7819 13.8069L44.6737 13.3089L44.5897 12.8078L44.5295 12.3037L44.4941 11.7979L44.4822 11.2914L44.4951 10.7846L44.5318 10.2787L44.5931 9.77462L44.6778 9.2739L44.7873 8.77625L44.9206 8.2837L45.0785 7.79625L45.2605 7.31561L45.4666 6.84279L45.6972 6.37779L45.9517 5.92266L46.2303 5.47773L46.5333 5.04437L46.8599 4.62325L47.2109 4.2154L47.5854 3.82217H47.5858ZM62.5303 3.83884L61.4473 4.91919L61.1098 4.59774L60.7608 4.29738L60.4006 4.01777L60.0302 3.7589L59.6502 3.52113L59.2611 3.30343L58.8644 3.10682L58.46 2.93062L58.0494 2.77516L57.6331 2.64046L57.2116 2.52617L56.7864 2.43262L56.3575 2.35983L55.9262 2.30744L55.4935 2.27615L55.0598 2.26526L54.6261 2.27513L54.193 2.30574L53.7617 2.35711L53.3328 2.42888L52.9072 2.5214L52.4854 2.63468L52.0687 2.7687L51.6582 2.92313L51.2534 3.09865L50.8557 3.29459L50.4666 3.51127L50.086 3.74802L49.7148 4.00586L49.3543 4.28479L49.0043 4.58447L48.6661 4.90524L47.5858 3.82217L47.9797 3.44834L48.3882 3.09831L48.81 2.77244L49.2444 2.47038L49.6897 2.19281L50.1455 1.93939L50.6105 1.71012L51.084 1.50467L51.5653 1.3237L52.0528 1.16723L52.546 1.03491L53.0436 0.926738L53.5447 0.842719L54.0488 0.782511L54.5546 0.747134L55.0611 0.735229L55.5683 0.748155L56.0738 0.784892L56.5779 0.846121L57.079 0.93116L57.5763 1.04035L58.0692 1.17369L58.5563 1.33153L59.0369 1.51351L59.5101 1.71965L59.9747 1.95028L60.4299 2.20472L60.8751 2.48331L61.3082 2.78639L61.7296 3.11294L62.1371 3.46433L62.5303 3.83884Z" fill="#1DACA5"/>
<path d="M52.3299 7.11561C51.9119 7.11561 51.5728 6.77375 51.5728 6.35263C51.5728 5.93151 51.9126 5.59033 52.3306 5.59033L52.3299 7.11561ZM59.1933 7.11799L52.3299 7.11561L52.3306 5.59033L59.194 5.59271L59.1933 7.11799ZM59.194 5.59271C59.6121 5.59271 59.9512 5.93457 59.9512 6.35569C59.9512 6.77681 59.6114 7.11799 59.1933 7.11799L59.194 5.59271Z" fill="#FFCE1A"/>
<path d="M52.3299 10.0138C51.9119 10.0138 51.5728 9.67194 51.5728 9.25082C51.5728 8.8297 51.9126 8.48853 52.3306 8.48853L52.3299 10.0138ZM59.1933 10.0162L52.3299 10.0138L52.3306 8.48853L59.194 8.49091L59.1933 10.0162ZM59.194 8.49091C59.6121 8.49091 59.9512 8.83277 59.9512 9.25388C59.9512 9.675 59.6114 10.0162 59.1933 10.0162L59.194 8.49091Z" fill="#FFCE1A"/>
<path d="M56.3329 17.9365L57.4935 16.9466C57.7643 17.2653 57.7241 17.7456 57.4037 18.0188C57.0833 18.2919 56.6036 18.2552 56.3329 17.9365ZM51.836 12.6443L52.9966 11.6544L57.4935 16.9466L56.3329 17.9365L51.836 12.6443ZM52.9966 11.6544L51.836 12.6443C51.5652 12.3255 51.6053 11.8452 51.9258 11.5721C52.2462 11.2989 52.7258 11.3357 52.9966 11.6544Z" fill="#FFCE1A"/>
<path d="M54.2065 6.35364C55.8009 6.35364 57.1054 7.65781 57.1054 9.25248C57.1054 10.8468 55.8009 12.1513 54.2065 12.1513" stroke="#FFCE1A" stroke-width="1.70003" stroke-miterlimit="22.9256" stroke-linecap="round" stroke-linejoin="round"/>
<path d="M52.4152 12.9119C51.9972 12.9115 51.6584 12.5693 51.6587 12.1482C51.659 11.7271 51.9992 11.3863 52.4172 11.3866L52.4152 12.9119ZM54.1317 12.9139L52.4152 12.9119L52.4172 11.3866L54.1337 11.3886L54.1317 12.9139ZM54.1337 11.3886C54.5517 11.389 54.8905 11.7312 54.8902 12.1523C54.8899 12.5734 54.5497 12.9143 54.1317 12.9139L54.1337 11.3886Z" fill="#FFCE1A"/>
</svg>
