<svg width="123" height="106" viewBox="0 0 123 106" fill="none" xmlns="http://www.w3.org/2000/svg">
<path d="M61.6431 28C59.0738 28 56.6097 29.0536 54.793 30.9289C52.9762 32.8043 51.9556 35.3478 51.9556 38V42H50.0181C48.9904 42 48.0047 42.4214 47.278 43.1716C46.5513 43.9217 46.1431 44.9391 46.1431 46V66C46.1431 67.0609 46.5513 68.0783 47.278 68.8284C48.0047 69.5786 48.9904 70 50.0181 70H73.2681C74.2958 70 75.2814 69.5786 76.0081 68.8284C76.7348 68.0783 77.1431 67.0609 77.1431 66V46C77.1431 44.9391 76.7348 43.9217 76.0081 43.1716C75.2814 42.4214 74.2958 42 73.2681 42H71.3306V38C71.3306 36.6868 71.08 35.3864 70.5932 34.1732C70.1063 32.9599 69.3927 31.8575 68.4932 30.9289C67.5936 30.0003 66.5257 29.2638 65.3503 28.7612C64.175 28.2587 62.9152 28 61.6431 28ZM61.6431 31.8C64.9562 31.8 67.6493 34.58 67.6493 38V42H55.6368V38C55.6368 34.58 58.3299 31.8 61.6431 31.8ZM62.0112 47C63.8324 47 65.2856 47.42 66.3318 48.24C67.3781 49.08 67.9012 50.2 67.9012 51.6C67.9012 52.48 67.6106 53.26 67.0487 54C66.4868 54.72 65.7506 55.28 64.8593 55.7C64.3556 56 64.0262 56.3 63.8518 56.64C63.6774 57 63.5806 57.44 63.5806 58H59.7056C59.7056 57 59.8993 56.32 60.2674 55.84C60.6743 55.36 61.3331 54.8 62.3406 54.16C62.8443 53.88 63.2512 53.52 63.5806 53.08C63.8518 52.66 64.0068 52.16 64.0068 51.6C64.0068 51 63.8324 50.56 63.4837 50.22C63.1349 49.86 62.6118 49.7 62.0112 49.7C61.4881 49.7 61.0618 49.84 60.6743 50.12C60.3643 50.4 60.1706 50.82 60.1706 51.38H56.3537C56.2568 50 56.7993 48.8 57.8649 48.08C58.9112 47.36 60.2868 47 62.0112 47ZM59.7056 60H63.5806V64H59.7056V60Z" fill="url(#paint0_linear_1922_213)"/>
<g opacity="0.48">
<path d="M10.3167 61.5479C9.84476 58.7349 9.59912 55.8452 9.59912 52.8982C9.59912 24.2356 32.8347 1 61.4973 1C68.0929 1 74.4012 2.23037 80.2051 4.47411M90.8299 10.0784C90.5547 9.88959 90.2777 9.70334 89.9988 9.51971M112.678 44.2485C113.15 47.0614 113.395 49.9511 113.395 52.8982C113.395 81.5608 90.1599 104.796 61.4973 104.796C55.2887 104.796 49.3348 103.706 43.8164 101.707M31.9186 95.5479C32.21 95.7504 32.5036 95.95 32.7994 96.1467" stroke="white" stroke-linecap="round" stroke-linejoin="round"/>
<circle cx="109.311" cy="31.3415" r="12.9745" stroke="white"/>
<circle cx="13.9745" cy="74.1591" r="12.9745" stroke="white"/>
</g>
<defs>
<linearGradient id="paint0_linear_1922_213" x1="54.3236" y1="62.3993" x2="72.2156" y2="40.7081" gradientUnits="userSpaceOnUse">
<stop stop-color="#FFB731"/>
<stop offset="1" stop-color="#FFCE1A"/>
</linearGradient>
</defs>
</svg>
