<svg width="74" height="72" viewBox="0 0 74 72" fill="none" xmlns="http://www.w3.org/2000/svg">
<path d="M36.9996 63.5377C52.2086 63.5377 64.538 51.2084 64.538 35.9993C64.538 20.7903 52.2086 8.46094 36.9996 8.46094C21.7905 8.46094 9.46118 20.7903 9.46118 35.9993C9.46118 51.2084 21.7905 63.5377 36.9996 63.5377Z" stroke="#FFCE1A" stroke-width="1.70003" stroke-miterlimit="22.9256"/>
<path d="M14.5304 27.5426C21.8602 27.5426 27.8022 21.6008 27.8022 14.2712C27.8022 6.94158 21.8602 0.999756 14.5304 0.999756C7.20054 0.999756 1.25854 6.94158 1.25854 14.2712C1.25854 21.6008 7.20054 27.5426 14.5304 27.5426Z" fill="white" stroke="#FFCE1A" stroke-width="1.70003" stroke-miterlimit="22.9256"/>
<path d="M59.4688 27.5426C66.7987 27.5426 72.7406 21.6008 72.7406 14.2712C72.7406 6.94158 66.7987 0.999756 59.4688 0.999756C52.139 0.999756 46.197 6.94158 46.197 14.2712C46.197 21.6008 52.139 27.5426 59.4688 27.5426Z" fill="white" stroke="#FFCE1A" stroke-width="1.70003" stroke-miterlimit="22.9256"/>
<path d="M14.5304 70.9993C21.8602 70.9993 27.8022 65.0575 27.8022 57.7279C27.8022 50.3982 21.8602 44.4564 14.5304 44.4564C7.20054 44.4564 1.25854 50.3982 1.25854 57.7279C1.25854 65.0575 7.20054 70.9993 14.5304 70.9993Z" fill="white" stroke="#FFCE1A" stroke-width="1.70003" stroke-miterlimit="22.9256"/>
<path d="M59.4688 70.9993C66.7987 70.9993 72.7406 65.0575 72.7406 57.7279C72.7406 50.3982 66.7987 44.4564 59.4688 44.4564C52.139 44.4564 46.197 50.3982 46.197 57.7279C46.197 65.0575 52.139 70.9993 59.4688 70.9993Z" fill="white" stroke="#FFCE1A" stroke-width="1.70003" stroke-miterlimit="22.9256"/>
<path d="M59.4688 27.5426C66.7987 27.5426 72.7406 21.6008 72.7406 14.2712C72.7406 6.94158 66.7987 0.999756 59.4688 0.999756C52.139 0.999756 46.197 6.94158 46.197 14.2712C46.197 21.6008 52.139 27.5426 59.4688 27.5426Z" stroke="#FFCE1A" stroke-width="1.70003" stroke-miterlimit="22.9256"/>
<path d="M14.5304 70.9993C21.8602 70.9993 27.8022 65.0575 27.8022 57.7279C27.8022 50.3982 21.8602 44.4564 14.5304 44.4564C7.20054 44.4564 1.25854 50.3982 1.25854 57.7279C1.25854 65.0575 7.20054 70.9993 14.5304 70.9993Z" stroke="#FFCE1A" stroke-width="1.70003" stroke-miterlimit="22.9256"/>
<path d="M59.4688 70.9993C66.7987 70.9993 72.7406 65.0575 72.7406 57.7279C72.7406 50.3982 66.7987 44.4564 59.4688 44.4564C52.139 44.4564 46.197 50.3982 46.197 57.7279C46.197 65.0575 52.139 70.9993 59.4688 70.9993Z" stroke="#FFCE1A" stroke-width="1.70003" stroke-miterlimit="22.9256"/>
<path d="M14.5304 27.5426C21.8602 27.5426 27.8022 21.6008 27.8022 14.2712C27.8022 6.94158 21.8602 0.999756 14.5304 0.999756C7.20054 0.999756 1.25854 6.94158 1.25854 14.2712C1.25854 21.6008 7.20054 27.5426 14.5304 27.5426Z" stroke="#FFCE1A" stroke-width="1.70003" stroke-miterlimit="22.9256"/>
<path fill-rule="evenodd" clip-rule="evenodd" d="M59.469 8.06445C60.9933 8.06445 62.2289 9.29998 62.2289 10.8243C62.2289 12.3482 60.9933 13.5837 59.469 13.5837C57.9448 13.5837 56.7092 12.3482 56.7092 10.8243C56.7092 9.29998 57.9448 8.06445 59.469 8.06445Z" stroke="#1DACA5" stroke-width="1.70003" stroke-miterlimit="22.9256"/>
<path fill-rule="evenodd" clip-rule="evenodd" d="M58.3771 14.9746H60.5609C62.504 14.9746 64.094 16.5643 64.094 18.5077V19.6287C64.094 20.4062 63.4579 21.0419 62.6808 21.0419H56.2572C55.4801 21.0419 54.844 20.4062 54.844 19.6287V18.5077C54.844 16.5643 56.434 14.9746 58.3771 14.9746V14.9746Z" stroke="#1DACA5" stroke-width="1.70003" stroke-miterlimit="22.9256"/>
<path fill-rule="evenodd" clip-rule="evenodd" d="M14.5303 7.36108C16.0546 7.36108 17.2901 8.59661 17.2901 10.1209C17.2901 11.6448 16.0546 12.8803 14.5303 12.8803C13.006 12.8803 11.7705 11.6448 11.7705 10.1209C11.7705 8.59661 13.006 7.36108 14.5303 7.36108Z" stroke="#1DACA5" stroke-width="1.70003" stroke-miterlimit="22.9256"/>
<path fill-rule="evenodd" clip-rule="evenodd" d="M13.4384 14.2712H15.6222C17.5652 14.2712 19.1553 15.8609 19.1553 17.8043V18.9254C19.1553 19.7028 18.5192 20.3385 17.7421 20.3385H11.3184C10.5414 20.3385 9.90527 19.7028 9.90527 18.9254V17.8043C9.90527 15.8609 11.4953 14.2712 13.4384 14.2712Z" stroke="#1DACA5" stroke-width="1.70003" stroke-miterlimit="22.9256"/>
<path fill-rule="evenodd" clip-rule="evenodd" d="M14.5303 50.4945C16.0546 50.4945 17.2901 51.73 17.2901 53.2543C17.2901 54.7782 16.0546 56.0137 14.5303 56.0137C13.006 56.0137 11.7705 54.7782 11.7705 53.2543C11.7705 51.73 13.006 50.4945 14.5303 50.4945Z" stroke="#1DACA5" stroke-width="1.70003" stroke-miterlimit="22.9256"/>
<path fill-rule="evenodd" clip-rule="evenodd" d="M13.4384 57.4047H15.6222C17.5652 57.4047 19.1553 58.9943 19.1553 60.9378V62.0588C19.1553 62.8362 18.5192 63.4719 17.7421 63.4719H11.3184C10.5414 63.4719 9.90527 62.8362 9.90527 62.0588V60.9378C9.90527 58.9943 11.4953 57.4047 13.4384 57.4047Z" stroke="#1DACA5" stroke-width="1.70003" stroke-miterlimit="22.9256"/>
<path fill-rule="evenodd" clip-rule="evenodd" d="M59.469 52.2086C60.9933 52.2086 62.2289 53.4441 62.2289 54.9684C62.2289 56.4923 60.9933 57.7279 59.469 57.7279C57.9448 57.7279 56.7092 56.4923 56.7092 54.9684C56.7092 53.4441 57.9448 52.2086 59.469 52.2086Z" stroke="#1DACA5" stroke-width="1.70003" stroke-miterlimit="22.9256"/>
<path fill-rule="evenodd" clip-rule="evenodd" d="M58.3771 59.1188H60.5609C62.504 59.1188 64.094 60.7084 64.094 62.6519V63.7729C64.094 64.5503 63.4579 65.186 62.6808 65.186H56.2572C55.4801 65.186 54.844 64.5503 54.844 63.7729V62.6519C54.844 60.7084 56.434 59.1188 58.3771 59.1188V59.1188Z" stroke="#1DACA5" stroke-width="1.70003" stroke-miterlimit="22.9256"/>
<path fill-rule="evenodd" clip-rule="evenodd" d="M36.9997 25.7996C39.2859 25.7996 41.139 27.653 41.139 29.9393C41.139 32.2251 39.2859 34.0786 36.9997 34.0786C34.7135 34.0786 32.8604 32.2251 32.8604 29.9393C32.8604 27.653 34.7135 25.7996 36.9997 25.7996Z" stroke="#1DACA5" stroke-width="1.70003" stroke-miterlimit="22.9256"/>
<path fill-rule="evenodd" clip-rule="evenodd" d="M35.3617 36.1646H38.6374C41.5525 36.1646 43.9374 38.5494 43.9374 41.4642V43.1461C43.9374 44.3121 42.9835 45.266 41.8175 45.266H32.1819C31.016 45.266 30.062 44.3121 30.062 43.1461V41.4642C30.062 38.5494 32.4469 36.1646 35.3617 36.1646V36.1646Z" stroke="#1DACA5" stroke-width="1.70003" stroke-miterlimit="22.9256"/>
</svg>
