<svg width="90" height="90" viewBox="0 0 90 90" fill="none" xmlns="http://www.w3.org/2000/svg">
<path d="M23.8698 46.3804C23.8698 46.8028 23.5272 47.1454 23.1047 47.1454C22.6823 47.1454 22.3397 46.8028 22.3397 46.3804H23.8698ZM23.8698 18.138V46.3804H22.3397V18.138H23.8698ZM29.8627 10.6154V12.1454L29.5552 12.1532L29.2521 12.1763L28.9531 12.2148L28.6592 12.2675L28.3707 12.3345L28.0874 12.4155L27.8095 12.5104L27.5377 12.6179L27.2727 12.7383L27.0142 12.871L26.7632 13.0159L26.5199 13.172L26.2845 13.3397L26.058 13.5183L25.8396 13.7074L25.6308 13.9064L25.4314 14.1156L25.2423 14.3333L25.0644 14.5598L24.8967 14.7952L24.7402 15.0388L24.5953 15.2898L24.4627 15.548L24.3422 15.8133L24.2347 16.0851L24.1398 16.3627L24.0589 16.646L23.9919 16.9345L23.9392 17.2284L23.9007 17.5274L23.8776 17.8305L23.8698 18.138H22.3397L22.3496 17.7529L22.3788 17.3716L22.4268 16.9964L22.4931 16.6263L22.5778 16.2623L22.6799 15.9055L22.7986 15.5565L22.934 15.2153L23.085 14.882L23.2517 14.5578L23.4333 14.2428L23.6293 13.938L23.8391 13.6428L24.0633 13.3584L24.3001 13.0856L24.5491 12.8247L24.8103 12.5754L25.0831 12.3386L25.3675 12.1151L25.6621 11.9052L25.9672 11.709L26.2822 11.5273L26.6067 11.3606L26.9397 11.2096L27.2809 11.0742L27.6302 10.9555L27.987 10.8535L28.351 10.7688L28.7211 10.7024L29.0963 10.6545L29.4776 10.6252L29.8627 10.6154ZM61.0815 12.1454H29.8627V10.6154H61.0815V12.1454ZM63.7956 11.7192L62.7037 12.7907L62.6571 12.7441L62.6118 12.6992L62.5676 12.657L62.5254 12.6172L62.485 12.5808L62.4448 12.5464L62.404 12.5124L62.3662 12.4822L62.3295 12.4546L62.2911 12.4274L62.256 12.4036L62.2207 12.3811L62.1822 12.3587L62.1462 12.3386L62.1091 12.3202L62.0707 12.3022L62.0319 12.2859L61.9897 12.2692L61.9458 12.2539L61.9006 12.2393L61.8523 12.2257L61.8026 12.2131L61.7478 12.2015L61.6887 12.1903L61.6274 12.1801L61.5628 12.1712L61.4948 12.1638L61.4196 12.1573L61.3414 12.1519L61.2611 12.1485L61.1737 12.1464L61.0815 12.1454V10.6154L61.1988 10.6164L61.3135 10.6191L61.4284 10.6245L61.538 10.632L61.6437 10.6412L61.7499 10.6528L61.854 10.6671L61.9553 10.6834L62.0526 10.7021L62.1496 10.7232L62.2462 10.7473L62.3401 10.7739L62.4316 10.8028L62.521 10.8344L62.6081 10.8681L62.6945 10.9048L62.7778 10.944L62.8598 10.9854L62.9394 11.0293L63.0146 11.0736L63.0908 11.1212L63.1646 11.1708L63.2337 11.2205L63.303 11.2725L63.3701 11.3259L63.4333 11.3783L63.4966 11.4331L63.5595 11.4899L63.6201 11.546L63.6793 11.6032L63.7374 11.6603L63.7956 11.7192ZM63.7956 11.7192C64.0912 12.0206 64.0868 12.5053 63.7854 12.8009C63.484 13.0965 62.9993 13.0921 62.7037 12.7907L63.7956 11.7192ZM71.8203 22.0804L62.7037 12.7907L63.7956 11.7192L72.9122 21.0089L71.8203 22.0808V22.0804ZM72.9122 21.0089C73.2078 21.3103 73.2034 21.795 72.902 22.0906C72.6006 22.3862 72.1159 22.3818 71.8203 22.0804L72.9122 21.0089ZM73.9347 23.4618H72.4047L72.404 23.4009L72.4026 23.3438L72.3996 23.2893L72.3958 23.2346L72.3907 23.1815L72.385 23.1319L72.3785 23.0863L72.3707 23.0404L72.3615 22.9937L72.352 22.9506L72.3421 22.9108L72.3299 22.8689L72.3176 22.8284L72.3047 22.791L72.2904 22.7533L72.2747 22.7152L72.2584 22.6774L72.2407 22.641L72.2213 22.6032L72.2006 22.5651L72.1795 22.5288L72.1564 22.4913L72.1302 22.4519L72.104 22.4134L72.0764 22.3757L72.0458 22.3355L72.0132 22.2947L71.9791 22.2536L71.9421 22.211L71.9043 22.1685L71.8638 22.1257L71.8203 22.0808L72.9122 21.0086L72.9721 21.0705L73.0316 21.1344L73.0898 21.1987L73.1452 21.263L73.1996 21.328L73.252 21.394L73.303 21.4607L73.3537 21.5304L73.4017 21.6001L73.4463 21.6688L73.4912 21.7409L73.534 21.8148L73.5738 21.8876L73.6116 21.9614L73.6483 22.0386L73.6823 22.1151L73.7143 22.1927L73.7442 22.2726L73.7721 22.3536L73.7973 22.4342L73.8197 22.5148L73.8412 22.5988L73.8596 22.6822L73.8755 22.7641L73.8902 22.8488L73.9028 22.9366L73.9126 23.023L73.9204 23.108L73.9269 23.1941L73.9313 23.2832L73.934 23.373L73.9347 23.4618ZM72.4047 67.623V23.4618H73.9347V67.623H72.4047ZM66.4121 75.1456V73.6156L66.7196 73.6077L67.0227 73.5846L67.3214 73.5462L67.6156 73.4931L67.9044 73.4261L68.1874 73.3455L68.465 73.2506L68.7368 73.1431L69.0021 73.0227L69.2603 72.89L69.5113 72.7451L69.7548 72.5886L69.9899 72.4213L70.2168 72.2427L70.4348 72.0535L70.6437 71.8545L70.8427 71.6457L71.0318 71.4273L71.2104 71.2008L71.3781 70.9654L71.5342 70.7222L71.6791 70.4711L71.8118 70.2126L71.9322 69.9476L72.0397 69.6758L72.1346 69.3979L72.2156 69.1146L72.2826 68.8261L72.3353 68.5326L72.3737 68.2332L72.3969 67.9305L72.4047 67.623H73.9347L73.9249 68.008L73.8956 68.389L73.8476 68.7645L73.7813 69.1343L73.6966 69.4983L73.5946 69.8551L73.4758 70.2044L73.3405 70.5456L73.1894 70.8786L73.0228 71.2031L72.8411 71.5181L72.6448 71.8233L72.435 72.1178L72.2115 72.4022L71.9747 72.675L71.7254 72.9363L71.4641 73.1856L71.1917 73.4217L70.9076 73.6458L70.6121 73.8561L70.3073 74.052L69.9923 74.2336L69.6681 74.4003L69.3348 74.5513L68.9936 74.6867L68.6446 74.8054L68.2874 74.9078L67.9238 74.9918L67.554 75.0585L67.1785 75.1065L66.7972 75.1357L66.4121 75.1456ZM41.4046 73.6156H66.4121V75.1456H41.4046V73.6156ZM41.4046 75.1456C40.9821 75.1456 40.6396 74.8031 40.6396 74.3806C40.6396 73.9581 40.9821 73.6156 41.4046 73.6156V75.1456Z" fill="#FFCE1A"/>
<path d="M73.9347 23.7462C73.9347 24.1687 73.5922 24.5112 73.1697 24.5112C72.7472 24.5112 72.4047 24.1687 72.4047 23.7462H73.9347ZM70.8046 22.5998V21.0698L70.9658 21.0753L71.124 21.0899L71.2788 21.114L71.4301 21.146L71.5784 21.1861L71.7237 21.2331L71.8638 21.2865L71.9999 21.3453L72.1329 21.41L72.2622 21.4794L72.3863 21.5528L72.506 21.6297L72.6227 21.711L72.736 21.7957L72.8448 21.8838L72.9483 21.9733L73.0493 22.0668L73.1445 22.1621L73.235 22.258L73.3228 22.3577L73.4051 22.459L73.4823 22.5611L73.5544 22.6648L73.6228 22.7713L73.6861 22.8812L73.7429 22.9914L73.7939 23.1043L73.8388 23.2203L73.8776 23.3428L73.9075 23.4717L73.9272 23.605L73.9347 23.7462H72.4047L72.4054 23.7601V23.7608L72.4026 23.7503L72.3958 23.7292L72.3836 23.6975L72.3659 23.6588L72.3431 23.6145L72.3159 23.5673L72.2829 23.5159L72.2441 23.4604L72.2009 23.4033L72.154 23.3455L72.1036 23.288L72.0472 23.2281L71.9887 23.1696L71.9278 23.1135L71.8625 23.0567L71.7958 23.0026L71.7274 22.9512L71.6563 22.9019L71.5829 22.855L71.5097 22.8114L71.4362 22.772L71.3624 22.7359L71.2883 22.7043L71.2148 22.676L71.1437 22.6529L71.0723 22.6339L71.0025 22.6189L70.9342 22.6083L70.8685 22.6019L70.8046 22.5998ZM67.519 21.0698H70.8046V22.5998H67.519V21.0698ZM61.9502 17.0311H63.4803L63.4854 17.2386L63.501 17.4424L63.5272 17.6437L63.5626 17.842L63.6078 18.0363L63.6626 18.2271L63.7262 18.4142L63.7987 18.5972L63.8796 18.7761L63.9691 18.9499L64.0664 19.119L64.1721 19.2833L64.2851 19.4418L64.4055 19.5945L64.5337 19.7422L64.6678 19.8833L64.8082 20.017L64.9552 20.1446L65.1083 20.265L65.2671 20.3783L65.4307 20.4834L65.6005 20.581L65.7746 20.6705L65.9532 20.7518L66.1359 20.8239L66.323 20.8875L66.5141 20.9422L66.7091 20.9875L66.9063 21.0232L67.1077 21.0491L67.3115 21.0647L67.519 21.0698V22.5998L67.2339 22.5927L66.9519 22.5709L66.6737 22.5356L66.3995 22.4862L66.1304 22.4233L65.8665 22.3481L65.608 22.26L65.3552 22.16L65.1086 22.0481L64.8685 21.9246L64.6354 21.7903L64.4092 21.645L64.1912 21.4896L63.981 21.3242L63.7789 21.1491L63.5854 20.9644L63.401 20.7708L63.2265 20.5694L63.0612 20.3596L62.9054 20.1412L62.7601 19.915L62.6254 19.682L62.502 19.4415L62.3904 19.1952L62.29 18.9428L62.2019 18.6836L62.1268 18.42L62.0638 18.1502L62.0149 17.8764L61.9791 17.5988L61.9574 17.3162L61.9502 17.0311ZM63.4803 13.5775V17.0311H61.9502V13.5775H63.4803ZM61.9502 13.5775C61.9502 13.155 62.2928 12.8124 62.7152 12.8124C63.1377 12.8124 63.4803 13.155 63.4803 13.5775H61.9502ZM61.023 12.1454V10.6154L61.1757 10.6215L61.324 10.6381L61.4709 10.666L61.6125 10.7041L61.7495 10.7514L61.8819 10.8079L62.0067 10.8715L62.1271 10.9422L62.2411 11.0195L62.3492 11.1025L62.4513 11.1899L62.5472 11.2814L62.6387 11.3777L62.7244 11.4766L62.8054 11.579L62.8812 11.6845L62.952 11.792L63.019 11.9029L63.0809 12.0155L63.1381 12.1284L63.1911 12.2444L63.2398 12.3617L63.284 12.4798L63.3238 12.5992L63.3592 12.7192L63.3908 12.8403L63.4177 12.9631L63.4394 13.0846L63.4571 13.2074L63.4697 13.3315L63.4775 13.454L63.4803 13.5775H61.9502L61.9489 13.5193L61.9451 13.4574L61.9387 13.3951L61.9291 13.3302L61.9169 13.2625L61.9023 13.1955L61.8849 13.1274L61.8645 13.0584L61.8417 12.9907L61.8165 12.923L61.789 12.8567L61.7591 12.7917L61.7271 12.7277L61.6937 12.6669L61.6587 12.609L61.6213 12.5526L61.5835 12.5002L61.5448 12.4509L61.5053 12.4049L61.4655 12.3631L61.4247 12.3247L61.3852 12.2903L61.3464 12.261L61.308 12.2349L61.2706 12.2124L61.2335 12.1937L61.1992 12.1787L61.1641 12.1668L61.1294 12.1573L61.0961 12.1512L61.0594 12.1468L61.023 12.1454ZM61.023 12.1454C60.6005 12.1454 60.2579 11.8029 60.2579 11.3804C60.2579 10.9579 60.6005 10.6154 61.023 10.6154V12.1454Z" fill="#FFCE1A"/>
<path d="M59.9018 31.0242C59.4793 31.0238 59.1371 30.681 59.1375 30.2585C59.1378 29.836 59.4807 29.4938 59.9032 29.4941L59.9018 31.0242ZM66.3396 31.0286L59.9018 31.0242L59.9032 29.4941L66.341 29.4986L66.3396 31.0286ZM66.341 29.4986C66.7635 29.4989 67.1057 29.8418 67.1053 30.2643C67.105 30.6867 66.7621 31.0289 66.3396 31.0286L66.341 29.4986Z" fill="#FFCE1A"/>
<path d="M54.9185 31.0208C54.5004 31.0198 54.1619 30.6776 54.163 30.2571C54.164 29.8367 54.5045 29.4965 54.9225 29.4976L54.9185 31.0208ZM56.5189 31.0252L54.9185 31.0208L54.9225 29.4976L56.523 29.502L56.5189 31.0252ZM56.523 29.502C56.941 29.503 57.2795 29.8452 57.2785 30.2656C57.2775 30.6861 56.937 31.0262 56.5189 31.0252L56.523 29.502Z" fill="#FFCE1A"/>
<path d="M61.3589 38.1431L61.3576 36.613C61.7801 36.6127 62.1229 36.9549 62.1233 37.3774C62.1236 37.7999 61.7814 38.1427 61.3589 38.1431ZM54.9211 38.1478L54.9197 36.6178L61.3576 36.613L61.3589 38.1431L54.9211 38.1478ZM54.9197 36.6178L54.9211 38.1478C54.4986 38.1482 54.1557 37.806 54.1554 37.3835C54.1551 36.961 54.4973 36.6181 54.9197 36.6178Z" fill="#FFCE1A"/>
<path d="M66.3427 38.1397L66.3379 36.6165C66.756 36.6154 67.0968 36.9553 67.0978 37.3757C67.0988 37.7961 66.7607 38.1387 66.3427 38.1397ZM64.7422 38.1445L64.7375 36.6212L66.3379 36.6165L66.3427 38.1397L64.7422 38.1445ZM64.7375 36.6212L64.7422 38.1445C64.3242 38.1455 63.9833 37.8057 63.9823 37.3852C63.9813 36.9648 64.3194 36.6222 64.7375 36.6212Z" fill="#FFCE1A"/>
<path d="M59.1021 45.9334C58.6796 45.9334 58.3374 45.5902 58.3374 45.1673C58.3374 44.7445 58.6803 44.402 59.1028 44.402L59.1021 45.9334ZM66.34 45.9381L59.1021 45.9334L59.1028 44.402L66.3407 44.4067L66.34 45.9381ZM66.3407 44.4067C66.7631 44.4067 67.1053 44.75 67.1053 45.1728C67.1053 45.5956 66.7625 45.9381 66.34 45.9381L66.3407 44.4067Z" fill="#FFCE1A"/>
<path d="M53.4996 45.9092C53.0771 45.9082 52.7356 45.5749 52.7366 45.1657C52.7376 44.7564 53.0812 44.4251 53.5036 44.4261L53.4996 45.9092ZM55.2987 45.914L53.4996 45.9092L53.5036 44.4261L55.3027 44.4309L55.2987 45.914ZM55.3027 44.4309C55.7252 44.4319 56.0667 44.7653 56.0657 45.1745C56.0647 45.5837 55.7211 45.915 55.2987 45.914L55.3027 44.4309Z" fill="#FFCE1A"/>
<path d="M59.1021 55.8664C58.6796 55.8664 58.3374 55.5231 58.3374 55.1003C58.3374 54.6775 58.6803 54.335 59.1028 54.335L59.1021 55.8664ZM66.34 55.8711L59.1021 55.8664L59.1028 54.335L66.3407 54.3397L66.34 55.8711ZM66.3407 54.3397C66.7631 54.3397 67.1053 54.6829 67.1053 55.1058C67.1053 55.5286 66.7625 55.8711 66.34 55.8711L66.3407 54.3397Z" fill="#FFCE1A"/>
<path d="M53.4996 55.8422C53.0771 55.8412 52.7356 55.5079 52.7366 55.0986C52.7376 54.6894 53.0812 54.3581 53.5036 54.3591L53.4996 55.8422ZM55.2987 55.847L53.4996 55.8422L53.5036 54.3591L55.3027 54.3639L55.2987 55.847ZM55.3027 54.3639C55.7252 54.3649 56.0667 54.6983 56.0657 55.1075C56.0647 55.5167 55.7211 55.848 55.2987 55.847L55.3027 54.3639Z" fill="#FFCE1A"/>
<path d="M43.6568 55.8616C43.2343 55.8616 42.8921 55.5204 42.8921 55.1003C42.8921 54.6802 43.235 54.3397 43.6574 54.3397L43.6568 55.8616ZM53.5013 55.8664L43.6568 55.8616L43.6574 54.3397L53.502 54.3445L53.5013 55.8664ZM53.502 54.3445C53.9245 54.3445 54.2667 54.6857 54.2667 55.1058C54.2667 55.5259 53.9238 55.8664 53.5013 55.8664L53.502 54.3445Z" fill="#FFCE1A"/>
<path d="M36.0378 55.8555C35.6153 55.8548 35.2735 55.516 35.2742 55.0993C35.2749 54.6826 35.6181 54.3451 36.0406 54.3458L36.0378 55.8555ZM38.4849 55.8602L36.0378 55.8555L36.0406 54.3458L38.4877 54.3506L38.4849 55.8602ZM38.4877 54.3506C38.9101 54.3513 39.252 54.6901 39.2513 55.1068C39.2506 55.5235 38.9074 55.8609 38.4849 55.8602L38.4877 54.3506Z" fill="#FFCE1A"/>
<path d="M59.1021 65.0235C58.6796 65.0235 58.3374 64.6802 58.3374 64.2574C58.3374 63.8346 58.6803 63.4921 59.1028 63.4921L59.1021 65.0235ZM66.34 65.0282L59.1021 65.0235L59.1028 63.4921L66.3407 63.4968L66.34 65.0282ZM66.3407 63.4968C66.7631 63.4968 67.1053 63.84 67.1053 64.2629C67.1053 64.6857 66.7625 65.0282 66.34 65.0282L66.3407 63.4968Z" fill="#FFCE1A"/>
<path d="M43.6568 65.0187C43.2343 65.0187 42.8921 64.6775 42.8921 64.2574C42.8921 63.8373 43.235 63.4968 43.6574 63.4968L43.6568 65.0187ZM53.5013 65.0235L43.6568 65.0187L43.6574 63.4968L53.502 63.5016L53.5013 65.0235ZM53.502 63.5016C53.9245 63.5016 54.2667 63.8428 54.2667 64.2629C54.2667 64.683 53.9238 65.0235 53.5013 65.0235L53.502 63.5016Z" fill="#FFCE1A"/>
<path d="M36.0378 65.0126C35.6153 65.0119 35.2735 64.6731 35.2742 64.2564C35.2749 63.8397 35.6181 63.5023 36.0406 63.5029L36.0378 65.0126ZM38.4849 65.0173L36.0378 65.0126L36.0406 63.5029L38.4877 63.5077L38.4849 65.0173ZM38.4877 63.5077C38.9101 63.5084 39.252 63.8472 39.2513 64.2639C39.2506 64.6806 38.9074 65.018 38.4849 65.0173L38.4877 63.5077Z" fill="#FFCE1A"/>
<path d="M41.5662 40.3415C41.2706 40.6371 40.7893 40.6354 40.4917 40.3378C40.194 40.0401 40.1923 39.5588 40.4879 39.2632L41.5662 40.3415ZM47.2911 34.6167L41.5662 40.3415L40.4879 39.2632L46.2128 33.5383L47.2911 34.6167ZM46.2128 33.5383C46.5084 33.2427 46.9897 33.2444 47.2874 33.5421C47.585 33.8397 47.5867 34.3211 47.2911 34.6167L46.2128 33.5383Z" fill="#1DACA5"/>
<path d="M40.4882 40.3415L41.5665 39.2632C41.8621 39.5588 41.8604 40.0401 41.5628 40.3378C41.2651 40.6354 40.7838 40.6371 40.4882 40.3415ZM37.6261 37.4791L38.7044 36.4008L41.5665 39.2632L40.4882 40.3415L37.6261 37.4791ZM38.7044 36.4008L37.6261 37.4791C37.3305 37.1835 37.3322 36.7022 37.6299 36.4045C37.9275 36.1069 38.4088 36.1052 38.7044 36.4008Z" fill="#1DACA5"/>
<path d="M49.3619 43.8581L48.2809 42.775L48.5741 42.4672L48.8483 42.1488L49.1034 41.8206L49.3395 41.4828L49.5565 41.1358L49.7548 40.7814L49.9341 40.4191L50.095 40.0504L50.2368 39.6759L50.3596 39.2962L50.4641 38.9119L50.5491 38.5237L50.6154 38.1329L50.6631 37.7393L50.692 37.3444L50.7018 36.9488L50.6926 36.5532L50.6651 36.1579L50.6185 35.765L50.5528 35.3739L50.4678 34.9854L50.3651 34.601L50.2426 34.2207L50.1018 33.8459L49.9419 33.4771L49.7633 33.1145L49.5657 32.7594L49.3494 32.4124L49.114 32.074L48.8599 31.7447L48.5864 31.426L48.2938 31.1175L49.3769 30.0364L49.7225 30.4007L50.0463 30.7787L50.3481 31.1692L50.627 31.5702L50.8842 31.9825L51.1185 32.4043L51.3305 32.8342L51.5203 33.2724L51.6876 33.7173L51.8325 34.1683L51.955 34.6242L52.055 35.084L52.1329 35.548L52.1883 36.0144L52.2213 36.4824L52.2319 36.9508L52.22 37.4192L52.1863 37.887L52.1298 38.3526L52.0512 38.8163L51.9499 39.2765L51.8264 39.7323L51.6805 40.1827L51.5121 40.6273L51.3213 41.0647L51.1087 41.4943L50.8729 41.9155L50.6151 42.3271L50.3348 42.7281L50.0327 43.1176L49.7082 43.4945L49.3619 43.8581ZM35.5403 43.8431L36.6233 42.7621L36.9312 43.0553L37.2496 43.3295L37.5782 43.5846L37.9159 43.8204L38.2629 44.0377L38.6173 44.2364L38.9793 44.4156L39.348 44.5762L39.7225 44.718L40.1025 44.8408L40.4869 44.9453L40.875 45.0306L41.2655 45.097L41.659 45.1443L42.054 45.1735L42.4496 45.183L42.8455 45.1739L43.2404 45.1463L43.6337 45.0997L44.0248 45.0337L44.413 44.9493L44.7973 44.8463L45.1773 44.7238L45.5525 44.583L45.9216 44.4231L46.2842 44.2445L46.639 44.0472L46.9863 43.8306L47.3247 43.5952L47.6537 43.3411L47.9724 43.0676L48.2809 42.775L49.3619 43.8581L48.9976 44.2037L48.6197 44.5275L48.2296 44.8293L47.8278 45.1082L47.4159 45.365L46.9944 45.5997L46.5638 45.8117L46.126 46.0015L45.6814 46.1688L45.2307 46.3137L44.7742 46.4365L44.314 46.5365L43.8507 46.6141L43.384 46.6695L42.9163 46.7025L42.4482 46.7131L41.9791 46.7015L41.5114 46.6675L41.0457 46.6114L40.5818 46.5321L40.1222 46.4311L39.6664 46.3076L39.2157 46.1617L38.7711 45.9933L38.3336 45.8028L37.9037 45.5895L37.4826 45.3541L37.0717 45.0966L36.6706 44.8167L36.2808 44.5139L35.9039 44.1894L35.5403 43.8431ZM35.5556 30.0215L36.6359 31.1045H36.6363L36.343 31.4124L36.0689 31.7308L35.8141 32.0594L35.5777 32.3975L35.3607 32.7441L35.1623 33.0982L34.9831 33.4605L34.8222 33.8292L34.6803 34.2037L34.5575 34.5837L34.4531 34.9681L34.3681 35.3558L34.3017 35.7467L34.2541 36.1402L34.2252 36.5352L34.2153 36.9311L34.2245 37.3267L34.2521 37.7216L34.2987 38.1149L34.3643 38.5057L34.4494 38.8942L34.5521 39.2789L34.6746 39.6585L34.8154 40.0337L34.9753 40.4028L35.1538 40.7654L35.3511 41.1202L35.5678 41.4675L35.8032 41.8059L36.0573 42.1349L36.3308 42.4536L36.6233 42.7621L35.5403 43.8431L35.1947 43.4788L34.8708 43.1009L34.5691 42.7108L34.2902 42.309L34.0334 41.8971L33.7986 41.4756L33.5867 41.045L33.3969 40.6072L33.2296 40.1626L33.0846 39.7116L32.9622 39.2554L32.8622 38.7955L32.7843 38.3319L32.7288 37.8652L32.6958 37.3975L32.6853 36.9291L32.6972 36.4603L32.7309 35.9926L32.7874 35.5269L32.8659 35.0633L32.9673 34.6034L33.0908 34.1476L33.2367 33.6969L33.4051 33.2523L33.5959 32.8148L33.8085 32.3852L34.0442 31.9638L34.3021 31.5525L34.582 31.1518L34.8844 30.762L35.2089 30.3851L35.5552 30.0215H35.5556ZM49.3769 30.0364L48.2938 31.1175L47.986 30.8242L47.6676 30.5501L47.339 30.2953L47.0009 30.0589L46.6546 29.8419L46.3002 29.6439L45.9376 29.4643L45.5692 29.3034L45.1947 29.1615L44.815 29.0387L44.431 28.9347L44.0425 28.8496L43.6514 28.7829L43.2581 28.7353L42.8632 28.7064L42.4676 28.6965L42.072 28.7057L41.6771 28.7336L41.2838 28.7802L40.8923 28.8462L40.5042 28.9306L40.1198 29.0336L39.7395 29.1558L39.3647 29.2969L38.9959 29.4565L38.6337 29.6354L38.2779 29.833L37.9312 30.049L37.5928 30.2847L37.2632 30.5388L36.9448 30.812L36.6359 31.1045L35.5556 30.0215L35.9195 29.6759L36.2978 29.3517L36.688 29.0506L37.089 28.7714L37.5016 28.5146L37.9227 28.2802L38.353 28.0679L38.7912 27.8785L39.2361 27.7108L39.6871 27.5662L40.143 27.4434L40.6032 27.3434L41.0668 27.2658L41.5328 27.2104L42.0006 27.177L42.4696 27.1665L42.938 27.1784L43.4058 27.2121L43.8718 27.2686L44.3351 27.3475L44.795 27.4488L45.2504 27.572L45.7015 27.7179L46.1461 27.8863L46.5839 28.0771L47.0131 28.29L47.4343 28.5254L47.8459 28.7833L48.2466 29.0632L48.6364 29.3656L49.0133 29.6901L49.3769 30.0364Z" fill="#1DACA5"/>
<path d="M34.0728 55.8209H32.5428L32.5356 55.5423L32.5152 55.2685L32.4805 54.9987L32.4333 54.733L32.373 54.4725L32.3003 54.2167L32.2159 53.9663L32.1196 53.7221L32.0115 53.4833L31.8924 53.2506L31.7621 53.0248L31.6223 52.8057L31.472 52.5948L31.3117 52.3907L31.1423 52.1951L30.9634 52.0073L30.776 51.8288L30.5801 51.659L30.3767 51.4988L30.1651 51.3488L29.946 51.2083L29.7205 51.0784L29.4882 50.9593L29.249 50.8515L29.0044 50.7549L28.7544 50.6705L28.4986 50.5977L28.2381 50.5375L27.9724 50.4902L27.7027 50.4555L27.4288 50.4351L27.1502 50.428V48.8979L27.5057 48.9071L27.8571 48.9337L28.2037 48.9779L28.5442 49.0388L28.8796 49.116L29.2082 49.2092L29.5303 49.318L29.845 49.4425L30.1515 49.581L30.4505 49.7341L30.7406 49.9007L31.0209 50.0807L31.2924 50.2736L31.5543 50.4793L31.8053 50.6967L32.0451 50.9256L32.2744 51.1658L32.4921 51.4172L32.6972 51.6784L32.8904 51.9499L33.0704 52.2308L33.2367 52.5206L33.3898 52.8193L33.5286 53.1261L33.6527 53.4411L33.7616 53.7629L33.8548 54.0915L33.932 54.4269L33.9929 54.7674L34.0371 55.114L34.0636 55.4654L34.0728 55.8209ZM27.1502 62.7435V61.2134L27.4288 61.2063L27.7027 61.1859L27.9724 61.1512L28.2381 61.1039L28.4986 61.0437L28.7544 60.9709L29.0044 60.8865L29.249 60.7899L29.4882 60.6821L29.7205 60.563L29.946 60.4331L30.1651 60.2926L30.3767 60.1426L30.5801 59.9824L30.776 59.8126L30.9634 59.6341L31.1423 59.4463L31.3121 59.2504L31.472 59.0469L31.6223 58.8357L31.7621 58.6166L31.8924 58.3904L32.0115 58.1581L32.1196 57.9197L32.2159 57.6754L32.3003 57.4251L32.373 57.1693L32.4333 56.9087L32.4805 56.643L32.5152 56.3733L32.5356 56.0991L32.5428 55.8209H34.0728L34.0636 56.176L34.0371 56.5277L33.9929 56.8743L33.932 57.2148L33.8548 57.5502L33.7616 57.8788L33.6527 58.2006L33.5286 58.5156L33.3898 58.8228L33.2367 59.1211L33.0704 59.4106L32.8904 59.6915L32.6972 59.9633L32.4918 60.2246L32.2744 60.4756L32.0451 60.7158L31.8053 60.9447L31.5543 61.1621L31.2924 61.3678L31.0209 61.5607L30.7406 61.7407L30.4505 61.9073L30.1515 62.0604L29.845 62.1989L29.5303 62.3234L29.2082 62.4322L28.8796 62.5254L28.5442 62.6026L28.2037 62.6635L27.8571 62.7077L27.5057 62.7343L27.1502 62.7435ZM20.2277 55.8209H21.7577L21.7648 56.0991L21.7852 56.3733L21.8199 56.643L21.8672 56.9087L21.9274 57.1693L22.0002 57.4251L22.0846 57.6754L22.1809 57.9197L22.289 58.1581L22.4081 58.3904L22.5384 58.6166L22.6782 58.8357L22.8285 59.0469L22.9884 59.2504L23.1581 59.4463L23.3371 59.6341L23.5245 59.8126L23.7204 59.9824L23.9238 60.1426L24.1354 60.2926L24.3545 60.4331L24.58 60.563L24.8123 60.6821L25.0515 60.7899L25.296 60.8865L25.546 60.9709L25.8018 61.0437L26.0624 61.1039L26.3281 61.1512L26.5978 61.1859L26.8716 61.2063L27.1502 61.2134V62.7435L26.7948 62.7343L26.4434 62.7077L26.0968 62.6635L25.7563 62.6026L25.4209 62.5254L25.0923 62.4322L24.7701 62.3234L24.4555 62.1989L24.149 62.0604L23.85 61.9073L23.5599 61.7407L23.2796 61.5607L23.0081 61.3678L22.7462 61.1621L22.4952 60.9447L22.2553 60.7158L22.0261 60.4756L21.8087 60.2246L21.6033 59.9633L21.4101 59.6915L21.2301 59.4106L21.0638 59.1211L20.9107 58.8228L20.7719 58.5156L20.6478 58.2006L20.5389 57.8788L20.4457 57.5502L20.3685 57.2148L20.3076 56.8743L20.2634 56.5277L20.2368 56.176L20.2277 55.8209ZM27.1502 48.8979V50.428L26.8716 50.4351L26.5978 50.4555L26.3281 50.4902L26.0624 50.5375L25.8018 50.5977L25.546 50.6705L25.296 50.7549L25.0515 50.8515L24.8123 50.9593L24.58 51.0784L24.3545 51.2083L24.1354 51.3488L23.9238 51.4988L23.7204 51.659L23.5245 51.8288L23.3371 52.0073L23.1581 52.1951L22.9887 52.3907L22.8285 52.5948L22.6782 52.8057L22.5384 53.0248L22.4081 53.2506L22.289 53.4833L22.1809 53.7221L22.0846 53.9663L22.0002 54.2167L21.9274 54.4725L21.8672 54.733L21.8199 54.9987L21.7852 55.2685L21.7648 55.5423L21.7577 55.8209H20.2277L20.2368 55.4654L20.2634 55.114L20.3076 54.7674L20.3685 54.4269L20.4457 54.0915L20.5389 53.7629L20.6478 53.4411L20.7719 53.1261L20.9107 52.8193L21.0638 52.5206L21.2301 52.2308L21.4101 51.9499L21.6033 51.6784L21.8084 51.4172L22.0261 51.1658L22.2553 50.9256L22.4952 50.6967L22.7462 50.4793L23.0081 50.2736L23.2796 50.0807L23.5599 49.9007L23.85 49.7341L24.149 49.581L24.4555 49.4425L24.7701 49.318L25.0923 49.2092L25.4209 49.116L25.7563 49.0388L26.0968 48.9779L26.4434 48.9337L26.7948 48.9071L27.1502 48.8979Z" fill="#1DACA5"/>
<path d="M29.5864 65.8467H24.7136V64.3167H29.5864V65.8467ZM38.235 72.9649H36.7049L36.6957 72.5995L36.6682 72.2396L36.6226 71.8849L36.5597 71.5358L36.4801 71.1923L36.3838 70.8555L36.2719 70.5259L36.1437 70.2031L36.0008 69.8881L35.8433 69.5816L35.6708 69.2833L35.4855 68.9938L35.2861 68.7146L35.0742 68.4452L34.8497 68.1863L34.6133 67.9383L34.3653 67.7019L34.1065 67.4774L33.837 67.2655L33.5574 67.0662L33.2683 66.8804L32.9703 66.7086L32.6635 66.5508L32.3485 66.4079L32.0257 66.2797L31.6961 66.1678L31.359 66.0715L31.0158 65.9919L30.6664 65.929L30.3116 65.8834L29.9517 65.8559L29.5864 65.8467V64.3167L30.0293 64.3279L30.4674 64.3615L30.8991 64.4167L31.3246 64.4932L31.742 64.5905L32.1519 64.7072L32.5543 64.8442L32.9465 64.9997L33.3295 65.1732L33.7023 65.365L34.0643 65.5735L34.4153 65.7994L34.7541 66.0409L35.0807 66.2977L35.3946 66.5699L35.695 66.8566L35.9818 67.157L36.2539 67.4709L36.5107 67.7975L36.7522 68.1366L36.9777 68.4873L37.1863 68.8489L37.3784 69.2221L37.5519 69.6051L37.7074 69.9973L37.8445 70.399L37.9611 70.8093L38.0584 71.227L38.135 71.6522L38.1901 72.0838L38.2237 72.522L38.235 72.9649ZM36.7049 75.4667V72.9649H38.235V75.4667H36.7049ZM34.3167 79.385V77.855L34.4395 77.8519L34.5602 77.8427L34.6793 77.8274L34.7956 77.8063L34.9106 77.7798L35.0232 77.7475L35.1341 77.7097L35.2422 77.6669L35.3477 77.6189L35.4508 77.5662L35.5508 77.5084L35.6477 77.4461L35.7416 77.3791L35.8321 77.308L35.9195 77.2322L36.0028 77.1529L36.0828 77.0689L36.158 76.9825L36.2284 76.8923L36.2961 76.7974L36.3586 76.7001L36.4161 76.6008L36.4692 76.4971L36.5172 76.3916L36.5597 76.2845L36.5974 76.1736L36.6298 76.0603L36.6563 75.9457L36.6774 75.8293L36.6927 75.7103L36.7019 75.5895L36.7049 75.4667H38.235L38.2299 75.6671L38.2146 75.8654L38.1897 76.0613L38.155 76.2545L38.1108 76.444L38.0574 76.6301L37.9958 76.8117L37.9254 76.9903L37.8462 77.1638L37.7598 77.3322L37.6649 77.4968L37.5628 77.6553L37.4543 77.808L37.3376 77.9567L37.2141 78.0989L37.0845 78.2346L36.9488 78.3642L36.807 78.487L36.6593 78.6037L36.5056 78.7129L36.3467 78.8153L36.1821 78.9098L36.0137 78.9966L35.8402 79.0751L35.662 79.1459L35.4804 79.2075L35.2943 79.2609L35.1045 79.3051L34.9113 79.3398L34.7153 79.3646L34.517 79.3799L34.3167 79.385ZM19.9837 77.855H34.3167V79.385H19.9837V77.855ZM16.0654 75.4667H17.5955L17.5985 75.5895L17.6077 75.7103L17.623 75.8293L17.6441 75.9457L17.6706 76.0603L17.703 76.1736L17.7407 76.2845L17.7832 76.3916L17.8312 76.4971L17.8843 76.6008L17.9417 76.7001L18.0043 76.7974L18.072 76.8923L18.1424 76.9825L18.2176 77.0689L18.2976 77.1529L18.3809 77.2322L18.4683 77.308L18.5588 77.3791L18.6527 77.4461L18.7496 77.5084L18.8496 77.5662L18.9527 77.6189L19.0582 77.6669L19.1663 77.7097L19.2772 77.7475L19.3898 77.7798L19.5048 77.8063L19.6211 77.8274L19.7402 77.8427L19.8609 77.8519L19.9837 77.855V79.385L19.7834 79.3799L19.5851 79.3646L19.3891 79.3398L19.1959 79.3051L19.0061 79.2609L18.82 79.2075L18.6384 79.1459L18.4602 79.0751L18.2867 78.9966L18.1183 78.9098L17.9537 78.8153L17.7948 78.7129L17.641 78.6037L17.4934 78.487L17.3516 78.3642L17.2158 78.2346L17.0862 78.0989L16.9628 77.9567L16.8461 77.808L16.7376 77.6553L16.6355 77.4968L16.5406 77.3322L16.4542 77.1638L16.375 76.9903L16.3046 76.8117L16.243 76.6301L16.1896 76.444L16.1454 76.2545L16.1107 76.0613L16.0858 75.8654L16.0705 75.6671L16.0654 75.4667ZM17.5955 72.9649V75.4667H16.0654V72.9649H17.5955ZM24.7136 64.3167V65.8467L24.3483 65.8559L23.9884 65.8834L23.6336 65.929L23.2846 65.9919L22.9411 66.0715L22.6043 66.1678L22.2747 66.2797L21.9519 66.4079L21.6369 66.5508L21.3301 66.7086L21.0321 66.8804L20.743 67.0662L20.4633 67.2655L20.1939 67.4774L19.9351 67.7019L19.6871 67.9383L19.4507 68.1863L19.2262 68.4452L19.0143 68.7146L18.8149 68.9942L18.6292 69.2833L18.4574 69.5813L18.2996 69.8881L18.1567 70.2031L18.0285 70.5259L17.9166 70.8555L17.8203 71.1923L17.7407 71.5358L17.6778 71.8849L17.6322 72.2396L17.6046 72.5995L17.5955 72.9649H16.0654L16.0767 72.522L16.1103 72.0838L16.1654 71.6522L16.242 71.227L16.3393 70.8093L16.4559 70.399L16.593 69.9973L16.7485 69.6051L16.922 69.2221L17.1138 68.8493L17.3223 68.4873L17.5482 68.1363L17.7897 67.7975L18.0465 67.4709L18.3186 67.157L18.6054 66.8566L18.9058 66.5699L19.2197 66.2977L19.5463 66.0409L19.8851 65.7994L20.2361 65.5735L20.5981 65.365L20.9709 65.1732L21.3539 64.9997L21.7461 64.8442L22.1478 64.7072L22.558 64.5905L22.9758 64.4932L23.401 64.4167L23.8326 64.3615L24.2708 64.3279L24.7136 64.3167Z" fill="#1DACA5"/>
<path d="M43.6568 19.5353C43.2343 19.5353 42.8921 19.1941 42.8921 18.774C42.8921 18.3539 43.235 18.0134 43.6574 18.0134L43.6568 19.5353ZM53.5013 19.5401L43.6568 19.5353L43.6574 18.0134L53.502 18.0182L53.5013 19.5401ZM53.502 18.0182C53.9245 18.0182 54.2667 18.3594 54.2667 18.7795C54.2667 19.1996 53.9238 19.5401 53.5013 19.5401L53.502 18.0182Z" fill="#FFCE1A"/>
<path d="M36.0378 19.5293C35.6153 19.5286 35.2735 19.1898 35.2742 18.7731C35.2749 18.3564 35.6181 18.019 36.0406 18.0197L36.0378 19.5293ZM38.4849 19.534L36.0378 19.5293L36.0406 18.0197L38.4877 18.0244L38.4849 19.534ZM38.4877 18.0244C38.9101 18.0251 39.252 18.3639 39.2513 18.7806C39.2506 19.1973 38.9074 19.5347 38.4849 19.534L38.4877 18.0244Z" fill="#FFCE1A"/>
</svg>
