<svg width="90" height="90" viewBox="0 0 90 90" fill="none" xmlns="http://www.w3.org/2000/svg">
<path d="M64.5513 70.6065C63.8418 73.1747 61.4776 75.0752 58.6914 75.0752H25.8222C22.4798 75.0752 19.7449 72.3403 19.7449 68.9979V26.2395C19.7449 22.8971 22.4798 20.1626 25.8222 20.1626H58.6914C62.0341 20.1626 64.769 22.8975 64.769 26.2395V41.2174" stroke="#FFCE1A" stroke-width="1.70003" stroke-miterlimit="22.9256" stroke-linecap="round" stroke-linejoin="round"/>
<path d="M33.4561 58.3128L39.8201 58.3084" stroke="#FFCE1A" stroke-width="1.70003" stroke-miterlimit="22.9256" stroke-linecap="round" stroke-linejoin="round"/>
<path d="M28.5316 58.3128L30.1137 58.3084" stroke="#FFCE1A" stroke-width="1.70003" stroke-miterlimit="22.9256" stroke-linecap="round" stroke-linejoin="round"/>
<path d="M35.6862 50.613L28.5316 50.6086" stroke="#FFCE1A" stroke-width="1.70003" stroke-miterlimit="22.9256" stroke-linecap="round" stroke-linejoin="round"/>
<path d="M41.2222 50.613L39.4438 50.6086" stroke="#FFCE1A" stroke-width="1.70003" stroke-miterlimit="22.9256" stroke-linecap="round" stroke-linejoin="round"/>
<path d="M35.6862 40.7946L28.5316 40.7902" stroke="#FFCE1A" stroke-width="1.70003" stroke-miterlimit="22.9256" stroke-linecap="round" stroke-linejoin="round"/>
<path d="M41.2222 40.7946L39.4438 40.7902" stroke="#FFCE1A" stroke-width="1.70003" stroke-miterlimit="22.9256" stroke-linecap="round" stroke-linejoin="round"/>
<path d="M50.9534 40.7946L41.2222 40.7902" stroke="#FFCE1A" stroke-width="1.70003" stroke-miterlimit="22.9256" stroke-linecap="round" stroke-linejoin="round"/>
<path d="M35.6862 31.743L28.5316 31.7386" stroke="#FFCE1A" stroke-width="1.70003" stroke-miterlimit="22.9256" stroke-linecap="round" stroke-linejoin="round"/>
<path d="M50.9534 31.743L41.2222 31.7386" stroke="#FFCE1A" stroke-width="1.70003" stroke-miterlimit="22.9256" stroke-linecap="round" stroke-linejoin="round"/>
<path d="M58.4836 31.743L56.0647 31.7386" stroke="#FFCE1A" stroke-width="1.70003" stroke-miterlimit="22.9256" stroke-linecap="round" stroke-linejoin="round"/>
<path d="M63.7632 56.9917L65.2885 57.0121C65.2831 57.4301 64.9368 57.7645 64.5157 57.7591C64.0946 57.7536 63.7578 57.4097 63.7632 56.9917ZM63.8571 50.0946L65.3824 50.115L65.2885 57.0121L63.7632 56.9917L63.8571 50.0946ZM65.3824 50.115L63.8571 50.0946C63.8626 49.6765 64.2089 49.3422 64.63 49.3476C65.0511 49.353 65.3878 49.6969 65.3824 50.115Z" fill="#1DACA5"/>
<path d="M64.267 57.7189C63.8738 57.5771 63.6707 57.1403 63.8136 56.7444C63.9564 56.3484 64.3915 56.1423 64.7847 56.2841L64.267 57.7189ZM69.1472 59.4806L64.267 57.7189L64.7847 56.2841L69.665 58.0458L69.1472 59.4806ZM69.665 58.0458C70.0582 58.1877 70.2613 58.6244 70.1184 59.0204C69.9755 59.4163 69.5405 59.6224 69.1472 59.4806L69.665 58.0458Z" fill="#1DACA5"/>
<path d="M54.4058 52.5499C55.6535 48.8129 58.9047 45.8933 63.0683 45.2688C68.9775 44.382 74.4871 48.4537 75.3739 54.3633C76.2603 60.2725 72.1886 65.7821 66.2794 66.6689C60.3698 67.5554 54.8605 63.4836 53.9738 57.5741" stroke="#1DACA5" stroke-width="1.70003" stroke-miterlimit="22.9256" stroke-linecap="round" stroke-linejoin="round"/>
<path d="M16.5702 68.2138C15.3055 67.0981 14.5048 65.4671 14.5048 63.6584V58.5128M48.8758 14.9245H53.0727C54.7201 14.9245 56.2198 15.5885 57.3169 16.662" stroke="#FFCE1A" stroke-width="1.70003" stroke-miterlimit="22.9256" stroke-linecap="round" stroke-linejoin="round"/>
<path d="M14.5071 63.0778V26.2396C14.5071 20.0058 19.5894 14.9245 25.8232 14.9245H52.1008" stroke="#FFCE1A" stroke-width="1.70003" stroke-miterlimit="22.9256" stroke-linecap="round" stroke-linejoin="round"/>
<path d="M54.5482 53.6626C54.1615 53.8214 53.7179 53.6343 53.5584 53.2449C53.3988 52.8554 53.5825 52.4104 53.9693 52.2516L54.5482 53.6626ZM57.8743 52.2958L54.5482 53.6626L53.9693 52.2516L57.2954 50.8848L57.8743 52.2958ZM57.2954 50.8848C57.6821 50.726 58.1257 50.9131 58.2852 51.3025C58.4448 51.692 58.2611 52.137 57.8743 52.2958L57.2954 50.8848Z" fill="#1DACA5"/>
<path d="M53.5567 53.2557L54.9602 52.6591C55.1241 53.0438 54.9428 53.4894 54.5554 53.6541C54.168 53.8187 53.7206 53.6405 53.5567 53.2557ZM52.1471 49.9473L53.5506 49.3507L54.9602 52.6591L53.5567 53.2557L52.1471 49.9473ZM53.5506 49.3507L52.1471 49.9473C51.9831 49.5626 52.1644 49.117 52.5519 48.9524C52.9393 48.7877 53.3866 48.966 53.5506 49.3507Z" fill="#1DACA5"/>
</svg>
