<svg width="375" height="296" viewBox="0 0 375 296" fill="none" xmlns="http://www.w3.org/2000/svg">
<mask id="path-1-inside-1_1806_2629" fill="white">
<path fill-rule="evenodd" clip-rule="evenodd" d="M234.912 226.156C221.144 234.456 204.999 239.233 187.734 239.233C170.47 239.233 154.325 234.456 140.556 226.156H72.6004C71.7333 226.156 70.8755 225.986 70.0745 225.655C69.2735 225.325 68.5462 224.84 67.9331 224.229C67.3201 223.618 66.834 222.893 66.5023 222.095C66.1705 221.296 66 220.441 66 219.577V210.427C66 208.682 66.6954 207.009 67.9331 205.775C69.1709 204.541 70.85 203.848 72.6004 203.848H96.3804C97.2475 203.848 98.1059 203.678 98.9063 203.347C99.7073 203.017 100.435 202.532 101.048 201.921C101.661 201.31 102.147 200.585 102.479 199.787C102.81 198.988 102.981 198.133 102.981 197.269V188.119C102.981 186.374 102.285 184.701 101.048 183.467C99.8099 182.233 98.1314 181.54 96.3804 181.54H94.9316C93.1811 181.54 91.5026 180.847 90.2649 179.613C89.0266 178.379 88.3312 176.706 88.3312 174.961V165.811C88.3312 164.947 88.5023 164.092 88.834 163.293C89.1658 162.495 89.6518 161.77 90.2649 161.159C90.8774 160.548 91.6053 160.063 92.4057 159.733C93.2066 159.402 94.065 159.232 94.9316 159.232H94.9559C95.6718 159.232 96.3822 159.116 97.0592 158.889C96.6502 155.394 96.4399 151.838 96.4399 148.234C96.4399 144.526 96.6624 140.87 97.0947 137.279C96.407 137.044 95.6843 136.924 94.9559 136.924H84.9405C83.19 136.924 81.5115 136.231 80.2738 134.997C79.0361 133.763 78.3407 132.09 78.3407 130.345V121.195C78.3407 119.45 79.0361 117.777 80.2738 116.543C81.5115 115.309 83.19 114.616 84.9405 114.616H102.872C105.862 107.123 109.823 100.119 114.599 93.7583C114.111 93.3681 113.57 93.0481 112.99 92.8088C112.189 92.4781 111.332 92.3081 110.465 92.3081C109.598 92.3081 108.74 92.1376 107.939 91.8075C107.138 91.4768 106.41 90.9917 105.797 90.3812C105.185 89.7701 104.698 89.0452 104.367 88.2468C104.035 87.4484 103.864 86.5928 103.864 85.729V76.5791C103.864 74.8343 104.56 73.1606 105.797 71.9269C107.035 70.6932 108.714 70 110.465 70H141.076C154.73 61.8919 170.687 57.2344 187.734 57.2344C204.782 57.2344 220.738 61.8919 234.392 70H279.728C280.595 70 281.453 70.17 282.254 70.5007C283.055 70.8313 283.782 71.3158 284.396 71.9269C285.008 72.538 285.495 73.2629 285.826 74.0613C286.158 74.8597 286.329 75.7148 286.329 76.5791V85.729C286.329 86.5928 286.158 87.4484 285.826 88.2468C285.495 89.0452 285.008 89.7701 284.396 90.3812C283.782 90.9917 283.055 91.4768 282.254 91.8075C281.453 92.1376 280.595 92.3081 279.728 92.3081H278.993C277.242 92.3081 275.563 93.0013 274.326 94.235C273.088 95.4687 272.392 97.1418 272.392 98.8872V108.037C272.392 109.782 273.088 111.455 274.326 112.689C275.563 113.923 277.242 114.616 278.993 114.616H302.29C304.04 114.616 305.719 115.309 306.956 116.543C308.194 117.777 308.89 119.45 308.89 121.195V130.345C308.89 132.09 308.194 133.763 306.956 134.997C305.719 136.231 304.04 136.924 302.29 136.924H286.949C285.199 136.924 283.52 137.617 282.282 138.851C281.044 140.085 280.349 141.758 280.349 143.503V152.653C280.349 154.398 281.044 156.071 282.282 157.305C283.52 158.539 285.199 159.232 286.949 159.232H291.043C291.909 159.232 292.768 159.402 293.568 159.733C294.369 160.063 295.097 160.548 295.71 161.159C296.323 161.77 296.809 162.495 297.14 163.293C297.472 164.092 297.643 164.947 297.643 165.811V174.961C297.643 175.825 297.472 176.68 297.14 177.479C296.809 178.277 296.323 179.002 295.71 179.613C295.097 180.224 294.369 180.709 293.568 181.039C292.768 181.37 291.909 181.54 291.043 181.54H277.549C276.682 181.54 275.824 181.71 275.023 182.041C274.222 182.371 273.495 182.856 272.882 183.467C272.269 184.078 271.783 184.803 271.451 185.601C271.119 186.4 270.949 187.255 270.949 188.119V197.269C270.949 198.133 271.119 198.988 271.451 199.787C271.783 200.585 272.269 201.31 272.882 201.921C273.495 202.532 274.222 203.017 275.023 203.347C275.824 203.678 276.682 203.848 277.549 203.848H283.271C285.022 203.848 286.701 204.541 287.939 205.775C289.176 207.009 289.872 208.682 289.872 210.427V219.577C289.872 220.441 289.701 221.296 289.37 222.095C289.038 222.893 288.552 223.618 287.939 224.229C287.326 224.84 286.598 225.325 285.797 225.655C284.997 225.986 284.139 226.156 283.271 226.156H234.912Z"/>
</mask>
<path fill-rule="evenodd" clip-rule="evenodd" d="M234.912 226.156C221.144 234.456 204.999 239.233 187.734 239.233C170.47 239.233 154.325 234.456 140.556 226.156H72.6004C71.7333 226.156 70.8755 225.986 70.0745 225.655C69.2735 225.325 68.5462 224.84 67.9331 224.229C67.3201 223.618 66.834 222.893 66.5023 222.095C66.1705 221.296 66 220.441 66 219.577V210.427C66 208.682 66.6954 207.009 67.9331 205.775C69.1709 204.541 70.85 203.848 72.6004 203.848H96.3804C97.2475 203.848 98.1059 203.678 98.9063 203.347C99.7073 203.017 100.435 202.532 101.048 201.921C101.661 201.31 102.147 200.585 102.479 199.787C102.81 198.988 102.981 198.133 102.981 197.269V188.119C102.981 186.374 102.285 184.701 101.048 183.467C99.8099 182.233 98.1314 181.54 96.3804 181.54H94.9316C93.1811 181.54 91.5026 180.847 90.2649 179.613C89.0266 178.379 88.3312 176.706 88.3312 174.961V165.811C88.3312 164.947 88.5023 164.092 88.834 163.293C89.1658 162.495 89.6518 161.77 90.2649 161.159C90.8774 160.548 91.6053 160.063 92.4057 159.733C93.2066 159.402 94.065 159.232 94.9316 159.232H94.9559C95.6718 159.232 96.3822 159.116 97.0592 158.889C96.6502 155.394 96.4399 151.838 96.4399 148.234C96.4399 144.526 96.6624 140.87 97.0947 137.279C96.407 137.044 95.6843 136.924 94.9559 136.924H84.9405C83.19 136.924 81.5115 136.231 80.2738 134.997C79.0361 133.763 78.3407 132.09 78.3407 130.345V121.195C78.3407 119.45 79.0361 117.777 80.2738 116.543C81.5115 115.309 83.19 114.616 84.9405 114.616H102.872C105.862 107.123 109.823 100.119 114.599 93.7583C114.111 93.3681 113.57 93.0481 112.99 92.8088C112.189 92.4781 111.332 92.3081 110.465 92.3081C109.598 92.3081 108.74 92.1376 107.939 91.8075C107.138 91.4768 106.41 90.9917 105.797 90.3812C105.185 89.7701 104.698 89.0452 104.367 88.2468C104.035 87.4484 103.864 86.5928 103.864 85.729V76.5791C103.864 74.8343 104.56 73.1606 105.797 71.9269C107.035 70.6932 108.714 70 110.465 70H141.076C154.73 61.8919 170.687 57.2344 187.734 57.2344C204.782 57.2344 220.738 61.8919 234.392 70H279.728C280.595 70 281.453 70.17 282.254 70.5007C283.055 70.8313 283.782 71.3158 284.396 71.9269C285.008 72.538 285.495 73.2629 285.826 74.0613C286.158 74.8597 286.329 75.7148 286.329 76.5791V85.729C286.329 86.5928 286.158 87.4484 285.826 88.2468C285.495 89.0452 285.008 89.7701 284.396 90.3812C283.782 90.9917 283.055 91.4768 282.254 91.8075C281.453 92.1376 280.595 92.3081 279.728 92.3081H278.993C277.242 92.3081 275.563 93.0013 274.326 94.235C273.088 95.4687 272.392 97.1418 272.392 98.8872V108.037C272.392 109.782 273.088 111.455 274.326 112.689C275.563 113.923 277.242 114.616 278.993 114.616H302.29C304.04 114.616 305.719 115.309 306.956 116.543C308.194 117.777 308.89 119.45 308.89 121.195V130.345C308.89 132.09 308.194 133.763 306.956 134.997C305.719 136.231 304.04 136.924 302.29 136.924H286.949C285.199 136.924 283.52 137.617 282.282 138.851C281.044 140.085 280.349 141.758 280.349 143.503V152.653C280.349 154.398 281.044 156.071 282.282 157.305C283.52 158.539 285.199 159.232 286.949 159.232H291.043C291.909 159.232 292.768 159.402 293.568 159.733C294.369 160.063 295.097 160.548 295.71 161.159C296.323 161.77 296.809 162.495 297.14 163.293C297.472 164.092 297.643 164.947 297.643 165.811V174.961C297.643 175.825 297.472 176.68 297.14 177.479C296.809 178.277 296.323 179.002 295.71 179.613C295.097 180.224 294.369 180.709 293.568 181.039C292.768 181.37 291.909 181.54 291.043 181.54H277.549C276.682 181.54 275.824 181.71 275.023 182.041C274.222 182.371 273.495 182.856 272.882 183.467C272.269 184.078 271.783 184.803 271.451 185.601C271.119 186.4 270.949 187.255 270.949 188.119V197.269C270.949 198.133 271.119 198.988 271.451 199.787C271.783 200.585 272.269 201.31 272.882 201.921C273.495 202.532 274.222 203.017 275.023 203.347C275.824 203.678 276.682 203.848 277.549 203.848H283.271C285.022 203.848 286.701 204.541 287.939 205.775C289.176 207.009 289.872 208.682 289.872 210.427V219.577C289.872 220.441 289.701 221.296 289.37 222.095C289.038 222.893 288.552 223.618 287.939 224.229C287.326 224.84 286.598 225.325 285.797 225.655C284.997 225.986 284.139 226.156 283.271 226.156H234.912Z" fill="#F1F1F1"/>
<path d="M234.912 226.156V225.156H234.634L234.396 225.3L234.912 226.156ZM140.556 226.156L141.073 225.3L140.835 225.156H140.556V226.156ZM70.0745 225.655L70.4561 224.731L70.4555 224.73L70.0745 225.655ZM67.9331 224.229L67.2272 224.938L67.2275 224.938L67.9331 224.229ZM66.5023 222.095L65.5788 222.479L65.5789 222.479L66.5023 222.095ZM98.9063 203.347L98.5247 202.423L98.5245 202.423L98.9063 203.347ZM101.048 201.921L100.342 201.213L100.341 201.213L101.048 201.921ZM102.479 199.787L101.555 199.403L101.555 199.403L102.479 199.787ZM90.2649 179.613L90.9708 178.905L90.9707 178.905L90.2649 179.613ZM88.834 163.293L87.9107 162.909L87.9106 162.909L88.834 163.293ZM90.2649 161.159L89.5589 160.451L89.5589 160.451L90.2649 161.159ZM92.4057 159.733L92.7869 160.658L92.7873 160.657L92.4057 159.733ZM97.0592 158.889L97.3768 159.837L98.1468 159.579L98.0524 158.773L97.0592 158.889ZM97.0947 137.279L98.0875 137.399L98.1843 136.595L97.4178 136.333L97.0947 137.279ZM80.2738 134.997L80.9799 134.289L80.9798 134.289L80.2738 134.997ZM80.2738 116.543L79.5678 115.835L80.2738 116.543ZM102.872 114.616V115.616H103.549L103.801 114.987L102.872 114.616ZM114.599 93.7583L115.398 94.3587L115.98 93.5837L115.224 92.9778L114.599 93.7583ZM112.99 92.8088L112.609 93.7331L112.99 92.8088ZM107.939 91.8075L107.557 92.7317L107.558 92.732L107.939 91.8075ZM105.797 90.3812L105.091 91.0891L105.092 91.0898L105.797 90.3812ZM104.367 88.2468L105.291 87.8636L105.29 87.8631L104.367 88.2468ZM105.797 71.9269L105.091 71.2186L105.091 71.2186L105.797 71.9269ZM141.076 70V71H141.351L141.587 70.8598L141.076 70ZM234.392 70L233.882 70.8598L234.118 71H234.392V70ZM282.254 70.5007L282.636 69.5764L282.636 69.5763L282.254 70.5007ZM284.396 71.9269L285.102 71.219L285.101 71.2186L284.396 71.9269ZM285.826 74.0613L284.902 74.4445L284.902 74.445L285.826 74.0613ZM285.826 88.2468L284.902 87.8631L284.902 87.8636L285.826 88.2468ZM284.396 90.3812L285.101 91.0898L285.102 91.0891L284.396 90.3812ZM282.254 91.8075L282.635 92.732L282.636 92.7317L282.254 91.8075ZM274.326 112.689L273.619 113.397L273.62 113.398L274.326 112.689ZM306.956 134.997L306.25 134.289L306.25 134.289L306.956 134.997ZM282.282 138.851L281.576 138.142L281.576 138.143L282.282 138.851ZM282.282 157.305L281.576 158.013L281.576 158.013L282.282 157.305ZM293.568 159.733L293.186 160.657L293.187 160.658L293.568 159.733ZM295.71 161.159L296.416 160.451L296.416 160.45L295.71 161.159ZM297.14 163.293L298.064 162.909L298.064 162.909L297.14 163.293ZM297.14 177.479L298.064 177.862V177.862L297.14 177.479ZM295.71 179.613L295.004 178.905L295.003 178.905L295.71 179.613ZM293.568 181.039L293.187 180.115L293.186 180.115L293.568 181.039ZM275.023 182.041L275.405 182.965L275.405 182.965L275.023 182.041ZM272.882 183.467L272.176 182.759V182.759L272.882 183.467ZM271.451 185.601L272.375 185.985L271.451 185.601ZM271.451 199.787L272.375 199.403V199.403L271.451 199.787ZM272.882 201.921L273.588 201.213L272.882 201.921ZM275.023 203.347L275.405 202.423L275.405 202.423L275.023 203.347ZM287.939 205.775L287.233 206.483L287.939 205.775ZM289.37 222.095L290.293 222.479L290.293 222.479L289.37 222.095ZM287.939 224.229L288.644 224.938L288.645 224.938L287.939 224.229ZM285.797 225.655L285.416 224.73L285.416 224.731L285.797 225.655ZM187.734 240.233C205.186 240.233 221.509 235.404 235.428 227.013L234.396 225.3C220.779 233.508 204.812 238.233 187.734 238.233V240.233ZM140.04 227.013C153.96 235.404 170.283 240.233 187.734 240.233V238.233C170.657 238.233 154.689 233.508 141.073 225.3L140.04 227.013ZM72.6004 227.156H140.556V225.156H72.6004V227.156ZM69.6929 226.579C70.6146 226.96 71.6021 227.156 72.6004 227.156V225.156C71.8645 225.156 71.1363 225.011 70.4561 224.731L69.6929 226.579ZM67.2275 224.938C67.9331 225.641 68.7706 226.199 69.6935 226.58L70.4555 224.73C69.7765 224.451 69.1593 224.039 68.6388 223.521L67.2275 224.938ZM65.5789 222.479C65.9611 223.398 66.521 224.234 67.2272 224.938L68.6391 223.521C68.1192 223.003 67.707 222.387 67.4256 221.711L65.5789 222.479ZM65 219.577C65 220.572 65.1965 221.559 65.5788 222.479L67.4257 221.711C67.1445 221.034 67 220.309 67 219.577H65ZM65 210.427V219.577H67V210.427H65ZM67.2272 205.067C65.8015 206.488 65 208.416 65 210.427H67C67 208.949 67.5893 207.53 68.6391 206.483L67.2272 205.067ZM72.6004 202.848C70.5858 202.848 68.6527 203.646 67.2272 205.067L68.6391 206.483C69.689 205.437 71.1141 204.848 72.6004 204.848V202.848ZM96.3804 202.848H72.6004V204.848H96.3804V202.848ZM98.5245 202.423C97.8455 202.704 97.1169 202.848 96.3804 202.848V204.848C97.3781 204.848 98.3663 204.653 99.2881 204.272L98.5245 202.423ZM100.341 201.213C99.8222 201.731 99.2048 202.142 98.5247 202.423L99.2879 204.272C100.21 203.891 101.048 203.333 101.754 202.629L100.341 201.213ZM101.555 199.403C101.274 200.08 100.862 200.695 100.342 201.213L101.754 202.629C102.46 201.926 103.02 201.09 103.402 200.17L101.555 199.403ZM101.981 197.269C101.981 198.002 101.836 198.726 101.555 199.403L103.402 200.17C103.784 199.25 103.981 198.265 103.981 197.269H101.981ZM101.981 188.119V197.269H103.981V188.119H101.981ZM100.342 184.175C101.392 185.222 101.981 186.64 101.981 188.119H103.981C103.981 186.108 103.179 184.18 101.754 182.759L100.342 184.175ZM96.3804 182.54C97.8672 182.54 99.2918 183.129 100.342 184.175L101.754 182.759C100.328 181.338 98.3956 180.54 96.3804 180.54V182.54ZM94.9316 182.54H96.3804V180.54H94.9316V182.54ZM89.5589 180.321C90.9844 181.742 92.9169 182.54 94.9316 182.54V180.54C93.4453 180.54 92.0208 179.951 90.9708 178.905L89.5589 180.321ZM87.3312 174.961C87.3312 176.972 88.1327 178.9 89.5591 180.322L90.9707 178.905C89.9204 177.858 89.3312 176.439 89.3312 174.961H87.3312ZM87.3312 165.811V174.961H89.3312V165.811H87.3312ZM87.9106 162.909C87.5284 163.829 87.3312 164.815 87.3312 165.811H89.3312C89.3312 165.079 89.4761 164.354 89.7575 163.677L87.9106 162.909ZM89.5589 160.451C88.8527 161.154 88.2928 161.99 87.9107 162.909L89.7574 163.677C90.0387 163.001 90.4509 162.385 90.9708 161.867L89.5589 160.451ZM92.0244 158.809C91.1025 159.189 90.2643 159.747 89.5589 160.451L90.9708 161.867C91.4904 161.349 92.108 160.938 92.7869 160.658L92.0244 158.809ZM94.9316 158.232C93.9339 158.232 92.9458 158.428 92.0241 158.809L92.7873 160.657C93.4675 160.377 94.1962 160.232 94.9316 160.232V158.232ZM94.9559 158.232H94.9316V160.232H94.9559V158.232ZM96.7415 157.941C96.1669 158.133 95.5638 158.232 94.9559 158.232V160.232C95.7798 160.232 96.5975 160.098 97.3768 159.837L96.7415 157.941ZM95.4399 148.234C95.4399 151.877 95.6525 155.472 96.0659 159.005L98.0524 158.773C97.6479 155.316 97.4399 151.799 97.4399 148.234H95.4399ZM96.1018 137.16C95.6648 140.791 95.4399 144.486 95.4399 148.234H97.4399C97.4399 144.566 97.66 140.95 98.0875 137.399L96.1018 137.16ZM94.9559 137.924C95.574 137.924 96.1875 138.026 96.7715 138.225L97.4178 136.333C96.6265 136.063 95.7946 135.924 94.9559 135.924V137.924ZM84.9405 137.924H94.9559V135.924H84.9405V137.924ZM79.5677 135.705C80.9934 137.127 82.926 137.924 84.9405 137.924V135.924C83.4541 135.924 82.0297 135.336 80.9799 134.289L79.5677 135.705ZM77.3407 130.345C77.3407 132.356 78.1423 134.284 79.5678 135.705L80.9798 134.289C79.9299 133.242 79.3407 131.824 79.3407 130.345H77.3407ZM77.3407 121.195V130.345H79.3407V121.195H77.3407ZM79.5678 115.835C78.1423 117.256 77.3407 119.184 77.3407 121.195H79.3407C79.3407 119.716 79.9299 118.298 80.9798 117.251L79.5678 115.835ZM84.9405 113.616C82.9258 113.616 80.9933 114.414 79.5678 115.835L80.9798 117.251C82.0297 116.205 83.4543 115.616 84.9405 115.616V113.616ZM102.872 113.616H84.9405V115.616H102.872V113.616ZM113.799 93.1578C108.971 99.5877 104.967 106.669 101.943 114.246L103.801 114.987C106.758 107.576 110.675 100.649 115.398 94.3587L113.799 93.1578ZM112.609 93.7331C113.101 93.9363 113.56 94.2078 113.973 94.5388L115.224 92.9778C114.663 92.5284 114.039 92.16 113.372 91.8844L112.609 93.7331ZM110.465 93.3081C111.201 93.3081 111.929 93.4524 112.609 93.7331L113.372 91.8844C112.45 91.5037 111.462 91.3081 110.465 91.3081V93.3081ZM107.558 92.732C108.479 93.1118 109.467 93.3081 110.465 93.3081V91.3081C109.729 91.3081 109 91.1634 108.32 90.8829L107.558 92.732ZM105.092 91.0898C105.797 91.7926 106.635 92.351 107.557 92.7317L108.32 90.8832C107.641 90.6026 107.023 90.1908 106.503 89.6726L105.092 91.0898ZM103.443 88.6299C103.825 89.5507 104.386 90.3858 105.091 91.0891L106.504 89.6733C105.984 89.1545 105.571 88.5396 105.291 87.8636L103.443 88.6299ZM102.864 85.729C102.864 86.7248 103.061 87.7108 103.444 88.6305L105.29 87.8631C105.009 87.1859 104.864 86.4607 104.864 85.729H102.864ZM102.864 76.5791V85.729H104.864V76.5791H102.864ZM105.091 71.2186C103.666 72.6397 102.864 74.5681 102.864 76.5791H104.864C104.864 75.1005 105.453 73.6815 106.503 72.6351L105.091 71.2186ZM110.465 69C108.45 69 106.517 69.7977 105.091 71.2186L106.503 72.6351C107.553 71.5886 108.978 71 110.465 71V69ZM141.076 69H110.465V71H141.076V69ZM187.734 56.2344C170.502 56.2344 154.37 60.9428 140.566 69.1402L141.587 70.8598C155.09 62.841 170.871 58.2344 187.734 58.2344V56.2344ZM234.903 69.1402C221.099 60.9428 204.966 56.2344 187.734 56.2344V58.2344C204.598 58.2344 220.378 62.841 233.882 70.8598L234.903 69.1402ZM279.728 69H234.392V71H279.728V69ZM282.636 69.5763C281.714 69.1956 280.726 69 279.728 69V71C280.464 71 281.193 71.1443 281.873 71.425L282.636 69.5763ZM285.101 71.2186C284.395 70.5147 283.557 69.957 282.636 69.5764L281.872 71.4249C282.552 71.7057 283.17 72.1169 283.69 72.6351L285.101 71.2186ZM286.749 73.6782C286.368 72.7574 285.807 71.9223 285.102 71.219L283.689 72.6348C284.209 73.1536 284.622 73.7685 284.902 74.4445L286.749 73.6782ZM287.329 76.5791C287.329 75.5826 287.131 74.5972 286.749 73.6776L284.902 74.445C285.184 75.1222 285.329 75.8469 285.329 76.5791H287.329ZM287.329 85.729V76.5791H285.329V85.729H287.329ZM286.749 88.6305C287.131 87.7108 287.329 86.7248 287.329 85.729H285.329C285.329 86.4607 285.184 87.1859 284.902 87.8631L286.749 88.6305ZM285.102 91.0891C285.807 90.3858 286.368 89.5507 286.749 88.6299L284.902 87.8636C284.622 88.5396 284.209 89.1545 283.689 89.6733L285.102 91.0891ZM282.636 92.7317C283.557 92.351 284.395 91.7926 285.101 91.0898L283.69 89.6726C283.17 90.1908 282.552 90.6026 281.872 90.8832L282.636 92.7317ZM279.728 93.3081C280.726 93.3081 281.714 93.1118 282.635 92.732L281.873 90.8829C281.193 91.1634 280.464 91.3081 279.728 91.3081V93.3081ZM278.993 93.3081H279.728V91.3081H278.993V93.3081ZM275.032 94.9432C276.081 93.8967 277.507 93.3081 278.993 93.3081V91.3081C276.978 91.3081 275.045 92.1058 273.62 93.5268L275.032 94.9432ZM273.392 98.8872C273.392 97.4081 273.982 95.9897 275.032 94.9432L273.62 93.5268C272.194 94.9477 271.392 96.8755 271.392 98.8872H273.392ZM273.392 108.037V98.8872H271.392V108.037H273.392ZM275.032 111.981C273.982 110.934 273.392 109.516 273.392 108.037H271.392C271.392 110.048 272.194 111.976 273.619 113.397L275.032 111.981ZM278.993 113.616C277.507 113.616 276.081 113.028 275.032 111.981L273.62 113.398C275.045 114.819 276.978 115.616 278.993 115.616V113.616ZM302.29 113.616H278.993V115.616H302.29V113.616ZM307.662 115.835C306.237 114.414 304.304 113.616 302.29 113.616V115.616C303.776 115.616 305.2 116.205 306.25 117.251L307.662 115.835ZM309.89 121.195C309.89 119.184 309.088 117.256 307.662 115.835L306.25 117.251C307.3 118.298 307.89 119.716 307.89 121.195H309.89ZM309.89 130.345V121.195H307.89V130.345H309.89ZM307.662 135.705C309.088 134.284 309.89 132.356 309.89 130.345H307.89C307.89 131.824 307.3 133.242 306.25 134.289L307.662 135.705ZM302.29 137.924C304.304 137.924 306.237 137.127 307.662 135.705L306.25 134.289C305.2 135.336 303.776 135.924 302.29 135.924V137.924ZM286.949 137.924H302.29V135.924H286.949V137.924ZM282.988 139.559C284.038 138.512 285.463 137.924 286.949 137.924V135.924C284.935 135.924 283.002 136.722 281.576 138.142L282.988 139.559ZM281.349 143.503C281.349 142.024 281.938 140.606 282.988 139.559L281.576 138.143C280.15 139.564 279.349 141.492 279.349 143.503H281.349ZM281.349 152.653V143.503H279.349V152.653H281.349ZM282.988 156.597C281.938 155.55 281.349 154.132 281.349 152.653H279.349C279.349 154.664 280.15 156.592 281.576 158.013L282.988 156.597ZM286.949 158.232C285.463 158.232 284.038 157.643 282.988 156.597L281.576 158.013C283.002 159.434 284.935 160.232 286.949 160.232V158.232ZM291.043 158.232H286.949V160.232H291.043V158.232ZM293.95 158.809C293.029 158.428 292.041 158.232 291.043 158.232V160.232C291.778 160.232 292.507 160.377 293.186 160.657L293.95 158.809ZM296.416 160.45C295.71 159.747 294.872 159.189 293.949 158.809L293.187 160.658C293.867 160.938 294.484 161.349 295.004 161.867L296.416 160.45ZM298.064 162.909C297.682 161.99 297.122 161.154 296.416 160.451L295.004 161.867C295.524 162.385 295.936 163.001 296.217 163.677L298.064 162.909ZM298.643 165.811C298.643 164.816 298.446 163.83 298.064 162.909L296.217 163.677C296.498 164.354 296.643 165.079 296.643 165.811H298.643ZM298.643 174.961V165.811H296.643V174.961H298.643ZM298.064 177.862C298.446 176.942 298.643 175.957 298.643 174.961H296.643C296.643 175.694 296.498 176.418 296.217 177.095L298.064 177.862ZM296.416 180.321C297.122 179.618 297.682 178.782 298.064 177.862L296.217 177.095C295.936 177.772 295.524 178.386 295.004 178.905L296.416 180.321ZM293.95 181.964C294.872 181.583 295.71 181.025 296.416 180.321L295.003 178.905C294.484 179.423 293.867 179.834 293.187 180.115L293.95 181.964ZM291.043 182.54C292.04 182.54 293.028 182.344 293.95 181.964L293.186 180.115C292.507 180.396 291.779 180.54 291.043 180.54V182.54ZM277.549 182.54H291.043V180.54H277.549V182.54ZM275.405 182.965C276.084 182.684 276.813 182.54 277.549 182.54V180.54C276.551 180.54 275.563 180.736 274.641 181.116L275.405 182.965ZM273.588 184.175C274.108 183.657 274.725 183.246 275.405 182.965L274.642 181.116C273.72 181.497 272.882 182.055 272.176 182.759L273.588 184.175ZM272.375 185.985C272.656 185.308 273.068 184.694 273.588 184.175L272.176 182.759C271.47 183.462 270.91 184.298 270.528 185.218L272.375 185.985ZM271.949 188.119C271.949 187.386 272.093 186.662 272.375 185.985L270.528 185.218C270.145 186.138 269.949 187.123 269.949 188.119H271.949ZM271.949 197.269V188.119H269.949V197.269H271.949ZM272.375 199.403C272.093 198.726 271.949 198.002 271.949 197.269H269.949C269.949 198.265 270.145 199.25 270.528 200.17L272.375 199.403ZM273.588 201.213C273.068 200.695 272.656 200.08 272.375 199.403L270.528 200.17C270.91 201.09 271.47 201.926 272.176 202.629L273.588 201.213ZM275.405 202.423C274.725 202.142 274.108 201.731 273.588 201.213L272.176 202.629C272.882 203.333 273.72 203.891 274.642 204.272L275.405 202.423ZM277.549 202.848C276.813 202.848 276.084 202.704 275.405 202.423L274.641 204.272C275.563 204.653 276.551 204.848 277.549 204.848V202.848ZM283.271 202.848H277.549V204.848H283.271V202.848ZM288.645 205.067C287.219 203.646 285.287 202.848 283.271 202.848V204.848C284.758 204.848 286.183 205.437 287.233 206.483L288.645 205.067ZM290.872 210.427C290.872 208.416 290.07 206.488 288.645 205.067L287.233 206.483C288.283 207.53 288.872 208.949 288.872 210.427H290.872ZM290.872 219.577V210.427H288.872V219.577H290.872ZM290.293 222.479C290.675 221.559 290.872 220.572 290.872 219.577H288.872C288.872 220.309 288.727 221.034 288.446 221.711L290.293 222.479ZM288.645 224.938C289.351 224.234 289.911 223.398 290.293 222.479L288.446 221.711C288.165 222.387 287.753 223.003 287.233 223.521L288.645 224.938ZM286.178 226.58C287.101 226.199 287.939 225.641 288.644 224.938L287.233 223.521C286.713 224.039 286.095 224.451 285.416 224.73L286.178 226.58ZM283.271 227.156C284.27 227.156 285.258 226.96 286.179 226.579L285.416 224.731C284.736 225.011 284.007 225.156 283.271 225.156V227.156ZM234.912 227.156H283.271V225.156H234.912V227.156Z" fill="#6C6C6C" mask="url(#path-1-inside-1_1806_2629)"/>
<path d="M179.983 230.35C184.135 230.35 187.5 226.996 187.5 222.857C187.5 218.719 184.135 215.365 179.983 215.365C175.831 215.365 172.466 218.719 172.466 222.857C172.466 226.996 175.831 230.35 179.983 230.35Z" fill="#FFCE1A"/>
<path d="M169.96 208.844C172.112 208.844 173.858 207.104 173.858 204.959C173.858 202.813 172.112 201.074 169.96 201.074C167.808 201.074 166.062 202.813 166.062 204.959C166.062 207.104 167.808 208.844 169.96 208.844Z" fill="#FFCE1A"/>
<path d="M195.456 214.394C198.531 214.394 201.024 211.909 201.024 208.844C201.024 205.778 198.531 203.294 195.456 203.294C192.381 203.294 189.888 205.778 189.888 208.844C189.888 211.909 192.381 214.394 195.456 214.394Z" fill="#FFCE1A"/>
<path d="M99.9949 188.64C104.934 188.64 108.938 184.649 108.938 179.725C108.938 174.802 104.934 170.811 99.9949 170.811C95.0556 170.811 91.0513 174.802 91.0513 179.725C91.0513 184.649 95.0556 188.64 99.9949 188.64Z" fill="#FFCE1A"/>
<path d="M82.9047 178.019C85.4775 178.019 87.5632 175.94 87.5632 173.376C87.5632 170.811 85.4775 168.732 82.9047 168.732C80.3318 168.732 78.2461 170.811 78.2461 173.376C78.2461 175.94 80.3318 178.019 82.9047 178.019Z" fill="#FFCE1A"/>
<path d="M87.1837 160.269C88.6679 160.269 89.8709 159.07 89.8709 157.591C89.8709 156.112 88.6679 154.913 87.1837 154.913C85.6995 154.913 84.4966 156.112 84.4966 157.591C84.4966 159.07 85.6995 160.269 87.1837 160.269Z" fill="#FFCE1A"/>
<path d="M102.059 165.907C105.616 165.907 108.501 163.032 108.501 159.486C108.501 155.94 105.616 153.065 102.059 153.065C98.5008 153.065 95.6165 155.94 95.6165 159.486C95.6165 163.032 98.5008 165.907 102.059 165.907Z" fill="#FFCE1A"/>
<path d="M242.844 95.3277C247.783 95.3277 251.787 91.3363 251.787 86.413C251.787 81.4897 247.783 77.4983 242.844 77.4983C237.904 77.4983 233.9 81.4897 233.9 86.413C233.9 91.3363 237.904 95.3277 242.844 95.3277Z" fill="#FFCE1A"/>
<path d="M243.207 72.8808C245.78 72.8808 247.865 70.8018 247.865 68.2372C247.865 65.6727 245.78 63.5938 243.207 63.5938C240.634 63.5938 238.548 65.6727 238.548 68.2372C238.548 70.8018 240.634 72.8808 243.207 72.8808Z" fill="#FFCE1A"/>
<path d="M274.236 74.9695C276.462 74.9695 278.268 73.1698 278.268 70.9504C278.268 68.7304 276.462 66.9313 274.236 66.9313C272.008 66.9313 270.203 68.7304 270.203 70.9504C270.203 73.1698 272.008 74.9695 274.236 74.9695Z" fill="#FFCE1A"/>
<path d="M259.566 69.7236C261.05 69.7236 262.253 68.5246 262.253 67.0452C262.253 65.5657 261.05 64.3667 259.566 64.3667C258.082 64.3667 256.879 65.5657 256.879 67.0452C256.879 68.5246 258.082 69.7236 259.566 69.7236Z" fill="#FFCE1A"/>
<path d="M262.689 88.0866C266.247 88.0866 269.131 85.2116 269.131 81.6654C269.131 78.1192 266.247 75.2441 262.689 75.2441C259.131 75.2441 256.247 78.1192 256.247 81.6654C256.247 85.2116 259.131 88.0866 262.689 88.0866Z" fill="#FFCE1A"/>
<g clip-path="url(#clip0_1806_2629)">
<path d="M200.538 116.642H175.064C174.483 116.642 173.926 116.872 173.516 117.281C173.105 117.69 172.875 118.244 172.874 118.823V175.218L172.582 175.307L166.333 177.213C166.036 177.303 165.717 177.273 165.443 177.128C165.17 176.983 164.965 176.736 164.874 176.441L146.286 115.96C146.195 115.665 146.226 115.346 146.371 115.074C146.517 114.801 146.765 114.597 147.061 114.507L156.691 111.57L184.609 103.058L194.239 100.121C194.386 100.076 194.54 100.06 194.692 100.074C194.845 100.089 194.993 100.133 195.129 100.205C195.264 100.276 195.384 100.374 195.482 100.492C195.579 100.609 195.653 100.745 195.697 100.891L200.449 116.351L200.538 116.642Z" fill="#E6E6E6"/>
<path d="M206.097 115.773L200.37 97.1409C200.275 96.8305 200.119 96.5418 199.912 96.2913C199.705 96.0409 199.45 95.8335 199.162 95.6812C198.874 95.5289 198.559 95.4346 198.235 95.4036C197.91 95.3726 197.583 95.4057 197.271 95.5008L183.732 99.6288L155.815 108.142L142.276 112.272C141.647 112.464 141.12 112.897 140.812 113.476C140.503 114.055 140.437 114.732 140.629 115.359L160.202 179.037C160.358 179.543 160.673 179.985 161.1 180.3C161.527 180.615 162.044 180.785 162.576 180.786C162.821 180.786 163.066 180.749 163.301 180.677L172.582 177.847L172.874 177.757V177.453L172.582 177.542L163.215 180.399C162.66 180.568 162.06 180.51 161.548 180.239C161.035 179.967 160.651 179.505 160.481 178.952L140.91 115.273C140.825 114.999 140.796 114.712 140.823 114.426C140.85 114.141 140.934 113.864 141.069 113.611C141.204 113.358 141.387 113.134 141.609 112.952C141.831 112.77 142.087 112.633 142.362 112.55L155.901 108.42L183.818 99.908L197.357 95.7785C197.566 95.7151 197.783 95.6827 198.001 95.6825C198.469 95.6836 198.925 95.8339 199.301 96.1115C199.677 96.3891 199.954 96.7795 200.092 97.2253L205.792 115.773L205.883 116.064H206.186L206.097 115.773Z" fill="#3F3D56"/>
<path d="M229.071 182.933H179.731C179.402 182.932 179.086 182.802 178.854 182.57C178.621 182.339 178.49 182.025 178.49 181.697V122.807C178.49 122.48 178.621 122.166 178.854 121.934C179.086 121.702 179.402 121.572 179.731 121.572H229.071C229.4 121.572 229.715 121.702 229.948 121.934C230.181 122.166 230.311 122.48 230.312 122.807V181.697C230.311 182.025 230.181 182.339 229.948 182.57C229.715 182.802 229.4 182.932 229.071 182.933Z" fill="#E6E6E6"/>
<line x1="182" y1="128.9" x2="223" y2="128.9" stroke="black" stroke-width="0.2"/>
<line x1="182" y1="133.9" x2="223" y2="133.9" stroke="black" stroke-width="0.2"/>
<line x1="182" y1="138.9" x2="223" y2="138.9" stroke="black" stroke-width="0.2"/>
<line x1="182" y1="143.9" x2="223" y2="143.9" stroke="black" stroke-width="0.2"/>
<line x1="182" y1="148.9" x2="223" y2="148.9" stroke="black" stroke-width="0.2"/>
<line x1="182" y1="153.9" x2="223" y2="153.9" stroke="black" stroke-width="0.2"/>
<line x1="182" y1="158.9" x2="223" y2="158.9" stroke="black" stroke-width="0.2"/>
<line x1="182" y1="163.9" x2="223" y2="163.9" stroke="black" stroke-width="0.2"/>
<line x1="182" y1="168.9" x2="223" y2="168.9" stroke="black" stroke-width="0.2"/>
<line x1="182" y1="173.9" x2="223" y2="173.9" stroke="black" stroke-width="0.2"/>
<line x1="182" y1="178.9" x2="223" y2="178.9" stroke="black" stroke-width="0.2"/>
<path d="M205.792 115.773H175.063C174.406 115.774 173.775 116.034 173.31 116.498C172.844 116.961 172.583 117.589 172.582 118.245V177.541L172.874 177.452V118.245C172.874 117.666 173.105 117.112 173.516 116.703C173.926 116.294 174.483 116.064 175.063 116.064H205.882L205.792 115.773ZM232.578 115.773H175.063C174.406 115.774 173.775 116.034 173.31 116.498C172.844 116.961 172.583 117.589 172.582 118.245V184.841C172.583 185.496 172.844 186.124 173.31 186.587C173.775 187.051 174.406 187.312 175.063 187.312H232.578C233.236 187.312 233.867 187.051 234.332 186.587C234.797 186.124 235.059 185.496 235.06 184.841V118.245C235.059 117.589 234.797 116.961 234.332 116.498C233.867 116.034 233.236 115.774 232.578 115.773ZM234.768 184.841C234.767 185.419 234.536 185.973 234.126 186.382C233.715 186.791 233.159 187.021 232.578 187.022H175.063C174.483 187.021 173.926 186.791 173.516 186.382C173.105 185.973 172.874 185.419 172.874 184.841V118.245C172.874 117.666 173.105 117.112 173.516 116.703C173.926 116.294 174.483 116.064 175.063 116.064H232.578C233.159 116.064 233.715 116.294 234.126 116.703C234.536 117.112 234.767 117.666 234.768 118.245V184.841Z" fill="#3F3D56"/>
</g>
<path d="M133.842 265.781V280H130.912L125.199 270.469V280H122.27V265.781H125.199L130.922 275.322V265.781H133.842ZM135.766 274.824V274.619C135.766 273.844 135.876 273.132 136.098 272.48C136.319 271.823 136.641 271.253 137.064 270.771C137.488 270.29 138.008 269.915 138.627 269.648C139.245 269.375 139.955 269.238 140.756 269.238C141.557 269.238 142.27 269.375 142.895 269.648C143.52 269.915 144.044 270.29 144.467 270.771C144.896 271.253 145.222 271.823 145.443 272.48C145.665 273.132 145.775 273.844 145.775 274.619V274.824C145.775 275.592 145.665 276.305 145.443 276.963C145.222 277.614 144.896 278.184 144.467 278.672C144.044 279.154 143.523 279.528 142.904 279.795C142.286 280.062 141.576 280.195 140.775 280.195C139.975 280.195 139.262 280.062 138.637 279.795C138.018 279.528 137.494 279.154 137.064 278.672C136.641 278.184 136.319 277.614 136.098 276.963C135.876 276.305 135.766 275.592 135.766 274.824ZM138.578 274.619V274.824C138.578 275.267 138.617 275.68 138.695 276.064C138.773 276.449 138.897 276.787 139.066 277.08C139.242 277.367 139.47 277.591 139.75 277.754C140.03 277.917 140.372 277.998 140.775 277.998C141.166 277.998 141.501 277.917 141.781 277.754C142.061 277.591 142.286 277.367 142.455 277.08C142.624 276.787 142.748 276.449 142.826 276.064C142.911 275.68 142.953 275.267 142.953 274.824V274.619C142.953 274.189 142.911 273.786 142.826 273.408C142.748 273.024 142.621 272.686 142.445 272.393C142.276 272.093 142.051 271.859 141.771 271.689C141.492 271.52 141.153 271.436 140.756 271.436C140.359 271.436 140.02 271.52 139.74 271.689C139.467 271.859 139.242 272.093 139.066 272.393C138.897 272.686 138.773 273.024 138.695 273.408C138.617 273.786 138.578 274.189 138.578 274.619ZM157.025 280H153.93L153.949 277.715H157.025C157.794 277.715 158.441 277.542 158.969 277.197C159.496 276.846 159.893 276.335 160.16 275.664C160.434 274.993 160.57 274.183 160.57 273.232V272.539C160.57 271.81 160.492 271.169 160.336 270.615C160.186 270.062 159.962 269.596 159.662 269.219C159.363 268.841 158.995 268.558 158.559 268.369C158.122 268.174 157.621 268.076 157.055 268.076H153.871V265.781H157.055C158.005 265.781 158.874 265.944 159.662 266.27C160.456 266.589 161.143 267.048 161.723 267.646C162.302 268.245 162.748 268.962 163.061 269.795C163.38 270.622 163.539 271.543 163.539 272.559V273.232C163.539 274.242 163.38 275.163 163.061 275.996C162.748 276.829 162.302 277.546 161.723 278.145C161.15 278.737 160.463 279.196 159.662 279.521C158.868 279.84 157.989 280 157.025 280ZM155.59 265.781V280H152.66V265.781H155.59ZM171.195 277.617V272.91C171.195 272.572 171.14 272.282 171.029 272.041C170.919 271.794 170.746 271.602 170.512 271.465C170.284 271.328 169.988 271.26 169.623 271.26C169.311 271.26 169.04 271.315 168.812 271.426C168.585 271.53 168.409 271.683 168.285 271.885C168.161 272.08 168.1 272.311 168.1 272.578H165.287C165.287 272.129 165.391 271.702 165.6 271.299C165.808 270.895 166.111 270.54 166.508 270.234C166.905 269.922 167.377 269.678 167.924 269.502C168.477 269.326 169.096 269.238 169.779 269.238C170.6 269.238 171.329 269.375 171.967 269.648C172.605 269.922 173.106 270.332 173.471 270.879C173.842 271.426 174.027 272.109 174.027 272.93V277.451C174.027 278.031 174.063 278.506 174.135 278.877C174.206 279.242 174.311 279.561 174.447 279.834V280H171.605C171.469 279.714 171.365 279.355 171.293 278.926C171.228 278.49 171.195 278.053 171.195 277.617ZM171.566 273.564L171.586 275.156H170.014C169.643 275.156 169.32 275.199 169.047 275.283C168.773 275.368 168.549 275.488 168.373 275.645C168.197 275.794 168.067 275.97 167.982 276.172C167.904 276.374 167.865 276.595 167.865 276.836C167.865 277.077 167.921 277.295 168.031 277.49C168.142 277.679 168.301 277.829 168.51 277.939C168.718 278.044 168.962 278.096 169.242 278.096C169.665 278.096 170.033 278.011 170.346 277.842C170.658 277.673 170.899 277.464 171.068 277.217C171.244 276.969 171.335 276.735 171.342 276.514L172.084 277.705C171.98 277.972 171.837 278.249 171.654 278.535C171.479 278.822 171.254 279.092 170.98 279.346C170.707 279.593 170.378 279.798 169.994 279.961C169.61 280.117 169.154 280.195 168.627 280.195C167.956 280.195 167.348 280.062 166.801 279.795C166.26 279.521 165.831 279.147 165.512 278.672C165.199 278.19 165.043 277.643 165.043 277.031C165.043 276.478 165.147 275.986 165.355 275.557C165.564 275.127 165.87 274.766 166.273 274.473C166.684 274.173 167.195 273.949 167.807 273.799C168.419 273.643 169.128 273.564 169.936 273.564H171.566ZM181.371 269.434V271.426H175.219V269.434H181.371ZM176.742 266.826H179.555V276.816C179.555 277.122 179.594 277.357 179.672 277.52C179.757 277.682 179.88 277.796 180.043 277.861C180.206 277.92 180.411 277.949 180.658 277.949C180.834 277.949 180.99 277.943 181.127 277.93C181.27 277.91 181.391 277.891 181.488 277.871L181.498 279.941C181.257 280.02 180.997 280.081 180.717 280.127C180.437 280.173 180.128 280.195 179.789 280.195C179.171 280.195 178.63 280.094 178.168 279.893C177.712 279.684 177.361 279.352 177.113 278.896C176.866 278.441 176.742 277.842 176.742 277.1V266.826ZM188.676 277.617V272.91C188.676 272.572 188.62 272.282 188.51 272.041C188.399 271.794 188.227 271.602 187.992 271.465C187.764 271.328 187.468 271.26 187.104 271.26C186.791 271.26 186.521 271.315 186.293 271.426C186.065 271.53 185.889 271.683 185.766 271.885C185.642 272.08 185.58 272.311 185.58 272.578H182.768C182.768 272.129 182.872 271.702 183.08 271.299C183.288 270.895 183.591 270.54 183.988 270.234C184.385 269.922 184.857 269.678 185.404 269.502C185.958 269.326 186.576 269.238 187.26 269.238C188.08 269.238 188.809 269.375 189.447 269.648C190.085 269.922 190.587 270.332 190.951 270.879C191.322 271.426 191.508 272.109 191.508 272.93V277.451C191.508 278.031 191.544 278.506 191.615 278.877C191.687 279.242 191.791 279.561 191.928 279.834V280H189.086C188.949 279.714 188.845 279.355 188.773 278.926C188.708 278.49 188.676 278.053 188.676 277.617ZM189.047 273.564L189.066 275.156H187.494C187.123 275.156 186.801 275.199 186.527 275.283C186.254 275.368 186.029 275.488 185.854 275.645C185.678 275.794 185.548 275.97 185.463 276.172C185.385 276.374 185.346 276.595 185.346 276.836C185.346 277.077 185.401 277.295 185.512 277.49C185.622 277.679 185.782 277.829 185.99 277.939C186.199 278.044 186.443 278.096 186.723 278.096C187.146 278.096 187.514 278.011 187.826 277.842C188.139 277.673 188.38 277.464 188.549 277.217C188.725 276.969 188.816 276.735 188.822 276.514L189.564 277.705C189.46 277.972 189.317 278.249 189.135 278.535C188.959 278.822 188.734 279.092 188.461 279.346C188.188 279.593 187.859 279.798 187.475 279.961C187.09 280.117 186.635 280.195 186.107 280.195C185.437 280.195 184.828 280.062 184.281 279.795C183.741 279.521 183.311 279.147 182.992 278.672C182.68 278.19 182.523 277.643 182.523 277.031C182.523 276.478 182.628 275.986 182.836 275.557C183.044 275.127 183.35 274.766 183.754 274.473C184.164 274.173 184.675 273.949 185.287 273.799C185.899 273.643 186.609 273.564 187.416 273.564H189.047ZM201.762 265.781V280H198.832V265.781H201.762ZM207.426 271.855V274.141H200.961V271.855H207.426ZM208.109 265.781V268.076H200.961V265.781H208.109ZM208.969 274.824V274.619C208.969 273.844 209.079 273.132 209.301 272.48C209.522 271.823 209.844 271.253 210.268 270.771C210.691 270.29 211.212 269.915 211.83 269.648C212.449 269.375 213.158 269.238 213.959 269.238C214.76 269.238 215.473 269.375 216.098 269.648C216.723 269.915 217.247 270.29 217.67 270.771C218.1 271.253 218.425 271.823 218.646 272.48C218.868 273.132 218.979 273.844 218.979 274.619V274.824C218.979 275.592 218.868 276.305 218.646 276.963C218.425 277.614 218.1 278.184 217.67 278.672C217.247 279.154 216.726 279.528 216.107 279.795C215.489 280.062 214.779 280.195 213.979 280.195C213.178 280.195 212.465 280.062 211.84 279.795C211.221 279.528 210.697 279.154 210.268 278.672C209.844 278.184 209.522 277.614 209.301 276.963C209.079 276.305 208.969 275.592 208.969 274.824ZM211.781 274.619V274.824C211.781 275.267 211.82 275.68 211.898 276.064C211.977 276.449 212.1 276.787 212.27 277.08C212.445 277.367 212.673 277.591 212.953 277.754C213.233 277.917 213.575 277.998 213.979 277.998C214.369 277.998 214.704 277.917 214.984 277.754C215.264 277.591 215.489 277.367 215.658 277.08C215.827 276.787 215.951 276.449 216.029 276.064C216.114 275.68 216.156 275.267 216.156 274.824V274.619C216.156 274.189 216.114 273.786 216.029 273.408C215.951 273.024 215.824 272.686 215.648 272.393C215.479 272.093 215.255 271.859 214.975 271.689C214.695 271.52 214.356 271.436 213.959 271.436C213.562 271.436 213.223 271.52 212.943 271.689C212.67 271.859 212.445 272.093 212.27 272.393C212.1 272.686 211.977 273.024 211.898 273.408C211.82 273.786 211.781 274.189 211.781 274.619ZM226.957 277.471V269.434H229.77V280H227.123L226.957 277.471ZM227.27 275.303L228.1 275.283C228.1 275.986 228.018 276.641 227.855 277.246C227.693 277.845 227.449 278.366 227.123 278.809C226.798 279.245 226.387 279.587 225.893 279.834C225.398 280.075 224.815 280.195 224.145 280.195C223.63 280.195 223.155 280.124 222.719 279.98C222.289 279.831 221.918 279.6 221.605 279.287C221.299 278.968 221.059 278.561 220.883 278.066C220.714 277.565 220.629 276.963 220.629 276.26V269.434H223.441V276.279C223.441 276.592 223.477 276.855 223.549 277.07C223.627 277.285 223.734 277.461 223.871 277.598C224.008 277.734 224.167 277.832 224.35 277.891C224.538 277.949 224.747 277.979 224.975 277.979C225.554 277.979 226.01 277.861 226.342 277.627C226.68 277.393 226.918 277.074 227.055 276.67C227.198 276.26 227.27 275.804 227.27 275.303ZM234.672 271.689V280H231.859V269.434H234.496L234.672 271.689ZM234.262 274.346H233.5C233.5 273.564 233.601 272.861 233.803 272.236C234.005 271.605 234.288 271.068 234.652 270.625C235.017 270.176 235.45 269.834 235.951 269.6C236.459 269.359 237.025 269.238 237.65 269.238C238.145 269.238 238.598 269.31 239.008 269.453C239.418 269.596 239.77 269.824 240.062 270.137C240.362 270.449 240.59 270.863 240.746 271.377C240.909 271.891 240.99 272.52 240.99 273.262V280H238.158V273.252C238.158 272.783 238.093 272.419 237.963 272.158C237.833 271.898 237.641 271.715 237.387 271.611C237.139 271.501 236.833 271.445 236.469 271.445C236.091 271.445 235.762 271.52 235.482 271.67C235.209 271.82 234.981 272.028 234.799 272.295C234.623 272.555 234.49 272.861 234.398 273.213C234.307 273.564 234.262 273.942 234.262 274.346ZM249.369 277.695V265H252.201V280H249.652L249.369 277.695ZM242.689 274.844V274.639C242.689 273.831 242.781 273.099 242.963 272.441C243.145 271.777 243.412 271.208 243.764 270.732C244.115 270.257 244.548 269.889 245.062 269.629C245.577 269.368 246.163 269.238 246.82 269.238C247.439 269.238 247.979 269.368 248.441 269.629C248.91 269.889 249.307 270.26 249.633 270.742C249.965 271.217 250.232 271.781 250.434 272.432C250.635 273.076 250.782 273.783 250.873 274.551V275C250.782 275.736 250.635 276.419 250.434 277.051C250.232 277.682 249.965 278.236 249.633 278.711C249.307 279.18 248.91 279.544 248.441 279.805C247.973 280.065 247.426 280.195 246.801 280.195C246.143 280.195 245.557 280.062 245.043 279.795C244.535 279.528 244.105 279.154 243.754 278.672C243.409 278.19 243.145 277.624 242.963 276.973C242.781 276.322 242.689 275.612 242.689 274.844ZM245.502 274.639V274.844C245.502 275.28 245.535 275.687 245.6 276.064C245.671 276.442 245.785 276.777 245.941 277.07C246.104 277.357 246.312 277.581 246.566 277.744C246.827 277.9 247.143 277.979 247.514 277.979C247.995 277.979 248.393 277.871 248.705 277.656C249.018 277.435 249.255 277.132 249.418 276.748C249.587 276.364 249.685 275.921 249.711 275.42V274.141C249.691 273.73 249.633 273.363 249.535 273.037C249.444 272.705 249.307 272.422 249.125 272.188C248.949 271.953 248.728 271.771 248.461 271.641C248.201 271.51 247.891 271.445 247.533 271.445C247.169 271.445 246.856 271.53 246.596 271.699C246.335 271.862 246.124 272.087 245.961 272.373C245.805 272.66 245.688 272.998 245.609 273.389C245.538 273.773 245.502 274.189 245.502 274.639Z" fill="white"/>
<defs>
<clipPath id="clip0_1806_2629">
<rect width="94.54" height="91.9219" fill="white" transform="translate(140.52 95.3906)"/>
</clipPath>
</defs>
</svg>
