<svg width="375" height="296" viewBox="0 0 375 296" fill="none" xmlns="http://www.w3.org/2000/svg">
<rect width="377" height="296" transform="translate(-2)" fill="#1DACA5"/>
<path d="M186.734 239.233C237.155 239.233 278.029 198.491 278.029 148.234C278.029 97.976 237.155 57.2344 186.734 57.2344C136.314 57.2344 95.4399 97.976 95.4399 148.234C95.4399 198.491 136.314 239.233 186.734 239.233Z" fill="#F1F1F1"/>
<path d="M307.89 130.345V121.195C307.89 119.45 307.194 117.777 305.956 116.543C304.719 115.309 303.04 114.616 301.29 114.616H277.993C276.242 114.616 274.563 113.923 273.326 112.689C272.088 111.455 271.392 109.782 271.392 108.037V98.8872C271.392 97.1418 272.088 95.4687 273.326 94.235C274.563 93.0013 276.242 92.3081 277.993 92.3081H278.728C279.595 92.3081 280.453 92.1376 281.254 91.8075C282.055 91.4768 282.782 90.9917 283.396 90.3812C284.008 89.7701 284.495 89.0452 284.826 88.2468C285.158 87.4484 285.329 86.5928 285.329 85.729V76.5791C285.329 75.7148 285.158 74.8597 284.826 74.0613C284.495 73.2629 284.008 72.538 283.396 71.9269C282.782 71.3158 282.055 70.8313 281.254 70.5007C280.453 70.17 279.595 70 278.728 70H109.465C107.714 70 106.035 70.6932 104.797 71.9269C103.56 73.1606 102.864 74.8343 102.864 76.5791V85.729C102.864 86.5928 103.035 87.4484 103.367 88.2468C103.698 89.0452 104.185 89.7701 104.797 90.3812C105.41 90.9917 106.138 91.4768 106.939 91.8075C107.74 92.1376 108.598 92.3081 109.465 92.3081C110.332 92.3081 111.189 92.4781 111.99 92.8088C112.791 93.1395 113.519 93.6239 114.132 94.235C114.745 94.8461 115.231 95.571 115.563 96.3694C115.894 97.1673 116.065 98.0229 116.065 98.8872V108.037C116.065 108.901 115.894 109.757 115.563 110.555C115.231 111.353 114.745 112.078 114.132 112.689C113.519 113.3 112.791 113.784 111.99 114.115C111.189 114.446 110.332 114.616 109.465 114.616H83.9405C82.19 114.616 80.5115 115.309 79.2738 116.543C78.0361 117.777 77.3407 119.45 77.3407 121.195V130.345C77.3407 132.09 78.0361 133.763 79.2738 134.997C80.5115 136.231 82.19 136.924 83.9405 136.924H93.9559C94.8224 136.924 95.6808 137.094 96.4818 137.425C97.2822 137.756 98.0101 138.24 98.6232 138.851C99.2357 139.462 99.7223 140.187 100.054 140.985C100.385 141.783 100.556 142.639 100.556 143.503V152.653C100.556 153.517 100.385 154.373 100.054 155.171C99.7223 155.969 99.2357 156.694 98.6232 157.305C98.0101 157.916 97.2822 158.401 96.4818 158.731C95.6808 159.062 94.8224 159.232 93.9559 159.232H93.9316C93.065 159.232 92.2066 159.402 91.4057 159.733C90.6053 160.063 89.8774 160.548 89.2649 161.159C88.6518 161.77 88.1658 162.495 87.834 163.293C87.5023 164.092 87.3312 164.947 87.3312 165.811V174.961C87.3312 176.706 88.0266 178.379 89.2649 179.613C90.5026 180.847 92.1811 181.54 93.9316 181.54H95.3804C97.1314 181.54 98.8099 182.233 100.048 183.467C101.285 184.701 101.981 186.374 101.981 188.119V197.269C101.981 198.133 101.81 198.988 101.479 199.787C101.147 200.585 100.661 201.31 100.048 201.921C99.4352 202.532 98.7073 203.017 97.9063 203.347C97.1059 203.678 96.2475 203.848 95.3804 203.848H71.6004C69.85 203.848 68.1709 204.541 66.9331 205.775C65.6954 207.009 65 208.682 65 210.427V219.577C65 220.441 65.1705 221.296 65.5023 222.095C65.834 222.893 66.3201 223.618 66.9331 224.229C67.5462 224.84 68.2735 225.325 69.0745 225.655C69.8755 225.986 70.7333 226.156 71.6004 226.156H282.271C283.139 226.156 283.997 225.986 284.797 225.655C285.598 225.325 286.326 224.84 286.939 224.229C287.552 223.618 288.038 222.893 288.37 222.095C288.701 221.296 288.872 220.441 288.872 219.577V210.427C288.872 208.682 288.176 207.009 286.939 205.775C285.701 204.541 284.022 203.848 282.271 203.848H276.549C275.682 203.848 274.824 203.678 274.023 203.347C273.222 203.017 272.495 202.532 271.882 201.921C271.269 201.31 270.783 200.585 270.451 199.787C270.119 198.988 269.949 198.133 269.949 197.269V188.119C269.949 187.255 270.119 186.4 270.451 185.601C270.783 184.803 271.269 184.078 271.882 183.467C272.495 182.856 273.222 182.371 274.023 182.041C274.824 181.71 275.682 181.54 276.549 181.54H290.043C290.909 181.54 291.768 181.37 292.568 181.039C293.369 180.709 294.097 180.224 294.71 179.613C295.323 179.002 295.809 178.277 296.14 177.479C296.472 176.68 296.643 175.825 296.643 174.961V165.811C296.643 164.947 296.472 164.092 296.14 163.293C295.809 162.495 295.323 161.77 294.71 161.159C294.097 160.548 293.369 160.063 292.568 159.733C291.768 159.402 290.909 159.232 290.043 159.232H285.949C284.199 159.232 282.52 158.539 281.282 157.305C280.044 156.071 279.349 154.398 279.349 152.653V143.503C279.349 141.758 280.044 140.085 281.282 138.851C282.52 137.617 284.199 136.924 285.949 136.924H301.29C303.04 136.924 304.719 136.231 305.956 134.997C307.194 133.763 307.89 132.09 307.89 130.345Z" fill="#F1F1F1"/>
<path d="M178.983 230.35C183.135 230.35 186.5 226.996 186.5 222.857C186.5 218.719 183.135 215.365 178.983 215.365C174.831 215.365 171.466 218.719 171.466 222.857C171.466 226.996 174.831 230.35 178.983 230.35Z" fill="#FFCE1A"/>
<path d="M168.96 208.844C171.112 208.844 172.858 207.104 172.858 204.959C172.858 202.813 171.112 201.074 168.96 201.074C166.808 201.074 165.062 202.813 165.062 204.959C165.062 207.104 166.808 208.844 168.96 208.844Z" fill="#FFCE1A"/>
<path d="M194.456 214.394C197.531 214.394 200.024 211.909 200.024 208.844C200.024 205.778 197.531 203.294 194.456 203.294C191.381 203.294 188.888 205.778 188.888 208.844C188.888 211.909 191.381 214.394 194.456 214.394Z" fill="#FFCE1A"/>
<path d="M98.9949 188.64C103.934 188.64 107.938 184.649 107.938 179.725C107.938 174.802 103.934 170.811 98.9949 170.811C94.0556 170.811 90.0513 174.802 90.0513 179.725C90.0513 184.649 94.0556 188.64 98.9949 188.64Z" fill="#FFCE1A"/>
<path d="M81.9047 178.019C84.4775 178.019 86.5632 175.94 86.5632 173.376C86.5632 170.811 84.4775 168.732 81.9047 168.732C79.3318 168.732 77.2461 170.811 77.2461 173.376C77.2461 175.94 79.3318 178.019 81.9047 178.019Z" fill="#FFCE1A"/>
<path d="M86.1837 160.269C87.6679 160.269 88.8709 159.07 88.8709 157.591C88.8709 156.112 87.6679 154.913 86.1837 154.913C84.6995 154.913 83.4966 156.112 83.4966 157.591C83.4966 159.07 84.6995 160.269 86.1837 160.269Z" fill="#FFCE1A"/>
<path d="M101.059 165.907C104.616 165.907 107.501 163.032 107.501 159.486C107.501 155.94 104.616 153.065 101.059 153.065C97.5008 153.065 94.6165 155.94 94.6165 159.486C94.6165 163.032 97.5008 165.907 101.059 165.907Z" fill="#FFCE1A"/>
<path d="M241.844 95.3277C246.783 95.3277 250.787 91.3363 250.787 86.413C250.787 81.4897 246.783 77.4983 241.844 77.4983C236.904 77.4983 232.9 81.4897 232.9 86.413C232.9 91.3363 236.904 95.3277 241.844 95.3277Z" fill="#FFCE1A"/>
<path d="M242.207 72.8808C244.78 72.8808 246.865 70.8018 246.865 68.2372C246.865 65.6727 244.78 63.5938 242.207 63.5938C239.634 63.5938 237.548 65.6727 237.548 68.2372C237.548 70.8018 239.634 72.8808 242.207 72.8808Z" fill="#FFCE1A"/>
<path d="M273.236 74.9695C275.462 74.9695 277.268 73.1698 277.268 70.9504C277.268 68.7304 275.462 66.9313 273.236 66.9313C271.008 66.9313 269.203 68.7304 269.203 70.9504C269.203 73.1698 271.008 74.9695 273.236 74.9695Z" fill="#FFCE1A"/>
<path d="M258.566 69.7236C260.05 69.7236 261.253 68.5246 261.253 67.0452C261.253 65.5657 260.05 64.3667 258.566 64.3667C257.082 64.3667 255.879 65.5657 255.879 67.0452C255.879 68.5246 257.082 69.7236 258.566 69.7236Z" fill="#FFCE1A"/>
<path d="M261.689 88.0866C265.247 88.0866 268.131 85.2116 268.131 81.6654C268.131 78.1192 265.247 75.2441 261.689 75.2441C258.131 75.2441 255.247 78.1192 255.247 81.6654C255.247 85.2116 258.131 88.0866 261.689 88.0866Z" fill="#FFCE1A"/>
<g clip-path="url(#clip0_1806_2629)">
<path d="M199.538 116.642H174.064C173.483 116.642 172.926 116.872 172.516 117.281C172.105 117.69 171.875 118.244 171.874 118.823V175.218L171.582 175.307L165.333 177.213C165.036 177.303 164.717 177.273 164.443 177.128C164.17 176.983 163.965 176.736 163.874 176.441L145.286 115.96C145.195 115.665 145.226 115.346 145.371 115.074C145.517 114.801 145.765 114.597 146.061 114.507L155.691 111.57L183.609 103.058L193.239 100.121C193.386 100.076 193.54 100.06 193.692 100.074C193.845 100.089 193.993 100.133 194.129 100.205C194.264 100.276 194.384 100.374 194.482 100.492C194.579 100.609 194.653 100.745 194.697 100.891L199.449 116.351L199.538 116.642Z" fill="#E6E6E6"/>
<path d="M205.097 115.773L199.37 97.1409C199.275 96.8305 199.119 96.5418 198.912 96.2913C198.705 96.0409 198.45 95.8335 198.162 95.6812C197.874 95.5289 197.559 95.4346 197.235 95.4036C196.91 95.3726 196.583 95.4057 196.271 95.5008L182.732 99.6288L154.815 108.142L141.276 112.272C140.647 112.464 140.12 112.897 139.812 113.476C139.503 114.055 139.437 114.732 139.629 115.359L159.202 179.037C159.358 179.543 159.673 179.985 160.1 180.3C160.527 180.615 161.044 180.785 161.576 180.786C161.821 180.786 162.066 180.749 162.301 180.677L171.582 177.847L171.874 177.757V177.453L171.582 177.542L162.215 180.399C161.66 180.568 161.06 180.51 160.548 180.239C160.035 179.967 159.651 179.505 159.481 178.952L139.91 115.273C139.825 114.999 139.796 114.712 139.823 114.426C139.85 114.141 139.934 113.864 140.069 113.611C140.204 113.358 140.387 113.134 140.609 112.952C140.831 112.77 141.087 112.633 141.362 112.55L154.901 108.42L182.818 99.908L196.357 95.7785C196.566 95.7151 196.783 95.6827 197.001 95.6825C197.469 95.6836 197.925 95.8339 198.301 96.1115C198.677 96.3891 198.954 96.7795 199.092 97.2253L204.792 115.773L204.883 116.064H205.186L205.097 115.773Z" fill="#3F3D56"/>
<path d="M228.071 182.933H178.731C178.402 182.932 178.086 182.802 177.854 182.57C177.621 182.339 177.49 182.025 177.49 181.697V122.807C177.49 122.48 177.621 122.166 177.854 121.934C178.086 121.702 178.402 121.572 178.731 121.572H228.071C228.4 121.572 228.715 121.702 228.948 121.934C229.181 122.166 229.311 122.48 229.312 122.807V181.697C229.311 182.025 229.181 182.339 228.948 182.57C228.715 182.802 228.4 182.932 228.071 182.933Z" fill="#E6E6E6"/>
<line x1="181" y1="128.9" x2="222" y2="128.9" stroke="black" stroke-width="0.2"/>
<line x1="181" y1="133.9" x2="222" y2="133.9" stroke="black" stroke-width="0.2"/>
<line x1="181" y1="138.9" x2="222" y2="138.9" stroke="black" stroke-width="0.2"/>
<line x1="181" y1="143.9" x2="222" y2="143.9" stroke="black" stroke-width="0.2"/>
<line x1="181" y1="148.9" x2="222" y2="148.9" stroke="black" stroke-width="0.2"/>
<line x1="181" y1="153.9" x2="222" y2="153.9" stroke="black" stroke-width="0.2"/>
<line x1="181" y1="158.9" x2="222" y2="158.9" stroke="black" stroke-width="0.2"/>
<line x1="181" y1="163.9" x2="222" y2="163.9" stroke="black" stroke-width="0.2"/>
<line x1="181" y1="168.9" x2="222" y2="168.9" stroke="black" stroke-width="0.2"/>
<line x1="181" y1="173.9" x2="222" y2="173.9" stroke="black" stroke-width="0.2"/>
<line x1="181" y1="178.9" x2="222" y2="178.9" stroke="black" stroke-width="0.2"/>
<path d="M204.792 115.773H174.063C173.406 115.774 172.775 116.034 172.31 116.498C171.844 116.961 171.583 117.589 171.582 118.245V177.541L171.874 177.452V118.245C171.874 117.666 172.105 117.112 172.516 116.703C172.926 116.294 173.483 116.064 174.063 116.064H204.882L204.792 115.773ZM231.578 115.773H174.063C173.406 115.774 172.775 116.034 172.31 116.498C171.844 116.961 171.583 117.589 171.582 118.245V184.841C171.583 185.496 171.844 186.124 172.31 186.587C172.775 187.051 173.406 187.312 174.063 187.312H231.578C232.236 187.312 232.867 187.051 233.332 186.587C233.797 186.124 234.059 185.496 234.06 184.841V118.245C234.059 117.589 233.797 116.961 233.332 116.498C232.867 116.034 232.236 115.774 231.578 115.773ZM233.768 184.841C233.767 185.419 233.536 185.973 233.126 186.382C232.715 186.791 232.159 187.021 231.578 187.022H174.063C173.483 187.021 172.926 186.791 172.516 186.382C172.105 185.973 171.874 185.419 171.874 184.841V118.245C171.874 117.666 172.105 117.112 172.516 116.703C172.926 116.294 173.483 116.064 174.063 116.064H231.578C232.159 116.064 232.715 116.294 233.126 116.703C233.536 117.112 233.767 117.666 233.768 118.245V184.841Z" fill="#3F3D56"/>
</g>
<path d="M132.842 265.781V280H129.912L124.199 270.469V280H121.27V265.781H124.199L129.922 275.322V265.781H132.842ZM134.766 274.824V274.619C134.766 273.844 134.876 273.132 135.098 272.48C135.319 271.823 135.641 271.253 136.064 270.771C136.488 270.29 137.008 269.915 137.627 269.648C138.245 269.375 138.955 269.238 139.756 269.238C140.557 269.238 141.27 269.375 141.895 269.648C142.52 269.915 143.044 270.29 143.467 270.771C143.896 271.253 144.222 271.823 144.443 272.48C144.665 273.132 144.775 273.844 144.775 274.619V274.824C144.775 275.592 144.665 276.305 144.443 276.963C144.222 277.614 143.896 278.184 143.467 278.672C143.044 279.154 142.523 279.528 141.904 279.795C141.286 280.062 140.576 280.195 139.775 280.195C138.975 280.195 138.262 280.062 137.637 279.795C137.018 279.528 136.494 279.154 136.064 278.672C135.641 278.184 135.319 277.614 135.098 276.963C134.876 276.305 134.766 275.592 134.766 274.824ZM137.578 274.619V274.824C137.578 275.267 137.617 275.68 137.695 276.064C137.773 276.449 137.897 276.787 138.066 277.08C138.242 277.367 138.47 277.591 138.75 277.754C139.03 277.917 139.372 277.998 139.775 277.998C140.166 277.998 140.501 277.917 140.781 277.754C141.061 277.591 141.286 277.367 141.455 277.08C141.624 276.787 141.748 276.449 141.826 276.064C141.911 275.68 141.953 275.267 141.953 274.824V274.619C141.953 274.189 141.911 273.786 141.826 273.408C141.748 273.024 141.621 272.686 141.445 272.393C141.276 272.093 141.051 271.859 140.771 271.689C140.492 271.52 140.153 271.436 139.756 271.436C139.359 271.436 139.02 271.52 138.74 271.689C138.467 271.859 138.242 272.093 138.066 272.393C137.897 272.686 137.773 273.024 137.695 273.408C137.617 273.786 137.578 274.189 137.578 274.619ZM156.025 280H152.93L152.949 277.715H156.025C156.794 277.715 157.441 277.542 157.969 277.197C158.496 276.846 158.893 276.335 159.16 275.664C159.434 274.993 159.57 274.183 159.57 273.232V272.539C159.57 271.81 159.492 271.169 159.336 270.615C159.186 270.062 158.962 269.596 158.662 269.219C158.363 268.841 157.995 268.558 157.559 268.369C157.122 268.174 156.621 268.076 156.055 268.076H152.871V265.781H156.055C157.005 265.781 157.874 265.944 158.662 266.27C159.456 266.589 160.143 267.048 160.723 267.646C161.302 268.245 161.748 268.962 162.061 269.795C162.38 270.622 162.539 271.543 162.539 272.559V273.232C162.539 274.242 162.38 275.163 162.061 275.996C161.748 276.829 161.302 277.546 160.723 278.145C160.15 278.737 159.463 279.196 158.662 279.521C157.868 279.84 156.989 280 156.025 280ZM154.59 265.781V280H151.66V265.781H154.59ZM170.195 277.617V272.91C170.195 272.572 170.14 272.282 170.029 272.041C169.919 271.794 169.746 271.602 169.512 271.465C169.284 271.328 168.988 271.26 168.623 271.26C168.311 271.26 168.04 271.315 167.812 271.426C167.585 271.53 167.409 271.683 167.285 271.885C167.161 272.08 167.1 272.311 167.1 272.578H164.287C164.287 272.129 164.391 271.702 164.6 271.299C164.808 270.895 165.111 270.54 165.508 270.234C165.905 269.922 166.377 269.678 166.924 269.502C167.477 269.326 168.096 269.238 168.779 269.238C169.6 269.238 170.329 269.375 170.967 269.648C171.605 269.922 172.106 270.332 172.471 270.879C172.842 271.426 173.027 272.109 173.027 272.93V277.451C173.027 278.031 173.063 278.506 173.135 278.877C173.206 279.242 173.311 279.561 173.447 279.834V280H170.605C170.469 279.714 170.365 279.355 170.293 278.926C170.228 278.49 170.195 278.053 170.195 277.617ZM170.566 273.564L170.586 275.156H169.014C168.643 275.156 168.32 275.199 168.047 275.283C167.773 275.368 167.549 275.488 167.373 275.645C167.197 275.794 167.067 275.97 166.982 276.172C166.904 276.374 166.865 276.595 166.865 276.836C166.865 277.077 166.921 277.295 167.031 277.49C167.142 277.679 167.301 277.829 167.51 277.939C167.718 278.044 167.962 278.096 168.242 278.096C168.665 278.096 169.033 278.011 169.346 277.842C169.658 277.673 169.899 277.464 170.068 277.217C170.244 276.969 170.335 276.735 170.342 276.514L171.084 277.705C170.98 277.972 170.837 278.249 170.654 278.535C170.479 278.822 170.254 279.092 169.98 279.346C169.707 279.593 169.378 279.798 168.994 279.961C168.61 280.117 168.154 280.195 167.627 280.195C166.956 280.195 166.348 280.062 165.801 279.795C165.26 279.521 164.831 279.147 164.512 278.672C164.199 278.19 164.043 277.643 164.043 277.031C164.043 276.478 164.147 275.986 164.355 275.557C164.564 275.127 164.87 274.766 165.273 274.473C165.684 274.173 166.195 273.949 166.807 273.799C167.419 273.643 168.128 273.564 168.936 273.564H170.566ZM180.371 269.434V271.426H174.219V269.434H180.371ZM175.742 266.826H178.555V276.816C178.555 277.122 178.594 277.357 178.672 277.52C178.757 277.682 178.88 277.796 179.043 277.861C179.206 277.92 179.411 277.949 179.658 277.949C179.834 277.949 179.99 277.943 180.127 277.93C180.27 277.91 180.391 277.891 180.488 277.871L180.498 279.941C180.257 280.02 179.997 280.081 179.717 280.127C179.437 280.173 179.128 280.195 178.789 280.195C178.171 280.195 177.63 280.094 177.168 279.893C176.712 279.684 176.361 279.352 176.113 278.896C175.866 278.441 175.742 277.842 175.742 277.1V266.826ZM187.676 277.617V272.91C187.676 272.572 187.62 272.282 187.51 272.041C187.399 271.794 187.227 271.602 186.992 271.465C186.764 271.328 186.468 271.26 186.104 271.26C185.791 271.26 185.521 271.315 185.293 271.426C185.065 271.53 184.889 271.683 184.766 271.885C184.642 272.08 184.58 272.311 184.58 272.578H181.768C181.768 272.129 181.872 271.702 182.08 271.299C182.288 270.895 182.591 270.54 182.988 270.234C183.385 269.922 183.857 269.678 184.404 269.502C184.958 269.326 185.576 269.238 186.26 269.238C187.08 269.238 187.809 269.375 188.447 269.648C189.085 269.922 189.587 270.332 189.951 270.879C190.322 271.426 190.508 272.109 190.508 272.93V277.451C190.508 278.031 190.544 278.506 190.615 278.877C190.687 279.242 190.791 279.561 190.928 279.834V280H188.086C187.949 279.714 187.845 279.355 187.773 278.926C187.708 278.49 187.676 278.053 187.676 277.617ZM188.047 273.564L188.066 275.156H186.494C186.123 275.156 185.801 275.199 185.527 275.283C185.254 275.368 185.029 275.488 184.854 275.645C184.678 275.794 184.548 275.97 184.463 276.172C184.385 276.374 184.346 276.595 184.346 276.836C184.346 277.077 184.401 277.295 184.512 277.49C184.622 277.679 184.782 277.829 184.99 277.939C185.199 278.044 185.443 278.096 185.723 278.096C186.146 278.096 186.514 278.011 186.826 277.842C187.139 277.673 187.38 277.464 187.549 277.217C187.725 276.969 187.816 276.735 187.822 276.514L188.564 277.705C188.46 277.972 188.317 278.249 188.135 278.535C187.959 278.822 187.734 279.092 187.461 279.346C187.188 279.593 186.859 279.798 186.475 279.961C186.09 280.117 185.635 280.195 185.107 280.195C184.437 280.195 183.828 280.062 183.281 279.795C182.741 279.521 182.311 279.147 181.992 278.672C181.68 278.19 181.523 277.643 181.523 277.031C181.523 276.478 181.628 275.986 181.836 275.557C182.044 275.127 182.35 274.766 182.754 274.473C183.164 274.173 183.675 273.949 184.287 273.799C184.899 273.643 185.609 273.564 186.416 273.564H188.047ZM200.762 265.781V280H197.832V265.781H200.762ZM206.426 271.855V274.141H199.961V271.855H206.426ZM207.109 265.781V268.076H199.961V265.781H207.109ZM207.969 274.824V274.619C207.969 273.844 208.079 273.132 208.301 272.48C208.522 271.823 208.844 271.253 209.268 270.771C209.691 270.29 210.212 269.915 210.83 269.648C211.449 269.375 212.158 269.238 212.959 269.238C213.76 269.238 214.473 269.375 215.098 269.648C215.723 269.915 216.247 270.29 216.67 270.771C217.1 271.253 217.425 271.823 217.646 272.48C217.868 273.132 217.979 273.844 217.979 274.619V274.824C217.979 275.592 217.868 276.305 217.646 276.963C217.425 277.614 217.1 278.184 216.67 278.672C216.247 279.154 215.726 279.528 215.107 279.795C214.489 280.062 213.779 280.195 212.979 280.195C212.178 280.195 211.465 280.062 210.84 279.795C210.221 279.528 209.697 279.154 209.268 278.672C208.844 278.184 208.522 277.614 208.301 276.963C208.079 276.305 207.969 275.592 207.969 274.824ZM210.781 274.619V274.824C210.781 275.267 210.82 275.68 210.898 276.064C210.977 276.449 211.1 276.787 211.27 277.08C211.445 277.367 211.673 277.591 211.953 277.754C212.233 277.917 212.575 277.998 212.979 277.998C213.369 277.998 213.704 277.917 213.984 277.754C214.264 277.591 214.489 277.367 214.658 277.08C214.827 276.787 214.951 276.449 215.029 276.064C215.114 275.68 215.156 275.267 215.156 274.824V274.619C215.156 274.189 215.114 273.786 215.029 273.408C214.951 273.024 214.824 272.686 214.648 272.393C214.479 272.093 214.255 271.859 213.975 271.689C213.695 271.52 213.356 271.436 212.959 271.436C212.562 271.436 212.223 271.52 211.943 271.689C211.67 271.859 211.445 272.093 211.27 272.393C211.1 272.686 210.977 273.024 210.898 273.408C210.82 273.786 210.781 274.189 210.781 274.619ZM225.957 277.471V269.434H228.77V280H226.123L225.957 277.471ZM226.27 275.303L227.1 275.283C227.1 275.986 227.018 276.641 226.855 277.246C226.693 277.845 226.449 278.366 226.123 278.809C225.798 279.245 225.387 279.587 224.893 279.834C224.398 280.075 223.815 280.195 223.145 280.195C222.63 280.195 222.155 280.124 221.719 279.98C221.289 279.831 220.918 279.6 220.605 279.287C220.299 278.968 220.059 278.561 219.883 278.066C219.714 277.565 219.629 276.963 219.629 276.26V269.434H222.441V276.279C222.441 276.592 222.477 276.855 222.549 277.07C222.627 277.285 222.734 277.461 222.871 277.598C223.008 277.734 223.167 277.832 223.35 277.891C223.538 277.949 223.747 277.979 223.975 277.979C224.554 277.979 225.01 277.861 225.342 277.627C225.68 277.393 225.918 277.074 226.055 276.67C226.198 276.26 226.27 275.804 226.27 275.303ZM233.672 271.689V280H230.859V269.434H233.496L233.672 271.689ZM233.262 274.346H232.5C232.5 273.564 232.601 272.861 232.803 272.236C233.005 271.605 233.288 271.068 233.652 270.625C234.017 270.176 234.45 269.834 234.951 269.6C235.459 269.359 236.025 269.238 236.65 269.238C237.145 269.238 237.598 269.31 238.008 269.453C238.418 269.596 238.77 269.824 239.062 270.137C239.362 270.449 239.59 270.863 239.746 271.377C239.909 271.891 239.99 272.52 239.99 273.262V280H237.158V273.252C237.158 272.783 237.093 272.419 236.963 272.158C236.833 271.898 236.641 271.715 236.387 271.611C236.139 271.501 235.833 271.445 235.469 271.445C235.091 271.445 234.762 271.52 234.482 271.67C234.209 271.82 233.981 272.028 233.799 272.295C233.623 272.555 233.49 272.861 233.398 273.213C233.307 273.564 233.262 273.942 233.262 274.346ZM248.369 277.695V265H251.201V280H248.652L248.369 277.695ZM241.689 274.844V274.639C241.689 273.831 241.781 273.099 241.963 272.441C242.145 271.777 242.412 271.208 242.764 270.732C243.115 270.257 243.548 269.889 244.062 269.629C244.577 269.368 245.163 269.238 245.82 269.238C246.439 269.238 246.979 269.368 247.441 269.629C247.91 269.889 248.307 270.26 248.633 270.742C248.965 271.217 249.232 271.781 249.434 272.432C249.635 273.076 249.782 273.783 249.873 274.551V275C249.782 275.736 249.635 276.419 249.434 277.051C249.232 277.682 248.965 278.236 248.633 278.711C248.307 279.18 247.91 279.544 247.441 279.805C246.973 280.065 246.426 280.195 245.801 280.195C245.143 280.195 244.557 280.062 244.043 279.795C243.535 279.528 243.105 279.154 242.754 278.672C242.409 278.19 242.145 277.624 241.963 276.973C241.781 276.322 241.689 275.612 241.689 274.844ZM244.502 274.639V274.844C244.502 275.28 244.535 275.687 244.6 276.064C244.671 276.442 244.785 276.777 244.941 277.07C245.104 277.357 245.312 277.581 245.566 277.744C245.827 277.9 246.143 277.979 246.514 277.979C246.995 277.979 247.393 277.871 247.705 277.656C248.018 277.435 248.255 277.132 248.418 276.748C248.587 276.364 248.685 275.921 248.711 275.42V274.141C248.691 273.73 248.633 273.363 248.535 273.037C248.444 272.705 248.307 272.422 248.125 272.188C247.949 271.953 247.728 271.771 247.461 271.641C247.201 271.51 246.891 271.445 246.533 271.445C246.169 271.445 245.856 271.53 245.596 271.699C245.335 271.862 245.124 272.087 244.961 272.373C244.805 272.66 244.688 272.998 244.609 273.389C244.538 273.773 244.502 274.189 244.502 274.639Z" fill="white"/>
<defs>
<clipPath id="clip0_1806_2629">
<rect width="94.54" height="91.9219" fill="white" transform="translate(139.52 95.3906)"/>
</clipPath>
</defs>
</svg>
