<svg width="105" height="97" viewBox="0 0 105 97" fill="none" xmlns="http://www.w3.org/2000/svg">
<path d="M43.4036 21.8628C43.4136 19.6537 45.2035 17.8555 47.4126 17.8555H89.2821C90.36 17.8555 91.3923 18.2905 92.1451 19.062L97.7929 24.8504L103.014 30.4022C103.712 31.1441 104.1 32.1197 104.1 33.138C104.1 37.4878 104.1 50.4141 104.1 66.9162C104.1 79.6392 104.1 88.006 104.1 92.505C104.1 94.7252 102.292 96.519 100.072 96.5033L44.9718 96.1155C42.7737 96.1 40.9977 94.3113 41.0227 92.1133C41.2582 71.3636 43.2528 55.0976 43.4036 21.8628Z" fill="#1DACA5"/>
<path d="M93.8142 20.5934L93.8248 20.6043L93.8356 20.6149L100.088 26.7112C100.82 27.4252 101.248 28.3831 101.287 29.3997C101.487 34.6175 102 49.0465 102 59.5C102 68.6617 101.606 82.0654 101.374 89.1597C101.304 91.3045 99.5439 93 97.3892 93H45.715C43.4045 93 41.5689 91.0411 41.707 88.7233C42.9462 67.9161 42.9985 51.0881 41.5988 18.0513C41.502 15.7679 43.3252 13.8555 45.5996 13.8555H85.6128C86.6983 13.8555 87.7372 14.2966 88.491 15.0777L93.8142 20.5934Z" fill="white" stroke="#1DACA5" stroke-width="2"/>
<path d="M93.3878 20.5046L93.3954 20.5126L93.4033 20.5202L100.657 27.4951C100.982 27.8071 100.761 28.3555 100.311 28.3555H90.7933C88.8603 28.3555 87.2933 26.7885 87.2933 24.8555V15.3555C87.2933 14.9041 87.8441 14.6838 88.1554 15.0106L93.3878 20.5046Z" fill="#1DACA5" stroke="#1DACA5"/>
<circle cx="29.3808" cy="29.3809" r="24.7654" transform="rotate(-12.0228 29.3808 29.3809)" fill="#FFCE1A"/>
<path d="M57.8363 52.6133C58.2499 53.3921 57.5263 54.2861 56.6784 54.0439L40.7804 49.5019C40.0912 49.305 39.8269 48.4683 40.2778 47.9112L48.4212 37.8504C48.8721 37.2932 49.7455 37.3775 50.0816 38.0105L57.8363 52.6133Z" fill="#FFCE1A"/>
<path d="M26.8411 15.0825C26.6922 13.3405 28.066 11.8442 29.8144 11.8442V11.8442C31.5225 11.8442 32.882 13.2753 32.7945 14.9812L31.9827 30.812C31.9309 31.8225 31.0965 32.6152 30.0847 32.6152V32.6152C29.0978 32.6152 28.2751 31.8598 28.191 30.8765L26.8411 15.0825Z" fill="white"/>
<circle cx="30.5588" cy="39.8052" r="3.99442" fill="white"/>
</svg>
