<svg width="377" height="296" viewBox="0 0 377 296" fill="none" xmlns="http://www.w3.org/2000/svg">
<mask id="path-1-inside-1_2351_13749" fill="white">
<path fill-rule="evenodd" clip-rule="evenodd" d="M235.912 226.156C222.144 234.456 205.999 239.233 188.734 239.233C171.47 239.233 155.325 234.456 141.556 226.156H73.6004C72.7333 226.156 71.8755 225.986 71.0745 225.655C70.2735 225.325 69.5462 224.84 68.9331 224.229C68.3201 223.618 67.834 222.893 67.5023 222.095C67.1705 221.296 67 220.441 67 219.577V210.427C67 208.682 67.6954 207.009 68.9331 205.775C70.1709 204.541 71.85 203.848 73.6004 203.848H97.3804C98.2475 203.848 99.1059 203.678 99.9063 203.347C100.707 203.017 101.435 202.532 102.048 201.921C102.661 201.31 103.147 200.585 103.479 199.787C103.81 198.988 103.981 198.133 103.981 197.269V188.119C103.981 186.374 103.285 184.701 102.048 183.467C100.81 182.233 99.1314 181.54 97.3804 181.54H95.9316C94.1811 181.54 92.5026 180.847 91.2649 179.613C90.0266 178.379 89.3312 176.706 89.3312 174.961V165.811C89.3312 164.947 89.5023 164.092 89.834 163.293C90.1658 162.495 90.6518 161.77 91.2649 161.159C91.8774 160.548 92.6053 160.063 93.4057 159.733C94.2066 159.402 95.065 159.232 95.9316 159.232H95.9559C96.6718 159.232 97.3822 159.116 98.0592 158.889C97.6502 155.394 97.4399 151.838 97.4399 148.234C97.4399 144.526 97.6624 140.87 98.0947 137.279C97.407 137.044 96.6843 136.924 95.9559 136.924H85.9405C84.19 136.924 82.5115 136.231 81.2738 134.997C80.0361 133.763 79.3407 132.09 79.3407 130.345V121.195C79.3407 119.45 80.0361 117.777 81.2738 116.543C82.5115 115.309 84.19 114.616 85.9405 114.616H103.872C106.862 107.123 110.823 100.119 115.599 93.7583C115.111 93.3681 114.57 93.0481 113.99 92.8088C113.189 92.4781 112.332 92.3081 111.465 92.3081C110.598 92.3081 109.74 92.1376 108.939 91.8075C108.138 91.4768 107.41 90.9917 106.797 90.3812C106.185 89.7701 105.698 89.0452 105.367 88.2468C105.035 87.4484 104.864 86.5928 104.864 85.729V76.5791C104.864 74.8343 105.56 73.1606 106.797 71.9269C108.035 70.6932 109.714 70 111.465 70H142.076C155.73 61.8919 171.687 57.2344 188.734 57.2344C205.782 57.2344 221.738 61.8919 235.392 70H280.728C281.595 70 282.453 70.17 283.254 70.5007C284.055 70.8313 284.782 71.3158 285.396 71.9269C286.008 72.538 286.495 73.2629 286.826 74.0613C287.158 74.8597 287.329 75.7148 287.329 76.5791V85.729C287.329 86.5928 287.158 87.4484 286.826 88.2468C286.495 89.0452 286.008 89.7701 285.396 90.3812C284.782 90.9917 284.055 91.4768 283.254 91.8075C282.453 92.1376 281.595 92.3081 280.728 92.3081H279.993C278.242 92.3081 276.563 93.0013 275.326 94.235C274.088 95.4687 273.392 97.1418 273.392 98.8872V108.037C273.392 109.782 274.088 111.455 275.326 112.689C276.563 113.923 278.242 114.616 279.993 114.616H303.29C305.04 114.616 306.719 115.309 307.956 116.543C309.194 117.777 309.89 119.45 309.89 121.195V130.345C309.89 132.09 309.194 133.763 307.956 134.997C306.719 136.231 305.04 136.924 303.29 136.924H287.949C286.199 136.924 284.52 137.617 283.282 138.851C282.044 140.085 281.349 141.758 281.349 143.503V152.653C281.349 154.398 282.044 156.071 283.282 157.305C284.52 158.539 286.199 159.232 287.949 159.232H292.043C292.909 159.232 293.768 159.402 294.568 159.733C295.369 160.063 296.097 160.548 296.71 161.159C297.323 161.77 297.809 162.495 298.14 163.293C298.472 164.092 298.643 164.947 298.643 165.811V174.961C298.643 175.825 298.472 176.68 298.14 177.479C297.809 178.277 297.323 179.002 296.71 179.613C296.097 180.224 295.369 180.709 294.568 181.039C293.768 181.37 292.909 181.54 292.043 181.54H278.549C277.682 181.54 276.824 181.71 276.023 182.041C275.222 182.371 274.495 182.856 273.882 183.467C273.269 184.078 272.783 184.803 272.451 185.601C272.119 186.4 271.949 187.255 271.949 188.119V197.269C271.949 198.133 272.119 198.988 272.451 199.787C272.783 200.585 273.269 201.31 273.882 201.921C274.495 202.532 275.222 203.017 276.023 203.347C276.824 203.678 277.682 203.848 278.549 203.848H284.271C286.022 203.848 287.701 204.541 288.939 205.775C290.176 207.009 290.872 208.682 290.872 210.427V219.577C290.872 220.441 290.701 221.296 290.37 222.095C290.038 222.893 289.552 223.618 288.939 224.229C288.326 224.84 287.598 225.325 286.797 225.655C285.997 225.986 285.139 226.156 284.271 226.156H235.912Z"/>
</mask>
<path fill-rule="evenodd" clip-rule="evenodd" d="M235.912 226.156C222.144 234.456 205.999 239.233 188.734 239.233C171.47 239.233 155.325 234.456 141.556 226.156H73.6004C72.7333 226.156 71.8755 225.986 71.0745 225.655C70.2735 225.325 69.5462 224.84 68.9331 224.229C68.3201 223.618 67.834 222.893 67.5023 222.095C67.1705 221.296 67 220.441 67 219.577V210.427C67 208.682 67.6954 207.009 68.9331 205.775C70.1709 204.541 71.85 203.848 73.6004 203.848H97.3804C98.2475 203.848 99.1059 203.678 99.9063 203.347C100.707 203.017 101.435 202.532 102.048 201.921C102.661 201.31 103.147 200.585 103.479 199.787C103.81 198.988 103.981 198.133 103.981 197.269V188.119C103.981 186.374 103.285 184.701 102.048 183.467C100.81 182.233 99.1314 181.54 97.3804 181.54H95.9316C94.1811 181.54 92.5026 180.847 91.2649 179.613C90.0266 178.379 89.3312 176.706 89.3312 174.961V165.811C89.3312 164.947 89.5023 164.092 89.834 163.293C90.1658 162.495 90.6518 161.77 91.2649 161.159C91.8774 160.548 92.6053 160.063 93.4057 159.733C94.2066 159.402 95.065 159.232 95.9316 159.232H95.9559C96.6718 159.232 97.3822 159.116 98.0592 158.889C97.6502 155.394 97.4399 151.838 97.4399 148.234C97.4399 144.526 97.6624 140.87 98.0947 137.279C97.407 137.044 96.6843 136.924 95.9559 136.924H85.9405C84.19 136.924 82.5115 136.231 81.2738 134.997C80.0361 133.763 79.3407 132.09 79.3407 130.345V121.195C79.3407 119.45 80.0361 117.777 81.2738 116.543C82.5115 115.309 84.19 114.616 85.9405 114.616H103.872C106.862 107.123 110.823 100.119 115.599 93.7583C115.111 93.3681 114.57 93.0481 113.99 92.8088C113.189 92.4781 112.332 92.3081 111.465 92.3081C110.598 92.3081 109.74 92.1376 108.939 91.8075C108.138 91.4768 107.41 90.9917 106.797 90.3812C106.185 89.7701 105.698 89.0452 105.367 88.2468C105.035 87.4484 104.864 86.5928 104.864 85.729V76.5791C104.864 74.8343 105.56 73.1606 106.797 71.9269C108.035 70.6932 109.714 70 111.465 70H142.076C155.73 61.8919 171.687 57.2344 188.734 57.2344C205.782 57.2344 221.738 61.8919 235.392 70H280.728C281.595 70 282.453 70.17 283.254 70.5007C284.055 70.8313 284.782 71.3158 285.396 71.9269C286.008 72.538 286.495 73.2629 286.826 74.0613C287.158 74.8597 287.329 75.7148 287.329 76.5791V85.729C287.329 86.5928 287.158 87.4484 286.826 88.2468C286.495 89.0452 286.008 89.7701 285.396 90.3812C284.782 90.9917 284.055 91.4768 283.254 91.8075C282.453 92.1376 281.595 92.3081 280.728 92.3081H279.993C278.242 92.3081 276.563 93.0013 275.326 94.235C274.088 95.4687 273.392 97.1418 273.392 98.8872V108.037C273.392 109.782 274.088 111.455 275.326 112.689C276.563 113.923 278.242 114.616 279.993 114.616H303.29C305.04 114.616 306.719 115.309 307.956 116.543C309.194 117.777 309.89 119.45 309.89 121.195V130.345C309.89 132.09 309.194 133.763 307.956 134.997C306.719 136.231 305.04 136.924 303.29 136.924H287.949C286.199 136.924 284.52 137.617 283.282 138.851C282.044 140.085 281.349 141.758 281.349 143.503V152.653C281.349 154.398 282.044 156.071 283.282 157.305C284.52 158.539 286.199 159.232 287.949 159.232H292.043C292.909 159.232 293.768 159.402 294.568 159.733C295.369 160.063 296.097 160.548 296.71 161.159C297.323 161.77 297.809 162.495 298.14 163.293C298.472 164.092 298.643 164.947 298.643 165.811V174.961C298.643 175.825 298.472 176.68 298.14 177.479C297.809 178.277 297.323 179.002 296.71 179.613C296.097 180.224 295.369 180.709 294.568 181.039C293.768 181.37 292.909 181.54 292.043 181.54H278.549C277.682 181.54 276.824 181.71 276.023 182.041C275.222 182.371 274.495 182.856 273.882 183.467C273.269 184.078 272.783 184.803 272.451 185.601C272.119 186.4 271.949 187.255 271.949 188.119V197.269C271.949 198.133 272.119 198.988 272.451 199.787C272.783 200.585 273.269 201.31 273.882 201.921C274.495 202.532 275.222 203.017 276.023 203.347C276.824 203.678 277.682 203.848 278.549 203.848H284.271C286.022 203.848 287.701 204.541 288.939 205.775C290.176 207.009 290.872 208.682 290.872 210.427V219.577C290.872 220.441 290.701 221.296 290.37 222.095C290.038 222.893 289.552 223.618 288.939 224.229C288.326 224.84 287.598 225.325 286.797 225.655C285.997 225.986 285.139 226.156 284.271 226.156H235.912Z" fill="#F1F1F1"/>
<path d="M235.912 226.156V225.156H235.634L235.396 225.3L235.912 226.156ZM141.556 226.156L142.073 225.3L141.835 225.156H141.556V226.156ZM71.0745 225.655L71.4561 224.731L71.4555 224.73L71.0745 225.655ZM68.9331 224.229L68.2272 224.938L68.2275 224.938L68.9331 224.229ZM67.5023 222.095L66.5788 222.479L66.5789 222.479L67.5023 222.095ZM99.9063 203.347L99.5247 202.423L99.5245 202.423L99.9063 203.347ZM102.048 201.921L101.342 201.213L101.341 201.213L102.048 201.921ZM103.479 199.787L102.555 199.403L102.555 199.403L103.479 199.787ZM91.2649 179.613L91.9708 178.905L91.9707 178.905L91.2649 179.613ZM89.834 163.293L88.9107 162.909L88.9106 162.909L89.834 163.293ZM91.2649 161.159L90.5589 160.451L90.5589 160.451L91.2649 161.159ZM93.4057 159.733L93.7869 160.658L93.7873 160.657L93.4057 159.733ZM98.0592 158.889L98.3768 159.837L99.1468 159.579L99.0524 158.773L98.0592 158.889ZM98.0947 137.279L99.0875 137.399L99.1843 136.595L98.4178 136.333L98.0947 137.279ZM81.2738 134.997L81.9799 134.289L81.9798 134.289L81.2738 134.997ZM81.2738 116.543L80.5678 115.835L81.2738 116.543ZM103.872 114.616V115.616H104.549L104.801 114.987L103.872 114.616ZM115.599 93.7583L116.398 94.3587L116.98 93.5837L116.224 92.9778L115.599 93.7583ZM113.99 92.8088L113.609 93.7331L113.99 92.8088ZM108.939 91.8075L108.557 92.7317L108.558 92.732L108.939 91.8075ZM106.797 90.3812L106.091 91.0891L106.092 91.0898L106.797 90.3812ZM105.367 88.2468L106.291 87.8636L106.29 87.8631L105.367 88.2468ZM106.797 71.9269L106.091 71.2186L106.091 71.2186L106.797 71.9269ZM142.076 70V71H142.351L142.587 70.8598L142.076 70ZM235.392 70L234.882 70.8598L235.118 71H235.392V70ZM283.254 70.5007L283.636 69.5764L283.636 69.5763L283.254 70.5007ZM285.396 71.9269L286.102 71.219L286.101 71.2186L285.396 71.9269ZM286.826 74.0613L285.902 74.4445L285.902 74.445L286.826 74.0613ZM286.826 88.2468L285.902 87.8631L285.902 87.8636L286.826 88.2468ZM285.396 90.3812L286.101 91.0898L286.102 91.0891L285.396 90.3812ZM283.254 91.8075L283.635 92.732L283.636 92.7317L283.254 91.8075ZM275.326 112.689L274.619 113.397L274.62 113.398L275.326 112.689ZM307.956 134.997L307.25 134.289L307.25 134.289L307.956 134.997ZM283.282 138.851L282.576 138.142L282.576 138.143L283.282 138.851ZM283.282 157.305L282.576 158.013L282.576 158.013L283.282 157.305ZM294.568 159.733L294.186 160.657L294.187 160.658L294.568 159.733ZM296.71 161.159L297.416 160.451L297.416 160.45L296.71 161.159ZM298.14 163.293L299.064 162.909L299.064 162.909L298.14 163.293ZM298.14 177.479L299.064 177.862V177.862L298.14 177.479ZM296.71 179.613L296.004 178.905L296.003 178.905L296.71 179.613ZM294.568 181.039L294.187 180.115L294.186 180.115L294.568 181.039ZM276.023 182.041L276.405 182.965L276.405 182.965L276.023 182.041ZM273.882 183.467L273.176 182.759V182.759L273.882 183.467ZM272.451 185.601L273.375 185.985L272.451 185.601ZM272.451 199.787L273.375 199.403V199.403L272.451 199.787ZM273.882 201.921L274.588 201.213L273.882 201.921ZM276.023 203.347L276.405 202.423L276.405 202.423L276.023 203.347ZM288.939 205.775L288.233 206.483L288.939 205.775ZM290.37 222.095L291.293 222.479L291.293 222.479L290.37 222.095ZM288.939 224.229L289.644 224.938L289.645 224.938L288.939 224.229ZM286.797 225.655L286.416 224.73L286.416 224.731L286.797 225.655ZM188.734 240.233C206.186 240.233 222.509 235.404 236.428 227.013L235.396 225.3C221.779 233.508 205.812 238.233 188.734 238.233V240.233ZM141.04 227.013C154.96 235.404 171.283 240.233 188.734 240.233V238.233C171.657 238.233 155.689 233.508 142.073 225.3L141.04 227.013ZM73.6004 227.156H141.556V225.156H73.6004V227.156ZM70.6929 226.579C71.6146 226.96 72.6021 227.156 73.6004 227.156V225.156C72.8645 225.156 72.1363 225.011 71.4561 224.731L70.6929 226.579ZM68.2275 224.938C68.9331 225.641 69.7706 226.199 70.6935 226.58L71.4555 224.73C70.7765 224.451 70.1593 224.039 69.6388 223.521L68.2275 224.938ZM66.5789 222.479C66.9611 223.398 67.521 224.234 68.2272 224.938L69.6391 223.521C69.1192 223.003 68.707 222.387 68.4256 221.711L66.5789 222.479ZM66 219.577C66 220.572 66.1965 221.559 66.5788 222.479L68.4257 221.711C68.1445 221.034 68 220.309 68 219.577H66ZM66 210.427V219.577H68V210.427H66ZM68.2272 205.067C66.8015 206.488 66 208.416 66 210.427H68C68 208.949 68.5893 207.53 69.6391 206.483L68.2272 205.067ZM73.6004 202.848C71.5858 202.848 69.6527 203.646 68.2272 205.067L69.6391 206.483C70.689 205.437 72.1141 204.848 73.6004 204.848V202.848ZM97.3804 202.848H73.6004V204.848H97.3804V202.848ZM99.5245 202.423C98.8455 202.704 98.1169 202.848 97.3804 202.848V204.848C98.3781 204.848 99.3663 204.653 100.288 204.272L99.5245 202.423ZM101.341 201.213C100.822 201.731 100.205 202.142 99.5247 202.423L100.288 204.272C101.21 203.891 102.048 203.333 102.754 202.629L101.341 201.213ZM102.555 199.403C102.274 200.08 101.862 200.695 101.342 201.213L102.754 202.629C103.46 201.926 104.02 201.09 104.402 200.17L102.555 199.403ZM102.981 197.269C102.981 198.002 102.836 198.726 102.555 199.403L104.402 200.17C104.784 199.25 104.981 198.265 104.981 197.269H102.981ZM102.981 188.119V197.269H104.981V188.119H102.981ZM101.342 184.175C102.392 185.222 102.981 186.64 102.981 188.119H104.981C104.981 186.108 104.179 184.18 102.754 182.759L101.342 184.175ZM97.3804 182.54C98.8672 182.54 100.292 183.129 101.342 184.175L102.754 182.759C101.328 181.338 99.3956 180.54 97.3804 180.54V182.54ZM95.9316 182.54H97.3804V180.54H95.9316V182.54ZM90.5589 180.321C91.9844 181.742 93.9169 182.54 95.9316 182.54V180.54C94.4453 180.54 93.0208 179.951 91.9708 178.905L90.5589 180.321ZM88.3312 174.961C88.3312 176.972 89.1327 178.9 90.5591 180.322L91.9707 178.905C90.9204 177.858 90.3312 176.439 90.3312 174.961H88.3312ZM88.3312 165.811V174.961H90.3312V165.811H88.3312ZM88.9106 162.909C88.5284 163.829 88.3312 164.815 88.3312 165.811H90.3312C90.3312 165.079 90.4761 164.354 90.7575 163.677L88.9106 162.909ZM90.5589 160.451C89.8527 161.154 89.2928 161.99 88.9107 162.909L90.7574 163.677C91.0387 163.001 91.4509 162.385 91.9708 161.867L90.5589 160.451ZM93.0244 158.809C92.1025 159.189 91.2643 159.747 90.5589 160.451L91.9708 161.867C92.4904 161.349 93.108 160.938 93.7869 160.658L93.0244 158.809ZM95.9316 158.232C94.9339 158.232 93.9458 158.428 93.0241 158.809L93.7873 160.657C94.4675 160.377 95.1962 160.232 95.9316 160.232V158.232ZM95.9559 158.232H95.9316V160.232H95.9559V158.232ZM97.7415 157.941C97.1669 158.133 96.5638 158.232 95.9559 158.232V160.232C96.7798 160.232 97.5975 160.098 98.3768 159.837L97.7415 157.941ZM96.4399 148.234C96.4399 151.877 96.6525 155.472 97.0659 159.005L99.0524 158.773C98.6479 155.316 98.4399 151.799 98.4399 148.234H96.4399ZM97.1018 137.16C96.6648 140.791 96.4399 144.486 96.4399 148.234H98.4399C98.4399 144.566 98.66 140.95 99.0875 137.399L97.1018 137.16ZM95.9559 137.924C96.574 137.924 97.1875 138.026 97.7715 138.225L98.4178 136.333C97.6265 136.063 96.7946 135.924 95.9559 135.924V137.924ZM85.9405 137.924H95.9559V135.924H85.9405V137.924ZM80.5677 135.705C81.9934 137.127 83.926 137.924 85.9405 137.924V135.924C84.4541 135.924 83.0297 135.336 81.9799 134.289L80.5677 135.705ZM78.3407 130.345C78.3407 132.356 79.1423 134.284 80.5678 135.705L81.9798 134.289C80.9299 133.242 80.3407 131.824 80.3407 130.345H78.3407ZM78.3407 121.195V130.345H80.3407V121.195H78.3407ZM80.5678 115.835C79.1423 117.256 78.3407 119.184 78.3407 121.195H80.3407C80.3407 119.716 80.9299 118.298 81.9798 117.251L80.5678 115.835ZM85.9405 113.616C83.9258 113.616 81.9933 114.414 80.5678 115.835L81.9798 117.251C83.0297 116.205 84.4543 115.616 85.9405 115.616V113.616ZM103.872 113.616H85.9405V115.616H103.872V113.616ZM114.799 93.1578C109.971 99.5877 105.967 106.669 102.943 114.246L104.801 114.987C107.758 107.576 111.675 100.649 116.398 94.3587L114.799 93.1578ZM113.609 93.7331C114.101 93.9363 114.56 94.2078 114.973 94.5388L116.224 92.9778C115.663 92.5284 115.039 92.16 114.372 91.8844L113.609 93.7331ZM111.465 93.3081C112.201 93.3081 112.929 93.4524 113.609 93.7331L114.372 91.8844C113.45 91.5037 112.462 91.3081 111.465 91.3081V93.3081ZM108.558 92.732C109.479 93.1118 110.467 93.3081 111.465 93.3081V91.3081C110.729 91.3081 110 91.1634 109.32 90.8829L108.558 92.732ZM106.092 91.0898C106.797 91.7926 107.635 92.351 108.557 92.7317L109.32 90.8832C108.641 90.6026 108.023 90.1908 107.503 89.6726L106.092 91.0898ZM104.443 88.6299C104.825 89.5507 105.386 90.3858 106.091 91.0891L107.504 89.6733C106.984 89.1545 106.571 88.5396 106.291 87.8636L104.443 88.6299ZM103.864 85.729C103.864 86.7248 104.061 87.7108 104.444 88.6305L106.29 87.8631C106.009 87.1859 105.864 86.4607 105.864 85.729H103.864ZM103.864 76.5791V85.729H105.864V76.5791H103.864ZM106.091 71.2186C104.666 72.6397 103.864 74.5681 103.864 76.5791H105.864C105.864 75.1005 106.453 73.6815 107.503 72.6351L106.091 71.2186ZM111.465 69C109.45 69 107.517 69.7977 106.091 71.2186L107.503 72.6351C108.553 71.5886 109.978 71 111.465 71V69ZM142.076 69H111.465V71H142.076V69ZM188.734 56.2344C171.502 56.2344 155.37 60.9428 141.566 69.1402L142.587 70.8598C156.09 62.841 171.871 58.2344 188.734 58.2344V56.2344ZM235.903 69.1402C222.099 60.9428 205.966 56.2344 188.734 56.2344V58.2344C205.598 58.2344 221.378 62.841 234.882 70.8598L235.903 69.1402ZM280.728 69H235.392V71H280.728V69ZM283.636 69.5763C282.714 69.1956 281.726 69 280.728 69V71C281.464 71 282.193 71.1443 282.873 71.425L283.636 69.5763ZM286.101 71.2186C285.395 70.5147 284.557 69.957 283.636 69.5764L282.872 71.4249C283.552 71.7057 284.17 72.1169 284.69 72.6351L286.101 71.2186ZM287.749 73.6782C287.368 72.7574 286.807 71.9223 286.102 71.219L284.689 72.6348C285.209 73.1536 285.622 73.7685 285.902 74.4445L287.749 73.6782ZM288.329 76.5791C288.329 75.5826 288.131 74.5972 287.749 73.6776L285.902 74.445C286.184 75.1222 286.329 75.8469 286.329 76.5791H288.329ZM288.329 85.729V76.5791H286.329V85.729H288.329ZM287.749 88.6305C288.131 87.7108 288.329 86.7248 288.329 85.729H286.329C286.329 86.4607 286.184 87.1859 285.902 87.8631L287.749 88.6305ZM286.102 91.0891C286.807 90.3858 287.368 89.5507 287.749 88.6299L285.902 87.8636C285.622 88.5396 285.209 89.1545 284.689 89.6733L286.102 91.0891ZM283.636 92.7317C284.557 92.351 285.395 91.7926 286.101 91.0898L284.69 89.6726C284.17 90.1908 283.552 90.6026 282.872 90.8832L283.636 92.7317ZM280.728 93.3081C281.726 93.3081 282.714 93.1118 283.635 92.732L282.873 90.8829C282.193 91.1634 281.464 91.3081 280.728 91.3081V93.3081ZM279.993 93.3081H280.728V91.3081H279.993V93.3081ZM276.032 94.9432C277.081 93.8967 278.507 93.3081 279.993 93.3081V91.3081C277.978 91.3081 276.045 92.1058 274.62 93.5268L276.032 94.9432ZM274.392 98.8872C274.392 97.4081 274.982 95.9897 276.032 94.9432L274.62 93.5268C273.194 94.9477 272.392 96.8755 272.392 98.8872H274.392ZM274.392 108.037V98.8872H272.392V108.037H274.392ZM276.032 111.981C274.982 110.934 274.392 109.516 274.392 108.037H272.392C272.392 110.048 273.194 111.976 274.619 113.397L276.032 111.981ZM279.993 113.616C278.507 113.616 277.081 113.028 276.032 111.981L274.62 113.398C276.045 114.819 277.978 115.616 279.993 115.616V113.616ZM303.29 113.616H279.993V115.616H303.29V113.616ZM308.662 115.835C307.237 114.414 305.304 113.616 303.29 113.616V115.616C304.776 115.616 306.2 116.205 307.25 117.251L308.662 115.835ZM310.89 121.195C310.89 119.184 310.088 117.256 308.662 115.835L307.25 117.251C308.3 118.298 308.89 119.716 308.89 121.195H310.89ZM310.89 130.345V121.195H308.89V130.345H310.89ZM308.662 135.705C310.088 134.284 310.89 132.356 310.89 130.345H308.89C308.89 131.824 308.3 133.242 307.25 134.289L308.662 135.705ZM303.29 137.924C305.304 137.924 307.237 137.127 308.662 135.705L307.25 134.289C306.2 135.336 304.776 135.924 303.29 135.924V137.924ZM287.949 137.924H303.29V135.924H287.949V137.924ZM283.988 139.559C285.038 138.512 286.463 137.924 287.949 137.924V135.924C285.935 135.924 284.002 136.722 282.576 138.142L283.988 139.559ZM282.349 143.503C282.349 142.024 282.938 140.606 283.988 139.559L282.576 138.143C281.15 139.564 280.349 141.492 280.349 143.503H282.349ZM282.349 152.653V143.503H280.349V152.653H282.349ZM283.988 156.597C282.938 155.55 282.349 154.132 282.349 152.653H280.349C280.349 154.664 281.15 156.592 282.576 158.013L283.988 156.597ZM287.949 158.232C286.463 158.232 285.038 157.643 283.988 156.597L282.576 158.013C284.002 159.434 285.935 160.232 287.949 160.232V158.232ZM292.043 158.232H287.949V160.232H292.043V158.232ZM294.95 158.809C294.029 158.428 293.041 158.232 292.043 158.232V160.232C292.778 160.232 293.507 160.377 294.186 160.657L294.95 158.809ZM297.416 160.45C296.71 159.747 295.872 159.189 294.949 158.809L294.187 160.658C294.867 160.938 295.484 161.349 296.004 161.867L297.416 160.45ZM299.064 162.909C298.682 161.99 298.122 161.154 297.416 160.451L296.004 161.867C296.524 162.385 296.936 163.001 297.217 163.677L299.064 162.909ZM299.643 165.811C299.643 164.816 299.446 163.83 299.064 162.909L297.217 163.677C297.498 164.354 297.643 165.079 297.643 165.811H299.643ZM299.643 174.961V165.811H297.643V174.961H299.643ZM299.064 177.862C299.446 176.942 299.643 175.957 299.643 174.961H297.643C297.643 175.694 297.498 176.418 297.217 177.095L299.064 177.862ZM297.416 180.321C298.122 179.618 298.682 178.782 299.064 177.862L297.217 177.095C296.936 177.772 296.524 178.386 296.004 178.905L297.416 180.321ZM294.95 181.964C295.872 181.583 296.71 181.025 297.416 180.321L296.003 178.905C295.484 179.423 294.867 179.834 294.187 180.115L294.95 181.964ZM292.043 182.54C293.04 182.54 294.028 182.344 294.95 181.964L294.186 180.115C293.507 180.396 292.779 180.54 292.043 180.54V182.54ZM278.549 182.54H292.043V180.54H278.549V182.54ZM276.405 182.965C277.084 182.684 277.813 182.54 278.549 182.54V180.54C277.551 180.54 276.563 180.736 275.641 181.116L276.405 182.965ZM274.588 184.175C275.108 183.657 275.725 183.246 276.405 182.965L275.642 181.116C274.72 181.497 273.882 182.055 273.176 182.759L274.588 184.175ZM273.375 185.985C273.656 185.308 274.068 184.694 274.588 184.175L273.176 182.759C272.47 183.462 271.91 184.298 271.528 185.218L273.375 185.985ZM272.949 188.119C272.949 187.386 273.093 186.662 273.375 185.985L271.528 185.218C271.145 186.138 270.949 187.123 270.949 188.119H272.949ZM272.949 197.269V188.119H270.949V197.269H272.949ZM273.375 199.403C273.093 198.726 272.949 198.002 272.949 197.269H270.949C270.949 198.265 271.145 199.25 271.528 200.17L273.375 199.403ZM274.588 201.213C274.068 200.695 273.656 200.08 273.375 199.403L271.528 200.17C271.91 201.09 272.47 201.926 273.176 202.629L274.588 201.213ZM276.405 202.423C275.725 202.142 275.108 201.731 274.588 201.213L273.176 202.629C273.882 203.333 274.72 203.891 275.642 204.272L276.405 202.423ZM278.549 202.848C277.813 202.848 277.084 202.704 276.405 202.423L275.641 204.272C276.563 204.653 277.551 204.848 278.549 204.848V202.848ZM284.271 202.848H278.549V204.848H284.271V202.848ZM289.645 205.067C288.219 203.646 286.287 202.848 284.271 202.848V204.848C285.758 204.848 287.183 205.437 288.233 206.483L289.645 205.067ZM291.872 210.427C291.872 208.416 291.07 206.488 289.645 205.067L288.233 206.483C289.283 207.53 289.872 208.949 289.872 210.427H291.872ZM291.872 219.577V210.427H289.872V219.577H291.872ZM291.293 222.479C291.675 221.559 291.872 220.572 291.872 219.577H289.872C289.872 220.309 289.727 221.034 289.446 221.711L291.293 222.479ZM289.645 224.938C290.351 224.234 290.911 223.398 291.293 222.479L289.446 221.711C289.165 222.387 288.753 223.003 288.233 223.521L289.645 224.938ZM287.178 226.58C288.101 226.199 288.939 225.641 289.644 224.938L288.233 223.521C287.713 224.039 287.095 224.451 286.416 224.73L287.178 226.58ZM284.271 227.156C285.27 227.156 286.258 226.96 287.179 226.579L286.416 224.731C285.736 225.011 285.007 225.156 284.271 225.156V227.156ZM235.912 227.156H284.271V225.156H235.912V227.156Z" fill="#6C6C6C" mask="url(#path-1-inside-1_2351_13749)"/>
<path d="M180.983 230.35C185.135 230.35 188.5 226.996 188.5 222.857C188.5 218.719 185.135 215.365 180.983 215.365C176.831 215.365 173.466 218.719 173.466 222.857C173.466 226.996 176.831 230.35 180.983 230.35Z" fill="#FFCE1A"/>
<path d="M170.96 208.844C173.112 208.844 174.858 207.104 174.858 204.959C174.858 202.813 173.112 201.074 170.96 201.074C168.808 201.074 167.062 202.813 167.062 204.959C167.062 207.104 168.808 208.844 170.96 208.844Z" fill="#FFCE1A"/>
<path d="M196.456 214.394C199.531 214.394 202.024 211.909 202.024 208.844C202.024 205.778 199.531 203.294 196.456 203.294C193.381 203.294 190.888 205.778 190.888 208.844C190.888 211.909 193.381 214.394 196.456 214.394Z" fill="#FFCE1A"/>
<path d="M100.995 188.64C105.934 188.64 109.938 184.648 109.938 179.725C109.938 174.802 105.934 170.81 100.995 170.81C96.0556 170.81 92.0513 174.802 92.0513 179.725C92.0513 184.648 96.0556 188.64 100.995 188.64Z" fill="#FFCE1A"/>
<path d="M83.9047 178.019C86.4775 178.019 88.5632 175.94 88.5632 173.376C88.5632 170.811 86.4775 168.732 83.9047 168.732C81.3318 168.732 79.2461 170.811 79.2461 173.376C79.2461 175.94 81.3318 178.019 83.9047 178.019Z" fill="#FFCE1A"/>
<path d="M88.1837 160.27C89.6679 160.27 90.8709 159.071 90.8709 157.591C90.8709 156.112 89.6679 154.913 88.1837 154.913C86.6995 154.913 85.4966 156.112 85.4966 157.591C85.4966 159.071 86.6995 160.27 88.1837 160.27Z" fill="#FFCE1A"/>
<path d="M103.059 165.907C106.616 165.907 109.501 163.032 109.501 159.486C109.501 155.94 106.616 153.065 103.059 153.065C99.5008 153.065 96.6165 155.94 96.6165 159.486C96.6165 163.032 99.5008 165.907 103.059 165.907Z" fill="#FFCE1A"/>
<path d="M243.844 95.3276C248.783 95.3276 252.787 91.3362 252.787 86.4129C252.787 81.4896 248.783 77.4982 243.844 77.4982C238.904 77.4982 234.9 81.4896 234.9 86.4129C234.9 91.3362 238.904 95.3276 243.844 95.3276Z" fill="#FFCE1A"/>
<path d="M244.207 72.8808C246.78 72.8808 248.865 70.8018 248.865 68.2372C248.865 65.6727 246.78 63.5938 244.207 63.5938C241.634 63.5938 239.548 65.6727 239.548 68.2372C239.548 70.8018 241.634 72.8808 244.207 72.8808Z" fill="#FFCE1A"/>
<path d="M275.236 74.9695C277.462 74.9695 279.268 73.1698 279.268 70.9504C279.268 68.7304 277.462 66.9313 275.236 66.9313C273.008 66.9313 271.203 68.7304 271.203 70.9504C271.203 73.1698 273.008 74.9695 275.236 74.9695Z" fill="#FFCE1A"/>
<path d="M260.566 69.7236C262.05 69.7236 263.253 68.5246 263.253 67.0452C263.253 65.5657 262.05 64.3667 260.566 64.3667C259.082 64.3667 257.879 65.5657 257.879 67.0452C257.879 68.5246 259.082 69.7236 260.566 69.7236Z" fill="#FFCE1A"/>
<path d="M263.689 88.0866C267.247 88.0866 270.131 85.2116 270.131 81.6653C270.131 78.1191 267.247 75.2441 263.689 75.2441C260.131 75.2441 257.247 78.1191 257.247 81.6653C257.247 85.2116 260.131 88.0866 263.689 88.0866Z" fill="#FFCE1A"/>
<g clip-path="url(#clip0_2351_13749)">
<path d="M201.538 116.642H176.064C175.483 116.642 174.926 116.872 174.516 117.281C174.105 117.69 173.875 118.245 173.874 118.823V175.219L173.582 175.307L167.333 177.213C167.036 177.303 166.717 177.273 166.443 177.128C166.17 176.983 165.965 176.736 165.874 176.441L147.286 115.96C147.195 115.665 147.226 115.346 147.371 115.074C147.517 114.801 147.765 114.597 148.061 114.507L157.691 111.57L185.609 103.058L195.239 100.121C195.386 100.076 195.54 100.06 195.692 100.074C195.845 100.089 195.993 100.133 196.129 100.205C196.264 100.276 196.384 100.374 196.482 100.492C196.579 100.609 196.653 100.745 196.697 100.891L201.449 116.351L201.538 116.642Z" fill="#1DACA5"/>
<path d="M207.097 115.773L201.37 97.141C201.275 96.8305 201.119 96.5418 200.912 96.2914C200.705 96.0409 200.45 95.8336 200.162 95.6813C199.874 95.5289 199.559 95.4346 199.235 95.4036C198.91 95.3727 198.583 95.4057 198.271 95.5008L184.732 99.6289L156.815 108.142L143.276 112.272C142.647 112.464 142.12 112.897 141.812 113.476C141.503 114.055 141.437 114.732 141.629 115.359L161.202 179.037C161.358 179.543 161.673 179.985 162.1 180.3C162.527 180.615 163.044 180.785 163.576 180.786C163.821 180.786 164.066 180.749 164.301 180.677L173.582 177.847L173.874 177.757V177.453L173.582 177.542L164.215 180.399C163.66 180.568 163.06 180.51 162.548 180.239C162.035 179.967 161.651 179.505 161.481 178.952L141.91 115.273C141.825 114.999 141.796 114.712 141.823 114.426C141.85 114.141 141.934 113.864 142.069 113.611C142.204 113.358 142.387 113.134 142.609 112.952C142.831 112.77 143.087 112.633 143.362 112.55L156.901 108.42L184.818 99.9081L198.357 95.7785C198.566 95.7151 198.783 95.6828 199.001 95.6826C199.469 95.6836 199.925 95.8339 200.301 96.1116C200.677 96.3892 200.954 96.7795 201.092 97.2253L206.792 115.773L206.883 116.064H207.186L207.097 115.773Z" fill="#1DACA5"/>
<path d="M230.071 182.933H180.731C180.402 182.932 180.086 182.802 179.854 182.57C179.621 182.339 179.49 182.025 179.49 181.697V122.807C179.49 122.48 179.621 122.166 179.854 121.934C180.086 121.702 180.402 121.572 180.731 121.572H230.071C230.4 121.572 230.715 121.702 230.948 121.934C231.181 122.166 231.311 122.48 231.312 122.807V181.697C231.311 182.025 231.181 182.339 230.948 182.57C230.715 182.802 230.4 182.932 230.071 182.933Z" fill="#1DACA5"/>
<line x1="183" y1="128.9" x2="224" y2="128.9" stroke="black" stroke-width="0.2"/>
<line x1="183" y1="133.9" x2="224" y2="133.9" stroke="black" stroke-width="0.2"/>
<line x1="183" y1="138.9" x2="224" y2="138.9" stroke="black" stroke-width="0.2"/>
<line x1="183" y1="143.9" x2="224" y2="143.9" stroke="black" stroke-width="0.2"/>
<line x1="183" y1="148.9" x2="224" y2="148.9" stroke="black" stroke-width="0.2"/>
<line x1="183" y1="153.9" x2="224" y2="153.9" stroke="black" stroke-width="0.2"/>
<line x1="183" y1="158.9" x2="224" y2="158.9" stroke="black" stroke-width="0.2"/>
<line x1="183" y1="163.9" x2="224" y2="163.9" stroke="black" stroke-width="0.2"/>
<line x1="183" y1="168.9" x2="224" y2="168.9" stroke="black" stroke-width="0.2"/>
<line x1="183" y1="173.9" x2="224" y2="173.9" stroke="black" stroke-width="0.2"/>
<line x1="183" y1="178.9" x2="224" y2="178.9" stroke="black" stroke-width="0.2"/>
<path d="M206.792 115.773H176.063C175.406 115.774 174.775 116.034 174.31 116.498C173.844 116.961 173.583 117.589 173.582 118.245V177.541L173.874 177.453V118.245C173.874 117.666 174.105 117.112 174.516 116.703C174.926 116.294 175.483 116.064 176.063 116.064H206.882L206.792 115.773ZM233.578 115.773H176.063C175.406 115.774 174.775 116.034 174.31 116.498C173.844 116.961 173.583 117.589 173.582 118.245V184.841C173.583 185.496 173.844 186.124 174.31 186.587C174.775 187.051 175.406 187.312 176.063 187.312H233.578C234.236 187.312 234.867 187.051 235.332 186.587C235.797 186.124 236.059 185.496 236.06 184.841V118.245C236.059 117.589 235.797 116.961 235.332 116.498C234.867 116.034 234.236 115.774 233.578 115.773ZM235.768 184.841C235.767 185.419 235.536 185.973 235.126 186.382C234.715 186.791 234.159 187.021 233.578 187.022H176.063C175.483 187.021 174.926 186.791 174.516 186.382C174.105 185.973 173.874 185.419 173.874 184.841V118.245C173.874 117.666 174.105 117.112 174.516 116.703C174.926 116.294 175.483 116.064 176.063 116.064H233.578C234.159 116.064 234.715 116.294 235.126 116.703C235.536 117.112 235.767 117.666 235.768 118.245V184.841Z" fill="#1DACA5"/>
</g>
<path d="M157.715 266.938V284H154.199L147.344 272.562V284H143.828V266.938H147.344L154.211 278.387V266.938H157.715ZM160.023 277.789V277.543C160.023 276.613 160.156 275.758 160.422 274.977C160.688 274.188 161.074 273.504 161.582 272.926C162.09 272.348 162.715 271.898 163.457 271.578C164.199 271.25 165.051 271.086 166.012 271.086C166.973 271.086 167.828 271.25 168.578 271.578C169.328 271.898 169.957 272.348 170.465 272.926C170.98 273.504 171.371 274.188 171.637 274.977C171.902 275.758 172.035 276.613 172.035 277.543V277.789C172.035 278.711 171.902 279.566 171.637 280.355C171.371 281.137 170.98 281.82 170.465 282.406C169.957 282.984 169.332 283.434 168.59 283.754C167.848 284.074 166.996 284.234 166.035 284.234C165.074 284.234 164.219 284.074 163.469 283.754C162.727 283.434 162.098 282.984 161.582 282.406C161.074 281.82 160.688 281.137 160.422 280.355C160.156 279.566 160.023 278.711 160.023 277.789ZM163.398 277.543V277.789C163.398 278.32 163.445 278.816 163.539 279.277C163.633 279.738 163.781 280.145 163.984 280.496C164.195 280.84 164.469 281.109 164.805 281.305C165.141 281.5 165.551 281.598 166.035 281.598C166.504 281.598 166.906 281.5 167.242 281.305C167.578 281.109 167.848 280.84 168.051 280.496C168.254 280.145 168.402 279.738 168.496 279.277C168.598 278.816 168.648 278.32 168.648 277.789V277.543C168.648 277.027 168.598 276.543 168.496 276.09C168.402 275.629 168.25 275.223 168.039 274.871C167.836 274.512 167.566 274.23 167.23 274.027C166.895 273.824 166.488 273.723 166.012 273.723C165.535 273.723 165.129 273.824 164.793 274.027C164.465 274.23 164.195 274.512 163.984 274.871C163.781 275.223 163.633 275.629 163.539 276.09C163.445 276.543 163.398 277.027 163.398 277.543ZM185.535 284H181.82L181.844 281.258H185.535C186.457 281.258 187.234 281.051 187.867 280.637C188.5 280.215 188.977 279.602 189.297 278.797C189.625 277.992 189.789 277.02 189.789 275.879V275.047C189.789 274.172 189.695 273.402 189.508 272.738C189.328 272.074 189.059 271.516 188.699 271.062C188.34 270.609 187.898 270.27 187.375 270.043C186.852 269.809 186.25 269.691 185.57 269.691H181.75V266.938H185.57C186.711 266.938 187.754 267.133 188.699 267.523C189.652 267.906 190.477 268.457 191.172 269.176C191.867 269.895 192.402 270.754 192.777 271.754C193.16 272.746 193.352 273.852 193.352 275.07V275.879C193.352 277.09 193.16 278.195 192.777 279.195C192.402 280.195 191.867 281.055 191.172 281.773C190.484 282.484 189.66 283.035 188.699 283.426C187.746 283.809 186.691 284 185.535 284ZM183.812 266.938V284H180.297V266.938H183.812ZM202.539 281.141V275.492C202.539 275.086 202.473 274.738 202.34 274.449C202.207 274.152 202 273.922 201.719 273.758C201.445 273.594 201.09 273.512 200.652 273.512C200.277 273.512 199.953 273.578 199.68 273.711C199.406 273.836 199.195 274.02 199.047 274.262C198.898 274.496 198.824 274.773 198.824 275.094H195.449C195.449 274.555 195.574 274.043 195.824 273.559C196.074 273.074 196.438 272.648 196.914 272.281C197.391 271.906 197.957 271.613 198.613 271.402C199.277 271.191 200.02 271.086 200.84 271.086C201.824 271.086 202.699 271.25 203.465 271.578C204.23 271.906 204.832 272.398 205.27 273.055C205.715 273.711 205.938 274.531 205.938 275.516V280.941C205.938 281.637 205.98 282.207 206.066 282.652C206.152 283.09 206.277 283.473 206.441 283.801V284H203.031C202.867 283.656 202.742 283.227 202.656 282.711C202.578 282.188 202.539 281.664 202.539 281.141ZM202.984 276.277L203.008 278.188H201.121C200.676 278.188 200.289 278.238 199.961 278.34C199.633 278.441 199.363 278.586 199.152 278.773C198.941 278.953 198.785 279.164 198.684 279.406C198.59 279.648 198.543 279.914 198.543 280.203C198.543 280.492 198.609 280.754 198.742 280.988C198.875 281.215 199.066 281.395 199.316 281.527C199.566 281.652 199.859 281.715 200.195 281.715C200.703 281.715 201.145 281.613 201.52 281.41C201.895 281.207 202.184 280.957 202.387 280.66C202.598 280.363 202.707 280.082 202.715 279.816L203.605 281.246C203.48 281.566 203.309 281.898 203.09 282.242C202.879 282.586 202.609 282.91 202.281 283.215C201.953 283.512 201.559 283.758 201.098 283.953C200.637 284.141 200.09 284.234 199.457 284.234C198.652 284.234 197.922 284.074 197.266 283.754C196.617 283.426 196.102 282.977 195.719 282.406C195.344 281.828 195.156 281.172 195.156 280.438C195.156 279.773 195.281 279.184 195.531 278.668C195.781 278.152 196.148 277.719 196.633 277.367C197.125 277.008 197.738 276.738 198.473 276.559C199.207 276.371 200.059 276.277 201.027 276.277H202.984ZM214.75 271.32V273.711H207.367V271.32H214.75ZM209.195 268.191H212.57V280.18C212.57 280.547 212.617 280.828 212.711 281.023C212.812 281.219 212.961 281.355 213.156 281.434C213.352 281.504 213.598 281.539 213.895 281.539C214.105 281.539 214.293 281.531 214.457 281.516C214.629 281.492 214.773 281.469 214.891 281.445L214.902 283.93C214.613 284.023 214.301 284.098 213.965 284.152C213.629 284.207 213.258 284.234 212.852 284.234C212.109 284.234 211.461 284.113 210.906 283.871C210.359 283.621 209.938 283.223 209.641 282.676C209.344 282.129 209.195 281.41 209.195 280.52V268.191ZM223.516 281.141V275.492C223.516 275.086 223.449 274.738 223.316 274.449C223.184 274.152 222.977 273.922 222.695 273.758C222.422 273.594 222.066 273.512 221.629 273.512C221.254 273.512 220.93 273.578 220.656 273.711C220.383 273.836 220.172 274.02 220.023 274.262C219.875 274.496 219.801 274.773 219.801 275.094H216.426C216.426 274.555 216.551 274.043 216.801 273.559C217.051 273.074 217.414 272.648 217.891 272.281C218.367 271.906 218.934 271.613 219.59 271.402C220.254 271.191 220.996 271.086 221.816 271.086C222.801 271.086 223.676 271.25 224.441 271.578C225.207 271.906 225.809 272.398 226.246 273.055C226.691 273.711 226.914 274.531 226.914 275.516V280.941C226.914 281.637 226.957 282.207 227.043 282.652C227.129 283.09 227.254 283.473 227.418 283.801V284H224.008C223.844 283.656 223.719 283.227 223.633 282.711C223.555 282.188 223.516 281.664 223.516 281.141ZM223.961 276.277L223.984 278.188H222.098C221.652 278.188 221.266 278.238 220.938 278.34C220.609 278.441 220.34 278.586 220.129 278.773C219.918 278.953 219.762 279.164 219.66 279.406C219.566 279.648 219.52 279.914 219.52 280.203C219.52 280.492 219.586 280.754 219.719 280.988C219.852 281.215 220.043 281.395 220.293 281.527C220.543 281.652 220.836 281.715 221.172 281.715C221.68 281.715 222.121 281.613 222.496 281.41C222.871 281.207 223.16 280.957 223.363 280.66C223.574 280.363 223.684 280.082 223.691 279.816L224.582 281.246C224.457 281.566 224.285 281.898 224.066 282.242C223.855 282.586 223.586 282.91 223.258 283.215C222.93 283.512 222.535 283.758 222.074 283.953C221.613 284.141 221.066 284.234 220.434 284.234C219.629 284.234 218.898 284.074 218.242 283.754C217.594 283.426 217.078 282.977 216.695 282.406C216.32 281.828 216.133 281.172 216.133 280.438C216.133 279.773 216.258 279.184 216.508 278.668C216.758 278.152 217.125 277.719 217.609 277.367C218.102 277.008 218.715 276.738 219.449 276.559C220.184 276.371 221.035 276.277 222.004 276.277H223.961ZM233.324 266.938L232.938 278.785H230.125L229.727 266.938H233.324ZM229.633 282.453C229.633 281.953 229.805 281.539 230.148 281.211C230.5 280.875 230.961 280.707 231.531 280.707C232.109 280.707 232.57 280.875 232.914 281.211C233.258 281.539 233.43 281.953 233.43 282.453C233.43 282.938 233.258 283.348 232.914 283.684C232.57 284.02 232.109 284.188 231.531 284.188C230.961 284.188 230.5 284.02 230.148 283.684C229.805 283.348 229.633 282.938 229.633 282.453Z" fill="#1DACA5"/>
<defs>
<clipPath id="clip0_2351_13749">
<rect width="94.54" height="91.9219" fill="white" transform="translate(141.52 95.3906)"/>
</clipPath>
</defs>
</svg>
