<svg width="52" height="72" viewBox="0 0 52 72" fill="none" xmlns="http://www.w3.org/2000/svg">
<path d="M28.2194 70.9996H6.62924C3.65211 70.9996 1.21582 68.148 1.21582 64.6633V7.33613C1.21582 3.85141 3.65173 0.999756 6.62924 0.999756H31.2759C34.2534 0.999756 36.6893 3.85254 36.6893 7.33613V13.9223" stroke="#FFCE1A" stroke-width="1.70003" stroke-miterlimit="22.9256" stroke-linecap="round" stroke-linejoin="round"/>
<path fill-rule="evenodd" clip-rule="evenodd" d="M11.3631 0.999756H26.5417C26.6626 0.999756 26.7609 1.11503 26.7609 1.25639V4.6848C26.7609 6.04089 25.813 7.15018 24.6546 7.15018H13.2502C12.0918 7.15018 11.1443 6.04089 11.1443 4.6848V1.25639C11.1443 1.11503 11.2426 0.999756 11.3631 0.999756V0.999756Z" stroke="#FFCE1A" stroke-width="1.70003" stroke-miterlimit="22.9256" stroke-linecap="round" stroke-linejoin="round"/>
<path d="M21.3468 66.5571H15.1541" stroke="#FFCE1A" stroke-width="1.70003" stroke-miterlimit="22.9256" stroke-linecap="round" stroke-linejoin="round"/>
<path d="M25.3843 45.6869V40.7256C25.3843 34.1885 30.4711 28.8405 36.6888 28.8405H36.6892C42.9069 28.8405 47.9938 34.1889 47.9938 40.7256V45.6873" stroke="#1DACA5" stroke-width="1.70003" stroke-miterlimit="22.9256" stroke-linecap="round" stroke-linejoin="round"/>
<path d="M39.6982 25.6788C39.6982 23.9317 38.3511 22.5155 36.6893 22.5155C35.0275 22.5155 33.6804 23.9317 33.6804 25.6788C33.6804 27.4258 35.0275 28.8421 36.6893 28.8421C38.3511 28.8421 39.6982 27.4258 39.6982 25.6788Z" stroke="#1DACA5" stroke-width="1.70003" stroke-miterlimit="22.9256"/>
<path d="M40.2609 56.84C40.7164 57.5562 40.9825 58.416 40.9825 59.3375V59.3503C40.9825 61.8331 39.0507 63.8638 36.6893 63.8638C34.3278 63.8638 32.3958 61.8331 32.3958 59.3503V59.3375C32.3958 58.4194 32.6599 57.5634 33.1116 56.849" stroke="#1DACA5" stroke-width="1.70003" stroke-miterlimit="22.9256"/>
<path d="M41.9137 48.6445H26.4626" stroke="#1DACA5" stroke-width="1.70003" stroke-miterlimit="22.9256" stroke-linecap="round" stroke-linejoin="round"/>
<path d="M26.4623 48.6445C24.3348 48.6445 22.5947 50.4742 22.5947 52.7105C22.5947 54.9469 24.3348 56.7766 26.4623 56.7766H46.916C49.0435 56.7766 50.784 54.9469 50.784 52.7105C50.784 50.4742 49.0435 48.6445 46.916 48.6445" stroke="#1DACA5" stroke-width="1.70003" stroke-miterlimit="22.9256" stroke-linecap="round" stroke-linejoin="round"/>
</svg>
