<svg width="11" height="11" viewBox="0 0 11 11" fill="none" xmlns="http://www.w3.org/2000/svg">
<path d="M4.58317 7.79183C5.08734 7.79183 5.49984 7.37933 5.49984 6.87516C5.49984 6.371 5.08734 5.9585 4.58317 5.9585C4.079 5.9585 3.6665 6.371 3.6665 6.87516C3.6665 7.37933 4.079 7.79183 4.58317 7.79183ZM7.33317 3.66683C7.83734 3.66683 8.24984 4.07933 8.24984 4.5835V9.16683C8.24984 9.671 7.83734 10.0835 7.33317 10.0835H1.83317C1.329 10.0835 0.916504 9.671 0.916504 9.16683V4.5835C0.916504 4.07933 1.329 3.66683 1.83317 3.66683H2.2915V2.75016C2.2915 1.46683 3.29984 0.458496 4.58317 0.458496C5.8665 0.458496 6.87484 1.46683 6.87484 2.75016V3.66683H7.33317ZM4.58317 1.37516C3.804 1.37516 3.20817 1.971 3.20817 2.75016V3.66683H5.95817V2.75016C5.95817 1.971 5.36234 1.37516 4.58317 1.37516ZM10.0832 5.9585H9.1665V3.2085H10.0832V5.9585ZM10.0832 7.79183H9.1665V6.87516H10.0832V7.79183Z" fill="#FFBC2C"/>
</svg>
