<svg width="120" height="90" viewBox="0 0 120 90" fill="none" xmlns="http://www.w3.org/2000/svg">
<path fill-rule="evenodd" clip-rule="evenodd" d="M15 0C6.71573 0 0 6.71573 0 15V54.8776C0 63.1619 6.71573 69.8776 15 69.8776H50V84.4223C50 89.1279 55.9082 91.228 58.8782 87.5781L73.2816 69.8776H104.577C112.861 69.8776 119.577 63.1619 119.577 54.8776V15C119.577 6.71573 112.861 0 104.577 0H15Z" fill="url(#paint0_linear_9_10929)"/>
<g filter="url(#filter0_d_9_10929)">
<path fill-rule="evenodd" clip-rule="evenodd" d="M29.7772 24.8239C29.7772 23.5193 30.8349 22.4617 32.1395 22.4617C33.4441 22.4617 34.5017 23.5193 34.5017 24.8239V28.5573L37.7348 26.6906C38.8647 26.0383 40.3094 26.4254 40.9617 27.5553C41.614 28.6851 41.2269 30.1299 40.0971 30.7822L36.8638 32.6489L40.097 34.5156C41.2268 35.1679 41.6139 36.6126 40.9616 37.7425C40.3093 38.8723 38.8646 39.2594 37.7347 38.6071L34.5017 36.7405V40.4738C34.5017 41.7785 33.4441 42.8361 32.1395 42.8361C30.8349 42.8361 29.7772 41.7785 29.7772 40.4738V36.7403L26.5439 38.6071C25.414 39.2594 23.9693 38.8723 23.317 37.7425C22.6647 36.6126 23.0518 35.1679 24.1816 34.5156L27.4148 32.6489L24.1815 30.7822C23.0517 30.1298 22.6646 28.6851 23.3169 27.5553C23.9692 26.4254 25.4139 26.0383 26.5438 26.6906L29.7772 28.5575V24.8239Z" fill="white"/>
<path fill-rule="evenodd" clip-rule="evenodd" d="M56.6476 24.8239C56.6476 23.5193 57.7052 22.4617 59.0099 22.4617C60.3145 22.4617 61.3721 23.5193 61.3721 24.8239V28.5573L64.6052 26.6906C65.735 26.0383 67.1798 26.4254 67.8321 27.5553C68.4844 28.6851 68.0973 30.1299 66.9674 30.7822L63.7342 32.6489L66.9673 34.5156C68.0972 35.1679 68.4843 36.6126 67.832 37.7425C67.1797 38.8723 65.7349 39.2594 64.6051 38.6071L61.3721 36.7405V40.4738C61.3721 41.7785 60.3145 42.8361 59.0099 42.8361C57.7052 42.8361 56.6476 41.7785 56.6476 40.4738V36.7403L53.4142 38.6071C52.2844 39.2594 50.8397 38.8723 50.1873 37.7425C49.535 36.6126 49.9221 35.1679 51.052 34.5156L54.2852 32.6489L51.0519 30.7822C49.922 30.1298 49.5349 28.6851 50.1872 27.5553C50.8396 26.4254 52.2843 26.0383 53.4141 26.6906L56.6476 28.5575V24.8239Z" fill="white"/>
<path fill-rule="evenodd" clip-rule="evenodd" d="M85.2899 24.8239C85.2899 23.5193 86.3476 22.4617 87.6522 22.4617C88.9568 22.4617 90.0144 23.5193 90.0144 24.8239V28.5573L93.2475 26.6906C94.3774 26.0383 95.8221 26.4254 96.4744 27.5553C97.1267 28.6851 96.7396 30.1299 95.6098 30.7822L92.3765 32.6489L95.6097 34.5156C96.7395 35.1679 97.1266 36.6126 96.4743 37.7425C95.822 38.8723 94.3773 39.2594 93.2474 38.6071L90.0144 36.7405V40.4738C90.0144 41.7785 88.9568 42.8361 87.6522 42.8361C86.3476 42.8361 85.2899 41.7785 85.2899 40.4738V36.7403L82.0566 38.6071C80.9267 39.2594 79.482 38.8723 78.8297 37.7425C78.1774 36.6126 78.5645 35.1679 79.6943 34.5156L82.9275 32.6489L79.6942 30.7822C78.5644 30.1298 78.1773 28.6851 78.8296 27.5553C79.4819 26.4254 80.9266 26.0383 82.0565 26.6906L85.2899 28.5575V24.8239Z" fill="white"/>
</g>
<defs>
<filter id="filter0_d_9_10929" x="19" y="22.4617" width="81.7913" height="28.3745" filterUnits="userSpaceOnUse" color-interpolation-filters="sRGB">
<feFlood flood-opacity="0" result="BackgroundImageFix"/>
<feColorMatrix in="SourceAlpha" type="matrix" values="0 0 0 0 0 0 0 0 0 0 0 0 0 0 0 0 0 0 127 0" result="hardAlpha"/>
<feOffset dy="4"/>
<feGaussianBlur stdDeviation="2"/>
<feComposite in2="hardAlpha" operator="out"/>
<feColorMatrix type="matrix" values="0 0 0 0 0 0 0 0 0 0 0 0 0 0 0 0 0 0 0.25 0"/>
<feBlend mode="normal" in2="BackgroundImageFix" result="effect1_dropShadow_9_10929"/>
<feBlend mode="normal" in="SourceGraphic" in2="effect1_dropShadow_9_10929" result="shape"/>
</filter>
<linearGradient id="paint0_linear_9_10929" x1="31.555" y1="73.2476" x2="60.8263" y2="8.96312" gradientUnits="userSpaceOnUse">
<stop stop-color="#FFB731"/>
<stop offset="1" stop-color="#FFCE1A"/>
</linearGradient>
</defs>
</svg>
