<svg width="75" height="75" viewBox="0 0 75 75" fill="none" xmlns="http://www.w3.org/2000/svg">
<path d="M49.0197 15.2655C53.9625 15.2655 57.9696 12.184 57.9696 8.38275C57.9696 4.58152 53.9625 1.5 49.0197 1.5C44.0768 1.5 40.0697 4.58152 40.0697 8.38275C40.0697 12.184 44.0768 15.2655 49.0197 15.2655Z" stroke="#1DACA5" stroke-width="2.00012" stroke-miterlimit="22.9256"/>
<path d="M38.3783 22.7472C39.1885 22.5867 40.038 22.502 40.9139 22.502C46.5148 22.502 51.0549 25.9934 51.0549 30.3001C51.0549 32.065 50.2932 33.6919 49.0091 34.9988M31.092 28.3512C30.8833 28.9737 30.773 29.6275 30.773 30.3001C30.773 32.065 31.534 33.6919 32.8181 34.9988" stroke="#1DACA5" stroke-width="2.00012" stroke-miterlimit="22.9256"/>
<path d="M27.4817 29.1878C33.0824 29.1878 37.6227 25.6962 37.6227 21.3892C37.6227 17.0821 33.0824 13.5906 27.4817 13.5906C21.8811 13.5906 17.3408 17.0821 17.3408 21.3892C17.3408 25.6962 21.8811 29.1878 27.4817 29.1878Z" stroke="#1DACA5" stroke-width="2.00012" stroke-miterlimit="22.9256"/>
<path d="M1.5 30.964V64.3637C1.5 69.41 6.81903 73.5 13.3803 73.5H65.5803C69.9542 73.5 73.5 70.7731 73.5 67.4095V41.6224C73.5 38.2588 69.9542 35.5319 65.5803 35.5319H11.3996" stroke="#FFCE1A" stroke-width="2.00012" stroke-miterlimit="22.9256"/>
<path d="M12.1979 25.2498H8.82884H8.63147C4.69353 25.2498 1.5 27.7046 1.5 30.7335C1.5 33.3842 4.29342 35.533 7.74019 35.533H65.2712V31.3403C65.2712 27.9766 61.7254 25.2498 57.3515 25.2498H53.4428" stroke="#FFCE1A" stroke-width="2.00012" stroke-miterlimit="22.9256" stroke-linecap="round"/>
<path d="M54.9602 48.7024H70.799C71.1326 48.7024 71.4244 48.7233 71.6823 48.7637V59.299C71.4244 59.3394 71.1326 59.3603 70.799 59.3603L54.9602 59.3608C51.6802 59.3603 49.0197 57.3148 49.0197 54.7919V53.2698C49.0197 50.7469 51.6802 48.7009 54.9602 48.7009V48.7024ZM60.8993 54.0314C60.8993 52.7699 59.5694 51.7472 57.9291 51.7472C56.2888 51.7472 54.9595 52.7699 54.9595 54.0314C54.9595 55.2928 56.2888 56.3155 57.9291 56.3155C59.5694 56.3155 60.8993 55.2928 60.8993 54.0314Z" fill="#FFCE1A"/>
</svg>
