<svg width="90" height="90" viewBox="0 0 90 90" fill="none" xmlns="http://www.w3.org/2000/svg">
<path d="M58.0213 18.3135C57.5988 18.3135 57.2563 17.9709 57.2563 17.5485C57.2563 17.126 57.5988 16.7834 58.0213 16.7834V18.3135ZM61.7117 18.3135H58.0213V16.7834H61.7117V18.3135ZM68.6247 23.6965H67.0947L67.0876 23.4206L67.0665 23.1478L67.0324 22.8798L66.9848 22.6158L66.9246 22.3563L66.8518 22.1015L66.7671 21.8522L66.6705 21.6083L66.5624 21.3705L66.443 21.1382L66.313 20.9126L66.1725 20.6946L66.0215 20.4823L65.8616 20.2786L65.6915 20.083L65.513 19.8952L65.3252 19.7166L65.1296 19.5466L64.9258 19.3867L64.7136 19.2357L64.4955 19.0952L64.27 18.9652L64.0377 18.8458L63.7999 18.7377L63.556 18.6411L63.3067 18.5564L63.0519 18.4836L62.7924 18.4234L62.5284 18.3757L62.2604 18.3417L61.9876 18.3206L61.7117 18.3135V16.7834L62.0658 16.7926L62.4155 16.8192L62.7611 16.8634L63.1012 16.9246L63.4349 17.0025L63.7625 17.0957L64.084 17.2049L64.3979 17.3294L64.7044 17.4682L65.002 17.6216L65.2915 17.7883L65.5721 17.9689L65.8422 18.1614L66.1038 18.3669L66.3545 18.5846L66.5947 18.8135L66.8236 19.0537L67.0413 19.3044L67.2467 19.566L67.4393 19.836L67.6199 20.1167L67.7866 20.4061L67.94 20.7038L68.0788 21.0103L68.2033 21.3242L68.3125 21.6457L68.4057 21.9733L68.4836 22.307L68.5448 22.6471L68.589 22.9927L68.6156 23.3424L68.6247 23.6965ZM68.6247 23.6965C68.6247 24.119 68.2822 24.4615 67.8597 24.4615C67.4372 24.4615 67.0947 24.119 67.0947 23.6965H68.6247ZM67.0947 46.8331C67.0947 46.4106 67.4372 46.0681 67.8597 46.0681C68.2822 46.0681 68.6247 46.4106 68.6247 46.8331H67.0947ZM67.0947 66.9532V46.8331H68.6247V66.9532H67.0947ZM61.7117 73.8662V72.3362L61.9876 72.3291L62.2604 72.308L62.5284 72.274L62.792 72.2263L63.0519 72.1661L63.306 72.0937L63.5553 72.0083L63.7996 71.912L64.0373 71.8035L64.2697 71.6845L64.4952 71.5542L64.7136 71.4137L64.9252 71.2633L65.1293 71.1028L65.3248 70.9331L65.5126 70.7541L65.6915 70.5664L65.8613 70.3708L66.0218 70.1667L66.1722 69.9551L66.3127 69.7367L66.443 69.5112L66.562 69.2789L66.6705 69.0411L66.7668 68.7968L66.8522 68.5475L66.9246 68.2934L66.9848 68.0335L67.0324 67.7699L67.0665 67.5019L67.0876 67.2291L67.0947 66.9532H68.6247L68.6156 67.3073L68.589 67.657L68.5448 68.0026L68.4836 68.3424L68.4057 68.6764L68.3121 69.0047L68.2029 69.3255L68.0788 69.6391L67.9397 69.9456L67.7866 70.2432L67.6196 70.5327L67.4396 70.813L67.2464 71.0837L67.041 71.345L66.8236 71.5957L66.5943 71.8358L66.3542 72.0651L66.1035 72.2825L65.8422 72.4879L65.5715 72.6811L65.2912 72.8611L65.0017 73.0281L64.7041 73.1812L64.3976 73.3203L64.084 73.4445L63.7632 73.5536L63.4349 73.6472L63.1009 73.7251L62.7611 73.7863L62.4155 73.8305L62.0658 73.8571L61.7117 73.8662ZM36.7991 72.3362H61.7117V73.8662H36.7991V72.3362ZM36.7991 73.8662C36.3766 73.8662 36.0341 73.5237 36.0341 73.1012C36.0341 72.6787 36.3766 72.3362 36.7991 72.3362V73.8662ZM23.0761 45.5085C23.0761 45.931 22.7335 46.2735 22.311 46.2735C21.8886 46.2735 21.546 45.931 21.546 45.5085H23.0761ZM23.0761 23.6965V45.5085H21.546V23.6965H23.0761ZM28.4594 16.7834V18.3135L28.1832 18.3206L27.9107 18.3417L27.6427 18.3757L27.3787 18.4234L27.1188 18.4836L26.8641 18.5564L26.6147 18.6411L26.3708 18.7377L26.1331 18.8458L25.9007 18.9652L25.6752 19.0952L25.4572 19.2357L25.2449 19.3867L25.0412 19.5466L24.8456 19.7166L24.6578 19.8952L24.4792 20.083L24.3095 20.2786L24.1489 20.4827L23.9982 20.6946L23.8577 20.9126L23.7278 21.1382L23.6084 21.3705L23.5002 21.6083L23.4036 21.8522L23.3189 22.1015L23.2461 22.3563L23.1859 22.6158L23.1383 22.8798L23.1043 23.1478L23.0832 23.4206L23.0761 23.6965H21.546L21.5552 23.3424L21.5817 22.9927L21.626 22.6471L21.6872 22.307L21.7651 21.9733L21.8583 21.6457L21.9675 21.3242L22.092 21.0103L22.2308 20.7038L22.3842 20.4061L22.5509 20.1167L22.7315 19.836L22.9243 19.5656L23.1298 19.3044L23.3472 19.0537L23.5761 18.8135L23.8162 18.5846L24.0669 18.3669L24.3285 18.1614L24.5986 17.9689L24.8792 17.7883L25.1687 17.6216L25.4664 17.4682L25.7728 17.3294L26.0868 17.2049L26.4083 17.0957L26.7358 17.0025L27.0699 16.9246L27.41 16.8634L27.7556 16.8192L28.105 16.7926L28.4594 16.7834ZM33.9805 18.3135H28.4594V16.7834H33.9805V18.3135ZM33.9805 16.7834C34.403 16.7834 34.7456 17.126 34.7456 17.5485C34.7456 17.9709 34.403 18.3135 33.9805 18.3135V16.7834Z" fill="#FFCE1A"/>
<path d="M55.0694 15.3855H36.8937V13.8555H55.0694V15.3855ZM58.7625 17.5486H57.2325L57.2298 17.4377L57.2213 17.3285L57.2073 17.2203L57.1883 17.1142L57.1641 17.0104L57.1352 16.9091L57.1009 16.808L57.0621 16.7097L57.0192 16.6152L56.9713 16.5223L56.9185 16.4312L56.8621 16.3434L56.8012 16.258L56.7369 16.1757L56.6688 16.0975L56.5964 16.0213L56.5212 15.9498L56.442 15.8811L56.3596 15.8165L56.2746 15.7559L56.1872 15.6995L56.096 15.6471L56.0025 15.5988L55.9069 15.5556L55.8099 15.5168L55.7096 15.4831L55.6072 15.4535L55.5038 15.4297L55.3973 15.4107L55.2895 15.3967L55.1803 15.3882L55.0694 15.3855V13.8555L55.2586 13.8602L55.446 13.8749L55.63 13.8983L55.8113 13.931L55.9909 13.9725L56.1654 14.0225L56.3372 14.0807L56.5056 14.1473L56.6692 14.2218L56.828 14.3035L56.9825 14.3926L57.1325 14.4885L57.2774 14.5919L57.4162 14.7014L57.5499 14.8171L57.6781 14.9396L57.8002 15.0675L57.9166 15.2015L58.0264 15.3409L58.1295 15.4855L58.2254 15.6352L58.3142 15.7889L58.3962 15.9485L58.471 16.1131L58.537 16.2808L58.5952 16.4512L58.6459 16.6274L58.687 16.8067L58.7197 16.9877L58.7431 17.172L58.7578 17.3594L58.7625 17.5486ZM57.9975 17.5486H58.7625H57.9975ZM55.0694 21.2417V19.7116L55.1803 19.7089L55.2895 19.7004L55.3973 19.6865L55.5038 19.6674L55.6072 19.6436L55.7086 19.6144L55.8099 19.58L55.9076 19.5412L56.0025 19.4984L56.096 19.4501L56.1872 19.3977L56.2746 19.3412L56.3596 19.2807L56.442 19.216L56.5205 19.148L56.5964 19.0756L56.6688 18.9997L56.7369 18.9211L56.8015 18.8388L56.8621 18.7538L56.9185 18.6663L56.9709 18.5752L57.0192 18.4816L57.0621 18.3867L57.1009 18.2891L57.1352 18.1877L57.1645 18.0864L57.1883 17.983L57.2073 17.8765L57.2213 17.7687L57.2298 17.6595L57.2325 17.5486H58.7625L58.7578 17.7377L58.7431 17.9251L58.7197 18.1092L58.687 18.2905L58.6455 18.4701L58.5952 18.6456L58.537 18.8163L58.471 18.984L58.3962 19.1483L58.3145 19.3072L58.2254 19.4616L58.1295 19.6116L58.0261 19.7565L57.9166 19.8953L57.8002 20.0297L57.6781 20.1573L57.5505 20.2794L57.4162 20.3957L57.2774 20.5052L57.1325 20.6086L56.9825 20.7046L56.828 20.7937L56.6692 20.8753L56.5049 20.9502L56.3372 21.0162L56.1664 21.0743L55.9909 21.1247L55.8113 21.1662L55.63 21.1988L55.446 21.2223L55.2586 21.2369L55.0694 21.2417ZM36.8937 19.7116H55.0694V21.2417H36.8937V19.7116ZM33.2009 17.5486H34.731L34.7337 17.6595L34.7422 17.7687L34.7561 17.8765L34.7752 17.983L34.799 18.0864L34.8286 18.1888L34.8623 18.2891L34.901 18.386L34.9442 18.4816L34.9925 18.5752L35.0449 18.6663L35.1014 18.7538L35.1619 18.8388L35.2266 18.9211L35.2953 19.0004L35.3667 19.0756L35.4429 19.148L35.5212 19.216L35.6038 19.2807L35.6885 19.3412L35.7763 19.3977L35.8678 19.4504L35.9606 19.4984L36.0555 19.5412L36.1532 19.58L36.2545 19.6144L36.3559 19.6436L36.4593 19.6674L36.5658 19.6865L36.6736 19.7004L36.7828 19.7089L36.8937 19.7116V21.2417L36.7046 21.2369L36.5171 21.2223L36.3331 21.1988L36.1518 21.1662L35.9722 21.1247L35.7967 21.0743L35.6259 21.0162L35.4582 20.9502L35.2939 20.8753L35.1344 20.7934L34.981 20.7046L34.8306 20.6086L34.6861 20.5052L34.5469 20.3957L34.4129 20.2794L34.285 20.1573L34.1626 20.029L34.0469 19.8953L33.9374 19.7565L33.834 19.6116L33.738 19.4616L33.6489 19.3072L33.5673 19.1483L33.4928 18.9847L33.4261 18.8163L33.3679 18.6446L33.3179 18.4701L33.2764 18.2905L33.2438 18.1092L33.2203 17.9251L33.2057 17.7377L33.2009 17.5486ZM33.9659 17.5486H33.2009H33.9659ZM36.8937 13.8555V15.3855L36.7828 15.3882L36.6736 15.3967L36.5658 15.4107L36.4593 15.4297L36.3559 15.4535L36.2535 15.4831L36.1532 15.5168L36.0562 15.5556L35.9606 15.5988L35.8678 15.6467L35.7763 15.6995L35.6885 15.7559L35.6038 15.8165L35.5212 15.8811L35.4422 15.9498L35.3667 16.0213L35.2953 16.0968L35.2266 16.1757L35.1623 16.258L35.1014 16.3434L35.0449 16.4312L34.9922 16.5223L34.9442 16.6152L34.901 16.7104L34.8623 16.808L34.8286 16.9081L34.7993 17.0104L34.7752 17.1142L34.7561 17.2203L34.7422 17.3285L34.7337 17.4377L34.731 17.5486H33.2009L33.2057 17.3594L33.2203 17.172L33.2438 16.9877L33.2764 16.8067L33.3176 16.6274L33.3679 16.4522L33.4261 16.2808L33.4928 16.1124L33.5673 15.9485L33.6493 15.7889L33.738 15.6352L33.834 15.4855L33.937 15.3409L34.0469 15.2015L34.1626 15.0681L34.285 14.9396L34.4136 14.8171L34.5469 14.7014L34.6861 14.5919L34.8306 14.4885L34.981 14.3926L35.1344 14.3038L35.2939 14.2218L35.4575 14.1473L35.6259 14.0807L35.7977 14.0225L35.9722 13.9725L36.1518 13.931L36.3331 13.8983L36.5171 13.8749L36.7046 13.8602L36.8937 13.8555Z" fill="#FFCE1A"/>
<path d="M28.1621 56.1094H26.8688L26.863 55.8743L26.8454 55.6423L26.8164 55.4144L26.7763 55.1903L26.7253 54.9695L26.6641 54.7532L26.5926 54.5419L26.5113 54.3358L26.4198 54.1337L26.3188 53.9371L26.2093 53.7463L26.0909 53.5619L25.9637 53.3827L25.8283 53.2105L25.6847 53.0449L25.534 52.8864L25.3755 52.7357L25.2099 52.5921L25.0378 52.4567L24.8585 52.3295L24.6741 52.2112L24.4833 52.1016L24.2867 52.0006L24.0846 51.9091L23.8785 51.8278L23.6673 51.7564L23.4509 51.6951L23.2301 51.6441L23.006 51.604L22.7781 51.5751L22.5461 51.5574L22.311 51.5516V50.2583L22.6114 50.2661L22.908 50.2886L23.2012 50.3257L23.4893 50.3774L23.7727 50.4427L24.0503 50.5216L24.3227 50.6134L24.5887 50.7185L24.8479 50.8359L25.1003 50.9648L25.3456 51.1056L25.583 51.258L25.812 51.4213L26.0331 51.5948L26.245 51.7785L26.4484 51.972L26.6419 52.1754L26.8256 52.3874L26.9991 52.6085L27.1624 52.8374L27.3148 53.0748L27.4556 53.3201L27.5845 53.5725L27.7019 53.8317L27.807 54.0977L27.8988 54.3701L27.9778 54.6477L28.0431 54.9311L28.0948 55.2192L28.1318 55.5124L28.1543 55.809L28.1621 56.1094ZM22.311 61.9605V60.6672L22.5461 60.6614L22.7781 60.6437L23.006 60.6148L23.2301 60.5746L23.4509 60.5236L23.6673 60.4624L23.8785 60.391L24.0846 60.3097L24.2867 60.2182L24.4833 60.1171L24.6741 60.0076L24.8585 59.8892L25.0378 59.762L25.2099 59.6266L25.3755 59.4831L25.534 59.3324L25.6847 59.1739L25.8283 59.0082L25.9637 58.8361L26.0909 58.6568L26.2093 58.4725L26.3188 58.2816L26.4198 58.085L26.5113 57.883L26.5926 57.6768L26.6641 57.4656L26.7253 57.2493L26.7763 57.0285L26.8164 56.8043L26.8454 56.5764L26.863 56.3444L26.8688 56.1094H28.1621L28.1543 56.4097L28.1318 56.7064L28.0948 56.9996L28.0431 57.2877L27.9778 57.571L27.8988 57.8486L27.807 58.1211L27.7019 58.3871L27.5845 58.6463L27.4556 58.8987L27.3148 59.1439L27.1624 59.3814L26.9991 59.6103L26.8256 59.8314L26.6419 60.0433L26.4484 60.2467L26.245 60.4403L26.0331 60.624L25.812 60.7975L25.583 60.9607L25.3456 61.1131L25.1003 61.2539L24.8479 61.3829L24.5887 61.5002L24.3227 61.6053L24.0503 61.6972L23.7727 61.7761L23.4893 61.8414L23.2012 61.8931L22.908 61.9302L22.6114 61.9526L22.311 61.9605ZM16.46 56.1094H17.7532L17.759 56.3444L17.7767 56.5764L17.8056 56.8043L17.8458 57.0285L17.8968 57.2493L17.958 57.4656L18.0295 57.6768L18.1108 57.883L18.2023 58.085L18.3033 58.2816L18.4128 58.4725L18.5312 58.6568L18.6584 58.8361L18.7938 59.0082L18.9373 59.1739L19.088 59.3324L19.2465 59.4831L19.4122 59.6266L19.5843 59.762L19.7636 59.8892L19.948 60.0076L20.1388 60.1171L20.3354 60.2182L20.5374 60.3097L20.7436 60.391L20.9548 60.4624L21.1712 60.5236L21.3919 60.5746L21.6161 60.6148L21.844 60.6437L22.076 60.6614L22.311 60.6672V61.9605L22.0107 61.9526L21.7141 61.9302L21.4208 61.8931L21.1327 61.8414L20.8494 61.7761L20.5718 61.6972L20.2993 61.6053L20.0333 61.5002L19.7741 61.3829L19.5217 61.2539L19.2765 61.1131L19.039 60.9607L18.8101 60.7975L18.589 60.624L18.3771 60.4403L18.1737 60.2467L17.9801 60.0433L17.7964 59.8314L17.623 59.6103L17.4597 59.3814L17.3073 59.1439L17.1665 58.8987L17.0376 58.6463L16.9202 58.3871L16.8151 58.1211L16.7232 57.8486L16.6443 57.571L16.579 57.2877L16.5273 56.9996L16.4902 56.7064L16.4678 56.4097L16.46 56.1094ZM22.311 50.2583V51.5516L22.076 51.5574L21.844 51.5751L21.6161 51.604L21.3919 51.6441L21.1712 51.6951L20.9548 51.7564L20.7436 51.8278L20.5374 51.9091L20.3354 52.0006L20.1388 52.1016L19.948 52.2112L19.7636 52.3295L19.5843 52.4567L19.4122 52.5921L19.2465 52.7357L19.088 52.8864L18.9373 53.0449L18.7938 53.2105L18.6584 53.3827L18.5312 53.5619L18.4128 53.7463L18.3033 53.9371L18.2023 54.1337L18.1108 54.3358L18.0295 54.5419L17.958 54.7532L17.8968 54.9695L17.8458 55.1903L17.8056 55.4144L17.7767 55.6423L17.759 55.8743L17.7532 56.1094H16.46L16.4678 55.809L16.4902 55.5124L16.5273 55.2192L16.579 54.9311L16.6443 54.6477L16.7232 54.3701L16.8151 54.0977L16.9202 53.8317L17.0376 53.5725L17.1665 53.3201L17.3073 53.0748L17.4597 52.8374L17.623 52.6085L17.7964 52.3874L17.9801 52.1754L18.1737 51.972L18.3771 51.7785L18.589 51.5948L18.8101 51.4213L19.039 51.258L19.2765 51.1056L19.5217 50.9648L19.7741 50.8359L20.0333 50.7185L20.2993 50.6134L20.5718 50.5216L20.8494 50.4427L21.1327 50.3774L21.4208 50.3257L21.7141 50.2886L22.0107 50.2661L22.311 50.2583Z" fill="#1DACA5"/>
<path d="M24.3703 64.5833H20.2517V63.29H24.3703V64.5833ZM31.68 70.5997H30.3867L30.3789 70.2912L30.3554 69.9868L30.317 69.6867L30.2639 69.3915L30.1969 69.1013L30.1153 68.8173L30.0204 68.538L29.9122 68.2649L29.7918 67.9989L29.6585 67.74L29.5132 67.4879L29.3561 67.2437L29.1877 67.0073L29.0081 66.7794L28.8186 66.5603L28.6189 66.3511L28.4094 66.1511L28.1907 65.9617L27.9628 65.782L27.7264 65.614L27.4821 65.4569L27.2301 65.3116L26.9712 65.1786L26.7049 65.0578L26.4317 64.9497L26.1528 64.8544L25.8684 64.7731L25.5786 64.7061L25.2833 64.6531L24.9833 64.6146L24.6789 64.5911L24.3703 64.5833V63.29L24.7449 63.2999L25.1146 63.3281L25.4799 63.3747L25.8392 63.4394L26.1922 63.5213L26.5392 63.6203L26.8787 63.736L27.2097 63.8673L27.5338 64.0139L27.8492 64.1762L28.155 64.3527L28.4516 64.5432L28.7376 64.7473L29.0139 64.9643L29.2795 65.1946L29.5333 65.4368L29.7758 65.6909L30.0054 65.9562L30.2224 66.2317L30.4269 66.5185L30.6174 66.8151L30.7939 67.1209L30.9558 67.4362L31.1028 67.7601L31.2341 68.0917L31.3494 68.4309L31.4487 68.7775L31.5307 69.1309L31.5953 69.4901L31.6419 69.8555L31.6702 70.2252L31.68 70.5997ZM30.3867 72.7141V70.5997H31.68V72.7141H30.3867ZM28.3682 76.0259V74.7327L28.4716 74.7303L28.5734 74.7221L28.6747 74.7092L28.7734 74.6915L28.87 74.669L28.9662 74.6415L29.0594 74.6102L29.1496 74.5741L29.2397 74.5333L29.3265 74.4888L29.4108 74.4398L29.4935 74.3871L29.5724 74.3306L29.6489 74.2704L29.7227 74.2064L29.7932 74.1391L29.8605 74.0687L29.9245 73.9949L29.9847 73.9183L30.0411 73.8394L30.0939 73.7567L30.1428 73.6724L30.1874 73.5856L30.2282 73.4955L30.2643 73.4054L30.2956 73.3122L30.3231 73.2159L30.3456 73.1193L30.3633 73.0206L30.3762 72.9193L30.3844 72.8176L30.3867 72.7141H31.68L31.6756 72.8842L31.6627 73.0519L31.6416 73.2166L31.6123 73.3798L31.5749 73.5404L31.5304 73.6965L31.478 73.851L31.4181 74.0023L31.3514 74.1483L31.2783 74.2915L31.198 74.4303L31.112 74.5639L31.0194 74.6939L30.9211 74.8187L30.817 74.9388L30.7075 75.0534L30.5929 75.163L30.4728 75.267L30.348 75.3654L30.218 75.4579L30.0843 75.5439L29.9456 75.6242L29.8023 75.6974L29.6564 75.764L29.505 75.8239L29.3506 75.8763L29.1945 75.9208L29.0339 75.9582L28.8707 75.9875L28.706 76.0086L28.5383 76.0215L28.3682 76.0259ZM16.2538 74.7327H28.3682V76.0259H16.2538V74.7327ZM12.942 72.7141H14.2353L14.2377 72.8176L14.2458 72.9193L14.2588 73.0206L14.2765 73.1193L14.2989 73.2159L14.3265 73.3122L14.3578 73.4054L14.3938 73.4955L14.4346 73.5856L14.4792 73.6724L14.5282 73.7567L14.5809 73.8394L14.6374 73.9183L14.6976 73.9949L14.7615 74.0687L14.8289 74.1391L14.8993 74.2064L14.9731 74.2704L15.0496 74.3306L15.1286 74.3871L15.2112 74.4398L15.2956 74.4888L15.3823 74.5333L15.4725 74.5741L15.5626 74.6102L15.6558 74.6415L15.7521 74.669L15.8487 74.6915L15.9473 74.7092L16.0487 74.7221L16.1504 74.7303L16.2538 74.7327V76.0259L16.0837 76.0215L15.916 76.0086L15.7514 75.9875L15.5881 75.9582L15.4276 75.9208L15.2714 75.8763L15.117 75.8239L14.9656 75.764L14.8197 75.6974L14.6765 75.6242L14.5377 75.5439L14.404 75.4579L14.2741 75.3654L14.1492 75.267L14.0292 75.163L13.9145 75.0534L13.805 74.9388L13.7009 74.8187L13.6026 74.6939L13.5101 74.5639L13.424 74.4303L13.3437 74.2915L13.2706 74.1483L13.2039 74.0023L13.1441 73.851L13.0917 73.6965L13.0471 73.5404L13.0097 73.3798L12.9805 73.2166L12.9594 73.0519L12.9464 72.8842L12.942 72.7141ZM14.2353 70.5997V72.7141H12.942V70.5997H14.2353ZM20.2517 63.29V64.5833L19.9432 64.5911L19.6387 64.6146L19.3387 64.6531L19.0435 64.7061L18.7536 64.7731L18.4693 64.8544L18.1903 64.9497L17.9172 65.0578L17.6508 65.1786L17.392 65.3116L17.1399 65.4569L16.8957 65.614L16.6593 65.782L16.4314 65.9617L16.2126 66.1511L16.0031 66.3511L15.8034 66.5603L15.614 66.7794L15.4344 67.0073L15.266 67.2437L15.1088 67.4879L14.9636 67.74L14.8302 67.9989L14.7098 68.2649L14.6017 68.538L14.5067 68.8173L14.4251 69.1013L14.3581 69.3915L14.305 69.6867L14.2666 69.9868L14.2431 70.2912L14.2353 70.5997H12.942L12.9519 70.2252L12.9801 69.8555L13.0267 69.4901L13.0913 69.1309L13.1733 68.7775L13.2727 68.4309L13.388 68.0917L13.5193 67.7601L13.6662 67.4362L13.8281 67.1209L14.0047 66.8151L14.1952 66.5185L14.3996 66.2317L14.6166 65.9562L14.8462 65.6909L15.0888 65.4368L15.3425 65.1946L15.6082 64.9643L15.8844 64.7473L16.1705 64.5432L16.4671 64.3527L16.7729 64.1762L17.0882 64.0139L17.4124 63.8673L17.7434 63.736L18.0828 63.6203L18.4298 63.5213L18.7829 63.4394L19.1421 63.3747L19.5074 63.3281L19.8772 63.2999L20.2517 63.29Z" fill="#1DACA5"/>
<path d="M67.4376 45.0568L67.4321 43.5268L67.8573 43.5145L68.2757 43.4812L68.688 43.4275L69.0935 43.3533L69.4921 43.2601L69.8826 43.1478L70.265 43.0169L70.6385 42.8682L71.0024 42.7016L71.3576 42.5182L71.7021 42.3189L72.0355 42.1032L72.358 41.8719L72.6689 41.6263L72.9669 41.3661L73.2523 41.0919L73.5244 40.8045L73.7826 40.5041L74.0265 40.1922L74.255 39.868L74.4683 39.5326L74.6656 39.1867L74.8462 38.8309L75.0099 38.4656L75.1561 38.0907L75.2844 37.7073L75.3939 37.3158L75.4847 36.9172L75.5555 36.5113L75.6068 36.0984L75.6368 35.6797L75.6463 35.2545L77.1763 35.249L77.1654 35.7511L77.1294 36.2474L77.0692 36.7365L76.9848 37.2185L76.877 37.692L76.747 38.1564L76.595 38.6111L76.4215 39.0561L76.2273 39.4901L76.0126 39.9126L75.7786 40.3225L75.5259 40.7198L75.2551 41.1038L74.9663 41.4743L74.6605 41.8297L74.338 42.1702L74.0003 42.4947L73.6465 42.8033L73.2784 43.0944L72.8968 43.3679L72.5008 43.6237L72.0923 43.8605L71.6719 44.0778L71.2392 44.2751L70.7956 44.4517L70.3418 44.6071L69.8779 44.7405L69.4057 44.8514L68.9247 44.9391L68.4356 45.0031L67.9396 45.0425L67.4376 45.0568ZM57.6298 35.3181L59.1598 35.3126L59.172 35.7378L59.2054 36.1562L59.2591 36.5685L59.3333 36.9743L59.4265 37.3726L59.5391 37.7631L59.6697 38.1455L59.8187 38.519L59.985 38.8833L60.168 39.2377L60.368 39.5826L60.5834 39.9163L60.8143 40.2381L61.0606 40.549L61.3208 40.8477L61.595 41.1331L61.8821 41.4049L62.1828 41.6631L62.4951 41.9069L62.8189 42.1359L63.1543 42.3488L63.4999 42.5461L63.856 42.7267L64.2217 42.8903L64.5962 43.0366L64.9796 43.1649L65.3708 43.2747L65.7691 43.3652L66.1752 43.436L66.5882 43.4873L67.0069 43.5173L67.4321 43.5268L67.4376 45.0568L66.9355 45.0459L66.4392 45.0099L65.9501 44.9497L65.4684 44.8653L64.9945 44.7578L64.5299 44.6275L64.0751 44.4755L63.6305 44.302L63.1968 44.1078L62.7747 43.8931L62.3644 43.6598L61.9671 43.4067L61.5828 43.1356L61.2127 42.8468L60.8575 42.541L60.5167 42.2189L60.1922 41.8804L59.8837 41.5273L59.5925 41.1593L59.3187 40.7769L59.0632 40.3813L58.8264 39.9731L58.6087 39.552L58.4118 39.1197L58.2349 38.6761L58.0798 38.2223L57.9461 37.759L57.8352 37.2859L57.7475 36.8052L57.6835 36.3161L57.644 35.8201L57.6298 35.3181ZM67.3685 25.5103L67.374 27.0403L66.9488 27.0525L66.5304 27.0859L66.1181 27.1396L65.7126 27.2138L65.3143 27.307L64.9235 27.4196L64.5411 27.5502L64.1676 27.6992L63.8033 27.8655L63.4489 28.0485L63.1039 28.2485L62.7702 28.4639L62.4485 28.6948L62.1376 28.9411L61.8392 29.2013L61.5538 29.4755L61.2814 29.7629L61.0235 30.0629L60.7796 30.3752L60.551 30.699L60.3378 31.0344L60.1405 31.3804L59.9599 31.7365L59.7962 32.1019L59.65 32.4764L59.5217 32.8597L59.4122 33.2513L59.3214 33.6499L59.2506 34.0557L59.1993 34.4687L59.1693 34.8874L59.1598 35.3126L57.6298 35.3181L57.6406 34.816L57.6767 34.3197L57.7369 33.8305L57.8213 33.3485L57.9291 32.875L58.059 32.4107L58.2111 31.9559L58.3846 31.5107L58.5788 31.0773L58.7934 30.6552L59.0275 30.2446L59.2802 29.8473L59.551 29.4636L59.8398 29.0928L60.1459 28.7377L60.4681 28.3972L60.8058 28.0727L61.1593 27.7641L61.5273 27.473L61.9096 27.1991L62.3053 26.9437L62.7134 26.7069L63.1346 26.4892L63.5669 26.2923L64.0105 26.1154L64.4642 25.9603L64.9279 25.8266L65.4004 25.7157L65.8813 25.6279L66.3705 25.564L66.8664 25.5245L67.3685 25.5103ZM77.1763 35.249L75.6463 35.2545L75.634 34.8293L75.6007 34.4109L75.547 33.9986L75.4728 33.5931L75.3796 33.1948L75.267 32.8039L75.1364 32.4223L74.9874 32.0485L74.8211 31.6838L74.6381 31.3297L74.4381 30.9848L74.2224 30.6511L73.9918 30.3289L73.7458 30.0184L73.4853 29.7197L73.2111 29.4343L72.9237 29.1619L72.624 28.904L72.3114 28.6605L71.9872 28.4315L71.6521 28.2183L71.3062 28.021L70.9501 27.8403L70.5847 27.6767L70.2102 27.5305L69.8269 27.4022L69.4353 27.2927L69.0367 27.2019L68.6309 27.1311L68.2179 27.0797L67.7992 27.0498L67.374 27.0403L67.3685 25.5103L67.8706 25.5211L68.3669 25.5572L68.856 25.6174L69.338 25.7018L69.8115 25.8096L70.2759 25.9395L70.7307 26.0916L71.1759 26.2651L71.6093 26.4593L72.0314 26.6739L72.442 26.908L72.8396 27.1607L73.223 27.4318L73.5934 27.7203L73.9489 28.0264L74.2894 28.3485L74.6139 28.687L74.9221 29.0401L75.2136 29.4078L75.4878 29.7905L75.7429 30.1861L75.9796 30.5943L76.1974 31.0151L76.3943 31.4477L76.5712 31.891L76.7263 32.3447L76.86 32.8084L76.9709 33.2809L77.0586 33.7618L77.1226 34.251L77.162 34.7469L77.1763 35.249Z" fill="#1DACA5"/>
<path d="M63.4247 36.1156C63.0066 36.1156 62.6675 35.7741 62.6675 35.353C62.6675 34.9319 63.0066 34.5903 63.4247 34.5903V36.1156ZM71.5208 36.1156H63.4247V34.5903H71.5208V36.1156ZM71.5208 34.5903C71.9389 34.5903 72.278 34.9319 72.278 35.353C72.278 35.7741 71.9389 36.1156 71.5208 36.1156V34.5903Z" fill="#FFCE1A"/>
<path d="M55.6021 47.9768H44.0037" stroke="#FFCE1A" stroke-width="1.70003" stroke-miterlimit="22.9256" stroke-linecap="round" stroke-linejoin="round"/>
<path d="M58.5957 61.7012H44.3502" stroke="#FFCE1A" stroke-width="1.70003" stroke-miterlimit="22.9256" stroke-linecap="round" stroke-linejoin="round"/>
<path d="M35.8127 34.6372C35.514 34.9358 35.0279 34.9341 34.7272 34.6334C34.4265 34.3327 34.4248 33.8466 34.7235 33.548L35.8127 34.6372ZM39.7191 30.7308L35.8127 34.6372L34.7235 33.548L38.6299 29.6416L39.7191 30.7308ZM38.6299 29.6416C38.9286 29.3429 39.4146 29.3446 39.7153 29.6453C40.016 29.946 40.0177 30.4321 39.7191 30.7308L38.6299 29.6416Z" fill="#FFCE1A"/>
<path d="M34.7238 34.6371L35.813 33.5479C36.1117 33.8466 36.11 34.3327 35.8093 34.6334C35.5086 34.9341 35.0225 34.9358 34.7238 34.6371ZM32.7706 32.6839L33.8598 31.5947L35.813 33.5479L34.7238 34.6371L32.7706 32.6839ZM33.8598 31.5947L32.7706 32.6839C32.472 32.3853 32.4737 31.8992 32.7744 31.5985C33.0751 31.2978 33.5612 31.2961 33.8598 31.5947Z" fill="#FFCE1A"/>
<path d="M35.8127 48.2473C35.514 48.5459 35.0279 48.5442 34.7272 48.2435C34.4265 47.9428 34.4248 47.4567 34.7235 47.1581L35.8127 48.2473ZM39.7191 44.3409L35.8127 48.2473L34.7235 47.1581L38.6299 43.2517L39.7191 44.3409ZM38.6299 43.2517C38.9286 42.953 39.4146 42.9547 39.7153 43.2554C40.016 43.5561 40.0177 44.0422 39.7191 44.3409L38.6299 43.2517Z" fill="#FFCE1A"/>
<path d="M34.7238 48.2472L35.813 47.158C36.1117 47.4567 36.11 47.9428 35.8093 48.2435C35.5086 48.5442 35.0225 48.5459 34.7238 48.2472ZM32.7706 46.294L33.8598 45.2048L35.813 47.158L34.7238 48.2472L32.7706 46.294ZM33.8598 45.2048L32.7706 46.294C32.472 45.9954 32.4737 45.5093 32.7744 45.2086C33.0751 44.9079 33.5612 44.9062 33.8598 45.2048Z" fill="#FFCE1A"/>
<path d="M35.8127 61.9402C35.514 62.2388 35.0279 62.2371 34.7272 61.9364C34.4265 61.6357 34.4248 61.1496 34.7235 60.851L35.8127 61.9402ZM39.7191 58.0338L35.8127 61.9402L34.7235 60.851L38.6299 56.9446L39.7191 58.0338ZM38.6299 56.9446C38.9286 56.6459 39.4146 56.6476 39.7153 56.9483C40.016 57.249 40.0177 57.7351 39.7191 58.0338L38.6299 56.9446Z" fill="#FFCE1A"/>
<path d="M34.7238 61.9401L35.813 60.8509C36.1117 61.1496 36.11 61.6356 35.8093 61.9363C35.5086 62.237 35.0225 62.2387 34.7238 61.9401ZM32.7706 59.9869L33.8598 58.8977L35.813 60.8509L34.7238 61.9401L32.7706 59.9869ZM33.8598 58.8977L32.7706 59.9869C32.472 59.6882 32.4737 59.2021 32.7744 58.9014C33.0751 58.6007 33.5612 58.599 33.8598 58.8977Z" fill="#FFCE1A"/>
<path d="M53.3607 34.1709H44.3502" stroke="#FFCE1A" stroke-width="1.70003" stroke-miterlimit="22.9256" stroke-linecap="round" stroke-linejoin="round"/>
<path d="M68.2352 39.4007C68.2352 39.8187 67.8937 40.1579 67.4726 40.1579C67.0515 40.1579 66.71 39.8187 66.71 39.4007H68.2352ZM68.2352 31.3046V39.4007H66.71V31.3046H68.2352ZM66.71 31.3046C66.71 30.8865 67.0515 30.5474 67.4726 30.5474C67.8937 30.5474 68.2352 30.8865 68.2352 31.3046H66.71Z" fill="#FFCE1A"/>
</svg>
