<svg width="10" height="11" viewBox="0 0 10 11" fill="none" xmlns="http://www.w3.org/2000/svg">
<path d="M7.7085 5.9585C7.86433 5.9585 8.01558 5.97683 8.16683 5.99975V4.5835C8.16683 4.34038 8.07025 4.10722 7.89834 3.93532C7.72644 3.76341 7.49328 3.66683 7.25016 3.66683H6.79183V2.75016C6.79183 1.48516 5.76516 0.458496 4.50016 0.458496C3.23516 0.458496 2.2085 1.48516 2.2085 2.75016V3.66683H1.75016C1.50705 3.66683 1.27389 3.76341 1.10198 3.93532C0.930073 4.10722 0.833496 4.34038 0.833496 4.5835V9.16683C0.833496 9.67558 1.24141 10.0835 1.75016 10.0835H5.32975C5.096 9.68016 4.9585 9.21266 4.9585 8.7085C4.9585 7.19141 6.19141 5.9585 7.7085 5.9585ZM3.12516 2.75016C3.12516 1.98933 3.73933 1.37516 4.50016 1.37516C5.261 1.37516 5.87516 1.98933 5.87516 2.75016V3.66683H3.12516V2.75016ZM4.50016 7.79183C4.31886 7.79183 4.14164 7.73807 3.99089 7.63734C3.84015 7.53662 3.72265 7.39346 3.65327 7.22596C3.58389 7.05846 3.56574 6.87415 3.60111 6.69633C3.63648 6.51851 3.72378 6.35518 3.85198 6.22698C3.98018 6.09878 4.14351 6.01148 4.32133 5.97611C4.49915 5.94074 4.68346 5.95889 4.85096 6.02827C5.01846 6.09765 5.16162 6.21515 5.26234 6.36589C5.36307 6.51664 5.41683 6.69386 5.41683 6.87516C5.41683 7.38391 5.00891 7.79183 4.50016 7.79183ZM9.31266 7.90641L7.13558 10.0835L5.87516 8.7085L6.40683 8.17683L7.13558 8.90558L8.781 7.26016L9.31266 7.90641Z" fill="#FFBC2C"/>
</svg>
