<svg width="23" height="21" viewBox="0 0 23 21" fill="none" xmlns="http://www.w3.org/2000/svg">
<path d="M0 17.85V15.75H2.29091V8.4C2.29091 6.9475 2.76818 5.6567 3.72273 4.5276C4.67727 3.3992 5.91818 2.66 7.44545 2.31V0H10.8818V2.31C12.4091 2.66 13.65 3.3992 14.6045 4.5276C15.5591 5.6567 16.0364 6.9475 16.0364 8.4V15.75H18.3273V17.85H0ZM9.16364 21C8.53364 21 7.99451 20.7945 7.54625 20.3836C7.09724 19.972 6.87273 19.4775 6.87273 18.9H11.4545C11.4545 19.4775 11.2304 19.972 10.7822 20.3836C10.3331 20.7945 9.79364 21 9.16364 21Z" fill="black" fill-opacity="0.2"/>
<circle cx="17.5" cy="5.5" r="5.5" fill="#1DACA5"/>
<circle cx="17.5" cy="5.5" r="4.75" stroke="black" stroke-opacity="0.2" stroke-width="1.5"/>
<path d="M17 3.5V6H19" stroke="black" stroke-opacity="0.2" stroke-width="1.5" stroke-linecap="round"/>
</svg>
