<svg width="13" height="15" viewBox="0 0 13 15" fill="none" xmlns="http://www.w3.org/2000/svg">
<path d="M12 2C12 1.73478 11.8946 1.48043 11.7071 1.29289C11.5196 1.10536 11.2652 1 11 1H9V0H8V1H4V0H3V1H1C0.734784 1 0.48043 1.10536 0.292893 1.29289C0.105357 1.48043 0 1.73478 0 2V12C0 12.2652 0.105357 12.5196 0.292893 12.7071C0.48043 12.8946 0.734784 13 1 13H3V12H1V2H3V3H4V2H8V3H9V2H11V5H12V2Z" fill="#1DACA5"/>
<path d="M5 12.7917V11.875H6V8.66667C6 8.03264 6.20833 7.46919 6.625 6.97633C7.04167 6.48378 7.58333 6.16111 8.25 6.00833V5H9.75V6.00833C10.4167 6.16111 10.9583 6.48378 11.375 6.97633C11.7917 7.46919 12 8.03264 12 8.66667V11.875H13V12.7917H5ZM9 14.1667C8.725 14.1667 8.48967 14.077 8.294 13.8976C8.098 13.718 8 13.5021 8 13.25H10C10 13.5021 9.90217 13.718 9.7065 13.8976C9.5105 14.077 9.275 14.1667 9 14.1667Z" fill="#1DACA5"/>
</svg>
