<svg width="90" height="90" viewBox="0 0 90 90" fill="none" xmlns="http://www.w3.org/2000/svg">
<path d="M46.7967 71.6263C47.2192 71.6263 47.5617 71.9689 47.5617 72.3913C47.5617 72.8138 47.2192 73.1563 46.7967 73.1563V71.6263ZM27.0318 71.6263H46.7967V73.1563H27.0318V71.6263ZM20.6599 66.7841H22.1899L22.1964 67.0325L22.2151 67.2777L22.2461 67.5196L22.2886 67.7567L22.3427 67.9893L22.4083 68.2186L22.4842 68.4428L22.5716 68.6622L22.6689 68.8765L22.776 69.0853L22.8931 69.2881L23.0193 69.4847L23.155 69.6752L23.2992 69.8585L23.4519 70.0347L23.6128 70.2034L23.7816 70.3643L23.9578 70.5171L24.1411 70.6613L24.3316 70.797L24.5282 70.9232L24.7309 71.0402L24.9398 71.1474L25.1541 71.2447L25.3735 71.3321L25.5977 71.4079L25.8266 71.4736L26.0596 71.5277L26.297 71.5702L26.5382 71.6011L26.7835 71.6199L27.0318 71.6263V73.1563L26.7052 73.1478L26.3831 73.123L26.065 73.0825L25.7514 73.0264L25.4429 72.9546L25.1412 72.8686L24.8449 72.7676L24.5554 72.6529L24.2738 72.525L23.9989 72.3839L23.7322 72.2301L23.4737 72.0638L23.224 71.8859L22.9835 71.6967L22.7522 71.4964L22.5311 71.2851L22.3199 71.064L22.1195 70.8327L21.9304 70.5922L21.7525 70.3426L21.5862 70.084L21.4324 69.8174L21.2912 69.5425L21.1633 69.2609L21.0487 68.9714L20.9477 68.6751L20.8616 68.373L20.7899 68.0648L20.7337 67.7509L20.6932 67.4328L20.6684 67.1107L20.6599 66.7841ZM22.1899 19.0625V66.7841H20.6599V19.0625H22.1899ZM27.0318 12.6907V14.2207L26.7835 14.2272L26.5382 14.2459L26.2967 14.2768L26.0596 14.3194L25.8263 14.3734L25.5973 14.4391L25.3735 14.5149L25.1538 14.6024L24.9395 14.6997L24.7309 14.8068L24.5282 14.9238L24.3316 15.05L24.1411 15.1857L23.9578 15.33L23.7816 15.4827L23.6128 15.6436L23.4519 15.8123L23.2992 15.9885L23.155 16.1719L23.0193 16.3624L22.8931 16.559L22.776 16.7617L22.6689 16.9702L22.5716 17.1845L22.4842 17.4043L22.4083 17.6281L22.3427 17.857L22.2886 18.0904L22.2461 18.3275L22.2151 18.569L22.1964 18.8142L22.1899 19.0625H20.6599L20.6684 18.736L20.6932 18.4139L20.7337 18.0955L20.7899 17.7822L20.8616 17.474L20.9477 17.1716L21.0487 16.8757L21.1633 16.5865L21.2912 16.3042L21.4324 16.0297L21.5862 15.763L21.7525 15.5045L21.9304 15.2548L22.1195 15.0143L22.3199 14.783L22.5311 14.5619L22.7522 14.3507L22.9835 14.1503L23.224 13.9612L23.4737 13.7833L23.7322 13.6169L23.9989 13.4632L24.2734 13.322L24.5558 13.1941L24.8449 13.0795L25.1408 12.9784L25.4432 12.8924L25.7514 12.8206L26.0647 12.7645L26.3831 12.724L26.7052 12.6992L27.0318 12.6907ZM47.2957 14.2207H27.0318V12.6907H47.2957V14.2207ZM53.6676 19.0625H52.1376L52.1311 18.8142L52.1124 18.569L52.0814 18.3278L52.0389 18.0904L51.9848 17.8574L51.9192 17.6284L51.8433 17.4043L51.7559 17.1849L51.6586 16.9706L51.5515 16.7617L51.4345 16.559L51.3083 16.3624L51.1725 16.1719L51.0283 15.9885L50.8756 15.8123L50.7147 15.6436L50.546 15.4827L50.3698 15.33L50.1864 15.1857L49.9959 15.05L49.7993 14.9238L49.5966 14.8068L49.3881 14.6997L49.1738 14.6024L48.954 14.5149L48.7302 14.4391L48.5013 14.3734L48.2679 14.3194L48.0308 14.2768L47.7893 14.2459L47.5441 14.2272L47.2957 14.2207V12.6907L47.6223 12.6992L47.9444 12.724L48.2628 12.7645L48.5761 12.8206L48.8843 12.8924L49.1867 12.9784L49.4826 13.0795L49.7718 13.1941L50.0541 13.322L50.3286 13.4632L50.5953 13.6169L50.8538 13.7833L51.1035 13.9612L51.344 14.1503L51.5753 14.3507L51.7964 14.5619L52.0076 14.783L52.208 15.0143L52.3971 15.2548L52.575 15.5045L52.7413 15.763L52.8951 16.0297L53.0363 16.3045L53.1642 16.5862L53.2788 16.8757L53.3798 17.1719L53.4659 17.4737L53.5377 17.7822L53.5938 18.0958L53.6343 18.4139L53.6591 18.736L53.6676 19.0625ZM52.1376 42.5822V19.0625H53.6676V42.5822H52.1376ZM53.6676 42.5822C53.6676 43.0046 53.3251 43.3472 52.9026 43.3472C52.4801 43.3472 52.1376 43.0046 52.1376 42.5822H53.6676Z" fill="#FFCE1A"/>
<path d="M25.2197 23.2799C24.7973 23.2799 24.4547 22.9373 24.4547 22.5148C24.4547 22.0924 24.7973 21.7498 25.2197 21.7498V23.2799ZM48.9982 23.2799H25.2197V21.7498H48.9982V23.2799ZM48.9982 21.7498C49.4207 21.7498 49.7632 22.0924 49.7632 22.5148C49.7632 22.9373 49.4207 23.2799 48.9982 23.2799V21.7498Z" fill="#FFCE1A"/>
<path d="M34.9439 18.7084C34.5214 18.7084 34.1788 18.3659 34.1788 17.9434C34.1788 17.5209 34.5214 17.1784 34.9439 17.1784V18.7084ZM42.1056 18.7084H34.9439V17.1784H42.1056V18.7084ZM42.1056 17.1784C42.528 17.1784 42.8706 17.5209 42.8706 17.9434C42.8706 18.3659 42.528 18.7084 42.1056 18.7084V17.1784Z" fill="#FFCE1A"/>
<path d="M35.0255 46.379C35.4238 46.5192 35.6337 46.9563 35.4936 47.3546C35.3534 47.7529 34.9163 47.9628 34.518 47.8226L35.0255 46.379ZM30.5779 44.7908L31.8195 43.8969L31.9335 44.0618L32.0801 44.2578L32.2338 44.4473L32.3947 44.6313L32.5621 44.8088L32.7362 44.9799L32.9165 45.1442L33.1033 45.3017L33.2958 45.4524L33.4944 45.596L33.6982 45.732L33.9071 45.8599L34.1214 45.98L34.3408 46.0926L34.5642 46.1967L34.7928 46.2923L35.0255 46.379L34.518 47.8226L34.2295 47.7148L33.9465 47.5961L33.6693 47.4675L33.3982 47.3284L33.1329 47.1797L32.8737 47.0206L32.6216 46.8525L32.3767 46.6756L32.1386 46.4896L31.9076 46.2947L31.6845 46.0909L31.4695 45.8797L31.262 45.6599L31.0637 45.433L30.8732 45.198L30.6919 44.9558L30.5779 44.7908ZM30.5779 44.7908C30.3313 44.4483 30.4092 43.9697 30.7517 43.7231C31.0943 43.4764 31.5729 43.5543 31.8195 43.8969L30.5779 44.7908ZM30.8123 41.3766C30.8956 41.7906 30.6276 42.1947 30.2136 42.2781C29.7996 42.3614 29.3955 42.0933 29.3122 41.6794L30.8123 41.3766ZM29.1918 40.3004H30.7218L30.7269 40.5633L30.7426 40.8225L30.7684 41.079L30.8041 41.3331L30.8123 41.3766L29.3122 41.6794L29.2931 41.5753L29.2493 41.262L29.2173 40.945L29.1982 40.6239L29.1918 40.3004ZM30.0354 36.7318L31.4137 37.3957L31.3565 37.5077L31.228 37.7927L31.1127 38.0856L31.0113 38.3843L30.9245 38.6897L30.8524 39.0013L30.796 39.318L30.7551 39.6405L30.7303 39.968L30.7218 40.3004H29.1918L29.2023 39.8912L29.2326 39.4867L29.2836 39.0874L29.3537 38.6945L29.4428 38.3087L29.55 37.9298L29.6758 37.559L29.8183 37.1974L29.9782 36.8437L30.0354 36.7318ZM30.0354 36.7318C30.2187 36.3515 30.6762 36.1912 31.0565 36.3746C31.4368 36.5579 31.597 37.0155 31.4137 37.3957L30.0354 36.7318ZM33.1176 35.2891C32.7917 35.5579 32.309 35.5119 32.0403 35.1861C31.7715 34.8602 31.8175 34.3775 32.1433 34.1088L33.1176 35.2891ZM36.812 32.3376L36.8889 33.8656L36.8311 33.8669L36.5035 33.8918L36.1814 33.9326L35.864 33.9894L35.5528 34.0612L35.2476 34.1479L34.9483 34.2493L34.6561 34.3646L34.371 34.4932L34.0931 34.6354L33.8237 34.7905L33.5625 34.9582L33.3097 35.1378L33.1176 35.2891L32.1433 34.1088L32.3934 33.9125L32.706 33.6901L33.0291 33.4829L33.3631 33.291L33.707 33.1148L34.0601 32.955L34.4224 32.8124L34.7932 32.6866L35.1718 32.5794L35.5579 32.49L35.9507 32.4202L36.3497 32.3692L36.7542 32.3389L36.812 32.3376ZM36.812 32.3376C37.2338 32.3165 37.5934 32.6413 37.6145 33.0631C37.6355 33.4849 37.3107 33.8445 36.8889 33.8656L36.812 32.3376ZM39.5809 34.3289C39.1843 34.1836 38.9805 33.7438 39.1258 33.3472C39.271 32.9505 39.7109 32.7468 40.1075 32.892L39.5809 34.3289ZM43.9316 36.0885L42.6634 36.945L42.5056 36.6991L42.326 36.4464L42.1345 36.2032L41.9318 35.9688L41.7188 35.745L41.495 35.532L41.2606 35.3293L41.0174 35.1378L40.7647 34.9582L40.5038 34.7905L40.2337 34.6354L39.9561 34.4932L39.6711 34.3646L39.5809 34.3289L40.1075 32.892L40.2663 32.955L40.6201 33.1148L40.9637 33.291L41.2977 33.4829L41.6212 33.6901L41.9338 33.9125L42.2348 34.1489L42.5236 34.3993L42.8005 34.6633L43.0645 34.9401L43.3148 35.2289L43.5513 35.53L43.7737 35.8426L43.9316 36.0885ZM43.9316 36.0885C44.168 36.4385 44.0758 36.9144 43.7258 37.1508C43.3757 37.3872 42.8998 37.2951 42.6634 36.945L43.9316 36.0885ZM43.5536 39.4952C43.49 39.0778 43.7771 38.6873 44.1945 38.6237C44.6119 38.5601 45.0024 38.8472 45.066 39.2646L43.5536 39.4952ZM45.1354 40.3004H43.6053L43.5968 39.968L43.572 39.6405L43.5536 39.4952L45.066 39.2646L45.0946 39.4867L45.1248 39.8912L45.1354 40.3004ZM44.7302 42.8152L43.2784 42.3328L43.2975 42.2733L43.3172 42.2117L43.3356 42.1512L43.3536 42.0906L43.3703 42.0318L43.387 41.9692L43.404 41.9063L43.4189 41.8464L43.4336 41.7848L43.4478 41.7226L43.4618 41.66L43.4747 41.5977L43.4876 41.5331L43.4996 41.4698L43.5108 41.4079L43.5213 41.3447L43.5315 41.2804L43.5407 41.2164L43.5496 41.1521L43.5577 41.0889L43.5652 41.0242L43.5723 40.9572L43.5785 40.8936L43.5839 40.8297L43.589 40.762L43.5934 40.696L43.5972 40.6334L43.5999 40.5667L43.6023 40.498L43.604 40.433L43.605 40.3677L43.6053 40.3004H45.1354L45.135 40.382L45.134 40.465L45.1316 40.5477L45.1286 40.6266L45.1252 40.7075L45.1207 40.7919L45.115 40.8722L45.1092 40.9508L45.1024 41.0324L45.0942 41.1144L45.0857 41.1923L45.0769 41.2719L45.0667 41.3528L45.0558 41.4321L45.0439 41.511L45.0316 41.5896L45.0184 41.6685L45.0044 41.7481L44.9891 41.8263L44.9741 41.9025L44.9578 41.9804L44.9411 42.0573L44.9235 42.1345L44.9047 42.2117L44.885 42.29L44.8653 42.3645L44.8452 42.4393L44.8231 42.5165L44.801 42.592L44.7779 42.6669L44.7547 42.7407L44.7302 42.8152ZM44.7302 42.8152C44.5972 43.2159 44.1639 43.4329 43.7632 43.2999C43.3625 43.1669 43.1454 42.7335 43.2784 42.3328L44.7302 42.8152Z" fill="#FFCE1A"/>
<path d="M34.7735 51.2803C35.1858 51.3715 35.4463 51.7804 35.3552 52.1926C35.264 52.6049 34.8551 52.8655 34.4428 52.7743L34.7735 51.2803ZM29.9976 50.8259L30.8644 49.5646L30.9151 49.601L31.3042 49.8568L31.7046 50.0962L32.1151 50.3191L32.5359 50.5248L32.9655 50.7126L33.4054 50.883L33.853 51.0344L34.3092 51.1671L34.7735 51.2803L34.4428 52.7743L33.9146 52.6454L33.3945 52.4944L32.8836 52.3212L32.3832 52.1277L31.893 51.9134L31.4137 51.679L30.9467 51.4256L30.4912 51.1528L30.0483 50.8623L29.9976 50.8259ZM29.9976 50.8259C29.6497 50.5868 29.5612 50.1099 29.8004 49.7619C30.0395 49.4139 30.5164 49.3254 30.8644 49.5646L29.9976 50.8259ZM28.7435 47.643C29.0221 47.9604 28.9901 48.4441 28.6727 48.7227C28.3554 49.0013 27.8717 48.9693 27.5931 48.6519L28.7435 47.643ZM25.1929 44.4404L26.6331 43.9241L26.7025 44.1319L26.8723 44.5755L27.0597 45.0098L27.2648 45.4344L27.4869 45.8487L27.7254 46.2524L27.9802 46.645L28.2499 47.0263L28.535 47.395L28.7435 47.643L27.5931 48.6519L27.3444 48.3557L27.0199 47.9366L26.7134 47.5036L26.4246 47.0579L26.1535 46.5991L25.9015 46.1283L25.6684 45.6459L25.4552 45.1524L25.2623 44.6483L25.1929 44.4404ZM25.1929 44.4404C25.0504 44.0428 25.2572 43.6046 25.6548 43.4621C26.0525 43.3196 26.4906 43.5264 26.6331 43.9241L25.1929 44.4404ZM26.0719 41.1245C26.1083 41.5453 25.7967 41.9168 25.3759 41.9532C24.9551 41.9896 24.5837 41.678 24.5473 41.2572L26.0719 41.1245ZM24.5095 40.3003H26.0396L26.0504 40.8028L26.0719 41.1245L24.5473 41.2572L24.5218 40.8694L24.5095 40.3003ZM25.1021 36.4331L26.5641 36.8834L26.5399 36.9556L26.3903 37.4889L26.2658 38.0325L26.1681 38.5863L26.097 39.1492L26.0538 39.7207L26.0396 40.3003H24.5095L24.5258 39.6445L24.5745 38.9962L24.6551 38.3577L24.7663 37.7291L24.9072 37.1114L25.0779 36.5052L25.1021 36.4331ZM25.1021 36.4331C25.2262 36.0296 25.6548 35.8031 26.0583 35.9273C26.4617 36.0514 26.6882 36.48 26.5641 36.8834L25.1021 36.4331ZM27.7696 34.2833C27.5519 34.6452 27.0815 34.7619 26.7195 34.5442C26.3576 34.3265 26.2409 33.856 26.4586 33.4941L27.7696 34.2833ZM29.7653 29.9428L30.6872 31.164L30.511 31.2905L30.0909 31.6242L29.6871 31.9773L29.3003 32.3495L28.9319 32.7403L28.5816 33.1482L28.2509 33.5727L27.9407 34.0132L27.7696 34.2833L26.4586 33.4941L26.6692 33.1628L27.0216 32.6624L27.3971 32.1794L27.7944 31.7164L28.2132 31.2732L28.6523 30.85L29.1112 30.4487L29.5891 30.0694L29.7653 29.9428ZM29.7653 29.9428C30.1024 29.6884 30.5824 29.7554 30.8368 30.0925C31.0913 30.4296 31.0243 30.9096 30.6872 31.164L29.7653 29.9428ZM33.205 29.7955C32.8165 29.9612 32.3665 29.7806 32.2009 29.3921C32.0352 29.0037 32.2158 28.5536 32.6043 28.388L33.205 29.7955ZM37.1634 27.5301V29.0601L36.5903 29.0748L36.0256 29.118L35.4694 29.1897L34.9218 29.2884L34.3843 29.4136L33.8574 29.5649L33.3407 29.7415L33.205 29.7955L32.6043 28.388L32.8108 28.306L33.3989 28.105L34 27.9325L34.6129 27.7896L35.2361 27.6774L35.8698 27.5961L36.5127 27.5468L37.1634 27.5301ZM37.3961 27.5359V29.0659L37.1634 29.0601V27.5301L37.3961 27.5359ZM37.3961 27.5359C37.8186 27.5359 38.1611 27.8784 38.1611 28.3009C38.1611 28.7234 37.8186 29.0659 37.3961 29.0659V27.5359ZM40.2215 29.4935C39.8126 29.3874 39.567 28.9696 39.6731 28.5608C39.7793 28.1519 40.197 27.9063 40.6059 28.0124L40.2215 29.4935ZM44.933 30.2238L44.0105 31.445L43.8159 31.2905L43.3802 30.9773L42.9285 30.6851L42.4628 30.415L41.9835 30.1667L41.4909 29.9422L40.9865 29.7415L40.4698 29.5649L40.2215 29.4935L40.6059 28.0124L40.9283 28.105L41.5165 28.306L42.0917 28.5346L42.6529 28.7911L43.1989 29.0734L43.7285 29.3809L44.2422 29.7132L44.7384 30.0694L44.933 30.2238ZM44.933 30.2238C45.2701 30.4782 45.3368 30.9586 45.0823 31.2957C44.8279 31.6328 44.3476 31.6994 44.0105 31.445L44.933 30.2238ZM46.0164 33.4961C45.7494 33.1689 45.7977 32.6866 46.1249 32.4195C46.4522 32.1525 46.9345 32.2008 47.2015 32.528L46.0164 33.4961ZM49.3547 36.8797L47.8927 37.3301L47.7876 36.9556L47.6125 36.4334L47.4131 35.9228L47.19 35.4252L46.944 34.9401L46.6763 34.4693L46.3869 34.0135L46.0763 33.573L46.0164 33.4961L47.2015 32.528L47.3056 32.6621L47.6584 33.1624L47.9873 33.6808L48.2918 34.2156L48.571 34.766L48.8241 35.3316L49.0506 35.9116L49.2496 36.5052L49.3547 36.8797ZM49.3547 36.8797C49.4789 37.2831 49.2524 37.7117 48.8489 37.8359C48.4455 37.9601 48.0169 37.7335 47.8927 37.3301L49.3547 36.8797ZM48.2846 40.165C48.2639 39.7432 48.5887 39.3836 49.0105 39.3629C49.4323 39.3421 49.7919 39.667 49.8126 40.0888L48.2846 40.165ZM49.818 40.3003H48.288L48.2846 40.165L49.8126 40.0888L49.818 40.3003ZM49.6636 42.2981L48.1519 42.062L48.1601 42.0083L48.1679 41.9552L48.1758 41.9005L48.1836 41.845L48.1907 41.7916L48.1979 41.7385L48.2043 41.6848L48.2108 41.629L48.2173 41.5736L48.223 41.5215L48.2288 41.4657L48.2346 41.4096L48.2394 41.3576L48.2441 41.3014L48.2492 41.2453L48.2537 41.1909L48.2577 41.1365L48.2615 41.082L48.2649 41.0256L48.2686 40.9688L48.2717 40.9137L48.2747 40.8589L48.2771 40.8041L48.2792 40.749L48.2812 40.6922L48.2832 40.6371L48.2843 40.582L48.2856 40.5242L48.2866 40.4691L48.2873 40.4112L48.288 40.3558V40.3003H49.818V40.3646L49.8174 40.4289L49.8167 40.4908L49.8157 40.5548L49.8143 40.6167L49.8126 40.6806L49.8106 40.7446L49.8085 40.8062L49.8058 40.8701L49.8027 40.9337L49.7997 40.9973L49.7959 41.0606L49.7922 41.1222L49.7881 41.1834L49.7837 41.2467L49.7789 41.3099L49.7738 41.3732L49.7687 41.4341L49.7633 41.495L49.7572 41.56L49.7507 41.6208L49.7449 41.6814L49.7378 41.7464L49.7306 41.8073L49.7235 41.8671L49.7157 41.9297L49.7078 41.9923L49.6993 42.0545L49.6908 42.1148L49.6823 42.175L49.6731 42.2369L49.6636 42.2981ZM49.6636 42.2981C49.5986 42.7155 49.2071 43.0009 48.7897 42.9359C48.3724 42.8709 48.087 42.4794 48.1519 42.062L49.6636 42.2981Z" fill="#FFCE1A"/>
<path d="M25.2197 63.1832C24.7973 63.1832 24.4547 62.8424 24.4547 62.4226C24.4547 62.0029 24.7973 61.662 25.2197 61.662V63.1832ZM34.8592 63.1832H25.2197V61.662H34.8592V63.1832ZM34.8592 61.662C35.2816 61.662 35.6242 62.0029 35.6242 62.4226C35.6242 62.8424 35.2816 63.1832 34.8592 63.1832V61.662Z" fill="#FFCE1A"/>
<path d="M35.6276 67.4491C35.2051 67.4491 34.8625 67.111 34.8625 66.6943C34.8625 66.2776 35.2051 65.9395 35.6276 65.9395V67.4491ZM38.7223 67.4491H35.6276V65.9395H38.7223V67.4491ZM38.7223 65.9395C39.1448 65.9395 39.4874 66.2776 39.4874 66.6943C39.4874 67.111 39.1448 67.4491 38.7223 67.4491V65.9395Z" fill="#FFCE1A"/>
<path d="M31.094 18.6646C30.6715 18.6646 30.329 18.3414 30.329 17.9434C30.329 17.5454 30.6715 17.2223 31.094 17.2223V18.6646ZM31.5498 18.6646H31.094V17.2223H31.5498V18.6646ZM31.5498 17.2223C31.9723 17.2223 32.3148 17.5454 32.3148 17.9434C32.3148 18.3414 31.9723 18.6646 31.5498 18.6646V17.2223Z" fill="#FFCE1A"/>
<path d="M44.1888 59.5959C44.3636 59.9803 44.1935 60.434 43.8092 60.6089C43.4248 60.7837 42.971 60.6136 42.7962 60.2293L44.1888 59.5959ZM36.5716 42.8471L44.1888 59.5959L42.7962 60.2293L35.179 43.4805L36.5716 42.8471ZM36.9356 38.7928L37.5689 40.1854L37.4764 40.2306L37.3869 40.2799L37.3005 40.3333L37.2186 40.3898L37.1407 40.4497L37.0655 40.514L36.993 40.582L36.9257 40.6517L36.8617 40.7249L36.8015 40.8011L36.7454 40.88L36.6923 40.9623L36.643 41.0473L36.5985 41.1327L36.5587 41.2201L36.5223 41.311L36.4903 41.4028L36.4631 41.4953L36.4396 41.5906L36.4209 41.6858L36.4073 41.7807L36.3978 41.8784L36.393 41.976V42.0729L36.3981 42.1702L36.408 42.2685L36.4223 42.3661L36.442 42.4631L36.4665 42.5604L36.4961 42.6556L36.5311 42.7515L36.5716 42.8471L35.179 43.4805L35.1086 43.3142L35.0463 43.1454L34.9936 42.974L34.95 42.8026L34.9153 42.6301L34.8895 42.4576L34.8722 42.2852L34.8636 42.1117V41.9392L34.8718 41.7681L34.8881 41.5984L34.9126 41.4287L34.9456 41.2613L34.9854 41.0973L35.0337 40.9341L35.0895 40.7742L35.1524 40.6174L35.2235 40.4619L35.3021 40.3106L35.3868 40.1643L35.4787 40.0214L35.5783 39.882L35.6848 39.7473L35.7984 39.617L35.9188 39.4921L36.045 39.3738L36.178 39.2605L36.3178 39.153L36.4638 39.0523L36.6148 38.9588L36.7723 38.872L36.9356 38.7928ZM37.2522 39.4891L36.9356 38.7928L37.2522 39.4891ZM41.6233 40.5497L40.2307 41.1831L40.1851 41.0899L40.1361 41.0004L40.0837 40.9154L40.0262 40.8327L39.966 40.7541L39.9021 40.679L39.8351 40.6075L39.765 40.5402L39.6912 40.4759L39.6143 40.4153L39.5351 40.3582L39.4538 40.3058L39.3701 40.2575L39.2837 40.2129L39.1949 40.1721L39.1054 40.1361L39.0136 40.1041L38.9207 40.0769L38.8265 40.0537L38.7302 40.035L38.6343 40.0211L38.5387 40.0116L38.4411 40.0071H38.3431L38.2448 40.0122L38.1475 40.0218L38.0499 40.0364L37.953 40.0558L37.8567 40.0806L37.7598 40.1102L37.6638 40.1452L37.5689 40.1854L36.9356 38.7928L37.1026 38.722L37.2713 38.6604L37.441 38.6077L37.6135 38.5638L37.786 38.5295L37.9584 38.5033L38.1319 38.4863L38.3044 38.4778H38.4758L38.6469 38.4856L38.8187 38.5019L38.9874 38.5268L39.1537 38.5591L39.3187 38.5992L39.4816 38.6475L39.6422 38.7033L39.7997 38.7666L39.9538 38.8373L40.1048 38.9152L40.2524 39.0009L40.3957 39.0935L40.5348 39.1928L40.6688 39.2989L40.7984 39.4122L40.9236 39.5326L41.0423 39.6592L41.1559 39.7922L41.2631 39.932L41.3634 40.0772L41.458 40.2296L41.5444 40.3871L41.6233 40.5497ZM45.5548 52.8893L40.2307 41.1831L41.6233 40.5497L46.9475 52.2559L45.5548 52.8893ZM46.9475 52.2559C47.1223 52.6403 46.9522 53.0941 46.5678 53.2689C46.1835 53.4438 45.7297 53.2737 45.5548 52.8893L46.9475 52.2559Z" fill="#1DACA5"/>
<path d="M63.7313 65.2643L54.2994 69.5537L53.666 68.1611L63.0979 63.8717L63.7313 65.2643ZM68.1557 65.7667L66.7631 66.4001L66.7118 66.2943L66.656 66.1932L66.5951 66.0953L66.5301 66.0011L66.4614 65.9116L66.3886 65.8262L66.3124 65.7449L66.2315 65.6674L66.1481 65.5942L66.0614 65.5258L65.9709 65.4612L65.8773 65.401L65.7824 65.3459L65.6841 65.2952L65.5838 65.249L65.4807 65.2078L65.377 65.1714L65.2708 65.1401L65.1634 65.1139L65.0548 65.0928L64.9453 65.0768L64.8358 65.0663L64.7239 65.0609H64.6133L64.5024 65.0666L64.3905 65.0779L64.2793 65.0942L64.1687 65.1166L64.0585 65.1445L63.949 65.1785L63.8395 65.2183L63.7313 65.2643L63.0979 63.8717L63.2782 63.7951L63.4598 63.7288L63.6435 63.6716L63.8292 63.6247L64.0153 63.5873L64.2014 63.5594L64.3874 63.5407L64.5745 63.5315H64.7606L64.9446 63.5403L65.129 63.5577L65.3113 63.5846L65.4913 63.6193L65.6695 63.6631L65.845 63.7148L66.0182 63.775L66.1879 63.8434L66.3543 63.9196L66.5172 64.0036L66.6767 64.0962L66.8308 64.1958L66.9805 64.3026L67.1264 64.418L67.2662 64.5401L67.4002 64.6693L67.5288 64.8057L67.6513 64.9496L67.7669 65.1003L67.8754 65.2571L67.9765 65.4204L68.0704 65.5908L68.1557 65.7667ZM67.606 68.2536L66.7631 66.4001L68.1557 65.7667L68.9986 67.6202L67.606 68.2536ZM67.1033 72.678L66.4699 71.2854L66.5757 71.2341L66.6774 71.1779L66.7757 71.117L66.8689 71.0528L66.9584 70.984L67.0438 70.9112L67.1257 70.8344L67.2029 70.7541L67.2761 70.6704L67.3448 70.5837L67.4091 70.4935L67.4693 70.4L67.5244 70.3051L67.5751 70.2071L67.6213 70.1061L67.6625 70.0034L67.6989 69.8993L67.7302 69.7931L67.7564 69.686L67.7775 69.5771L67.7935 69.468L67.804 69.3581L67.8095 69.2465V69.1356L67.8037 69.0251L67.7924 68.9132L67.7761 68.8016L67.7537 68.691L67.7258 68.5812L67.6918 68.4713L67.652 68.3618L67.606 68.2536L68.9986 67.6202L69.0752 67.8005L69.1415 67.9821L69.1987 68.1662L69.2456 68.3516L69.283 68.5376L69.3109 68.724L69.3296 68.9101L69.3388 69.0968V69.2832L69.33 69.4669L69.3126 69.6516L69.2857 69.8336L69.251 70.0139L69.2072 70.1918L69.1555 70.3673L69.0953 70.5408L69.0269 70.7102L68.9507 70.8765L68.8667 71.0398L68.7741 71.1994L68.6745 71.3535L68.5673 71.5035L68.4524 71.6487L68.3302 71.7889L68.2006 71.9229L68.0642 72.0515L67.9203 72.1739L67.7697 72.2896L67.6125 72.3981L67.4489 72.4991L67.2791 72.5927L67.1033 72.678ZM57.038 75.5752L66.4699 71.2854L67.1033 72.678L57.6713 76.9678L57.038 75.5752ZM52.6135 75.0724L54.0061 74.439L54.0575 74.5448L54.1136 74.6465L54.1742 74.7442L54.2388 74.8377L54.3079 74.9275L54.381 75.0132L54.4572 75.0949L54.5378 75.1721L54.6211 75.2452L54.7079 75.3136L54.7984 75.3782L54.8919 75.4384L54.9868 75.4935L55.0851 75.5442L55.1855 75.5905L55.2885 75.6316L55.3923 75.668L55.4984 75.6993L55.6059 75.7255L55.7144 75.7466L55.8239 75.7626L55.9335 75.7731L56.0454 75.7786H56.1559L56.2668 75.7728L56.3787 75.7616L56.49 75.7453L56.6005 75.7228L56.7107 75.6949L56.8203 75.6609L56.9298 75.6211L57.038 75.5752L57.6713 76.9678L57.4911 77.0443L57.3094 77.1106L57.1257 77.1678L56.94 77.2147L56.7539 77.2522L56.5679 77.28L56.3818 77.2988L56.1947 77.3079H56.0087L55.8246 77.2991L55.6403 77.2817L55.4579 77.2549L55.278 77.2202L55.0997 77.1763L54.9242 77.1246L54.7511 77.0644L54.5813 76.996L54.415 76.9198L54.2521 76.8358L54.0925 76.7433L53.9384 76.6436L53.7888 76.5368L53.6428 76.4215L53.503 76.2994L53.3687 76.1698L53.2401 76.033L53.118 75.8895L53.0027 75.7391L52.8938 75.5823L52.7924 75.418L52.6989 75.2483L52.6135 75.0724ZM53.1632 72.5858L54.0061 74.439L52.6135 75.0724L51.7706 73.2192L53.1632 72.5858ZM53.666 68.1611L54.2994 69.5537L54.1936 69.605L54.0925 69.6608L53.9946 69.7217L53.9003 69.7867L53.8109 69.8554L53.7255 69.9282L53.6442 70.0044L53.5666 70.0853L53.4935 70.1687L53.4251 70.2554L53.3605 70.3459L53.3003 70.4394L53.2452 70.5344L53.1945 70.6327L53.1482 70.733L53.1071 70.8361L53.0707 70.9398L53.0394 71.046L53.0129 71.1538L52.9918 71.2623L52.9761 71.3715L52.9652 71.481L52.9601 71.5922V71.7038L52.9659 71.8151L52.9768 71.9273L52.9931 72.0379L53.0153 72.1477L53.0438 72.2583L53.0778 72.3692L53.1173 72.4777L53.1632 72.5858L51.7706 73.2192L51.6941 73.0389L51.6274 72.8563L51.5709 72.6733L51.524 72.4886L51.4862 72.3018L51.4583 72.1144L51.44 71.9287L51.4308 71.7426V71.5569L51.4393 71.3722L51.457 71.1878L51.4835 71.0058L51.5189 70.8252L51.5624 70.6473L51.6141 70.4718L51.6743 70.2986L51.7427 70.1289L51.8189 69.9625L51.9029 69.7996L51.9955 69.6401L52.0951 69.486L52.2019 69.3363L52.3172 69.1904L52.4394 69.0506L52.5686 68.9166L52.705 68.788L52.8489 68.6655L52.9996 68.5499L53.1564 68.4414L53.3197 68.3403L53.4901 68.2464L53.666 68.1611Z" fill="#1DACA5"/>
<path d="M56.0179 47.196C55.7246 47.4998 55.2399 47.5083 54.9361 47.2151C54.6324 46.9219 54.6239 46.4371 54.9171 46.1334L56.0179 47.196ZM56.3101 45.3047V46.8348L56.6271 46.7661L56.6029 46.777L56.5852 46.7855L56.5652 46.7957L56.5386 46.8089L56.5186 46.8195L56.4988 46.83L56.4747 46.8433L56.4556 46.8542L56.4349 46.8664L56.4162 46.8773L56.3978 46.8889L56.3733 46.9045L56.355 46.9161L56.3373 46.928L56.3179 46.9413L56.2978 46.9555L56.2781 46.9695L56.2594 46.9834L56.2407 46.9974L56.224 47.0103L56.2053 47.0253L56.1849 47.0416L56.1689 47.0549L56.1532 47.0681L56.1335 47.0855L56.1182 47.0987L56.0992 47.1168L56.0818 47.1324L56.0675 47.1464L56.0488 47.1644L56.0345 47.1787L56.0179 47.196L54.9171 46.1334L54.9447 46.1051L54.9753 46.0745L55.0021 46.0483L55.0334 46.0181L55.063 45.9908L55.0909 45.9653L55.1232 45.9364L55.1518 45.9116L55.1845 45.8834L55.2181 45.8558L55.2474 45.832L55.279 45.8068L55.3134 45.7803L55.3464 45.7555L55.3794 45.7313L55.412 45.7078L55.445 45.6847L55.4794 45.6612L55.5154 45.6371L55.5522 45.6133L55.5828 45.5942L55.6195 45.5711L55.6573 45.5486L55.693 45.5276L55.7311 45.5065L55.7648 45.4878L55.8029 45.467L55.842 45.4469L55.8746 45.4303L55.9138 45.4105L55.9566 45.3905L55.993 45.3735L56.3101 45.3047ZM55.993 45.3735C56.3774 45.1986 56.8315 45.3684 57.0064 45.7527C57.1812 46.1371 57.0115 46.5912 56.6271 46.7661L55.993 45.3735ZM56.3104 46.8348H56.3101V45.3047H56.3104L56.6271 46.7661L56.3104 46.8348ZM56.3104 45.3047C56.7329 45.3047 57.0754 45.6473 57.0754 46.0698C57.0754 46.4922 56.7329 46.8348 56.3104 46.8348V45.3047ZM60.6814 47.1304L59.2888 47.7638L59.2436 47.6712L59.1943 47.5818L59.1409 47.4954L59.0844 47.4134L59.0245 47.3355L58.9602 47.2603L58.8922 47.1879L58.8225 47.1205L58.7493 47.0566L58.6731 46.9964L58.5942 46.9402L58.5119 46.8872L58.4269 46.8378L58.3415 46.7933L58.2541 46.7535L58.1632 46.7171L58.0714 46.6851L57.9779 46.6576L57.8836 46.6341L57.7894 46.6161L57.6935 46.6021L57.5959 46.5926L57.4982 46.5878H57.4013L57.303 46.5929L57.2057 46.6025L57.1081 46.6171L57.0111 46.6365L56.9149 46.6613L56.8179 46.6909L56.722 46.7259L56.6271 46.7661L55.9937 45.3735L56.1607 45.3027L56.3294 45.2411L56.4992 45.1884L56.6716 45.1445L56.8441 45.1102L57.0166 45.084L57.19 45.067L57.3625 45.0585H57.535L57.7061 45.0666L57.8758 45.083L58.0445 45.1071L58.2129 45.1401L58.3779 45.1806L58.5401 45.2286L58.7 45.2843L58.8568 45.3473L59.0123 45.4184L59.1636 45.4969L59.3099 45.5816L59.4528 45.6735L59.5922 45.7731L59.727 45.8796L59.8572 45.9932L59.9821 46.1136L60.1004 46.2398L60.2137 46.3728L60.3212 46.5127L60.4219 46.6586L60.5154 46.8096L60.6022 46.9671L60.6814 47.1304ZM66.2655 59.4339L64.7878 59.8299L64.8304 59.9486L64.6572 59.568L64.4841 59.187L64.3109 58.8063L64.1378 58.4254L63.9647 58.0447L63.7915 57.6641L63.618 57.2835L63.4449 56.9021L63.2718 56.5215L63.0986 56.1409L62.9255 55.7599L62.7523 55.3792L62.5792 54.9983L62.406 54.6176L62.2329 54.237L62.0598 53.8563L61.8863 53.4757L61.7131 53.0944L61.54 52.7138L61.3669 52.3331L61.1937 51.9521L61.0206 51.5715L60.8474 51.1905L60.6743 50.8099L60.5012 50.4296L60.3277 50.0486L60.1545 49.6676L59.9814 49.287L59.8082 48.906L59.6351 48.5254L59.462 48.1444L59.2888 47.7638L60.6814 47.1304L60.8546 47.511L61.0277 47.892L61.2009 48.2726L61.374 48.6536L61.5471 49.0343L61.7203 49.4145L61.8938 49.7955L62.0669 50.1765L62.24 50.5571L62.4132 50.9381L62.5863 51.3188L62.7595 51.6997L62.9326 52.0804L63.1058 52.461L63.2789 52.8417L63.4524 53.2223L63.6255 53.6036L63.7987 53.9843L63.9718 54.3649L64.1449 54.7459L64.3181 55.1265L64.4912 55.5075L64.6644 55.8881L64.8375 56.2688L65.0106 56.6494L65.1841 57.03L65.3573 57.4114L65.5304 57.792L65.7035 58.173L65.8767 58.5536L66.0498 58.9346L66.223 59.3152L66.2655 59.4339ZM66.223 59.3152C66.3978 59.6996 66.2277 60.1534 65.8434 60.3282C65.459 60.5031 65.0052 60.333 64.8304 59.9486L66.223 59.3152ZM66.4747 63.986L64.9487 63.8791L64.9583 63.738L64.9678 63.5985L64.9763 63.459L64.9848 63.3199L64.9923 63.1808L64.9998 63.0434L65.0059 62.9059L65.012 62.7702L65.0164 62.6345L65.0208 62.4998L65.0236 62.3661L65.026 62.2328L65.027 62.1018V61.9708L65.0256 61.8409L65.0236 61.7113L65.0198 61.5837L65.0151 61.4569L65.0089 61.3317L65.0015 61.2086L64.9923 61.0854L64.9817 60.963L64.9702 60.8439L64.9562 60.7245L64.9416 60.6071L64.9246 60.4925L64.9062 60.3772L64.8861 60.2643L64.8644 60.1541L64.8402 60.0438L64.8151 59.9357L64.7878 59.8299L66.2655 59.4339L66.3009 59.5703L66.3328 59.7071L66.3624 59.8438L66.3896 59.9826L66.4145 60.1214L66.4369 60.2598L66.4573 60.4003L66.4754 60.5408L66.4914 60.6806L66.5056 60.8228L66.5175 60.9636L66.5281 61.1051L66.5369 61.248L66.5437 61.3909L66.5492 61.5334L66.5529 61.6766L66.5556 61.8198L66.557 61.9634V62.1072L66.556 62.2518L66.5536 62.396L66.5502 62.5406L66.5458 62.6848L66.5407 62.8294L66.5346 62.9747L66.5278 63.1189L66.5203 63.2638L66.5121 63.4077L66.5036 63.5522L66.4944 63.6972L66.4849 63.8421L66.4747 63.986ZM66.4747 63.986C66.4454 64.4071 66.0794 64.7248 65.6583 64.6955C65.2372 64.6663 64.9195 64.3003 64.9487 63.8791L66.4747 63.986Z" fill="#1DACA5"/>
<path d="M51.0028 47.9043C50.8018 48.2757 50.3371 48.4138 49.9657 48.2128C49.5942 48.0118 49.4561 47.5471 49.6572 47.1757L51.0028 47.9043ZM51.2994 45.6422L51.9328 47.0348H51.9332L51.8954 47.0525L51.8566 47.0716L51.8179 47.0917L51.7832 47.1107L51.7464 47.1318L51.711 47.1529L51.6777 47.1743L51.6423 47.1974L51.6087 47.2206L51.576 47.2444L51.5427 47.2696L51.5097 47.2951L51.4787 47.3202L51.4498 47.3451L51.4195 47.3723L51.3896 47.3998L51.36 47.4284L51.3314 47.457L51.3046 47.4852L51.2784 47.5134L51.2512 47.5451L51.225 47.5754L51.2001 47.6063L51.1753 47.6376L51.1525 47.6682L51.1277 47.7029L51.1052 47.7352L51.0841 47.7669L51.0627 47.8009L51.0416 47.8356L51.0219 47.8699L51.0028 47.9043L49.6572 47.1757L49.6912 47.1141L49.7266 47.0539L49.7619 46.9954L49.799 46.9369L49.8385 46.8767L49.8786 46.8192L49.9177 46.7648L49.9609 46.7069L50.0041 46.6518L50.0487 46.5971L50.0939 46.5437L50.1395 46.4923L50.1882 46.4389L50.2382 46.3868L50.2878 46.3372L50.3385 46.2882L50.3902 46.2402L50.4429 46.1933L50.4991 46.1453L50.5552 46.0997L50.6106 46.0559L50.6678 46.013L50.7263 45.9708L50.7865 45.9293L50.8457 45.8899L50.9089 45.8501L50.9715 45.8127L51.0348 45.7759L51.1015 45.7399L51.1654 45.7069L51.2307 45.6742L51.2991 45.6422H51.2994ZM51.2991 45.6422C51.6835 45.4674 52.1376 45.6371 52.3124 46.0215C52.4873 46.4059 52.3175 46.86 51.9332 47.0348L51.2991 45.6422ZM51.6161 46.3385L51.2994 45.6422L51.6161 46.3385ZM51.2991 45.6422C51.6835 45.4674 52.1376 45.6371 52.3124 46.0215C52.4873 46.4059 52.3175 46.86 51.9332 47.0348L51.2991 45.6422ZM55.9872 47.3988L54.5946 48.0322L54.549 47.939L54.5 47.8495L54.4476 47.7645L54.3905 47.6825L54.3303 47.6039L54.266 47.5284L54.1983 47.4566L54.1289 47.3893L54.0551 47.3253L53.9782 47.2644L53.8996 47.2083L53.8176 47.1553L53.734 47.107L53.6476 47.0624L53.5588 47.0216L53.4693 46.9855L53.3775 46.9535L53.2846 46.9263L53.1904 46.9032L53.0941 46.8845L52.9982 46.8705L52.9016 46.861L52.805 46.8563L52.7077 46.8566L52.6087 46.8617L52.5114 46.8712L52.4138 46.8859L52.3169 46.9052L52.2206 46.9301L52.1237 46.9597L52.0277 46.9947L51.9328 47.0348L51.2994 45.6422L51.4665 45.5715L51.6352 45.5099L51.8049 45.4572L51.9774 45.4133L52.1498 45.3789L52.3223 45.3528L52.4958 45.3357L52.6676 45.3272L52.8397 45.3269L53.0118 45.3351L53.1826 45.3514L53.3513 45.3762L53.5176 45.4085L53.6826 45.4487L53.8455 45.497L54.0061 45.5528L54.1636 45.616L54.3177 45.6868L54.4687 45.7647L54.6163 45.8504L54.7589 45.9423L54.8987 46.0419L55.0327 46.1484L55.1623 46.2613L55.2882 46.3824L55.4062 46.5086L55.5195 46.6413L55.6266 46.7804L55.7273 46.9263L55.8219 47.0787L55.9083 47.2362L55.9872 47.3988ZM55.1688 49.2945L54.5946 48.0322L55.9872 47.3988L56.5614 48.6611L55.1688 49.2945ZM56.5614 48.6611C56.7362 49.0455 56.5661 49.4993 56.1818 49.6741C55.7974 49.849 55.3436 49.6789 55.1688 49.2945L56.5614 48.6611Z" fill="#1DACA5"/>
<path d="M46.2739 48.5322C45.9939 48.8486 45.5102 48.8778 45.1939 48.5979C44.8775 48.3179 44.8483 47.8342 45.1282 47.5179L46.2739 48.5322ZM45.7626 46.9556L46.6294 48.2169L46.6314 48.2152L46.6185 48.224L46.6086 48.2312L46.5916 48.2434L46.5817 48.2506L46.5719 48.2581L46.5552 48.2706L46.5457 48.2778L46.5362 48.2853L46.5198 48.2982L46.5103 48.3057L46.5011 48.3135L46.4851 48.3268L46.4759 48.3343L46.4671 48.3421L46.4515 48.3557L46.4423 48.3635L46.4338 48.3713L46.4185 48.3853L46.4062 48.3965L46.3977 48.4043L46.3861 48.4155L46.3776 48.4237L46.3661 48.4353L46.3514 48.4496L46.3433 48.4577L46.3351 48.4659L46.327 48.4744L46.313 48.4894L46.3018 48.5009L46.2943 48.5094L46.2834 48.5213L46.2739 48.5322L45.1282 47.5179L45.1459 47.4981L45.1629 47.4794L45.1827 47.458L45.2 47.4396L45.214 47.4247L45.2344 47.4032L45.2548 47.3821L45.2759 47.3611L45.2905 47.3468L45.3082 47.3291L45.3296 47.3087L45.348 47.2913L45.3694 47.2713L45.3878 47.2546L45.4031 47.2406L45.4252 47.2206L45.4473 47.2012L45.463 47.1876L45.4854 47.1682L45.5082 47.1491L45.5242 47.1359L45.547 47.1172L45.5701 47.0988L45.5864 47.0859L45.6096 47.0675L45.6334 47.0495L45.65 47.0369L45.6735 47.0192L45.6977 47.0018L45.7147 46.9896L45.7388 46.9723L45.7606 46.9573L45.7626 46.9556ZM46.6226 46.5797V48.1097L46.9399 48.0407L46.9267 48.0468L46.9229 48.0485L46.9124 48.0536L46.8981 48.0604L46.8875 48.0655L46.877 48.071L46.8702 48.0744L46.8627 48.0781L46.8525 48.0832L46.8355 48.0924L46.825 48.0975L46.8219 48.0992L46.8113 48.1053L46.7947 48.1142L46.7879 48.1179L46.7807 48.122L46.7647 48.1312L46.7579 48.1349L46.7545 48.137L46.7416 48.1448L46.7283 48.1526L46.7256 48.1543L46.7188 48.1584L46.6998 48.1706L46.6868 48.1785L46.6899 48.1764L46.6814 48.1822L46.6586 48.1968L46.6518 48.2013L46.6532 48.2002L46.6409 48.2087L46.6294 48.2169L45.7626 46.9556L45.7762 46.9467L45.7885 46.9382L45.815 46.9202L45.8341 46.9083L45.8364 46.9066L45.8531 46.8954L45.882 46.877L45.895 46.8692L45.9018 46.8651L45.9208 46.8529L45.9439 46.8389L45.9572 46.8311L45.9701 46.8233L45.9933 46.8097L46.013 46.7984L46.0235 46.7926L46.0436 46.7811L46.0633 46.7705L46.0739 46.7644L46.0905 46.7556L46.114 46.743L46.1314 46.7338L46.1416 46.7287L46.1586 46.7195L46.179 46.709L46.1994 46.6988L46.2167 46.6906L46.2341 46.6821L46.2484 46.6753L46.2657 46.6668L46.2899 46.6556L46.3052 46.6488L46.6226 46.5797ZM46.3052 46.6488C46.6892 46.4736 47.1433 46.6433 47.3185 47.0274C47.4937 47.4114 47.324 47.8655 46.9399 48.0407L46.3052 46.6488ZM46.6229 48.1097H46.6226V46.5797H46.6229L46.9396 48.041L46.6229 48.1097ZM46.6229 46.5797C47.0454 46.5797 47.3879 46.9222 47.3879 47.3447C47.3879 47.7672 47.0454 48.1097 46.6229 48.1097V46.5797ZM50.9939 48.4053L49.6013 49.0387L49.5561 48.9462L49.5068 48.8567L49.4534 48.7703L49.3966 48.688L49.3367 48.6098L49.2731 48.5353L49.2054 48.4632L49.135 48.3955L49.0618 48.3315L48.985 48.271L48.906 48.2142L48.8244 48.1618L48.74 48.1128L48.654 48.0682L48.5659 48.0278L48.4757 47.9917L48.3839 47.9597L48.2914 47.9325L48.1972 47.9094L48.1009 47.8907L48.005 47.8767L47.9094 47.8672L47.8117 47.8628H47.7138L47.6155 47.8679L47.5182 47.8774L47.4206 47.892L47.3236 47.9114L47.2274 47.9363L47.1304 47.9659L47.0345 48.0009L46.9396 48.041L46.3062 46.6484L46.4732 46.5777L46.6419 46.5161L46.8117 46.4634L46.9841 46.4195L47.1566 46.3851L47.3291 46.3589L47.5025 46.3419L47.675 46.3334H47.8464L48.0175 46.3413L48.1893 46.3576L48.358 46.3824L48.5244 46.4147L48.6894 46.4549L48.8526 46.5032L49.0125 46.559L49.17 46.6222L49.3248 46.6933L49.4755 46.7712L49.6224 46.8563L49.766 46.9488L49.9054 47.0485L50.0395 47.1546L50.1697 47.2682L50.2939 47.3883L50.4126 47.5141L50.5266 47.6478L50.6341 47.788L50.7344 47.9335L50.8279 48.0846L50.9147 48.2421L50.9939 48.4053ZM50.2626 50.4929L49.6013 49.0387L50.9939 48.4053L51.6552 49.8595L50.2626 50.4929ZM51.6552 49.8595C51.8301 50.2439 51.66 50.6977 51.2756 50.8725C50.8912 51.0474 50.4374 50.8773 50.2626 50.4929L51.6552 49.8595Z" fill="#1DACA5"/>
<path d="M52.4175 69.2986C52.79 69.4976 52.9302 69.9616 52.7312 70.3341C52.5322 70.7065 52.0682 70.8467 51.6957 70.6477L52.4175 69.2986ZM41.2872 65.3021L42.5206 64.3973L42.6618 64.5755L42.8213 64.751L43.0002 64.9252L43.1975 65.0963L43.4132 65.2653L43.6459 65.432L43.8942 65.5953L44.1581 65.7555L44.4364 65.9127L44.7279 66.0671L45.0317 66.2191L45.3463 66.3681L45.6712 66.5151L46.0045 66.6593L46.3457 66.8018L46.695 66.943L47.0495 67.0828L47.4083 67.2216L47.7713 67.36L48.1377 67.4981L48.5054 67.6366L48.8744 67.7754L49.2435 67.9155L49.6119 68.057L49.9783 68.2006L50.3415 68.3465L50.7014 68.4948L51.0572 68.6465L51.4076 68.8027L51.7515 68.9625L52.0886 69.1278L52.4175 69.2986L51.6957 70.6477L51.3994 70.4939L51.0923 70.3436L50.7735 70.1953L50.4456 70.0493L50.1096 69.9058L49.7653 69.7636L49.4143 69.6231L49.0581 69.4837L48.6972 69.3449L48.3336 69.2068L47.9666 69.0687L47.5982 68.9302L47.2291 68.7908L46.86 68.6503L46.4923 68.5081L46.127 68.3635L45.7647 68.2169L45.4058 68.0676L45.0521 67.9138L44.7041 67.7567L44.3622 67.5948L44.0278 67.4277L43.7016 67.2549L43.3846 67.0753L43.0771 66.8886L42.7805 66.6933L42.4961 66.4899L42.224 66.2766L41.9655 66.0518L41.7219 65.815L41.495 65.5654L41.2872 65.3021ZM38.4574 58.8574L42.5206 64.3973L41.2872 65.3021L37.224 59.7622L38.4574 58.8574ZM37.9846 54.8146L38.8901 56.048L38.8897 56.0484L38.8081 56.1113L38.7309 56.178L38.6574 56.2477L38.589 56.3195L38.5241 56.395L38.4635 56.4729L38.4081 56.5525L38.3557 56.6358L38.3077 56.7209L38.2645 56.808L38.2251 56.8971L38.1904 56.9882L38.1594 57.0808L38.1339 57.1733L38.1121 57.2685L38.0951 57.3641L38.0829 57.4597L38.0747 57.5567L38.0717 57.6539L38.0727 57.7516L38.0788 57.8475L38.0897 57.9441L38.105 58.0414L38.1247 58.1366L38.1496 58.2309L38.1792 58.3251L38.2132 58.4176L38.2519 58.5077L38.2958 58.5975L38.3452 58.6863L38.3986 58.7727L38.4574 58.8574L37.224 59.7622L37.1202 59.6136L37.0253 59.4605L36.9393 59.3051L36.8614 59.1459L36.792 58.9836L36.7314 58.8197L36.6794 58.6547L36.6355 58.487L36.6001 58.3176L36.5733 58.1496L36.5542 57.9795L36.544 57.808L36.5416 57.6383L36.5474 57.4689L36.561 57.2998L36.5828 57.1315L36.6127 56.9644L36.6501 56.7991L36.6961 56.6345L36.7495 56.4732L36.8107 56.3141L36.8794 56.1583L36.9559 56.0045L37.0406 55.8542L37.1318 55.7082L37.2322 55.5647L37.3396 55.4269L37.4536 55.2936L37.5764 55.1647L37.705 55.0425L37.8414 54.9255L37.9849 54.8143L37.9846 54.8146ZM38.4373 55.4313L37.9846 54.8146L38.4373 55.4313ZM40.2177 54.1347L40.1558 55.6633L40.114 55.662L40.0728 55.6616L40.032 55.662L39.9908 55.6633L39.95 55.6657L39.9065 55.6688L39.8657 55.6722L39.8245 55.6769L39.7837 55.6824L39.7432 55.6888L39.702 55.696L39.6609 55.7041L39.6204 55.713L39.5806 55.7225L39.5394 55.7334L39.499 55.745L39.4588 55.7572L39.4194 55.7705L39.3799 55.7844L39.3418 55.7991L39.3024 55.815L39.2639 55.8314L39.2245 55.8497L39.185 55.8684L39.1472 55.8875L39.1095 55.9076L39.0741 55.928L39.0357 55.9508L38.9976 55.9742L38.9619 55.9974L38.9261 56.0222L38.8901 56.048L37.9846 54.8146L38.0472 54.7697L38.1115 54.7258L38.1771 54.683L38.2411 54.6432L38.3054 54.6048L38.3734 54.5667L38.4404 54.5309L38.5081 54.4962L38.5754 54.4639L38.6428 54.4333L38.7118 54.4034L38.7812 54.3751L38.852 54.3483L38.9221 54.3234L38.9928 54.3L39.0636 54.2782L39.1347 54.2578L39.2051 54.2394L39.2768 54.2217L39.3493 54.2061L39.4211 54.1918L39.4928 54.1792L39.5653 54.168L39.6381 54.1585L39.7106 54.1503L39.7833 54.1435L39.8541 54.1384L39.9269 54.1347L40 54.1326L40.0728 54.1316L40.146 54.1326L40.2177 54.1347ZM40.2177 54.1347C40.6395 54.1517 40.9681 54.5081 40.9511 54.9299C40.9341 55.3517 40.5776 55.6803 40.1558 55.6633L40.2177 54.1347Z" fill="#1DACA5"/>
<path d="M65.2059 69.1016C64.8181 69.2673 64.3708 69.1078 64.2072 68.7452C64.0436 68.3825 64.2256 67.9536 64.6133 67.7879L65.2059 69.1016ZM65.6253 68.9224L65.2059 69.1016L64.6133 67.7879L65.0328 67.6087L65.6253 68.9224ZM65.0328 67.6087C65.4205 67.443 65.8678 67.6026 66.0315 67.9652C66.1951 68.3278 66.0131 68.7567 65.6253 68.9224L65.0328 67.6087Z" fill="#1DACA5"/>
</svg>
