<svg width="361" height="361" viewBox="0 0 361 361" fill="none" xmlns="http://www.w3.org/2000/svg">
<path d="M219.676 149.613C172.674 136.458 155.346 34.8148 86.4523 89.7229C37.5801 128.711 68.3446 224.816 129.938 214.08C167.215 207.582 161.446 206.86 193.207 225.315C225.387 244.029 260.743 253.559 294.749 221.026C312.352 204.189 319.016 162.912 301.644 141.396C279.919 114.495 248.368 157.641 219.676 149.613Z" fill="#FFCE1A"/>
<path opacity="0.9" d="M219.676 149.613C172.674 136.458 155.346 34.8148 86.4523 89.7229C37.5801 128.711 68.3446 224.816 129.938 214.08C167.215 207.582 161.446 206.86 193.207 225.315C225.387 244.029 260.743 253.559 294.749 221.026C312.352 204.189 319.016 162.912 301.644 141.396C279.919 114.495 248.368 157.641 219.676 149.613Z" fill="white"/>
<path d="M180.5 308.699C257.814 308.699 320.489 305.039 320.489 300.526C320.489 296.012 257.814 292.353 180.5 292.353C103.187 292.353 40.5115 296.012 40.5115 300.526C40.5115 305.039 103.187 308.699 180.5 308.699Z" fill="#F5F5F5"/>
<path d="M277.371 90.4736H174.63C170.766 90.4736 167.634 93.6059 167.634 97.4698V293.442C167.634 297.306 170.766 300.438 174.63 300.438H277.371C281.235 300.438 284.367 297.306 284.367 293.442V97.4698C284.367 93.6059 281.235 90.4736 277.371 90.4736Z" fill="#FFCE1A"/>
<path opacity="0.8" d="M277.371 90.4736H174.63C170.766 90.4736 167.634 93.6059 167.634 97.4698V293.442C167.634 297.306 170.766 300.438 174.63 300.438H277.371C281.235 300.438 284.367 297.306 284.367 293.442V97.4698C284.367 93.6059 281.235 90.4736 277.371 90.4736Z" fill="white"/>
<path opacity="0.6" d="M225.986 95.1303C225.986 95.4262 225.898 95.7154 225.734 95.9614C225.569 96.2073 225.335 96.3988 225.062 96.5118C224.788 96.6247 224.487 96.6538 224.197 96.5956C223.907 96.5373 223.641 96.3943 223.432 96.1845C223.224 95.9748 223.082 95.7078 223.025 95.4174C222.968 95.127 222.999 94.8263 223.113 94.5533C223.227 94.2804 223.42 94.0475 223.667 93.8841C223.913 93.7208 224.203 93.6343 224.499 93.6358C224.695 93.6358 224.889 93.6745 225.07 93.7497C225.251 93.8249 225.415 93.9351 225.553 94.0739C225.691 94.2128 225.801 94.3776 225.875 94.5589C225.949 94.7402 225.987 94.9344 225.986 95.1303Z" fill="black"/>
<path opacity="0.6" d="M229.004 95.1308C229.005 95.3213 228.95 95.508 228.845 95.667C228.74 95.826 228.59 95.9502 228.415 96.0238C228.239 96.0974 228.045 96.117 227.858 96.0802C227.671 96.0433 227.499 95.9517 227.365 95.817C227.23 95.6823 227.138 95.5105 227.102 95.3236C227.065 95.1366 227.084 94.943 227.158 94.7672C227.232 94.5914 227.356 94.4415 227.515 94.3366C227.674 94.2316 227.86 94.1763 228.051 94.1778C228.303 94.1797 228.544 94.2807 228.723 94.459C228.901 94.6373 229.002 94.8786 229.004 95.1308Z" fill="black"/>
<path d="M280.432 97.5132V293.031C280.432 293.797 280.128 294.531 279.586 295.073C279.045 295.615 278.31 295.919 277.544 295.919H174.161C173.817 295.923 173.476 295.857 173.157 295.727C172.839 295.596 172.551 295.403 172.309 295.158C172.067 294.914 171.877 294.623 171.75 294.303C171.623 293.984 171.561 293.642 171.569 293.298V97.275C171.557 96.9715 171.606 96.6687 171.711 96.384C171.817 96.0992 171.977 95.8381 172.184 95.6154C172.39 95.3928 172.639 95.2131 172.915 95.0865C173.191 94.96 173.489 94.8891 173.793 94.8779H199.633C199.994 94.8842 200.345 94.9981 200.641 95.2053C200.937 95.4124 201.164 95.7032 201.294 96.0404L202.369 98.6756C202.5 99.0107 202.728 99.299 203.024 99.5035C203.32 99.708 203.67 99.8195 204.03 99.8236H248.029C248.387 99.8207 248.736 99.7113 249.031 99.5095C249.327 99.3076 249.556 99.0224 249.689 98.6901L250.758 96.0404C250.889 95.7032 251.118 95.4126 251.415 95.2057C251.712 94.9987 252.064 94.8846 252.426 94.8779H277.891C278.576 94.895 279.226 95.181 279.702 95.6742C280.177 96.1674 280.44 96.8281 280.432 97.5132Z" fill="#263238"/>
<path opacity="0.3" d="M280.425 107.087H171.569V282.923H280.425V107.087Z" fill="white"/>
<path d="M277.739 129.794H174.255V280.446H277.739V129.794Z" fill="#FFCE1A"/>
<path opacity="0.6" d="M277.739 129.794H174.255V280.446H277.739V129.794Z" fill="white"/>
<path d="M226.86 291.11H225.141C224.708 291.11 224.292 290.938 223.985 290.633C223.678 290.327 223.504 289.912 223.502 289.478V287.76C223.502 287.325 223.675 286.908 223.982 286.601C224.29 286.294 224.707 286.121 225.141 286.121H226.86C227.294 286.121 227.711 286.294 228.019 286.601C228.326 286.908 228.499 287.325 228.499 287.76V289.478C228.497 289.912 228.323 290.327 228.016 290.633C227.709 290.938 227.293 291.11 226.86 291.11ZM225.141 286.778C224.886 286.78 224.642 286.883 224.462 287.064C224.282 287.245 224.181 287.49 224.181 287.746V289.464C224.183 289.718 224.285 289.961 224.464 290.141C224.644 290.321 224.887 290.422 225.141 290.424H226.86C227.114 290.422 227.357 290.321 227.537 290.141C227.716 289.961 227.818 289.718 227.82 289.464V287.746C227.82 287.49 227.719 287.245 227.539 287.064C227.359 286.883 227.115 286.78 226.86 286.778H225.141Z" fill="white"/>
<path d="M226.001 204.81C242.756 204.81 256.339 191.227 256.339 174.471C256.339 157.716 242.756 144.133 226.001 144.133C209.245 144.133 195.662 157.716 195.662 174.471C195.662 191.227 209.245 204.81 226.001 204.81Z" fill="#FFCE1A"/>
<path d="M225.986 202.788C220.383 202.789 214.906 201.129 210.247 198.017C205.588 194.906 201.957 190.482 199.812 185.306C197.668 180.13 197.106 174.435 198.199 168.94C199.291 163.445 201.989 158.397 205.951 154.436C209.912 150.474 214.96 147.776 220.455 146.684C225.95 145.591 231.646 146.152 236.821 148.297C241.997 150.442 246.421 154.073 249.532 158.732C252.644 163.391 254.304 168.868 254.303 174.471C254.295 181.979 251.309 189.177 246.001 194.486C240.692 199.794 233.494 202.78 225.986 202.788ZM225.986 148.84C220.917 148.84 215.961 150.343 211.746 153.16C207.531 155.976 204.246 159.979 202.306 164.662C200.366 169.346 199.859 174.499 200.848 179.471C201.837 184.443 204.278 189.01 207.862 192.595C211.447 196.179 216.014 198.62 220.986 199.609C225.958 200.598 231.111 200.091 235.795 198.151C240.478 196.211 244.481 192.926 247.297 188.711C250.114 184.496 251.617 179.54 251.617 174.471C251.609 167.676 248.907 161.161 244.101 156.356C239.296 151.55 232.781 148.848 225.986 148.84Z" fill="white"/>
<path d="M277.739 110.538H174.255V128.27H277.739V110.538Z" fill="#FFCE1A"/>
<path d="M272.75 116.379C272.75 116.536 272.703 116.69 272.616 116.82C272.529 116.951 272.405 117.053 272.26 117.113C272.115 117.173 271.955 117.189 271.801 117.158C271.647 117.127 271.505 117.052 271.394 116.941C271.283 116.83 271.208 116.688 271.177 116.534C271.146 116.38 271.162 116.22 271.222 116.075C271.282 115.93 271.384 115.806 271.515 115.719C271.645 115.632 271.799 115.585 271.956 115.585C272.166 115.585 272.368 115.669 272.517 115.818C272.666 115.967 272.75 116.169 272.75 116.379Z" fill="white"/>
<path d="M272.75 119.405C272.75 119.562 272.703 119.715 272.616 119.846C272.529 119.976 272.405 120.078 272.26 120.138C272.115 120.198 271.955 120.214 271.801 120.183C271.647 120.153 271.505 120.077 271.394 119.966C271.283 119.855 271.208 119.714 271.177 119.559C271.146 119.405 271.162 119.246 271.222 119.101C271.282 118.956 271.384 118.831 271.515 118.744C271.645 118.657 271.799 118.61 271.956 118.61C272.166 118.61 272.368 118.694 272.517 118.843C272.666 118.992 272.75 119.194 272.75 119.405Z" fill="white"/>
<path d="M272.75 122.429C272.75 122.586 272.703 122.74 272.616 122.87C272.529 123.001 272.405 123.103 272.26 123.163C272.115 123.223 271.955 123.239 271.801 123.208C271.647 123.177 271.505 123.102 271.394 122.991C271.283 122.879 271.208 122.738 271.177 122.584C271.146 122.43 271.162 122.27 271.222 122.125C271.282 121.98 271.384 121.856 271.515 121.769C271.645 121.681 271.799 121.635 271.956 121.635C272.166 121.635 272.368 121.718 272.517 121.867C272.666 122.016 272.75 122.218 272.75 122.429Z" fill="white"/>
<path d="M204.911 121.606H202.478L202.001 122.732H201.07L203.236 117.873H204.124L206.29 122.732H205.344L204.911 121.606ZM204.608 120.884L203.691 118.761L202.781 120.884H204.608Z" fill="white"/>
<path d="M207.698 118.631H206.088V117.873H210.21V118.631H208.6V122.739H207.698V118.631Z" fill="white"/>
<path d="M211.943 118.631H210.333V117.873H214.434V118.631H212.846V122.739H211.943V118.631Z" fill="white"/>
<path d="M218.766 121.975V122.74H215.156V117.881H218.701V118.603H216.059V119.866H218.405V120.588H216.059V121.931L218.766 121.975Z" fill="white"/>
<path d="M224.102 117.873V122.739H223.38L220.701 119.447V122.739H219.806V117.88H220.528L223.206 121.165V117.88L224.102 117.873Z" fill="white"/>
<path d="M225.408 117.873H227.531C227.869 117.841 228.211 117.88 228.533 117.988C228.855 118.095 229.152 118.269 229.403 118.498C229.655 118.726 229.855 119.005 229.993 119.316C230.13 119.627 230.201 119.963 230.201 120.303C230.201 120.643 230.13 120.979 229.993 121.289C229.855 121.6 229.655 121.879 229.403 122.108C229.152 122.336 228.855 122.51 228.533 122.618C228.211 122.725 227.869 122.764 227.531 122.732H225.408V117.873ZM227.488 121.967C227.72 121.988 227.954 121.961 228.175 121.887C228.396 121.813 228.599 121.694 228.771 121.537C228.944 121.38 229.081 121.189 229.175 120.976C229.27 120.763 229.318 120.532 229.318 120.299C229.318 120.066 229.27 119.835 229.175 119.622C229.081 119.409 228.944 119.218 228.771 119.061C228.599 118.904 228.396 118.785 228.175 118.711C227.954 118.637 227.72 118.61 227.488 118.631H226.311V121.967H227.488Z" fill="white"/>
<path d="M234.224 121.606H231.762L231.286 122.732H230.354L232.52 117.873H233.408L235.574 122.732H234.628L234.224 121.606ZM233.921 120.884L233.004 118.761L232.094 120.884H233.921Z" fill="white"/>
<path d="M240.585 117.873V122.739H239.863L237.184 119.447V122.739H236.289V117.88H237.011L239.69 121.165V117.88L240.585 117.873Z" fill="white"/>
<path d="M241.538 120.299C241.535 119.961 241.6 119.626 241.732 119.314C241.863 119.002 242.056 118.721 242.301 118.486C242.545 118.252 242.835 118.071 243.152 117.953C243.469 117.835 243.807 117.784 244.144 117.801C244.504 117.786 244.863 117.851 245.195 117.991C245.527 118.131 245.824 118.342 246.065 118.61L245.487 119.159C245.323 118.978 245.122 118.835 244.898 118.738C244.674 118.64 244.432 118.592 244.188 118.595C243.954 118.58 243.72 118.613 243.5 118.692C243.279 118.771 243.077 118.894 242.907 119.054C242.736 119.214 242.6 119.408 242.507 119.623C242.413 119.837 242.365 120.069 242.365 120.303C242.365 120.537 242.413 120.769 242.507 120.983C242.6 121.198 242.736 121.392 242.907 121.552C243.077 121.712 243.279 121.835 243.5 121.914C243.72 121.993 243.954 122.026 244.188 122.011C244.433 122.015 244.677 121.965 244.901 121.865C245.126 121.765 245.326 121.618 245.487 121.433L246.065 121.989C245.708 122.358 245.252 122.615 244.752 122.728C244.251 122.842 243.729 122.806 243.248 122.627C242.767 122.448 242.35 122.132 242.046 121.718C241.742 121.305 241.565 120.812 241.538 120.299Z" fill="white"/>
<path d="M250.577 121.975V122.74H246.924V117.881H250.476V118.603H247.827V119.866H250.173V120.588H247.827V121.931L250.577 121.975Z" fill="white"/>
<path d="M179.114 231.271H272.916C273.759 231.271 274.567 231.605 275.162 232.201C275.758 232.797 276.093 233.605 276.093 234.447V280.446H175.944V234.44C175.946 233.6 176.281 232.795 176.875 232.201C177.469 231.607 178.274 231.272 179.114 231.271Z" fill="#FFCE1A"/>
<path opacity="0.2" d="M179.114 231.271H272.916C273.759 231.271 274.567 231.605 275.162 232.201C275.758 232.797 276.093 233.605 276.093 234.447V280.446H175.944V234.44C175.946 233.6 176.281 232.795 176.875 232.201C177.469 231.607 178.274 231.272 179.114 231.271Z" fill="white"/>
<path opacity="0.5" d="M207.756 251.089C207.759 253.223 207.278 255.329 206.35 257.249C205.422 259.17 204.071 260.856 202.398 262.179C202.322 262.253 202.24 262.32 202.153 262.381C201.221 263.095 200.202 263.687 199.12 264.143C196.552 265.241 193.714 265.55 190.969 265.031C190.848 265.018 190.727 264.999 190.608 264.973C190.163 264.886 189.724 264.77 189.294 264.627C187.908 264.19 186.6 263.537 185.417 262.692C185.287 262.605 185.171 262.519 185.049 262.425C183.123 260.968 181.602 259.044 180.628 256.835C179.655 254.625 179.261 252.204 179.486 249.8C179.71 247.396 180.544 245.089 181.909 243.098C183.275 241.107 185.126 239.497 187.287 238.421C189.449 237.346 191.849 236.84 194.261 236.952C196.672 237.063 199.016 237.789 201.068 239.06C203.121 240.331 204.816 242.105 205.991 244.214C207.166 246.323 207.784 248.697 207.784 251.111L207.756 251.089Z" fill="white"/>
<path d="M193.576 264.599C192.745 264.602 191.916 264.527 191.099 264.375C190.982 264.357 190.867 264.333 190.753 264.303C190.321 264.214 189.894 264.103 189.475 263.971C188.152 263.555 186.904 262.931 185.778 262.122C185.648 262.036 185.54 261.956 185.431 261.87C183.757 260.617 182.398 258.99 181.465 257.118C180.533 255.246 180.051 253.182 180.06 251.09C180.057 248.802 180.635 246.55 181.74 244.546C182.845 242.542 184.441 240.852 186.378 239.633C188.315 238.415 190.53 237.708 192.815 237.579C195.1 237.45 197.38 237.904 199.441 238.897C201.503 239.89 203.279 241.39 204.602 243.257C205.926 245.124 206.753 247.297 207.008 249.571C207.262 251.845 206.935 254.147 206.057 256.26C205.178 258.373 203.778 260.229 201.987 261.653C201.92 261.719 201.847 261.779 201.77 261.834C199.415 263.627 196.536 264.598 193.576 264.599Z" fill="white"/>
<path d="M189.265 264.605C187.879 264.168 186.571 263.515 185.388 262.67C186.364 262.637 187.332 262.866 188.189 263.334C188.347 263.424 188.493 263.533 188.623 263.659C188.915 263.914 189.136 264.24 189.265 264.605Z" fill="#263238"/>
<path d="M202.398 262.18C202.321 262.253 202.239 262.321 202.153 262.382C201.221 263.096 200.202 263.688 199.12 264.144C196.552 265.242 193.714 265.551 190.969 265.032C190.848 265.019 190.727 264.999 190.608 264.974C190.163 264.887 189.724 264.771 189.294 264.628C187.908 264.19 186.6 263.537 185.417 262.693C185.287 262.606 185.171 262.519 185.049 262.426C186.052 262.209 187.316 261.978 188.608 261.833L189.012 261.79C191.685 261.618 194.365 261.585 197.041 261.689H197.373C198.738 261.747 200.11 261.891 201.214 262.036L202.398 262.18Z" fill="#263238"/>
<path d="M202.16 262.382C201.228 263.096 200.209 263.688 199.128 264.144C199.473 263.646 199.924 263.23 200.448 262.925C200.972 262.621 201.556 262.435 202.16 262.382Z" fill="#263238"/>
<path d="M197.373 261.667C197.373 261.667 196.788 263.869 192.066 264.035C191.659 264.319 191.291 264.654 190.969 265.032C190.848 265.018 190.727 264.999 190.608 264.974C190.55 264.663 190.509 264.35 190.485 264.035C189.859 264.021 189.239 263.904 188.651 263.689C188.481 263.62 188.331 263.508 188.218 263.364C187.727 262.692 189.041 261.79 189.041 261.79C191.482 261.176 191.886 259.624 191.691 257.985C191.673 257.779 191.644 257.574 191.604 257.371C191.604 257.198 191.547 257.032 191.503 256.866C191.503 256.822 191.503 256.786 191.503 256.75L194.536 254.144L195.467 253.35L196.767 252.23C196.767 252.274 196.767 252.317 196.767 252.36C196.702 252.678 196.63 253.017 196.572 253.386C196.001 256.173 195.741 260.122 197.373 261.667Z" fill="#CE7A63"/>
<path opacity="0.2" d="M191.446 256.722C191.549 257.127 191.621 257.54 191.662 257.956C192.81 257.704 194.319 256.462 194.456 255.285C194.499 254.896 194.499 254.504 194.456 254.115L191.446 256.722Z" fill="black"/>
<path d="M189.164 242.852C187.345 243.711 186.421 248.88 188.767 249.942C191.114 251.003 192.565 241.227 189.164 242.852Z" fill="#263238"/>
<path d="M197.568 248.281C196.846 251.891 196.608 254.057 194.5 255.732C193.823 256.288 193.007 256.647 192.141 256.771C191.274 256.896 190.39 256.781 189.585 256.439C188.779 256.096 188.083 255.54 187.571 254.83C187.059 254.12 186.751 253.284 186.68 252.411C186.341 249.061 187.583 243.697 191.359 242.614C192.171 242.358 193.036 242.319 193.867 242.503C194.699 242.686 195.467 243.085 196.096 243.659C196.725 244.233 197.192 244.962 197.45 245.773C197.709 246.585 197.749 247.449 197.568 248.281Z" fill="#CE7A63"/>
<path d="M194.074 243.92L194.254 240.758C195.056 241.125 195.952 241.231 196.817 241.061C200.536 240.151 203.409 242.505 201.691 244.628C203.46 245.35 202.507 247.797 201.337 249.342C199.72 251.508 197.98 252.512 196.774 251.559C195.691 251.039 195.489 247.314 195.835 245.927C196.384 243.848 194.074 243.92 194.074 243.92Z" fill="#263238"/>
<path d="M198.464 252.029C197.893 252.744 197.091 253.238 196.196 253.429C195.063 253.646 194.789 252.599 195.345 251.566C195.9 250.534 197.048 249.4 198.074 249.668C199.099 249.935 199.186 251.133 198.464 252.029Z" fill="#CE7A63"/>
<path d="M191.879 248.736C191.843 249.032 191.648 249.256 191.453 249.234C191.258 249.212 191.135 248.96 191.178 248.664C191.222 248.368 191.409 248.144 191.604 248.166C191.799 248.187 191.922 248.44 191.879 248.736Z" fill="#263238"/>
<path d="M188.514 248.368C188.478 248.664 188.283 248.888 188.088 248.866C187.893 248.845 187.771 248.592 187.814 248.296C187.857 248 188.045 247.769 188.24 247.79C188.435 247.812 188.558 248.094 188.514 248.368Z" fill="#263238"/>
<path d="M189.568 248.649C189.086 249.522 188.489 250.326 187.792 251.039C187.978 251.207 188.199 251.33 188.439 251.402C188.679 251.473 188.931 251.49 189.178 251.451L189.568 248.649Z" fill="#BA4D3C"/>
<path d="M193.07 247.761C193.098 247.77 193.129 247.77 193.157 247.761C193.196 247.737 193.224 247.699 193.236 247.655C193.248 247.611 193.243 247.563 193.222 247.523C193.087 247.28 192.895 247.074 192.662 246.923C192.429 246.772 192.163 246.681 191.886 246.656C191.863 246.655 191.839 246.659 191.818 246.667C191.796 246.676 191.776 246.688 191.759 246.705C191.742 246.721 191.729 246.74 191.719 246.762C191.71 246.783 191.706 246.806 191.706 246.83C191.706 246.876 191.724 246.921 191.756 246.955C191.788 246.988 191.832 247.008 191.879 247.01C192.094 247.031 192.301 247.105 192.481 247.225C192.661 247.344 192.808 247.506 192.911 247.696C192.931 247.719 192.955 247.736 192.983 247.748C193.011 247.759 193.04 247.764 193.07 247.761Z" fill="#263238"/>
<path d="M187.229 247.098C187.257 247.095 187.285 247.086 187.309 247.073C187.334 247.059 187.356 247.04 187.373 247.018C187.486 246.82 187.645 246.651 187.835 246.525C188.026 246.4 188.244 246.321 188.471 246.296C188.518 246.294 188.562 246.274 188.594 246.241C188.626 246.207 188.644 246.162 188.644 246.116C188.641 246.07 188.62 246.027 188.587 245.995C188.554 245.963 188.51 245.944 188.464 245.942C188.182 245.966 187.91 246.055 187.669 246.203C187.428 246.351 187.226 246.554 187.077 246.794C187.064 246.813 187.055 246.834 187.051 246.857C187.046 246.879 187.046 246.902 187.051 246.924C187.055 246.947 187.065 246.968 187.078 246.987C187.091 247.005 187.108 247.021 187.128 247.033C187.153 247.066 187.189 247.089 187.229 247.098Z" fill="#263238"/>
<path d="M197.041 241.459C197.041 241.459 194.095 236.614 189.323 237.964C189.801 238.033 190.262 238.192 190.68 238.433C190.68 238.433 186.428 238.361 185.309 241.415L186.088 240.888C186.088 240.888 185.179 243.422 186.55 244.96L186.731 244.13C186.731 244.13 188.608 246.159 191.15 245.372L190.225 244.982C190.225 244.982 194.666 244.542 195.698 243.329C196.216 242.758 196.666 242.131 197.041 241.459Z" fill="#263238"/>
<path d="M188.514 252.498C189.978 252.097 191.477 251.836 192.991 251.718C192.863 252.316 192.534 252.853 192.058 253.238C191.583 253.623 190.989 253.833 190.377 253.833C190.166 253.877 189.948 253.876 189.738 253.831C189.527 253.787 189.328 253.699 189.153 253.573C188.978 253.448 188.831 253.287 188.721 253.102C188.611 252.917 188.541 252.711 188.514 252.498Z" fill="#263238"/>
<path d="M191.077 252.96C190.417 253.005 189.787 253.257 189.28 253.682C189.619 253.851 190.001 253.914 190.377 253.862C191.035 253.818 191.663 253.565 192.168 253.14C191.833 252.964 191.451 252.901 191.077 252.96Z" fill="#A02724"/>
<path d="M188.666 252.454C188.716 252.571 188.795 252.672 188.897 252.748C188.998 252.824 189.118 252.872 189.244 252.888C190.221 252.775 191.186 252.582 192.132 252.31C192.291 252.282 192.44 252.214 192.566 252.113C192.692 252.012 192.791 251.881 192.854 251.732C191.441 251.863 190.041 252.104 188.666 252.454Z" fill="white"/>
<path d="M258.418 264.584C257.844 264.583 257.27 264.547 256.7 264.476C255.767 264.357 254.85 264.139 253.964 263.826C252.962 263.481 252.007 263.016 251.119 262.439C250.752 262.208 250.4 261.955 250.065 261.681L249.877 261.53L249.632 261.32C249.465 261.183 249.336 261.06 249.206 260.938C247.26 259.118 245.897 256.763 245.286 254.171C244.675 251.578 244.844 248.862 245.773 246.365C246.701 243.869 248.347 241.702 250.503 240.138C252.66 238.574 255.23 237.682 257.892 237.575C260.554 237.468 263.187 238.151 265.462 239.537C267.737 240.922 269.552 242.95 270.677 245.364C271.803 247.779 272.19 250.472 271.789 253.105C271.389 255.739 270.218 258.195 268.425 260.165H268.043V260.57C267.804 260.808 267.566 261.032 267.321 261.227C267.266 261.283 267.208 261.336 267.147 261.385C266.569 261.882 265.945 262.325 265.285 262.707H264.786V262.988C263.005 263.945 261.03 264.486 259.01 264.569L258.418 264.584Z" fill="white"/>
<path d="M268.707 260.837C268.409 261.158 268.091 261.46 267.754 261.74L267.595 261.884C266.936 262.448 266.222 262.947 265.465 263.371C263.499 264.505 261.286 265.142 259.018 265.227C258.22 265.293 257.417 265.259 256.628 265.126C255.644 265.002 254.676 264.774 253.74 264.447C252.691 264.089 251.689 263.604 250.758 263.003C250.662 262.312 250.757 261.608 251.032 260.967C251.086 260.834 251.146 260.704 251.213 260.577C251.21 260.556 251.21 260.534 251.213 260.512C251.28 260.375 251.358 260.242 251.444 260.115C250.94 259.925 250.499 259.598 250.171 259.171C249.843 258.743 249.641 258.233 249.588 257.696C249.411 256.429 249.715 255.141 250.44 254.086C250.44 254.086 249.054 253.819 248.715 251.372C248.575 250.736 248.634 250.072 248.883 249.471C249.132 248.869 249.56 248.358 250.108 248.007C249.328 245.119 251.632 244.231 251.632 244.231C251.891 241.401 254.859 241.87 254.859 241.87C254.859 241.87 255.978 239.704 259.285 241.365C259.285 241.365 260.44 240.246 262.895 241.365C263.464 241.642 263.961 242.047 264.348 242.548C264.735 243.049 265.001 243.632 265.126 244.253C269.617 245.971 267.732 249.935 267.732 249.935C269.898 253.328 267.732 255.61 267.732 255.61C269.609 258.39 269.097 260.115 268.707 260.837Z" fill="#263238"/>
<path d="M253.805 264.295L253.74 264.461C252.691 264.103 251.689 263.618 250.758 263.017C250.369 262.773 249.995 262.505 249.639 262.216C249.639 262.216 249.639 262.216 249.603 262.216C249.452 262.108 249.31 261.99 249.177 261.862C249.025 261.739 248.881 261.609 248.736 261.472C248.927 261.131 249.239 260.873 249.61 260.75H249.769C250.078 260.689 250.392 260.652 250.707 260.642H251.011H251.22C251.806 260.655 252.369 260.869 252.816 261.248C252.929 261.342 253.035 261.443 253.133 261.551C253.409 261.862 253.651 262.201 253.855 262.562C254.06 263.125 254.041 263.745 253.805 264.295Z" fill="#FFCE1A"/>
<g opacity="0.7">
<path d="M253.805 264.295L253.74 264.461C252.691 264.103 251.689 263.618 250.758 263.017C250.369 262.773 249.995 262.505 249.639 262.216C249.639 262.216 249.639 262.216 249.603 262.216C249.452 262.108 249.31 261.99 249.177 261.862C249.025 261.739 248.881 261.609 248.736 261.472C248.927 261.131 249.239 260.873 249.61 260.75H249.769C250.078 260.689 250.392 260.652 250.707 260.642H251.011H251.22C251.806 260.655 252.369 260.869 252.816 261.248C252.929 261.342 253.035 261.443 253.133 261.551C253.409 261.862 253.651 262.201 253.855 262.562C254.06 263.125 254.041 263.745 253.805 264.295Z" fill="white"/>
</g>
<path opacity="0.2" d="M249.639 262.203C249.639 262.203 249.639 262.203 249.603 262.203V262.101L249.639 262.203Z" fill="black"/>
<path d="M267.754 261.747L267.595 261.891C266.935 262.455 266.222 262.954 265.465 263.378C263.499 264.512 261.286 265.149 259.018 265.234C258.22 265.3 257.417 265.266 256.628 265.133C255.644 265.009 254.676 264.781 253.74 264.454C252.691 264.096 251.689 263.611 250.758 263.01C250.369 262.766 249.995 262.499 249.639 262.209C249.639 262.209 249.639 262.209 249.603 262.209C249.452 262.101 249.31 261.983 249.177 261.855C249.173 261.833 249.173 261.811 249.177 261.79C249.179 261.766 249.179 261.742 249.177 261.718V261.595C249.227 261.326 249.322 261.067 249.458 260.83L249.509 260.772H249.668H249.913L250.635 260.693H250.917H251.155H251.408H251.696H251.949H252.245C252.368 260.693 252.483 260.693 252.606 260.693H252.866H253.184C253.357 260.693 253.538 260.693 253.718 260.693L254.216 260.656C254.693 260.656 255.184 260.606 255.66 260.599H255.761C257.555 260.596 259.347 260.712 261.126 260.945C261.516 260.981 261.92 261.039 262.324 261.082L262.859 261.162L263.285 261.22L263.905 261.321L264.382 261.4L264.649 261.458C265.025 261.523 265.371 261.595 265.725 261.667L266.165 261.768H266.252L266.613 261.848L267.754 261.747Z" fill="#FFCE1A"/>
<g opacity="0.7">
<path d="M267.754 261.746L267.595 261.891C266.936 262.455 266.222 262.953 265.465 263.378C263.499 264.512 261.286 265.149 259.018 265.233C258.22 265.3 257.417 265.266 256.628 265.132C255.644 265.008 254.676 264.781 253.74 264.454C252.691 264.096 251.689 263.611 250.758 263.01C250.369 262.766 249.995 262.498 249.639 262.208C249.639 262.208 249.639 262.208 249.603 262.208C249.452 262.101 249.31 261.982 249.177 261.854C249.181 261.83 249.181 261.806 249.177 261.782C249.18 261.758 249.18 261.734 249.177 261.71V261.587C249.227 261.318 249.323 261.06 249.458 260.822L249.509 260.764H249.668H249.913C250.094 260.764 250.332 260.714 250.635 260.685H250.917H251.162H251.408H251.697H251.949H252.245C252.368 260.685 252.484 260.685 252.606 260.685H252.866H253.104H253.191H253.725H254.216C254.693 260.685 255.184 260.634 255.66 260.627H255.761C257.555 260.624 259.347 260.74 261.126 260.974C261.516 261.01 261.92 261.067 262.324 261.111L262.859 261.19L263.285 261.248L263.906 261.349L264.382 261.428L264.649 261.486C265.025 261.551 265.371 261.623 265.725 261.696L266.165 261.797H266.252L266.613 261.876L267.754 261.746Z" fill="white"/>
</g>
<path d="M261.429 253.422C260.859 255.53 260.151 259.429 261.545 260.967C261.545 260.967 260.823 263.133 256.816 262.815C252.433 262.49 254.881 260.483 254.881 260.483C257.314 260.086 257.379 258.317 257.09 256.613L261.429 253.422Z" fill="#EBB376"/>
<path opacity="0.2" d="M259.66 254.75L257.09 256.642C257.164 257.037 257.202 257.438 257.205 257.84C258.13 257.775 259.458 256.858 259.624 255.912C259.71 255.531 259.722 255.136 259.66 254.75Z" fill="black"/>
<path d="M262.086 248.245C261.985 251.855 262.014 253.364 260.26 255.263C257.624 258.151 253.234 257.205 252.267 253.653C251.386 250.454 251.711 245.119 255.155 243.545C255.92 243.196 256.763 243.049 257.601 243.12C258.439 243.19 259.245 243.475 259.941 243.947C260.637 244.42 261.2 245.063 261.576 245.816C261.952 246.568 262.127 247.405 262.086 248.245Z" fill="#EBB376"/>
<path d="M252.772 244.708C251.942 246.549 264.396 250.238 262.548 246.679C260.7 243.119 254.931 239.906 252.772 244.708Z" fill="#263238"/>
<path d="M259.278 247.4C259.343 249.126 261.956 250.656 261.956 250.656C261.956 250.656 264.353 247.992 262.346 247.241C260.339 246.49 259.278 247.4 259.278 247.4Z" fill="#263238"/>
<path d="M256.18 249.43C256.18 249.726 256.036 249.964 255.848 249.971C255.66 249.978 255.494 249.747 255.487 249.451C255.48 249.155 255.624 248.917 255.812 248.917C256 248.917 256.166 249.141 256.18 249.43Z" fill="#263238"/>
<path d="M252.873 249.538C252.873 249.826 252.736 250.072 252.549 250.079C252.361 250.086 252.195 249.848 252.188 249.559C252.18 249.27 252.325 249.025 252.512 249.018C252.7 249.011 252.866 249.242 252.873 249.538Z" fill="#263238"/>
<path d="M252.599 249.032L251.877 248.852C251.877 248.852 252.267 249.386 252.599 249.032Z" fill="#263238"/>
<path d="M254.144 249.985C253.905 250.66 253.574 251.299 253.162 251.884C253.315 251.985 253.487 252.052 253.668 252.079C253.849 252.107 254.033 252.094 254.209 252.043L254.144 249.985Z" fill="#D58745"/>
<path d="M263.169 251.508C263.059 251.835 262.886 252.136 262.659 252.395C262.433 252.654 262.157 252.865 261.848 253.017C261.025 253.421 260.44 252.714 260.534 251.848C260.628 250.981 261.155 249.913 262.05 249.876C262.247 249.871 262.442 249.915 262.617 250.004C262.793 250.093 262.943 250.225 263.054 250.387C263.166 250.55 263.235 250.737 263.255 250.933C263.275 251.129 263.245 251.327 263.169 251.508Z" fill="#EBB376"/>
<path d="M257.48 248.715C257.444 248.722 257.408 248.717 257.375 248.702C257.342 248.686 257.316 248.66 257.299 248.628C257.132 248.403 256.922 248.214 256.68 248.072C256.438 247.931 256.17 247.84 255.891 247.805C255.847 247.8 255.806 247.777 255.777 247.742C255.749 247.707 255.736 247.662 255.74 247.617C255.747 247.572 255.771 247.531 255.807 247.503C255.843 247.475 255.889 247.461 255.935 247.466C256.267 247.506 256.587 247.615 256.874 247.787C257.162 247.958 257.41 248.188 257.603 248.462C257.623 248.503 257.627 248.551 257.614 248.596C257.601 248.64 257.571 248.677 257.53 248.7L257.48 248.715Z" fill="#263238"/>
<path d="M251.834 248.043C251.804 248.049 251.774 248.047 251.746 248.037C251.718 248.026 251.693 248.009 251.675 247.985C251.659 247.969 251.646 247.951 251.638 247.93C251.629 247.91 251.625 247.888 251.625 247.866C251.625 247.844 251.629 247.822 251.638 247.801C251.646 247.781 251.659 247.762 251.675 247.747C251.874 247.56 252.115 247.426 252.378 247.354C252.641 247.282 252.918 247.276 253.184 247.335C253.228 247.347 253.265 247.376 253.288 247.415C253.311 247.454 253.318 247.5 253.307 247.544C253.293 247.587 253.264 247.623 253.225 247.644C253.186 247.666 253.14 247.671 253.097 247.66C252.884 247.618 252.664 247.628 252.456 247.688C252.248 247.749 252.057 247.858 251.899 248.007C251.88 248.024 251.858 248.036 251.834 248.043Z" fill="#263238"/>
<path d="M255.899 248.924L255.177 248.743C255.177 248.743 255.588 249.285 255.899 248.924Z" fill="#263238"/>
<path d="M254.917 253.126C255.249 253.51 255.553 253.918 255.826 254.346C255.91 254.314 255.992 254.278 256.072 254.238C257.191 253.747 257.516 253.148 257.595 252.635C257.627 252.24 257.514 251.847 257.277 251.53C256.727 252.148 256.05 252.641 255.292 252.974L254.917 253.126Z" fill="#263238"/>
<path d="M255.292 252.953L255.574 253.306C256.62 252.837 257.299 252.368 257.487 251.906C257.434 251.772 257.363 251.646 257.277 251.53C256.725 252.14 256.048 252.625 255.292 252.953Z" fill="white"/>
<path d="M256.072 254.238C257.191 253.747 257.516 253.147 257.595 252.635C257.178 252.834 256.797 253.103 256.469 253.429C256.256 253.651 256.117 253.933 256.072 254.238Z" fill="#DE5753"/>
<path d="M266.736 261.487C265.572 262.592 264.242 263.508 262.794 264.202L262.353 264.397C261.29 264.851 260.162 265.136 259.01 265.241C258.213 265.307 257.41 265.274 256.62 265.14L256.404 265.104C255.507 264.946 254.633 264.674 253.805 264.295C253.249 264.045 252.736 263.712 252.281 263.306C252.166 263.198 252.057 263.09 251.956 262.974C251.446 262.418 251.123 261.716 251.032 260.967C251.022 260.832 251.022 260.697 251.032 260.563H251.278H251.523H251.812H252.065H252.361C252.483 260.563 252.599 260.563 252.722 260.563H252.982H253.22H253.307H253.841H254.332C254.808 260.563 255.299 260.512 255.776 260.505H255.877C257.671 260.502 259.463 260.618 261.241 260.852C261.631 260.888 262.035 260.945 262.44 260.989L262.974 261.068L263.4 261.126L264.021 261.227L264.498 261.306L264.765 261.364C265.14 261.429 265.487 261.501 265.84 261.574L266.281 261.675H266.367L266.736 261.487Z" fill="#EBB376"/>
<path d="M262.808 264.201L262.375 264.396C262.461 263.175 262.669 261.966 262.996 260.786L263.422 260.844C263.118 261.943 262.912 263.066 262.808 264.201Z" fill="#263238"/>
<path d="M253.841 260.303C253.211 261.243 252.688 262.25 252.281 263.306C252.166 263.198 252.057 263.09 251.956 262.974C252.323 262.053 252.775 261.169 253.306 260.332L253.841 260.303Z" fill="#263238"/>
<path d="M267.595 261.891C266.936 262.455 266.222 262.953 265.465 263.378C265.973 262.642 266.729 262.114 267.595 261.891Z" fill="#FFCE1A"/>
<g opacity="0.7">
<path d="M267.595 261.891C266.936 262.455 266.222 262.953 265.465 263.378C265.973 262.642 266.729 262.114 267.595 261.891Z" fill="white"/>
</g>
<g opacity="0.2">
<path d="M262.808 264.201L262.375 264.396C262.461 263.175 262.669 261.966 262.996 260.786L263.422 260.844C263.118 261.943 262.912 263.066 262.808 264.201Z" fill="white"/>
</g>
<g opacity="0.2">
<path d="M253.841 260.303C253.211 261.243 252.688 262.25 252.281 263.306C252.166 263.198 252.057 263.09 251.956 262.974C252.323 262.053 252.775 261.169 253.306 260.332L253.841 260.303Z" fill="white"/>
</g>
<path opacity="0.5" d="M272.613 251.075C272.62 254.711 271.22 258.209 268.707 260.836C268.409 261.157 268.091 261.459 267.754 261.739L267.595 261.883C266.936 262.448 266.222 262.946 265.465 263.371C263.499 264.504 261.286 265.141 259.018 265.226H258.426C257.825 265.224 257.224 265.185 256.628 265.111C255.644 264.987 254.676 264.759 253.74 264.432C252.691 264.074 251.689 263.589 250.758 262.988C250.369 262.744 249.995 262.476 249.639 262.186C249.639 262.186 249.639 262.186 249.603 262.186C249.452 262.079 249.31 261.961 249.177 261.833C249.025 261.71 248.881 261.58 248.736 261.443C247.022 259.834 245.735 257.825 244.99 255.595C244.246 253.365 244.067 250.986 244.47 248.67C244.874 246.354 245.846 244.175 247.301 242.328C248.756 240.482 250.647 239.026 252.804 238.091C254.961 237.157 257.316 236.773 259.658 236.975C262 237.177 264.255 237.958 266.22 239.248C268.186 240.538 269.799 242.296 270.917 244.364C272.034 246.432 272.619 248.746 272.62 251.097L272.613 251.075Z" fill="white"/>
<path opacity="0.5" d="M240.181 251.09C240.183 253.198 239.713 255.279 238.806 257.182C237.899 259.085 236.578 260.76 234.939 262.086C234.643 262.338 234.34 262.562 234.029 262.808C233.312 263.305 232.548 263.731 231.748 264.078C230.749 264.526 229.699 264.851 228.621 265.046L228.354 265.097C227.576 265.224 226.789 265.289 226.001 265.291C224.993 265.294 223.988 265.185 223.004 264.967C222.399 264.84 221.803 264.671 221.221 264.461C220.533 264.219 219.866 263.92 219.228 263.566C219.09 263.496 218.955 263.419 218.824 263.335L218.564 263.183L218.362 263.046C217.978 262.812 217.612 262.551 217.264 262.266C217.038 262.098 216.821 261.917 216.615 261.725L216.456 261.58C214.713 259.99 213.395 257.99 212.621 255.761C211.846 253.533 211.64 251.147 212.021 248.818C212.402 246.49 213.357 244.294 214.801 242.428C216.245 240.562 218.132 239.086 220.29 238.134C222.448 237.181 224.81 236.782 227.162 236.973C229.513 237.164 231.78 237.938 233.756 239.226C235.733 240.514 237.357 242.275 238.481 244.349C239.606 246.423 240.195 248.745 240.195 251.104L240.181 251.09Z" fill="white"/>
<path d="M225.986 264.599C225.027 264.601 224.071 264.499 223.134 264.295C222.558 264.175 221.991 264.013 221.437 263.812C220.781 263.58 220.144 263.298 219.531 262.967L219.149 262.743C219.09 262.714 219.035 262.68 218.983 262.642L218.903 262.599L218.73 262.483C218.364 262.261 218.01 262.02 217.669 261.761C217.457 261.602 217.255 261.431 217.062 261.248L216.867 261.068C214.845 259.211 213.437 256.782 212.83 254.104C212.224 251.427 212.447 248.628 213.471 246.081C214.495 243.534 216.271 241.359 218.561 239.846C220.852 238.333 223.55 237.555 226.295 237.613C229.039 237.672 231.701 238.566 233.925 240.176C236.149 241.785 237.83 244.034 238.743 246.623C239.657 249.212 239.76 252.018 239.039 254.667C238.318 257.316 236.807 259.682 234.708 261.451L234.506 261.609C234.231 261.841 233.95 262.05 233.646 262.259C232.964 262.731 232.239 263.137 231.48 263.472C230.527 263.897 229.526 264.205 228.499 264.389L227.972 264.483C227.314 264.572 226.65 264.611 225.986 264.599Z" fill="white"/>
<path d="M217.878 251.256C218.08 252.746 218.08 254.257 217.878 255.747C217.878 255.747 226.91 256.996 229.105 255.328C231.3 253.66 232.267 243.719 227.379 242.765C222.492 241.812 216.723 245.148 217.878 251.256Z" fill="#263238"/>
<path d="M234.022 262.808C233.305 263.306 232.541 263.731 231.741 264.079C230.741 264.526 229.692 264.851 228.614 265.046L228.347 265.097C227.569 265.224 226.782 265.289 225.993 265.292C224.986 265.294 223.981 265.185 222.997 264.967C222.392 264.84 221.796 264.671 221.214 264.461C220.526 264.219 219.859 263.92 219.221 263.566C219.082 263.496 218.947 263.419 218.817 263.335L218.557 263.183L218.355 263.046C217.971 262.812 217.605 262.551 217.257 262.267C217.031 262.098 216.814 261.917 216.607 261.725C217.113 261.578 217.626 261.46 218.145 261.371C218.6 261.285 219.019 261.241 219.373 261.205H219.9C220.059 261.205 220.196 261.205 220.297 261.205H220.506C220.506 261.285 220.506 261.364 220.506 261.436C220.434 261.722 220.472 262.025 220.612 262.284C220.753 262.544 220.985 262.741 221.264 262.837C222.322 263.058 223.42 262.978 224.434 262.606C224.708 262.526 224.983 262.447 225.257 262.353C226.38 261.98 227.482 261.543 228.557 261.046L229.076 260.801H229.343C230.108 260.797 230.868 260.914 231.596 261.147H231.654C232.588 261.458 233.411 262.036 234.022 262.808Z" fill="#FFCE1A"/>
<path opacity="0.7" d="M234.022 262.808C233.305 263.306 232.541 263.731 231.741 264.079C230.741 264.526 229.692 264.851 228.614 265.046L228.347 265.097C227.569 265.224 226.782 265.289 225.993 265.292C224.986 265.294 223.981 265.185 222.997 264.967C222.392 264.84 221.796 264.671 221.214 264.461C220.526 264.219 219.859 263.92 219.221 263.566C219.082 263.496 218.947 263.419 218.817 263.335L218.557 263.183L218.355 263.046C217.971 262.812 217.605 262.551 217.257 262.267C217.031 262.098 216.814 261.917 216.607 261.725C217.113 261.578 217.626 261.46 218.145 261.371C218.6 261.285 219.019 261.241 219.373 261.205H219.9C220.059 261.205 220.196 261.205 220.297 261.205H220.506C220.506 261.285 220.506 261.364 220.506 261.436C220.434 261.722 220.472 262.025 220.612 262.284C220.753 262.544 220.985 262.741 221.264 262.837C222.322 263.058 223.42 262.978 224.434 262.606C224.708 262.526 224.983 262.447 225.257 262.353C226.38 261.98 227.482 261.543 228.557 261.046L229.076 260.801H229.343C230.108 260.797 230.868 260.914 231.596 261.147H231.654C232.588 261.458 233.411 262.036 234.022 262.808Z" fill="white"/>
<path d="M224.932 262.555H224.419C224.002 263.393 223.519 264.197 222.975 264.959C222.37 264.833 221.774 264.664 221.192 264.454C221.089 263.99 221.109 263.507 221.25 263.053C218.362 262.808 219.553 261.884 220.47 261.386C220.838 261.191 221.156 261.061 221.156 261.061C221.852 260.931 222.495 260.6 223.004 260.108C223.52 259.508 223.779 258.73 223.726 257.942C223.726 257.833 223.726 257.725 223.726 257.617C223.709 257.316 223.67 257.017 223.611 256.721C223.614 256.688 223.614 256.654 223.611 256.62L224.094 256.23L226.47 254.324L228.361 252.808L228.441 252.743C228.437 252.786 228.437 252.83 228.441 252.873C228.296 253.393 228.145 254.014 228.029 254.671C227.986 254.866 227.95 255.068 227.921 255.27C227.882 255.476 227.853 255.683 227.834 255.891C227.834 256.028 227.791 256.173 227.777 256.303C227.621 257.441 227.657 258.598 227.885 259.725C227.996 260.201 228.218 260.644 228.535 261.017L228.585 261.075C228.585 261.075 230.592 262.642 224.932 262.555Z" fill="#EEC1BB"/>
<path opacity="0.2" d="M226.506 254.281L223.618 256.577C223.7 257.013 223.744 257.455 223.748 257.898C224.773 257.747 226.253 256.635 226.441 255.574C226.539 255.15 226.561 254.712 226.506 254.281Z" fill="black"/>
<path d="M230.513 247.913C229.791 251.761 229.567 253.4 227.372 255.249C224.066 258.028 219.524 256.556 219.084 252.635C218.694 249.097 219.943 243.393 223.914 242.123C224.757 241.832 225.661 241.77 226.536 241.942C227.411 242.114 228.225 242.514 228.895 243.102C229.565 243.69 230.068 244.445 230.352 245.29C230.636 246.135 230.692 247.04 230.513 247.913Z" fill="#EEC1BB"/>
<path d="M227.206 245.127C229.329 247.87 224.961 251.025 229.329 250.845C233.697 250.664 231.921 244.491 229.329 243.09C226.737 241.69 227.206 245.127 227.206 245.127Z" fill="#263238"/>
<path d="M224.412 248.548C224.369 248.88 224.159 249.125 223.95 249.111C223.741 249.097 223.611 248.822 223.661 248.497C223.712 248.172 223.914 247.92 224.123 247.934C224.333 247.949 224.463 248.223 224.412 248.548Z" fill="#263238"/>
<path d="M220.477 248.317C220.434 248.642 220.224 248.895 220.015 248.881C219.806 248.866 219.676 248.592 219.726 248.267C219.777 247.942 219.979 247.689 220.188 247.704C220.398 247.718 220.528 247.993 220.477 248.317Z" fill="#263238"/>
<path d="M220.275 247.725L219.553 247.443C219.553 247.443 219.849 248.086 220.275 247.725Z" fill="#263238"/>
<path d="M221.495 248.931C221.101 249.656 220.615 250.328 220.051 250.931C220.202 251.062 220.38 251.157 220.572 251.21C220.765 251.262 220.967 251.271 221.163 251.234L221.495 248.931Z" fill="#D4827D"/>
<path d="M222.831 252.57C222.651 252.588 222.469 252.588 222.289 252.57C222.277 252.569 222.266 252.566 222.255 252.56C222.244 252.554 222.235 252.546 222.227 252.537C222.22 252.527 222.214 252.516 222.211 252.505C222.208 252.493 222.208 252.481 222.21 252.469C222.214 252.443 222.227 252.42 222.247 252.404C222.267 252.388 222.293 252.38 222.318 252.382C222.726 252.413 223.136 252.352 223.517 252.203C223.898 252.055 224.241 251.822 224.52 251.523C224.529 251.514 224.54 251.506 224.552 251.501C224.563 251.496 224.576 251.493 224.589 251.493C224.602 251.493 224.615 251.496 224.626 251.501C224.638 251.506 224.649 251.514 224.658 251.523C224.674 251.54 224.684 251.564 224.684 251.588C224.684 251.612 224.674 251.635 224.658 251.653C224.181 252.171 223.531 252.497 222.831 252.57Z" fill="#263238"/>
<path d="M225.51 246.801C225.485 246.801 225.461 246.796 225.439 246.786C225.416 246.776 225.396 246.761 225.38 246.743C225.229 246.565 225.035 246.427 224.817 246.344C224.598 246.26 224.362 246.234 224.131 246.267C224.107 246.271 224.083 246.27 224.059 246.265C224.036 246.26 224.014 246.249 223.994 246.235C223.974 246.221 223.958 246.203 223.945 246.183C223.933 246.162 223.925 246.139 223.921 246.115C223.915 246.063 223.928 246.01 223.959 245.967C223.99 245.924 224.036 245.895 224.087 245.884C224.379 245.843 224.677 245.876 224.953 245.98C225.229 246.083 225.475 246.254 225.669 246.476C225.703 246.513 225.721 246.56 225.721 246.61C225.721 246.66 225.703 246.707 225.669 246.743C225.648 246.764 225.623 246.779 225.595 246.789C225.568 246.799 225.539 246.803 225.51 246.801Z" fill="#263238"/>
<path d="M219.596 246.447C219.573 246.451 219.549 246.449 219.526 246.442C219.503 246.434 219.483 246.421 219.466 246.404C219.449 246.386 219.435 246.365 219.425 246.343C219.416 246.32 219.411 246.295 219.411 246.27C219.411 246.245 219.416 246.221 219.425 246.198C219.435 246.175 219.449 246.154 219.466 246.137C219.665 245.9 219.916 245.712 220.199 245.587C220.481 245.461 220.789 245.403 221.098 245.415C221.147 245.423 221.19 245.451 221.219 245.492C221.247 245.532 221.258 245.582 221.25 245.631C221.238 245.681 221.209 245.725 221.168 245.755C221.127 245.785 221.077 245.8 221.026 245.797C220.781 245.791 220.539 245.84 220.316 245.941C220.093 246.043 219.897 246.193 219.741 246.382C219.723 246.403 219.701 246.419 219.676 246.431C219.651 246.442 219.624 246.447 219.596 246.447Z" fill="#263238"/>
<path d="M224.21 247.956L223.488 247.675C223.488 247.675 223.82 248.317 224.21 247.956Z" fill="#263238"/>
<path d="M225.712 242.989C225.712 242.989 226.47 247.53 229.488 248.288C232.506 249.046 230.051 243.624 230.051 243.624C230.051 243.624 229.415 241.162 225.343 241.162C224.142 241.221 222.969 241.547 221.909 242.115C220.849 242.683 219.929 243.479 219.214 244.446C218.5 245.414 218.009 246.528 217.778 247.708C217.547 248.888 217.581 250.105 217.878 251.27C217.768 250.048 218.003 248.82 218.557 247.725C219.488 246.137 220.383 247.487 225.712 242.989Z" fill="#263238"/>
<path d="M228.455 241.87C232.787 243.596 234.325 246.419 233.964 249.552C233.603 252.686 229.733 256 229.105 256.115L227.17 256.39C227.17 256.39 230.145 252.252 229.574 250.852C229.004 249.451 228.426 249.307 228.426 249.307L228.455 241.87Z" fill="#263238"/>
<path d="M230.888 251.624C230.731 251.965 230.503 252.27 230.221 252.518C229.939 252.767 229.608 252.954 229.249 253.068C228.354 253.306 227.964 252.274 228.268 251.248C228.571 250.223 229.322 249.082 230.203 249.313C231.083 249.544 231.343 250.721 230.888 251.624Z" fill="#EEC1BB"/>
<path d="M233.206 261.458C233.56 261.559 234.34 261.855 234.953 262.094C234.657 262.346 234.354 262.57 234.044 262.816C233.327 263.313 232.562 263.739 231.762 264.086C230.763 264.534 229.713 264.859 228.636 265.054C228.701 264.823 228.773 264.606 228.845 264.389C228.851 264.343 228.86 264.297 228.874 264.252L228.961 264V263.942C229.018 263.769 229.083 263.602 229.148 263.436C229.257 263.148 229.372 262.873 229.495 262.621C229.529 262.537 229.567 262.455 229.61 262.375C229.61 262.296 229.697 262.216 229.733 262.137C229.769 262.057 229.733 262.137 229.733 262.137C229.735 262.122 229.735 262.108 229.733 262.094C229.784 262 229.841 261.913 229.885 261.826L230.087 261.516C230.229 261.317 230.389 261.131 230.563 260.96L231.026 261.047L231.358 261.112C231.418 261.105 231.478 261.105 231.538 261.112H231.596C231.644 261.105 231.692 261.105 231.74 261.112L232.462 261.256L232.621 261.292L233.033 261.386L233.206 261.458Z" fill="#263238"/>
<path opacity="0.2" d="M233.206 261.458C233.56 261.559 234.34 261.855 234.953 262.094C234.657 262.346 234.354 262.57 234.044 262.816C233.327 263.313 232.562 263.739 231.762 264.086C230.763 264.534 229.713 264.859 228.636 265.054C228.701 264.823 228.773 264.606 228.845 264.389C228.851 264.343 228.86 264.297 228.874 264.252L228.961 264V263.942C229.018 263.769 229.083 263.602 229.148 263.436C229.257 263.148 229.372 262.873 229.495 262.621C229.529 262.537 229.567 262.455 229.61 262.375C229.61 262.296 229.697 262.216 229.733 262.137C229.769 262.057 229.733 262.137 229.733 262.137C229.735 262.122 229.735 262.108 229.733 262.094C229.784 262 229.841 261.913 229.885 261.826L230.087 261.516C230.229 261.317 230.389 261.131 230.563 260.96L231.026 261.047L231.358 261.112C231.418 261.105 231.478 261.105 231.538 261.112H231.596C231.644 261.105 231.692 261.105 231.74 261.112L232.462 261.256L232.621 261.292L233.033 261.386L233.206 261.458Z" fill="white"/>
<path d="M231.762 264.057C230.763 264.505 229.713 264.83 228.636 265.025L228.369 265.075C228.448 264.801 228.535 264.541 228.621 264.288C228.898 263.446 229.281 262.643 229.762 261.898C230.001 261.528 230.293 261.195 230.629 260.909C231.094 261.925 231.473 262.978 231.762 264.057Z" fill="#263238"/>
<path d="M219.409 261.162C219.19 261.583 218.998 262.017 218.831 262.461C218.752 262.656 218.672 262.887 218.578 263.133L218.376 262.995C217.993 262.761 217.626 262.501 217.279 262.216C217.052 262.047 216.835 261.867 216.629 261.674L216.47 261.53C217.181 261.346 217.905 261.221 218.636 261.154C218.882 261.169 219.142 261.162 219.409 261.162Z" fill="#263238"/>
<path opacity="0.2" d="M219.409 261.162C219.19 261.583 218.998 262.017 218.831 262.461C218.752 262.656 218.672 262.887 218.578 263.133L218.376 262.995C217.993 262.761 217.626 262.501 217.279 262.216C217.052 262.047 216.835 261.867 216.629 261.674L216.47 261.53C217.181 261.346 217.905 261.221 218.636 261.154C218.882 261.169 219.142 261.162 219.409 261.162Z" fill="white"/>
<path d="M219.914 261.162C219.642 261.364 219.436 261.643 219.322 261.963C219.117 262.401 218.948 262.855 218.817 263.32L218.557 263.169L218.355 263.032C217.971 262.797 217.604 262.537 217.257 262.252C217.482 261.891 217.786 261.585 218.145 261.357C218.297 261.289 218.454 261.233 218.614 261.191C219.03 261.025 219.491 261.015 219.914 261.162Z" fill="#263238"/>
<path d="M221.25 262.808C221.243 262.896 221.243 262.986 221.25 263.075L219.199 263.58C219.06 263.51 218.926 263.433 218.795 263.349L218.535 263.197L218.333 263.06C218.475 262.874 218.627 262.696 218.788 262.526C218.939 262.353 219.113 262.179 219.3 261.999C219.606 261.699 219.937 261.426 220.289 261.183C221.085 260.597 222.022 260.233 223.004 260.129H223.076C223.076 260.129 221.264 261.364 221.25 262.808Z" fill="#FFCE1A"/>
<path d="M229.423 264.555L224.463 262.945C225.707 261.963 226.859 260.871 227.907 259.682L229.546 260.909C229.596 261.003 230.073 262.209 229.423 264.555Z" fill="#FFCE1A"/>
<path opacity="0.6" d="M221.25 262.808C221.243 262.896 221.243 262.986 221.25 263.075L219.199 263.58C219.06 263.51 218.926 263.433 218.795 263.349L218.535 263.197L218.333 263.06C218.475 262.874 218.627 262.696 218.788 262.526C218.939 262.353 219.113 262.179 219.3 261.999C219.606 261.699 219.937 261.426 220.289 261.183C221.085 260.597 222.022 260.233 223.004 260.129H223.076C223.076 260.129 221.264 261.364 221.25 262.808Z" fill="white"/>
<path opacity="0.6" d="M229.423 264.555L224.463 262.945C225.707 261.963 226.859 260.871 227.907 259.682L229.546 260.909C229.596 261.003 230.073 262.209 229.423 264.555Z" fill="white"/>
<path d="M203.257 263.27C203.197 263.27 203.137 263.258 203.083 263.233C203.028 263.208 202.979 263.171 202.94 263.125L201.171 261.039C201.099 260.956 201.063 260.847 201.071 260.737C201.08 260.628 201.131 260.526 201.214 260.454C201.298 260.382 201.406 260.346 201.516 260.355C201.625 260.363 201.727 260.414 201.799 260.497L203.243 262.216L205.647 259.378C205.683 259.336 205.727 259.302 205.776 259.277C205.826 259.252 205.879 259.238 205.934 259.234C205.989 259.23 206.045 259.236 206.097 259.254C206.149 259.271 206.198 259.299 206.239 259.335C206.281 259.37 206.315 259.413 206.34 259.462C206.365 259.511 206.379 259.564 206.383 259.618C206.387 259.673 206.381 259.727 206.363 259.779C206.346 259.831 206.319 259.879 206.283 259.92L203.604 263.125C203.562 263.175 203.508 263.214 203.448 263.239C203.388 263.265 203.323 263.275 203.257 263.27Z" fill="white"/>
<path d="M235.683 263.27C235.622 263.27 235.563 263.258 235.508 263.233C235.453 263.208 235.404 263.171 235.365 263.125L233.596 261.039C233.524 260.956 233.488 260.847 233.496 260.737C233.505 260.628 233.556 260.526 233.639 260.454C233.723 260.382 233.831 260.346 233.941 260.355C234.05 260.363 234.152 260.414 234.224 260.497L235.668 262.216L238.072 259.378C238.108 259.336 238.152 259.302 238.201 259.277C238.251 259.252 238.304 259.238 238.359 259.234C238.414 259.23 238.47 259.236 238.522 259.254C238.574 259.271 238.623 259.299 238.664 259.335C238.706 259.37 238.74 259.413 238.765 259.462C238.79 259.511 238.804 259.564 238.808 259.618C238.812 259.673 238.806 259.727 238.788 259.779C238.771 259.831 238.744 259.879 238.708 259.92L235.986 263.125C235.948 263.169 235.902 263.205 235.85 263.23C235.797 263.255 235.74 263.268 235.683 263.27Z" fill="white"/>
<path d="M225.986 277.067C225.931 277.067 225.877 277.054 225.827 277.031L221.575 274.771C221.496 274.73 221.436 274.659 221.409 274.574C221.382 274.488 221.39 274.396 221.43 274.317C221.473 274.239 221.545 274.181 221.63 274.155C221.715 274.129 221.806 274.138 221.885 274.179L225.986 276.345L230.087 274.179C230.166 274.138 230.257 274.129 230.342 274.155C230.427 274.181 230.499 274.239 230.542 274.317C230.583 274.396 230.59 274.488 230.563 274.574C230.536 274.659 230.477 274.73 230.397 274.771L226.145 277.031C226.095 277.053 226.041 277.066 225.986 277.067Z" fill="white"/>
<path d="M225.986 274.36C225.93 274.36 225.875 274.345 225.827 274.316L221.575 272.064C221.53 272.046 221.49 272.02 221.457 271.986C221.423 271.952 221.397 271.912 221.381 271.867C221.364 271.823 221.357 271.775 221.359 271.728C221.362 271.68 221.375 271.634 221.397 271.591C221.419 271.549 221.449 271.512 221.487 271.482C221.524 271.453 221.567 271.431 221.613 271.419C221.659 271.407 221.707 271.405 221.754 271.413C221.801 271.421 221.845 271.438 221.885 271.464L225.986 273.63L230.087 271.464C230.127 271.438 230.172 271.421 230.219 271.413C230.265 271.405 230.314 271.407 230.36 271.419C230.406 271.431 230.449 271.453 230.486 271.482C230.523 271.512 230.553 271.549 230.575 271.591C230.597 271.634 230.61 271.68 230.613 271.728C230.616 271.775 230.608 271.823 230.592 271.867C230.575 271.912 230.549 271.952 230.516 271.986C230.482 272.02 230.442 272.046 230.398 272.064L226.159 274.36C226.103 274.375 226.043 274.375 225.986 274.36Z" fill="white"/>
<path opacity="0.6" d="M183.568 102.755H184.911V100.964H183.568V102.755Z" fill="white"/>
<path opacity="0.6" d="M181.381 102.755H182.724V100.365H181.381V102.755Z" fill="white"/>
<path opacity="0.6" d="M179.186 102.755H180.529V99.7658H179.186V102.755Z" fill="white"/>
<path opacity="0.6" d="M176.998 102.755H178.341V99.1665H176.998V102.755Z" fill="white"/>
<path opacity="0.6" d="M268.108 100.308H267.313V102.098H268.108V100.308Z" fill="white"/>
<path opacity="0.6" d="M268.664 102.755H275.01V99.6575H268.664V102.755Z" fill="white"/>
<path opacity="0.2" d="M274.555 94.8711L171.569 197.828V97.2754C171.545 96.6618 171.766 96.064 172.183 95.6132C172.6 95.1624 173.179 94.8955 173.793 94.8711H199.633C199.995 94.8778 200.347 94.9919 200.644 95.1989C200.94 95.4058 201.169 95.6963 201.301 96.0335L202.369 98.6688C202.5 99.0046 202.728 99.2939 203.023 99.4997C203.319 99.7054 203.67 99.8184 204.03 99.824H248.029C248.387 99.8211 248.736 99.7117 249.031 99.5099C249.327 99.308 249.556 99.0228 249.689 98.6905L250.758 96.0407C250.888 95.7022 251.116 95.4102 251.414 95.2018C251.711 94.9935 252.063 94.8784 252.426 94.8711H274.555Z" fill="white"/>
<path opacity="0.2" d="M280.432 113.96V122.415L171.569 231.271V222.823L280.432 113.96Z" fill="white"/>
<path d="M203.734 265.277C202.939 265.277 202.161 265.042 201.5 264.6C200.838 264.158 200.323 263.53 200.019 262.795C199.714 262.06 199.635 261.251 199.79 260.471C199.945 259.691 200.328 258.975 200.89 258.412C201.453 257.85 202.169 257.467 202.949 257.312C203.729 257.156 204.538 257.236 205.273 257.54C206.008 257.845 206.636 258.36 207.078 259.022C207.52 259.683 207.755 260.461 207.755 261.256C207.754 262.322 207.329 263.344 206.575 264.097C205.822 264.851 204.8 265.276 203.734 265.277Z" fill="#FFCE1A"/>
<path d="M203.734 265.609C202.877 265.609 202.04 265.355 201.327 264.879C200.615 264.403 200.06 263.727 199.732 262.935C199.404 262.144 199.318 261.273 199.485 260.432C199.652 259.592 200.065 258.82 200.671 258.214C201.277 257.608 202.049 257.196 202.889 257.029C203.729 256.861 204.6 256.947 205.392 257.275C206.183 257.603 206.86 258.158 207.336 258.871C207.812 259.583 208.066 260.421 208.066 261.277C208.066 262.426 207.61 263.528 206.797 264.341C205.985 265.153 204.883 265.609 203.734 265.609ZM203.734 257.573C203.006 257.573 202.294 257.789 201.688 258.194C201.083 258.599 200.611 259.174 200.332 259.847C200.053 260.519 199.981 261.26 200.123 261.974C200.265 262.688 200.615 263.344 201.13 263.859C201.645 264.374 202.301 264.725 203.016 264.867C203.73 265.009 204.47 264.936 205.143 264.658C205.816 264.379 206.391 263.907 206.796 263.301C207.2 262.696 207.416 261.984 207.416 261.256C207.416 260.772 207.321 260.293 207.136 259.847C206.951 259.4 206.68 258.994 206.338 258.652C205.996 258.31 205.59 258.039 205.143 257.854C204.696 257.669 204.218 257.573 203.734 257.573Z" fill="white"/>
<path d="M236.159 265.277C235.364 265.277 234.586 265.042 233.925 264.6C233.263 264.158 232.748 263.53 232.444 262.795C232.139 262.06 232.06 261.251 232.215 260.471C232.37 259.691 232.753 258.975 233.315 258.412C233.878 257.85 234.594 257.467 235.374 257.312C236.155 257.156 236.963 257.236 237.698 257.54C238.433 257.845 239.061 258.36 239.503 259.022C239.945 259.683 240.181 260.461 240.181 261.256C240.179 262.322 239.754 263.344 239.001 264.097C238.247 264.851 237.225 265.276 236.159 265.277Z" fill="#FFCE1A"/>
<path d="M236.159 265.609C235.302 265.609 234.465 265.355 233.752 264.879C233.04 264.403 232.485 263.727 232.157 262.935C231.829 262.144 231.743 261.273 231.91 260.432C232.078 259.592 232.49 258.82 233.096 258.214C233.702 257.608 234.474 257.196 235.314 257.029C236.154 256.861 237.025 256.947 237.817 257.275C238.609 257.603 239.285 258.158 239.761 258.871C240.237 259.583 240.491 260.421 240.491 261.277C240.491 262.426 240.035 263.528 239.222 264.341C238.41 265.153 237.308 265.609 236.159 265.609ZM236.159 257.573C235.431 257.573 234.719 257.789 234.113 258.194C233.508 258.599 233.036 259.174 232.757 259.847C232.479 260.519 232.406 261.26 232.548 261.974C232.69 262.688 233.04 263.344 233.555 263.859C234.07 264.374 234.727 264.725 235.441 264.867C236.155 265.009 236.895 264.936 237.568 264.658C238.241 264.379 238.816 263.907 239.221 263.301C239.625 262.696 239.841 261.984 239.841 261.256C239.841 260.279 239.453 259.342 238.763 258.652C238.072 257.961 237.136 257.573 236.159 257.573Z" fill="white"/>
<path d="M146.118 149.931C145.613 150.92 145.158 151.757 144.674 152.645C144.191 153.533 143.671 154.378 143.151 155.23C142.097 156.934 140.971 158.597 139.772 160.219C138.564 161.875 137.257 163.456 135.859 164.955C134.408 166.528 132.818 167.966 131.108 169.251L131.021 169.309C130.597 169.621 130.109 169.835 129.592 169.934C129.074 170.032 128.542 170.014 128.032 169.879C126.555 169.463 125.238 168.613 124.249 167.439C123.507 166.567 122.892 165.595 122.422 164.551C121.663 162.801 121.108 160.97 120.769 159.093C120.447 157.36 120.232 155.61 120.126 153.851C120.076 152.985 120.047 152.125 120.04 151.266V149.317C120.04 149.093 120.04 148.884 120.574 148.595C121.703 148.018 123.011 147.896 124.227 148.256L125.13 148.523C125.643 148.674 125.7 148.876 125.707 149.064L125.772 149.642L125.917 150.811C126.025 151.584 126.148 152.356 126.292 153.129C126.532 154.636 126.848 156.13 127.238 157.605C127.567 158.954 128.051 160.26 128.682 161.497C128.898 161.939 129.184 162.343 129.527 162.696C129.787 162.948 129.888 162.927 129.816 162.883L126.747 163.519C129.342 161.246 131.611 158.627 133.491 155.735C134.501 154.291 135.454 152.717 136.379 151.144C136.841 150.364 137.281 149.57 137.707 148.775C138.133 147.981 138.566 147.144 138.906 146.422V146.378C139.365 145.411 140.19 144.666 141.199 144.308C142.208 143.949 143.318 144.005 144.285 144.465C145.252 144.925 145.996 145.749 146.355 146.758C146.714 147.767 146.657 148.877 146.198 149.844C146.168 149.869 146.141 149.899 146.118 149.931Z" fill="#263238"/>
<path d="M143.996 290.966L148.891 287.544C148.967 287.48 149.063 287.444 149.162 287.444C149.261 287.444 149.357 287.48 149.432 287.544L152.609 290.569C152.746 290.716 152.818 290.91 152.812 291.111C152.805 291.311 152.719 291.5 152.573 291.637C152.534 291.669 152.493 291.698 152.45 291.724C150.739 292.879 149.808 293.406 147.678 294.894C146.371 295.803 140.805 299.125 138.704 299.363C136.603 299.601 136.278 297.616 137.122 297.262C141.382 295.457 142.971 293.32 143.454 291.673C143.551 291.384 143.742 291.135 143.996 290.966Z" fill="#263238"/>
<path opacity="0.2" d="M143.996 290.966L148.891 287.544C148.967 287.48 149.063 287.444 149.162 287.444C149.261 287.444 149.357 287.48 149.432 287.544L152.609 290.569C152.746 290.716 152.818 290.91 152.812 291.111C152.805 291.311 152.719 291.5 152.573 291.637C152.534 291.669 152.493 291.698 152.45 291.724C150.739 292.879 149.808 293.406 147.678 294.894C146.371 295.803 140.805 299.125 138.704 299.363C136.603 299.601 136.278 297.616 137.122 297.262C141.382 295.457 142.971 293.32 143.454 291.673C143.551 291.384 143.742 291.135 143.996 290.966Z" fill="black"/>
<path d="M143.043 179.438C143.043 179.438 124.624 220.419 123.628 235.032C122.538 251.046 142.458 292.273 142.458 292.273L151.526 289.876C151.526 289.876 137.454 248.223 138.4 235.949C141.425 218.398 162.493 182.355 162.493 182.355L143.043 179.438Z" fill="#263238"/>
<path opacity="0.2" d="M145.122 269.24C148.364 280.453 151.555 289.875 151.555 289.875L142.48 292.265C142.48 292.265 141.837 290.936 140.79 288.655C135.996 278.258 122.74 248.165 123.65 235.025C124.639 220.419 143.057 179.431 143.057 179.431L162.551 182.319C162.551 182.319 141.476 218.354 138.451 235.905C137.902 242.382 141.512 256.894 145.122 269.24Z" fill="white"/>
<path opacity="0.2" d="M154.963 191.626C150.169 193.792 146.963 205.192 147.173 211.206C150.508 204.037 154.169 197.019 157.071 191.647C156.753 191.457 156.39 191.355 156.02 191.352C155.65 191.348 155.285 191.442 154.963 191.626Z" fill="black"/>
<path opacity="0.2" d="M151.533 289.875L142.458 292.265C142.458 292.265 141.815 290.936 140.768 288.655C143.281 281.94 144.559 273.63 145.1 269.24C148.342 280.453 151.533 289.875 151.533 289.875Z" fill="black"/>
<path d="M142.79 176.781L169.67 177.713C169.67 177.713 169.843 186.535 167.807 193.098L141.093 183.799L142.79 176.781Z" fill="#263238"/>
<path opacity="0.2" d="M142.79 176.781L169.67 177.713C169.67 177.713 169.843 186.535 167.807 193.098L141.093 183.799L142.79 176.781Z" fill="white"/>
<path d="M148.053 294.489L154.176 294.692C154.276 294.697 154.371 294.736 154.446 294.801C154.522 294.866 154.574 294.955 154.595 295.053L155.439 299.565C155.46 299.662 155.461 299.761 155.442 299.858C155.423 299.955 155.384 300.047 155.328 300.128C155.271 300.209 155.199 300.278 155.115 300.33C155.031 300.383 154.938 300.417 154.84 300.432C154.785 300.439 154.729 300.439 154.674 300.432C152.696 300.338 151.259 300.172 148.768 300.085C147.238 300.034 142.617 300.049 140.501 299.977C138.386 299.904 138.176 297.811 139.057 297.645C142.963 296.923 145.924 295.847 147.209 294.757C147.446 294.563 147.748 294.467 148.053 294.489Z" fill="#263238"/>
<path d="M152.66 178.847C152.66 178.847 148.017 221.82 147.808 236.607C147.577 252.801 146.66 294.8 146.66 294.8L155.324 296.114C155.324 296.114 160.14 256.332 161.771 240.643C163.62 222.759 168.76 186.399 168.76 186.399L152.66 178.847Z" fill="#263238"/>
<path opacity="0.2" d="M152.66 178.847C152.66 178.847 148.017 221.82 147.808 236.607C147.577 252.801 146.66 294.8 146.66 294.8L155.324 296.114C155.324 296.114 160.14 256.332 161.771 240.643C163.62 222.759 168.76 186.399 168.76 186.399L152.66 178.847Z" fill="white"/>
<path d="M147.144 180.644L159.779 181.445L159.938 178.362L147.295 177.72L147.144 180.644Z" fill="#263238"/>
<path d="M160.898 178.413L160.739 181.51L169.381 182.059L169.54 178.854L160.898 178.413Z" fill="#263238"/>
<path d="M146.335 177.67L142.653 177.475L142.162 180.334L146.183 180.586L146.335 177.67Z" fill="#263238"/>
<path d="M154.936 177.916L149.961 177.661L149.778 181.245L154.753 181.499L154.936 177.916Z" fill="white"/>
<path d="M140.256 140.422C137.967 140.87 131.26 156.775 131.26 156.775L137.592 164.797L140.364 160.919L140.256 140.422Z" fill="#FFCE1A"/>
<path opacity="0.4" d="M140.256 140.422L140.314 150.53L140.364 160.898L137.592 164.775L136.018 162.775L131.26 156.754C131.26 156.754 137.96 140.862 140.256 140.422Z" fill="white"/>
<path opacity="0.2" d="M140.314 150.551L140.364 160.919L137.592 164.796L136.018 162.796C135.592 156.854 138.675 152.442 140.314 150.551Z" fill="black"/>
<path d="M129.736 146.666C129.75 146.728 129.75 146.792 129.737 146.853C129.723 146.915 129.696 146.972 129.657 147.022C129.618 147.072 129.569 147.112 129.513 147.141C129.457 147.169 129.395 147.185 129.332 147.186L124.43 147.518C124.294 147.523 124.161 147.48 124.055 147.397C123.948 147.314 123.873 147.196 123.845 147.063L122.097 137.468C122.083 137.403 122.082 137.335 122.095 137.269C122.107 137.203 122.133 137.14 122.171 137.084C122.209 137.029 122.258 136.982 122.315 136.946C122.372 136.91 122.435 136.886 122.502 136.876L127.404 136.544C127.548 136.553 127.684 136.61 127.791 136.705C127.898 136.801 127.971 136.93 127.996 137.071L129.736 146.666Z" fill="#263238"/>
<path opacity="0.5" d="M127.448 137.042L129.238 146.731C129.256 146.787 129.261 146.847 129.252 146.905C129.243 146.963 129.22 147.019 129.185 147.066C129.151 147.114 129.106 147.153 129.054 147.18C129.001 147.207 128.943 147.222 128.884 147.222L124.733 147.497C124.451 147.497 123.931 147.396 123.881 147.128L122.112 137.403C122.061 137.129 122.524 136.876 122.834 136.862L126.985 136.58C127.105 136.59 127.217 136.642 127.301 136.726C127.386 136.811 127.438 136.923 127.448 137.042Z" fill="white"/>
<path d="M140.256 140.422C140.256 140.422 157.627 137.772 170.926 138.978C170.926 138.978 167.598 164.666 169.338 178.088L143.23 177.2C143.23 177.2 137.296 154.811 140.256 140.422Z" fill="#263238"/>
<path d="M160.595 138.833C158.349 141.389 152.111 141.245 152.111 141.245C152.111 141.245 148.162 140.631 148.833 139.346C151.05 138.718 152.024 137.541 152.32 136.14C152.471 135.276 152.449 134.39 152.255 133.534C152.166 133.046 152.048 132.564 151.902 132.09L158.855 125.592C158.284 129.462 157.837 136.458 160.595 138.833Z" fill="#EBB376"/>
<path opacity="0.2" d="M157.504 129.411C157.721 133.996 154.125 135.678 152.32 136.14C152.471 135.276 152.449 134.39 152.255 133.534L157.504 129.411Z" fill="black"/>
<path d="M160.436 137.433L157.107 139.584L163.547 182.059L174.009 185.987L170.926 138.985L160.436 137.433Z" fill="#FFCE1A"/>
<path opacity="0.4" d="M174.009 185.987L163.547 182.059L157.107 139.584L160.436 137.433L170.933 138.985L171.273 143.021L171.836 149.541L172.493 157.353L173.071 168.298L174.009 185.987Z" fill="white"/>
<path d="M157.107 139.584L160.876 135.858L163.692 137.692L160.97 142.133L157.107 139.584Z" fill="#FFCE1A"/>
<path opacity="0.6" d="M157.107 139.584L160.876 135.858L163.692 137.692L160.97 142.133L157.107 139.584Z" fill="white"/>
<path d="M148.833 139.346C147.389 141.959 144.768 185.2 144.768 185.2H139.303C139.303 185.2 137.137 143.663 140.256 140.436L148.833 139.346Z" fill="#FFCE1A"/>
<path opacity="0.4" d="M148.833 139.346C147.389 141.959 144.768 185.2 144.768 185.2H139.303C139.303 185.2 137.137 143.663 140.256 140.436L148.833 139.346Z" fill="white"/>
<path d="M149.858 137.107L146.458 139.613L146.537 142.031L149.469 139.425L149.858 137.107Z" fill="#FFCE1A"/>
<path opacity="0.6" d="M149.858 137.107L146.458 139.613L146.537 142.031L149.469 139.425L149.858 137.107Z" fill="white"/>
<path opacity="0.2" d="M171.836 149.54L172.5 157.352C169.721 153.468 170.5 147.129 170.5 147.129C170.5 147.129 171.064 148.118 171.836 149.54Z" fill="black"/>
<path d="M149.129 118.083C151.353 119.245 150.689 121.693 146.436 125.982C144.27 123.736 143.397 118.993 144.768 117.614C146.14 116.235 147.194 117.072 149.129 118.083Z" fill="#263238"/>
<path d="M158.45 120.92C158.804 125.974 159.259 128.941 157.064 131.858C153.75 136.248 147.238 134.746 145.375 129.887C143.707 125.512 143.411 117.945 148.075 115.303C148.865 114.849 149.736 114.556 150.639 114.439C151.542 114.322 152.46 114.385 153.339 114.623C154.218 114.861 155.041 115.27 155.762 115.826C156.483 116.383 157.088 117.076 157.54 117.866C158.081 118.797 158.393 119.844 158.45 120.92Z" fill="#EBB376"/>
<path d="M151.115 123.288C151.172 123.693 150.999 124.054 150.725 124.09C150.45 124.126 150.205 123.823 150.154 123.411C150.104 123 150.27 122.646 150.53 122.603C150.79 122.559 151.035 122.884 151.115 123.288Z" fill="#263238"/>
<path d="M146.458 123.903C146.515 124.314 146.342 124.675 146.075 124.704C145.808 124.733 145.541 124.444 145.49 124.025C145.44 123.607 145.606 123.26 145.873 123.224C146.14 123.188 146.407 123.462 146.458 123.903Z" fill="#263238"/>
<path d="M148.01 123.895C147.688 125.211 147.185 126.477 146.516 127.656C146.822 127.819 147.161 127.913 147.507 127.932C147.854 127.95 148.2 127.893 148.523 127.764L148.01 123.895Z" fill="#D58745"/>
<path d="M152.198 121.649C152.252 121.647 152.305 121.63 152.349 121.599C152.394 121.552 152.418 121.49 152.418 121.426C152.418 121.361 152.394 121.299 152.349 121.252C152.083 120.974 151.754 120.764 151.39 120.638C151.026 120.513 150.637 120.476 150.256 120.53C150.225 120.535 150.196 120.545 150.169 120.561C150.143 120.577 150.12 120.598 150.102 120.623C150.084 120.648 150.071 120.676 150.064 120.706C150.056 120.736 150.055 120.767 150.061 120.797C150.073 120.86 150.109 120.916 150.162 120.952C150.214 120.989 150.279 121.003 150.342 120.992C150.644 120.953 150.952 120.987 151.238 121.092C151.525 121.196 151.782 121.367 151.988 121.592C152.017 121.616 152.051 121.633 152.087 121.643C152.123 121.653 152.161 121.655 152.198 121.649Z" fill="#263238"/>
<path d="M144.133 122.609C144.179 122.603 144.221 122.584 144.257 122.554C144.293 122.525 144.32 122.487 144.335 122.443C144.423 122.152 144.579 121.885 144.79 121.666C145.001 121.446 145.26 121.28 145.548 121.18C145.579 121.171 145.609 121.157 145.635 121.137C145.66 121.117 145.682 121.092 145.698 121.064C145.714 121.036 145.724 121.005 145.728 120.973C145.732 120.94 145.73 120.908 145.721 120.876C145.703 120.816 145.662 120.764 145.607 120.732C145.552 120.7 145.487 120.69 145.425 120.703C145.06 120.826 144.729 121.034 144.461 121.311C144.192 121.587 143.993 121.923 143.88 122.292C143.859 122.351 143.863 122.416 143.89 122.473C143.917 122.53 143.965 122.574 144.025 122.595C144.059 122.608 144.096 122.613 144.133 122.609Z" fill="#263238"/>
<path d="M155.865 116.718C153.613 117.837 154.234 120.328 158.4 124.66C160.623 122.494 161.584 117.729 160.233 116.336C158.883 114.942 157.829 115.751 155.865 116.718Z" fill="#263238"/>
<path d="M161.381 124.631C161.186 125.896 160.501 127.034 159.475 127.801C158.104 128.79 156.833 127.707 156.717 126.104C156.616 124.66 157.216 122.407 158.826 122.046C159.179 121.973 159.546 121.989 159.892 122.093C160.238 122.198 160.552 122.387 160.806 122.644C161.06 122.901 161.246 123.217 161.346 123.564C161.447 123.911 161.459 124.278 161.381 124.631Z" fill="#EBB376"/>
<path d="M159.887 116.032C159.887 116.032 160.508 114.119 157.158 111.939C153.808 109.758 147.967 110.812 144.017 113.151C140.068 115.491 144.27 119.274 146.061 119.512L145.613 118.848C147.536 119.116 149.495 118.963 151.353 118.4L150.241 117.917C150.241 117.917 157.526 117.26 159.887 116.032Z" fill="#263238"/>
<path d="M149.252 128.927C149.549 129.461 149.804 130.016 150.017 130.588L150.335 130.523C151.779 130.212 152.32 129.599 152.501 129.014C152.588 128.726 152.605 128.422 152.551 128.126C152.524 127.956 152.473 127.791 152.4 127.635C151.604 128.216 150.693 128.619 149.728 128.819L149.252 128.927Z" fill="#263238"/>
<path d="M149.736 128.819L149.974 129.295C151.317 129.007 152.226 128.624 152.559 128.126C152.531 127.956 152.48 127.791 152.407 127.635C151.611 128.216 150.7 128.619 149.736 128.819Z" fill="white"/>
<path d="M150.335 130.523C151.779 130.212 152.32 129.598 152.501 129.014C151.962 129.142 151.449 129.362 150.985 129.663C150.685 129.876 150.458 130.176 150.335 130.523Z" fill="#A24E3F"/>
<path d="M175.136 146.038C176.161 147.749 177.049 149.359 177.937 151.056C178.825 152.753 179.634 154.464 180.406 156.24C181.208 158.042 181.9 159.892 182.478 161.778C182.77 162.785 183.011 163.807 183.2 164.839C183.428 166.011 183.527 167.205 183.496 168.399V168.507C183.489 168.714 183.46 168.92 183.41 169.121C183.099 170.292 182.676 171.431 182.146 172.521C181.655 173.539 181.128 174.485 180.579 175.409C179.494 177.176 178.32 178.886 177.063 180.535C175.829 182.153 174.529 183.698 173.201 185.2C172.522 185.922 171.843 186.68 171.15 187.409L170.103 188.492L169.569 189.033C169.403 189.228 169.201 189.373 168.645 189.228C167.963 189.054 167.329 188.731 166.789 188.281C166.248 187.832 165.814 187.267 165.519 186.629L165.295 186.138C165.064 185.633 165.194 185.416 165.352 185.25L165.793 184.694L166.674 183.568C167.251 182.812 167.822 182.047 168.385 181.272C169.526 179.756 170.623 178.203 171.677 176.651C172.719 175.137 173.683 173.57 174.565 171.958C175.363 170.563 175.97 169.067 176.37 167.511L176.284 168.233C176.162 166.821 175.836 165.435 175.316 164.117C174.767 162.587 174.081 161.027 173.338 159.467C172.594 157.908 171.764 156.37 170.912 154.832C170.06 153.294 169.15 151.742 168.255 150.334V150.291C167.68 149.387 167.489 148.292 167.721 147.247C167.954 146.201 168.593 145.291 169.497 144.717C170.401 144.143 171.496 143.951 172.541 144.184C173.586 144.416 174.496 145.055 175.071 145.959L175.136 146.038Z" fill="#263238"/>
<path opacity="0.2" d="M173.071 168.298C168.132 163.547 165.562 154.009 165.562 154.009C165.981 150.399 168.298 145.952 171.273 143.021L171.836 149.519L172.493 157.331L173.071 168.298Z" fill="black"/>
<path d="M170.934 138.984C174.276 139.966 181.366 155.8 181.366 155.8L171.439 163.063L165.562 154.009C165.562 154.009 163.937 147.287 165.562 143.179C165.96 142.038 166.678 141.036 167.631 140.292C168.583 139.548 169.73 139.094 170.934 138.984Z" fill="#FFCE1A"/>
<path opacity="0.4" d="M170.934 138.984C174.276 139.966 181.366 155.8 181.366 155.8L171.439 163.063L165.562 154.009C165.562 154.009 163.937 147.287 165.562 143.179C165.96 142.038 166.678 141.036 167.631 140.292C168.583 139.548 169.73 139.094 170.934 138.984Z" fill="white"/>
<path d="M120.444 149.215L120.134 143.591L125.91 145.966C125.91 145.966 125.91 151.02 123.289 150.89L120.444 149.215Z" fill="#EBB376"/>
<path d="M122.769 138.667L127.043 142.4L125.917 145.974L120.134 143.591L122.769 138.667Z" fill="#EBB376"/>
<path d="M164.84 183.388C164.84 183.388 169.172 186.355 170.392 190.723L164.84 198.102C164.84 198.102 160.342 188.73 164.84 183.388Z" fill="#263238"/>
<path opacity="0.2" d="M164.84 183.388C164.84 183.388 169.172 186.355 170.392 190.723L164.84 198.102C164.84 198.102 160.342 188.73 164.84 183.388Z" fill="white"/>
</svg>
