<svg width="320" height="320" viewBox="0 0 320 320" fill="none" xmlns="http://www.w3.org/2000/svg">
<path d="M160 273.638C228.533 273.638 284.089 270.395 284.089 266.394C284.089 262.392 228.533 259.149 160 259.149C91.467 259.149 35.9102 262.392 35.9102 266.394C35.9102 270.395 91.467 273.638 160 273.638Z" fill="#F5F5F5"/>
<path d="M257.35 68.5312H62.6494V264.525H257.35V68.5312Z" fill="#FFCE1A"/>
<path d="M206.067 88.3712H113.933C112.788 88.3712 111.859 89.2996 111.859 90.4448V108.269C111.859 109.414 112.788 110.342 113.933 110.342H206.067C207.213 110.342 208.141 109.414 208.141 108.269V90.4448C208.141 89.2996 207.213 88.3712 206.067 88.3712Z" fill="white"/>
<path d="M203.341 91.2192H116.653C116.084 91.2192 115.623 91.6805 115.623 92.2496V106.47C115.623 107.039 116.084 107.501 116.653 107.501H203.341C203.91 107.501 204.371 107.039 204.371 106.47V92.2496C204.371 91.6805 203.91 91.2192 203.341 91.2192Z" fill="#FFCE1A"/>
<path d="M119.833 102.49L124.953 102.17C124.994 102.855 125.215 103.517 125.593 104.09C125.877 104.441 126.241 104.72 126.654 104.903C127.066 105.087 127.517 105.17 127.968 105.146C128.606 105.187 129.238 104.996 129.747 104.608C129.944 104.458 130.105 104.264 130.216 104.042C130.326 103.82 130.385 103.576 130.387 103.328C130.383 103.096 130.328 102.867 130.227 102.658C130.125 102.449 129.979 102.265 129.798 102.118C129.401 101.76 128.48 101.421 127.04 101.107C124.678 100.576 123.001 99.872 121.99 98.9952C121.502 98.5834 121.112 98.0671 120.849 97.4844C120.587 96.9018 120.458 96.2676 120.473 95.6288C120.471 94.7174 120.741 93.8261 121.248 93.0688C121.827 92.227 122.642 91.5747 123.59 91.1936C124.958 90.6822 126.413 90.4494 127.872 90.5088C130.093 90.5088 131.795 90.9248 132.992 91.7504C133.602 92.2212 134.104 92.8173 134.463 93.4985C134.823 94.1796 135.033 94.9301 135.078 95.6992L130.003 96C129.989 95.6754 129.907 95.3572 129.765 95.0654C129.622 94.7735 129.42 94.5142 129.173 94.3034C128.926 94.0927 128.638 93.9352 128.327 93.8406C128.016 93.746 127.689 93.7164 127.366 93.7536C126.865 93.7183 126.367 93.8586 125.958 94.1504C125.81 94.264 125.689 94.4102 125.606 94.5777C125.523 94.7453 125.479 94.9297 125.478 95.1168C125.483 95.2636 125.521 95.4075 125.59 95.5373C125.658 95.6671 125.756 95.7794 125.875 95.8656C126.422 96.2106 127.038 96.4293 127.68 96.5056C129.417 96.8182 131.112 97.3338 132.729 98.0416C133.636 98.4591 134.406 99.1247 134.95 99.9616C135.412 100.735 135.653 101.621 135.648 102.522C135.651 103.619 135.328 104.693 134.72 105.606C134.088 106.563 133.186 107.31 132.128 107.75C130.797 108.278 129.373 108.526 127.942 108.48C124.981 108.48 122.929 107.91 121.785 106.771C120.64 105.626 119.947 104.105 119.833 102.49Z" fill="white"/>
<path d="M140.544 90.8416H145.92V96.9344H151.795V90.8416H157.203V108.25H151.795V101.21H145.92V108.25H140.544V90.8416Z" fill="white"/>
<path d="M162.291 99.5584C162.291 96.7168 163.083 94.5045 164.666 92.9216C166.249 91.3386 168.455 90.545 171.283 90.5408C174.185 90.5408 176.416 91.3194 177.978 92.8768C179.539 94.4341 180.324 96.6144 180.333 99.4176C180.397 101.144 180.044 102.861 179.303 104.422C178.634 105.706 177.601 106.764 176.333 107.462C174.847 108.227 173.19 108.599 171.52 108.544C169.847 108.604 168.182 108.284 166.65 107.61C165.334 106.954 164.244 105.92 163.52 104.64C162.661 103.088 162.236 101.332 162.291 99.5584ZM167.674 99.5584C167.674 101.312 168 102.573 168.653 103.341C168.999 103.701 169.415 103.987 169.874 104.183C170.334 104.379 170.829 104.479 171.328 104.479C171.828 104.479 172.322 104.379 172.782 104.183C173.242 103.987 173.657 103.701 174.003 103.341C174.639 102.59 174.955 101.239 174.951 99.2896C174.951 97.6512 174.624 96.4544 173.959 95.6992C173.623 95.3219 173.208 95.0244 172.743 94.8284C172.278 94.6324 171.775 94.5429 171.271 94.5664C170.777 94.5486 170.285 94.643 169.833 94.8425C169.38 95.042 168.979 95.3415 168.659 95.7184C168 96.5376 167.68 97.8048 167.68 99.584L167.674 99.5584Z" fill="white"/>
<path d="M185.395 90.8416H194.355C196.301 90.8416 197.76 91.3045 198.733 92.2304C199.236 92.7528 199.625 93.3743 199.875 94.0552C200.125 94.7361 200.231 95.4616 200.185 96.1856C200.227 96.9458 200.108 97.7062 199.834 98.4167C199.56 99.1272 199.139 99.7715 198.598 100.307C197.542 101.293 195.929 101.792 193.76 101.792H190.816V108.25H185.414L185.395 90.8416ZM190.797 98.2656H192.115C192.883 98.3383 193.653 98.1464 194.297 97.7216C194.503 97.5554 194.667 97.3444 194.778 97.1047C194.889 96.8651 194.943 96.6032 194.937 96.3392C194.943 96.0827 194.897 95.8276 194.803 95.5891C194.708 95.3505 194.567 95.1334 194.387 94.9504C194.029 94.5664 193.344 94.3808 192.333 94.3808H190.803L190.797 98.2656Z" fill="white"/>
<path opacity="0.5" d="M77.5042 117.024H242.496C243.44 117.024 244.345 117.399 245.012 118.066C245.68 118.734 246.055 119.639 246.055 120.582V264.518H73.9458V120.589C73.945 120.121 74.0364 119.658 74.2148 119.225C74.3933 118.793 74.6553 118.4 74.9858 118.068C75.3163 117.737 75.7088 117.475 76.141 117.295C76.5731 117.116 77.0364 117.024 77.5042 117.024Z" fill="white"/>
<path opacity="0.4" d="M263.68 133.728V144.954L241.005 147.648L219.955 150.157L203.123 152.154L187.929 153.958L186.304 149.664L184.563 145.075L184.339 151.974L184.262 154.394L182.067 154.656L165.235 156.659L144.185 159.162L127.347 161.158L106.297 163.661L89.459 165.664L68.4094 168.166L56.3198 169.6V158.381L78.995 155.686L100.045 153.184L116.87 151.181L131.641 149.427L137.933 148.685L154.765 146.682V146.675L175.814 144.179L192.653 142.17L213.702 139.667L230.541 137.67L251.59 135.168L263.68 133.728Z" fill="#FFCE1A"/>
<path opacity="0.4" d="M263.68 238.49L56.3198 190.374V179.155L263.68 227.264V238.49Z" fill="#FFCE1A"/>
<path d="M62.6431 264.525H55.7055C54.9433 264.525 54.2124 264.222 53.6735 263.683C53.1346 263.144 52.8319 262.413 52.8319 261.651L52.8319 68.5312H62.6431L62.6431 264.525Z" fill="#263238"/>
<path d="M264.294 264.525L257.357 264.525V68.5312H267.168V261.645C267.169 262.023 267.095 262.397 266.951 262.746C266.807 263.096 266.595 263.413 266.329 263.681C266.062 263.948 265.745 264.161 265.396 264.305C265.046 264.45 264.672 264.525 264.294 264.525Z" fill="#263238"/>
<path opacity="0.3" d="M204.678 117.024H182.624L144.307 264.525H166.355L204.678 117.024Z" fill="white"/>
<path opacity="0.3" d="M220.922 117.024H211.52L173.197 264.525H182.605L220.922 117.024Z" fill="white"/>
<path opacity="0.3" d="M143.379 117.024H133.971L95.6479 264.525H105.056L143.379 117.024Z" fill="white"/>
<path d="M163.418 114.784H156.589V264.525H163.418V114.784Z" fill="#FFCE1A"/>
<path d="M280.179 74.3744L253.299 38.8224H66.7071L39.8271 74.3744C36.7551 78.9568 38.1247 82.848 43.0271 82.848C47.9295 82.848 54.1439 78.9568 56.7807 74.3744H57.0111C54.3807 78.9568 56.1215 82.848 61.0239 82.848C65.9263 82.848 71.7695 78.9568 73.9647 74.3744H74.1951C72.0063 78.9568 74.1183 82.848 79.0207 82.848C83.9231 82.848 89.3887 78.9568 91.1807 74.3744H91.4111C89.6575 78.9568 92.1471 82.848 97.0495 82.848C101.952 82.848 107.046 78.9568 108.371 74.3744H108.595C107.283 78.9568 110.144 82.848 115.046 82.848C119.949 82.848 124.646 78.9568 125.555 74.3744H125.786C124.909 78.9568 128.141 82.848 133.043 82.848C137.946 82.848 142.298 78.9568 142.739 74.3744H142.97C142.534 78.9568 146.138 82.848 151.04 82.848C155.942 82.848 159.923 78.9568 159.923 74.3744H160.154C160.154 78.9568 164.134 82.848 169.037 82.848C173.939 82.848 177.542 78.9568 177.107 74.3744H177.28C177.722 78.9568 182.074 82.848 186.976 82.848C191.878 82.848 195.11 78.9568 194.234 74.3744H194.464C195.347 78.9568 200.07 82.848 204.973 82.848C209.875 82.848 212.736 78.9568 211.424 74.3744H211.648C212.973 78.9568 218.048 82.848 222.97 82.848C227.891 82.848 230.362 78.9568 228.608 74.3744H228.838C230.598 78.9568 236.064 82.848 240.998 82.848C245.933 82.848 248.038 78.9568 245.824 74.3744H246.054C248.25 78.9568 254.093 82.848 258.995 82.848C263.898 82.848 265.638 78.9568 263.008 74.3744H263.238C265.875 78.9568 272.09 82.848 276.992 82.848C281.894 82.848 283.251 78.9568 280.179 74.3744Z" fill="#FFCE1A"/>
<path opacity="0.8" d="M280.179 74.3744L253.299 38.8224H66.7071L39.8271 74.3744C36.7551 78.9568 38.1247 82.848 43.0271 82.848C47.9295 82.848 54.1439 78.9568 56.7807 74.3744H57.0111C54.3807 78.9568 56.1215 82.848 61.0239 82.848C65.9263 82.848 71.7695 78.9568 73.9647 74.3744H74.1951C72.0063 78.9568 74.1183 82.848 79.0207 82.848C83.9231 82.848 89.3887 78.9568 91.1807 74.3744H91.4111C89.6575 78.9568 92.1471 82.848 97.0495 82.848C101.952 82.848 107.046 78.9568 108.371 74.3744H108.595C107.283 78.9568 110.144 82.848 115.046 82.848C119.949 82.848 124.646 78.9568 125.555 74.3744H125.786C124.909 78.9568 128.141 82.848 133.043 82.848C137.946 82.848 142.298 78.9568 142.739 74.3744H142.97C142.534 78.9568 146.138 82.848 151.04 82.848C155.942 82.848 159.923 78.9568 159.923 74.3744H160.154C160.154 78.9568 164.134 82.848 169.037 82.848C173.939 82.848 177.542 78.9568 177.107 74.3744H177.28C177.722 78.9568 182.074 82.848 186.976 82.848C191.878 82.848 195.11 78.9568 194.234 74.3744H194.464C195.347 78.9568 200.07 82.848 204.973 82.848C209.875 82.848 212.736 78.9568 211.424 74.3744H211.648C212.973 78.9568 218.048 82.848 222.97 82.848C227.891 82.848 230.362 78.9568 228.608 74.3744H228.838C230.598 78.9568 236.064 82.848 240.998 82.848C245.933 82.848 248.038 78.9568 245.824 74.3744H246.054C248.25 78.9568 254.093 82.848 258.995 82.848C263.898 82.848 265.638 78.9568 263.008 74.3744H263.238C265.875 78.9568 272.09 82.848 276.992 82.848C281.894 82.848 283.251 78.9568 280.179 74.3744Z" fill="white"/>
<g opacity="0.2">
<path d="M66.7072 38.8224H79.872L56.7744 74.3744H39.8208L66.7072 38.8224Z" fill="#FFCE1A"/>
<path d="M93.389 38.8224H106.554L91.1426 74.3744H74.189L93.389 38.8224Z" fill="#FFCE1A"/>
<path d="M120.07 38.8224H133.229L125.517 74.3744H108.557L120.07 38.8224Z" fill="#FFCE1A"/>
<path d="M146.752 38.8224H159.91L159.885 74.3744H142.931L146.752 38.8224Z" fill="#FFCE1A"/>
<path d="M173.427 38.8224H186.592L194.253 74.3744H177.299L173.427 38.8224Z" fill="#FFCE1A"/>
<path d="M200.109 38.8224H213.274L228.627 74.3744H211.674L200.109 38.8224Z" fill="#FFCE1A"/>
<path d="M226.791 38.8224H239.949L262.995 74.3744H246.042L226.791 38.8224Z" fill="#FFCE1A"/>
<path d="M246.042 74.3744C248.237 78.9568 254.08 82.848 258.982 82.848C263.885 82.848 265.625 78.9568 262.995 74.3744" fill="#FFCE1A"/>
<path d="M211.667 74.3744C212.992 78.9568 218.067 82.848 222.989 82.848C227.91 82.848 230.381 78.9568 228.627 74.3744" fill="#FFCE1A"/>
<path d="M177.28 74.3744C177.721 78.9568 182.073 82.848 186.976 82.848C191.878 82.848 195.11 78.9568 194.233 74.3744" fill="#FFCE1A"/>
<path d="M142.931 74.3744C142.496 78.9568 146.099 82.848 151.002 82.848C155.904 82.848 159.885 78.9568 159.885 74.3744" fill="#FFCE1A"/>
<path d="M108.557 74.3744C107.245 78.9568 110.106 82.848 115.008 82.848C119.911 82.848 124.608 78.9568 125.517 74.3744" fill="#FFCE1A"/>
<path d="M74.1888 74.3744C72 78.9568 74.112 82.848 79.0144 82.848C83.9168 82.848 89.3824 78.9568 91.1744 74.3744" fill="#FFCE1A"/>
<path d="M39.8208 74.3744C36.7488 78.9568 38.1184 82.848 43.0208 82.848C47.9232 82.848 54.1376 78.9568 56.7744 74.3744" fill="#FFCE1A"/>
</g>
<path d="M268.691 234.592L51.3086 186.477V175.251L268.691 223.366V234.592Z" fill="#FFCE1A"/>
<path opacity="0.4" d="M268.691 234.592L51.3086 186.477V175.251L268.691 223.366V234.592Z" fill="white"/>
<g opacity="0.6">
<path d="M86.0545 194.163L63.9873 189.28L75.0785 180.512L97.1457 185.395L86.0545 194.163Z" fill="#FFCE1A"/>
<path d="M125.766 202.957L103.706 198.074L114.797 189.306L136.864 194.189L125.766 202.957Z" fill="#FFCE1A"/>
<path d="M165.485 211.744L143.417 206.861L154.515 198.093L176.582 202.976L165.485 211.744Z" fill="#FFCE1A"/>
<path d="M205.203 220.538L183.136 215.654L194.227 206.886L216.295 211.77L205.203 220.538Z" fill="#FFCE1A"/>
<path d="M244.922 229.325L222.854 224.442L233.946 215.674L256.013 220.557L244.922 229.325Z" fill="#FFCE1A"/>
</g>
<path d="M268.691 129.83V141.056L244.921 143.75L222.854 146.253L205.209 148.256L189.28 150.054L187.577 145.76L185.753 141.171L185.517 148.077L185.433 150.496L183.136 150.758L165.485 152.755L143.417 155.258L125.773 157.261L103.699 159.763L86.0478 161.76L63.987 164.262L51.3086 165.702V154.483L75.0782 151.789L97.1454 149.28L114.784 147.283L130.265 145.523L136.864 144.781L154.515 142.778L176.576 140.275L194.227 138.272L216.301 135.77L233.952 133.766L256.013 131.264L268.691 129.83Z" fill="#FFCE1A"/>
<path opacity="0.4" d="M268.691 129.83V141.056L244.921 143.75L222.854 146.253L205.209 148.256L189.28 150.054L187.577 145.76L185.753 141.171L185.517 148.077L185.433 150.496L183.136 150.758L165.485 152.755L143.417 155.258L125.773 157.261L103.699 159.763L86.0478 161.76L63.987 164.262L51.3086 165.702V154.483L75.0782 151.789L97.1454 149.28L114.784 147.283L130.265 145.523L136.864 144.781L154.515 142.778L176.576 140.275L194.227 138.272L216.301 135.77L233.952 133.766L256.013 131.264L268.691 129.83Z" fill="white"/>
<g opacity="0.6">
<path d="M86.0482 161.76L63.981 164.269L75.0786 151.782L97.1458 149.28L86.0482 161.76Z" fill="#FFCE1A"/>
<path d="M125.766 157.261L103.699 159.763L114.797 147.283L136.864 144.781L125.766 157.261Z" fill="#FFCE1A"/>
<path d="M165.485 152.755L143.418 155.258L154.516 142.778L176.583 140.275L165.485 152.755Z" fill="#FFCE1A"/>
<path d="M183.136 150.758L185.517 148.077L185.434 150.496L183.136 150.758Z" fill="white"/>
<path d="M216.301 135.77L205.21 148.256L189.28 150.054L187.578 145.76L194.227 138.272L216.301 135.77Z" fill="#FFCE1A"/>
<path d="M244.922 143.75L222.854 146.253L233.952 133.766L256.019 131.264L244.922 143.75Z" fill="#FFCE1A"/>
</g>
<path d="M209.99 133.632C211.27 130.771 216.346 129.389 220.986 132.32C225.626 135.251 225.203 141.478 223.174 142.234C229.203 144.269 232.186 156.998 227.123 158.016C228.934 161.709 229.549 175.994 214.323 173.171C199.098 170.349 203.552 157.811 203.552 157.811C203.552 157.811 199.232 147.693 206.01 143.219C203.123 140.8 205.018 132.218 209.99 133.632Z" fill="#263238"/>
<path d="M215.194 256.493L211.476 258.272L203.533 247.546L208.487 244.186L215.194 256.493Z" fill="#FF8B7B"/>
<path d="M210.631 257.28L214.093 254.195C214.15 254.144 214.224 254.116 214.301 254.116C214.378 254.116 214.452 254.144 214.509 254.195L217.146 256.41C217.21 256.473 217.26 256.55 217.292 256.634C217.324 256.718 217.339 256.808 217.334 256.898C217.329 256.988 217.305 257.076 217.264 257.156C217.223 257.236 217.165 257.307 217.095 257.363C215.872 258.419 215.232 258.867 213.709 260.224C212.775 261.056 210.912 262.874 209.619 264.026C208.327 265.178 207.213 264.026 207.655 263.45C209.645 260.813 210.016 259.296 210.272 257.933C210.313 257.681 210.44 257.45 210.631 257.28Z" fill="#263238"/>
<path d="M209.92 258.822C209.679 259.078 209.363 259.251 209.018 259.315C208.935 259.318 208.852 259.3 208.778 259.261C208.704 259.223 208.641 259.167 208.595 259.098C208.565 259.056 208.545 259.007 208.538 258.955C208.532 258.904 208.538 258.852 208.557 258.803C208.768 258.272 210.509 257.766 210.707 257.715C210.726 257.709 210.745 257.708 210.764 257.714C210.782 257.72 210.798 257.732 210.81 257.747C210.821 257.763 210.827 257.782 210.827 257.802C210.827 257.821 210.821 257.84 210.81 257.856C210.543 258.204 210.245 258.527 209.92 258.822ZM208.851 258.714C208.801 258.752 208.761 258.803 208.736 258.861C208.725 258.879 208.72 258.9 208.72 258.922C208.72 258.943 208.725 258.964 208.736 258.982C208.765 259.028 208.806 259.065 208.855 259.09C208.903 259.115 208.957 259.126 209.011 259.123C209.338 259.123 209.869 258.688 210.458 257.978C209.884 258.135 209.34 258.384 208.845 258.714H208.851Z" fill="#FFCE1A"/>
<path d="M210.778 257.875C210.272 258.048 209.005 258.067 208.775 257.69C208.723 257.6 208.698 257.453 208.883 257.254C208.947 257.183 209.025 257.124 209.112 257.082C209.199 257.041 209.293 257.016 209.389 257.011C209.932 257.078 210.437 257.326 210.823 257.715C210.841 257.734 210.851 257.759 210.851 257.786C210.851 257.812 210.841 257.837 210.823 257.856L210.778 257.875ZM209.024 257.357L208.986 257.395C208.858 257.53 208.896 257.587 208.909 257.606C209.043 257.83 209.965 257.882 210.522 257.76C210.204 257.457 209.794 257.268 209.357 257.222C209.234 257.227 209.116 257.275 209.024 257.357Z" fill="#FFCE1A"/>
<path d="M204.007 156.422C203.465 158.923 202.742 161.381 201.843 163.776C201.395 164.998 200.875 166.192 200.288 167.354C199.679 168.594 198.932 169.762 198.061 170.835L197.888 171.046L197.594 171.354C197.335 171.591 197.041 171.787 196.723 171.936C196.039 172.247 195.262 172.29 194.547 172.058C194.055 171.895 193.598 171.643 193.197 171.315C192.886 171.063 192.595 170.787 192.327 170.49C191.439 169.458 190.673 168.329 190.042 167.123C188.857 164.865 187.868 162.51 187.085 160.083C187.013 159.846 187.03 159.59 187.134 159.364C187.238 159.139 187.422 158.96 187.65 158.861C187.877 158.762 188.134 158.75 188.369 158.828C188.605 158.906 188.804 159.068 188.928 159.283C189.511 160.333 190.112 161.408 190.733 162.445C191.354 163.482 191.974 164.512 192.653 165.472C193.257 166.409 193.961 167.278 194.752 168.064C194.91 168.212 195.079 168.346 195.258 168.467C195.411 168.563 195.546 168.608 195.539 168.582C195.419 168.539 195.288 168.539 195.168 168.582L195.053 168.64C195.053 168.64 195.053 168.64 195.053 168.602L195.162 168.454C195.793 167.565 196.327 166.61 196.755 165.606C197.21 164.55 197.632 163.456 198.035 162.336C198.791 160.109 199.45 157.747 200.007 155.482V155.43C200.148 154.927 200.478 154.497 200.928 154.23C201.378 153.963 201.914 153.88 202.424 153.998C202.934 154.116 203.379 154.425 203.666 154.862C203.954 155.3 204.062 155.831 203.968 156.346L204.007 156.422Z" fill="#FF8B7B"/>
<path d="M221.594 263.571L217.607 263.712L213.402 249.549L218.899 248.883L221.594 263.571Z" fill="#FF8B7B"/>
<path d="M217.338 262.438H221.818C221.893 262.435 221.967 262.461 222.023 262.511C222.079 262.562 222.114 262.632 222.119 262.707L222.387 266.234C222.389 266.325 222.373 266.416 222.339 266.502C222.306 266.587 222.256 266.665 222.192 266.731C222.128 266.797 222.053 266.849 221.969 266.886C221.885 266.923 221.794 266.942 221.703 266.944C220.147 266.944 219.399 266.848 217.434 266.861C216.224 266.861 214.451 267.008 212.781 267.021C211.111 267.034 211.13 265.382 211.84 265.222C215.002 264.531 215.559 263.603 216.666 262.714C216.854 262.551 217.09 262.454 217.338 262.438Z" fill="#263238"/>
<path d="M200.243 154.675C199.68 157.306 199.04 163.245 199.04 176.64L215.04 178.054C215.776 172.006 216.384 168.109 220.602 157.267C220.752 156.883 220.818 156.472 220.794 156.06C220.771 155.649 220.659 155.247 220.467 154.882C220.274 154.518 220.005 154.199 219.679 153.948C219.352 153.697 218.975 153.519 218.573 153.427C217.542 153.19 216.352 152.947 215.142 152.787C212.742 152.402 210.316 152.188 207.885 152.147C206.112 152.147 204.192 152.288 202.842 152.403C202.22 152.446 201.629 152.692 201.16 153.102C200.691 153.512 200.369 154.065 200.243 154.675Z" fill="#FFCE1A"/>
<path opacity="0.2" d="M217.318 156.678C217.248 158.598 217.651 161.523 218.528 162.758C218.81 161.958 219.11 161.114 219.443 160.198L217.318 156.678Z" fill="black"/>
<path d="M215.725 144.512C214.887 146.822 213.728 151.091 215.085 152.8C212.501 154.434 209.784 155.849 206.964 157.03C205.3 153.133 207.828 152.16 207.828 152.16C210.535 151.763 210.784 149.811 210.631 147.949L215.725 144.512Z" fill="#FF8B7B"/>
<path opacity="0.2" d="M214.272 146.266L210.65 147.942C210.688 148.381 210.688 148.822 210.65 149.261C211.405 149.331 213.363 148.755 214.106 147.539C214.314 147.149 214.373 146.696 214.272 146.266Z" fill="black"/>
<path d="M219.066 140.864C217.754 144.582 217.28 146.189 214.81 147.584C211.098 149.69 206.816 147.264 206.989 143.226C207.143 139.59 209.267 134.112 213.389 133.664C214.302 133.557 215.227 133.687 216.076 134.039C216.925 134.392 217.67 134.956 218.239 135.678C218.809 136.4 219.183 137.255 219.328 138.163C219.473 139.071 219.382 140.001 219.066 140.864Z" fill="#FF8B7B"/>
<path d="M211.725 133.632C212.173 135.878 215.034 137.21 216.845 136.979C215.994 138.042 215.053 142.554 218.375 143.187C222.016 141.581 222.375 137.37 220.365 134.56C218.355 131.75 212.845 131.648 211.725 133.632Z" fill="#263238"/>
<path d="M211.725 133.12C208.902 133.76 208.582 136.198 210.118 136.077C212.768 135.846 215.411 132.243 211.725 133.12Z" fill="#263238"/>
<path d="M199.04 176.64C199.04 176.64 190.605 212.352 191.36 221.37C192.224 231.91 203.757 248.89 203.757 248.89L209.05 244.083C209.05 244.083 203.789 230.163 199.904 221.101C201.152 212.032 212.16 186.413 212.16 177.786L199.04 176.64Z" fill="#FFCE1A"/>
<path opacity="0.4" d="M199.04 176.64C199.04 176.64 190.605 212.352 191.36 221.37C192.224 231.91 203.757 248.89 203.757 248.89L209.05 244.083C209.05 244.083 203.789 230.163 199.904 221.101C201.152 212.032 212.16 186.413 212.16 177.786L199.04 176.64Z" fill="black"/>
<path d="M209.984 244.832L203.731 249.498L202.125 248.282L208.992 242.861L209.984 244.832Z" fill="#FFCE1A"/>
<path opacity="0.4" d="M205.261 192.371C200.615 198.803 200.384 210.637 200.679 217.286C202.272 211.181 205.613 202.054 208.276 193.837C208.218 190.682 207.431 189.357 205.261 192.371Z" fill="black"/>
<path d="M202.016 176.691C202.016 176.691 204.339 206.88 205.376 217.286C206.599 229.645 213.056 249.926 213.056 249.926L218.925 248.89C218.925 248.89 215.68 232.416 214.707 221.37C214.887 206.65 217.818 187.347 215.027 178.099L202.016 176.691Z" fill="#FFCE1A"/>
<path opacity="0.4" d="M202.016 176.691C202.016 176.691 204.339 206.88 205.376 217.286C206.599 229.645 213.056 249.926 213.056 249.926L218.925 248.89C218.925 248.89 215.68 232.416 214.707 221.37C214.887 206.65 217.818 187.347 215.027 178.099L202.016 176.691Z" fill="black"/>
<path d="M219.488 249.907L212.698 250.624L211.936 248.563L219.558 247.315L219.488 249.907Z" fill="#FFCE1A"/>
<path d="M212.442 140C212.359 140.307 212.122 140.512 211.923 140.454C211.725 140.397 211.629 140.102 211.712 139.814C211.795 139.526 212.039 139.302 212.237 139.36C212.435 139.418 212.531 139.693 212.442 140Z" fill="#263238"/>
<path d="M208.96 139.008C208.871 139.315 208.634 139.52 208.435 139.462C208.237 139.405 208.141 139.104 208.23 138.822C208.32 138.541 208.551 138.31 208.749 138.368C208.947 138.426 209.043 138.694 208.96 139.008Z" fill="#263238"/>
<path d="M208.839 138.387L208.154 137.958C208.154 137.958 208.371 138.65 208.839 138.387Z" fill="#263238"/>
<path d="M210.061 140.058C209.585 140.682 209.028 141.24 208.403 141.715C208.528 141.872 208.685 141.999 208.864 142.089C209.044 142.178 209.24 142.228 209.44 142.234L210.061 140.058Z" fill="#FF5652"/>
<path d="M210.951 143.885C210.771 143.864 210.594 143.83 210.419 143.782C210.397 143.774 210.378 143.758 210.366 143.736C210.355 143.715 210.351 143.691 210.355 143.667C210.363 143.642 210.38 143.621 210.402 143.608C210.425 143.595 210.452 143.591 210.477 143.597C210.857 143.716 211.26 143.744 211.653 143.677C212.046 143.61 212.417 143.451 212.736 143.213C212.755 143.2 212.779 143.194 212.802 143.196C212.825 143.199 212.846 143.21 212.862 143.227C212.877 143.244 212.886 143.267 212.887 143.29C212.887 143.313 212.879 143.336 212.864 143.354C212.32 143.773 211.633 143.963 210.951 143.885Z" fill="#263238"/>
<path d="M219.379 144.64C218.817 145.154 218.074 145.426 217.312 145.395C216.301 145.35 216.07 144.666 216.614 143.878C217.158 143.091 218.093 142.285 219.174 142.477C220.115 142.669 220.064 144 219.379 144.64Z" fill="#FF8B7B"/>
<path d="M214.912 139.174C214.888 139.168 214.865 139.157 214.845 139.142C214.825 139.126 214.809 139.107 214.797 139.085C214.683 138.878 214.521 138.701 214.325 138.569C214.129 138.436 213.905 138.352 213.671 138.323C213.645 138.322 213.621 138.317 213.598 138.306C213.575 138.296 213.554 138.281 213.537 138.262C213.519 138.244 213.506 138.222 213.497 138.199C213.488 138.175 213.484 138.15 213.485 138.125C213.49 138.076 213.513 138.03 213.549 137.997C213.586 137.964 213.634 137.945 213.683 137.946C213.981 137.978 214.266 138.081 214.515 138.245C214.764 138.41 214.971 138.632 215.117 138.893C215.141 138.937 215.148 138.988 215.137 139.037C215.125 139.085 215.095 139.128 215.053 139.155C215.032 139.168 215.009 139.176 214.984 139.179C214.96 139.182 214.936 139.181 214.912 139.174Z" fill="#263238"/>
<path d="M208.288 137.382C208.252 137.377 208.218 137.362 208.19 137.339C208.162 137.315 208.142 137.284 208.131 137.249C208.12 137.214 208.12 137.176 208.129 137.141C208.139 137.106 208.159 137.074 208.186 137.05C208.412 136.853 208.68 136.712 208.97 136.637C209.26 136.563 209.564 136.557 209.856 136.621C209.903 136.637 209.942 136.671 209.965 136.715C209.988 136.759 209.992 136.81 209.978 136.858C209.971 136.881 209.96 136.903 209.945 136.922C209.93 136.942 209.911 136.958 209.889 136.97C209.868 136.982 209.844 136.989 209.82 136.992C209.796 136.995 209.771 136.992 209.748 136.986C209.517 136.935 209.277 136.94 209.049 137.001C208.82 137.063 208.61 137.178 208.436 137.338C208.416 137.355 208.392 137.368 208.367 137.376C208.341 137.384 208.315 137.386 208.288 137.382Z" fill="#263238"/>
<path d="M220.909 155.61C221.684 157.875 222.336 160.09 222.887 162.432C223.162 163.59 223.424 164.762 223.61 165.965C223.828 167.233 223.933 168.518 223.924 169.805C223.913 170.18 223.878 170.554 223.821 170.925C223.784 171.141 223.733 171.355 223.668 171.565C223.629 171.693 223.597 171.795 223.546 171.93C223.325 172.496 222.928 172.976 222.413 173.299C222.115 173.475 221.791 173.603 221.453 173.677C220.977 173.774 220.487 173.787 220.007 173.715C218.681 173.478 217.404 173.019 216.231 172.358C214.123 171.221 212.127 169.886 210.272 168.371C210.072 168.217 209.936 167.993 209.893 167.743C209.85 167.494 209.901 167.237 210.038 167.024C210.175 166.811 210.386 166.657 210.631 166.592C210.876 166.528 211.136 166.557 211.36 166.675C213.357 167.709 215.406 168.641 217.498 169.466C218.01 169.658 218.516 169.83 219.002 169.965C219.431 170.094 219.873 170.173 220.32 170.202C220.413 170.215 220.508 170.204 220.596 170.17C220.596 170.17 220.532 170.17 220.442 170.227C220.337 170.287 220.247 170.37 220.18 170.47C220.15 170.51 220.126 170.553 220.109 170.598C220.109 170.598 220.109 170.56 220.109 170.541C220.127 170.478 220.137 170.414 220.141 170.349C220.152 170.146 220.152 169.943 220.141 169.741C220.081 168.704 219.936 167.675 219.706 166.662C219.469 165.587 219.226 164.499 218.932 163.411C218.349 161.248 217.69 159.04 217.012 156.909C216.904 156.418 216.981 155.904 217.23 155.467C217.478 155.03 217.879 154.701 218.356 154.542C218.833 154.383 219.351 154.406 219.812 154.607C220.273 154.807 220.643 155.171 220.852 155.629L220.909 155.61Z" fill="#FF8B7B"/>
<path d="M215.143 262.899C215.095 262.835 215.062 262.761 215.048 262.682C215.033 262.603 215.037 262.522 215.059 262.445C215.069 262.387 215.092 262.332 215.128 262.285C215.164 262.238 215.211 262.201 215.264 262.176C215.744 261.965 216.896 262.739 217.031 262.816C217.045 262.827 217.056 262.842 217.061 262.859C217.067 262.876 217.068 262.895 217.063 262.912C217.059 262.931 217.05 262.949 217.036 262.962C217.022 262.976 217.005 262.985 216.986 262.989C216.461 263.117 215.533 263.277 215.181 262.938L215.143 262.899ZM216.73 262.861C216.256 262.566 215.584 262.221 215.335 262.349C215.31 262.359 215.289 262.376 215.273 262.397C215.257 262.419 215.248 262.444 215.245 262.47C215.226 262.528 215.223 262.589 215.236 262.648C215.25 262.706 215.279 262.76 215.322 262.803C215.507 262.989 216.026 263.04 216.73 262.861Z" fill="#FFCE1A"/>
<path d="M216.448 262.547C216.167 262.26 216.008 261.874 216.006 261.472C216.029 261.399 216.073 261.334 216.134 261.287C216.195 261.24 216.269 261.213 216.346 261.21C216.416 261.199 216.487 261.204 216.555 261.225C216.623 261.246 216.685 261.282 216.736 261.331C217.139 261.709 217.069 262.854 217.062 262.906C217.062 262.922 217.057 262.938 217.048 262.952C217.039 262.965 217.026 262.976 217.011 262.982C216.998 262.99 216.982 262.994 216.966 262.994C216.951 262.994 216.935 262.99 216.922 262.982C216.743 262.861 216.584 262.715 216.448 262.547ZM216.64 261.517L216.602 261.472C216.569 261.441 216.529 261.418 216.486 261.404C216.442 261.391 216.397 261.388 216.352 261.395C216.23 261.395 216.205 261.466 216.192 261.51C216.122 261.779 216.525 262.426 216.883 262.72C216.915 262.304 216.831 261.888 216.64 261.517Z" fill="#FFCE1A"/>
<path d="M215.392 177.152L215.571 178.624C215.603 178.746 215.456 178.848 215.271 178.829L198.823 177.376C198.682 177.376 198.573 177.28 198.579 177.19L198.669 175.738C198.669 175.635 198.81 175.558 198.97 175.578L215.155 177.005C215.271 177.018 215.373 177.075 215.392 177.152Z" fill="white"/>
<path d="M212.922 178.778L213.357 178.816C213.446 178.816 213.517 178.816 213.517 178.733L213.619 176.845C213.619 176.787 213.555 176.736 213.472 176.73L213.037 176.691C212.947 176.691 212.877 176.723 212.87 176.774L212.774 178.694C212.768 178.72 212.838 178.771 212.922 178.778Z" fill="#FFCE1A"/>
<path opacity="0.4" d="M212.922 178.778L213.357 178.816C213.446 178.816 213.517 178.816 213.517 178.733L213.619 176.845C213.619 176.787 213.555 176.736 213.472 176.73L213.037 176.691C212.947 176.691 212.877 176.723 212.87 176.774L212.774 178.694C212.768 178.72 212.838 178.771 212.922 178.778Z" fill="black"/>
<path d="M200.013 177.638L200.448 177.677C200.538 177.677 200.608 177.645 200.614 177.587L200.71 175.667C200.71 175.616 200.646 175.565 200.563 175.552L200.128 175.514C200.038 175.514 199.968 175.514 199.968 175.603L199.866 177.491C199.859 177.581 199.93 177.632 200.013 177.638Z" fill="#FFCE1A"/>
<path opacity="0.4" d="M200.013 177.638L200.448 177.677C200.538 177.677 200.608 177.645 200.614 177.587L200.71 175.667C200.71 175.616 200.646 175.565 200.563 175.552L200.128 175.514C200.038 175.514 199.968 175.514 199.968 175.603L199.866 177.491C199.859 177.581 199.93 177.632 200.013 177.638Z" fill="black"/>
<path d="M206.47 178.208L206.906 178.246C206.989 178.246 207.066 178.214 207.066 178.163L207.168 176.243C207.168 176.192 207.104 176.141 207.014 176.134L206.579 176.096C206.496 176.096 206.419 176.096 206.419 176.179L206.317 178.067C206.317 178.15 206.381 178.202 206.47 178.208Z" fill="#FFCE1A"/>
<path opacity="0.4" d="M206.47 178.208L206.906 178.246C206.989 178.246 207.066 178.214 207.066 178.163L207.168 176.243C207.168 176.192 207.104 176.141 207.014 176.134L206.579 176.096C206.496 176.096 206.419 176.096 206.419 176.179L206.317 178.067C206.317 178.15 206.381 178.202 206.47 178.208Z" fill="black"/>
<path d="M187.866 157.44L186.586 155.584C186.439 155.366 186.222 155.203 185.971 155.123C185.72 155.043 185.45 155.05 185.203 155.142L183.975 155.603C183.829 155.658 183.695 155.741 183.582 155.848C183.468 155.955 183.377 156.083 183.314 156.225C183.251 156.368 183.217 156.522 183.214 156.677C183.211 156.833 183.239 156.988 183.296 157.133L183.808 158.413C183.978 158.833 184.291 159.18 184.691 159.392L187.731 160.992L189.344 160.659C189.754 159.002 187.866 157.44 187.866 157.44Z" fill="#FF8B7B"/>
<path d="M189.44 160.224C189.616 159.138 189.464 158.024 189.005 157.024C188.89 156.666 188.614 155.437 188.403 155.366C187.904 155.194 187.763 156.058 187.878 156.582C187.909 156.736 187.885 156.896 187.81 157.034C187.735 157.172 187.614 157.279 187.469 157.338C187.469 157.338 188.608 160.128 189.44 160.224Z" fill="#FF8B7B"/>
<path d="M212.32 139.379L211.642 138.957C211.642 138.957 211.84 139.642 212.32 139.379Z" fill="#263238"/>
<path d="M212.57 167.501L211.142 164.422C210.94 163.982 210.586 163.63 210.144 163.43L208.928 162.867C208.786 162.802 208.632 162.765 208.476 162.76C208.319 162.755 208.163 162.781 208.017 162.837C207.871 162.893 207.737 162.978 207.624 163.086C207.512 163.195 207.422 163.325 207.36 163.469L206.842 164.672C206.736 164.913 206.715 165.182 206.781 165.436C206.848 165.69 206.997 165.915 207.206 166.074L208.998 167.418C208.998 167.418 210.477 169.382 212.147 169.088L212.57 167.501Z" fill="#FF8B7B"/>
</svg>
