<svg width="90" height="90" viewBox="0 0 90 90" fill="none" xmlns="http://www.w3.org/2000/svg">
<path fill-rule="evenodd" clip-rule="evenodd" d="M32.1372 49.7075H35.2796C37.7961 49.7075 39.8547 51.7662 39.8547 54.2827V68.9541H27.5621V54.2827C27.5621 51.7662 29.6207 49.7075 32.1372 49.7075V49.7075Z" stroke="#FFCE1A" stroke-width="1.70003" stroke-miterlimit="22.9256" stroke-linecap="round" stroke-linejoin="round"/>
<path d="M66.3375 40.9565V48.8911M55.0354 68.954H24.0894C21.0083 68.954 18.487 66.4331 18.487 63.3516V40.9565" stroke="#FFCE1A" stroke-width="1.70003" stroke-miterlimit="22.9256" stroke-linecap="round" stroke-linejoin="round"/>
<path d="M45.5585 52.4485L51.9226 52.4441" stroke="#FFCE1A" stroke-width="1.70003" stroke-miterlimit="22.9256" stroke-linecap="round" stroke-linejoin="round"/>
<path d="M23.0288 35.8977C23.0288 38.6907 20.7633 40.9565 17.9703 40.9565C15.1766 40.9565 12.9114 38.6907 12.9019 35.9079L20.2786 20.1323C20.8923 18.82 21.4637 17.4991 22.9125 17.4991H61.7515C63.1999 17.4991 63.7537 18.8305 64.3854 20.1323L72.1542 36.1545C72.044 38.7087 69.7963 40.9565 67.025 40.9565C64.2534 40.9565 62.0056 38.7087 62.0056 35.9371M62.0056 36.0844C62.0056 38.7747 59.8238 40.9565 57.1335 40.9565C54.4432 40.9565 52.2614 38.7747 52.2614 36.0844M52.2614 36.0844C52.2614 38.7747 50.0796 40.9565 47.3893 40.9565C44.699 40.9565 42.5172 38.7747 42.5172 36.0844M42.5172 36.0844C42.5172 38.7747 40.3354 40.9565 37.6451 40.9565C34.9548 40.9565 32.773 38.7747 32.773 36.0844M32.773 36.0844C32.773 38.7747 30.5916 40.9565 27.9009 40.9565C25.2106 40.9565 23.0288 38.7747 23.0288 36.0844" stroke="#FFCE1A" stroke-width="1.70003" stroke-miterlimit="22.9256" stroke-linecap="round" stroke-linejoin="round"/>
<path d="M56.0086 58.2604C57.2563 54.5234 60.5075 51.6038 64.6711 50.9793C70.5803 50.0925 76.0899 54.1642 76.9767 60.0738C77.8631 65.9831 73.7914 71.4926 67.8822 72.3794C61.9726 73.2659 56.4634 69.1942 55.5766 63.2846" stroke="#1DACA5" stroke-width="1.70003" stroke-miterlimit="22.9256" stroke-linecap="round" stroke-linejoin="round"/>
<path d="M65.366 62.7022L66.8913 62.7226C66.8859 63.1407 66.5396 63.4751 66.1185 63.4696C65.6973 63.4642 65.3606 63.1203 65.366 62.7022ZM65.4599 55.8052L66.9852 55.8256L66.8913 62.7226L65.366 62.7022L65.4599 55.8052ZM66.9852 55.8256L65.4599 55.8052C65.4654 55.3871 65.8116 55.0527 66.2328 55.0582C66.6539 55.0636 66.9906 55.4075 66.9852 55.8256Z" fill="#1DACA5"/>
<path d="M65.8698 63.4294C65.4765 63.2876 65.2735 62.8508 65.4163 62.4549C65.5592 62.0589 65.9943 61.8528 66.3875 61.9946L65.8698 63.4294ZM70.75 65.1911L65.8698 63.4294L66.3875 61.9946L71.2677 63.7563L70.75 65.1911ZM71.2677 63.7563C71.661 63.8982 71.8641 64.3349 71.7212 64.7309C71.5783 65.1268 71.1433 65.333 70.75 65.1911L71.2677 63.7563Z" fill="#1DACA5"/>
<path d="M56.1511 59.373C55.7643 59.5319 55.3207 59.3448 55.1612 58.9553C55.0017 58.5658 55.1854 58.1209 55.5721 57.962L56.1511 59.373ZM59.4772 58.0063L56.1511 59.373L55.5721 57.962L58.8982 56.5953L59.4772 58.0063ZM58.8982 56.5953C59.285 56.4364 59.7285 56.6235 59.8881 57.013C60.0476 57.4025 59.8639 57.8474 59.4772 58.0063L58.8982 56.5953Z" fill="#1DACA5"/>
<path d="M55.1595 58.9662L56.563 58.3696C56.727 58.7543 56.5457 59.1999 56.1582 59.3646C55.7708 59.5292 55.3235 59.351 55.1595 58.9662ZM53.7499 55.6579L55.1534 55.0612L56.563 58.3696L55.1595 58.9662L53.7499 55.6579ZM55.1534 55.0612L53.7499 55.6579C53.586 55.2731 53.7673 54.8275 54.1547 54.6629C54.5422 54.4983 54.9895 54.6765 55.1534 55.0612Z" fill="#1DACA5"/>
</svg>
