<svg width="58" height="72" viewBox="0 0 58 72" fill="none" xmlns="http://www.w3.org/2000/svg">
<path d="M43.5184 4.50378H48.9012C52.9487 4.50378 56.2603 7.81541 56.2603 11.8629V63.6402C56.2603 67.6877 52.9487 70.9997 48.9012 70.9997H9.099C5.05112 70.9997 1.7395 67.6877 1.7395 63.6402V11.8629C1.7395 7.81541 5.05112 4.50378 9.099 4.50378H14.438" stroke="#FFCE1A" stroke-width="1.70003" stroke-miterlimit="22.9256"/>
<path fill-rule="evenodd" clip-rule="evenodd" d="M17.4514 0.999756H40.5485C42.1737 0.999756 43.5037 2.57695 43.5037 4.50451C43.5037 6.43245 42.1737 8.00927 40.5485 8.00927H17.4514C15.8262 8.00927 14.4966 6.43245 14.4966 4.50451C14.4966 2.57695 15.8262 0.999756 17.4514 0.999756V0.999756Z" stroke="#FFCE1A" stroke-width="1.70003" stroke-miterlimit="22.9256"/>
<path d="M48.6121 24.4589H25.4526" stroke="#FFCE1A" stroke-width="1.70003" stroke-miterlimit="22.9256" stroke-linecap="round" stroke-linejoin="round"/>
<path d="M48.6121 41.3599H25.4526" stroke="#FFCE1A" stroke-width="1.70003" stroke-miterlimit="22.9256" stroke-linecap="round" stroke-linejoin="round"/>
<path d="M48.9583 58.4021H25.7988" stroke="#FFCE1A" stroke-width="1.70003" stroke-miterlimit="22.9256" stroke-linecap="round" stroke-linejoin="round"/>
<path d="M13.7618 24.9473C13.4961 25.213 13.0638 25.2115 12.7962 24.9439C12.5286 24.6763 12.5271 24.2439 12.7928 23.9782L13.7618 24.9473ZM17.2394 21.4697L13.7618 24.9473L12.7928 23.9782L16.2703 20.5007L17.2394 21.4697ZM16.2703 20.5007C16.536 20.235 16.9684 20.2365 17.236 20.5041C17.5036 20.7716 17.5051 21.204 17.2394 21.4697L16.2703 20.5007Z" fill="#FFCE1A"/>
<path d="M12.7931 24.9473L13.7621 23.9783C14.0278 24.244 14.0263 24.6763 13.7587 24.9439C13.4911 25.2115 13.0588 25.213 12.7931 24.9473ZM11.0545 23.2087L12.0236 22.2397L13.7621 23.9783L12.7931 24.9473L11.0545 23.2087ZM12.0236 22.2397L11.0545 23.2087C10.7888 22.943 10.7903 22.5107 11.0579 22.2431C11.3255 21.9755 11.7579 21.974 12.0236 22.2397Z" fill="#FFCE1A"/>
<path fill-rule="evenodd" clip-rule="evenodd" d="M18.0882 18.7367C20.2334 20.8869 20.2297 24.3693 18.0795 26.515C15.9293 28.6602 12.4469 28.6565 10.3016 26.5063C8.15596 24.3561 8.15974 20.8737 10.3099 18.728C12.4601 16.5828 15.9425 16.5865 18.0882 18.7367V18.7367Z" stroke="#1DACA5" stroke-width="1.50009" stroke-miterlimit="22.9256"/>
<path d="M13.7618 41.8474C13.4961 42.1131 13.0633 42.1116 12.7957 41.844C12.5281 41.5764 12.527 41.144 12.7927 40.8783L13.7618 41.8474ZM17.2393 38.3702L13.7618 41.8474L12.7927 40.8783L16.2703 37.4012L17.2393 38.3702ZM16.2703 37.4012C16.536 37.1355 16.9687 37.137 17.2363 37.4046C17.5039 37.6722 17.505 38.1045 17.2393 38.3702L16.2703 37.4012Z" fill="#FFCE1A"/>
<path d="M12.7931 41.8473L13.7621 40.8783C14.0278 41.144 14.0263 41.5764 13.7587 41.8439C13.4911 42.1115 13.0588 42.113 12.7931 41.8473ZM11.0545 40.1088L12.0236 39.1397L13.7621 40.8783L12.7931 41.8473L11.0545 40.1088ZM12.0236 39.1397L11.0545 40.1088C10.7888 39.8431 10.7903 39.4107 11.0579 39.1431C11.3255 38.8755 11.7579 38.874 12.0236 39.1397Z" fill="#FFCE1A"/>
<path fill-rule="evenodd" clip-rule="evenodd" d="M18.0882 35.6368C20.2334 37.7874 20.2297 41.2694 18.0795 43.4151C15.9293 45.5603 12.4469 45.5566 10.3016 43.4064C8.15596 41.2562 8.15974 37.7738 10.3099 35.6285C12.4601 33.4829 15.9425 33.4866 18.0882 35.6368Z" stroke="#1DACA5" stroke-width="1.50009" stroke-miterlimit="22.9256"/>
<path d="M14.108 58.7479C13.8423 59.0136 13.41 59.0121 13.1424 58.7445C12.8748 58.4769 12.8733 58.0446 13.139 57.7789L14.108 58.7479ZM17.5856 55.2704L14.108 58.7479L13.139 57.7789L16.6165 54.3013L17.5856 55.2704ZM16.6165 54.3013C16.8822 54.0356 17.3146 54.0371 17.5822 54.3047C17.8498 54.5723 17.8513 55.0047 17.5856 55.2704L16.6165 54.3013Z" fill="#FFCE1A"/>
<path d="M13.1393 58.748L14.1083 57.7789C14.374 58.0446 14.3725 58.477 14.1049 58.7446C13.8373 59.0122 13.405 59.0137 13.1393 58.748ZM11.4007 57.0094L12.3698 56.0403L14.1083 57.7789L13.1393 58.748L11.4007 57.0094ZM12.3698 56.0403L11.4007 57.0094C11.135 56.7437 11.1365 56.3113 11.4041 56.0437C11.6717 55.7761 12.104 55.7746 12.3698 56.0403Z" fill="#FFCE1A"/>
<path fill-rule="evenodd" clip-rule="evenodd" d="M18.4344 52.5375C20.5796 54.6876 20.5759 58.1701 18.4257 60.3157C16.2755 62.461 12.793 62.4572 10.6478 60.307C8.50215 58.1569 8.50593 54.6744 10.6561 52.5291C12.8063 50.3835 16.2887 50.3873 18.4344 52.5375Z" stroke="#1DACA5" stroke-width="1.50009" stroke-miterlimit="22.9256"/>
</svg>
