<svg width="90" height="90" viewBox="0 0 90 90" fill="none" xmlns="http://www.w3.org/2000/svg">
<path d="M58.1332 16.6536H62.9777C66.6205 16.6536 69.601 19.634 69.601 23.2768V32.8077M69.601 58.9081V69.8766C69.601 73.519 66.6202 76.5002 62.9777 76.5002H27.1556C23.5125 76.5002 20.532 73.5193 20.532 69.8766V23.2768C20.532 19.634 23.5125 16.6536 27.1556 16.6536H31.9607" stroke="#FFCE1A" stroke-width="1.70003" stroke-miterlimit="22.9256" stroke-linecap="round" stroke-linejoin="round"/>
<path fill-rule="evenodd" clip-rule="evenodd" d="M34.6728 13.5H55.4603C56.9229 13.5 58.12 14.9195 58.12 16.6543C58.12 18.3894 56.9229 19.8086 55.4603 19.8086H34.6728C33.2101 19.8086 32.0134 18.3894 32.0134 16.6543C32.0134 14.9195 33.2101 13.5 34.6728 13.5V13.5Z" stroke="#FFCE1A" stroke-width="1.70003" stroke-miterlimit="22.9256"/>
<path d="M52.2957 45.3022H41.8739" stroke="#FFCE1A" stroke-width="1.70003" stroke-miterlimit="22.9256" stroke-linecap="round" stroke-linejoin="round"/>
<path d="M31.9147 31.7589C31.7062 31.9674 31.3664 31.9664 31.1562 31.7561C30.946 31.5459 30.945 31.2061 31.1535 30.9976L31.9147 31.7589ZM36.2803 27.3933L31.9147 31.7589L31.1535 30.9976L35.5191 26.632L36.2803 27.3933ZM35.5191 26.632C35.7276 26.4235 36.0674 26.4245 36.2776 26.6347C36.4878 26.8449 36.4889 27.1847 36.2803 27.3933L35.5191 26.632Z" fill="#FFCE1A"/>
<path d="M31.1538 31.7589L31.9151 30.9977C32.1236 31.2062 32.1225 31.546 31.9123 31.7562C31.7021 31.9664 31.3623 31.9674 31.1538 31.7589ZM28.971 29.5761L29.7323 28.8148L31.9151 30.9977L31.1538 31.7589L28.971 29.5761ZM29.7323 28.8148L28.971 29.5761C28.7625 29.3676 28.7635 29.0278 28.9737 28.8176C29.1839 28.6074 29.5237 28.6063 29.7323 28.8148Z" fill="#FFCE1A"/>
<path d="M36.6865 29.8054C36.7471 31.1477 36.2644 32.5107 35.2381 33.5346C33.3033 35.465 30.1687 35.4619 28.238 33.5268C26.3069 31.5916 26.3103 28.4574 28.2455 26.5263C29.7075 25.068 31.8532 24.7132 33.6475 25.4606" stroke="#FFCE1A" stroke-width="1.2" stroke-miterlimit="22.9256" stroke-linecap="round" stroke-linejoin="round"/>
<path d="M31.9147 45.3763C31.7062 45.5848 31.3664 45.5838 31.1562 45.3736C30.946 45.1634 30.945 44.8235 31.1535 44.615L31.9147 45.3763ZM36.2803 41.0107L31.9147 45.3763L31.1535 44.615L35.5191 40.2494L36.2803 41.0107ZM35.5191 40.2494C35.7276 40.0409 36.0674 40.0419 36.2776 40.2521C36.4878 40.4624 36.4889 40.8022 36.2803 41.0107L35.5191 40.2494Z" fill="#FFCE1A"/>
<path d="M31.1538 45.3764L31.9151 44.6151C32.1236 44.8236 32.1225 45.1634 31.9123 45.3736C31.7021 45.5839 31.3623 45.5849 31.1538 45.3764ZM28.971 43.1936L29.7323 42.4323L31.9151 44.6151L31.1538 45.3764L28.971 43.1936ZM29.7323 42.4323L28.971 43.1936C28.7625 42.985 28.7635 42.6452 28.9737 42.435C29.1839 42.2248 29.5237 42.2238 29.7323 42.4323Z" fill="#FFCE1A"/>
<path d="M36.6865 43.4229C36.7471 44.7651 36.2644 46.1281 35.2381 47.152C33.3033 49.0824 30.1687 49.0794 28.238 47.1442C26.3069 45.209 26.3103 42.0748 28.2455 40.1437C29.7075 38.6855 31.8532 38.3307 33.6475 39.078" stroke="#FFCE1A" stroke-width="1.2" stroke-miterlimit="22.9256" stroke-linecap="round" stroke-linejoin="round"/>
<path d="M78.721 45.4734C78.4451 40.4366 74.1384 36.577 69.1015 36.8529C64.0647 37.1287 60.2052 41.4355 60.481 46.4723C60.7569 51.5091 65.0636 55.3687 70.1005 55.0928C75.1373 54.817 78.9968 50.5102 78.721 45.4734Z" stroke="#1DACA5" stroke-width="0.522699" stroke-miterlimit="22.9256"/>
<path d="M57.1389 31.4658H42.1855" stroke="#FFCE1A" stroke-width="1.70003" stroke-miterlimit="22.9256" stroke-linecap="round" stroke-linejoin="round"/>
<path d="M68.7299 49.3327C68.4343 49.6283 67.953 49.6266 67.6554 49.3289C67.3577 49.0313 67.356 48.55 67.6516 48.2544L68.7299 49.3327ZM74.3711 43.6915L68.7299 49.3327L67.6516 48.2544L73.2928 42.6132L74.3711 43.6915ZM73.2928 42.6132C73.5884 42.3176 74.0698 42.3193 74.3674 42.6169C74.665 42.9146 74.6667 43.3959 74.3711 43.6915L73.2928 42.6132Z" fill="#FFCE1A"/>
<path d="M67.6519 49.3326L68.7302 48.2543C69.0258 48.5499 69.0241 49.0313 68.7265 49.3289C68.4288 49.6265 67.9475 49.6282 67.6519 49.3326ZM64.8313 46.512L65.9096 45.4337L68.7302 48.2543L67.6519 49.3326L64.8313 46.512ZM65.9096 45.4337L64.8313 46.512C64.5357 46.2164 64.5374 45.7351 64.8351 45.4375C65.1327 45.1398 65.614 45.1381 65.9096 45.4337Z" fill="#FFCE1A"/>
<path d="M31.9562 56.9189V69.7191" stroke="#FFCE1A" stroke-width="1.70003" stroke-miterlimit="22.9256" stroke-linecap="round" stroke-linejoin="round"/>
<path d="M38.5111 56.9189V69.7191" stroke="#FFCE1A" stroke-width="1.70003" stroke-miterlimit="22.9256" stroke-linecap="round" stroke-linejoin="round"/>
<path d="M45.0659 59.9568V69.719" stroke="#FFCE1A" stroke-width="1.70003" stroke-miterlimit="22.9256" stroke-linecap="round" stroke-linejoin="round"/>
<path d="M51.6208 62.2444V69.719" stroke="#FFCE1A" stroke-width="1.70003" stroke-miterlimit="22.9256" stroke-linecap="round" stroke-linejoin="round"/>
<path d="M58.1768 65.9817V69.719" stroke="#FFCE1A" stroke-width="1.70003" stroke-miterlimit="22.9256" stroke-linecap="round" stroke-linejoin="round"/>
</svg>
