<svg width="61" height="66" viewBox="0 0 61 66" fill="none" xmlns="http://www.w3.org/2000/svg">
<path d="M39.1332 4.65356H43.9777C47.6205 4.65356 50.601 7.63404 50.601 11.2768V20.8077M50.601 46.9081V57.8766C50.601 61.519 47.6202 64.5002 43.9777 64.5002H8.15556C4.51246 64.5002 1.53198 61.5193 1.53198 57.8766V11.2768C1.53198 7.63404 4.51246 4.65356 8.15556 4.65356H12.9607" stroke="#FFCE1A" stroke-width="1.70003" stroke-miterlimit="22.9256" stroke-linecap="round" stroke-linejoin="round"/>
<path fill-rule="evenodd" clip-rule="evenodd" d="M15.6728 1.5H36.4603C37.9229 1.5 39.12 2.91948 39.12 4.6543C39.12 6.38945 37.9229 7.80859 36.4603 7.80859H15.6728C14.2101 7.80859 13.0134 6.38945 13.0134 4.6543C13.0134 2.91948 14.2101 1.5 15.6728 1.5V1.5Z" stroke="#FFCE1A" stroke-width="1.70003" stroke-miterlimit="22.9256"/>
<path d="M33.2957 33.3022H22.8739" stroke="#FFCE1A" stroke-width="1.70003" stroke-miterlimit="22.9256" stroke-linecap="round" stroke-linejoin="round"/>
<path d="M12.9147 19.7589C12.7062 19.9674 12.3664 19.9664 12.1562 19.7561C11.946 19.5459 11.945 19.2061 12.1535 18.9976L12.9147 19.7589ZM17.2803 15.3933L12.9147 19.7589L12.1535 18.9976L16.5191 14.632L17.2803 15.3933ZM16.5191 14.632C16.7276 14.4235 17.0674 14.4245 17.2776 14.6347C17.4878 14.8449 17.4889 15.1847 17.2803 15.3933L16.5191 14.632V14.632Z" fill="#FFCE1A"/>
<path d="M12.1538 19.7589L12.9151 18.9977C13.1236 19.2062 13.1225 19.546 12.9123 19.7562C12.7021 19.9664 12.3623 19.9674 12.1538 19.7589ZM9.97098 17.5761L10.7323 16.8148L12.9151 18.9977L12.1538 19.7589L9.97098 17.5761ZM10.7323 16.8148L9.97098 17.5761C9.76246 17.3676 9.76348 17.0278 9.9737 16.8176C10.1839 16.6074 10.5237 16.6063 10.7323 16.8148Z" fill="#FFCE1A"/>
<path d="M17.6865 17.8054C17.7471 19.1477 17.2644 20.5107 16.2381 21.5346C14.3033 23.465 11.1687 23.4619 9.23798 21.5268C7.30689 19.5916 7.31029 16.4574 9.24546 14.5263C10.7075 13.068 12.8532 12.7132 14.6475 13.4606" stroke="#FFCE1A" stroke-width="1.2" stroke-miterlimit="22.9256" stroke-linecap="round" stroke-linejoin="round"/>
<path d="M12.9147 33.3763C12.7062 33.5848 12.3664 33.5838 12.1562 33.3736C11.946 33.1634 11.945 32.8235 12.1535 32.615L12.9147 33.3763V33.3763ZM17.2803 29.0107L12.9147 33.3763L12.1535 32.615L16.5191 28.2494L17.2803 29.0107ZM16.5191 28.2494C16.7276 28.0409 17.0674 28.0419 17.2776 28.2521C17.4878 28.4624 17.4889 28.8022 17.2803 29.0107L16.5191 28.2494V28.2494Z" fill="#FFCE1A"/>
<path d="M12.1538 33.3764L12.9151 32.6151C13.1236 32.8236 13.1225 33.1634 12.9123 33.3736C12.7021 33.5839 12.3623 33.5849 12.1538 33.3764V33.3764ZM9.97098 31.1936L10.7323 30.4323L12.9151 32.6151L12.1538 33.3764L9.97098 31.1936ZM10.7323 30.4323L9.97098 31.1936C9.76246 30.985 9.76348 30.6452 9.9737 30.435C10.1839 30.2248 10.5237 30.2238 10.7323 30.4323V30.4323Z" fill="#FFCE1A"/>
<path d="M17.6865 31.4229C17.7471 32.7651 17.2644 34.1281 16.2381 35.152C14.3033 37.0824 11.1687 37.0794 9.23798 35.1442C7.30689 33.209 7.31029 30.0748 9.24546 28.1437C10.7075 26.6855 12.8532 26.3307 14.6475 27.078" stroke="#FFCE1A" stroke-width="1.2" stroke-miterlimit="22.9256" stroke-linecap="round" stroke-linejoin="round"/>
<path d="M59.721 33.4734C59.4451 28.4366 55.1384 24.577 50.1015 24.8529C45.0647 25.1287 41.2052 29.4355 41.481 34.4723C41.7569 39.5091 46.0636 43.3687 51.1005 43.0928C56.1373 42.817 59.9968 38.5102 59.721 33.4734Z" stroke="#1DACA5" stroke-width="0.522699" stroke-miterlimit="22.9256"/>
<path d="M38.1389 19.4658H23.1855" stroke="#FFCE1A" stroke-width="1.70003" stroke-miterlimit="22.9256" stroke-linecap="round" stroke-linejoin="round"/>
<path d="M49.7299 37.3327C49.4343 37.6283 48.953 37.6266 48.6554 37.3289C48.3577 37.0313 48.356 36.55 48.6516 36.2544L49.7299 37.3327V37.3327ZM55.3711 31.6915L49.7299 37.3327L48.6516 36.2544L54.2928 30.6132L55.3711 31.6915ZM54.2928 30.6132C54.5884 30.3176 55.0698 30.3193 55.3674 30.6169C55.665 30.9146 55.6667 31.3959 55.3711 31.6915L54.2928 30.6132V30.6132Z" fill="#FFCE1A"/>
<path d="M48.6519 37.3326L49.7302 36.2543C50.0258 36.5499 50.0241 37.0313 49.7265 37.3289C49.4288 37.6265 48.9475 37.6282 48.6519 37.3326V37.3326ZM45.8313 34.512L46.9096 33.4337L49.7302 36.2543L48.6519 37.3326L45.8313 34.512ZM46.9096 33.4337L45.8313 34.512C45.5357 34.2164 45.5374 33.7351 45.8351 33.4375C46.1327 33.1398 46.614 33.1381 46.9096 33.4337V33.4337Z" fill="#FFCE1A"/>
<path d="M12.9562 44.9189V57.7191" stroke="#FFCE1A" stroke-width="1.70003" stroke-miterlimit="22.9256" stroke-linecap="round" stroke-linejoin="round"/>
<path d="M19.5111 44.9189V57.7191" stroke="#FFCE1A" stroke-width="1.70003" stroke-miterlimit="22.9256" stroke-linecap="round" stroke-linejoin="round"/>
<path d="M26.0659 47.9568V57.719" stroke="#FFCE1A" stroke-width="1.70003" stroke-miterlimit="22.9256" stroke-linecap="round" stroke-linejoin="round"/>
<path d="M32.6208 50.2444V57.719" stroke="#FFCE1A" stroke-width="1.70003" stroke-miterlimit="22.9256" stroke-linecap="round" stroke-linejoin="round"/>
<path d="M39.1768 53.9817V57.719" stroke="#FFCE1A" stroke-width="1.70003" stroke-miterlimit="22.9256" stroke-linecap="round" stroke-linejoin="round"/>
</svg>
