<svg width="61" height="60" viewBox="0 0 61 60" fill="none" xmlns="http://www.w3.org/2000/svg">
<g clip-path="url(#clip0_2327_3095)">
<path d="M53.3 0.799988H7.7C4.16538 0.799988 1.3 3.66537 1.3 7.19999V52.8C1.3 56.3346 4.16538 59.2 7.7 59.2H53.3C56.8346 59.2 59.7 56.3346 59.7 52.8V7.19999C59.7 3.66537 56.8346 0.799988 53.3 0.799988Z" fill="#F1F6F7" stroke="#C7C5C5" stroke-width="1.5" stroke-linecap="round" stroke-dasharray="6 6"/>
<path d="M38.9 32.4V16C38.9 14.2327 37.4673 12.8 35.7 12.8H16.5C14.7327 12.8 13.3 14.2327 13.3 16V45.6C13.3 47.3673 14.7327 48.8 16.5 48.8H29.7" stroke="#C7C5C5" stroke-width="2"/>
<path d="M34.9 42.8057L38.9505 38.5498C39.1406 38.3501 39.4594 38.3501 39.6495 38.5498L41.6747 40.6778L43.7 42.8057M39.3 48.4V38.4114" stroke="#C7C5C5" stroke-width="2" stroke-linecap="round"/>
<path d="M16.9 20.8H30.9M16.9 25.2H26.5M16.9 29.2H26.5" stroke="#C7C5C5" stroke-width="2"/>
<path d="M18.9 36L22.9 40" stroke="#C7C5C5" stroke-width="2"/>
<path d="M25.3 36L29.3 40" stroke="#C7C5C5" stroke-width="2"/>
<path d="M18.9 40L22.9 36" stroke="#C7C5C5" stroke-width="2"/>
<path d="M25.3 40L29.3 36" stroke="#C7C5C5" stroke-width="2"/>
<path d="M38.9 51.2C43.3183 51.2 46.9 47.6183 46.9 43.2C46.9 38.7817 43.3183 35.2 38.9 35.2C34.4817 35.2 30.9 38.7817 30.9 43.2C30.9 47.6183 34.4817 51.2 38.9 51.2Z" stroke="#C7C5C5" stroke-width="2"/>
</g>
<defs>
<clipPath id="clip0_2327_3095">
<rect width="60" height="60" fill="white" transform="translate(0.5)"/>
</clipPath>
</defs>
</svg>
