<svg width="62" height="66" viewBox="0 0 62 66" fill="none" xmlns="http://www.w3.org/2000/svg">
<path d="M39.0155 4.65356H43.8601C47.5028 4.65356 50.4833 7.63404 50.4833 11.2768V20.8077M50.4833 46.9081V57.8766C50.4833 61.519 47.5025 64.5002 43.8601 64.5002H8.03789C4.39478 64.5002 1.41431 61.5193 1.41431 57.8766V11.2768C1.41431 7.63404 4.39478 4.65356 8.03789 4.65356H12.843" stroke="#FFCE1A" stroke-width="1.70003" stroke-miterlimit="22.9256" stroke-linecap="round" stroke-linejoin="round"/>
<path fill-rule="evenodd" clip-rule="evenodd" d="M15.5551 1.5H36.3426C37.8053 1.5 39.0023 2.91948 39.0023 4.6543C39.0023 6.38945 37.8053 7.80859 36.3426 7.80859H15.5551C14.0924 7.80859 12.8958 6.38945 12.8958 4.6543C12.8958 2.91948 14.0924 1.5 15.5551 1.5V1.5Z" stroke="#FFCE1A" stroke-width="1.70003" stroke-miterlimit="22.9256"/>
<path d="M33.178 37.8242H22.7562" stroke="#FFCE1A" stroke-width="1.70003" stroke-miterlimit="22.9256" stroke-linecap="round" stroke-linejoin="round"/>
<path d="M35.8681 53.1624H23.0679" stroke="#FFCE1A" stroke-width="1.70003" stroke-miterlimit="22.9256" stroke-linecap="round" stroke-linejoin="round"/>
<path d="M12.7971 22.6881C12.5886 22.8966 12.2487 22.8956 12.0385 22.6853C11.8283 22.4751 11.8273 22.1353 12.0358 21.9268L12.7971 22.6881ZM17.1627 18.3225L12.7971 22.6881L12.0358 21.9268L16.4014 17.5612L17.1627 18.3225ZM16.4014 17.5612C16.6099 17.3527 16.9497 17.3537 17.16 17.5639C17.3702 17.7741 17.3712 18.1139 17.1627 18.3225L16.4014 17.5612Z" fill="#FFCE1A"/>
<path d="M12.0361 22.6881L12.7974 21.9268C13.0059 22.1354 13.0049 22.4752 12.7947 22.6854C12.5844 22.8956 12.2446 22.8966 12.0361 22.6881ZM9.8533 20.5053L10.6146 19.744L12.7974 21.9268L12.0361 22.6881L9.8533 20.5053ZM10.6146 19.744L9.8533 20.5053C9.64478 20.2968 9.6458 19.957 9.85602 19.7468C10.0662 19.5365 10.4061 19.5355 10.6146 19.744Z" fill="#FFCE1A"/>
<path d="M17.5688 20.7346C17.6294 22.0769 17.1467 23.4399 16.1204 24.4638C14.1856 26.3942 11.051 26.3911 9.1203 24.456C7.18921 22.5208 7.19262 19.3866 9.12778 17.4555C10.5898 15.9972 12.7355 15.6424 14.5299 16.3898" stroke="#FFCE1A" stroke-width="1.2" stroke-miterlimit="22.9256" stroke-linecap="round" stroke-linejoin="round"/>
<path d="M12.7971 37.8983C12.5886 38.1068 12.2487 38.1058 12.0385 37.8955C11.8283 37.6853 11.8273 37.3455 12.0358 37.137L12.7971 37.8983ZM17.1627 33.5327L12.7971 37.8983L12.0358 37.137L16.4014 32.7714L17.1627 33.5327ZM16.4014 32.7714C16.6099 32.5629 16.9497 32.5639 17.16 32.7741C17.3702 32.9843 17.3712 33.3241 17.1627 33.5327L16.4014 32.7714Z" fill="#FFCE1A"/>
<path d="M12.0361 37.8983L12.7974 37.1371C13.0059 37.3456 13.0049 37.6854 12.7947 37.8956C12.5844 38.1058 12.2446 38.1069 12.0361 37.8983ZM9.8533 35.7155L10.6146 34.9543L12.7974 37.1371L12.0361 37.8983L9.8533 35.7155ZM10.6146 34.9543L9.8533 35.7155C9.64478 35.507 9.6458 35.1672 9.85602 34.957C10.0662 34.7468 10.4061 34.7457 10.6146 34.9543Z" fill="#FFCE1A"/>
<path d="M17.5688 35.9448C17.6294 37.2871 17.1467 38.6501 16.1204 39.674C14.1856 41.6044 11.051 41.6013 9.1203 39.6662C7.18921 37.731 7.19262 34.5968 9.12778 32.6657C10.5898 31.2074 12.7355 30.8527 14.5299 31.6" stroke="#FFCE1A" stroke-width="1.2" stroke-miterlimit="22.9256" stroke-linecap="round" stroke-linejoin="round"/>
<path d="M12.7971 53.201C12.5886 53.4095 12.2487 53.4085 12.0385 53.1983C11.8283 52.9881 11.8273 52.6482 12.0358 52.4397L12.7971 53.201ZM17.1627 48.8354L12.7971 53.201L12.0358 52.4397L16.4014 48.0741L17.1627 48.8354ZM16.4014 48.0741C16.6099 47.8656 16.9497 47.8666 17.16 48.0768C17.3702 48.2871 17.3712 48.6269 17.1627 48.8354L16.4014 48.0741Z" fill="#FFCE1A"/>
<path d="M12.0361 53.2011L12.7974 52.4398C13.0059 52.6483 13.0049 52.9881 12.7947 53.1983C12.5844 53.4086 12.2446 53.4096 12.0361 53.2011ZM9.8533 51.0183L10.6146 50.257L12.7974 52.4398L12.0361 53.2011L9.8533 51.0183ZM10.6146 50.257L9.8533 51.0183C9.64478 50.8097 9.6458 50.4699 9.85602 50.2597C10.0662 50.0495 10.4061 50.0485 10.6146 50.257Z" fill="#FFCE1A"/>
<path d="M17.5688 51.2476C17.6294 52.5898 17.1467 53.9529 16.1204 54.9767C14.1856 56.9071 11.051 56.9041 9.1203 54.9689C7.18921 53.0337 7.19262 49.8995 9.12778 47.9684C10.5898 46.5102 12.7355 46.1554 14.5299 46.9027" stroke="#FFCE1A" stroke-width="1.2" stroke-miterlimit="22.9256" stroke-linecap="round" stroke-linejoin="round"/>
<path d="M47.1589 27.8504C50.5405 27.665 53.4318 30.2564 53.6169 33.6379C53.8022 37.0191 51.2109 39.9108 47.8297 40.0958" stroke="#1DACA5" stroke-width="1.70003" stroke-miterlimit="22.9256" stroke-linecap="round" stroke-linejoin="round"/>
<path d="M56.6143 33.4734C56.3385 28.4366 52.0317 24.577 46.9949 24.8529C41.958 25.1287 38.0985 29.4355 38.3743 34.4723C38.6502 39.5091 42.9569 43.3687 47.9938 43.0928C53.0306 42.817 56.8901 38.5102 56.6143 33.4734Z" stroke="#1DACA5" stroke-width="0.592366" stroke-miterlimit="22.9256"/>
<path d="M58.1667 45.4512C56.7261 43.6808 55.1994 42.5375 54.7567 42.8977C54.3141 43.2578 55.1232 44.985 56.5639 46.7555L57.5955 48.0233C59.0362 49.7937 60.5629 50.937 61.0055 50.5768C61.4481 50.2167 60.639 48.4894 59.1984 46.719L58.1667 45.4512Z" stroke="#1DACA5" stroke-width="1.2021" stroke-miterlimit="22.9256"/>
<path d="M53.5941 41.469L55.8228 44.2083" stroke="#1DACA5" stroke-width="1.70003" stroke-miterlimit="22.9256" stroke-linecap="round" stroke-linejoin="round"/>
<path d="M35.8681 22.395H23.0679" stroke="#FFCE1A" stroke-width="1.70003" stroke-miterlimit="22.9256" stroke-linecap="round" stroke-linejoin="round"/>
</svg>
