<svg width="90" height="90" viewBox="0 0 90 90" fill="none" xmlns="http://www.w3.org/2000/svg">
<path d="M58.0155 16.6536H62.8601C66.5028 16.6536 69.4833 19.634 69.4833 23.2768V32.8077M69.4833 58.9081V69.8766C69.4833 73.519 66.5025 76.5002 62.8601 76.5002H27.0379C23.3948 76.5002 20.4143 73.5193 20.4143 69.8766V23.2768C20.4143 19.634 23.3948 16.6536 27.0379 16.6536H31.843" stroke="#FFCE1A" stroke-width="1.70003" stroke-miterlimit="22.9256" stroke-linecap="round" stroke-linejoin="round"/>
<path fill-rule="evenodd" clip-rule="evenodd" d="M34.5551 13.5H55.3426C56.8053 13.5 58.0023 14.9195 58.0023 16.6543C58.0023 18.3894 56.8053 19.8086 55.3426 19.8086H34.5551C33.0924 19.8086 31.8958 18.3894 31.8958 16.6543C31.8958 14.9195 33.0924 13.5 34.5551 13.5V13.5Z" stroke="#FFCE1A" stroke-width="1.70003" stroke-miterlimit="22.9256"/>
<path d="M52.178 49.8242H41.7562" stroke="#FFCE1A" stroke-width="1.70003" stroke-miterlimit="22.9256" stroke-linecap="round" stroke-linejoin="round"/>
<path d="M54.8681 65.1624H42.0679" stroke="#FFCE1A" stroke-width="1.70003" stroke-miterlimit="22.9256" stroke-linecap="round" stroke-linejoin="round"/>
<path d="M31.7971 34.6881C31.5886 34.8966 31.2487 34.8956 31.0385 34.6853C30.8283 34.4751 30.8273 34.1353 31.0358 33.9268L31.7971 34.6881ZM36.1627 30.3225L31.7971 34.6881L31.0358 33.9268L35.4014 29.5612L36.1627 30.3225ZM35.4014 29.5612C35.6099 29.3527 35.9497 29.3537 36.16 29.5639C36.3702 29.7741 36.3712 30.1139 36.1627 30.3225L35.4014 29.5612Z" fill="#FFCE1A"/>
<path d="M31.0361 34.6881L31.7974 33.9268C32.0059 34.1354 32.0049 34.4752 31.7947 34.6854C31.5844 34.8956 31.2446 34.8966 31.0361 34.6881ZM28.8533 32.5053L29.6146 31.744L31.7974 33.9268L31.0361 34.6881L28.8533 32.5053ZM29.6146 31.744L28.8533 32.5053C28.6448 32.2968 28.6458 31.957 28.856 31.7468C29.0662 31.5365 29.4061 31.5355 29.6146 31.744Z" fill="#FFCE1A"/>
<path d="M36.5688 32.7346C36.6294 34.0769 36.1467 35.4399 35.1204 36.4638C33.1856 38.3942 30.051 38.3911 28.1203 36.456C26.1892 34.5208 26.1926 31.3866 28.1278 29.4555C29.5898 27.9972 31.7355 27.6424 33.5299 28.3898" stroke="#FFCE1A" stroke-width="1.2" stroke-miterlimit="22.9256" stroke-linecap="round" stroke-linejoin="round"/>
<path d="M31.7971 49.8983C31.5886 50.1068 31.2487 50.1058 31.0385 49.8955C30.8283 49.6853 30.8273 49.3455 31.0358 49.137L31.7971 49.8983ZM36.1627 45.5327L31.7971 49.8983L31.0358 49.137L35.4014 44.7714L36.1627 45.5327ZM35.4014 44.7714C35.6099 44.5629 35.9497 44.5639 36.16 44.7741C36.3702 44.9843 36.3712 45.3241 36.1627 45.5327L35.4014 44.7714Z" fill="#FFCE1A"/>
<path d="M31.0361 49.8983L31.7974 49.1371C32.0059 49.3456 32.0049 49.6854 31.7947 49.8956C31.5844 50.1058 31.2446 50.1069 31.0361 49.8983ZM28.8533 47.7155L29.6146 46.9543L31.7974 49.1371L31.0361 49.8983L28.8533 47.7155ZM29.6146 46.9543L28.8533 47.7155C28.6448 47.507 28.6458 47.1672 28.856 46.957C29.0662 46.7468 29.4061 46.7457 29.6146 46.9543Z" fill="#FFCE1A"/>
<path d="M36.5688 47.9448C36.6294 49.2871 36.1467 50.6501 35.1204 51.674C33.1856 53.6044 30.051 53.6013 28.1203 51.6662C26.1892 49.731 26.1926 46.5968 28.1278 44.6657C29.5898 43.2074 31.7355 42.8527 33.5299 43.6" stroke="#FFCE1A" stroke-width="1.2" stroke-miterlimit="22.9256" stroke-linecap="round" stroke-linejoin="round"/>
<path d="M31.7971 65.201C31.5886 65.4095 31.2487 65.4085 31.0385 65.1983C30.8283 64.9881 30.8273 64.6482 31.0358 64.4397L31.7971 65.201ZM36.1627 60.8354L31.7971 65.201L31.0358 64.4397L35.4014 60.0741L36.1627 60.8354ZM35.4014 60.0741C35.6099 59.8656 35.9497 59.8666 36.16 60.0768C36.3702 60.2871 36.3712 60.6269 36.1627 60.8354L35.4014 60.0741Z" fill="#FFCE1A"/>
<path d="M31.0361 65.2011L31.7974 64.4398C32.0059 64.6483 32.0049 64.9881 31.7947 65.1983C31.5844 65.4086 31.2446 65.4096 31.0361 65.2011ZM28.8533 63.0183L29.6146 62.257L31.7974 64.4398L31.0361 65.2011L28.8533 63.0183ZM29.6146 62.257L28.8533 63.0183C28.6448 62.8097 28.6458 62.4699 28.856 62.2597C29.0662 62.0495 29.4061 62.0485 29.6146 62.257Z" fill="#FFCE1A"/>
<path d="M36.5688 63.2476C36.6294 64.5898 36.1467 65.9529 35.1204 66.9767C33.1856 68.9071 30.051 68.9041 28.1203 66.9689C26.1892 65.0337 26.1926 61.8995 28.1278 59.9684C29.5898 58.5102 31.7355 58.1554 33.5299 58.9027" stroke="#FFCE1A" stroke-width="1.2" stroke-miterlimit="22.9256" stroke-linecap="round" stroke-linejoin="round"/>
<path d="M66.1589 39.8504C69.5405 39.665 72.4318 42.2564 72.6169 45.6379C72.8022 49.0191 70.2109 51.9108 66.8297 52.0958" stroke="#1DACA5" stroke-width="1.70003" stroke-miterlimit="22.9256" stroke-linecap="round" stroke-linejoin="round"/>
<path d="M75.6143 45.4734C75.3385 40.4366 71.0317 36.577 65.9949 36.8529C60.958 37.1287 57.0985 41.4355 57.3743 46.4723C57.6502 51.5091 61.9569 55.3687 66.9938 55.0928C72.0306 54.817 75.8901 50.5102 75.6143 45.4734Z" stroke="#1DACA5" stroke-width="0.592366" stroke-miterlimit="22.9256"/>
<path d="M77.1667 57.4512C75.7261 55.6808 74.1994 54.5375 73.7567 54.8977C73.3141 55.2578 74.1232 56.985 75.5639 58.7555L76.5955 60.0233C78.0362 61.7937 79.5629 62.937 80.0055 62.5768C80.4481 62.2167 79.639 60.4894 78.1984 58.719L77.1667 57.4512Z" stroke="#1DACA5" stroke-width="1.2021" stroke-miterlimit="22.9256"/>
<path d="M72.5941 53.469L74.8228 56.2083" stroke="#1DACA5" stroke-width="1.70003" stroke-miterlimit="22.9256" stroke-linecap="round" stroke-linejoin="round"/>
<path d="M54.8681 34.395H42.0679" stroke="#FFCE1A" stroke-width="1.70003" stroke-miterlimit="22.9256" stroke-linecap="round" stroke-linejoin="round"/>
</svg>
