<svg width="16" height="16" viewBox="0 0 16 16" fill="none" xmlns="http://www.w3.org/2000/svg">
<path fill-rule="evenodd" clip-rule="evenodd" d="M4.56002 3.42248C4.74524 3.38229 4.97483 3.41331 5.17488 3.42355C5.6994 3.4504 5.55583 3.54444 6.01373 4.5265C6.15417 4.82767 6.2842 5.12193 6.41778 5.43272C6.62507 5.91503 6.68038 5.94934 6.3165 6.31699L5.70141 7.01684C5.52038 7.35848 6.43884 8.39187 6.6631 8.63183C7.24509 9.25458 8.14191 9.84388 9.00241 10.1866C9.25208 10.286 9.32431 10.2782 9.47072 10.1084C10.4191 9.00915 10.0923 8.73005 11.2662 9.30793C11.5626 9.45385 11.8712 9.58055 12.1664 9.71929C12.4629 9.85865 12.9065 9.93511 12.8835 10.3242C12.8682 10.5835 12.7068 11.1322 12.5997 11.3287C12.3095 11.8611 11.8169 12.2519 11.0537 12.4026C9.87228 12.636 8.07626 11.8054 7.14325 11.1836C6.85599 10.9922 6.25565 10.5736 6.03593 10.3452C5.80477 10.1051 5.33797 9.7379 5.05137 9.38234C4.11803 8.22442 2.74746 6.56769 3.33286 4.79499C3.48816 4.32468 4.05406 3.53229 4.56002 3.42248ZM0.664181 15.1926C1.15115 15.1115 2.53643 14.7186 3.17316 14.5538C3.58087 14.4484 3.57211 14.5047 3.89461 14.6949C4.74525 15.1966 5.78537 15.6517 6.95483 15.792C10.3439 16.1987 13.4459 14.4333 14.9786 11.4979C16.6646 8.26878 15.7924 4.54073 13.5271 2.29198C13.2275 1.99452 12.7018 1.59123 12.368 1.35437C11.9801 1.079 11.4948 0.846422 11.0279 0.634232C8.93185 -0.318274 6.2624 -0.167846 4.25189 0.883803C3.46774 1.29398 2.49711 2.01735 1.92328 2.7103C1.33432 3.42152 0.772571 4.24659 0.407222 5.35093C-0.333904 7.59118 -0.0558132 10.0748 1.17933 12.056C1.48143 12.5406 1.43916 12.3792 1.10359 13.5713C0.962568 14.0722 0.754358 14.7038 0.664181 15.1926Z" fill="#55CD6C"/>
<path fill-rule="evenodd" clip-rule="evenodd" d="M4.56008 3.42248C4.05412 3.53228 3.48823 4.32468 3.33292 4.79498C2.74753 6.56769 4.1181 8.22442 5.05143 9.38233C5.33803 9.73789 5.80483 10.105 6.03599 10.3452C6.25571 10.5736 6.85605 10.9922 7.14331 11.1836C8.07632 11.8054 9.87234 12.636 11.0537 12.4026C11.8169 12.2519 12.3095 11.8611 12.5997 11.3287C12.7069 11.1322 12.8682 10.5835 12.8836 10.3242C12.9066 9.93511 12.463 9.85865 12.1665 9.71928C11.8713 9.58054 11.5627 9.45385 11.2663 9.30793C10.0924 8.73004 10.4192 9.00914 9.47078 10.1084C9.32437 10.2782 9.25214 10.286 9.00247 10.1866C8.14197 9.84388 7.24515 9.25458 6.66317 8.63183C6.4389 8.39186 5.52044 7.35848 5.70147 7.01683L6.31656 6.31699C6.68044 5.94933 6.62514 5.91503 6.41784 5.43272C6.28426 5.12193 6.15423 4.82767 6.0138 4.5265C5.55589 3.54444 5.69946 3.4504 5.17495 3.42355C4.97489 3.41331 4.7453 3.38228 4.56008 3.42248Z" fill="#FDFEFD"/>
</svg>
